<svg width="34" height="34" viewBox="0 0 34 34" fill="none" xmlns="http://www.w3.org/2000/svg">
    <path
        d="M12.041 12.7497L10.4827 9.34967L7.08268 7.79134L10.4827 6.23301L12.041 2.83301L13.5993 6.23301L16.9993 7.79134L13.5993 9.34967L12.041 12.7497ZM21.2493 16.9997L19.9035 14.0955L16.9993 12.7497L19.9035 11.4038L21.2493 8.49967L22.5952 11.4038L25.4993 12.7497L22.5952 14.0955L21.2493 16.9997ZM5.66602 19.833L4.32018 16.9288L1.41602 15.583L4.32018 14.2372L5.66602 11.333L7.01185 14.2372L9.91602 15.583L7.01185 16.9288L5.66602 19.833ZM6.37435 29.0413L4.24935 26.9163L14.8743 16.2913L20.541 21.958L30.5993 10.6601L32.5827 12.6434L20.541 26.208L14.8743 20.5413L6.37435 29.0413Z"
        fill="#4959E7" />
</svg>