<svg width="72" height="43" viewBox="0 0 72 43" fill="none" xmlns="http://www.w3.org/2000/svg">
<g clip-path="url(#clip0_3593_9284)">
<path d="M20.5246 15.5893C20.5246 16.4726 20.6184 17.1888 20.7827 17.714C20.9704 18.2392 21.2051 18.8121 21.5336 19.4328C21.6509 19.6238 21.6979 19.8148 21.6979 19.9819C21.6979 20.2207 21.5571 20.4594 21.252 20.6981L19.7737 21.7008C19.5625 21.844 19.3513 21.9157 19.1635 21.9157C18.9289 21.9157 18.6942 21.7963 18.4596 21.5814C18.131 21.2233 17.8494 20.8414 17.6148 20.4594C17.3801 20.0536 17.1455 19.6 16.8873 19.0509C15.057 21.2472 12.7573 22.3454 9.9883 22.3454C8.01715 22.3454 6.44492 21.7724 5.29508 20.6265C4.14525 19.4806 3.55859 17.9527 3.55859 16.0428C3.55859 14.0136 4.26258 12.3664 5.69401 11.1249C7.12544 9.88354 9.02619 9.26283 11.4432 9.26283C12.241 9.26283 13.0624 9.33445 13.9306 9.45382C14.7988 9.57318 15.6906 9.76417 16.6292 9.97903V8.23628C16.6292 6.42191 16.2537 5.15663 15.5263 4.41656C14.7754 3.67648 13.5082 3.31839 11.7013 3.31839C10.88 3.31839 10.0352 3.41388 9.16699 3.62874C8.29874 3.8436 7.45396 4.1062 6.63265 4.44043C6.25719 4.60754 5.9756 4.70304 5.81134 4.75078C5.64707 4.79853 5.52974 4.8224 5.43588 4.8224C5.10735 4.8224 4.94309 4.58367 4.94309 4.08233V2.91254C4.94309 2.53057 4.99002 2.24409 5.10735 2.07698C5.22469 1.90986 5.43588 1.74275 5.7644 1.57564C6.58572 1.14592 7.57129 0.787818 8.72113 0.501339C9.87097 0.190986 11.0912 0.0477465 12.3818 0.0477465C15.1743 0.0477465 17.2159 0.692325 18.53 1.98148C19.8206 3.27064 20.4776 5.22825 20.4776 7.85431V15.5893H20.5246ZM10.9973 19.218C11.7717 19.218 12.5696 19.0748 13.4143 18.7883C14.2591 18.5018 15.01 17.9766 15.6436 17.2604C16.0191 16.8068 16.3007 16.3055 16.4415 15.7325C16.5823 15.1595 16.6761 14.4672 16.6761 13.6555V12.6528C15.9956 12.4857 15.2682 12.3425 14.5173 12.247C13.7663 12.1515 13.0389 12.1038 12.3114 12.1038C10.7392 12.1038 9.58938 12.4141 8.81499 13.0587C8.04061 13.7033 7.66516 14.6104 7.66516 15.8041C7.66516 16.9262 7.94675 17.7617 8.5334 18.3347C9.09659 18.9315 9.9179 19.218 10.9973 19.218ZM29.8406 21.7963C29.4182 21.7963 29.1366 21.7247 28.9489 21.5576C28.7612 21.4143 28.5969 21.0801 28.4561 20.6265L22.9416 2.17247C22.8008 1.695 22.7304 1.38465 22.7304 1.21754C22.7304 0.835565 22.9181 0.620705 23.2936 0.620705H25.5932C26.0391 0.620705 26.3442 0.692325 26.5084 0.859438C26.6961 1.00268 26.8369 1.3369 26.9777 1.7905L30.92 17.5946L34.5807 1.7905C34.6981 1.31303 34.8389 1.00268 35.0266 0.859438C35.2143 0.716198 35.5429 0.620705 35.9652 0.620705H37.8425C38.2884 0.620705 38.5934 0.692325 38.7812 0.859438C38.9689 1.00268 39.1332 1.3369 39.227 1.7905L42.9347 17.7856L46.9943 1.7905C47.1351 1.31303 47.2994 1.00268 47.4636 0.859438C47.6513 0.716198 47.9564 0.620705 48.3788 0.620705H50.5611C50.9366 0.620705 51.1478 0.811691 51.1478 1.21754C51.1478 1.3369 51.1243 1.45627 51.1009 1.59951C51.0774 1.74275 51.0305 1.93374 50.9366 2.19634L45.2813 20.6504C45.1405 21.1279 44.9762 21.4382 44.7885 21.5814C44.6008 21.7247 44.2957 21.8202 43.8968 21.8202H41.8787C41.4328 21.8202 41.1278 21.7486 40.94 21.5814C40.7523 21.4143 40.5881 21.104 40.4942 20.6265L36.857 5.22825L33.2432 20.6026C33.1259 21.0801 32.9851 21.3905 32.7973 21.5576C32.6096 21.7247 32.2811 21.7963 31.8587 21.7963H29.8406ZM59.9945 22.4409C58.7743 22.4409 57.554 22.2976 56.3807 22.0112C55.2074 21.7247 54.2922 21.4143 53.6821 21.0562C53.3067 20.8414 53.0485 20.6026 52.9547 20.3878C52.8608 20.1729 52.8139 19.9342 52.8139 19.7193V18.5018C52.8139 18.0005 53.0016 17.7617 53.3536 17.7617C53.4944 17.7617 53.6352 17.7856 53.776 17.8333C53.9168 17.8811 54.128 17.9766 54.3626 18.0721C55.1605 18.4302 56.0287 18.7167 56.9439 18.9076C57.8826 19.0986 58.7977 19.1941 59.7364 19.1941C61.2147 19.1941 62.3646 18.9315 63.1624 18.4063C63.9603 17.8811 64.3827 17.1171 64.3827 16.1383C64.3827 15.4699 64.1715 14.9208 63.7491 14.4672C63.3267 14.0136 62.5288 13.6078 61.379 13.2258L57.9764 12.1515C56.2634 11.6024 54.9962 10.7907 54.2219 9.71642C53.4475 8.666 53.0485 7.49621 53.0485 6.2548C53.0485 5.25212 53.2597 4.36881 53.6821 3.60487C54.1045 2.84092 54.6677 2.17247 55.3717 1.64726C56.0757 1.09817 56.8735 0.692325 57.8122 0.405846C58.7508 0.119366 59.7364 0 60.7689 0C61.2851 0 61.8249 0.0238733 62.3411 0.0954931C62.8808 0.167113 63.3736 0.262606 63.8664 0.358099C64.3357 0.477466 64.7816 0.596832 65.204 0.740072C65.6264 0.883311 65.9549 1.02655 66.1895 1.16979C66.5181 1.36078 66.7527 1.55176 66.8935 1.76662C67.0343 1.95761 67.1047 2.22021 67.1047 2.55444V3.67648C67.1047 4.17782 66.917 4.44043 66.565 4.44043C66.3773 4.44043 66.0722 4.34494 65.6733 4.15395C64.3357 3.53325 62.8339 3.22289 61.1678 3.22289C59.8302 3.22289 58.7743 3.43775 58.0468 3.89134C57.3194 4.34494 56.9439 5.03726 56.9439 6.01607C56.9439 6.68452 57.1786 7.25748 57.6479 7.71107C58.1172 8.16466 58.9855 8.61825 60.2292 9.0241L63.5613 10.0984C65.2509 10.6475 66.4711 11.4114 67.1986 12.3902C67.926 13.369 68.278 14.4911 68.278 15.7325C68.278 16.759 68.0668 17.6901 67.6679 18.5018C67.2455 19.3135 66.6823 20.0297 65.9549 20.6026C65.2274 21.1995 64.3592 21.6292 63.3502 21.9395C62.2942 22.2738 61.1913 22.4409 59.9945 22.4409Z" fill="#666666"/>
<path fill-rule="evenodd" clip-rule="evenodd" d="M64.4289 34.0462C56.7086 39.8474 45.4918 42.927 35.8473 42.927C22.3308 42.927 10.1519 37.842 0.953197 29.3909C0.225749 28.7224 0.882799 27.8152 1.75104 28.3405C11.7007 34.2133 23.9734 37.7704 36.6686 37.7704C45.2337 37.7704 54.6436 35.956 63.3026 32.2318C64.5932 31.635 65.6961 33.0912 64.4289 34.0462Z" fill="#666666"/>
<path fill-rule="evenodd" clip-rule="evenodd" d="M67.6438 30.3207C66.6582 29.0315 61.1202 29.7 58.6094 30.0103C57.8585 30.1058 57.7411 29.4374 58.4216 28.936C62.8333 25.7848 70.0843 26.6919 70.9291 27.7424C71.7738 28.8167 70.6944 36.1935 66.5644 39.7268C65.9308 40.2758 65.3207 39.9894 65.6023 39.2732C66.5409 36.9097 68.6294 31.586 67.6438 30.3207Z" fill="#666666"/>
</g>
<defs>
<clipPath id="clip0_3593_9284">
<rect width="72" height="42.9241" fill="white"/>
</clipPath>
</defs>
</svg>
