<svg width="72" height="66" viewBox="0 0 72 66" fill="none" xmlns="http://www.w3.org/2000/svg">
<path d="M4.15774 16.3638H5.3848V13.0192H5.45867C5.68028 13.4214 6.1317 14.1231 7.28079 14.1231C8.80742 14.1231 9.91547 12.9002 9.91547 10.8605C9.91547 8.81681 8.79101 7.61438 7.26847 7.61438C6.09887 7.61438 5.67617 8.32845 5.45867 8.71832H5.35607V7.69646H4.15774V16.3638ZM5.36017 10.8482C5.36017 9.53089 5.93472 8.65676 7.00583 8.65676C8.11797 8.65676 8.6761 9.59655 8.6761 10.8482C8.6761 12.1122 8.10156 13.0766 7.00583 13.0766C5.95113 13.0766 5.36017 12.1738 5.36017 10.8482ZM13.9455 14.1272C15.7224 14.1272 16.8838 12.8263 16.8838 10.877C16.8838 8.91531 15.7224 7.61438 13.9455 7.61438C12.1685 7.61438 11.0071 8.91531 11.0071 10.877C11.0071 12.8263 12.1685 14.1272 13.9455 14.1272ZM13.9496 13.0971C12.7882 13.0971 12.2465 12.0835 12.2465 10.8729C12.2465 9.66631 12.7882 8.64035 13.9496 8.64035C15.1028 8.64035 15.6445 9.66631 15.6445 10.8729C15.6445 12.0835 15.1028 13.0971 13.9496 13.0971ZM19.4282 14H20.6758L21.9562 9.44881H22.0506L23.331 14H24.5827L26.4335 7.69646H25.1654L23.9384 12.3051H23.8768L22.6457 7.69646H21.3776L20.1382 12.3256H20.0766L18.8414 7.69646H17.5733L19.4282 14ZM30.1229 14.1272C31.4977 14.1272 32.4703 13.4501 32.7494 12.4241L31.588 12.2148C31.3664 12.8099 30.8329 13.1136 30.1352 13.1136C29.0846 13.1136 28.3788 12.4323 28.3459 11.2176H32.8274V10.7826C32.8274 8.50492 31.4649 7.61438 30.0367 7.61438C28.2803 7.61438 27.123 8.95224 27.123 10.8893C27.123 12.8468 28.2639 14.1272 30.1229 14.1272ZM28.35 10.2983C28.3993 9.40367 29.0477 8.62804 30.0449 8.62804C30.997 8.62804 31.6208 9.3339 31.6249 10.2983H28.35ZM34.1888 14H35.4159V10.1506C35.4159 9.32569 36.052 8.73063 36.922 8.73063C37.1764 8.73063 37.4637 8.77577 37.5622 8.8045V7.63079C37.4391 7.61438 37.197 7.60207 37.041 7.60207C36.3023 7.60207 35.6703 8.02066 35.4405 8.6978H35.3748V7.69646H34.1888V14ZM41.1151 14.1272C42.4899 14.1272 43.4625 13.4501 43.7416 12.4241L42.5802 12.2148C42.3586 12.8099 41.8251 13.1136 41.1274 13.1136C40.0769 13.1136 39.371 12.4323 39.3382 11.2176H43.8196V10.7826C43.8196 8.50492 42.4571 7.61438 41.029 7.61438C39.2725 7.61438 38.1152 8.95224 38.1152 10.8893C38.1152 12.8468 39.2561 14.1272 41.1151 14.1272ZM39.3423 10.2983C39.3915 9.40367 40.0399 8.62804 41.0372 8.62804C41.9893 8.62804 42.613 9.3339 42.6171 10.2983H39.3423ZM47.5408 14.1231C48.6899 14.1231 49.1413 13.4214 49.3629 13.0192H49.4655V14H50.6638V5.59528H49.4368V8.71832H49.3629C49.1413 8.32845 48.7227 7.61438 47.549 7.61438C46.0264 7.61438 44.9061 8.81681 44.9061 10.8605C44.9061 12.9002 46.01 14.1231 47.5408 14.1231ZM47.8116 13.0766C46.7159 13.0766 46.1455 12.1122 46.1455 10.8482C46.1455 9.59655 46.7036 8.65676 47.8116 8.65676C48.8827 8.65676 49.4573 9.53089 49.4573 10.8482C49.4573 12.1738 48.8704 13.0766 47.8116 13.0766ZM55.572 14H56.7704V13.0192H56.873C57.0946 13.4214 57.546 14.1231 58.6951 14.1231C60.2217 14.1231 61.3298 12.9002 61.3298 10.8605C61.3298 8.81681 60.2053 7.61438 58.6828 7.61438C57.5132 7.61438 57.0905 8.32845 56.873 8.71832H56.7991V5.59528H55.572V14ZM56.7745 10.8482C56.7745 9.53089 57.349 8.65676 58.4201 8.65676C59.5323 8.65676 60.0904 9.59655 60.0904 10.8482C60.0904 12.1122 59.5159 13.0766 58.4201 13.0766C57.3654 13.0766 56.7745 12.1738 56.7745 10.8482ZM63.2576 16.3638C64.2712 16.3638 64.9114 15.8344 65.2767 14.8413L67.8826 7.70877L66.5571 7.69646L64.9607 12.5883H64.895L63.2986 7.69646H61.9854L64.2917 14.0821L64.1399 14.5007C63.828 15.3379 63.3889 15.4076 62.7158 15.223L62.4204 16.2284C62.5681 16.2941 62.8882 16.3638 63.2576 16.3638Z" fill="#666666"/>
<g clip-path="url(#clip0_2227_4112)">
<path d="M20.5246 37.6674C20.5246 38.5507 20.6184 39.2669 20.7827 39.7921C20.9704 40.3173 21.2051 40.8903 21.5336 41.511C21.6509 41.702 21.6979 41.8929 21.6979 42.0601C21.6979 42.2988 21.5571 42.5375 21.252 42.7763L19.7737 43.7789C19.5625 43.9222 19.3513 43.9938 19.1635 43.9938C18.9289 43.9938 18.6942 43.8744 18.4596 43.6596C18.131 43.3015 17.8494 42.9195 17.6148 42.5375C17.3801 42.1317 17.1455 41.6781 16.8873 41.129C15.057 43.3253 12.7573 44.4235 9.9883 44.4235C8.01715 44.4235 6.44492 43.8506 5.29508 42.7046C4.14525 41.5587 3.55859 40.0308 3.55859 38.121C3.55859 36.0917 4.26258 34.4445 5.69401 33.2031C7.12544 31.9617 9.02619 31.341 11.4432 31.341C12.241 31.341 13.0624 31.4126 13.9306 31.5319C14.7988 31.6513 15.6906 31.8423 16.6292 32.0572V30.3144C16.6292 28.5 16.2537 27.2348 15.5263 26.4947C14.7754 25.7546 13.5082 25.3965 11.7013 25.3965C10.88 25.3965 10.0352 25.492 9.16699 25.7069C8.29874 25.9217 7.45396 26.1843 6.63265 26.5186C6.25719 26.6857 5.9756 26.7812 5.81134 26.8289C5.64707 26.8767 5.52974 26.9005 5.43588 26.9005C5.10735 26.9005 4.94309 26.6618 4.94309 26.1605V24.9907C4.94309 24.6087 4.99002 24.3222 5.10735 24.1551C5.22469 23.988 5.43588 23.8209 5.7644 23.6538C6.58572 23.224 7.57129 22.8659 8.72113 22.5795C9.87097 22.2691 11.0912 22.1259 12.3818 22.1259C15.1743 22.1259 17.2159 22.7704 18.53 24.0596C19.8206 25.3488 20.4776 27.3064 20.4776 29.9324V37.6674H20.5246ZM10.9973 41.2961C11.7717 41.2961 12.5696 41.1529 13.4143 40.8664C14.2591 40.5799 15.01 40.0547 15.6436 39.3385C16.0191 38.8849 16.3007 38.3836 16.4415 37.8106C16.5823 37.2377 16.6761 36.5453 16.6761 35.7336V34.731C15.9956 34.5638 15.2682 34.4206 14.5173 34.3251C13.7663 34.2296 13.0389 34.1819 12.3114 34.1819C10.7392 34.1819 9.58938 34.4922 8.81499 35.1368C8.04061 35.7814 7.66516 36.6886 7.66516 37.8822C7.66516 39.0043 7.94675 39.8398 8.5334 40.4128C9.09659 41.0096 9.9179 41.2961 10.9973 41.2961ZM29.8406 43.8744C29.4182 43.8744 29.1366 43.8028 28.9489 43.6357C28.7612 43.4925 28.5969 43.1582 28.4561 42.7046L22.9416 24.2506C22.8008 23.7731 22.7304 23.4628 22.7304 23.2957C22.7304 22.9137 22.9181 22.6988 23.2936 22.6988H25.5932C26.0391 22.6988 26.3442 22.7705 26.5084 22.9376C26.6961 23.0808 26.8369 23.415 26.9777 23.8686L30.92 39.6727L34.5807 23.8686C34.6981 23.3912 34.8389 23.0808 35.0266 22.9376C35.2143 22.7943 35.5429 22.6988 35.9652 22.6988H37.8425C38.2884 22.6988 38.5934 22.7705 38.7812 22.9376C38.9689 23.0808 39.1332 23.415 39.227 23.8686L42.9347 39.8637L46.9943 23.8686C47.1351 23.3912 47.2994 23.0808 47.4636 22.9376C47.6513 22.7943 47.9564 22.6988 48.3788 22.6988H50.5611C50.9366 22.6988 51.1478 22.8898 51.1478 23.2957C51.1478 23.415 51.1243 23.5344 51.1009 23.6776C51.0774 23.8209 51.0305 24.0119 50.9366 24.2745L45.2813 42.7285C45.1405 43.206 44.9762 43.5163 44.7885 43.6596C44.6008 43.8028 44.2957 43.8983 43.8968 43.8983H41.8787C41.4328 43.8983 41.1278 43.8267 40.94 43.6596C40.7523 43.4925 40.5881 43.1821 40.4942 42.7046L36.857 27.3064L33.2432 42.6808C33.1259 43.1582 32.9851 43.4686 32.7973 43.6357C32.6096 43.8028 32.2811 43.8744 31.8587 43.8744H29.8406ZM59.9945 44.519C58.7743 44.519 57.554 44.3758 56.3807 44.0893C55.2074 43.8028 54.2922 43.4925 53.6821 43.1344C53.3067 42.9195 53.0485 42.6808 52.9547 42.4659C52.8608 42.251 52.8139 42.0123 52.8139 41.7975V40.5799C52.8139 40.0786 53.0016 39.8398 53.3536 39.8398C53.4944 39.8398 53.6352 39.8637 53.776 39.9115C53.9168 39.9592 54.128 40.0547 54.3626 40.1502C55.1605 40.5083 56.0287 40.7948 56.9439 40.9858C57.8826 41.1767 58.7977 41.2722 59.7364 41.2722C61.2147 41.2722 62.3646 41.0096 63.1624 40.4844C63.9603 39.9592 64.3827 39.1953 64.3827 38.2165C64.3827 37.548 64.1715 36.9989 63.7491 36.5453C63.3267 36.0917 62.5288 35.6859 61.379 35.3039L57.9764 34.2296C56.2634 33.6805 54.9962 32.8688 54.2219 31.7945C53.4475 30.7441 53.0485 29.5743 53.0485 28.3329C53.0485 27.3302 53.2597 26.4469 53.6821 25.683C54.1045 24.919 54.6677 24.2506 55.3717 23.7254C56.0757 23.1763 56.8735 22.7705 57.8122 22.484C58.7508 22.1975 59.7364 22.0781 60.7689 22.0781C61.2851 22.0781 61.8249 22.102 62.3411 22.1736C62.8808 22.2452 63.3736 22.3407 63.8664 22.4362C64.3357 22.5556 64.7816 22.675 65.204 22.8182C65.6264 22.9614 65.9549 23.1047 66.1895 23.2479C66.5181 23.4389 66.7527 23.6299 66.8935 23.8447C67.0343 24.0357 67.1047 24.2983 67.1047 24.6326V25.7546C67.1047 26.2559 66.917 26.5186 66.565 26.5186C66.3773 26.5186 66.0722 26.4231 65.6733 26.2321C64.3357 25.6114 62.8339 25.301 61.1678 25.301C59.8302 25.301 58.7743 25.5159 58.0468 25.9695C57.3194 26.4231 56.9439 27.1154 56.9439 28.0942C56.9439 28.7626 57.1786 29.3356 57.6479 29.7892C58.1172 30.2428 58.9855 30.6964 60.2292 31.1022L63.5613 32.1765C65.2509 32.7256 66.4711 33.4896 67.1986 34.4684C67.926 35.4472 68.278 36.5692 68.278 37.8106C68.278 38.8372 68.0668 39.7682 67.6679 40.5799C67.2455 41.3916 66.6823 42.1078 65.9549 42.6808C65.2274 43.2776 64.3592 43.7073 63.3502 44.0177C62.2942 44.3519 61.1913 44.519 59.9945 44.519Z" fill="#666666"/>
<path fill-rule="evenodd" clip-rule="evenodd" d="M64.4289 56.1243C56.7086 61.9255 45.4918 65.0051 35.8473 65.0051C22.3308 65.0051 10.1519 59.9201 0.953197 51.469C0.225749 50.8005 0.882799 49.8934 1.75104 50.4186C11.7007 56.2914 23.9734 59.8485 36.6686 59.8485C45.2337 59.8485 54.6436 58.0341 63.3026 54.3099C64.5932 53.7131 65.6961 55.1694 64.4289 56.1243Z" fill="#666666"/>
<path fill-rule="evenodd" clip-rule="evenodd" d="M67.6438 52.3988C66.6582 51.1097 61.1202 51.7781 58.6094 52.0885C57.8585 52.184 57.7411 51.5155 58.4216 51.0142C62.8333 47.8629 70.0843 48.7701 70.9291 49.8205C71.7738 50.8948 70.6944 58.2716 66.5644 61.8049C65.9308 62.354 65.3207 62.0675 65.6023 61.3513C66.5409 58.9878 68.6294 53.6641 67.6438 52.3988Z" fill="#666666"/>
</g>
<defs>
<clipPath id="clip0_2227_4112">
<rect width="72" height="42.9241" fill="white" transform="translate(0 22.0781)"/>
</clipPath>
</defs>
</svg>
