<svg xmlns="http://www.w3.org/2000/svg" height="48" viewBox="0 96 960 960" width="48">
    <path fill="#495ae7"
        d="M530 236q-12.75 0-21.375-8.675-8.625-8.676-8.625-21.5 0-12.825 8.625-21.325T530 176h320q12.75 0 21.375 8.675 8.625 8.676 8.625 21.5 0 12.825-8.625 21.325T850 236H530Zm0 170q-12.75 0-21.375-8.675-8.625-8.676-8.625-21.5 0-12.825 8.625-21.325T530 346h320q12.75 0 21.375 8.675 8.625 8.676 8.625 21.5 0 12.825-8.625 21.325T850 406H530Zm0 170q-12.75 0-21.375-8.675-8.625-8.676-8.625-21.5 0-12.825 8.625-21.325T530 516h320q12.75 0 21.375 8.675 8.625 8.676 8.625 21.5 0 12.825-8.625 21.325T850 576H530Zm225 400q-122 0-242.5-60T296 760q-96-96-156-216.5T80 301q0-19.286 12.857-32.143T125 256h140q13.611 0 24.306 9.5Q300 275 303 291l27 126q2 14-.5 25.5T319 462L219 563q56 93 125.5 162T502 842l95-98q10-11 23-15.5t26-1.5l119 26q15.312 3.375 25.156 15.188Q800 780 800 796v135q0 19.286-12.857 32.143T755 976Z" />
</svg>