<?xml version="1.0" encoding="utf-8"?>
<!-- Generator: Adobe Illustrator 27.0.0, SVG Export Plug-In . SVG Version: 6.00 Build 0)  -->
<svg version="1.1" id="Layer_1" xmlns="http://www.w3.org/2000/svg" xmlns:xlink="http://www.w3.org/1999/xlink" x="0px" y="0px"
	 viewBox="0 0 1000 175" style="enable-background:new 0 0 1000 175;" xml:space="preserve">
<style type="text/css">
	.st0{fill:#C1B7EE;}
</style>
<g transform="translate(0.000000,175.000000) scale(0.100000,-0.100000)">
	<path class="st0" d="M9757,1498c-59-128-203-443-321-700l-214-468h133h132l15,38c9,20,124,274,256,564l241,526l-62,136
		c-33,75-64,136-67,136C9866,1730,9815,1625,9757,1498z"/>
	<path class="st0" d="M580,1425c-154-32-249-83-365-200c-73-72-99-107-133-175C22,928,6,858,5,715c0-98,4-134,23-195
		C93,312,215,168,405,75C673-57,986-9,1200,197l74,72l-93,70l-94,71l-56-53c-65-59-120-89-206-112c-290-75-575,160-575,475
		c0,208,129,396,318,461c164,56,329,21,464-101l58-51l82,62c46,34,87,65,91,69c14,12-81,107-158,159C949,1423,759,1461,580,1425z"/>
	<path class="st0" d="M6861,1425c-96-22-169-61-237-129c-80-80-107-146-108-267c0-77,3-92,32-151c61-125,156-185,400-252
		c164-45,211-67,257-117c32-35,35-45,35-98c0-44-6-66-23-92c-98-145-367-126-447,32c-11,21-20,47-20,59c0,19-6,20-125,20
		c-143,0-136,6-110-95c22-83,61-150,119-202c206-185,570-177,749,17c77,82,101,147,102,270c0,88-3,100-33,162
		c-62,126-175,196-434,267c-208,57-254,92-252,192c1,104,89,174,219,174c56,0,79-5,115-25c52-29,88-78,96-132l7-38h124h125l-7,43
		c-27,176-120,292-280,347C7086,1438,6947,1445,6861,1425z"/>
	<path class="st0" d="M1781,1067c-91-199-234-512-318-696S1310,33,1310,28c0-4,58-8,128-8h128l80,175l79,175h226h226l78-175l79-175
		h132h133l-29,63c-15,34-83,181-149,327c-67,146-199,435-294,643c-94,207-174,377-177,377S1871,1266,1781,1067z M2010,733
		c29-65,55-124,57-130c4-10-23-13-117-13c-67,0-120,4-118,9c22,56,113,251,118,251C1954,850,1980,797,2010,733z"/>
	<path class="st0" d="M3820,743c-172-379-317-696-322-705c-8-17,1-18,124-18l133,1l79,174l79,175h224h224l45-97c25-54,62-133,81-175
		l36-78h129c70,0,128,3,128,6s-126,281-279,617c-351,769-359,787-364,787C4135,1430,3992,1121,3820,743z M4202,722l57-127l-116-3
		c-64-1-118-1-120,2c-6,6,107,256,116,256C4142,850,4171,792,4202,722z"/>
	<path class="st0" d="M2520,1310v-110h200h200V610V20h125h125v590v590h200h200v110v110h-525h-525V1310z"/>
	<path class="st0" d="M4960,720V20h395h395v110v110h-270h-270v590v590h-125h-125V720z"/>
	<path class="st0" d="M5980,720V20h120h120v700v700h-120h-120V720z"/>
	<path class="st0" d="M7600,1310v-110h200h200V610V20h125h125v590v590h200h200v110v110h-525h-525V1310z"/>
	<path class="st0" d="M9329,1333c-23-49-85-185-139-303s-153-334-219-478l-121-264l62-134c33-74,64-137,68-139s21,26,38,63
		c352,771,569,1248,588,1290l23,52h-130h-130L9329,1333z"/>
</g>
</svg>
