<svg width="302" height="241" viewBox="0 0 302 241" fill="none" xmlns="http://www.w3.org/2000/svg">
<rect width="302" height="241" rx="5" fill="white"/>
<rect x="18" y="16" width="266" height="207" rx="5" fill="#F8FAFF"/>
<g opacity="0.45" filter="url(#filter0_f_3978_9081)">
<ellipse cx="86.5" cy="112" rx="37.5" ry="27" fill="#969696"/>
</g>
<circle cx="87" cy="92" r="42.6176" fill="#F8FAFF" stroke="#E6E8F2" stroke-width="16.7647" stroke-miterlimit="10" stroke-linejoin="round"/>
<path d="M87 49.3824C93.2688 49.3824 99.4603 50.7653 105.133 53.4326C110.806 56.0998 115.821 59.9858 119.82 64.8134C123.819 69.641 126.704 75.2913 128.268 81.3616C129.833 87.4319 130.04 93.7727 128.873 99.9319" stroke="#AAADC0" stroke-width="16.7647" stroke-miterlimit="10" stroke-linejoin="round"/>
<g clip-path="url(#clip0_3978_9081)">
<path d="M85.875 98.75C90.2242 98.75 93.75 95.2242 93.75 90.875C93.75 86.5258 90.2242 83 85.875 83C81.5258 83 78 86.5258 78 90.875C78 95.2242 81.5258 98.75 85.875 98.75Z" stroke="#AAADC0" stroke-width="2" stroke-linecap="round" stroke-linejoin="round"/>
<path d="M91.4414 96.4434L95.9977 101" stroke="#AAADC0" stroke-width="2" stroke-linecap="round" stroke-linejoin="round"/>
</g>
<g filter="url(#filter1_d_3978_9081)">
<rect x="38" y="171" width="98" height="34" rx="2" fill="white"/>
</g>
<circle cx="61.5" cy="188" r="8.18966" fill="white" stroke="#AAADC0" stroke-width="2.62069"/>
<g clip-path="url(#clip1_3978_9081)">
<path d="M61.0742 190.031C62.7052 190.031 64.0273 188.709 64.0273 187.078C64.0273 185.447 62.7052 184.125 61.0742 184.125C59.4433 184.125 58.1211 185.447 58.1211 187.078C58.1211 188.709 59.4433 190.031 61.0742 190.031Z" stroke="#AAADC0" stroke-width="1.5" stroke-linecap="round" stroke-linejoin="round"/>
<path d="M63.1719 189.166L64.8805 190.875" stroke="#AAADC0" stroke-width="1.5" stroke-linecap="round" stroke-linejoin="round"/>
</g>
<path d="M88.2415 187.909C88.2415 189.019 88.031 189.964 87.6101 190.743C87.1925 191.522 86.6224 192.117 85.8999 192.528C85.1806 192.935 84.3719 193.139 83.4737 193.139C82.5689 193.139 81.7569 192.934 81.0376 192.523C80.3184 192.112 79.75 191.517 79.3324 190.738C78.9148 189.959 78.706 189.016 78.706 187.909C78.706 186.799 78.9148 185.854 79.3324 185.075C79.75 184.296 80.3184 183.703 81.0376 183.295C81.7569 182.884 82.5689 182.679 83.4737 182.679C84.3719 182.679 85.1806 182.884 85.8999 183.295C86.6224 183.703 87.1925 184.296 87.6101 185.075C88.031 185.854 88.2415 186.799 88.2415 187.909ZM86.0589 187.909C86.0589 187.19 85.9512 186.583 85.7358 186.089C85.5237 185.596 85.2237 185.221 84.8359 184.966C84.4482 184.711 83.9941 184.583 83.4737 184.583C82.9534 184.583 82.4993 184.711 82.1115 184.966C81.7237 185.221 81.4221 185.596 81.2067 186.089C80.9946 186.583 80.8885 187.19 80.8885 187.909C80.8885 188.628 80.9946 189.235 81.2067 189.729C81.4221 190.223 81.7237 190.597 82.1115 190.852C82.4993 191.107 82.9534 191.235 83.4737 191.235C83.9941 191.235 84.4482 191.107 84.8359 190.852C85.2237 190.597 85.5237 190.223 85.7358 189.729C85.9512 189.235 86.0589 188.628 86.0589 187.909ZM93.3681 185.364V186.955H88.7694V185.364H93.3681ZM89.8134 183.534H91.9313V190.653C91.9313 190.849 91.9612 191.001 92.0208 191.111C92.0805 191.217 92.1634 191.291 92.2694 191.335C92.3788 191.378 92.5047 191.399 92.6473 191.399C92.7467 191.399 92.8461 191.391 92.9455 191.374C93.045 191.354 93.1212 191.339 93.1742 191.33L93.5073 192.906C93.4013 192.939 93.2521 192.977 93.0599 193.02C92.8677 193.066 92.634 193.094 92.3589 193.104C91.8485 193.124 91.401 193.056 91.0166 192.901C90.6354 192.745 90.3388 192.503 90.1267 192.175C89.9145 191.847 89.8101 191.432 89.8134 190.932V183.534ZM96.5397 188.585V193H94.4218V182.818H96.4801V186.711H96.5695C96.7419 186.26 97.0203 185.907 97.4048 185.652C97.7892 185.393 98.2715 185.264 98.8515 185.264C99.3818 185.264 99.8442 185.38 100.239 185.612C100.636 185.841 100.945 186.171 101.163 186.602C101.385 187.029 101.495 187.541 101.491 188.138V193H99.3735V188.516C99.3768 188.045 99.2575 187.679 99.0156 187.417C98.7769 187.155 98.4422 187.024 98.0113 187.024C97.7229 187.024 97.4677 187.085 97.2457 187.208C97.0269 187.331 96.8546 187.51 96.7286 187.745C96.606 187.977 96.543 188.257 96.5397 188.585ZM106.148 193.149C105.363 193.149 104.687 192.99 104.12 192.672C103.556 192.35 103.122 191.896 102.817 191.31C102.512 190.72 102.36 190.022 102.36 189.217C102.36 188.431 102.512 187.742 102.817 187.148C103.122 186.555 103.551 186.093 104.105 185.761C104.662 185.43 105.315 185.264 106.064 185.264C106.568 185.264 107.037 185.345 107.471 185.508C107.908 185.667 108.289 185.907 108.614 186.229C108.942 186.55 109.197 186.955 109.38 187.442C109.562 187.926 109.653 188.492 109.653 189.142V189.724H103.205V188.411H107.66C107.66 188.106 107.593 187.836 107.461 187.601C107.328 187.366 107.144 187.182 106.909 187.049C106.677 186.913 106.407 186.845 106.099 186.845C105.777 186.845 105.492 186.92 105.243 187.069C104.998 187.215 104.806 187.412 104.667 187.661C104.528 187.906 104.456 188.179 104.453 188.481V189.729C104.453 190.107 104.523 190.433 104.662 190.708C104.804 190.983 105.005 191.195 105.263 191.344C105.522 191.494 105.828 191.568 106.183 191.568C106.418 191.568 106.634 191.535 106.829 191.469C107.025 191.402 107.192 191.303 107.331 191.17C107.471 191.038 107.577 190.875 107.65 190.683L109.608 190.812C109.509 191.283 109.305 191.694 108.997 192.045C108.692 192.393 108.298 192.665 107.814 192.861C107.333 193.053 106.778 193.149 106.148 193.149ZM110.545 193V185.364H112.599V186.696H112.678C112.817 186.222 113.051 185.864 113.379 185.622C113.707 185.377 114.085 185.254 114.513 185.254C114.619 185.254 114.733 185.261 114.856 185.274C114.978 185.287 115.086 185.306 115.179 185.329V187.208C115.079 187.178 114.942 187.152 114.766 187.129C114.591 187.105 114.43 187.094 114.284 187.094C113.972 187.094 113.694 187.162 113.449 187.298C113.207 187.43 113.015 187.616 112.872 187.854C112.733 188.093 112.663 188.368 112.663 188.68V193H110.545ZM122.138 187.541L120.199 187.661C120.165 187.495 120.094 187.346 119.985 187.213C119.875 187.077 119.731 186.969 119.552 186.89C119.377 186.807 119.166 186.766 118.921 186.766C118.593 186.766 118.316 186.835 118.091 186.974C117.865 187.11 117.753 187.293 117.753 187.521C117.753 187.704 117.826 187.858 117.971 187.984C118.117 188.11 118.367 188.211 118.722 188.287L120.104 188.565C120.847 188.718 121.4 188.963 121.765 189.301C122.129 189.639 122.312 190.083 122.312 190.634C122.312 191.134 122.164 191.573 121.869 191.951C121.577 192.329 121.176 192.624 120.666 192.836C120.159 193.045 119.574 193.149 118.911 193.149C117.9 193.149 117.095 192.939 116.495 192.518C115.898 192.094 115.549 191.517 115.446 190.788L117.529 190.678C117.592 190.987 117.744 191.222 117.986 191.384C118.228 191.543 118.538 191.623 118.916 191.623C119.287 191.623 119.585 191.552 119.811 191.409C120.04 191.263 120.156 191.076 120.159 190.847C120.156 190.655 120.074 190.498 119.915 190.375C119.756 190.249 119.511 190.153 119.179 190.087L117.857 189.823C117.111 189.674 116.556 189.415 116.192 189.048C115.83 188.68 115.65 188.211 115.65 187.641C115.65 187.15 115.782 186.728 116.047 186.373C116.316 186.018 116.692 185.745 117.176 185.553C117.663 185.36 118.233 185.264 118.886 185.264C119.851 185.264 120.61 185.468 121.163 185.876C121.72 186.283 122.045 186.839 122.138 187.541Z" fill="#AAADC0"/>
<g opacity="0.45" filter="url(#filter2_f_3978_9081)">
<ellipse cx="214.5" cy="104.5" rx="45.5" ry="38.5" fill="#4959E7"/>
</g>
<circle cx="215" cy="92" r="42.6176" fill="#F8FAFF" stroke="#99A7F3" stroke-width="16.7647" stroke-miterlimit="10" stroke-linejoin="round"/>
<path d="M215 49.3824C222.168 49.3824 229.22 51.1903 235.504 54.639" stroke="#4959E7" stroke-width="16.7647" stroke-miterlimit="10" stroke-linejoin="round"/>
<g clip-path="url(#clip2_3978_9081)">
<path d="M213.875 98.75C218.224 98.75 221.75 95.2242 221.75 90.875C221.75 86.5258 218.224 83 213.875 83C209.526 83 206 86.5258 206 90.875C206 95.2242 209.526 98.75 213.875 98.75Z" stroke="#4959E7" stroke-width="2" stroke-linecap="round" stroke-linejoin="round"/>
<path d="M219.441 96.4434L223.998 101" stroke="#4959E7" stroke-width="2" stroke-linecap="round" stroke-linejoin="round"/>
</g>
<g filter="url(#filter3_d_3978_9081)">
<rect x="166" y="171" width="98" height="34" rx="2" fill="white"/>
</g>
<circle cx="184.5" cy="188.5" r="8.18966" fill="white" stroke="#4959E7" stroke-width="2.62069"/>
<g clip-path="url(#clip3_3978_9081)">
<path d="M184.074 191.031C185.705 191.031 187.027 189.709 187.027 188.078C187.027 186.447 185.705 185.125 184.074 185.125C182.443 185.125 181.121 186.447 181.121 188.078C181.121 189.709 182.443 191.031 184.074 191.031Z" stroke="#4959E7" stroke-width="1.5" stroke-linecap="round" stroke-linejoin="round"/>
<path d="M186.172 190.166L187.88 191.875" stroke="#4959E7" stroke-width="1.5" stroke-linecap="round" stroke-linejoin="round"/>
</g>
<g clip-path="url(#clip4_3978_9081)">
<path fill-rule="evenodd" clip-rule="evenodd" d="M211.977 192.994C212.469 192.999 212.958 192.906 213.414 192.721C213.87 192.535 214.284 192.261 214.633 191.914C214.982 191.566 215.258 191.153 215.446 190.698C215.633 190.243 215.728 189.755 215.725 189.263C215.702 188.285 215.297 187.354 214.596 186.67C213.895 185.986 212.955 185.604 211.976 185.604C210.996 185.604 210.056 185.986 209.355 186.67C208.655 187.354 208.25 188.285 208.227 189.263C208.223 189.755 208.318 190.243 208.506 190.699C208.693 191.154 208.97 191.567 209.319 191.915C209.668 192.262 210.083 192.536 210.539 192.722C210.995 192.907 211.484 193 211.977 192.994ZM211.977 190.993C210.975 190.993 210.287 190.253 210.287 189.263C210.287 188.273 210.975 187.531 211.977 187.531C212.978 187.531 213.664 188.271 213.664 189.263C213.664 190.256 212.976 190.995 211.977 190.995V190.993Z" fill="#4959E7"/>
<path fill-rule="evenodd" clip-rule="evenodd" d="M228.731 190.078C228.783 189.81 228.808 189.537 228.807 189.264C228.807 187.185 227.336 185.531 225.215 185.531C223.048 185.531 221.453 187.084 221.453 189.264C221.453 191.544 223.134 192.995 225.368 192.995C226.604 192.995 227.684 192.583 228.424 191.579L226.775 190.634C226.403 190.986 225.907 191.176 225.395 191.165C224.62 191.165 223.922 190.918 223.637 190.135L223.615 190.078H228.731ZM223.6 188.509C223.806 187.728 224.404 187.347 225.201 187.347C225.555 187.328 225.905 187.434 226.189 187.647C226.473 187.859 226.674 188.164 226.757 188.509L226.771 188.562H223.586L223.6 188.509Z" fill="#4959E7"/>
<path fill-rule="evenodd" clip-rule="evenodd" d="M219.692 185.73H220.949V187.759H219.692C219.403 187.76 219.126 187.876 218.921 188.08C218.716 188.284 218.6 188.561 218.598 188.85V192.795H216.57V188.85C216.572 188.023 216.902 187.231 217.487 186.647C218.072 186.062 218.865 185.733 219.692 185.73Z" fill="#4959E7"/>
<path fill-rule="evenodd" clip-rule="evenodd" d="M205.086 183.996H207.48V186.018H205.086C204.54 186.021 204.018 186.239 203.632 186.625C203.247 187.01 203.029 187.532 203.025 188.077V188.711C203.029 189.256 203.247 189.778 203.632 190.164C204.018 190.549 204.54 190.767 205.086 190.77H207.48V192.792H205.086C204.004 192.79 202.967 192.359 202.201 191.595C201.436 190.831 201.004 189.795 201 188.713V188.079C201.003 186.997 201.434 185.96 202.2 185.195C202.965 184.43 204.003 183.999 205.086 183.996Z" fill="#4959E7"/>
<path fill-rule="evenodd" clip-rule="evenodd" d="M252.603 183.996H254.998V186.018H252.603C252.058 186.021 251.536 186.239 251.15 186.625C250.764 187.01 250.546 187.532 250.543 188.077V188.711C250.546 189.256 250.764 189.778 251.15 190.164C251.536 190.549 252.058 190.767 252.603 190.77H254.998V192.792H252.603C251.521 192.789 250.484 192.358 249.719 191.593C248.953 190.828 248.522 189.791 248.52 188.709V188.079C248.522 186.997 248.953 185.961 249.719 185.196C250.484 184.431 251.521 183.999 252.603 183.996V183.996Z" fill="#4959E7"/>
<path fill-rule="evenodd" clip-rule="evenodd" d="M233.814 189.055V192.796H231.715V183.996H233.814V186.963H234.01C234.444 186.964 234.874 186.876 235.273 186.704C235.672 186.533 236.032 186.282 236.33 185.967C236.853 185.445 237.191 184.767 237.292 184.035V183.996H239.396V184.046C239.281 185.327 238.719 186.528 237.808 187.437C237.456 187.788 237.058 188.091 236.625 188.337L236.433 188.446L239.676 192.796H237.06L234.35 189.055H233.814Z" fill="#4959E7"/>
<path fill-rule="evenodd" clip-rule="evenodd" d="M245.42 189.504V192.796H243.405V189.502L240.359 183.996H242.636L244.441 187.307L246.17 183.996H248.364L245.42 189.504Z" fill="#4959E7"/>
</g>
<defs>
<filter id="filter0_f_3978_9081" x="24" y="60" width="125" height="104" filterUnits="userSpaceOnUse" color-interpolation-filters="sRGB">
<feFlood flood-opacity="0" result="BackgroundImageFix"/>
<feBlend mode="normal" in="SourceGraphic" in2="BackgroundImageFix" result="shape"/>
<feGaussianBlur stdDeviation="12.5" result="effect1_foregroundBlur_3978_9081"/>
</filter>
<filter id="filter1_d_3978_9081" x="19" y="153" width="136" height="72" filterUnits="userSpaceOnUse" color-interpolation-filters="sRGB">
<feFlood flood-opacity="0" result="BackgroundImageFix"/>
<feColorMatrix in="SourceAlpha" type="matrix" values="0 0 0 0 0 0 0 0 0 0 0 0 0 0 0 0 0 0 127 0" result="hardAlpha"/>
<feOffset dy="1"/>
<feGaussianBlur stdDeviation="9.5"/>
<feComposite in2="hardAlpha" operator="out"/>
<feColorMatrix type="matrix" values="0 0 0 0 0 0 0 0 0 0 0 0 0 0 0 0 0 0 0.07 0"/>
<feBlend mode="normal" in2="BackgroundImageFix" result="effect1_dropShadow_3978_9081"/>
<feBlend mode="normal" in="SourceGraphic" in2="effect1_dropShadow_3978_9081" result="shape"/>
</filter>
<filter id="filter2_f_3978_9081" x="144" y="41" width="141" height="127" filterUnits="userSpaceOnUse" color-interpolation-filters="sRGB">
<feFlood flood-opacity="0" result="BackgroundImageFix"/>
<feBlend mode="normal" in="SourceGraphic" in2="BackgroundImageFix" result="shape"/>
<feGaussianBlur stdDeviation="12.5" result="effect1_foregroundBlur_3978_9081"/>
</filter>
<filter id="filter3_d_3978_9081" x="147" y="153" width="136" height="72" filterUnits="userSpaceOnUse" color-interpolation-filters="sRGB">
<feFlood flood-opacity="0" result="BackgroundImageFix"/>
<feColorMatrix in="SourceAlpha" type="matrix" values="0 0 0 0 0 0 0 0 0 0 0 0 0 0 0 0 0 0 127 0" result="hardAlpha"/>
<feOffset dy="1"/>
<feGaussianBlur stdDeviation="9.5"/>
<feComposite in2="hardAlpha" operator="out"/>
<feColorMatrix type="matrix" values="0 0 0 0 0 0 0 0 0 0 0 0 0 0 0 0 0 0 0.07 0"/>
<feBlend mode="normal" in2="BackgroundImageFix" result="effect1_dropShadow_3978_9081"/>
<feBlend mode="normal" in="SourceGraphic" in2="effect1_dropShadow_3978_9081" result="shape"/>
</filter>
<clipPath id="clip0_3978_9081">
<rect width="24" height="24" fill="white" transform="translate(75 80)"/>
</clipPath>
<clipPath id="clip1_3978_9081">
<rect width="9" height="9" fill="white" transform="translate(57 183)"/>
</clipPath>
<clipPath id="clip2_3978_9081">
<rect width="24" height="24" fill="white" transform="translate(203 80)"/>
</clipPath>
<clipPath id="clip3_3978_9081">
<rect width="9" height="9" fill="white" transform="translate(180 184)"/>
</clipPath>
<clipPath id="clip4_3978_9081">
<rect width="54" height="9" fill="white" transform="translate(201 184)"/>
</clipPath>
</defs>
</svg>
