<svg width="278" height="255" viewBox="0 0 278 255" fill="none" xmlns="http://www.w3.org/2000/svg">
<path d="M0 5C0 2.23858 2.23858 0 5 0H273C275.761 0 278 2.23858 278 5V250C278 252.761 275.761 255 273 255H4.99999C2.23857 255 0 252.761 0 250V5Z" fill="white"/>
<rect x="18" y="18" width="242" height="219" rx="5" fill="#F8FAFF"/>
<rect x="18" y="18" width="242" height="219" rx="5" fill="#F8FAFF"/>
<path d="M37 36V157" stroke="#EBEBF1" stroke-width="2" stroke-linecap="round"/>
<path d="M77.8008 36V157" stroke="#EBEBF1" stroke-width="2" stroke-linecap="round"/>
<path d="M118.602 36V157" stroke="#EBEBF1" stroke-width="2" stroke-linecap="round"/>
<path d="M159.398 36V157" stroke="#EBEBF1" stroke-width="2" stroke-linecap="round"/>
<path d="M200.199 36V157" stroke="#EBEBF1" stroke-width="2" stroke-linecap="round"/>
<path d="M241 36V157" stroke="#EBEBF1" stroke-width="2" stroke-linecap="round"/>
<g filter="url(#filter0_d_3978_9022)">
<rect x="144" y="185" width="98" height="34" rx="2" fill="white"/>
</g>
<circle cx="162.5" cy="202.5" r="8.18966" fill="white" stroke="#4959E7" stroke-width="2.62069"/>
<g clip-path="url(#clip0_3978_9022)">
<path d="M162.5 203.625C161.257 203.625 160.25 202.618 160.25 201.375C160.25 200.132 161.257 199.125 162.5 199.125C163.743 199.125 164.75 200.132 164.75 201.375C164.75 202.618 163.743 203.625 162.5 203.625Z" stroke="#4959E7" stroke-width="1.5" stroke-linecap="round" stroke-linejoin="round"/>
<path d="M165.91 205.594C165.565 204.995 165.068 204.498 164.469 204.153C163.87 203.807 163.191 203.625 162.5 203.625C161.809 203.625 161.13 203.807 160.531 204.153C159.932 204.498 159.435 204.995 159.09 205.594" stroke="#4959E7" stroke-width="1.5" stroke-linecap="round" stroke-linejoin="round"/>
</g>
<g clip-path="url(#clip1_3978_9022)">
<path fill-rule="evenodd" clip-rule="evenodd" d="M189.977 206.994C190.469 206.999 190.958 206.906 191.414 206.721C191.87 206.535 192.284 206.261 192.633 205.914C192.982 205.566 193.258 205.153 193.446 204.698C193.633 204.243 193.728 203.755 193.725 203.263C193.702 202.285 193.297 201.354 192.596 200.67C191.895 199.986 190.955 199.604 189.976 199.604C188.996 199.604 188.056 199.986 187.355 200.67C186.655 201.354 186.25 202.285 186.227 203.263C186.223 203.755 186.318 204.243 186.506 204.699C186.693 205.154 186.97 205.567 187.319 205.915C187.668 206.262 188.083 206.536 188.539 206.722C188.995 206.907 189.484 207 189.977 206.994ZM189.977 204.993C188.975 204.993 188.287 204.253 188.287 203.263C188.287 202.273 188.975 201.531 189.977 201.531C190.978 201.531 191.664 202.271 191.664 203.263C191.664 204.256 190.976 204.995 189.977 204.995V204.993Z" fill="#4959E7"/>
<path fill-rule="evenodd" clip-rule="evenodd" d="M206.731 204.078C206.783 203.81 206.808 203.537 206.807 203.264C206.807 201.185 205.336 199.531 203.215 199.531C201.048 199.531 199.453 201.084 199.453 203.264C199.453 205.544 201.134 206.995 203.368 206.995C204.604 206.995 205.684 206.583 206.424 205.579L204.775 204.634C204.403 204.986 203.907 205.176 203.395 205.165C202.62 205.165 201.922 204.918 201.637 204.135L201.615 204.078H206.731ZM201.6 202.509C201.806 201.728 202.404 201.347 203.201 201.347C203.555 201.328 203.905 201.434 204.189 201.647C204.473 201.859 204.674 202.164 204.757 202.509L204.771 202.562H201.586L201.6 202.509Z" fill="#4959E7"/>
<path fill-rule="evenodd" clip-rule="evenodd" d="M197.692 199.73H198.949V201.759H197.692C197.403 201.76 197.126 201.876 196.921 202.08C196.716 202.284 196.6 202.561 196.598 202.85V206.795H194.57V202.85C194.572 202.023 194.902 201.231 195.487 200.647C196.072 200.062 196.865 199.733 197.692 199.73Z" fill="#4959E7"/>
<path fill-rule="evenodd" clip-rule="evenodd" d="M183.086 197.996H185.48V200.018H183.086C182.54 200.021 182.018 200.239 181.632 200.625C181.247 201.01 181.029 201.532 181.025 202.077V202.711C181.029 203.256 181.247 203.778 181.632 204.164C182.018 204.549 182.54 204.767 183.086 204.77H185.48V206.792H183.086C182.004 206.79 180.967 206.359 180.201 205.595C179.436 204.831 179.004 203.795 179 202.713V202.079C179.003 200.997 179.434 199.96 180.2 199.195C180.965 198.43 182.003 197.999 183.086 197.996Z" fill="#4959E7"/>
<path fill-rule="evenodd" clip-rule="evenodd" d="M230.603 197.996H232.998V200.018H230.603C230.058 200.021 229.536 200.239 229.15 200.625C228.764 201.01 228.546 201.532 228.543 202.077V202.711C228.546 203.256 228.764 203.778 229.15 204.164C229.536 204.549 230.058 204.767 230.603 204.77H232.998V206.792H230.603C229.521 206.789 228.484 206.358 227.719 205.593C226.953 204.828 226.522 203.791 226.52 202.709V202.079C226.522 200.997 226.953 199.961 227.719 199.196C228.484 198.431 229.521 197.999 230.603 197.996V197.996Z" fill="#4959E7"/>
<path fill-rule="evenodd" clip-rule="evenodd" d="M211.814 203.055V206.796H209.715V197.996H211.814V200.963H212.01C212.444 200.964 212.874 200.876 213.273 200.704C213.672 200.533 214.032 200.282 214.33 199.967C214.853 199.445 215.191 198.767 215.292 198.035V197.996H217.396V198.046C217.281 199.327 216.719 200.528 215.808 201.437C215.456 201.788 215.058 202.091 214.625 202.337L214.433 202.446L217.676 206.796H215.06L212.35 203.055H211.814Z" fill="#4959E7"/>
<path fill-rule="evenodd" clip-rule="evenodd" d="M223.42 203.504V206.796H221.405V203.502L218.359 197.996H220.636L222.441 201.307L224.17 197.996H226.364L223.42 203.504Z" fill="#4959E7"/>
</g>
<g opacity="0.25" filter="url(#filter1_f_3978_9022)">
<rect x="153" y="29" width="96" height="145" rx="5" fill="#4959E7"/>
</g>
<rect x="144" y="36" width="98" height="131" rx="5" fill="#4959E7"/>
<g clip-path="url(#clip2_3978_9022)">
<path d="M193.5 104.125C190.601 104.125 188.25 101.774 188.25 98.875C188.25 95.9755 190.601 93.625 193.5 93.625C196.399 93.625 198.75 95.9755 198.75 98.875C198.75 101.774 196.399 104.125 193.5 104.125Z" stroke="white" stroke-width="2" stroke-linecap="round" stroke-linejoin="round"/>
<path d="M201.457 108.719C200.651 107.323 199.491 106.163 198.094 105.356C196.697 104.55 195.113 104.125 193.5 104.125C191.887 104.125 190.303 104.55 188.906 105.356C187.509 106.163 186.349 107.323 185.543 108.719" stroke="white" stroke-width="2" stroke-linecap="round" stroke-linejoin="round"/>
</g>
<g opacity="0.45" filter="url(#filter2_f_3978_9022)">
<rect x="39" y="119" width="92" height="37" rx="5" fill="#969696"/>
</g>
<rect x="36" y="117" width="98" height="50" rx="5" fill="#AAADC0"/>
<g clip-path="url(#clip3_3978_9022)">
<path d="M85.5 145.125C82.6005 145.125 80.25 142.774 80.25 139.875C80.25 136.976 82.6005 134.625 85.5 134.625C88.3995 134.625 90.75 136.976 90.75 139.875C90.75 142.774 88.3995 145.125 85.5 145.125Z" stroke="white" stroke-width="2" stroke-linecap="round" stroke-linejoin="round"/>
<path d="M93.457 149.719C92.6507 148.323 91.4909 147.163 90.0941 146.356C88.6974 145.55 87.1129 145.125 85.5 145.125C83.8871 145.125 82.3026 145.55 80.9059 146.356C79.5091 147.163 78.3493 148.323 77.543 149.719" stroke="white" stroke-width="2" stroke-linecap="round" stroke-linejoin="round"/>
</g>
<g filter="url(#filter3_d_3978_9022)">
<rect x="37" y="185" width="98" height="34" rx="2" fill="white"/>
</g>
<circle cx="60.5" cy="202" r="8.18966" fill="white" stroke="#AAADC0" stroke-width="2.62069"/>
<g clip-path="url(#clip4_3978_9022)">
<path d="M60.5 202.625C59.2574 202.625 58.25 201.618 58.25 200.375C58.25 199.132 59.2574 198.125 60.5 198.125C61.7426 198.125 62.75 199.132 62.75 200.375C62.75 201.618 61.7426 202.625 60.5 202.625Z" stroke="#AAADC0" stroke-width="1.5" stroke-linecap="round" stroke-linejoin="round"/>
<path d="M63.9102 204.594C63.5646 203.995 63.0675 203.498 62.4689 203.153C61.8703 202.807 61.1912 202.625 60.5 202.625C59.8088 202.625 59.1297 202.807 58.5311 203.153C57.9325 203.498 57.4354 203.995 57.0898 204.594" stroke="#AAADC0" stroke-width="1.5" stroke-linecap="round" stroke-linejoin="round"/>
</g>
<path d="M87.2415 201.909C87.2415 203.019 87.031 203.964 86.6101 204.743C86.1925 205.522 85.6224 206.117 84.8999 206.528C84.1806 206.935 83.3719 207.139 82.4737 207.139C81.5689 207.139 80.7569 206.934 80.0376 206.523C79.3184 206.112 78.75 205.517 78.3324 204.738C77.9148 203.959 77.706 203.016 77.706 201.909C77.706 200.799 77.9148 199.854 78.3324 199.075C78.75 198.296 79.3184 197.703 80.0376 197.295C80.7569 196.884 81.5689 196.679 82.4737 196.679C83.3719 196.679 84.1806 196.884 84.8999 197.295C85.6224 197.703 86.1925 198.296 86.6101 199.075C87.031 199.854 87.2415 200.799 87.2415 201.909ZM85.0589 201.909C85.0589 201.19 84.9512 200.583 84.7358 200.089C84.5237 199.596 84.2237 199.221 83.8359 198.966C83.4482 198.711 82.9941 198.583 82.4737 198.583C81.9534 198.583 81.4993 198.711 81.1115 198.966C80.7237 199.221 80.4221 199.596 80.2067 200.089C79.9946 200.583 79.8885 201.19 79.8885 201.909C79.8885 202.628 79.9946 203.235 80.2067 203.729C80.4221 204.223 80.7237 204.597 81.1115 204.852C81.4993 205.107 81.9534 205.235 82.4737 205.235C82.9941 205.235 83.4482 205.107 83.8359 204.852C84.2237 204.597 84.5237 204.223 84.7358 203.729C84.9512 203.235 85.0589 202.628 85.0589 201.909ZM92.3681 199.364V200.955H87.7694V199.364H92.3681ZM88.8134 197.534H90.9313V204.653C90.9313 204.849 90.9612 205.001 91.0208 205.111C91.0805 205.217 91.1634 205.291 91.2694 205.335C91.3788 205.378 91.5047 205.399 91.6473 205.399C91.7467 205.399 91.8461 205.391 91.9455 205.374C92.045 205.354 92.1212 205.339 92.1742 205.33L92.5073 206.906C92.4013 206.939 92.2521 206.977 92.0599 207.02C91.8677 207.066 91.634 207.094 91.3589 207.104C90.8485 207.124 90.401 207.056 90.0166 206.901C89.6354 206.745 89.3388 206.503 89.1267 206.175C88.9145 205.847 88.8101 205.432 88.8134 204.932V197.534ZM95.5397 202.585V207H93.4218V196.818H95.4801V200.711H95.5695C95.7419 200.26 96.0203 199.907 96.4048 199.652C96.7892 199.393 97.2715 199.264 97.8515 199.264C98.3818 199.264 98.8442 199.38 99.2386 199.612C99.6363 199.841 99.9445 200.171 100.163 200.602C100.385 201.029 100.495 201.541 100.491 202.138V207H98.3735V202.516C98.3768 202.045 98.2575 201.679 98.0156 201.417C97.7769 201.155 97.4422 201.024 97.0113 201.024C96.7229 201.024 96.4677 201.085 96.2457 201.208C96.0269 201.331 95.8546 201.51 95.7286 201.745C95.606 201.977 95.543 202.257 95.5397 202.585ZM105.148 207.149C104.363 207.149 103.687 206.99 103.12 206.672C102.556 206.35 102.122 205.896 101.817 205.31C101.512 204.72 101.36 204.022 101.36 203.217C101.36 202.431 101.512 201.742 101.817 201.148C102.122 200.555 102.551 200.093 103.105 199.761C103.662 199.43 104.315 199.264 105.064 199.264C105.568 199.264 106.037 199.345 106.471 199.508C106.908 199.667 107.289 199.907 107.614 200.229C107.942 200.55 108.197 200.955 108.38 201.442C108.562 201.926 108.653 202.492 108.653 203.142V203.724H102.205V202.411H106.66C106.66 202.106 106.593 201.836 106.461 201.601C106.328 201.366 106.144 201.182 105.909 201.049C105.677 200.913 105.407 200.845 105.099 200.845C104.777 200.845 104.492 200.92 104.243 201.069C103.998 201.215 103.806 201.412 103.667 201.661C103.528 201.906 103.456 202.179 103.453 202.481V203.729C103.453 204.107 103.523 204.433 103.662 204.708C103.804 204.983 104.005 205.195 104.263 205.344C104.522 205.494 104.828 205.568 105.183 205.568C105.418 205.568 105.634 205.535 105.829 205.469C106.025 205.402 106.192 205.303 106.331 205.17C106.471 205.038 106.577 204.875 106.65 204.683L108.608 204.812C108.509 205.283 108.305 205.694 107.997 206.045C107.692 206.393 107.298 206.665 106.814 206.861C106.333 207.053 105.778 207.149 105.148 207.149ZM109.545 207V199.364H111.599V200.696H111.678C111.817 200.222 112.051 199.864 112.379 199.622C112.707 199.377 113.085 199.254 113.513 199.254C113.619 199.254 113.733 199.261 113.856 199.274C113.978 199.287 114.086 199.306 114.179 199.329V201.208C114.079 201.178 113.942 201.152 113.766 201.129C113.591 201.105 113.43 201.094 113.284 201.094C112.972 201.094 112.694 201.162 112.449 201.298C112.207 201.43 112.015 201.616 111.872 201.854C111.733 202.093 111.663 202.368 111.663 202.68V207H109.545ZM121.138 201.541L119.199 201.661C119.165 201.495 119.094 201.346 118.985 201.213C118.875 201.077 118.731 200.969 118.552 200.89C118.377 200.807 118.166 200.766 117.921 200.766C117.593 200.766 117.316 200.835 117.091 200.974C116.865 201.11 116.753 201.293 116.753 201.521C116.753 201.704 116.826 201.858 116.971 201.984C117.117 202.11 117.367 202.211 117.722 202.287L119.104 202.565C119.847 202.718 120.4 202.963 120.765 203.301C121.129 203.639 121.312 204.083 121.312 204.634C121.312 205.134 121.164 205.573 120.869 205.951C120.577 206.329 120.176 206.624 119.666 206.836C119.159 207.045 118.574 207.149 117.911 207.149C116.9 207.149 116.095 206.939 115.495 206.518C114.898 206.094 114.549 205.517 114.446 204.788L116.529 204.678C116.592 204.987 116.744 205.222 116.986 205.384C117.228 205.543 117.538 205.623 117.916 205.623C118.287 205.623 118.585 205.552 118.811 205.409C119.04 205.263 119.156 205.076 119.159 204.847C119.156 204.655 119.074 204.498 118.915 204.375C118.756 204.249 118.511 204.153 118.179 204.087L116.857 203.823C116.111 203.674 115.556 203.415 115.192 203.048C114.83 202.68 114.65 202.211 114.65 201.641C114.65 201.15 114.782 200.728 115.047 200.373C115.316 200.018 115.692 199.745 116.176 199.553C116.663 199.36 117.233 199.264 117.886 199.264C118.851 199.264 119.61 199.468 120.163 199.876C120.72 200.283 121.045 200.839 121.138 201.541Z" fill="#AAADC0"/>
<defs>
<filter id="filter0_d_3978_9022" x="125" y="167" width="136" height="72" filterUnits="userSpaceOnUse" color-interpolation-filters="sRGB">
<feFlood flood-opacity="0" result="BackgroundImageFix"/>
<feColorMatrix in="SourceAlpha" type="matrix" values="0 0 0 0 0 0 0 0 0 0 0 0 0 0 0 0 0 0 127 0" result="hardAlpha"/>
<feOffset dy="1"/>
<feGaussianBlur stdDeviation="9.5"/>
<feComposite in2="hardAlpha" operator="out"/>
<feColorMatrix type="matrix" values="0 0 0 0 0 0 0 0 0 0 0 0 0 0 0 0 0 0 0.07 0"/>
<feBlend mode="normal" in2="BackgroundImageFix" result="effect1_dropShadow_3978_9022"/>
<feBlend mode="normal" in="SourceGraphic" in2="effect1_dropShadow_3978_9022" result="shape"/>
</filter>
<filter id="filter1_f_3978_9022" x="138" y="14" width="126" height="175" filterUnits="userSpaceOnUse" color-interpolation-filters="sRGB">
<feFlood flood-opacity="0" result="BackgroundImageFix"/>
<feBlend mode="normal" in="SourceGraphic" in2="BackgroundImageFix" result="shape"/>
<feGaussianBlur stdDeviation="7.5" result="effect1_foregroundBlur_3978_9022"/>
</filter>
<filter id="filter2_f_3978_9022" x="14" y="94" width="142" height="87" filterUnits="userSpaceOnUse" color-interpolation-filters="sRGB">
<feFlood flood-opacity="0" result="BackgroundImageFix"/>
<feBlend mode="normal" in="SourceGraphic" in2="BackgroundImageFix" result="shape"/>
<feGaussianBlur stdDeviation="12.5" result="effect1_foregroundBlur_3978_9022"/>
</filter>
<filter id="filter3_d_3978_9022" x="18" y="167" width="136" height="72" filterUnits="userSpaceOnUse" color-interpolation-filters="sRGB">
<feFlood flood-opacity="0" result="BackgroundImageFix"/>
<feColorMatrix in="SourceAlpha" type="matrix" values="0 0 0 0 0 0 0 0 0 0 0 0 0 0 0 0 0 0 127 0" result="hardAlpha"/>
<feOffset dy="1"/>
<feGaussianBlur stdDeviation="9.5"/>
<feComposite in2="hardAlpha" operator="out"/>
<feColorMatrix type="matrix" values="0 0 0 0 0 0 0 0 0 0 0 0 0 0 0 0 0 0 0.07 0"/>
<feBlend mode="normal" in2="BackgroundImageFix" result="effect1_dropShadow_3978_9022"/>
<feBlend mode="normal" in="SourceGraphic" in2="effect1_dropShadow_3978_9022" result="shape"/>
</filter>
<clipPath id="clip0_3978_9022">
<rect width="9" height="9" fill="white" transform="matrix(-1 0 0 1 167 198)"/>
</clipPath>
<clipPath id="clip1_3978_9022">
<rect width="54" height="9" fill="white" transform="translate(179 198)"/>
</clipPath>
<clipPath id="clip2_3978_9022">
<rect width="21" height="21" fill="white" transform="matrix(-1 0 0 1 204 91)"/>
</clipPath>
<clipPath id="clip3_3978_9022">
<rect width="21" height="21" fill="white" transform="matrix(-1 0 0 1 96 132)"/>
</clipPath>
<clipPath id="clip4_3978_9022">
<rect width="9" height="9" fill="white" transform="matrix(-1 0 0 1 65 197)"/>
</clipPath>
</defs>
</svg>
