<?xml version="1.0" encoding="utf-8"?>
<!-- Generator: Adobe Illustrator 27.0.0, SVG Export Plug-In . SVG Version: 6.00 Build 0)  -->
<svg version="1.1" id="Layer_1" xmlns="http://www.w3.org/2000/svg" xmlns:xlink="http://www.w3.org/1999/xlink" x="0px" y="0px"
	 viewBox="0 0 353.2 68.1" style="enable-background:new 0 0 353.2 68.1;" xml:space="preserve">
<style type="text/css">
	.st0{clip-path:url(#SVGID_00000181087523593241090340000007549401914060948651_);}
	.st1{clip-path:url(#SVGID_00000156583788567998035300000007390617621239848592_);fill:#C1B7EE;}
	.st2{clip-path:url(#SVGID_00000182522601481246618680000011298712966227621524_);}
	.st3{clip-path:url(#SVGID_00000152252471412326135270000000524199376768584088_);fill:#C1B7EE;}
	.st4{clip-path:url(#SVGID_00000181781473551672668920000004270243244447016877_);fill:#C1B7EE;}
	.st5{clip-path:url(#SVGID_00000095332960601794598110000013512257546473260955_);}
	.st6{clip-path:url(#SVGID_00000154397112394831346300000003309367255992247981_);fill:#C1B7EE;}
	.st7{clip-path:url(#SVGID_00000141425932574687450540000008820161605356712615_);}
	.st8{clip-path:url(#SVGID_00000149342222549943570580000005759732167176471224_);fill:#C1B7EE;}
	.st9{clip-path:url(#SVGID_00000154391131489485151180000003734727236201822629_);}
	.st10{clip-path:url(#SVGID_00000159442415617429871510000000592373268486865294_);fill:#C1B7EE;}
	.st11{clip-path:url(#SVGID_00000168101156226596362340000005238736081389275804_);}
	.st12{clip-path:url(#SVGID_00000030465440834944492370000017400627170708280199_);fill:#C1B7EE;}
	.st13{clip-path:url(#SVGID_00000007405833630253174740000013525331671888864405_);}
	.st14{clip-path:url(#SVGID_00000077323420788695263600000016927608598300409238_);fill:#C1B7EE;}
	.st15{clip-path:url(#SVGID_00000007387924329358384580000007231705349900213913_);}
	.st16{clip-path:url(#SVGID_00000075164098893786966630000009138881481513112980_);fill:#C1B7EE;}
</style>
<g>
	<g>
		<defs>
			<path id="SVGID_1_" d="M47.3,52.7c-4.9,6.5-11.1,9.4-19,9.4c-13,0-22.5-9.6-22.5-21.7s9.8-21.8,22.5-21.8
				c7.3,0,13.7,3.4,17.6,8.4L38,34c-2.2-2.9-5.6-5-9.7-5C21.8,29,17,34.1,17,40.5c0,6.5,4.7,11.4,11.6,11.4c4.6,0,8.2-2.8,10-5.5
				L47.3,52.7z"/>
		</defs>
		<use xlink:href="#SVGID_1_"  style="overflow:visible;fill:#C1B7EE;"/>
		<clipPath id="SVGID_00000114048332173454715420000011365452257771350149_">
			<use xlink:href="#SVGID_1_"  style="overflow:visible;"/>
		</clipPath>
		<g style="clip-path:url(#SVGID_00000114048332173454715420000011365452257771350149_);">
			<g>
				<defs>
					<rect id="SVGID_00000003072945791317654970000013924639738948678543_" x="-586.8" y="-310.5" width="1053.7" height="691.5"/>
				</defs>
				<clipPath id="SVGID_00000062884798132671481250000002695782974362641822_">
					<use xlink:href="#SVGID_00000003072945791317654970000013924639738948678543_"  style="overflow:visible;"/>
				</clipPath>
				
					<rect x="5.1" y="17.8" style="clip-path:url(#SVGID_00000062884798132671481250000002695782974362641822_);fill:#C1B7EE;" width="42.9" height="45"/>
			</g>
		</g>
	</g>
</g>
<g>
	<g>
		<defs>
			<path id="SVGID_00000092435280371730230570000013460249709485588387_" d="M70.3,18.6c12.7,0,22.3,9.7,22.3,21.8
				S83,62.1,70.3,62.1S48,52.5,48,40.4S57.6,18.6,70.3,18.6 M70.3,51.7c6.6,0,11.1-5.1,11.1-11.4s-4.5-11.5-11.1-11.5
				S59.2,34,59.2,40.3C59.2,46.6,63.7,51.7,70.3,51.7"/>
		</defs>
		<use xlink:href="#SVGID_00000092435280371730230570000013460249709485588387_"  style="overflow:visible;fill:#C1B7EE;"/>
		<clipPath id="SVGID_00000041278285040496078190000016197426729139738536_">
			<use xlink:href="#SVGID_00000092435280371730230570000013460249709485588387_"  style="overflow:visible;"/>
		</clipPath>
		<g style="clip-path:url(#SVGID_00000041278285040496078190000016197426729139738536_);">
			<g>
				<defs>
					<rect id="SVGID_00000044888914181632290110000016471986538873704626_" x="-586.8" y="-310.5" width="1053.7" height="691.5"/>
				</defs>
				<clipPath id="SVGID_00000122703863357737716940000013510597014290961293_">
					<use xlink:href="#SVGID_00000044888914181632290110000016471986538873704626_"  style="overflow:visible;"/>
				</clipPath>
				
					<rect x="47.3" y="17.8" style="clip-path:url(#SVGID_00000122703863357737716940000013510597014290961293_);fill:#C1B7EE;" width="46" height="45"/>
			</g>
		</g>
	</g>
</g>
<g>
	<g>
		<defs>
			<rect id="SVGID_00000172435833289599049820000005592446742948554136_" x="96" y="19.4" width="11.2" height="41.8"/>
		</defs>
		<use xlink:href="#SVGID_00000172435833289599049820000005592446742948554136_"  style="overflow:visible;fill:#C1B7EE;"/>
		<clipPath id="SVGID_00000106128382217292781260000006008877234760591499_">
			<use xlink:href="#SVGID_00000172435833289599049820000005592446742948554136_"  style="overflow:visible;"/>
		</clipPath>
		
			<rect x="95.2" y="18.7" style="clip-path:url(#SVGID_00000106128382217292781260000006008877234760591499_);fill:#C1B7EE;" width="12.7" height="43.2"/>
	</g>
</g>
<g>
	<g>
		<defs>
			<path id="SVGID_00000141437706154880805390000003970914089997819029_" d="M113.2,61.2V19.4H124v3.4c3.2-2.6,7.2-4.2,11.8-4.2
				c5.8,0,11.1,2.6,14.5,6.7c2.8,3.3,4.3,7.5,4.3,14.6v21.3h-11.2V39.1c0-4.1-0.9-6.3-2.5-7.8c-1.5-1.5-3.7-2.3-6.3-2.3
				c-4.7,0-8.6,3-10.2,5.2v27.1L113.2,61.2L113.2,61.2z"/>
		</defs>
		<use xlink:href="#SVGID_00000141437706154880805390000003970914089997819029_"  style="overflow:visible;fill:#C1B7EE;"/>
		<clipPath id="SVGID_00000015321935495763449330000012695685763804440484_">
			<use xlink:href="#SVGID_00000141437706154880805390000003970914089997819029_"  style="overflow:visible;"/>
		</clipPath>
		<g style="clip-path:url(#SVGID_00000015321935495763449330000012695685763804440484_);">
			<g>
				<defs>
					<rect id="SVGID_00000044881311180477672550000009226158137966530988_" x="-586.8" y="-310.5" width="1053.7" height="691.5"/>
				</defs>
				<clipPath id="SVGID_00000094610697431338194550000002252896216874761878_">
					<use xlink:href="#SVGID_00000044881311180477672550000009226158137966530988_"  style="overflow:visible;"/>
				</clipPath>
				
					<rect x="112.5" y="17.8" style="clip-path:url(#SVGID_00000094610697431338194550000002252896216874761878_);fill:#C1B7EE;" width="42.9" height="44.1"/>
			</g>
		</g>
	</g>
</g>
<g>
	<g>
		<defs>
			<path id="SVGID_00000141418777759586490280000001669411365432633531_" d="M163.2,48.4c2.8,2.6,7.3,4.1,11.5,4.1
				c3,0,5.4-1.5,5.4-3.5c0-6.3-20.3-4-20.3-17.5c0-8,7.8-13,16.1-13c5.4,0,11.4,2.1,14.2,4.2l-5.3,8.1c-2.2-1.6-5-2.8-8-2.8
				c-3.1,0-5.7,1.2-5.7,3.4c0,5.4,20.3,3.3,20.3,17.7c0,8-7.9,12.9-16.7,12.9c-5.8,0-11.9-2-16.8-5.6L163.2,48.4z"/>
		</defs>
		<use xlink:href="#SVGID_00000141418777759586490280000001669411365432633531_"  style="overflow:visible;fill:#C1B7EE;"/>
		<clipPath id="SVGID_00000036239286607380995430000008277016964759203480_">
			<use xlink:href="#SVGID_00000141418777759586490280000001669411365432633531_"  style="overflow:visible;"/>
		</clipPath>
		<g style="clip-path:url(#SVGID_00000036239286607380995430000008277016964759203480_);">
			<g>
				<defs>
					<rect id="SVGID_00000022528475883075251650000006849684680891728257_" x="-586.8" y="-310.5" width="1053.7" height="691.5"/>
				</defs>
				<clipPath id="SVGID_00000018209893597571378820000003200120014630275975_">
					<use xlink:href="#SVGID_00000022528475883075251650000006849684680891728257_"  style="overflow:visible;"/>
				</clipPath>
				
					<rect x="157" y="17.8" style="clip-path:url(#SVGID_00000018209893597571378820000003200120014630275975_);fill:#C1B7EE;" width="35" height="45"/>
			</g>
		</g>
	</g>
</g>
<g>
	<g>
		<defs>
			<path id="SVGID_00000048480882190315451050000012610798527985625512_" d="M220.4,28.9v-9.5h-13.8V7.8h-11.2v11.6v9.5v14.6
				c0,5.9,0.9,9.6,3.1,12.5c2.9,3.8,7.8,6,14.5,6c2.2,0,5.5-0.3,7-0.9l-1.7-9.5c-0.8,0.2-2.9,0.4-4.6,0.4c-2.8,0-4.6-0.8-5.7-2.1
				c-1-1.1-1.4-2.7-1.4-5.3V28.9H220.4z"/>
		</defs>
		<use xlink:href="#SVGID_00000048480882190315451050000012610798527985625512_"  style="overflow:visible;fill:#C1B7EE;"/>
		<clipPath id="SVGID_00000088125675674062343310000004645418877960959653_">
			<use xlink:href="#SVGID_00000048480882190315451050000012610798527985625512_"  style="overflow:visible;"/>
		</clipPath>
		<g style="clip-path:url(#SVGID_00000088125675674062343310000004645418877960959653_);">
			<g>
				<defs>
					<rect id="SVGID_00000183243512411430263170000017956541729054468521_" x="-586.8" y="-310.5" width="1053.7" height="691.5"/>
				</defs>
				<clipPath id="SVGID_00000181057199732843396940000014209042919159870848_">
					<use xlink:href="#SVGID_00000183243512411430263170000017956541729054468521_"  style="overflow:visible;"/>
				</clipPath>
				
					<rect x="194.7" y="7.1" style="clip-path:url(#SVGID_00000181057199732843396940000014209042919159870848_);fill:#C1B7EE;" width="26.5" height="55.7"/>
			</g>
		</g>
	</g>
</g>
<g>
	<g>
		<defs>
			<path id="SVGID_00000075851808858668638720000011009463654264381345_" d="M265.6,61.2h-10.8v-3.4c-3.5,2.9-7.4,4.2-11.7,4.2
				c-6.2,0-12.1-2.8-15.8-7.1c-3.3-3.8-5.4-9-5.4-14.6c0-12.3,9.2-21.8,20.6-21.8c4.7,0,9,1.6,12.3,4.2v-3.4h10.8V61.2z M254.4,34.1
				c-2.3-3.1-6-5.2-10.4-5.2c-6.6,0-10.8,5.4-10.8,11.5c0,6.5,4.7,11.4,11.1,11.4c4.2,0,7.9-2.1,10.1-5.2L254.4,34.1L254.4,34.1z"/>
		</defs>
		<use xlink:href="#SVGID_00000075851808858668638720000011009463654264381345_"  style="overflow:visible;fill:#C1B7EE;"/>
		<clipPath id="SVGID_00000034056956969501878650000016379655139070504093_">
			<use xlink:href="#SVGID_00000075851808858668638720000011009463654264381345_"  style="overflow:visible;"/>
		</clipPath>
		<g style="clip-path:url(#SVGID_00000034056956969501878650000016379655139070504093_);">
			<g>
				<defs>
					<rect id="SVGID_00000034791342269642495090000015462786823093519000_" x="-586.8" y="-310.5" width="1053.7" height="691.5"/>
				</defs>
				<clipPath id="SVGID_00000012454268739794920710000004229468083743153039_">
					<use xlink:href="#SVGID_00000034791342269642495090000015462786823093519000_"  style="overflow:visible;"/>
				</clipPath>
				
					<rect x="221.2" y="17.8" style="clip-path:url(#SVGID_00000012454268739794920710000004229468083743153039_);fill:#C1B7EE;" width="45.1" height="45"/>
			</g>
		</g>
	</g>
</g>
<g>
	<g>
		<defs>
			<path id="SVGID_00000146464017452377962360000004695969086940963760_" d="M274.5,48.4c2.9,2.6,7.3,4.1,11.5,4.1
				c3,0,5.4-1.5,5.4-3.5c0-6.3-20.3-4-20.3-17.5c0-8,7.8-13,16.1-13c5.4,0,11.4,2.1,14.2,4.2l-5.3,8.1c-2.2-1.6-5-2.8-8-2.8
				c-3.1,0-5.7,1.2-5.7,3.4c0,5.4,20.3,3.3,20.3,17.7c0,8-7.9,12.9-16.7,12.9c-5.8,0-11.9-2-16.8-5.6L274.5,48.4z"/>
		</defs>
		<use xlink:href="#SVGID_00000146464017452377962360000004695969086940963760_"  style="overflow:visible;fill:#C1B7EE;"/>
		<clipPath id="SVGID_00000003090559096956505390000012608865013077446320_">
			<use xlink:href="#SVGID_00000146464017452377962360000004695969086940963760_"  style="overflow:visible;"/>
		</clipPath>
		<g style="clip-path:url(#SVGID_00000003090559096956505390000012608865013077446320_);">
			<g>
				<defs>
					<rect id="SVGID_00000038376892225648080380000014314880527171402116_" x="-586.8" y="-310.5" width="1053.7" height="691.5"/>
				</defs>
				<clipPath id="SVGID_00000048495493703547158730000004005395286070199426_">
					<use xlink:href="#SVGID_00000038376892225648080380000014314880527171402116_"  style="overflow:visible;"/>
				</clipPath>
				
					<rect x="268.4" y="17.8" style="clip-path:url(#SVGID_00000048495493703547158730000004005395286070199426_);fill:#C1B7EE;" width="35" height="45"/>
			</g>
		</g>
	</g>
</g>
<g>
	<g>
		<defs>
			<path id="SVGID_00000117651449293790495960000014300303682116177541_" d="M318.1,61.2h-11.2V8.1l11.6,0.1l-0.4,14.2
				c3.1-2.4,7.1-3.9,11.4-3.9c5.8,0,11.1,2.6,14.5,6.7c2.8,3.3,4.3,7.5,4.3,14.6v21.3h-11.2v-22c0-4.1-0.9-6.3-2.5-7.8
				c-1.5-1.5-3.7-2.3-6.3-2.3c-4.7,0-8.6,3-10.2,5.2L318.1,61.2L318.1,61.2z"/>
		</defs>
		<use xlink:href="#SVGID_00000117651449293790495960000014300303682116177541_"  style="overflow:visible;fill:#C1B7EE;"/>
		<clipPath id="SVGID_00000176758434745031800850000015016350417784277691_">
			<use xlink:href="#SVGID_00000117651449293790495960000014300303682116177541_"  style="overflow:visible;"/>
		</clipPath>
		<g style="clip-path:url(#SVGID_00000176758434745031800850000015016350417784277691_);">
			<g>
				<defs>
					<rect id="SVGID_00000181055898384859470240000006080552423773579945_" x="-586.8" y="-310.5" width="1053.7" height="691.5"/>
				</defs>
				<clipPath id="SVGID_00000001637751575992869650000010126865215504782518_">
					<use xlink:href="#SVGID_00000181055898384859470240000006080552423773579945_"  style="overflow:visible;"/>
				</clipPath>
				
					<rect x="306.1" y="7.4" style="clip-path:url(#SVGID_00000001637751575992869650000010126865215504782518_);fill:#C1B7EE;" width="42.9" height="54.6"/>
			</g>
		</g>
	</g>
</g>
</svg>
