<?xml version="1.0" encoding="utf-8"?>
<!-- Generator: Adobe Illustrator 27.0.0, SVG Export Plug-In . SVG Version: 6.00 Build 0)  -->
<svg version="1.1" id="Layer_1" xmlns="http://www.w3.org/2000/svg" xmlns:xlink="http://www.w3.org/1999/xlink" x="0px" y="0px"
	 viewBox="0 0 262.1 43.7" style="enable-background:new 0 0 262.1 43.7;" xml:space="preserve">
<style type="text/css">
	.st0{fill-rule:evenodd;clip-rule:evenodd;fill:#1129DE;}
</style>
<g>
	<g>
		<path class="st0" d="M53.3,43.7c10.2,0,18.2-7.9,18.2-18.1c0-10.2-8-18.1-18.2-18.1c-10.2,0-18.2,7.9-18.2,18.1
			C35.1,35.8,43.1,43.7,53.3,43.7L53.3,43.7z M53.3,34c-4.9,0-8.2-3.6-8.2-8.4c0-4.8,3.3-8.4,8.2-8.4c4.9,0,8.2,3.6,8.2,8.4
			C61.5,30.4,58.1,34,53.3,34L53.3,34z"/>
		<path class="st0" d="M134.6,29.5c0.3-1.3,0.4-2.6,0.4-4c0-10.1-7.1-18.1-17.4-18.1C107,7.5,99.3,15,99.3,25.6
			c0,11.1,8.2,18.1,19,18.1c5.9,0,11.1-2,14.7-6.7c0.1-0.1,0-0.2-0.1-0.3l-7.7-4.4c-0.1,0-0.1,0-0.2,0c-1.7,1.7-4.3,2.5-6.6,2.5
			c-3.8,0-7.1-1.2-8.5-5l-0.1-0.3H134.6L134.6,29.5z M109.7,21.9c1-3.8,3.9-5.6,7.8-5.6c3.7,0,6.5,2,7.6,5.6l0.1,0.3h-15.5
			L109.7,21.9L109.7,21.9z"/>
		<path class="st0" d="M90.7,8.4h5.9c0.1,0,0.2,0.1,0.2,0.2v9.5c0,0.1-0.1,0.2-0.2,0.2h-5.8c-3,0-5.5,2.5-5.5,5.5v4v5.2v9.7
			c0,0.1-0.1,0.2-0.2,0.2h-9.5c-0.1,0-0.2-0.1-0.2-0.2v-19C75.6,15.2,82.4,8.4,90.7,8.4L90.7,8.4z"/>
		<path class="st0" d="M19.8,0h11.5c0.1,0,0.2,0.1,0.2,0.2v9.5c0,0.1-0.1,0.2-0.2,0.2H20C14.4,9.8,9.8,14.4,9.8,20v2.8
			c0,5.6,4.6,10.2,10.2,10.2h11.3c0.1,0,0.2,0.1,0.2,0.2v9.5c0,0.1-0.1,0.2-0.2,0.2H20c-11,0-20-9-20-20v-2.9C0,8.9,8.9,0,19.8,0
			L19.8,0z"/>
		<path class="st0" d="M250.5,0h11.5c0.1,0,0.2,0.1,0.2,0.2v9.5c0,0.1-0.1,0.2-0.2,0.2h-11.3c-5.6,0-10.2,4.6-10.2,10.2v2.8
			c0,5.6,4.6,10.2,10.2,10.2h11.3c0.1,0,0.2,0.1,0.2,0.2v9.5c0,0.1-0.1,0.2-0.2,0.2h-11.3c-11,0-20-9-20-20v-2.9
			C230.6,8.9,239.6,0,250.5,0L250.5,0z"/>
		<path class="st0" d="M159.3,24.6v18c0,0.1-0.1,0.2-0.2,0.2h-9.9c-0.1,0-0.2-0.1-0.2-0.2V21V0.2c0-0.1,0.1-0.2,0.2-0.2h9.9
			c0.1,0,0.2,0.1,0.2,0.2l0,14.2h0l0.3,0c2.3,0,4.7-0.4,6.8-1.3c5.5-2.4,9-7.3,9.8-12.9l0-0.2h10c0.1,0,0.2,0.1,0.2,0.2l0,0
			c-0.6,6.4-3.4,12.3-8,16.8l-0.1,0.1c-1.6,1.6-3.5,3-5.5,4.1l-0.8,0.4c-0.1,0-0.1,0.2-0.1,0.2l15.5,20.7c0.1,0.1,0,0.3-0.1,0.3
			h-12.3c-0.1,0-0.1,0-0.1-0.1l-13.1-18c0,0-0.1-0.1-0.1-0.1H159.3L159.3,24.6z"/>
		<path class="st0" d="M215.6,26.8v15.8c0,0.1-0.1,0.2-0.2,0.2H206c-0.1,0-0.2-0.1-0.2-0.2V26.8c0,0,0-0.1,0-0.1L191.2,0.2
			c-0.1-0.1,0-0.2,0.1-0.2H202c0.1,0,0.1,0,0.1,0.1l8.6,15.7c0.1,0.1,0.2,0.1,0.3,0l8.2-15.7c0-0.1,0.1-0.1,0.1-0.1h10.3
			c0.1,0,0.2,0.1,0.1,0.2L215.6,26.8L215.6,26.8z"/>
	</g>
</g>
</svg>
