<?xml version="1.0" encoding="utf-8"?>
<!-- Generator: Adobe Illustrator 27.0.0, SVG Export Plug-In . SVG Version: 6.00 Build 0)  -->
<svg version="1.1" id="Layer_1" xmlns="http://www.w3.org/2000/svg" xmlns:xlink="http://www.w3.org/1999/xlink" x="0px" y="0px"
	 viewBox="0 0 262.1 43.7" style="enable-background:new 0 0 262.1 43.7;" xml:space="preserve">
<style type="text/css">
	.st0{fill-rule:evenodd;clip-rule:evenodd;fill:#FFFFFF;}
</style>
<g>
	<path class="st0" d="M53.3,43.7c10.2,0,18.2-7.9,18.2-18.1c0-10.2-8-18.1-18.2-18.1c-10.2,0-18.2,7.9-18.2,18.1
		C35.1,35.8,43.1,43.7,53.3,43.7L53.3,43.7z M53.3,34c-4.9,0-8.2-3.6-8.2-8.4c0-4.8,3.3-8.4,8.2-8.4c4.9,0,8.2,3.6,8.2,8.4
		C61.5,30.4,58.1,34,53.3,34L53.3,34z"/>
	<path class="st0" d="M134.6,29.5c0.3-1.3,0.4-2.6,0.4-4c0-10.1-7.1-18.1-17.4-18.1C107,7.5,99.3,15,99.3,25.6
		c0,11.1,8.2,18.1,19,18.1c6,0,11.2-2,14.8-6.9l-8-4.6c-1.7,1.8-4.3,2.6-6.7,2.6c-3.8,0-7.1-1.2-8.5-5l-0.1-0.3H134.6L134.6,29.5z
		 M109.7,21.9c1-3.8,3.9-5.6,7.8-5.6c3.7,0,6.5,2,7.6,5.6l0.1,0.3h-15.5L109.7,21.9L109.7,21.9z"/>
	<path class="st0" d="M90.7,8.4h6.1v9.8h-6.1c-2.9,0-5.3,2.4-5.3,5.3v4.1v5.2v9.8h-9.8V23.6C75.6,15.2,82.4,8.4,90.7,8.4L90.7,8.4z"
		/>
	<path class="st0" d="M19.8,0h11.6v9.8H19.8c-5.5,0-10,4.5-10,10v3.1c0,5.5,4.5,10,10,10h11.6v9.8H19.8C8.9,42.7,0,33.8,0,22.9v-3.1
		C0,8.9,8.9,0,19.8,0L19.8,0z"/>
	<path class="st0" d="M250.5,0h11.6v9.8h-11.6c-5.5,0-10,4.5-10,10v3.1c0,5.5,4.5,10,10,10h11.6v9.8h-11.6
		c-10.9,0-19.8-8.9-19.8-19.8v-3.1C230.6,8.9,239.6,0,250.5,0L250.5,0z"/>
	<path class="st0" d="M159.3,24.6v18.2h-10.2V21V0h10.2l0,14.4h0h0.9c4.4,0,8.1-1.7,11.3-4.8c2.5-2.5,4.2-5.8,4.7-9.4l0-0.2h10.2
		l0,0.2c-0.6,6.2-3.3,12-7.7,16.5l0,0c-1.7,1.7-3.6,3.2-5.7,4.4l-0.9,0.5l15.8,21.1H175l-13.2-18.2H159.3L159.3,24.6z"/>
	<polygon class="st0" points="215.6,26.8 215.6,42.7 205.8,42.7 205.8,26.7 191,0 202.1,0 210.8,16.1 219.2,0 229.9,0 215.6,26.8 	
		"/>
</g>
</svg>
