<svg width="154" height="38" viewBox="0 0 154 38" fill="none" xmlns="http://www.w3.org/2000/svg">
<g clip-path="url(#clip0_2447_4986)">
<path d="M12.9791 7.72189C10.461 8.80307 9.65332 12.7852 9.65332 12.7852L18.947 8.76509C18.947 8.76509 15.4809 6.64764 12.9791 7.72189Z" fill="#C1B7EE"/>
<path d="M5.41047 20.562C5.65828 23.2911 9.19416 25.293 9.19416 25.293L8.25144 15.211C8.25144 15.211 5.16421 17.8503 5.41047 20.562Z" fill="#C1B7EE"/>
<path d="M15.2541 31.6788C17.9263 32.2864 20.9227 29.5423 20.9227 29.5423L11.043 27.3234C11.043 27.3234 12.5992 31.075 15.2541 31.6788Z" fill="#C1B7EE"/>
<path d="M28.8854 25.777C30.2869 23.422 28.5994 19.7259 28.5994 19.7259L23.4443 28.4414C23.4443 28.4414 27.493 28.1167 28.8854 25.777Z" fill="#C1B7EE"/>
<path d="M27.4878 10.9757C25.6831 8.91343 21.646 9.37221 21.646 9.37221L28.3347 16.9746C28.3347 16.9746 29.2809 13.0246 27.4878 10.9757Z" fill="#C1B7EE"/>
<path d="M22.3724 0.0657134C18.201 -0.882646 13.5239 3.40127 13.5239 3.40127L28.9466 6.86426C28.9466 6.86426 26.5171 1.00791 22.3727 0.0657134" fill="#C1B7EE"/>
<path d="M0.988124 9.26774C-1.20286 12.9418 1.42599 18.7139 1.42599 18.7139L9.48537 5.11601C9.48537 5.11601 3.16486 5.61701 0.988124 9.26736" fill="#C1B7EE"/>
<path d="M3.19063 32.4304C6.00787 35.6496 12.3098 34.933 12.3098 34.933L1.86819 23.0662C1.86819 23.0662 0.391626 29.2322 3.19063 32.4304Z" fill="#C1B7EE"/>
<path d="M25.8568 37.4658C29.789 35.7812 31.0548 29.5663 31.0548 29.5663L16.542 35.8299C16.542 35.8299 21.9498 39.1396 25.8566 37.4658" fill="#C1B7EE"/>
<path d="M37.6698 17.4997C37.2828 13.2394 31.7632 10.1151 31.7632 10.1151L33.2355 25.8535C33.2355 25.8535 38.0544 21.7331 37.6698 17.5004" fill="#C1B7EE"/>
<path d="M108.236 15.4686C108.236 16.8909 109.393 18.048 110.815 18.048C112.237 18.048 113.394 16.8909 113.394 15.4686C113.394 14.0461 112.237 12.8888 110.815 12.8888C109.393 12.8888 108.236 14.0461 108.236 15.4686ZM60.6213 15.4686C60.6213 16.8909 61.7782 18.048 63.2006 18.048C64.6231 18.048 65.7799 16.8909 65.7799 15.4686C65.7799 14.0461 64.6231 12.8888 63.2006 12.8888C61.7782 12.8888 60.6213 14.0461 60.6213 15.4686ZM80.388 14.1571V35.0069H84.2778V28.8117H87.9963C90.4073 28.8117 92.2559 28.1649 93.4905 26.8897C94.7275 25.6127 95.3543 23.7418 95.3543 21.3283C95.3543 16.5031 92.9476 14.1576 87.9963 14.1576L80.388 14.1571ZM84.2778 17.4222H87.9648C89.1278 17.4222 90.002 17.7352 90.5634 18.3524C91.1194 18.9644 91.4016 19.9653 91.4016 21.3278C91.4016 24.1269 90.2453 25.5462 87.9648 25.5462H84.2778V17.4222ZM43.6318 14.1571V35.0069H51.8973C54.0258 35.0069 55.6959 34.518 56.8611 33.554C58.0139 32.5999 58.5982 31.1078 58.5982 29.1191C58.5982 27.8297 58.3821 26.8139 57.9559 26.0996C57.5328 25.3922 56.8665 24.8426 55.9758 24.4662L55.5999 24.3075L55.9446 24.089C56.7622 23.5699 57.3472 22.9717 57.683 22.311C58.0203 21.6455 58.1914 20.7254 58.1914 19.5761C58.1914 17.6718 57.6605 16.2805 56.6136 15.4406C55.5514 14.5893 53.9224 14.1576 51.7719 14.1576L43.6318 14.1571ZM47.5217 17.4222H51.553C53.3349 17.4222 54.2386 18.3467 54.2386 20.1701C54.2386 21.9934 53.3455 22.918 51.5841 22.918H47.5217V17.4222ZM47.5217 26.1204H51.6783C53.647 26.1204 54.6455 27.0554 54.6455 28.8996C54.6455 29.9619 54.3933 30.7118 53.8961 31.1283C53.4096 31.5353 52.6637 31.7412 51.6783 31.7412H47.5217V26.1204ZM69.6381 15.4398V19.789H67.792V22.9289H69.6381V29.6505C69.6381 31.863 69.969 33.3916 70.6224 34.1934C71.2653 34.982 72.5041 35.3818 74.3053 35.3818C74.9852 35.3818 75.9836 35.2389 77.2733 34.9567L77.1073 31.9971L74.9367 32.0541C74.4603 32.0541 74.0989 31.9395 73.8608 31.714C73.6269 31.493 73.4893 31.2233 73.4518 30.912C73.4191 30.6379 73.4031 30.1945 73.4031 29.5567V22.9289H77.2514V19.789H73.4031V15.4398H69.6381ZM140.505 27.6166C140.505 30.3672 141.024 32.3736 142.049 33.5798C143.065 34.7755 144.737 35.3818 147.018 35.3818C148.884 35.3818 151.001 35.1026 153.309 34.5519L153.255 31.8588L152.61 31.9278C151.083 32.0533 149.329 32.1169 147.393 32.1169C146.426 32.1169 145.668 31.8833 145.141 31.4227C144.606 30.9565 144.323 30.2037 144.301 29.1858L144.297 28.9678H153.521L153.814 26.2483C153.813 21.6512 151.651 19.4136 147.205 19.4136C142.696 19.4136 140.505 22.0968 140.505 27.6166ZM144.269 25.9861C144.292 24.7162 144.517 23.8296 144.957 23.2756C145.405 22.7135 146.167 22.4284 147.221 22.4284C148.275 22.4284 149.031 22.7023 149.467 23.243C149.9 23.7776 150.11 24.6759 150.11 25.9897V26.2032H144.266L144.269 25.9861ZM127.666 20.861L127.523 20.9339L127.413 20.8166C126.541 19.8856 125.278 19.4136 123.658 19.4136C122.679 19.4136 121.473 19.825 120.073 20.6364L119.752 20.8223V19.789H116.018V35.0063H119.783V23.3641L120.304 23.1902C121.113 22.8926 121.947 22.7413 122.782 22.7413C123.788 22.7413 124.455 23.1059 124.761 23.8249C125.047 24.4962 125.186 25.5929 125.186 27.1787V35.0063H128.951V27.1162C128.951 26.3125 128.909 25.1159 128.826 23.5603L128.817 23.398L129.441 23.1902C130.42 22.8922 131.264 22.7413 131.949 22.7413C132.912 22.7413 133.566 23.1041 133.895 23.8199C134.199 24.4825 134.353 25.5073 134.353 26.8658V35.0063H138.118V26.7407C138.118 24.1686 137.725 22.2768 136.95 21.1181C136.192 19.9871 134.805 19.4136 132.825 19.4136C131.282 19.4136 129.546 19.9005 127.666 20.861ZM101.734 21.4175L101.411 21.6096V19.789H97.6774V35.0063H101.442V24.5867L102.211 24.3176C103.382 23.954 104.796 23.5954 106.417 23.2509V19.4629C104.938 19.7909 103.362 20.4482 101.734 21.4175ZM108.928 35.0063H112.693V19.789H108.928V35.0063ZM61.3282 35.0063H65.0929V19.789H61.3282V35.0063Z" fill="#C1B7EE"/>
</g>
<defs>
<clipPath id="clip0_2447_4986">
<rect width="154" height="38" fill="white"/>
</clipPath>
</defs>
</svg>
