<svg width="1706" height="289" viewBox="0 0 1706 289" fill="#C1B7EE"
    xmlns="http://www.w3.org/2000/svg">
    <g clip-path="url(#clip0_5808_15865)">
        <path fill-rule="evenodd" clip-rule="evenodd"
            d="M1246.5 -0.5C1251.83 -0.5 1257.17 -0.5 1262.5 -0.5C1280.13 5.1776 1289.13 17.5109 1289.5 36.5C1286.99 64.9223 1271.66 76.7556 1243.5 72C1230.52 67.3545 1223.02 58.1878 1221 44.5C1218.14 28.7326 1222.64 15.5659 1234.5 5C1238.48 2.8381 1242.48 1.00477 1246.5 -0.5ZM1253.5 11.5C1267.43 13.783 1274.1 22.1164 1273.5 36.5C1273.93 45.1373 1270.93 52.304 1264.5 58C1252.52 63.4205 1243.69 60.2539 1238 48.5C1234.58 38.0944 1235.58 28.0944 1241 18.5C1244.46 14.6898 1248.63 12.3564 1253.5 11.5Z"
            fill="#C1B7EE" />
        <path fill-rule="evenodd" clip-rule="evenodd"
            d="M1028.5 0.499299C1033.5 0.499299 1038.5 0.499299 1043.5 0.499299C1043.33 9.50547 1043.5 18.5055 1044 27.4993C1052.14 18.3624 1060.64 9.52911 1069.5 0.999299C1075.86 0.168713 1082.19 0.33538 1088.5 1.4993C1079.5 10.8326 1070.5 20.166 1061.5 29.4993C1071.04 43.42 1080.71 57.2534 1090.5 70.9993C1084.14 71.8299 1077.81 71.6632 1071.5 70.4993C1064.5 60.4993 1057.5 50.4993 1050.5 40.4993C1048.18 42.3153 1046.02 44.3153 1044 46.4993C1043.5 54.826 1043.33 63.1593 1043.5 71.4993C1038.5 71.4993 1033.5 71.4993 1028.5 71.4993C1028.5 47.8326 1028.5 24.166 1028.5 0.499299Z"
            fill="#C1B7EE" />
        <path fill-rule="evenodd" clip-rule="evenodd"
            d="M1093.5 0.5C1098.5 0.5 1103.5 0.5 1108.5 0.5C1108.33 17.8365 1108.5 35.1699 1109 52.5C1110.83 58.3229 1114.83 60.9895 1121 60.5C1126.66 60.952 1130.66 58.6186 1133 53.5C1133.5 35.8365 1133.67 18.1698 1133.5 0.5C1138.83 0.5 1144.17 0.5 1149.5 0.5C1149.67 17.8365 1149.5 35.1699 1149 52.5C1148.06 62.8814 1142.56 69.3814 1132.5 72C1122.97 74.1431 1113.64 73.4764 1104.5 70C1100.28 67.448 1097.11 63.948 1095 59.5C1093.54 39.901 1093.04 20.2344 1093.5 0.5Z"
            fill="#C1B7EE" />
        <path fill-rule="evenodd" clip-rule="evenodd"
            d="M1158.5 0.499935C1171.17 0.333384 1183.84 0.50005 1196.5 0.999935C1211.72 4.59687 1216.55 13.7635 1211 28.4999C1209.1 30.5298 1206.94 32.1965 1204.5 33.4999C1215.5 40.6653 1218.33 50.332 1213 62.4999C1210.41 65.762 1207.24 68.262 1203.5 69.9999C1188.56 71.4337 1173.56 71.9337 1158.5 71.4999C1158.5 47.8332 1158.5 24.1666 1158.5 0.499935ZM1173.5 13.4999C1180.17 13.3336 1186.84 13.5003 1193.5 13.9999C1200.17 18.6666 1200.17 23.3332 1193.5 27.9999C1186.84 28.4995 1180.17 28.6662 1173.5 28.4999C1173.5 23.4999 1173.5 18.4999 1173.5 13.4999ZM1173.5 40.4999C1180.92 40.1094 1188.25 40.6094 1195.5 41.9999C1202.46 47.8736 1202.13 53.2069 1194.5 57.9999C1187.59 59.3843 1180.59 59.8843 1173.5 59.4999C1173.5 53.1666 1173.5 46.8332 1173.5 40.4999Z"
            fill="#C1B7EE" />
        <path opacity="0.916" fill-rule="evenodd" clip-rule="evenodd"
            d="M1288.5 0.5C1307.83 0.5 1327.17 0.5 1346.5 0.5C1346.5 4.83333 1346.5 9.16667 1346.5 13.5C1339.5 13.5 1332.5 13.5 1325.5 13.5C1325.5 32.8333 1325.5 52.1667 1325.5 71.5C1320.17 71.5 1314.83 71.5 1309.5 71.5C1309.5 52.1667 1309.5 32.8333 1309.5 13.5C1302.5 13.5 1295.5 13.5 1288.5 13.5C1288.5 9.16667 1288.5 4.83333 1288.5 0.5Z"
            fill="#C1B7EE" />
        <path fill-rule="evenodd" clip-rule="evenodd"
            d="M1362.5 0.499635C1367.84 0.333618 1373.18 0.500284 1378.5 0.999635C1386.93 24.1115 1395.26 47.2782 1403.5 70.4996C1398.17 71.8329 1392.83 71.8329 1387.5 70.4996C1385.55 65.9892 1384.22 61.3225 1383.5 56.4996C1375.17 56.4996 1366.83 56.4996 1358.5 56.4996C1357.17 61.4996 1355.83 66.4996 1354.5 71.4996C1349.13 71.8278 1343.79 71.4944 1338.5 70.4996C1347.1 47.3551 1355.1 24.0218 1362.5 0.499635ZM1370.5 17.4996C1373.37 26.6111 1376.37 35.7778 1379.5 44.9996C1373.84 45.499 1368.18 45.6657 1362.5 45.4996C1365.17 36.167 1367.83 26.8337 1370.5 17.4996Z"
            fill="#C1B7EE" />
        <path opacity="0.891" fill-rule="evenodd" clip-rule="evenodd"
            d="M967.5 1.5C971.5 1.5 975.5 1.5 979.5 1.5C979.5 95.8333 979.5 190.167 979.5 284.5C975.5 284.5 971.5 284.5 967.5 284.5C967.5 190.167 967.5 95.8333 967.5 1.5Z"
            fill="#C1B7EE" />
        <path fill-rule="evenodd" clip-rule="evenodd"
            d="M8.5 2.5C31.8333 2.5 55.1667 2.5 78.5 2.5C78.3334 33.1685 78.5 63.8351 79 94.5C111.469 64.3654 143.636 33.8654 175.5 3C227.833 2.33333 280.167 2.33333 332.5 3C366.55 59.5936 399.717 116.76 432 174.5C432.333 191.167 432.667 207.833 433 224.5C472.043 178.459 510.71 132.126 549 85.5C556.167 77.6667 563.333 69.8333 570.5 62C527.513 62.4187 484.513 62.5853 441.5 62.5C441.5 42.5 441.5 22.5 441.5 2.5C514.167 2.5 586.833 2.5 659.5 2.5C659.975 21.9261 659.475 41.2594 658 60.5C619.29 106.208 580.957 152.208 543 198.5C535.5 206.667 528 214.833 520.5 223C568.499 223.5 616.499 223.667 664.5 223.5C664.5 243.5 664.5 263.5 664.5 283.5C586.833 283.667 509.166 283.5 431.5 283C404.207 237.583 377.041 192.083 350 146.5C343.333 133.833 336.667 121.167 330 108.5C330.399 166.825 330.566 225.159 330.5 283.5C280.832 283.667 231.166 283.5 181.5 283C153.628 242.092 126.128 200.925 99 159.5C92.0308 165.468 85.3641 171.801 79 178.5C78.5 213.498 78.3333 248.498 78.5 283.5C55.1667 283.5 31.8333 283.5 8.5 283.5C8.5 189.833 8.5 96.1667 8.5 2.5ZM260.5 5.5C261.666 96.6658 261.832 187.999 261 279.5C223.485 223.99 185.985 168.49 148.5 113C185.664 77.0033 222.997 41.1699 260.5 5.5Z"
            fill="#C1B7EE" />
        <path fill-rule="evenodd" clip-rule="evenodd"
            d="M689.5 2.5C756.5 2.5 823.5 2.5 890.5 2.5C890.5 24.5 890.5 46.5 890.5 68.5C845.5 68.5 800.5 68.5 755.5 68.5C755.5 85.8333 755.5 103.167 755.5 120.5C793.833 120.5 832.167 120.5 870.5 120.5C870.5 142.167 870.5 163.833 870.5 185.5C832.167 185.5 793.833 185.5 755.5 185.5C755.5 218.167 755.5 250.833 755.5 283.5C733.5 283.5 711.5 283.5 689.5 283.5C689.5 189.833 689.5 96.1667 689.5 2.5Z"
            fill="#C1B7EE" />
        <path fill-rule="evenodd" clip-rule="evenodd"
            d="M1028.5 105.501C1033.87 105.173 1039.21 105.506 1044.5 106.501C1053.84 121.172 1062.67 136.172 1071 151.501C1071.5 136.171 1071.67 120.838 1071.5 105.501C1076.5 105.501 1081.5 105.501 1086.5 105.501C1086.5 129.168 1086.5 152.834 1086.5 176.501C1081.13 176.829 1075.79 176.496 1070.5 175.501C1061.47 160.966 1052.63 146.299 1044 131.501C1043.5 146.497 1043.33 161.497 1043.5 176.501C1038.5 176.501 1033.5 176.501 1028.5 176.501C1028.5 152.834 1028.5 129.168 1028.5 105.501Z"
            fill="#C1B7EE" />
        <path fill-rule="evenodd" clip-rule="evenodd"
            d="M1095.5 105.5C1113.17 105.5 1130.83 105.5 1148.5 105.5C1148.5 109.833 1148.5 114.167 1148.5 118.5C1136.17 118.5 1123.83 118.5 1111.5 118.5C1111.5 123.167 1111.5 127.833 1111.5 132.5C1122.5 132.5 1133.5 132.5 1144.5 132.5C1144.5 136.833 1144.5 141.167 1144.5 145.5C1133.5 145.5 1122.5 145.5 1111.5 145.5C1111.5 151.5 1111.5 157.5 1111.5 163.5C1123.83 163.5 1136.17 163.5 1148.5 163.5C1148.5 167.833 1148.5 172.167 1148.5 176.5C1130.83 176.5 1113.17 176.5 1095.5 176.5C1095.5 152.833 1095.5 129.167 1095.5 105.5Z"
            fill="#C1B7EE" />
        <path fill-rule="evenodd" clip-rule="evenodd"
            d="M1151.5 106.5C1156.68 105.185 1162.01 105.185 1167.5 106.5C1171.96 121.676 1175.79 137.009 1179 152.5C1182.98 136.93 1186.48 121.264 1189.5 105.5C1194.54 105.173 1199.54 105.506 1204.5 106.5C1208.19 122.113 1211.69 137.78 1215 153.5C1218.84 137.486 1222.67 121.486 1226.5 105.5C1231.84 105.334 1237.18 105.501 1242.5 106C1235.29 129.341 1228.62 152.841 1222.5 176.5C1217.5 176.5 1212.5 176.5 1207.5 176.5C1204.07 160.833 1200.57 145.167 1197 129.5C1193.82 144.916 1190.32 160.25 1186.5 175.5C1181.62 176.802 1176.78 176.802 1172 175.5C1165.61 152.245 1158.77 129.245 1151.5 106.5Z"
            fill="#C1B7EE" />
        <path fill-rule="evenodd" clip-rule="evenodd"
            d="M1263.5 105.5C1281.17 105.5 1298.83 105.5 1316.5 105.5C1316.67 110.179 1316.5 114.845 1316 119.5C1304.17 134 1292.33 148.5 1280.5 163C1292.83 163.5 1305.16 163.667 1317.5 163.5C1317.5 167.833 1317.5 172.167 1317.5 176.5C1298.5 176.5 1279.5 176.5 1260.5 176.5C1260.33 172.486 1260.5 168.486 1261 164.5C1273.29 149.425 1285.45 134.258 1297.5 119C1286.17 118.5 1274.84 118.333 1263.5 118.5C1263.5 114.167 1263.5 109.833 1263.5 105.5Z"
            fill="#C1B7EE" />
        <path fill-rule="evenodd" clip-rule="evenodd"
            d="M1324.5 105.5C1342.17 105.5 1359.83 105.5 1377.5 105.5C1377.5 109.833 1377.5 114.167 1377.5 118.5C1365.17 118.5 1352.83 118.5 1340.5 118.5C1340.5 123.167 1340.5 127.833 1340.5 132.5C1351.5 132.5 1362.5 132.5 1373.5 132.5C1373.5 136.833 1373.5 141.167 1373.5 145.5C1362.5 145.5 1351.5 145.5 1340.5 145.5C1340.5 151.5 1340.5 157.5 1340.5 163.5C1353.17 163.5 1365.83 163.5 1378.5 163.5C1378.5 167.833 1378.5 172.167 1378.5 176.5C1360.5 176.5 1342.5 176.5 1324.5 176.5C1324.5 152.833 1324.5 129.167 1324.5 105.5Z"
            fill="#C1B7EE" />
        <path fill-rule="evenodd" clip-rule="evenodd"
            d="M1405.5 105.501C1411.09 105.194 1416.59 105.528 1422 106.501C1430.07 129.539 1438.23 152.539 1446.5 175.501C1441.2 176.664 1435.86 176.83 1430.5 176.001C1428.99 171.285 1427.32 166.618 1425.5 162.001C1417.5 161.334 1409.5 161.334 1401.5 162.001C1399.99 166.717 1398.32 171.384 1396.5 176.001C1391.51 176.5 1386.51 176.667 1381.5 176.501C1389.1 152.698 1397.1 129.031 1405.5 105.501ZM1412.5 123.501C1413.59 123.621 1414.25 124.288 1414.5 125.501C1416.84 133.519 1419.17 141.519 1421.5 149.501C1416.17 149.501 1410.83 149.501 1405.5 149.501C1407.83 140.834 1410.17 132.168 1412.5 123.501Z"
            fill="#C1B7EE" />
        <path fill-rule="evenodd" clip-rule="evenodd"
            d="M1451.5 105.5C1456.5 105.5 1461.5 105.5 1466.5 105.5C1466.5 124.833 1466.5 144.167 1466.5 163.5C1477.5 163.5 1488.5 163.5 1499.5 163.5C1499.5 167.833 1499.5 172.167 1499.5 176.5C1483.5 176.5 1467.5 176.5 1451.5 176.5C1451.5 152.833 1451.5 129.167 1451.5 105.5Z"
            fill="#C1B7EE" />
        <path fill-rule="evenodd" clip-rule="evenodd"
            d="M1525.5 105.5C1531.17 105.5 1536.83 105.5 1542.5 105.5C1550.29 128.873 1558.29 152.206 1566.5 175.5C1561.17 176.833 1555.83 176.833 1550.5 175.5C1548.55 170.996 1547.22 166.329 1546.5 161.5C1538.14 161.169 1529.81 161.502 1521.5 162.5C1519.85 167.091 1518.52 171.757 1517.5 176.5C1512.13 176.828 1506.79 176.495 1501.5 175.5C1509.71 152.206 1517.71 128.873 1525.5 105.5ZM1533.5 122.5C1536.61 131.271 1539.28 140.271 1541.5 149.5C1536.13 149.828 1530.79 149.495 1525.5 148.5C1528.37 139.882 1531.04 131.215 1533.5 122.5Z"
            fill="#C1B7EE" />
        <path fill-rule="evenodd" clip-rule="evenodd"
            d="M1571.5 105.501C1576.87 105.173 1582.21 105.506 1587.5 106.501C1596.84 121.172 1605.67 136.172 1614 151.501C1614.5 136.171 1614.67 120.838 1614.5 105.501C1619.5 105.501 1624.5 105.501 1629.5 105.501C1629.5 129.168 1629.5 152.834 1629.5 176.501C1624.13 176.829 1618.79 176.496 1613.5 175.501C1604.42 161 1595.58 146.334 1587 131.501C1586.5 146.497 1586.33 161.497 1586.5 176.501C1581.5 176.501 1576.5 176.501 1571.5 176.501C1571.5 152.834 1571.5 129.168 1571.5 105.501Z"
            fill="#C1B7EE" />
        <path fill-rule="evenodd" clip-rule="evenodd"
            d="M1638.5 105.5C1650.5 105.333 1662.5 105.5 1674.5 106C1684.08 108.583 1690.92 114.416 1695 123.5C1700.28 137.649 1699.28 151.315 1692 164.5C1687.15 170.506 1680.98 174.339 1673.5 176C1661.84 176.5 1650.17 176.667 1638.5 176.5C1638.5 152.833 1638.5 129.167 1638.5 105.5ZM1654.5 118.5C1673.16 115.332 1682.49 123.165 1682.5 142C1683.67 153.127 1679 160.127 1668.5 163C1663.85 163.499 1659.18 163.666 1654.5 163.5C1654.5 148.5 1654.5 133.5 1654.5 118.5Z"
            fill="#C1B7EE" />
        <path fill-rule="evenodd" clip-rule="evenodd"
            d="M1332.5 208.499C1346.46 206.09 1357.63 210.423 1366 221.499C1367.76 224.607 1368.59 227.94 1368.5 231.499C1365.48 231.664 1362.48 231.497 1359.5 230.999C1353.45 218.206 1343.79 214.206 1330.5 218.999C1322.91 223.269 1318.41 229.769 1317 238.499C1314.61 251.145 1318.11 261.645 1327.5 269.999C1337.9 275.541 1347.4 274.374 1356 266.499C1358.29 262.812 1359.45 258.812 1359.5 254.499C1362.83 254.499 1366.17 254.499 1369.5 254.499C1369.34 269.483 1362.01 278.649 1347.5 281.999C1325.69 284.856 1312.19 275.69 1307 254.499C1304.36 239.876 1307.86 227.043 1317.5 215.999C1322.05 212.393 1327.05 209.893 1332.5 208.499Z"
            fill="#C1B7EE" />
        <path opacity="0.882" fill-rule="evenodd" clip-rule="evenodd"
            d="M1029.5 209.5C1045.83 209.5 1062.17 209.5 1078.5 209.5C1078.5 212.5 1078.5 215.5 1078.5 218.5C1065.5 218.5 1052.5 218.5 1039.5 218.5C1039.5 225.5 1039.5 232.5 1039.5 239.5C1050.17 239.5 1060.83 239.5 1071.5 239.5C1071.5 242.5 1071.5 245.5 1071.5 248.5C1060.83 248.5 1050.17 248.5 1039.5 248.5C1039.5 259.5 1039.5 270.5 1039.5 281.5C1036.17 281.5 1032.83 281.5 1029.5 281.5C1029.5 257.5 1029.5 233.5 1029.5 209.5Z"
            fill="#C1B7EE" />
        <path fill-rule="evenodd" clip-rule="evenodd"
            d="M1086.5 209.5C1089.83 209.5 1093.17 209.5 1096.5 209.5C1096.5 233.5 1096.5 257.5 1096.5 281.5C1093.17 281.5 1089.83 281.5 1086.5 281.5C1086.5 257.5 1086.5 233.5 1086.5 209.5Z"
            fill="#C1B7EE" />
        <path fill-rule="evenodd" clip-rule="evenodd"
            d="M1108.5 209.5C1112.23 209.177 1115.89 209.511 1119.5 210.5C1131.83 228.493 1143.67 246.826 1155 265.5C1155.5 246.836 1155.67 228.17 1155.5 209.5C1158.5 209.5 1161.5 209.5 1164.5 209.5C1164.5 233.5 1164.5 257.5 1164.5 281.5C1161.1 281.82 1157.77 281.487 1154.5 280.5C1142.42 262.671 1130.58 244.671 1119 226.5C1118.5 244.83 1118.33 263.164 1118.5 281.5C1115.17 281.5 1111.83 281.5 1108.5 281.5C1108.5 257.5 1108.5 233.5 1108.5 209.5Z"
            fill="#C1B7EE" />
        <path fill-rule="evenodd" clip-rule="evenodd"
            d="M1197.5 209.5C1201.67 208.956 1205.51 209.623 1209 211.5C1217.2 234.616 1225.7 257.616 1234.5 280.5C1230.83 281.833 1227.17 281.833 1223.5 280.5C1220.87 273.573 1218.53 266.573 1216.5 259.5C1207.49 259.334 1198.49 259.5 1189.5 260C1186.74 266.777 1184.07 273.61 1181.5 280.5C1178.23 281.487 1174.9 281.82 1171.5 281.5C1179.97 257.431 1188.63 233.431 1197.5 209.5ZM1202.5 220.5C1205.84 230.688 1209.51 240.855 1213.5 251C1206.51 251.5 1199.51 251.666 1192.5 251.5C1195.83 241.178 1199.16 230.845 1202.5 220.5Z"
            fill="#C1B7EE" />
        <path fill-rule="evenodd" clip-rule="evenodd"
            d="M1240.5 209.5C1244.23 209.177 1247.89 209.511 1251.5 210.5C1263.53 228.699 1275.36 247.032 1287 265.5C1287.5 246.836 1287.67 228.17 1287.5 209.5C1290.5 209.5 1293.5 209.5 1296.5 209.5C1296.5 233.5 1296.5 257.5 1296.5 281.5C1292.89 281.789 1289.39 281.456 1286 280.5C1274.33 262.5 1262.67 244.5 1251 226.5C1250.5 244.83 1250.33 263.164 1250.5 281.5C1247.17 281.5 1243.83 281.5 1240.5 281.5C1240.5 257.5 1240.5 233.5 1240.5 209.5Z"
            fill="#C1B7EE" />
        <path fill-rule="evenodd" clip-rule="evenodd"
            d="M1378.5 209.5C1395.5 209.5 1412.5 209.5 1429.5 209.5C1429.5 212.5 1429.5 215.5 1429.5 218.5C1415.83 218.5 1402.17 218.5 1388.5 218.5C1388.5 225.5 1388.5 232.5 1388.5 239.5C1400.83 239.5 1413.17 239.5 1425.5 239.5C1425.5 242.5 1425.5 245.5 1425.5 248.5C1413.17 248.5 1400.83 248.5 1388.5 248.5C1388.5 256.5 1388.5 264.5 1388.5 272.5C1402.5 272.5 1416.5 272.5 1430.5 272.5C1430.5 275.5 1430.5 278.5 1430.5 281.5C1413.17 281.5 1395.83 281.5 1378.5 281.5C1378.5 257.5 1378.5 233.5 1378.5 209.5Z"
            fill="#C1B7EE" />
    </g>
    <defs>
        <clipPath id="clip0_5808_15865">
            <rect width="1706" height="289" fill="white" />
        </clipPath>
    </defs>
</svg>