<svg width="151" height="53" viewBox="0 0 151 53" fill="none" xmlns="http://www.w3.org/2000/svg">
<g clip-path="url(#clip0_2301_18816)">
<path fill-rule="evenodd" clip-rule="evenodd" d="M145.001 14.0818C145.981 12.5931 146.504 10.8429 146.504 9.0525C146.504 6.65165 145.565 4.34909 143.893 2.65142C142.22 0.953746 139.953 0 137.588 0C135.825 0 134.101 0.530919 132.635 1.52562C131.169 2.52032 130.025 3.93413 129.351 5.58825C128.676 7.24239 128.499 9.06253 128.843 10.8185C129.188 12.5746 130.037 14.1876 131.284 15.4536C132.531 16.7196 134.119 17.5818 135.849 17.931C137.578 18.2803 139.371 18.101 141 17.4159C142.629 16.7308 144.022 15.5705 145.001 14.0818ZM127.004 12.2246C127.004 13.6577 126.585 15.0585 125.801 16.2498C125.017 17.4412 123.902 18.3695 122.597 18.9173C121.293 19.465 119.858 19.6077 118.474 19.3272C117.09 19.0466 115.819 18.3555 114.822 17.3413C113.825 16.327 113.146 15.0353 112.873 13.6295C112.599 12.2237 112.742 10.767 113.284 9.44382C113.826 8.12065 114.742 6.99038 115.917 6.19616C117.092 5.40192 118.472 4.97938 119.884 4.982C120.82 4.982 121.748 5.16934 122.613 5.53332C123.479 5.8973 124.265 6.43078 124.928 7.10335C125.59 7.77586 126.116 8.57427 126.474 9.45299C126.833 10.3317 127.017 11.2735 127.017 12.2246H127.004ZM110.25 17.6956C110.878 16.7424 111.212 15.6217 111.212 14.4752H111.226C111.226 13.7142 111.079 12.9605 110.792 12.2574C110.505 11.5542 110.085 10.9153 109.555 10.3771C109.025 9.83903 108.396 9.41221 107.703 9.12119C107.011 8.83018 106.268 8.68058 105.519 8.68104C104.39 8.6784 103.285 9.01601 102.345 9.65109C101.405 10.2862 100.671 11.1902 100.237 12.2487C99.8032 13.3071 99.6885 14.4726 99.9074 15.5974C100.126 16.7222 100.668 17.7558 101.466 18.5675C102.263 19.3792 103.281 19.9323 104.388 20.157C105.495 20.3816 106.643 20.2677 107.687 19.8295C108.73 19.3913 109.622 18.6487 110.25 17.6956ZM101.427 24.4685L99.9158 25.9839C99.0242 27.2022 98.5337 28.6873 98.5337 30.224V31.6147C98.6679 31.5269 98.8112 31.4534 98.9617 31.3956C99.2619 31.2801 99.583 31.2301 99.9035 31.249C100.224 31.2678 100.537 31.3551 100.822 31.5051C101.108 31.6552 101.359 31.8646 101.559 32.1196L103.413 33.9991L109.482 27.8436C109.849 27.4744 110.325 27.2439 110.833 27.1853C110.678 27.6286 110.555 28.0834 110.462 28.5464C110.095 28.6531 109.758 28.8522 109.482 29.1297L103.413 35.2851L101.559 33.4024C101.356 33.1531 101.105 32.9496 100.82 32.8048C100.535 32.6601 100.224 32.5773 99.9061 32.5618C99.5876 32.5463 99.2704 32.5985 98.9734 32.7149C98.6764 32.8313 98.4067 33.0095 98.1814 33.2379C97.956 33.4663 97.7801 33.7401 97.6655 34.0415C97.5502 34.3429 97.4988 34.6654 97.5137 34.9883C97.5287 35.3111 97.6095 35.6273 97.7521 35.9165C97.8941 36.2056 98.0947 36.4614 98.3396 36.6674L101.797 40.1777C102.225 40.6078 102.803 40.8491 103.405 40.8491C104.007 40.8491 104.585 40.6078 105.013 40.1777L105.029 40.1611L111.9 33.2004C112.221 33.0821 112.561 33.0235 112.903 33.0276C113.281 33.0322 113.655 33.1134 114.002 33.2666C114.349 33.4197 114.663 33.6417 114.924 33.9195L117.243 36.2729L124.83 28.5794C125.191 28.2141 125.637 27.957 126.122 27.8284C126.14 27.7793 126.159 27.7302 126.177 27.6812C126.603 26.5594 127.187 25.5085 127.907 24.5604C127.629 24.1815 127.322 23.8212 126.988 23.4828C125.152 21.6178 122.66 20.5702 120.063 20.5702C117.465 20.5702 114.974 21.6178 113.137 23.4828C112.364 24.2675 111.734 25.1699 111.263 26.1485C111.031 25.8114 110.768 25.4934 110.478 25.1985C109.166 23.8661 107.386 23.1179 105.531 23.1179C104.048 23.1179 102.613 23.596 101.427 24.4685ZM148.681 29.3689C148.567 28.9004 148.423 28.4386 148.252 27.9863C147.701 26.5367 146.868 25.2146 145.804 24.0983C144.74 22.982 143.466 22.0946 142.057 21.4885C140.649 20.8824 139.135 20.5702 137.606 20.5702C136.076 20.5702 134.562 20.8824 133.153 21.4885C131.745 22.0946 130.47 22.982 129.407 24.0983C129.045 24.4774 128.71 24.8802 128.405 25.3036C127.866 26.0493 127.416 26.859 127.066 27.716L127.055 27.7426C127.022 27.8235 126.99 27.9047 126.96 27.9863C126.409 29.4359 126.151 30.9831 126.2 32.5361L126.201 32.5499V36.5103V36.5102V36.9454L127.72 35.4056C128.098 35.2627 128.501 35.1851 128.913 35.1798C129.839 35.1678 130.733 35.5232 131.405 36.1702L134.301 39.1104L143.788 29.4977C144.635 28.6378 145.473 28.6378 146.311 28.6378C147.094 28.6378 148.018 28.7977 148.681 29.3689ZM148.819 31.5031C148.151 30.8276 147.246 30.4483 146.304 30.4483C145.36 30.4483 144.456 30.8276 143.788 31.5031L134.301 41.1157L131.405 38.1789C131.075 37.8435 130.684 37.5773 130.253 37.3954C129.822 37.2136 129.36 37.1197 128.894 37.1191C128.427 37.1185 127.965 37.2111 127.534 37.3919C127.103 37.5725 126.711 37.8378 126.381 38.1723C126.05 38.5068 125.788 38.9041 125.609 39.3415C125.43 39.7789 125.337 40.2478 125.337 40.7216C125.336 41.1953 125.427 41.6645 125.605 42.1024C125.783 42.5402 126.045 42.9383 126.374 43.2736L131.793 48.7628C132.123 49.0978 132.515 49.3636 132.946 49.545C133.377 49.7263 133.839 49.8196 134.305 49.8196C134.772 49.8196 135.234 49.7263 135.665 49.545C136.096 49.3636 136.488 49.0978 136.818 48.7628L136.844 48.733L148.819 36.5977C149.149 36.2632 149.41 35.8658 149.589 35.4284C149.767 34.991 149.859 34.5222 149.859 34.0488C149.859 33.5753 149.767 33.1065 149.589 32.6691C149.41 32.2317 149.149 31.8344 148.819 31.4998V31.5031ZM125.363 32.5638V37.7953L119.277 43.9664C119.257 43.973 119.257 43.9896 119.257 43.9896C118.723 44.5305 118 44.8342 117.246 44.8342C116.492 44.8342 115.769 44.5305 115.234 43.9896L110.899 39.6042C110.626 39.338 110.408 39.0191 110.258 38.6663C110.108 38.3134 110.029 37.9337 110.026 37.5494C110.022 37.1651 110.094 36.784 110.237 36.4283C110.381 36.0726 110.593 35.7496 110.861 35.4782C111.129 35.2067 111.448 34.9924 111.798 34.8477C112.148 34.7029 112.524 34.6307 112.903 34.6353C113.281 34.6398 113.655 34.7211 114.002 34.8742C114.349 35.0274 114.663 35.2494 114.924 35.5271L117.243 37.8773L124.83 30.1838C125.06 29.9515 125.326 29.7631 125.613 29.6239C125.415 30.588 125.331 31.5748 125.363 32.5638ZM2.16124 5.0218C0.734563 5.0218 0 5.95655 0 7.75316V22.1125H2.38977V7.7067L6.10175 20.2563C6.54898 21.8175 7.08119 22.308 8.38704 22.308C9.49703 22.308 10.0423 21.7711 10.4764 20.2563L14.1754 7.7067V22.1125H16.5521V7.75316C16.5521 5.88694 15.7947 5.0218 14.1623 5.0218C12.801 5.0218 12.3243 5.41957 11.8215 7.07689L8.23033 19.4143L4.71098 7.07689C4.25066 5.39636 3.76748 5.0218 2.16124 5.0218ZM20.2446 20.9026C21.0706 21.781 22.0141 22.1125 23.5746 22.1125H29.9865V19.6496H22.9119C22.5952 19.5778 22.3019 19.4249 22.0598 19.2054C21.9142 19.0721 21.7967 18.9103 21.7143 18.7298C21.6318 18.5492 21.5861 18.3536 21.5798 18.1547V14.8665H30.0322V12.4169H21.5798V9.54637C21.5798 8.49891 22.223 7.72993 23.049 7.72993H30.0289V5.28034H24.0121C22.2198 5.28034 21.5309 5.41956 20.7278 5.97974C19.67 6.72556 19.1869 7.84594 19.1869 9.48011V17.5879C19.1869 19.1988 19.4187 20.0242 20.2446 20.9026ZM32.6602 7.75316C32.6602 5.95655 33.3948 5.0218 34.8182 5.0218C36.4277 5.0218 36.9108 5.39636 37.3679 7.07689L40.8775 19.4143L44.4687 7.07689C44.9714 5.41957 45.4481 5.0218 46.8127 5.0218C48.4451 5.0218 49.1993 5.88694 49.1993 7.75316V22.1125H46.8127V7.7067L43.1334 20.2563C42.6992 21.7711 42.154 22.308 41.044 22.308C39.7381 22.308 39.2059 21.8175 38.7586 20.2563L35.0467 7.7067V22.1125H32.6602V7.75316ZM59.6366 19.6496H54.2368V14.9692H59.6823C60.1433 14.9834 60.5838 15.1658 60.9229 15.483C61.0483 15.5778 61.1522 15.6987 61.2277 15.8376C61.3032 15.9766 61.3484 16.1303 61.3604 16.2885V17.8763C61.3499 18.3393 61.1656 18.7807 60.8451 19.1103C60.5248 19.4399 60.0925 19.6329 59.6366 19.6496ZM59.7052 12.5097H54.2368V7.72993H59.6823C60.6258 7.72993 61.3604 8.3829 61.3604 9.29112V10.9021C61.3604 11.8799 60.7172 12.5097 59.7052 12.5097ZM60.2341 5.28033H51.8503V22.086H59.9403C62.0982 22.086 63.7535 20.2165 63.7535 17.747V16.1592C63.7528 15.7555 63.673 15.356 63.5189 14.9838C63.3647 14.6117 63.1393 14.2743 62.8557 13.9914C62.6876 13.844 62.5023 13.7182 62.3039 13.6168C62.6162 13.4363 62.8879 13.1915 63.1015 12.8981C63.3151 12.6047 63.466 12.2692 63.5445 11.9131C63.665 11.5693 63.7279 11.2073 63.7306 10.8424V8.82378C63.6809 7.92051 63.3363 7.05973 62.7512 6.3775C62.4463 6.00634 62.0594 5.71351 61.6221 5.52285C61.1846 5.33219 60.7091 5.2491 60.2341 5.28033ZM70.5865 22.1125C69.0259 22.1125 68.0821 21.781 67.2562 20.9026C66.4304 20.0242 66.1985 19.1988 66.1985 17.5879V9.48011C66.1985 7.84594 66.6818 6.72556 67.7395 5.97974C68.5426 5.41956 69.2317 5.28034 71.0242 5.28034H77.0438V7.72993H70.0706C69.2415 7.72993 68.598 8.49891 68.598 9.54637V12.4169H77.0535V14.8665H68.598V18.1547C68.6045 18.354 68.6501 18.5499 68.7335 18.7306C68.8162 18.9112 68.9347 19.0728 69.0813 19.2054C69.3223 19.4247 69.6147 19.5776 69.93 19.6496H77.0079V22.1125H70.5865ZM88.4577 5.28475H80.0933V22.1169H82.483V7.74761H88.0662C88.9865 7.74761 89.5578 8.35419 89.5578 9.3088V11.175C89.5578 11.9208 88.8726 12.5274 88.02 12.5274H84.3901C83.3096 12.5274 82.5977 13.2036 82.5977 14.2544C82.5853 14.4078 82.6061 14.5621 82.6582 14.7068C82.7097 14.8516 82.7918 14.9832 82.8979 15.093L88.8726 22.1169H92.0654L85.9768 14.9571L88.7775 14.9803C90.4559 14.9803 91.9247 13.4191 91.9247 11.7153V8.79837C91.9247 7.72768 91.7651 7.23711 91.1444 6.53771C90.8187 6.13705 90.4077 5.8163 89.942 5.59935C89.477 5.38241 88.9696 5.27487 88.4577 5.28475ZM28.8275 43.499C26.8066 43.499 25.1971 41.6792 25.1971 39.465V30.8467C25.1971 28.374 26.7381 26.6934 28.9875 26.6934H35.9805V29.143H29.3205C28.1942 29.143 27.5967 29.7496 27.5967 30.8932V39.2661C27.5897 39.5001 27.6291 39.7331 27.7127 39.9512C27.7963 40.1693 27.9222 40.3681 28.0831 40.5358C28.244 40.7035 28.4364 40.8365 28.649 40.9271C28.8616 41.0176 29.09 41.0637 29.3205 41.0627H35.9348V43.5123L28.8275 43.499ZM40.8025 26.6801H38.4159V43.499H40.8025V36.3624H47.9946V43.499H50.4072V26.6801H47.9946V33.9129H40.8025V26.6801ZM57.3936 43.499C55.8298 43.499 54.8896 43.1476 54.0636 42.2858C53.2377 41.424 53.0059 40.5821 53.0059 38.9711V30.8799C53.0059 29.2457 53.489 28.1287 54.5468 27.3796C55.35 26.8227 56.0388 26.6801 57.8311 26.6801H63.8512V29.1297H56.8746C56.0486 29.1297 55.4054 29.8987 55.4054 30.9495V33.82H63.8611V36.2696H55.4054V39.5578C55.4116 39.7566 55.4576 39.952 55.5407 40.1321C55.6238 40.3123 55.7421 40.4732 55.8886 40.6053C56.1283 40.8264 56.421 40.9796 56.7375 41.0494H63.8121V43.499H57.3936ZM66.476 39.465C66.476 41.6792 68.0821 43.499 70.1065 43.499L77.204 43.5123V41.0627H70.5865C70.3559 41.0633 70.128 41.0168 69.9163 40.9261C69.7039 40.8354 69.5118 40.7023 69.3509 40.5346C69.1907 40.367 69.065 40.1683 68.9816 39.9504C68.8982 39.7325 68.8592 39.4998 68.8657 39.2661V30.8932C68.8657 29.7496 69.4636 29.143 70.5865 29.143H77.2496V26.6934H70.2667C68.0137 26.6934 66.476 28.374 66.476 30.8467V39.465ZM83.2308 36.6973C82.5775 35.8818 82.2186 35.2289 82.2186 34.8079C82.2564 34.3844 82.4257 33.984 82.7019 33.6643C82.7475 33.598 82.9565 33.3328 83.3545 32.8721L88.317 26.6669H91.4186L84.8467 34.8543L91.7612 43.509L88.6596 43.4858L83.2308 36.6973ZM79.6914 26.6669H82.0812V43.4858H79.6914V26.6669Z" fill="white" fill-opacity="0.6"/>
<path fill-rule="evenodd" clip-rule="evenodd" d="M19.5707 49.1318H21.0773V50.3602H19.5707C19.4884 50.3612 19.4068 50.3459 19.3306 50.3151C19.2542 50.2844 19.1848 50.2389 19.1261 50.1812C19.0691 50.1247 19.0239 50.0574 18.9932 49.9832C18.9624 49.9089 18.9467 49.8294 18.9471 49.7491C18.9449 49.6685 18.9598 49.5884 18.9906 49.514C19.0214 49.4396 19.0676 49.3724 19.1261 49.317C19.1836 49.2574 19.2527 49.2101 19.3292 49.1783C19.4057 49.1464 19.4878 49.1306 19.5707 49.1318ZM19.0582 50.9343C19.2202 51.0034 19.3945 51.0391 19.5707 51.0393H21.4231C21.513 51.0383 21.5992 51.003 21.6639 50.9405C21.6964 50.9083 21.722 50.8698 21.739 50.8273C21.756 50.7848 21.7641 50.7393 21.7627 50.6936V48.1318C21.7624 47.9617 21.7267 47.7934 21.6577 47.638C21.5929 47.4836 21.4961 47.3448 21.3736 47.2306C21.2552 47.1118 21.1147 47.0175 20.96 46.9527C20.8003 46.8832 20.6279 46.8474 20.4536 46.8478H18.8421C18.7963 46.8464 18.7508 46.8545 18.7083 46.8715C18.6658 46.8885 18.6273 46.9141 18.5951 46.9466C18.5618 46.9758 18.5352 47.0119 18.517 47.0524C18.4989 47.0929 18.4898 47.1368 18.4901 47.1812C18.4898 47.2255 18.4989 47.2694 18.517 47.3099C18.5352 47.3504 18.5618 47.3865 18.5951 47.4157C18.6273 47.4482 18.6658 47.4738 18.7083 47.4908C18.7508 47.5078 18.7963 47.5159 18.8421 47.5145H20.4536C20.5356 47.5127 20.6171 47.5282 20.6927 47.5601C20.7683 47.592 20.8362 47.6396 20.8921 47.6997C20.9511 47.755 20.998 47.822 21.0299 47.8964C21.0618 47.9708 21.0779 48.0509 21.0773 48.1318V48.4589H19.5707C19.395 48.4572 19.2207 48.4908 19.0582 48.5577C18.9062 48.6241 18.768 48.7183 18.6507 48.8355C18.5281 48.952 18.4314 49.0929 18.3667 49.2491C18.297 49.4066 18.2613 49.5769 18.2617 49.7491C18.262 49.9232 18.2977 50.0954 18.3667 50.2553C18.4332 50.4069 18.5298 50.5434 18.6507 50.6565C18.768 50.7737 18.9062 50.868 19.0582 50.9343Z" fill="white" fill-opacity="0.6"/>
<path d="M27.3632 47.7057C27.4206 47.7606 27.4661 47.8268 27.4969 47.9001C27.5277 47.9734 27.5432 48.0522 27.5422 48.1316V50.6934C27.5408 50.7392 27.5489 50.7847 27.5659 50.8272C27.5829 50.8696 27.6085 50.9082 27.641 50.9404C27.7076 51.0038 27.796 51.0391 27.888 51.0391C27.9779 51.0381 28.0641 51.0028 28.1288 50.9404C28.1614 50.9082 28.1869 50.8696 28.2039 50.8272C28.2209 50.7847 28.229 50.7392 28.2276 50.6934V48.1316C28.2274 47.9615 28.1916 47.7933 28.1227 47.6378C28.0623 47.4841 27.9696 47.3452 27.8509 47.2304C27.7303 47.1115 27.5877 47.0172 27.4311 46.9526C27.2736 46.883 27.1032 46.8472 26.9309 46.8477H26.0233C25.8491 46.848 25.6769 46.8837 25.517 46.9526C25.3631 47.0188 25.2228 47.1129 25.1033 47.2304C24.9847 47.3465 24.8903 47.485 24.8254 47.6378C24.7584 47.7937 24.7247 47.962 24.7266 48.1316V50.6934C24.7266 50.7853 24.762 50.8738 24.8254 50.9404C24.8901 51.0028 24.9763 51.0381 25.0662 51.0391C25.1582 51.0391 25.2466 51.0038 25.3132 50.9404C25.3457 50.9082 25.3713 50.8696 25.3883 50.8272C25.4053 50.7847 25.4134 50.7392 25.412 50.6934V48.1316C25.4111 48.0522 25.4265 47.9734 25.4573 47.9001C25.4881 47.8268 25.5336 47.7606 25.5911 47.7057C25.6464 47.6461 25.7132 47.5985 25.7875 47.5656C25.8618 47.5327 25.942 47.5153 26.0233 47.5144H26.9309C27.0122 47.5153 27.0925 47.5327 27.1667 47.5656C27.241 47.5985 27.3079 47.6461 27.3632 47.7057Z" fill="white" fill-opacity="0.6"/>
<path fill-rule="evenodd" clip-rule="evenodd" d="M31.6304 47.6995C31.6894 47.7549 31.7363 47.8219 31.7682 47.8962C31.8 47.9706 31.8162 48.0507 31.8156 48.1316V48.6316H29.6112V48.1316C29.6091 48.051 29.6239 47.971 29.6548 47.8965C29.6856 47.8221 29.7318 47.755 29.7903 47.6995C29.8471 47.6389 29.9161 47.5912 29.9927 47.5592C30.0693 47.5273 30.1519 47.512 30.2349 47.5144H31.192C31.274 47.5125 31.3554 47.528 31.431 47.56C31.5066 47.5919 31.5745 47.6395 31.6304 47.6995ZM29.7162 50.9341C29.8804 51.0032 30.0568 51.0389 30.2349 51.0391H32.0935C32.1853 51.0385 32.2735 51.0032 32.3404 50.9403C32.3729 50.9081 32.3985 50.8696 32.4155 50.8272C32.4325 50.7847 32.4406 50.7391 32.4392 50.6934C32.4367 50.6056 32.4015 50.522 32.3404 50.4588C32.2735 50.396 32.1853 50.3607 32.0935 50.3601H30.2349C30.1525 50.3621 30.0706 50.3472 29.9941 50.3165C29.9177 50.2857 29.8483 50.2396 29.7903 50.1811C29.7321 50.1254 29.6862 50.0583 29.6553 49.9838C29.6245 49.9095 29.6095 49.8295 29.6112 49.749V49.2983H32.1613C32.2476 49.2998 32.3313 49.269 32.396 49.2119H32.4022C32.4348 49.1811 32.4606 49.1437 32.4776 49.1022C32.4946 49.0607 32.5026 49.016 32.5009 48.9711V48.1316C32.5007 47.9615 32.465 47.7933 32.396 47.6378C32.3311 47.4835 32.2343 47.3446 32.112 47.2304C31.9936 47.1117 31.853 47.0173 31.6982 46.9526C31.5386 46.883 31.3662 46.8473 31.192 46.8477H30.2349C30.0568 46.8478 29.8804 46.8835 29.7162 46.9526C29.5642 47.0189 29.426 47.1131 29.3087 47.2304C29.1901 47.3479 29.0938 47.4859 29.0247 47.6378C28.9576 47.7937 28.924 47.962 28.9259 48.1316V49.749C28.924 49.9226 28.9577 50.0949 29.0247 50.2551H29.0309C29.0972 50.4052 29.1915 50.5414 29.3087 50.6564C29.426 50.7736 29.5642 50.8678 29.7162 50.9341Z" fill="white" fill-opacity="0.6"/>
<path d="M33.9087 50.9429C34.0677 51.0149 34.2406 51.0508 34.415 51.0479H35.3227C35.4952 51.0513 35.6662 51.0155 35.8228 50.9429C35.9779 50.8782 36.1201 50.7862 36.2427 50.6713C36.3601 50.5554 36.4525 50.4168 36.5144 50.2639C36.5828 50.1061 36.6185 49.9359 36.6193 49.7639V47.1898C36.6197 47.1454 36.6105 47.1015 36.5924 47.061C36.5743 47.0206 36.5477 46.9845 36.5144 46.9552C36.4838 46.9239 36.4474 46.899 36.407 46.8821C36.3667 46.8651 36.3235 46.8564 36.2797 46.8564C36.1878 46.8564 36.0994 46.8918 36.0327 46.9552C36.0002 46.9848 35.9746 47.0211 35.9575 47.0616C35.9404 47.1021 35.9324 47.1458 35.934 47.1898V49.7577C35.9343 49.838 35.9186 49.9176 35.8879 49.9918C35.8571 50.0659 35.8119 50.1333 35.7549 50.1899C35.699 50.2477 35.6318 50.2935 35.5574 50.3243C35.4831 50.3551 35.4032 50.3703 35.3227 50.3688H34.415C34.3346 50.3703 34.2547 50.3551 34.1803 50.3243C34.106 50.2935 34.0387 50.2477 33.9828 50.1899C33.9257 50.1333 33.8805 50.0659 33.8498 49.9918C33.8191 49.9176 33.8034 49.838 33.8037 49.7577V47.1898C33.8053 47.1458 33.7973 47.1021 33.7802 47.0616C33.7632 47.0211 33.7375 46.9848 33.7049 46.9552C33.6384 46.8918 33.5499 46.8564 33.458 46.8564C33.368 46.8574 33.2818 46.8927 33.2172 46.9552C33.1847 46.9848 33.1589 47.0211 33.1419 47.0616C33.1248 47.1021 33.1168 47.1458 33.1184 47.1898V49.7577C33.1171 49.9293 33.1507 50.0994 33.2172 50.2577C33.2835 50.4097 33.3778 50.5478 33.495 50.6651C33.6149 50.7821 33.7551 50.8763 33.9087 50.9429Z" fill="white" fill-opacity="0.6"/>
<path d="M38.175 47.7057C38.2309 47.647 38.2979 47.5999 38.372 47.567C38.4462 47.5342 38.5261 47.5163 38.6072 47.5144H39.521C39.5648 47.5148 39.6082 47.5062 39.6486 47.4892C39.6889 47.4722 39.7254 47.4472 39.7556 47.4156C39.789 47.3863 39.8156 47.3502 39.8337 47.3097C39.8518 47.2693 39.861 47.2253 39.8606 47.181C39.861 47.1366 39.8518 47.0928 39.8337 47.0523C39.8156 47.0118 39.789 46.9757 39.7556 46.9465C39.7254 46.9148 39.6889 46.8898 39.6486 46.8728C39.6082 46.8558 39.5648 46.8473 39.521 46.8477H38.6072C38.4331 46.8485 38.261 46.8842 38.1009 46.9526C37.9489 47.0189 37.8106 47.1131 37.6933 47.2304C37.5728 47.3462 37.4763 47.4847 37.4094 47.6378C37.3452 47.7946 37.3117 47.9622 37.3105 48.1316V50.6934C37.3105 50.784 37.3461 50.8711 37.4096 50.9357C37.4731 51.0003 37.5595 51.0375 37.6502 51.0391C37.6958 51.0397 37.7411 51.0314 37.7835 51.0144C37.8259 50.9974 37.8645 50.9723 37.8971 50.9404C37.9307 50.9087 37.9574 50.8704 37.9756 50.8279C37.9936 50.7854 38.0027 50.7396 38.0021 50.6934V48.1316C38.0004 48.0526 38.0148 47.974 38.0445 47.9008C38.0743 47.8276 38.1187 47.7612 38.175 47.7057Z" fill="white" fill-opacity="0.6"/>
<path fill-rule="evenodd" clip-rule="evenodd" d="M43.0699 47.6995C43.1289 47.7549 43.1758 47.8219 43.2077 47.8962C43.2396 47.9706 43.2557 48.0507 43.2552 48.1316V49.749C43.2557 49.8299 43.2396 49.91 43.2077 49.9844C43.1758 50.0587 43.1289 50.1257 43.0699 50.1811C43.0128 50.2391 42.9445 50.2849 42.8691 50.3158C42.7938 50.3465 42.7129 50.3616 42.6315 50.3601H41.6003C41.5171 50.3615 41.4344 50.3464 41.357 50.3157C41.2797 50.2849 41.2092 50.2392 41.1496 50.1811C41.0934 50.1242 41.0492 50.0567 41.0195 49.9825C40.9898 49.9083 40.9752 49.8289 40.9767 49.749V48.1316C40.9748 48.0516 40.9892 47.9722 41.0189 47.8979C41.0486 47.8236 41.0931 47.7561 41.1496 47.6995C41.208 47.6394 41.2782 47.592 41.3557 47.5601C41.4333 47.5282 41.5166 47.5126 41.6003 47.5144H42.6315C42.7135 47.5125 42.795 47.528 42.8705 47.56C42.9461 47.5919 43.014 47.6395 43.0699 47.6995ZM43.5638 50.6564C43.68 50.5395 43.7722 50.4011 43.8356 50.249C43.9069 50.0921 43.9427 49.9213 43.9405 49.749V48.1316C43.9432 47.9612 43.9073 47.7924 43.8356 47.6378C43.7707 47.485 43.6762 47.3465 43.5577 47.2304C43.437 47.1115 43.2944 47.0172 43.1378 46.9526C42.9781 46.883 42.8057 46.8473 42.6315 46.8477H41.5818C41.4077 46.8485 41.2356 46.8842 41.0755 46.9526C40.9235 47.0189 40.7853 47.1131 40.668 47.2304C40.5456 47.3446 40.4488 47.4835 40.384 47.6378C40.3198 47.7946 40.2863 47.9622 40.2852 48.1316V49.749C40.2855 49.923 40.3212 50.0953 40.3902 50.2551C40.461 50.4042 40.5571 50.54 40.6742 50.6564C40.7914 50.7736 40.9297 50.8678 41.0817 50.9341C41.2457 51.0038 41.4222 51.0395 41.6003 51.0391H42.6438C42.8161 51.0395 42.9865 51.0038 43.144 50.9341C43.3006 50.8696 43.4432 50.7752 43.5638 50.6564Z" fill="white" fill-opacity="0.6"/>
<path d="M45.4371 50.9344C45.6011 51.004 45.7776 51.0397 45.9558 51.0393H47.7279C47.8178 51.0384 47.904 51.0031 47.9687 50.9406C48.0321 50.874 48.0675 50.7855 48.0675 50.6936C48.0659 50.6047 48.0293 50.5199 47.9658 50.4575C47.9023 50.3952 47.8169 50.3603 47.7279 50.3603H45.9558C45.8725 50.3617 45.7898 50.3466 45.7125 50.3159C45.6351 50.2851 45.5646 50.2394 45.5051 50.1813C45.4489 50.1245 45.4046 50.0569 45.3749 49.9827C45.3452 49.9085 45.3306 49.8291 45.3321 49.7492V48.1318C45.3303 48.0519 45.3447 47.9724 45.3744 47.8981C45.4041 47.8238 45.4485 47.7563 45.5051 47.6997C45.5635 47.6396 45.6336 47.5922 45.7111 47.5603C45.7887 47.5284 45.872 47.5128 45.9558 47.5145H47.7279C47.7727 47.5154 47.8171 47.5071 47.8585 47.4901C47.8999 47.4731 47.9374 47.4478 47.9687 47.4158C48 47.3853 48.0249 47.3488 48.0419 47.3085C48.0588 47.2682 48.0675 47.2249 48.0675 47.1812C48.0678 47.1369 48.0587 47.0929 48.0405 47.0525C48.0224 47.012 47.9958 46.9759 47.9625 46.9466C47.933 46.9141 47.8966 46.8884 47.8561 46.8713C47.8156 46.8543 47.7718 46.8463 47.7279 46.8479H45.9373C45.7632 46.8486 45.591 46.8843 45.4309 46.9528C45.2789 47.0192 45.1407 47.1133 45.0234 47.2306C44.901 47.3448 44.8042 47.4837 44.7394 47.638C44.6753 47.7948 44.6417 47.9624 44.6406 48.1318V49.7492C44.6409 49.9233 44.6766 50.0955 44.7456 50.2554C44.8164 50.4045 44.9125 50.5402 45.0296 50.6566C45.1469 50.7738 45.2851 50.868 45.4371 50.9344Z" fill="white" fill-opacity="0.6"/>
<path fill-rule="evenodd" clip-rule="evenodd" d="M51.4312 47.6995C51.4902 47.7549 51.5372 47.8219 51.569 47.8962C51.6009 47.9706 51.617 48.0507 51.6164 48.1316V49.749C51.617 49.8299 51.6009 49.91 51.569 49.9844C51.5372 50.0587 51.4902 50.1257 51.4312 50.1811C51.3741 50.2391 51.3058 50.2849 51.2304 50.3158C51.1551 50.3465 51.0742 50.3616 50.9928 50.3601H49.9617C49.8784 50.3615 49.7957 50.3464 49.7183 50.3157C49.641 50.2849 49.5705 50.2392 49.5109 50.1811C49.4547 50.1242 49.4104 50.0567 49.3807 49.9825C49.351 49.9083 49.3365 49.8289 49.338 49.749V48.1316C49.3362 48.0516 49.3505 47.9722 49.3803 47.8979C49.41 47.8236 49.4544 47.7561 49.5109 47.6995C49.5693 47.6394 49.6394 47.592 49.717 47.5601C49.7946 47.5282 49.8778 47.5126 49.9617 47.5144H50.9928C51.0748 47.5125 51.1563 47.528 51.2319 47.56C51.3074 47.5919 51.3754 47.6395 51.4312 47.6995ZM51.9252 50.6564C52.0413 50.5395 52.1335 50.4011 52.1968 50.249C52.2681 50.0921 52.304 49.9213 52.3018 49.749V48.1316C52.3046 47.9612 52.2687 47.7924 52.1968 47.6378C52.132 47.485 52.0376 47.3465 51.919 47.2304C51.7983 47.1115 51.6557 47.0172 51.4991 46.9526C51.3394 46.883 51.167 46.8473 50.9928 46.8477H49.9431C49.769 46.848 49.5967 46.8837 49.4368 46.9526C49.2848 47.0189 49.1466 47.1131 49.0293 47.2304C48.9069 47.3446 48.8101 47.4835 48.7452 47.6378C48.6811 47.7946 48.6476 47.9622 48.6465 48.1316V49.749C48.6467 49.923 48.6825 50.0953 48.7514 50.2551C48.8223 50.4042 48.9183 50.54 49.0355 50.6564C49.1528 50.7736 49.291 50.8678 49.443 50.9341C49.607 51.0038 49.7835 51.0395 49.9617 51.0391H51.0052C51.1774 51.0395 51.3478 51.0038 51.5053 50.9341C51.6619 50.8696 51.8045 50.7752 51.9252 50.6564Z" fill="white" fill-opacity="0.6"/>
<path d="M57.5178 47.7058C57.5753 47.7607 57.6208 47.8269 57.6516 47.9002C57.6824 47.9734 57.6979 48.0523 57.6969 48.1317V50.6935C57.6955 50.7393 57.7036 50.7848 57.7206 50.8273C57.7376 50.8697 57.7632 50.9083 57.7957 50.9405C57.8623 51.0038 57.9507 51.0392 58.0427 51.0392C58.1326 51.0383 58.2188 51.0029 58.2835 50.9405C58.3469 50.8739 58.3823 50.7854 58.3823 50.6935V48.1317C58.3821 47.9616 58.3463 47.7934 58.2773 47.6379C58.2169 47.4842 58.1243 47.3453 58.0056 47.2305C57.885 47.1116 57.7424 47.0172 57.5858 46.9527C57.4283 46.8831 57.2578 46.8473 57.0856 46.8478H56.6473C56.4523 46.846 56.2598 46.8904 56.0854 46.9774H56.0792C55.9345 47.0521 55.8031 47.1502 55.6902 47.2675C55.5752 47.1471 55.4392 47.0488 55.2889 46.9774C55.1168 46.8898 54.9261 46.8453 54.7331 46.8478H54.2947C54.1206 46.8485 53.9485 46.8842 53.7885 46.9527C53.6364 47.019 53.4982 47.1132 53.3809 47.2305C53.2585 47.3447 53.1617 47.4836 53.0969 47.6379C53.0327 47.7947 52.9992 47.9623 52.9981 48.1317V50.6935C52.9975 50.7397 53.0065 50.7855 53.0246 50.828C53.0427 50.8705 53.0694 50.9088 53.1031 50.9405C53.1335 50.9717 53.1701 50.9966 53.2103 51.0136C53.2507 51.0305 53.294 51.0392 53.3377 51.0392C53.3833 51.0398 53.4287 51.0315 53.4711 51.0145C53.5135 50.9975 53.552 50.9724 53.5847 50.9405C53.6183 50.9088 53.645 50.8705 53.6631 50.828C53.6812 50.7855 53.6902 50.7397 53.6897 50.6935V48.1317C53.6879 48.0527 53.7024 47.9741 53.7321 47.9009C53.7618 47.8276 53.8062 47.7613 53.8625 47.7058C53.9185 47.6471 53.9854 47.6 54.0596 47.5671C54.1337 47.5343 54.2136 47.5164 54.2947 47.5144H54.7331C54.8144 47.5153 54.8946 47.5328 54.9689 47.5657C55.0432 47.5986 55.1101 47.6462 55.1654 47.7058C55.2245 47.7597 55.2716 47.8255 55.3035 47.899C55.3354 47.9724 55.3514 48.0517 55.3506 48.1317V50.6935C55.3489 50.7378 55.3563 50.782 55.3722 50.8234C55.3881 50.8648 55.4122 50.9025 55.4432 50.9343C55.5101 50.9971 55.5984 51.0324 55.6902 51.033C55.7351 51.0351 55.7799 51.0273 55.8215 51.0103C55.8631 50.9932 55.9005 50.9673 55.931 50.9343C55.9635 50.9021 55.9891 50.8636 56.0061 50.8211C56.0231 50.7786 56.0312 50.733 56.0298 50.6873V48.1317C56.0288 48.0523 56.0443 47.9734 56.0751 47.9002C56.1059 47.8269 56.1514 47.7607 56.2089 47.7058C56.2657 47.6466 56.3337 47.5992 56.4089 47.5664C56.4842 47.5336 56.5651 47.5159 56.6473 47.5144H57.0856C57.1669 47.5153 57.2471 47.5328 57.3214 47.5657C57.3957 47.5986 57.4625 47.6462 57.5178 47.7058Z" fill="white" fill-opacity="0.6"/>
<path d="M62.1442 50.9342C62.3063 51.0033 62.4806 51.039 62.6567 51.0392H64.4288C64.5188 51.0382 64.605 51.0029 64.6696 50.9404C64.7021 50.9082 64.7277 50.8697 64.7447 50.8273C64.7617 50.7848 64.7698 50.7392 64.7684 50.6935C64.7688 50.6497 64.7602 50.6063 64.7433 50.566C64.7263 50.5257 64.7012 50.4892 64.6696 50.4589C64.605 50.3965 64.5188 50.3611 64.4288 50.3602H62.6567C62.5744 50.3611 62.4928 50.3458 62.4166 50.315C62.3402 50.2844 62.2708 50.2388 62.2122 50.1811C62.1551 50.1246 62.1099 50.0573 62.0792 49.9831C62.0484 49.9089 62.0327 49.8293 62.0331 49.749V48.1317C62.0324 48.0514 62.0479 47.9717 62.0787 47.8974C62.1095 47.8232 62.1549 47.7559 62.2122 47.6996C62.2696 47.6399 62.3387 47.5927 62.4152 47.5609C62.4917 47.529 62.5739 47.5132 62.6567 47.5144H64.4288C64.4736 47.5153 64.5181 47.507 64.5595 47.49C64.6009 47.473 64.6384 47.4477 64.6696 47.4156C64.7021 47.3861 64.7279 47.3498 64.7449 47.3093C64.762 47.2687 64.77 47.225 64.7684 47.181C64.77 47.1372 64.762 47.0934 64.7449 47.0529C64.7279 47.0124 64.7021 46.9761 64.6696 46.9465C64.6384 46.9144 64.6009 46.8892 64.5595 46.8721C64.5181 46.8552 64.4736 46.8469 64.4288 46.8477H62.6444C62.4702 46.848 62.298 46.8837 62.1381 46.9526H62.1319C61.9798 47.019 61.8416 47.1132 61.7244 47.2305C61.6058 47.3466 61.5113 47.4851 61.4465 47.6379C61.3795 47.7938 61.3458 47.962 61.3477 48.1317V49.749C61.348 49.9231 61.3838 50.0954 61.4527 50.2552C61.519 50.4053 61.6133 50.5415 61.7305 50.6565C61.8511 50.7725 61.9912 50.8665 62.1442 50.9342Z" fill="white" fill-opacity="0.6"/>
<path fill-rule="evenodd" clip-rule="evenodd" d="M68.1407 47.6995C68.1987 47.7552 68.2442 47.8223 68.2755 47.8968C68.3061 47.9711 68.3211 48.0511 68.3191 48.1316V49.749C68.3211 49.8295 68.3061 49.9095 68.2755 49.9838C68.2442 50.0583 68.1987 50.1254 68.1407 50.1811H68.1342C68.0775 50.2394 68.0091 50.2855 67.9336 50.3162C67.858 50.347 67.7772 50.3619 67.6958 50.3601H66.6648C66.5827 50.361 66.5006 50.3457 66.4244 50.315C66.3482 50.2843 66.2785 50.2387 66.2199 50.1811C66.1632 50.1245 66.1177 50.0572 66.087 49.983C66.0564 49.9088 66.0408 49.8293 66.0408 49.749V48.1316C66.0401 48.0513 66.0558 47.9716 66.0864 47.8974C66.1177 47.8231 66.1626 47.7559 66.2199 47.6995C66.2772 47.6399 66.3469 47.5927 66.4231 47.5608C66.4993 47.5289 66.5821 47.5132 66.6648 47.5144H67.6958C67.7779 47.5121 67.8593 47.5274 67.9349 47.5594C68.0104 47.5914 68.0788 47.6391 68.1342 47.6995H68.1407ZM68.6344 50.6564C68.7484 50.5378 68.8402 50.3998 68.906 50.249C68.9744 50.0911 69.0102 49.921 69.0109 49.749V48.1316C69.0109 47.9615 68.975 47.7933 68.906 47.6378C68.7673 47.3304 68.5185 47.086 68.2084 46.9526C68.0462 46.883 67.8717 46.8473 67.6958 46.8477H66.6524C66.4778 46.848 66.3059 46.8837 66.1457 46.9526H66.1398C65.988 47.0189 65.8493 47.1131 65.7321 47.2304C65.6135 47.3465 65.5191 47.485 65.4546 47.6378C65.3875 47.7937 65.3536 47.962 65.3556 48.1316V49.749C65.353 49.9234 65.3888 50.0963 65.4605 50.2551C65.5269 50.4052 65.6213 50.5414 65.7386 50.6564C65.8578 50.7738 65.9985 50.868 66.1522 50.9341C66.3144 51.0032 66.4883 51.0389 66.6648 51.0391H67.7141C67.8867 51.0395 68.0567 51.0038 68.2143 50.9341C68.37 50.868 68.5126 50.7739 68.6344 50.6564Z" fill="white" fill-opacity="0.6"/>
<path d="M74.2228 47.7058C74.2814 47.7601 74.3277 47.8261 74.3583 47.8995C74.3889 47.973 74.4039 48.0521 74.4019 48.1317V50.6935C74.4019 50.7854 74.4371 50.8739 74.5009 50.9405C74.568 51.0033 74.6559 51.0386 74.7478 51.0392C74.8377 51.0383 74.9236 51.0029 74.9888 50.9405C75.0213 50.9083 75.0467 50.8697 75.0637 50.8272C75.0806 50.7848 75.0891 50.7393 75.0871 50.6935V48.1317C75.0891 47.962 75.0559 47.7938 74.9888 47.6379C74.9236 47.4851 74.8292 47.3466 74.7107 47.2305C74.5915 47.113 74.4508 47.0189 74.2971 46.9527C74.1394 46.8842 73.9688 46.8485 73.7968 46.8478H73.3526C73.1572 46.8467 72.9651 46.8911 72.7905 46.9774C72.6446 47.0506 72.5131 47.1488 72.4017 47.2675C72.2851 47.1485 72.1496 47.0504 71.9998 46.9774C71.8279 46.8898 71.6377 46.8453 71.4443 46.8478H71.0059C70.832 46.848 70.6594 46.8837 70.4998 46.9527H70.4933C70.3416 47.019 70.2035 47.1132 70.0862 47.2305C69.9677 47.3466 69.8732 47.4851 69.8081 47.6379C69.741 47.7938 69.7078 47.962 69.7091 48.1317V50.6935C69.7078 50.7393 69.7163 50.7848 69.7332 50.8272C69.7501 50.8697 69.7756 50.9083 69.8081 50.9405C69.8726 51.0029 69.9592 51.0383 70.0491 51.0392C70.1409 51.0392 70.2295 51.0038 70.296 50.9405C70.3285 50.9083 70.3539 50.8697 70.3709 50.8272C70.3878 50.7848 70.3963 50.7393 70.395 50.6935V48.1317C70.3937 48.0523 70.4093 47.9734 70.4399 47.9002C70.4712 47.8269 70.5161 47.7607 70.5741 47.7058C70.6294 47.6462 70.6959 47.5986 70.7701 47.5657C70.8444 47.5328 70.9245 47.5153 71.0059 47.5144H71.4443C71.5257 47.5164 71.6051 47.5343 71.6794 47.5671C71.7536 47.6 71.8207 47.6471 71.8767 47.7058C71.936 47.7597 71.9829 47.8255 72.0148 47.899C72.0467 47.9724 72.063 48.0517 72.0617 48.1317V50.6935C72.0591 50.7374 72.065 50.7814 72.0799 50.8229C72.0949 50.8643 72.1184 50.9022 72.1483 50.9343H72.1542C72.2213 50.9977 72.3092 51.033 72.4017 51.033C72.446 51.0339 72.4909 51.0256 72.532 51.0086C72.5737 50.9916 72.6108 50.9663 72.642 50.9343C72.7059 50.8677 72.741 50.7793 72.741 50.6873V48.1317C72.7391 48.0527 72.7541 47.9741 72.7834 47.9009C72.8133 47.8276 72.8576 47.7613 72.9143 47.7058C73.0309 47.5859 73.1911 47.5172 73.3585 47.5144H73.791C73.8717 47.5153 73.9525 47.5328 74.0268 47.5657C74.101 47.5986 74.1675 47.6462 74.2228 47.7058Z" fill="white" fill-opacity="0.6"/>
<path fill-rule="evenodd" clip-rule="evenodd" d="M78.4895 47.7057C78.5494 47.7603 78.597 47.8271 78.6289 47.9017C78.6608 47.9762 78.6764 48.0567 78.6745 48.1378V49.749C78.6758 49.8309 78.6601 49.912 78.6282 49.9875C78.5963 50.0629 78.5488 50.1309 78.4895 50.1872C78.4322 50.2448 78.3638 50.2898 78.2882 50.3196C78.2127 50.3493 78.1319 50.3631 78.0511 50.3601H77.0937C77.0123 50.3621 76.9309 50.348 76.854 50.3183C76.7778 50.2886 76.7081 50.2441 76.6495 50.1872C76.5922 50.1297 76.5466 50.0614 76.516 49.9861C76.4847 49.9108 76.4697 49.8303 76.4704 49.749V48.1378C76.4691 48.0574 76.484 47.9775 76.5147 47.9032C76.5459 47.8288 76.5915 47.7616 76.6495 47.7057C76.7074 47.6469 76.7765 47.6006 76.8527 47.5698C76.9295 47.539 77.0116 47.5243 77.0937 47.5267H78.0511C78.1326 47.5233 78.214 47.5375 78.2895 47.5683C78.3657 47.5992 78.4335 47.6461 78.4895 47.7057ZM76.5817 46.9526C76.4293 47.0189 76.2912 47.1131 76.174 47.2304C76.0516 47.3446 75.9545 47.4835 75.89 47.6378C75.8203 47.7953 75.7845 47.9656 75.7852 48.1378V52.4589C75.7865 52.5479 75.8229 52.6327 75.8868 52.695C75.95 52.7573 76.0353 52.7922 76.1245 52.7922C76.2163 52.7922 76.3049 52.7569 76.3714 52.6934C76.4033 52.6632 76.428 52.6267 76.445 52.5864C76.4619 52.546 76.471 52.5027 76.4704 52.4589V50.8786C76.5479 50.9198 76.628 50.9549 76.7114 50.9836C76.8312 51.021 76.9563 51.0397 77.0813 51.0391H78.0511C78.225 51.0403 78.3976 51.0045 78.5572 50.9341C78.7142 50.8696 78.8568 50.7752 78.9773 50.6564C79.0946 50.54 79.1903 50.4042 79.2613 50.2551C79.3304 50.0953 79.3662 49.923 79.3662 49.749V48.1378C79.3662 47.9677 79.3304 47.7995 79.2613 47.644C79.1949 47.492 79.1004 47.3538 78.9832 47.2365C78.8666 47.1141 78.7259 47.0173 78.5696 46.9526C78.412 46.8842 78.2413 46.8484 78.0694 46.8477H77.0937C76.9178 46.8478 76.7433 46.8835 76.5817 46.9526Z" fill="white" fill-opacity="0.6"/>
<path fill-rule="evenodd" clip-rule="evenodd" d="M81.2916 49.1318H82.7916V50.3603H81.2916C81.2082 50.3616 81.1255 50.3466 81.048 50.3158C80.9705 50.2851 80.9002 50.2394 80.8409 50.1812C80.7842 50.1244 80.7406 50.0568 80.7106 49.9827C80.6807 49.9084 80.6663 49.829 80.6676 49.7491C80.665 49.669 80.6787 49.5892 80.7087 49.5147C80.7386 49.4404 80.7836 49.373 80.8409 49.317C80.8989 49.2569 80.9692 49.2094 81.0467 49.1776C81.1242 49.1457 81.2076 49.1301 81.2916 49.1318ZM80.7732 50.9343C80.9366 51.0039 81.1131 51.0396 81.2916 51.0393H83.1375C83.2274 51.0383 83.314 51.003 83.3785 50.9405C83.4111 50.9083 83.4365 50.8698 83.4534 50.8273C83.4703 50.7848 83.4788 50.7393 83.4775 50.6936V48.1318C83.4801 47.9614 83.4443 47.7925 83.3726 47.638C83.3075 47.4851 83.213 47.3467 83.0945 47.2306C82.974 47.1116 82.8314 47.0173 82.6744 46.9527C82.5148 46.8832 82.3422 46.8474 82.1683 46.8478H80.5569C80.5107 46.8464 80.4657 46.8545 80.4227 46.8715C80.3804 46.8885 80.342 46.9141 80.3101 46.9466C80.2775 46.9762 80.2514 47.0125 80.2345 47.053C80.2176 47.0935 80.2091 47.1372 80.2111 47.1811C80.2091 47.2251 80.2176 47.2688 80.2345 47.3093C80.2514 47.3499 80.2775 47.3862 80.3101 47.4157C80.342 47.4483 80.3804 47.4738 80.4227 47.4908C80.4657 47.5078 80.5107 47.5159 80.5569 47.5145H82.1683C82.2504 47.5127 82.3318 47.5282 82.4073 47.5601C82.4829 47.592 82.5506 47.6396 82.6067 47.6997C82.6659 47.755 82.7128 47.822 82.7447 47.8964C82.7767 47.9708 82.7923 48.0509 82.7916 48.1318V48.4589H81.2916C81.1138 48.4565 80.9373 48.4901 80.7732 48.5577C80.6207 48.6241 80.4827 48.7183 80.3654 48.8355C80.2443 48.9535 80.1479 49.094 80.0814 49.2491C80.0117 49.4066 79.9759 49.577 79.9766 49.7491C79.9766 49.9232 80.0124 50.0954 80.0814 50.2553C80.2228 50.5573 80.4683 50.7983 80.7732 50.9343Z" fill="white" fill-opacity="0.6"/>
<path d="M86.8125 47.7057C86.8698 47.7606 86.9154 47.8268 86.946 47.9001C86.9773 47.9734 86.9923 48.0522 86.9916 48.1316V50.6934C86.9903 50.7392 86.9981 50.7847 87.015 50.8272C87.032 50.8696 87.0574 50.9082 87.09 50.9404C87.157 51.0038 87.245 51.0391 87.3375 51.0391C87.4273 51.0381 87.5133 51.0028 87.5778 50.9404C87.6416 50.8738 87.6768 50.7853 87.6768 50.6934V48.1316C87.6768 47.9615 87.641 47.7933 87.5719 47.6378C87.5114 47.4841 87.4189 47.3452 87.3003 47.2304C87.1798 47.1115 87.0372 47.0172 86.8802 46.9526C86.7226 46.883 86.5526 46.8472 86.38 46.8477H85.4727C85.2982 46.848 85.1262 46.8837 84.966 46.9526C84.8116 47.0173 84.6709 47.1117 84.5524 47.2304C84.4338 47.3465 84.3394 47.485 84.2749 47.6378C84.2078 47.7937 84.174 47.962 84.1759 48.1316V50.6934C84.1746 50.7392 84.1824 50.7847 84.1994 50.8272C84.2163 50.8696 84.2424 50.9082 84.2749 50.9404C84.3394 51.0028 84.4254 51.0381 84.5153 51.0391C84.6071 51.0391 84.6957 51.0038 84.7621 50.9404C84.7947 50.9082 84.8207 50.8696 84.8377 50.8272C84.8546 50.7847 84.8624 50.7392 84.8611 50.6934V48.1316C84.8605 48.0522 84.8754 47.9734 84.9067 47.9001C84.9373 47.8268 84.9829 47.7606 85.0402 47.7057C85.0956 47.6461 85.1627 47.5985 85.2369 47.5656C85.3112 47.5327 85.3913 47.5153 85.4727 47.5144H86.38C86.4614 47.5153 86.5415 47.5327 86.6158 47.5656C86.69 47.5985 86.7571 47.6461 86.8125 47.7057Z" fill="white" fill-opacity="0.6"/>
<path d="M91.1517 51.9345C91.095 51.9926 91.0266 52.0384 90.951 52.0692C90.8755 52.1 90.7947 52.1151 90.7133 52.1136H88.8427C88.7528 52.1145 88.6662 52.1498 88.6017 52.2123C88.5691 52.2445 88.5437 52.283 88.5268 52.3255C88.5098 52.368 88.5014 52.4135 88.5027 52.4592C88.5027 52.503 88.5111 52.5464 88.5281 52.5867C88.545 52.6271 88.5704 52.6635 88.6017 52.6938C88.6662 52.7563 88.7528 52.7916 88.8427 52.7926H90.7133C90.8879 52.793 91.0598 52.7572 91.22 52.6877C91.3764 52.6231 91.519 52.5288 91.6395 52.4098C91.7567 52.2926 91.8512 52.1544 91.9176 52.0024C91.9899 51.8459 92.0257 51.6749 92.0225 51.5024V47.1813C92.0231 47.1376 92.014 47.0942 91.9971 47.0538C91.9801 47.0135 91.9554 46.9771 91.9235 46.9467C91.8922 46.9147 91.8551 46.8894 91.8134 46.8724C91.7724 46.8554 91.7274 46.8471 91.6831 46.848C91.6369 46.847 91.592 46.8552 91.549 46.8722C91.5066 46.8892 91.4682 46.9145 91.4356 46.9467C91.3751 47.0099 91.3392 47.0936 91.3373 47.1813V49.7493C91.3379 49.8312 91.3223 49.9124 91.2904 49.9878C91.2585 50.0632 91.2116 50.1313 91.1517 50.1876C91.095 50.2451 91.0259 50.2902 90.951 50.3199C90.8755 50.3497 90.7947 50.3635 90.7133 50.3604H89.6822C89.5995 50.363 89.5168 50.349 89.4393 50.3194C89.3618 50.2897 89.2914 50.2449 89.2315 50.1876C89.1749 50.1298 89.1306 50.0613 89.1006 49.986C89.0706 49.9107 89.0569 49.8302 89.0589 49.7493V47.1813C89.0576 47.1372 89.0485 47.0936 89.0303 47.0533C89.012 47.013 88.986 46.9768 88.9534 46.9467C88.9221 46.9136 88.8837 46.8877 88.8407 46.8706C88.7984 46.8536 88.7528 46.8458 88.7065 46.848C88.6629 46.8464 88.6193 46.8545 88.5782 46.8715C88.5378 46.8886 88.5014 46.9143 88.4721 46.9467C88.4395 46.9768 88.4134 47.013 88.3959 47.0533C88.3776 47.0936 88.3678 47.1372 88.3672 47.1813V49.7493C88.3672 49.9234 88.403 50.0956 88.4721 50.2555C88.5431 50.4046 88.6388 50.5404 88.756 50.6568C88.8733 50.774 89.0114 50.8682 89.1638 50.9345C89.3279 51.0041 89.5038 51.0398 89.6822 51.0394H90.7257C90.8494 51.0406 90.9725 51.0218 91.0898 50.9839C91.1751 50.9553 91.2578 50.9202 91.3373 50.8789V51.5024C91.3386 51.5835 91.3229 51.664 91.291 51.7385C91.2591 51.8131 91.2116 51.8799 91.1517 51.9345Z" fill="white" fill-opacity="0.6"/>
</g>
<defs>
<clipPath id="clip0_2301_18816">
<rect width="150.457" height="52.7919" fill="white"/>
</clipPath>
</defs>
</svg>
