<svg width="442" height="289" viewBox="0 0 442 289" fill="none" xmlns="http://www.w3.org/2000/svg">
    <rect width="442" height="289" rx="20" fill="#F7F9FA" />
    <rect x="240" y="23" width="177" height="179" rx="12.3391" fill="#E0E2F7" />
    <path
        d="M273.5 202.391V190.582C273.5 175.443 285.006 163.332 300.144 163.332C318.311 178.471 336.478 178.471 354.645 163.332C369.783 163.332 382.5 175.443 382.5 190.582V202.391H273.5Z"
        fill="#FF9FC6" />
    <path
        d="M285.914 167.571C290.152 164.846 294.997 163.332 300.144 163.332C318.311 178.471 336.478 178.471 354.644 163.332C359.791 163.332 364.636 164.846 368.875 167.268C372.508 164.543 375.839 161.818 378.261 159.396C387.041 150.01 389.464 138.807 384.316 126.696C377.05 109.437 375.233 109.74 374.022 87.9401C374.022 75.2234 364.333 64.6262 351.616 63.7179C351.616 63.7179 343.744 54.6345 327.394 54.6345C308.016 54.6345 290.455 65.2318 285.914 81.8846C281.372 98.8401 286.822 105.501 281.977 118.218C276.527 132.449 264.416 143.651 278.041 160.304C279.858 162.424 282.583 165.149 285.914 167.571Z"
        fill="black" />
    <path
        d="M294.695 114.888C294.695 139.111 309.229 153.947 327.395 153.947C345.562 153.947 361.307 139.111 361.307 114.888C361.307 102.777 358.279 96.7217 358.279 96.7217L346.168 84.6106C346.168 84.6106 309.834 90.6662 297.723 96.7217C297.723 96.7217 294.695 102.777 294.695 114.888Z"
        fill="#A57A3D" />
    <path
        d="M273.5 199.666V190.28C273.5 175.141 285.006 163.03 300.144 163.03C318.311 178.169 336.478 178.169 354.645 163.03C369.783 163.03 382.5 175.141 382.5 190.28V199.666"
        stroke="black" stroke-width="6.22858" stroke-linecap="round" stroke-linejoin="round" />
    <path
        d="M346.167 111.86C346.167 115.191 343.442 117.916 340.112 117.916C336.781 117.916 334.056 115.191 334.056 111.86C334.056 108.529 336.781 105.804 340.112 105.804C343.442 105.804 346.167 108.529 346.167 111.86ZM321.945 111.86C321.945 115.191 319.22 117.916 315.89 117.916C312.559 117.916 309.834 115.191 309.834 111.86C309.834 108.529 312.559 105.804 315.89 105.804C319.22 105.804 321.945 108.529 321.945 111.86Z"
        fill="black" />
    <path
        d="M294.695 114.888C294.695 139.111 309.229 153.947 327.395 153.947C345.562 153.947 361.307 139.111 361.307 114.888C361.307 102.777 358.279 96.7217 358.279 96.7217L346.168 84.6106C346.168 84.6106 309.834 90.6662 297.723 96.7217C297.723 96.7217 294.695 102.777 294.695 114.888Z"
        stroke="black" stroke-width="6.22858" stroke-linejoin="round" />
    <path d="M318.312 133.66C324.065 136.688 330.726 136.688 336.479 133.66" stroke="black"
        stroke-width="6.22858" stroke-linecap="round" stroke-linejoin="round" />
    <path
        d="M279.556 157.277C267.445 139.11 274.106 132.146 279.859 117.916C284.703 105.199 279.253 98.2351 283.795 81.5823C288.336 64.9295 305.898 54.3323 325.275 54.3323C341.625 54.3323 349.498 63.4156 349.498 63.4156C362.214 64.6267 371.903 75.224 371.903 87.6379C373.114 109.438 374.931 109.438 382.198 126.393C387.648 138.807 385.225 146.982 376.445 156.974"
        stroke="black" stroke-width="6.22858" stroke-linecap="round" stroke-linejoin="round" />
    <path
        d="M306.001 220.333C299.584 220.333 294.334 225.583 294.334 232C294.334 238.417 299.584 243.667 306.001 243.667C312.417 243.667 317.667 238.417 317.667 232C317.667 225.583 312.417 220.333 306.001 220.333ZM303.667 237.833L297.834 232L299.479 230.355L303.667 234.532L312.522 225.677L314.167 227.333L303.667 237.833Z"
        fill="#4959E7" />
    <path
        d="M331.585 238V226.364H335.949C336.843 226.364 337.593 226.519 338.199 226.83C338.809 227.14 339.269 227.576 339.58 228.137C339.894 228.693 340.051 229.343 340.051 230.085C340.051 230.832 339.892 231.479 339.574 232.029C339.259 232.574 338.795 232.996 338.182 233.296C337.568 233.591 336.814 233.739 335.92 233.739H332.812V231.989H335.636C336.159 231.989 336.587 231.917 336.92 231.773C337.254 231.625 337.5 231.411 337.659 231.131C337.822 230.847 337.903 230.498 337.903 230.085C337.903 229.673 337.822 229.32 337.659 229.029C337.496 228.733 337.248 228.51 336.915 228.358C336.581 228.203 336.152 228.125 335.625 228.125H333.693V238H331.585ZM337.597 232.728L340.477 238H338.125L335.295 232.728H337.597ZM345.639 238.171C344.764 238.171 344.009 237.989 343.372 237.625C342.74 237.258 342.253 236.739 341.912 236.068C341.571 235.394 341.401 234.601 341.401 233.688C341.401 232.79 341.571 232.002 341.912 231.324C342.257 230.642 342.738 230.112 343.355 229.733C343.973 229.351 344.698 229.159 345.531 229.159C346.069 229.159 346.577 229.246 347.054 229.421C347.535 229.591 347.959 229.856 348.327 230.216C348.698 230.576 348.99 231.034 349.202 231.591C349.414 232.144 349.52 232.803 349.52 233.568V234.199H342.366V232.813H347.548C347.545 232.419 347.459 232.068 347.293 231.762C347.126 231.451 346.893 231.207 346.594 231.029C346.298 230.851 345.954 230.762 345.56 230.762C345.139 230.762 344.77 230.864 344.452 231.068C344.134 231.269 343.885 231.534 343.707 231.864C343.533 232.19 343.444 232.548 343.44 232.938V234.148C343.44 234.656 343.533 235.091 343.719 235.455C343.904 235.815 344.164 236.091 344.497 236.284C344.83 236.474 345.221 236.568 345.668 236.568C345.967 236.568 346.238 236.527 346.48 236.443C346.723 236.356 346.933 236.229 347.111 236.063C347.289 235.896 347.423 235.69 347.514 235.443L349.435 235.659C349.313 236.167 349.082 236.61 348.741 236.989C348.404 237.364 347.973 237.656 347.446 237.864C346.92 238.068 346.317 238.171 345.639 238.171ZM353.771 238.176C353.218 238.176 352.72 238.078 352.277 237.881C351.838 237.68 351.489 237.385 351.232 236.995C350.978 236.604 350.851 236.123 350.851 235.551C350.851 235.059 350.942 234.652 351.124 234.33C351.305 234.008 351.554 233.75 351.868 233.557C352.182 233.364 352.536 233.218 352.93 233.12C353.328 233.017 353.739 232.943 354.163 232.898C354.675 232.845 355.089 232.798 355.408 232.756C355.726 232.71 355.957 232.642 356.101 232.551C356.249 232.457 356.322 232.311 356.322 232.114V232.08C356.322 231.652 356.196 231.32 355.942 231.085C355.688 230.851 355.322 230.733 354.845 230.733C354.341 230.733 353.942 230.843 353.646 231.063C353.355 231.282 353.158 231.542 353.055 231.841L351.135 231.568C351.286 231.038 351.536 230.595 351.885 230.239C352.233 229.879 352.66 229.61 353.163 229.432C353.667 229.25 354.224 229.159 354.834 229.159C355.254 229.159 355.673 229.209 356.089 229.307C356.506 229.406 356.887 229.568 357.232 229.796C357.576 230.019 357.853 230.324 358.061 230.71C358.273 231.097 358.379 231.58 358.379 232.159V238H356.402V236.801H356.334C356.209 237.044 356.033 237.271 355.805 237.483C355.582 237.692 355.3 237.86 354.959 237.989C354.622 238.114 354.226 238.176 353.771 238.176ZM354.305 236.665C354.718 236.665 355.076 236.584 355.379 236.421C355.682 236.254 355.915 236.034 356.078 235.762C356.245 235.489 356.328 235.192 356.328 234.87V233.841C356.264 233.894 356.154 233.943 355.999 233.989C355.847 234.034 355.677 234.074 355.487 234.108C355.298 234.142 355.11 234.173 354.925 234.199C354.739 234.226 354.578 234.248 354.442 234.267C354.135 234.309 353.86 234.377 353.618 234.472C353.375 234.567 353.184 234.699 353.044 234.87C352.904 235.036 352.834 235.252 352.834 235.517C352.834 235.896 352.972 236.182 353.249 236.375C353.525 236.568 353.877 236.665 354.305 236.665ZM362.504 226.364V238H360.447V226.364H362.504Z"
        fill="#4959E7" />
    <rect x="23" y="23" width="177" height="179" rx="12.3391" fill="#E0E2F7" />
    <path
        d="M57.5 202.391V190.582C57.5 175.443 69.0056 163.332 84.1445 163.332C102.311 178.471 120.478 178.471 138.645 163.332C153.783 163.332 166.5 175.443 166.5 190.582V202.391H57.5Z"
        fill="#FF9FC6" />
    <path
        d="M69.9136 167.571C74.1525 164.846 78.9969 163.332 84.1442 163.332C102.311 178.471 120.478 178.471 138.644 163.332C143.791 163.332 148.636 164.846 152.875 167.268C156.508 164.543 159.839 161.818 162.261 159.396C171.041 150.01 173.464 138.807 168.316 126.696C161.05 109.437 159.233 109.74 158.022 87.9401C158.022 75.2234 148.333 64.6262 135.616 63.7179C135.616 63.7179 127.744 54.6345 111.394 54.6345C92.0164 54.6345 74.4553 65.2318 69.9136 81.8846C65.3719 98.8401 70.8219 105.501 65.9775 118.218C60.5275 132.449 48.4163 143.651 62.0414 160.304C63.858 162.424 66.583 165.149 69.9136 167.571Z"
        fill="black" />
    <path
        d="M78.6953 114.888C78.6953 139.111 93.2287 153.947 111.395 153.947C129.562 153.947 145.307 139.111 145.307 114.888C145.307 102.777 142.279 96.7217 142.279 96.7217L130.168 84.6106C130.168 84.6106 93.8342 90.6662 81.7231 96.7217C81.7231 96.7217 78.6953 102.777 78.6953 114.888Z"
        fill="#A57A3D" />
    <path
        d="M57.5 199.666V190.28C57.5 175.141 69.0056 163.03 84.1445 163.03C102.311 178.169 120.478 178.169 138.645 163.03C153.783 163.03 166.5 175.141 166.5 190.28V199.666"
        stroke="black" stroke-width="6.22858" stroke-linecap="round" stroke-linejoin="round" />
    <path
        d="M130.167 111.86C130.167 115.191 127.442 117.916 124.112 117.916C120.781 117.916 118.056 115.191 118.056 111.86C118.056 108.529 120.781 105.804 124.112 105.804C127.442 105.804 130.167 108.529 130.167 111.86ZM105.945 111.86C105.945 115.191 103.22 117.916 99.8895 117.916C96.559 117.916 93.834 115.191 93.834 111.86C93.834 108.529 96.559 105.804 99.8895 105.804C103.22 105.804 105.945 108.529 105.945 111.86Z"
        fill="black" />
    <path
        d="M78.6953 114.888C78.6953 139.111 93.2287 153.947 111.395 153.947C129.562 153.947 145.307 139.111 145.307 114.888C145.307 102.777 142.279 96.7217 142.279 96.7217L130.168 84.6106C130.168 84.6106 93.8342 90.6662 81.7231 96.7217C81.7231 96.7217 78.6953 102.777 78.6953 114.888Z"
        stroke="black" stroke-width="6.22858" stroke-linejoin="round" />
    <path d="M102.312 133.66C108.065 136.688 114.726 136.688 120.479 133.66" stroke="black"
        stroke-width="6.22858" stroke-linecap="round" stroke-linejoin="round" />
    <path
        d="M63.5558 157.277C51.4447 139.11 58.1058 132.146 63.8586 117.916C68.7031 105.199 63.253 98.2351 67.7947 81.5823C72.3364 64.9295 89.8975 54.3323 109.275 54.3323C125.625 54.3323 133.498 63.4156 133.498 63.4156C146.214 64.6267 155.903 75.224 155.903 87.6379C157.114 109.438 158.931 109.438 166.198 126.393C171.648 138.807 169.225 146.982 160.445 156.974"
        stroke="black" stroke-width="6.22858" stroke-linecap="round" stroke-linejoin="round" />
    <g filter="url(#filter0_b_5683_16365)">
        <path
            d="M69 246C75.6274 246 81 240.627 81 234C81 227.373 75.6274 222 69 222C62.3726 222 57 227.373 57 234C57 240.627 62.3726 246 69 246Z"
            fill="#FFBB36" fill-opacity="0.9" />
    </g>
    <path d="M69.0859 229.51L69.0859 235.11" stroke="white" stroke-width="1.79992"
        stroke-linecap="round" stroke-linejoin="round" />
    <circle cx="69.0859" cy="237.91" r="0.999953" fill="white" />
    <path
        d="M98.2315 240H94.2884V228.364H98.3111C99.4664 228.364 100.459 228.597 101.288 229.063C102.122 229.525 102.762 230.19 103.209 231.057C103.656 231.924 103.879 232.962 103.879 234.171C103.879 235.383 103.654 236.424 103.203 237.296C102.756 238.167 102.11 238.835 101.266 239.301C100.425 239.767 99.4134 240 98.2315 240ZM96.3963 238.176H98.1293C98.9399 238.176 99.616 238.029 100.158 237.733C100.699 237.434 101.107 236.989 101.379 236.398C101.652 235.803 101.788 235.061 101.788 234.171C101.788 233.281 101.652 232.542 101.379 231.955C101.107 231.364 100.703 230.923 100.169 230.631C99.6387 230.335 98.9796 230.188 98.1918 230.188H96.3963V238.176ZM109.655 240.171C108.78 240.171 108.024 239.989 107.388 239.625C106.755 239.258 106.268 238.739 105.928 238.068C105.587 237.394 105.416 236.601 105.416 235.688C105.416 234.79 105.587 234.002 105.928 233.324C106.272 232.642 106.753 232.112 107.371 231.733C107.988 231.351 108.714 231.159 109.547 231.159C110.085 231.159 110.592 231.246 111.07 231.421C111.551 231.591 111.975 231.856 112.342 232.216C112.714 232.576 113.005 233.034 113.217 233.591C113.429 234.144 113.536 234.803 113.536 235.568V236.199H106.382V234.813H111.564C111.56 234.419 111.475 234.068 111.308 233.762C111.142 233.451 110.909 233.207 110.609 233.029C110.314 232.851 109.969 232.762 109.575 232.762C109.155 232.762 108.786 232.864 108.467 233.068C108.149 233.269 107.901 233.534 107.723 233.864C107.549 234.19 107.46 234.548 107.456 234.938V236.148C107.456 236.656 107.549 237.091 107.734 237.455C107.92 237.815 108.179 238.091 108.513 238.284C108.846 238.474 109.236 238.568 109.683 238.568C109.982 238.568 110.253 238.527 110.496 238.443C110.738 238.356 110.948 238.229 111.126 238.063C111.304 237.896 111.439 237.69 111.53 237.443L113.45 237.659C113.329 238.167 113.098 238.61 112.757 238.989C112.42 239.364 111.988 239.656 111.462 239.864C110.935 240.068 110.333 240.171 109.655 240.171ZM119.139 240.171C118.264 240.171 117.509 239.989 116.872 239.625C116.24 239.258 115.753 238.739 115.412 238.068C115.071 237.394 114.901 236.601 114.901 235.688C114.901 234.79 115.071 234.002 115.412 233.324C115.757 232.642 116.238 232.112 116.855 231.733C117.473 231.351 118.198 231.159 119.031 231.159C119.569 231.159 120.077 231.246 120.554 231.421C121.035 231.591 121.459 231.856 121.827 232.216C122.198 232.576 122.49 233.034 122.702 233.591C122.914 234.144 123.02 234.803 123.02 235.568V236.199H115.866V234.813H121.048C121.045 234.419 120.959 234.068 120.793 233.762C120.626 233.451 120.393 233.207 120.094 233.029C119.798 232.851 119.454 232.762 119.06 232.762C118.639 232.762 118.27 232.864 117.952 233.068C117.634 233.269 117.385 233.534 117.207 233.864C117.033 234.19 116.944 234.548 116.94 234.938V236.148C116.94 236.656 117.033 237.091 117.219 237.455C117.404 237.815 117.664 238.091 117.997 238.284C118.33 238.474 118.721 238.568 119.168 238.568C119.467 238.568 119.738 238.527 119.98 238.443C120.223 238.356 120.433 238.229 120.611 238.063C120.789 237.896 120.923 237.69 121.014 237.443L122.935 237.659C122.813 238.167 122.582 238.61 122.241 238.989C121.904 239.364 121.473 239.656 120.946 239.864C120.42 240.068 119.817 240.171 119.139 240.171ZM124.76 243.273V231.273H126.783V232.716H126.902C127.008 232.504 127.158 232.279 127.351 232.04C127.544 231.798 127.805 231.591 128.135 231.421C128.464 231.246 128.885 231.159 129.396 231.159C130.071 231.159 130.679 231.332 131.22 231.676C131.766 232.017 132.197 232.523 132.516 233.193C132.838 233.86 132.999 234.678 132.999 235.648C132.999 236.606 132.841 237.421 132.527 238.091C132.213 238.762 131.785 239.273 131.243 239.625C130.701 239.978 130.088 240.154 129.402 240.154C128.902 240.154 128.487 240.07 128.158 239.904C127.828 239.737 127.563 239.536 127.362 239.301C127.165 239.063 127.012 238.837 126.902 238.625H126.817V243.273H124.76ZM126.777 235.637C126.777 236.201 126.857 236.695 127.016 237.12C127.179 237.544 127.411 237.875 127.714 238.114C128.021 238.349 128.393 238.466 128.828 238.466C129.283 238.466 129.663 238.345 129.97 238.103C130.277 237.856 130.508 237.521 130.663 237.097C130.822 236.669 130.902 236.182 130.902 235.637C130.902 235.095 130.824 234.614 130.669 234.193C130.514 233.773 130.283 233.443 129.976 233.205C129.669 232.966 129.286 232.847 128.828 232.847C128.389 232.847 128.016 232.962 127.709 233.193C127.402 233.424 127.169 233.748 127.01 234.165C126.855 234.582 126.777 235.072 126.777 235.637ZM139.18 231.273V232.864H134.021V231.273H139.18ZM135.311 240V230.449C135.311 229.862 135.432 229.373 135.675 228.983C135.921 228.593 136.25 228.301 136.663 228.108C137.076 227.915 137.535 227.818 138.038 227.818C138.394 227.818 138.711 227.847 138.987 227.904C139.264 227.96 139.468 228.012 139.601 228.057L139.192 229.648C139.105 229.621 138.995 229.595 138.862 229.568C138.73 229.538 138.582 229.523 138.419 229.523C138.036 229.523 137.766 229.616 137.607 229.801C137.451 229.983 137.374 230.245 137.374 230.585V240H135.311ZM143.006 240.176C142.453 240.176 141.955 240.078 141.511 239.881C141.072 239.68 140.723 239.385 140.466 238.995C140.212 238.604 140.085 238.123 140.085 237.551C140.085 237.059 140.176 236.652 140.358 236.33C140.54 236.008 140.788 235.75 141.102 235.557C141.417 235.364 141.771 235.218 142.165 235.12C142.563 235.017 142.973 234.943 143.398 234.898C143.909 234.845 144.324 234.798 144.642 234.756C144.96 234.71 145.191 234.642 145.335 234.551C145.483 234.457 145.557 234.311 145.557 234.114V234.08C145.557 233.652 145.43 233.32 145.176 233.085C144.922 232.851 144.557 232.733 144.08 232.733C143.576 232.733 143.176 232.843 142.881 233.063C142.589 233.282 142.392 233.542 142.29 233.841L140.369 233.568C140.521 233.038 140.771 232.595 141.119 232.239C141.468 231.879 141.894 231.61 142.398 231.432C142.902 231.25 143.458 231.159 144.068 231.159C144.489 231.159 144.907 231.209 145.324 231.307C145.741 231.406 146.121 231.568 146.466 231.796C146.811 232.019 147.087 232.324 147.295 232.71C147.508 233.097 147.614 233.58 147.614 234.159V240H145.636V238.801H145.568C145.443 239.044 145.267 239.271 145.04 239.483C144.816 239.692 144.534 239.86 144.193 239.989C143.856 240.114 143.46 240.176 143.006 240.176ZM143.54 238.665C143.953 238.665 144.311 238.584 144.614 238.421C144.917 238.254 145.15 238.034 145.312 237.762C145.479 237.489 145.562 237.192 145.562 236.87V235.841C145.498 235.894 145.388 235.943 145.233 235.989C145.081 236.034 144.911 236.074 144.722 236.108C144.532 236.142 144.345 236.173 144.159 236.199C143.973 236.226 143.813 236.248 143.676 236.267C143.369 236.309 143.095 236.377 142.852 236.472C142.61 236.567 142.419 236.699 142.278 236.87C142.138 237.036 142.068 237.252 142.068 237.517C142.068 237.896 142.206 238.182 142.483 238.375C142.759 238.568 143.112 238.665 143.54 238.665ZM151.557 237.262L151.551 234.779H151.881L155.017 231.273H157.42L153.562 235.568H153.136L151.557 237.262ZM149.682 240V228.364H151.739V240H149.682ZM155.159 240L152.318 236.029L153.705 234.58L157.619 240H155.159ZM162.295 240.171C161.42 240.171 160.665 239.989 160.028 239.625C159.396 239.258 158.909 238.739 158.568 238.068C158.227 237.394 158.057 236.601 158.057 235.688C158.057 234.79 158.227 234.002 158.568 233.324C158.913 232.642 159.394 232.112 160.011 231.733C160.629 231.351 161.354 231.159 162.188 231.159C162.725 231.159 163.233 231.246 163.71 231.421C164.191 231.591 164.616 231.856 164.983 232.216C165.354 232.576 165.646 233.034 165.858 233.591C166.07 234.144 166.176 234.803 166.176 235.568V236.199H159.023V234.813H164.205C164.201 234.419 164.116 234.068 163.949 233.762C163.782 233.451 163.549 233.207 163.25 233.029C162.955 232.851 162.61 232.762 162.216 232.762C161.795 232.762 161.426 232.864 161.108 233.068C160.79 233.269 160.542 233.534 160.364 233.864C160.189 234.19 160.1 234.548 160.097 234.938V236.148C160.097 236.656 160.189 237.091 160.375 237.455C160.561 237.815 160.82 238.091 161.153 238.284C161.487 238.474 161.877 238.568 162.324 238.568C162.623 238.568 162.894 238.527 163.136 238.443C163.379 238.356 163.589 238.229 163.767 238.063C163.945 237.896 164.08 237.69 164.17 237.443L166.091 237.659C165.97 238.167 165.739 238.61 165.398 238.989C165.061 239.364 164.629 239.656 164.102 239.864C163.576 240.068 162.973 240.171 162.295 240.171Z"
        fill="#FEC14A" />
    <line x1="219.5" y1="23" x2="219.5" y2="246" stroke="#E9EBFF" />
    <defs>
        <filter id="filter0_b_5683_16365" x="52.6071" y="217.607" width="32.7857" height="32.7857"
            filterUnits="userSpaceOnUse" color-interpolation-filters="sRGB">
            <feFlood flood-opacity="0" result="BackgroundImageFix" />
            <feGaussianBlur in="BackgroundImageFix" stdDeviation="2.19643" />
            <feComposite in2="SourceAlpha" operator="in" result="effect1_backgroundBlur_5683_16365" />
            <feBlend mode="normal" in="SourceGraphic" in2="effect1_backgroundBlur_5683_16365"
                result="shape" />
        </filter>
    </defs>
</svg>