<svg width="252" height="402" viewBox="0 0 252 402" fill="none" xmlns="http://www.w3.org/2000/svg">
    <g filter="url(#filter0_b_5683_15960)">
        <path
            d="M129.523 282.166C139.743 282.166 148.027 273.881 148.027 263.662C148.027 253.443 139.743 245.158 129.523 245.158C119.304 245.158 111.02 253.443 111.02 263.662C111.02 273.881 119.304 282.166 129.523 282.166Z"
            fill="#FFBB36" fill-opacity="0.9" />
    </g>
    <path d="M129.65 256.752L129.65 265.387" stroke="white" stroke-width="2.77543"
        stroke-linecap="round" stroke-linejoin="round" />
    <circle cx="129.653" cy="269.703" r="1.54191" fill="white" />
    <g filter="url(#filter1_f_5683_15960)">
        <rect x="52.543" y="23.7766" width="170.774" height="353.915" rx="35.3326" fill="#35353D"
            fill-opacity="0.12" />
    </g>
    <rect x="40.7637" y="12" width="170.774" height="353.915" rx="23.5551" fill="#E6E9EF" />
    <path
        d="M39 84.4319C39 83.4562 39.7909 82.6653 40.7666 82.6653V95.6206C39.7909 95.6206 39 94.8296 39 93.8539V84.4319Z"
        fill="#E6E9EF" />
    <path
        d="M39 109.753C39 108.777 39.7909 107.986 40.7666 107.986V134.486C39.7909 134.486 39 133.695 39 132.719V109.753Z"
        fill="#E6E9EF" />
    <path
        d="M39 143.908C39 142.932 39.7909 142.141 40.7666 142.141V168.641C39.7909 168.641 39 167.85 39 166.874V143.908Z"
        fill="#E6E9EF" />
    <path
        d="M213.309 118.587C213.309 117.611 212.518 116.82 211.542 116.82V159.219C212.518 159.219 213.309 158.428 213.309 157.453V118.587Z"
        fill="#E6E9EF" />
    <rect x="46.6582" y="17.8894" width="158.997" height="342.137" rx="18.844" fill="white" />
    <path
        d="M92.5879 12H157.953V16.1916C157.953 21.6821 153.502 26.133 148.012 26.133H102.529C97.0388 26.133 92.5879 21.6821 92.5879 16.1916V12Z"
        fill="#E6E9EF" />
    <g filter="url(#filter2_d_5683_15960)">
        <rect x="21.9902" y="107" width="208.009" height="124.806" rx="10.6633" fill="white" />
    </g>
    <rect x="31.8965" y="149.593" width="45.564" height="57.4502" rx="3.96209" fill="#E0E2F7" />
    <path
        d="M73.2082 206.506V202.709C73.2082 197.963 68.462 194.166 63.7157 194.166C58.0202 198.912 52.3247 198.912 46.6292 194.166C41.883 194.166 37.1367 197.963 37.1367 202.709V206.506H73.2082Z"
        fill="#FFDC94" />
    <path
        d="M61.0576 167.587C62.1967 167.682 64.0952 169.011 65.8038 175.846V176.225C65.3477 178.129 64.6791 179.976 63.8104 181.731C63.8104 181.731 62.0068 184.579 61.2474 180.592C57.1807 179.453 52.879 179.453 48.8123 180.592C48.0529 184.579 46.2493 181.731 46.2493 181.731C45.3806 179.976 44.712 178.129 44.2559 176.225V175.846C46.9138 165.309 50.1412 167.682 50.1412 167.682C54.3179 169.486 54.6976 169.77 60.2033 167.682C60.2033 167.682 60.6779 167.492 61.3424 167.208L61.0576 167.587Z"
        fill="#DA8F58" />
    <path d="M50.0469 182.016H60.4886V189.23H50.0469V182.016Z" fill="#DA8F58" />
    <path
        d="M65.7099 176.13V175.751C64.0012 168.916 62.1027 167.587 60.9636 167.492V167.207C60.6314 167.376 60.2811 167.503 59.9194 167.587C54.4138 169.676 54.129 169.391 49.8574 167.587C49.8574 167.587 46.6299 165.214 43.972 175.751V176.13C43.402 174.024 43.2764 171.823 43.6032 169.666C43.9301 167.509 44.7022 165.443 45.8705 163.6C48.9081 158.949 58.1159 161.322 58.1159 161.322L61.0585 159.044L62.1027 161.987L65.52 159.708C65.8563 160.565 65.9274 161.502 65.7243 162.399C65.5212 163.296 65.0532 164.112 64.3809 164.739L64.4758 164.834C66.1687 168.347 66.6043 172.335 65.7099 176.13ZM64.0961 186.857C63.5951 187.827 62.9193 188.696 62.1027 189.42C60.1593 191.095 57.6394 191.946 55.0783 191.793H54.7935C52.2324 191.946 49.7124 191.095 47.769 189.42C46.9802 188.67 46.3081 187.806 45.7756 186.857C44.3764 184.272 43.7503 181.339 43.972 178.409C44.067 177.459 44.067 176.51 44.067 176.13C44.5231 178.035 45.1917 179.881 46.0604 181.636C46.0604 181.636 47.9589 184.484 48.6234 180.497C52.69 179.358 56.992 179.358 61.0585 180.497C61.8179 184.484 63.6215 181.636 63.6215 181.636C64.4902 179.881 65.1588 178.035 65.6149 176.13C65.7943 176.877 65.8902 177.641 65.8997 178.409C66.1214 181.339 65.4954 184.272 64.0961 186.857ZM58.9702 183.819C58.9697 183.568 58.8695 183.327 58.6916 183.149C58.5137 182.971 58.2725 182.871 58.0209 182.87L55.0783 184.294L52.2305 182.87C52.1039 182.862 51.9771 182.882 51.8584 182.927C51.7398 182.972 51.6321 183.042 51.5424 183.131C51.4527 183.221 51.383 183.329 51.338 183.447C51.293 183.566 51.2737 183.693 51.2813 183.819V185.623C51.2813 186.287 52.8001 187.521 55.0783 187.521C57.3565 187.521 58.8753 186.287 58.8753 185.623V183.819H58.9702Z"
        fill="#5F5E5D" />
    <path
        d="M73.2082 205.557V202.709C73.2082 197.963 68.462 194.166 63.7157 194.166C58.0202 198.912 52.3247 198.912 46.6292 194.166C41.883 194.166 37.1367 197.963 37.1367 202.709V205.557"
        stroke="#2D467E" stroke-width="1.98104" stroke-linecap="round" stroke-linejoin="round" />
    <path
        d="M58.9691 173.947C59.4726 173.947 59.9555 174.147 60.3115 174.503C60.6675 174.859 60.8676 175.342 60.8676 175.846C60.8676 176.349 60.6675 176.832 60.3115 177.188C59.9555 177.544 59.4726 177.744 58.9691 177.744C58.4655 177.744 57.9827 177.544 57.6266 177.188C57.2706 176.832 57.0706 176.349 57.0706 175.846C57.0706 175.342 57.2706 174.859 57.6266 174.503C57.9827 174.147 58.4655 173.947 58.9691 173.947ZM58.8741 183.25C58.973 183.476 58.9786 183.733 58.8898 183.964C58.801 184.195 58.6249 184.382 58.3995 184.484C57.3741 185.014 56.231 185.275 55.0771 185.243C53.9588 185.228 52.8572 184.969 51.8497 184.484C51.6243 184.382 51.4482 184.195 51.3594 183.964C51.2706 183.733 51.2762 183.476 51.3751 183.25C51.4223 183.136 51.4941 183.034 51.5853 182.951C51.6765 182.868 51.7849 182.806 51.9028 182.77C52.0207 182.733 52.1451 182.724 52.2671 182.741C52.3892 182.758 52.506 182.802 52.6091 182.87C54.1089 183.724 55.9504 183.724 57.4503 182.87C57.6897 182.733 57.9737 182.696 58.2403 182.767C58.5069 182.838 58.7347 183.012 58.8741 183.25ZM51.3751 173.947C51.8786 173.947 52.3615 174.147 52.7175 174.503C53.0735 174.859 53.2736 175.342 53.2736 175.846C53.2736 176.349 53.0735 176.832 52.7175 177.188C52.3615 177.544 51.8786 177.744 51.3751 177.744C50.8715 177.744 50.3887 177.544 50.0326 177.188C49.6766 176.832 49.4766 176.349 49.4766 175.846C49.4766 175.342 49.6766 174.859 50.0326 174.503C50.3887 174.147 50.8715 173.947 51.3751 173.947Z"
        fill="#2D467E" />
    <path
        d="M44.0663 176.13C44.0663 176.51 44.0663 177.459 43.9714 178.408C43.7497 181.339 44.3758 184.272 45.775 186.857C46.3075 187.806 46.9796 188.67 47.7684 189.42C49.7182 191.083 52.2335 191.933 54.7928 191.793"
        stroke="#2D467E" stroke-width="1.98104" stroke-linecap="round" stroke-linejoin="round" />
    <path
        d="M65.8042 175.846V176.226C65.3481 178.13 64.6795 179.977 63.8108 181.732C63.8108 181.732 62.0072 184.579 61.2478 180.592C57.1811 179.453 52.8794 179.453 48.8127 180.592C48.0533 184.579 46.2497 181.732 46.2497 181.732C45.381 179.977 44.7124 178.13 44.2563 176.226C44.2563 176.131 44.0664 174.992 44.0664 174.802"
        stroke="#2D467E" stroke-width="1.98104" stroke-linecap="round" stroke-linejoin="round" />
    <path
        d="M65.8056 176.13C65.8056 176.51 65.9005 177.459 65.9005 178.409C66.1222 181.339 65.4961 184.272 64.0969 186.857C63.5958 187.827 62.92 188.696 62.1035 189.42C60.1601 191.095 57.6401 191.946 55.079 191.793H54.7943M60.8695 167.492H61.0593C62.1984 167.587 64.0969 168.916 65.8056 175.751M44.0677 176.13C43.4977 174.024 43.3721 171.823 43.6989 169.666C44.0258 167.509 44.7979 165.443 45.9662 163.6C49.0038 158.949 58.2116 161.322 58.2116 161.322L61.1542 159.044L62.1984 161.987L65.4259 159.613C65.7621 160.47 65.8333 161.407 65.6302 162.304C65.4271 163.201 64.959 164.017 64.2868 164.645C63.3304 165.628 62.205 166.432 60.9644 167.018C60.6099 167.231 60.2261 167.391 59.8253 167.492C54.3196 169.581 54.0349 169.296 49.7632 167.492C49.7632 167.492 46.6307 165.119 43.9728 175.656L44.0677 176.13Z"
        stroke="#2D467E" stroke-width="1.98104" stroke-linecap="round" stroke-linejoin="round" />
    <path d="M64.4746 164.834C66.1709 168.344 66.6389 172.322 65.8036 176.13" stroke="#2D467E"
        stroke-width="1.98104" stroke-linecap="round" stroke-linejoin="round" />
    <rect x="30.1617" y="116.163" width="191.666" height="24.2678" rx="3.71445" stroke="#E2E8F0"
        stroke-width="0.495261" />
    <path
        d="M40.3837 131.792H38.3407V126.029H40.4006C40.9802 126.029 41.4793 126.144 41.8976 126.375C42.3159 126.604 42.6377 126.933 42.8628 127.363C43.0898 127.792 43.2033 128.306 43.2033 128.905C43.2033 129.505 43.0898 130.021 42.8628 130.452C42.6377 130.884 42.3141 131.215 41.892 131.446C41.4718 131.676 40.969 131.792 40.3837 131.792ZM39.5592 130.748H40.333C40.6932 130.748 40.9962 130.684 41.2419 130.556C41.4896 130.427 41.6753 130.227 41.7991 129.957C41.9248 129.685 41.9877 129.334 41.9877 128.905C41.9877 128.479 41.9248 128.131 41.7991 127.861C41.6753 127.59 41.4905 127.392 41.2448 127.264C40.999 127.136 40.696 127.073 40.3358 127.073H39.5592V130.748ZM44.1059 131.792V126.029H46.3796C46.8148 126.029 47.1862 126.107 47.4939 126.262C47.8034 126.416 48.0389 126.635 48.2002 126.918C48.3634 127.199 48.445 127.53 48.445 127.911C48.445 128.294 48.3625 128.623 48.1974 128.899C48.0323 129.173 47.7931 129.383 47.4798 129.529C47.1684 129.676 46.7914 129.749 46.3486 129.749H44.8263V128.77H46.1516C46.3843 128.77 46.5775 128.738 46.7313 128.674C46.8852 128.61 46.9996 128.514 47.0746 128.387C47.1515 128.259 47.19 128.101 47.19 127.911C47.19 127.72 47.1515 127.559 47.0746 127.427C46.9996 127.296 46.8842 127.197 46.7285 127.129C46.5747 127.06 46.3805 127.025 46.146 127.025H45.3243V131.792H44.1059ZM47.2181 129.169L48.6505 131.792H47.3054L45.904 129.169H47.2181ZM50.5246 126.029V131.792H49.3061V126.029H50.5246ZM52.5682 126.029L53.9611 130.407H54.0146L55.4103 126.029H56.7611L54.7744 131.792H53.2042L51.2147 126.029H52.5682ZM57.4547 131.792V126.029H61.338V127.033H58.6732V128.407H61.1382V129.411H58.6732V130.787H61.3492V131.792H57.4547ZM62.3067 131.792V126.029H64.5804C65.0156 126.029 65.3871 126.107 65.6947 126.262C66.0043 126.416 66.2397 126.635 66.401 126.918C66.5643 127.199 66.6459 127.53 66.6459 127.911C66.6459 128.294 66.5633 128.623 66.3982 128.899C66.2331 129.173 65.994 129.383 65.6807 129.529C65.3693 129.676 64.9922 129.749 64.5494 129.749H63.0271V128.77H64.3525C64.5851 128.77 64.7783 128.738 64.9321 128.674C65.086 128.61 65.2004 128.514 65.2755 128.387C65.3524 128.259 65.3908 128.101 65.3908 127.911C65.3908 127.72 65.3524 127.559 65.2755 127.427C65.2004 127.296 65.085 127.197 64.9293 127.129C64.7755 127.06 64.5813 127.025 64.3468 127.025H63.5252V131.792H62.3067ZM65.419 129.169L66.8513 131.792H65.5062L64.1048 129.169H65.419ZM69.341 131.792V126.029H70.5594V130.787H73.0301V131.792H69.341ZM75.0554 126.029V131.792H73.837V126.029H75.0554ZM81.1428 128.046H79.9103C79.8878 127.887 79.8418 127.745 79.7724 127.621C79.703 127.496 79.6139 127.389 79.5051 127.301C79.3962 127.212 79.2706 127.145 79.128 127.098C78.9873 127.051 78.8344 127.028 78.6693 127.028C78.371 127.028 78.1112 127.102 77.8898 127.25C77.6685 127.396 77.4968 127.61 77.3749 127.892C77.2529 128.171 77.192 128.511 77.192 128.91C77.192 129.321 77.2529 129.666 77.3749 129.946C77.4987 130.225 77.6713 130.436 77.8926 130.579C78.114 130.721 78.3701 130.793 78.6609 130.793C78.8241 130.793 78.9751 130.771 79.1139 130.728C79.2546 130.685 79.3794 130.622 79.4882 130.54C79.597 130.455 79.687 130.353 79.7583 130.233C79.8315 130.113 79.8821 129.976 79.9103 129.822L81.1428 129.828C81.1109 130.092 81.0312 130.347 80.9036 130.593C80.7779 130.837 80.6081 131.055 80.3943 131.249C80.1823 131.44 79.929 131.592 79.6345 131.705C79.3418 131.815 79.0107 131.871 78.6412 131.871C78.1271 131.871 77.6675 131.754 77.2623 131.522C76.859 131.289 76.5401 130.952 76.3056 130.511C76.0729 130.071 75.9566 129.537 75.9566 128.91C75.9566 128.282 76.0748 127.747 76.3112 127.306C76.5476 126.865 76.8684 126.53 77.2736 126.299C77.6788 126.066 78.1346 125.95 78.6412 125.95C78.9751 125.95 79.2846 125.997 79.5698 126.091C79.8568 126.184 80.111 126.321 80.3324 126.501C80.5537 126.68 80.7338 126.898 80.8726 127.157C81.0133 127.416 81.1034 127.712 81.1428 128.046ZM82.0165 131.792V126.029H85.8998V127.033H83.235V128.407H85.7V129.411H83.235V130.787H85.9111V131.792H82.0165ZM91.6889 126.029V131.792H90.6365L88.1292 128.165H88.087V131.792H86.8685V126.029H87.9379L90.4254 129.653H90.4761V126.029H91.6889ZM97.7805 128.046H96.5479C96.5254 127.887 96.4795 127.745 96.41 127.621C96.3406 127.496 96.2515 127.389 96.1427 127.301C96.0339 127.212 95.9082 127.145 95.7656 127.098C95.6249 127.051 95.4721 127.028 95.307 127.028C95.0087 127.028 94.7489 127.102 94.5275 127.25C94.3061 127.396 94.1345 127.61 94.0125 127.892C93.8906 128.171 93.8296 128.511 93.8296 128.91C93.8296 129.321 93.8906 129.666 94.0125 129.946C94.1363 130.225 94.3089 130.436 94.5303 130.579C94.7517 130.721 95.0077 130.793 95.2985 130.793C95.4617 130.793 95.6128 130.771 95.7516 130.728C95.8923 130.685 96.017 130.622 96.1258 130.54C96.2346 130.455 96.3247 130.353 96.396 130.233C96.4691 130.113 96.5198 129.976 96.5479 129.822L97.7805 129.828C97.7486 130.092 97.6688 130.347 97.5413 130.593C97.4156 130.837 97.2458 131.055 97.0319 131.249C96.8199 131.44 96.5667 131.592 96.2722 131.705C95.9795 131.815 95.6484 131.871 95.2788 131.871C94.7648 131.871 94.3052 131.754 93.9 131.522C93.4966 131.289 93.1777 130.952 92.9432 130.511C92.7106 130.071 92.5943 129.537 92.5943 128.91C92.5943 128.282 92.7125 127.747 92.9488 127.306C93.1852 126.865 93.506 126.53 93.9112 126.299C94.3164 126.066 94.7723 125.95 95.2788 125.95C95.6128 125.95 95.9223 125.997 96.2074 126.091C96.4945 126.184 96.7487 126.321 96.97 126.501C97.1914 126.68 97.3715 126.898 97.5103 127.157C97.651 127.416 97.7411 127.712 97.7805 128.046ZM98.6542 131.792V126.029H102.537V127.033H99.8726V128.407H102.338V129.411H99.8726V130.787H102.549V131.792H98.6542Z"
        fill="#4959E7" />
    <rect x="95.2891" y="155.536" width="120.844" height="5.94313" rx="2.97156" fill="#F1F1F1" />
    <rect x="95.2891" y="167.423" width="89.1469" height="5.94313" rx="2.97156" fill="#F1F1F1" />
    <rect x="95.2891" y="201.099" width="55.4692" height="5.94313" rx="2.97156" fill="#F1F1F1" />
    <rect x="95.2891" y="179.309" width="110.938" height="5.94313" rx="2.97156" fill="#F1F1F1" />
    <rect x="53.5" y="255.5" width="143" height="36.8069" rx="5.5" fill="#EAF5FF" />
    <g filter="url(#filter3_b_5683_15960)">
        <path
            d="M72.7944 279.205C75.7217 279.205 78.0947 276.832 78.0947 273.905C78.0947 270.978 75.7217 268.605 72.7944 268.605C69.8671 268.605 67.4941 270.978 67.4941 273.905C67.4941 276.832 69.8671 279.205 72.7944 279.205Z"
            fill="#5463E8" />
    </g>
    <path d="M72.832 271.927L72.832 274.4" stroke="white" stroke-width="0.795002"
        stroke-linecap="round" stroke-linejoin="round" />
    <circle cx="72.8323" cy="275.636" r="0.441668" fill="white" />
    <path
        d="M84.6429 276.404V270.836H88.2099V271.681H85.6516V273.193H87.9652V274.038H85.6516V276.404H84.6429ZM89.0255 276.404V272.228H89.9798V272.924H90.0233C90.0994 272.683 90.2299 272.497 90.4148 272.366C90.6015 272.234 90.8145 272.168 91.0537 272.168C91.1081 272.168 91.1688 272.17 91.2359 272.176C91.3047 272.18 91.3618 272.186 91.4071 272.195V273.1C91.3655 273.086 91.2993 273.073 91.2087 273.062C91.1199 273.05 91.0338 273.043 90.9504 273.043C90.771 273.043 90.6096 273.082 90.4665 273.16C90.3251 273.236 90.2136 273.342 90.1321 273.478C90.0505 273.614 90.0097 273.771 90.0097 273.949V276.404H89.0255ZM93.7106 276.485C93.3028 276.485 92.9493 276.395 92.6503 276.216C92.3512 276.037 92.1192 275.786 91.9543 275.463C91.7912 275.14 91.7096 274.763 91.7096 274.332C91.7096 273.901 91.7912 273.523 91.9543 273.198C92.1192 272.874 92.3512 272.622 92.6503 272.442C92.9493 272.263 93.3028 272.173 93.7106 272.173C94.1184 272.173 94.4718 272.263 94.7709 272.442C95.07 272.622 95.301 272.874 95.4642 273.198C95.6291 273.523 95.7116 273.901 95.7116 274.332C95.7116 274.763 95.6291 275.14 95.4642 275.463C95.301 275.786 95.07 276.037 94.7709 276.216C94.4718 276.395 94.1184 276.485 93.7106 276.485ZM93.716 275.697C93.9371 275.697 94.122 275.636 94.2706 275.515C94.4193 275.391 94.5298 275.226 94.6023 275.02C94.6766 274.813 94.7138 274.583 94.7138 274.329C94.7138 274.074 94.6766 273.843 94.6023 273.636C94.5298 273.427 94.4193 273.262 94.2706 273.138C94.122 273.015 93.9371 272.953 93.716 272.953C93.4895 272.953 93.301 273.015 93.1505 273.138C93.0019 273.262 92.8904 273.427 92.8161 273.636C92.7436 273.843 92.7074 274.074 92.7074 274.329C92.7074 274.583 92.7436 274.813 92.8161 275.02C92.8904 275.226 93.0019 275.391 93.1505 275.515C93.301 275.636 93.4895 275.697 93.716 275.697ZM97.5311 273.957V276.404H96.5469V272.228H97.4876V272.937H97.5365C97.6326 272.703 97.7857 272.518 97.996 272.38C98.2081 272.242 98.47 272.173 98.7817 272.173C99.0699 272.173 99.3209 272.235 99.5348 272.358C99.7505 272.481 99.9172 272.66 100.035 272.894C100.155 273.127 100.214 273.411 100.212 273.745V276.404H99.2276V273.897C99.2276 273.618 99.1551 273.399 99.0101 273.242C98.8669 273.084 98.6684 273.005 98.4147 273.005C98.2425 273.005 98.0893 273.043 97.9552 273.119C97.8229 273.194 97.7187 273.301 97.6426 273.443C97.5682 273.584 97.5311 273.756 97.5311 273.957ZM103.298 272.228V272.989H100.897V272.228H103.298ZM101.49 271.227H102.474V275.148C102.474 275.28 102.494 275.381 102.534 275.452C102.575 275.521 102.63 275.568 102.697 275.593C102.764 275.619 102.838 275.631 102.92 275.631C102.981 275.631 103.037 275.627 103.088 275.618C103.141 275.609 103.181 275.601 103.208 275.593L103.374 276.363C103.321 276.381 103.246 276.401 103.148 276.423C103.052 276.444 102.934 276.457 102.795 276.461C102.548 276.468 102.326 276.431 102.128 276.349C101.931 276.266 101.774 276.137 101.658 275.963C101.544 275.789 101.488 275.572 101.49 275.311V271.227ZM107.841 276.485C107.433 276.485 107.08 276.395 106.781 276.216C106.482 276.037 106.25 275.786 106.085 275.463C105.922 275.14 105.84 274.763 105.84 274.332C105.84 273.901 105.922 273.523 106.085 273.198C106.25 272.874 106.482 272.622 106.781 272.442C107.08 272.263 107.433 272.173 107.841 272.173C108.249 272.173 108.602 272.263 108.902 272.442C109.201 272.622 109.432 272.874 109.595 273.198C109.76 273.523 109.842 273.901 109.842 274.332C109.842 274.763 109.76 275.14 109.595 275.463C109.432 275.786 109.201 276.037 108.902 276.216C108.602 276.395 108.249 276.485 107.841 276.485ZM107.847 275.697C108.068 275.697 108.253 275.636 108.401 275.515C108.55 275.391 108.66 275.226 108.733 275.02C108.807 274.813 108.844 274.583 108.844 274.329C108.844 274.074 108.807 273.843 108.733 273.636C108.66 273.427 108.55 273.262 108.401 273.138C108.253 273.015 108.068 272.953 107.847 272.953C107.62 272.953 107.432 273.015 107.281 273.138C107.133 273.262 107.021 273.427 106.947 273.636C106.874 273.843 106.838 274.074 106.838 274.329C106.838 274.583 106.874 274.813 106.947 275.02C107.021 275.226 107.133 275.391 107.281 275.515C107.432 275.636 107.62 275.697 107.847 275.697ZM112.793 272.228V272.989H110.324V272.228H112.793ZM110.941 276.404V271.833C110.941 271.552 110.999 271.319 111.115 271.132C111.233 270.945 111.391 270.806 111.588 270.713C111.786 270.621 112.005 270.575 112.246 270.575C112.417 270.575 112.568 270.588 112.7 270.615C112.833 270.643 112.93 270.667 112.994 270.689L112.798 271.45C112.756 271.437 112.704 271.425 112.64 271.412C112.577 271.397 112.506 271.39 112.428 271.39C112.245 271.39 112.116 271.435 112.04 271.523C111.965 271.61 111.928 271.735 111.928 271.899V276.404H110.941ZM117.548 272.228V272.989H115.147V272.228H117.548ZM115.74 271.227H116.724V275.148C116.724 275.28 116.744 275.381 116.784 275.452C116.825 275.521 116.88 275.568 116.947 275.593C117.014 275.619 117.088 275.631 117.17 275.631C117.231 275.631 117.288 275.627 117.338 275.618C117.391 275.609 117.431 275.601 117.458 275.593L117.624 276.363C117.571 276.381 117.496 276.401 117.398 276.423C117.302 276.444 117.184 276.457 117.045 276.461C116.798 276.468 116.576 276.431 116.379 276.349C116.181 276.266 116.024 276.137 115.908 275.963C115.794 275.789 115.738 275.572 115.74 275.311V271.227ZM119.445 273.957V276.404H118.461V270.836H119.423V272.937H119.472C119.57 272.702 119.721 272.516 119.926 272.38C120.133 272.242 120.395 272.173 120.714 272.173C121.004 272.173 121.257 272.234 121.473 272.355C121.689 272.477 121.855 272.654 121.973 272.888C122.093 273.122 122.153 273.408 122.153 273.745V276.404H121.168V273.897C121.168 273.616 121.096 273.398 120.951 273.242C120.808 273.084 120.607 273.005 120.347 273.005C120.173 273.005 120.017 273.043 119.88 273.119C119.744 273.194 119.637 273.301 119.559 273.443C119.483 273.584 119.445 273.756 119.445 273.957ZM125.005 276.485C124.586 276.485 124.224 276.398 123.92 276.224C123.617 276.048 123.384 275.8 123.221 275.479C123.058 275.157 122.976 274.777 122.976 274.34C122.976 273.91 123.058 273.533 123.221 273.209C123.386 272.883 123.616 272.629 123.912 272.448C124.207 272.265 124.554 272.173 124.953 272.173C125.21 272.173 125.453 272.215 125.682 272.298C125.912 272.38 126.115 272.507 126.291 272.679C126.468 272.851 126.608 273.07 126.709 273.337C126.811 273.601 126.861 273.917 126.861 274.283V274.585H123.439V273.921H125.918C125.916 273.733 125.875 273.565 125.796 273.418C125.716 273.27 125.604 273.153 125.461 273.068C125.32 272.982 125.155 272.94 124.967 272.94C124.765 272.94 124.589 272.989 124.436 273.087C124.284 273.183 124.165 273.31 124.08 273.467C123.997 273.623 123.954 273.794 123.952 273.981V274.56C123.952 274.803 123.997 275.012 124.086 275.186C124.174 275.358 124.299 275.49 124.458 275.583C124.618 275.673 124.804 275.718 125.018 275.718C125.161 275.718 125.291 275.699 125.407 275.659C125.523 275.617 125.624 275.556 125.709 275.476C125.794 275.397 125.858 275.298 125.902 275.18L126.821 275.283C126.763 275.526 126.652 275.738 126.489 275.92C126.328 276.099 126.121 276.239 125.869 276.338C125.617 276.436 125.329 276.485 125.005 276.485ZM131.523 276.404H129.637V270.836H131.561C132.114 270.836 132.589 270.947 132.986 271.17C133.385 271.391 133.691 271.709 133.905 272.124C134.119 272.539 134.226 273.036 134.226 273.614C134.226 274.194 134.118 274.693 133.902 275.109C133.688 275.526 133.379 275.846 132.975 276.069C132.573 276.292 132.089 276.404 131.523 276.404ZM130.645 275.531H131.474C131.862 275.531 132.186 275.46 132.445 275.319C132.704 275.176 132.899 274.963 133.03 274.68C133.16 274.395 133.225 274.04 133.225 273.614C133.225 273.188 133.16 272.835 133.03 272.554C132.899 272.271 132.706 272.06 132.45 271.92C132.197 271.779 131.881 271.708 131.504 271.708H130.645V275.531ZM135.141 276.404V272.228H136.095V272.924H136.138C136.215 272.683 136.345 272.497 136.53 272.366C136.717 272.234 136.93 272.168 137.169 272.168C137.223 272.168 137.284 272.17 137.351 272.176C137.42 272.18 137.477 272.186 137.522 272.195V273.1C137.481 273.086 137.414 273.073 137.324 273.062C137.235 273.05 137.149 273.043 137.066 273.043C136.886 273.043 136.725 273.082 136.582 273.16C136.44 273.236 136.329 273.342 136.247 273.478C136.166 273.614 136.125 273.771 136.125 273.949V276.404H135.141ZM138.176 276.404V272.228H139.16V276.404H138.176ZM138.671 271.635C138.515 271.635 138.381 271.583 138.269 271.48C138.156 271.375 138.1 271.249 138.1 271.102C138.1 270.953 138.156 270.827 138.269 270.724C138.381 270.619 138.515 270.566 138.671 270.566C138.829 270.566 138.963 270.619 139.073 270.724C139.186 270.827 139.242 270.953 139.242 271.102C139.242 271.249 139.186 271.375 139.073 271.48C138.963 271.583 138.829 271.635 138.671 271.635ZM143.902 272.228L142.415 276.404H141.328L139.841 272.228H140.89L141.85 275.33H141.893L142.856 272.228H143.902ZM146.29 276.485C145.872 276.485 145.51 276.398 145.205 276.224C144.903 276.048 144.67 275.8 144.507 275.479C144.344 275.157 144.262 274.777 144.262 274.34C144.262 273.91 144.344 273.533 144.507 273.209C144.672 272.883 144.902 272.629 145.197 272.448C145.493 272.265 145.84 272.173 146.239 272.173C146.496 272.173 146.739 272.215 146.967 272.298C147.197 272.38 147.4 272.507 147.576 272.679C147.754 272.851 147.893 273.07 147.995 273.337C148.096 273.601 148.147 273.917 148.147 274.283V274.585H144.724V273.921H147.204C147.202 273.733 147.161 273.565 147.081 273.418C147.002 273.27 146.89 273.153 146.747 273.068C146.606 272.982 146.441 272.94 146.252 272.94C146.051 272.94 145.874 272.989 145.722 273.087C145.57 273.183 145.451 273.31 145.366 273.467C145.282 273.623 145.24 273.794 145.238 273.981V274.56C145.238 274.803 145.282 275.012 145.371 275.186C145.46 275.358 145.584 275.49 145.744 275.583C145.903 275.673 146.09 275.718 146.304 275.718C146.447 275.718 146.577 275.699 146.693 275.659C146.809 275.617 146.909 275.556 146.994 275.476C147.08 275.397 147.144 275.298 147.187 275.18L148.106 275.283C148.048 275.526 147.938 275.738 147.775 275.92C147.613 276.099 147.407 276.239 147.155 276.338C146.903 276.436 146.615 276.485 146.29 276.485ZM148.98 276.404V272.228H149.934V272.924H149.977C150.054 272.683 150.184 272.497 150.369 272.366C150.556 272.234 150.769 272.168 151.008 272.168C151.062 272.168 151.123 272.17 151.19 272.176C151.259 272.18 151.316 272.186 151.361 272.195V273.1C151.32 273.086 151.253 273.073 151.163 273.062C151.074 273.05 150.988 273.043 150.905 273.043C150.725 273.043 150.564 273.082 150.421 273.16C150.279 273.236 150.168 273.342 150.086 273.478C150.005 273.614 149.964 273.771 149.964 273.949V276.404H148.98ZM153.958 276.404V270.836H154.966V275.558H157.419V276.404H153.958ZM158.251 276.404V272.228H159.235V276.404H158.251ZM158.745 271.635C158.59 271.635 158.455 271.583 158.343 271.48C158.231 271.375 158.174 271.249 158.174 271.102C158.174 270.953 158.231 270.827 158.343 270.724C158.455 270.619 158.59 270.566 158.745 270.566C158.903 270.566 159.037 270.619 159.148 270.724C159.26 270.827 159.316 270.953 159.316 271.102C159.316 271.249 159.26 271.375 159.148 271.48C159.037 271.583 158.903 271.635 158.745 271.635ZM162.068 276.485C161.651 276.485 161.294 276.394 160.994 276.211C160.697 276.027 160.468 275.775 160.307 275.452C160.147 275.128 160.067 274.754 160.067 274.332C160.067 273.908 160.149 273.533 160.312 273.209C160.475 272.883 160.705 272.629 161.003 272.448C161.302 272.265 161.655 272.173 162.063 272.173C162.402 272.173 162.702 272.236 162.963 272.361C163.226 272.484 163.435 272.659 163.591 272.886C163.747 273.11 163.836 273.373 163.857 273.674H162.917C162.879 273.473 162.788 273.305 162.645 273.171C162.503 273.035 162.314 272.967 162.077 272.967C161.875 272.967 161.699 273.021 161.546 273.13C161.394 273.237 161.275 273.391 161.19 273.592C161.107 273.794 161.065 274.035 161.065 274.316C161.065 274.6 161.107 274.845 161.19 275.05C161.274 275.253 161.39 275.409 161.541 275.52C161.693 275.629 161.872 275.683 162.077 275.683C162.222 275.683 162.351 275.656 162.465 275.602C162.581 275.545 162.678 275.465 162.756 275.36C162.834 275.254 162.888 275.127 162.917 274.976H163.857C163.834 275.272 163.747 275.534 163.596 275.762C163.446 275.989 163.241 276.166 162.982 276.295C162.723 276.422 162.418 276.485 162.068 276.485ZM166.514 276.485C166.095 276.485 165.734 276.398 165.429 276.224C165.127 276.048 164.894 275.8 164.731 275.479C164.568 275.157 164.486 274.777 164.486 274.34C164.486 273.91 164.568 273.533 164.731 273.209C164.896 272.883 165.126 272.629 165.421 272.448C165.717 272.265 166.064 272.173 166.463 272.173C166.72 272.173 166.963 272.215 167.191 272.298C167.421 272.38 167.624 272.507 167.8 272.679C167.978 272.851 168.117 273.07 168.219 273.337C168.32 273.601 168.371 273.917 168.371 274.283V274.585H164.948V273.921H167.428C167.426 273.733 167.385 273.565 167.305 273.418C167.226 273.27 167.114 273.153 166.971 273.068C166.83 272.982 166.665 272.94 166.476 272.94C166.275 272.94 166.098 272.989 165.946 273.087C165.794 273.183 165.675 273.31 165.59 273.467C165.506 273.623 165.464 273.794 165.462 273.981V274.56C165.462 274.803 165.506 275.012 165.595 275.186C165.684 275.358 165.808 275.49 165.968 275.583C166.127 275.673 166.314 275.718 166.528 275.718C166.671 275.718 166.801 275.699 166.917 275.659C167.033 275.617 167.133 275.556 167.218 275.476C167.304 275.397 167.368 275.298 167.411 275.18L168.33 275.283C168.272 275.526 168.162 275.738 167.999 275.92C167.837 276.099 167.631 276.239 167.379 276.338C167.127 276.436 166.839 276.485 166.514 276.485ZM170.188 273.957V276.404H169.204V272.228H170.144V272.937H170.193C170.289 272.703 170.443 272.518 170.653 272.38C170.865 272.242 171.127 272.173 171.438 272.173C171.727 272.173 171.978 272.235 172.192 272.358C172.407 272.481 172.574 272.66 172.692 272.894C172.811 273.127 172.87 273.411 172.869 273.745V276.404H171.884V273.897C171.884 273.618 171.812 273.399 171.667 273.242C171.524 273.084 171.325 273.005 171.071 273.005C170.899 273.005 170.746 273.043 170.612 273.119C170.48 273.194 170.375 273.301 170.299 273.443C170.225 273.584 170.188 273.756 170.188 273.957ZM175.691 276.485C175.274 276.485 174.916 276.394 174.617 276.211C174.319 276.027 174.09 275.775 173.929 275.452C173.769 275.128 173.69 274.754 173.69 274.332C173.69 273.908 173.771 273.533 173.934 273.209C174.097 272.883 174.328 272.629 174.625 272.448C174.924 272.265 175.277 272.173 175.685 272.173C176.024 272.173 176.324 272.236 176.585 272.361C176.848 272.484 177.057 272.659 177.213 272.886C177.369 273.11 177.458 273.373 177.48 273.674H176.539C176.501 273.473 176.41 273.305 176.267 273.171C176.126 273.035 175.936 272.967 175.699 272.967C175.498 272.967 175.321 273.021 175.169 273.13C175.016 273.237 174.898 273.391 174.812 273.592C174.729 273.794 174.687 274.035 174.687 274.316C174.687 274.6 174.729 274.845 174.812 275.05C174.896 275.253 175.013 275.409 175.163 275.52C175.315 275.629 175.494 275.683 175.699 275.683C175.844 275.683 175.973 275.656 176.088 275.602C176.204 275.545 176.3 275.465 176.378 275.36C176.456 275.254 176.51 275.127 176.539 274.976H177.48C177.456 275.272 177.369 275.534 177.219 275.762C177.068 275.989 176.863 276.166 176.604 276.295C176.345 276.422 176.04 276.485 175.691 276.485ZM180.136 276.485C179.718 276.485 179.356 276.398 179.052 276.224C178.749 276.048 178.516 275.8 178.353 275.479C178.19 275.157 178.108 274.777 178.108 274.34C178.108 273.91 178.19 273.533 178.353 273.209C178.518 272.883 178.748 272.629 179.043 272.448C179.339 272.265 179.686 272.173 180.085 272.173C180.342 272.173 180.585 272.215 180.813 272.298C181.044 272.38 181.247 272.507 181.422 272.679C181.6 272.851 181.74 273.07 181.841 273.337C181.943 273.601 181.993 273.917 181.993 274.283V274.585H178.57V273.921H181.05C181.048 273.733 181.007 273.565 180.928 273.418C180.848 273.27 180.736 273.153 180.593 273.068C180.452 272.982 180.287 272.94 180.098 272.94C179.897 272.94 179.72 272.989 179.568 273.087C179.416 273.183 179.297 273.31 179.212 273.467C179.129 273.623 179.086 273.794 179.084 273.981V274.56C179.084 274.803 179.129 275.012 179.217 275.186C179.306 275.358 179.43 275.49 179.59 275.583C179.749 275.673 179.936 275.718 180.15 275.718C180.293 275.718 180.423 275.699 180.539 275.659C180.655 275.617 180.755 275.556 180.841 275.476C180.926 275.397 180.99 275.298 181.034 275.18L181.953 275.283C181.895 275.526 181.784 275.738 181.621 275.92C181.46 276.099 181.253 276.239 181.001 276.338C180.749 276.436 180.461 276.485 180.136 276.485Z"
        fill="#110F24" />
    <rect x="53.5" y="255.5" width="143" height="36.8069" rx="5.5" stroke="#4959E7" />
    <g clip-path="url(#clip0_5683_15960)">
        <path fill-rule="evenodd" clip-rule="evenodd"
            d="M110.411 54.5456C110.879 54.5506 111.342 54.4624 111.775 54.2863C112.208 54.1102 112.601 53.8497 112.932 53.52C113.263 53.1903 113.525 52.7979 113.703 52.3659C113.88 51.9338 113.97 51.4707 113.967 51.0035C113.945 50.0746 113.561 49.1911 112.896 48.5418C112.232 47.8925 111.34 47.5291 110.41 47.5291C109.481 47.5291 108.589 47.8925 107.924 48.5418C107.26 49.1911 106.875 50.0746 106.854 51.0035C106.85 51.4708 106.94 51.9341 107.118 52.3663C107.296 52.7985 107.558 53.191 107.89 53.5207C108.221 53.8505 108.614 54.1109 109.047 54.2869C109.48 54.4629 109.944 54.5508 110.411 54.5456ZM110.411 52.6455C109.461 52.6455 108.808 51.9437 108.808 51.0035C108.808 50.0632 109.461 49.3594 110.411 49.3594C111.361 49.3594 112.012 50.0612 112.012 51.0035C112.012 51.9457 111.359 52.6475 110.411 52.6475V52.6455Z"
            fill="#4959E7" />
        <path fill-rule="evenodd" clip-rule="evenodd"
            d="M126.307 51.7738C126.356 51.5194 126.38 51.2608 126.379 51.0016C126.379 49.0273 124.983 47.4575 122.972 47.4575C120.915 47.4575 119.402 48.9315 119.402 51.0016C119.402 53.1656 120.997 54.5438 123.117 54.5438C124.289 54.5438 125.314 54.1528 126.016 53.1989L124.452 52.3016C124.099 52.6358 123.628 52.8171 123.142 52.8059C122.407 52.8059 121.744 52.5714 121.474 51.8285L121.453 51.7738H126.307ZM121.439 50.2842C121.635 49.5433 122.202 49.1817 122.958 49.1817C123.294 49.1638 123.626 49.2643 123.896 49.4658C124.165 49.6672 124.356 49.9568 124.434 50.2842L124.448 50.335H121.426L121.439 50.2842Z"
            fill="#4959E7" />
        <path fill-rule="evenodd" clip-rule="evenodd"
            d="M117.733 47.6492H118.926V49.5747H117.733C117.459 49.5762 117.196 49.6858 117.001 49.8797C116.807 50.0736 116.697 50.3363 116.695 50.6107V54.3562H114.771V50.6107C114.774 49.8259 115.086 49.0738 115.641 48.5189C116.196 47.9639 116.948 47.6512 117.733 47.6492Z"
            fill="#4959E7" />
        <path fill-rule="evenodd" clip-rule="evenodd"
            d="M103.876 46.001H106.148V47.9206H103.876C103.359 47.9237 102.863 48.1306 102.498 48.4966C102.132 48.8625 101.925 49.358 101.922 49.8755V50.4775C101.925 50.995 102.132 51.4905 102.498 51.8564C102.863 52.2224 103.359 52.4293 103.876 52.4324H106.148V54.352H103.876C102.85 54.3494 101.866 53.9407 101.14 53.2152C100.413 52.4896 100.004 51.5061 100 50.4795V49.8774C100.003 48.8501 100.412 47.8656 101.138 47.1392C101.865 46.4128 102.849 46.0036 103.876 46.001Z"
            fill="#4959E7" />
        <path fill-rule="evenodd" clip-rule="evenodd"
            d="M148.96 46.001H151.232V47.9206H148.96C148.443 47.9237 147.947 48.1306 147.582 48.4966C147.216 48.8625 147.009 49.358 147.006 49.8755V50.4775C147.009 50.995 147.216 51.4905 147.582 51.8564C147.947 52.2224 148.443 52.4293 148.96 52.4324H151.232V54.352H148.96C147.933 54.3489 146.949 53.9395 146.223 53.2131C145.497 52.4867 145.089 51.5026 145.086 50.4756V49.8774C145.089 48.8504 145.497 47.8663 146.223 47.1399C146.949 46.4135 147.933 46.0041 148.96 46.001V46.001Z"
            fill="#4959E7" />
        <path fill-rule="evenodd" clip-rule="evenodd"
            d="M131.131 50.804V54.3559H129.139V46.001H131.131V48.8179H131.316C131.728 48.8184 132.136 48.7348 132.515 48.5721C132.893 48.4094 133.234 48.1711 133.517 47.8718C134.014 47.3765 134.334 46.7325 134.43 46.0381V46.001H136.426V46.0479C136.317 47.2647 135.784 48.4044 134.919 49.2675C134.585 49.6014 134.208 49.8887 133.797 50.1218L133.615 50.2254L136.692 54.3559H134.21L131.639 50.804H131.131Z"
            fill="#4959E7" />
        <path fill-rule="evenodd" clip-rule="evenodd"
            d="M142.145 51.2302V54.3559H140.233V51.2282L137.344 46.001H139.504L141.216 49.1443L142.856 46.001H144.938L142.145 51.2302Z"
            fill="#4959E7" />
    </g>
    <defs>
        <filter id="filter0_b_5683_15960" x="104.246" y="238.385" width="50.5552" height="50.555"
            filterUnits="userSpaceOnUse" color-interpolation-filters="sRGB">
            <feFlood flood-opacity="0" result="BackgroundImageFix" />
            <feGaussianBlur in="BackgroundImageFix" stdDeviation="3.38685" />
            <feComposite in2="SourceAlpha" operator="in" result="effect1_backgroundBlur_5683_15960" />
            <feBlend mode="normal" in="SourceGraphic" in2="effect1_backgroundBlur_5683_15960"
                result="shape" />
        </filter>
        <filter id="filter1_f_5683_15960" x="28.9879" y="0.221552" width="217.884" height="401.025"
            filterUnits="userSpaceOnUse" color-interpolation-filters="sRGB">
            <feFlood flood-opacity="0" result="BackgroundImageFix" />
            <feBlend mode="normal" in="SourceGraphic" in2="BackgroundImageFix" result="shape" />
            <feGaussianBlur stdDeviation="11.7775" result="effect1_foregroundBlur_5683_15960" />
        </filter>
        <filter id="filter2_d_5683_15960" x="0.794237" y="84.5647" width="250.402" height="167.198"
            filterUnits="userSpaceOnUse" color-interpolation-filters="sRGB">
            <feFlood flood-opacity="0" result="BackgroundImageFix" />
            <feColorMatrix in="SourceAlpha" type="matrix"
                values="0 0 0 0 0 0 0 0 0 0 0 0 0 0 0 0 0 0 127 0" result="hardAlpha" />
            <feOffset dy="-1.23953" />
            <feGaussianBlur stdDeviation="10.598" />
            <feComposite in2="hardAlpha" operator="out" />
            <feColorMatrix type="matrix"
                values="0 0 0 0 0.913725 0 0 0 0 0.917647 0 0 0 0 0.929412 0 0 0 1 0" />
            <feBlend mode="normal" in2="BackgroundImageFix" result="effect1_dropShadow_5683_15960" />
            <feBlend mode="normal" in="SourceGraphic" in2="effect1_dropShadow_5683_15960"
                result="shape" />
        </filter>
        <filter id="filter3_b_5683_15960" x="65.5539" y="266.664" width="14.4802" height="14.4811"
            filterUnits="userSpaceOnUse" color-interpolation-filters="sRGB">
            <feFlood flood-opacity="0" result="BackgroundImageFix" />
            <feGaussianBlur in="BackgroundImageFix" stdDeviation="0.970138" />
            <feComposite in2="SourceAlpha" operator="in" result="effect1_backgroundBlur_5683_15960" />
            <feBlend mode="normal" in="SourceGraphic" in2="effect1_backgroundBlur_5683_15960"
                result="shape" />
        </filter>
        <clipPath id="clip0_5683_15960">
            <rect width="51.2323" height="8.54458" fill="white" transform="translate(100 46)" />
        </clipPath>
    </defs>
</svg>