<svg width="209" height="366" viewBox="0 0 209 366" fill="none" xmlns="http://www.w3.org/2000/svg">
    <path
        d="M108.522 270.166C118.742 270.166 127.026 261.881 127.026 251.662C127.026 241.443 118.742 233.158 108.522 233.158C98.303 233.158 90.0186 241.443 90.0186 251.662C90.0186 261.881 98.303 270.166 108.522 270.166Z"
        fill="#FFBB36" fill-opacity="0.9" />
    <path
        d="M110.195 257.703C110.195 258.554 109.505 259.245 108.653 259.245C107.801 259.245 107.111 258.554 107.111 257.703C107.111 256.851 107.801 256.161 108.653 256.161C109.505 256.161 110.195 256.851 110.195 257.703Z"
        fill="white" />
    <path
        d="M31.5422 47.109C31.5422 27.5954 47.3611 11.7765 66.8748 11.7765H166.984C186.497 11.7765 202.316 27.5954 202.316 47.1091V330.359C202.316 349.872 186.497 365.691 166.984 365.691H66.8747C47.3611 365.691 31.5422 349.872 31.5422 330.359V47.109Z"
        fill="#35353D" fill-opacity="0.12" />
    <path
        d="M19.7636 23.555C19.7636 10.5459 30.3095 0 43.3186 0H166.983C179.992 0 190.538 10.546 190.538 23.5551V330.36C190.538 343.369 179.992 353.915 166.983 353.915H43.3186C30.3095 353.915 19.7636 343.369 19.7636 330.36V23.555Z"
        fill="#E6E9EF" />
    <path
        d="M17.9997 72.4319V72.4319C17.9997 70.8992 19.7664 71.9077 19.7664 73.4404V80.8454C19.7664 82.3781 17.9997 83.3866 17.9997 81.8539V81.8539V72.4319Z"
        fill="#E6E9EF" />
    <path
        d="M17.9997 97.7529C17.9997 96.7772 18.7907 95.9863 19.7664 95.9863V122.486C18.7907 122.486 17.9997 121.695 17.9997 120.719V97.7529Z"
        fill="#E6E9EF" />
    <path
        d="M17.9997 131.908C17.9997 130.932 18.7907 130.141 19.7664 130.141V156.641C18.7907 156.641 17.9997 155.85 17.9997 154.874V131.908Z"
        fill="#E6E9EF" />
    <path
        d="M192.309 106.587C192.309 105.611 191.518 104.82 190.542 104.82V147.219C191.518 147.219 192.309 146.428 192.309 145.453V106.587Z"
        fill="#E6E9EF" />
    <path
        d="M25.6571 24.7333C25.6571 14.326 34.0938 5.8893 44.5011 5.8893H165.81C176.217 5.8893 184.654 14.3261 184.654 24.7333V329.183C184.654 339.59 176.217 348.027 165.81 348.027H44.5011C34.0939 348.027 25.6571 339.59 25.6571 329.183V24.7333Z"
        fill="white" />
    <path
        d="M71.5885 0H136.954V4.19161C136.954 9.68211 132.503 14.133 127.012 14.133H81.53C76.0395 14.133 71.5885 9.68211 71.5885 4.19161V0Z"
        fill="#E6E9EF" />
    <path
        d="M0.990234 105.663C0.990234 99.7743 5.76434 95.0002 11.6535 95.0002H198.336C204.226 95.0002 209 99.7743 209 105.663V209.143C209 215.032 204.226 219.806 198.336 219.806H11.6535C5.76436 219.806 0.990234 215.032 0.990234 209.143V105.663Z"
        fill="white" />
    <path
        d="M10.8955 141.555C10.8955 139.367 12.6694 137.593 14.8576 137.593H52.4974C54.6856 137.593 56.4594 139.367 56.4594 141.555V191.081C56.4594 193.269 54.6856 195.043 52.4974 195.043H14.8576C12.6694 195.043 10.8955 193.269 10.8955 191.081V141.555Z"
        fill="#E0E2F7" />
    <path
        d="M52.2084 194.506V190.709C52.2084 185.963 47.4622 182.166 42.7159 182.166C37.0204 186.912 31.3249 186.912 25.6294 182.166C20.8832 182.166 16.1369 185.963 16.1369 190.709V194.506H52.2084Z"
        fill="#FFDC94" />
    <path
        d="M40.0581 155.587C41.1972 155.682 43.0957 157.011 44.8043 163.846V164.225C44.3482 166.129 43.6795 167.976 42.8109 169.731C42.8109 169.731 41.0073 172.579 40.2479 168.592C36.1811 167.452 31.8795 167.452 27.8127 168.592C27.0533 172.579 25.2498 169.731 25.2498 169.731C24.3811 167.976 23.7124 166.129 23.2563 164.225V163.846C25.9142 153.309 29.1417 155.682 29.1417 155.682C33.3184 157.486 33.6981 157.77 39.2037 155.682C39.2037 155.682 39.6784 155.492 40.3428 155.207L40.0581 155.587Z"
        fill="#DA8F58" />
    <path d="M29.0467 170.016H39.4884V177.23H29.0467V170.016Z" fill="#DA8F58" />
    <path
        d="M44.7094 164.13V163.751C43.0007 156.916 41.1022 155.587 39.9631 155.492V155.207C39.6309 155.375 39.2806 155.503 38.9189 155.587C33.4133 157.675 33.1285 157.391 28.8569 155.587C28.8569 155.587 25.6295 153.214 22.9716 163.751V164.13C22.4015 162.024 22.2759 159.823 22.6028 157.666C22.9296 155.508 23.7017 153.443 24.8701 151.6C27.9077 146.949 37.1154 149.322 37.1154 149.322L40.058 147.044L41.1022 149.987L44.5195 147.708C44.8558 148.565 44.927 149.502 44.7238 150.399C44.5207 151.296 44.0527 152.112 43.3804 152.739L43.4753 152.834C45.1682 156.347 45.6038 160.335 44.7094 164.13ZM43.0956 174.857C42.5946 175.827 41.9188 176.696 41.1022 177.42C39.1588 179.095 36.6389 179.946 34.0778 179.793H33.793C31.2319 179.946 28.712 179.095 26.7686 177.42C25.9797 176.67 25.3077 175.806 24.7751 174.857C23.3759 172.272 22.7498 169.339 22.9716 166.409C23.0665 165.459 23.0665 164.51 23.0665 164.13C23.5226 166.035 24.1912 167.881 25.0599 169.636C25.0599 169.636 26.9584 172.484 27.6229 168.497C31.6895 167.358 35.9915 167.358 40.058 168.497C40.8174 172.484 42.621 169.636 42.621 169.636C43.4897 167.881 44.1584 166.035 44.6144 164.13C44.7939 164.877 44.8897 165.641 44.8992 166.409C45.1209 169.339 44.4949 172.272 43.0956 174.857ZM37.9697 171.819C37.9692 171.568 37.869 171.327 37.6911 171.149C37.5132 170.971 37.272 170.871 37.0204 170.87L34.0778 172.294L31.23 170.87C31.1034 170.862 30.9766 170.882 30.8579 170.927C30.7393 170.972 30.6316 171.041 30.5419 171.131C30.4522 171.221 30.3825 171.329 30.3375 171.447C30.2925 171.566 30.2732 171.693 30.2808 171.819V173.623C30.2808 174.287 31.7996 175.521 34.0778 175.521C36.356 175.521 37.8748 174.287 37.8748 173.623V171.819H37.9697Z"
        fill="#5F5E5D" />
    <path
        d="M37.9697 161.947C38.4732 161.947 38.9561 162.147 39.3121 162.503C39.6681 162.859 39.8682 163.342 39.8682 163.845C39.8682 164.349 39.6681 164.832 39.3121 165.188C38.9561 165.544 38.4732 165.744 37.9697 165.744C37.4661 165.744 36.9833 165.544 36.6272 165.188C36.2712 164.832 36.0712 164.349 36.0712 163.845C36.0712 163.342 36.2712 162.859 36.6272 162.503C36.9833 162.147 37.4661 161.947 37.9697 161.947ZM37.8747 171.25C37.9736 171.476 37.9792 171.733 37.8904 171.964C37.8016 172.195 37.6255 172.382 37.4001 172.484C36.3747 173.014 35.2316 173.275 34.0777 173.243C32.9594 173.228 31.8578 172.969 30.8503 172.484C30.6249 172.382 30.4488 172.195 30.36 171.964C30.2712 171.733 30.2768 171.476 30.3757 171.25C30.4229 171.136 30.4947 171.034 30.5859 170.951C30.6771 170.868 30.7855 170.806 30.9034 170.77C31.0213 170.733 31.1457 170.724 31.2677 170.741C31.3898 170.758 31.5066 170.802 31.6097 170.87C33.1095 171.724 34.9511 171.724 36.4509 170.87C36.6903 170.733 36.9743 170.696 37.2409 170.767C37.5075 170.838 37.7353 171.011 37.8747 171.25ZM30.3757 161.947C30.8792 161.947 31.3621 162.147 31.7181 162.503C32.0741 162.859 32.2742 163.342 32.2742 163.845C32.2742 164.349 32.0741 164.832 31.7181 165.188C31.3621 165.544 30.8792 165.744 30.3757 165.744C29.8722 165.744 29.3893 165.544 29.0332 165.188C28.6772 164.832 28.4772 164.349 28.4772 163.845C28.4772 163.342 28.6772 162.859 29.0332 162.503C29.3893 162.147 29.8722 161.947 30.3757 161.947Z"
        fill="#2D467E" />
    <path
        d="M19.3824 119.792H17.3395V114.029H19.3993C19.979 114.029 20.478 114.144 20.8964 114.375C21.3147 114.604 21.6364 114.933 21.8616 115.363C22.0885 115.792 22.202 116.306 22.202 116.905C22.202 117.505 22.0885 118.021 21.8616 118.452C21.6364 118.884 21.3128 119.215 20.8907 119.446C20.4705 119.676 19.9677 119.792 19.3824 119.792ZM18.5579 118.748H19.3318C19.692 118.748 19.9949 118.684 20.2407 118.557C20.4883 118.427 20.6741 118.227 20.7979 117.957C20.9236 117.685 20.9864 117.334 20.9864 116.905C20.9864 116.479 20.9236 116.131 20.7979 115.861C20.6741 115.591 20.4893 115.392 20.2435 115.264C19.9978 115.137 19.6948 115.073 19.3346 115.073H18.5579V118.748Z"
        fill="#4959E7" />
    <path
        d="M23.1046 119.792V114.029H25.3783C25.8136 114.029 26.185 114.107 26.4927 114.262C26.8022 114.416 27.0376 114.635 27.199 114.918C27.3622 115.199 27.4438 115.531 27.4438 115.911C27.4438 116.294 27.3612 116.623 27.1962 116.899C27.0311 117.173 26.7919 117.383 26.4786 117.529C26.1672 117.676 25.7901 117.749 25.3474 117.749H23.825V116.77H25.1504C25.383 116.77 25.5762 116.738 25.7301 116.674C25.8839 116.61 25.9983 116.515 26.0734 116.387C26.1503 116.259 26.1888 116.101 26.1888 115.911C26.1888 115.72 26.1503 115.559 26.0734 115.427C25.9983 115.296 25.883 115.197 25.7273 115.129C25.5734 115.06 25.3793 115.025 25.1448 115.025H24.3231V119.792H23.1046ZM26.2169 117.169L27.6492 119.792H26.3041L24.9028 117.169H26.2169Z"
        fill="#4959E7" />
    <path d="M29.5233 114.029V119.792H28.3049V114.029H29.5233Z" fill="#4959E7" />
    <path
        d="M31.567 114.029L32.9599 118.407H33.0134L34.4091 114.029H35.7598L33.7731 119.792H32.2029L30.2134 114.029H31.567Z"
        fill="#4959E7" />
    <path
        d="M36.4535 119.792V114.029H40.3367V115.033H37.6719V116.407H40.137V117.411H37.6719V118.787H40.348V119.792H36.4535Z"
        fill="#4959E7" />
    <path
        d="M41.3055 119.792V114.029H43.5792C44.0144 114.029 44.3858 114.107 44.6935 114.262C45.003 114.416 45.2385 114.635 45.3998 114.918C45.563 115.199 45.6446 115.531 45.6446 115.911C45.6446 116.294 45.5621 116.623 45.397 116.899C45.2319 117.173 44.9927 117.383 44.6794 117.529C44.368 117.676 43.9909 117.749 43.5482 117.749H42.0258V116.77H43.3512C43.5838 116.77 43.7771 116.738 43.9309 116.674C44.0847 116.61 44.1992 116.515 44.2742 116.387C44.3511 116.259 44.3896 116.101 44.3896 115.911C44.3896 115.72 44.3511 115.559 44.2742 115.427C44.1992 115.296 44.0838 115.197 43.9281 115.129C43.7743 115.06 43.5801 115.025 43.3456 115.025H42.5239V119.792H41.3055ZM44.4177 117.169L45.85 119.792H44.505L43.1036 117.169H44.4177Z"
        fill="#4959E7" />
    <path d="M48.3397 119.792V114.029H49.5582V118.787H52.0288V119.792H48.3397Z" fill="#4959E7" />
    <path d="M54.0542 114.029V119.792H52.8357V114.029H54.0542Z" fill="#4959E7" />
    <path
        d="M60.1415 116.046H58.909C58.8865 115.887 58.8405 115.745 58.7711 115.622C58.7017 115.496 58.6126 115.389 58.5038 115.301C58.395 115.213 58.2693 115.145 58.1267 115.098C57.986 115.051 57.8331 115.028 57.6681 115.028C57.3698 115.028 57.1099 115.102 56.8886 115.25C56.6672 115.396 56.4956 115.61 56.3736 115.892C56.2517 116.171 56.1907 116.511 56.1907 116.91C56.1907 117.321 56.2517 117.666 56.3736 117.946C56.4974 118.225 56.67 118.436 56.8914 118.579C57.1128 118.722 57.3688 118.793 57.6596 118.793C57.8228 118.793 57.9738 118.771 58.1127 118.728C58.2534 118.685 58.3781 118.622 58.4869 118.54C58.5957 118.455 58.6858 118.353 58.7571 118.233C58.8302 118.113 58.8809 117.976 58.909 117.822L60.1415 117.828C60.1097 118.092 60.0299 118.347 59.9024 118.593C59.7767 118.837 59.6069 119.056 59.393 119.249C59.181 119.44 58.9278 119.592 58.6333 119.705C58.3406 119.815 58.0095 119.871 57.6399 119.871C57.1259 119.871 56.6663 119.754 56.2611 119.522C55.8577 119.289 55.5388 118.952 55.3043 118.512C55.0717 118.071 54.9554 117.537 54.9554 116.91C54.9554 116.282 55.0736 115.747 55.3099 115.306C55.5463 114.866 55.8671 114.53 56.2723 114.299C56.6775 114.066 57.1334 113.95 57.6399 113.95C57.9738 113.95 58.2834 113.997 58.5685 114.091C58.8556 114.185 59.1097 114.321 59.3311 114.502C59.5525 114.68 59.7326 114.898 59.8714 115.157C60.0121 115.416 60.1021 115.713 60.1415 116.046Z"
        fill="#4959E7" />
    <path
        d="M61.0153 119.792V114.029H64.8986V115.033H62.2337V116.407H64.6988V117.411H62.2337V118.787H64.9098V119.792H61.0153Z"
        fill="#4959E7" />
    <path
        d="M70.6876 114.029V119.792H69.6352L67.128 116.165H67.0857V119.792H65.8673V114.029H66.9366L69.4242 117.653H69.4748V114.029H70.6876Z"
        fill="#4959E7" />
    <path
        d="M76.7792 116.046H75.5467C75.5242 115.887 75.4782 115.745 75.4088 115.622C75.3394 115.496 75.2503 115.389 75.1415 115.301C75.0327 115.213 74.907 115.145 74.7644 115.098C74.6237 115.051 74.4708 115.028 74.3057 115.028C74.0074 115.028 73.7476 115.102 73.5262 115.25C73.3049 115.396 73.1332 115.61 73.0113 115.892C72.8893 116.171 72.8284 116.511 72.8284 116.91C72.8284 117.321 72.8893 117.666 73.0113 117.946C73.1351 118.225 73.3077 118.436 73.5291 118.579C73.7504 118.722 74.0065 118.793 74.2973 118.793C74.4605 118.793 74.6115 118.771 74.7503 118.728C74.891 118.685 75.0158 118.622 75.1246 118.54C75.2334 118.455 75.3234 118.353 75.3947 118.233C75.4679 118.113 75.5185 117.976 75.5467 117.822L76.7792 117.828C76.7473 118.092 76.6676 118.347 76.54 118.593C76.4143 118.837 76.2445 119.056 76.0307 119.249C75.8187 119.44 75.5654 119.592 75.2709 119.705C74.9783 119.815 74.6471 119.871 74.2776 119.871C73.7636 119.871 73.3039 119.754 72.8987 119.522C72.4954 119.289 72.1765 118.952 71.942 118.512C71.7093 118.071 71.593 117.537 71.593 116.91C71.593 116.282 71.7112 115.747 71.9476 115.306C72.184 114.866 72.5048 114.53 72.91 114.299C73.3152 114.066 73.7711 113.95 74.2776 113.95C74.6115 113.95 74.921 113.997 75.2062 114.091C75.4932 114.185 75.7474 114.321 75.9688 114.502C76.1901 114.68 76.3702 114.898 76.5091 115.157C76.6498 115.416 76.7398 115.713 76.7792 116.046Z"
        fill="#4959E7" />
    <path
        d="M77.6529 119.792V114.029H81.5362V115.033H78.8714V116.407H81.3364V117.411H78.8714V118.787H81.5475V119.792H77.6529Z"
        fill="#4959E7" />
    <path
        d="M74.2888 146.507C74.2888 144.866 75.6192 143.536 77.2604 143.536H192.161C193.802 143.536 195.132 144.866 195.132 146.507C195.132 148.148 193.802 149.479 192.161 149.479H77.2604C75.6192 149.479 74.2888 148.148 74.2888 146.507Z"
        fill="#F1F1F1" />
    <path
        d="M74.2888 158.394C74.2888 156.753 75.6192 155.423 77.2604 155.423H160.464C162.105 155.423 163.436 156.753 163.436 158.394C163.436 160.035 162.105 161.366 160.464 161.366H77.2604C75.6192 161.366 74.2888 160.035 74.2888 158.394Z"
        fill="#F1F1F1" />
    <path
        d="M74.2888 192.071C74.2888 190.43 75.6192 189.099 77.2604 189.099H126.786C128.428 189.099 129.758 190.43 129.758 192.071C129.758 193.712 128.428 195.042 126.786 195.042H77.2604C75.6192 195.042 74.2888 193.712 74.2888 192.071Z"
        fill="#F1F1F1" />
    <path
        d="M74.2888 170.28C74.2888 168.639 75.6192 167.309 77.2604 167.309H182.256C183.897 167.309 185.227 168.639 185.227 170.28C185.227 171.922 183.897 173.252 182.256 173.252H77.2604C75.6192 173.252 74.2888 171.922 74.2888 170.28Z"
        fill="#F1F1F1" />
    <path
        d="M51.7956 267.205C54.7228 267.205 57.0958 264.832 57.0958 261.905C57.0958 258.978 54.7228 256.605 51.7956 256.605C48.8683 256.605 46.4953 258.978 46.4953 261.905C46.4953 264.832 48.8683 267.205 51.7956 267.205Z"
        fill="#5463E8" />
    <path
        d="M52.2747 263.636C52.2747 263.88 52.077 264.078 51.833 264.078C51.5891 264.078 51.3914 263.88 51.3914 263.636C51.3914 263.392 51.5891 263.194 51.833 263.194C52.077 263.194 52.2747 263.392 52.2747 263.636Z"
        fill="white" />
    <path
        d="M63.6445 264.403V258.836H67.2115V259.681H64.6532V261.193H66.9668V262.038H64.6532V264.403H63.6445Z"
        fill="#110F24" />
    <path
        d="M68.0271 264.403V260.228H68.9814V260.923H69.0249C69.101 260.682 69.2315 260.497 69.4164 260.366C69.6031 260.234 69.8161 260.168 70.0553 260.168C70.1097 260.168 70.1704 260.17 70.2375 260.176C70.3063 260.179 70.3634 260.186 70.4088 260.195V261.1C70.3671 261.086 70.3009 261.073 70.2103 261.062C70.1215 261.049 70.0354 261.043 69.952 261.043C69.7726 261.043 69.6113 261.082 69.4681 261.16C69.3267 261.236 69.2152 261.342 69.1337 261.478C69.0521 261.614 69.0113 261.771 69.0113 261.948V264.403H68.0271Z"
        fill="#110F24" />
    <path
        d="M72.7122 264.485C72.3044 264.485 71.951 264.395 71.6519 264.216C71.3528 264.036 71.1208 263.785 70.9559 263.463C70.7928 263.14 70.7112 262.763 70.7112 262.332C70.7112 261.9 70.7928 261.523 70.9559 261.198C71.1208 260.874 71.3528 260.622 71.6519 260.442C71.951 260.263 72.3044 260.173 72.7122 260.173C73.12 260.173 73.4734 260.263 73.7725 260.442C74.0716 260.622 74.3027 260.874 74.4658 261.198C74.6307 261.523 74.7132 261.9 74.7132 262.332C74.7132 262.763 74.6307 263.14 74.4658 263.463C74.3027 263.785 74.0716 264.036 73.7725 264.216C73.4734 264.395 73.12 264.485 72.7122 264.485ZM72.7176 263.697C72.9388 263.697 73.1236 263.636 73.2723 263.514C73.4209 263.391 73.5314 263.226 73.6039 263.02C73.6783 262.813 73.7154 262.583 73.7154 262.329C73.7154 262.074 73.6783 261.842 73.6039 261.636C73.5314 261.427 73.4209 261.262 73.2723 261.138C73.1236 261.015 72.9388 260.953 72.7176 260.953C72.4911 260.953 72.3026 261.015 72.1521 261.138C72.0035 261.262 71.8921 261.427 71.8177 261.636C71.7452 261.842 71.709 262.074 71.709 262.329C71.709 262.583 71.7452 262.813 71.8177 263.02C71.8921 263.226 72.0035 263.391 72.1521 263.514C72.3026 263.636 72.4911 263.697 72.7176 263.697Z"
        fill="#110F24" />
    <path
        d="M76.5327 261.957V264.403H75.5485V260.228H76.4892V260.937H76.5381C76.6342 260.703 76.7874 260.518 76.9976 260.38C77.2097 260.242 77.4716 260.173 77.7833 260.173C78.0715 260.173 78.3225 260.235 78.5364 260.358C78.7521 260.481 78.9188 260.66 79.0367 260.894C79.1563 261.127 79.2152 261.411 79.2134 261.745V264.403H78.2292V261.897C78.2292 261.618 78.1567 261.399 78.0117 261.242C77.8685 261.084 77.67 261.005 77.4163 261.005C77.2441 261.005 77.0909 261.043 76.9568 261.119C76.8245 261.194 76.7203 261.301 76.6442 261.443C76.5699 261.584 76.5327 261.755 76.5327 261.957Z"
        fill="#110F24" />
    <path
        d="M82.2991 260.228V260.989H79.8985V260.228H82.2991ZM80.4912 259.227H81.4754V263.147C81.4754 263.28 81.4953 263.381 81.5352 263.452C81.5769 263.521 81.6312 263.568 81.6983 263.593C81.7654 263.619 81.8397 263.631 81.9212 263.631C81.9829 263.631 82.039 263.627 82.0898 263.618C82.1424 263.609 82.1822 263.601 82.2094 263.593L82.3753 264.363C82.3227 264.381 82.2475 264.401 82.1496 264.423C82.0535 264.444 81.9357 264.457 81.7962 264.461C81.5497 264.468 81.3276 264.431 81.1301 264.349C80.9325 264.266 80.7757 264.137 80.6597 263.963C80.5455 263.789 80.4894 263.572 80.4912 263.311V259.227Z"
        fill="#110F24" />
    <path
        d="M86.8428 264.485C86.435 264.485 86.0816 264.395 85.7825 264.216C85.4834 264.036 85.2515 263.785 85.0865 263.463C84.9234 263.14 84.8418 262.763 84.8418 262.332C84.8418 261.9 84.9234 261.523 85.0865 261.198C85.2515 260.874 85.4834 260.622 85.7825 260.442C86.0816 260.263 86.435 260.173 86.8428 260.173C87.2506 260.173 87.6041 260.263 87.9031 260.442C88.2022 260.622 88.4333 260.874 88.5964 261.198C88.7613 261.523 88.8438 261.9 88.8438 262.332C88.8438 262.763 88.7613 263.14 88.5964 263.463C88.4333 263.785 88.2022 264.036 87.9031 264.216C87.6041 264.395 87.2506 264.485 86.8428 264.485ZM86.8483 263.697C87.0694 263.697 87.2543 263.636 87.4029 263.514C87.5515 263.391 87.6621 263.226 87.7346 263.02C87.8089 262.813 87.846 262.583 87.846 262.329C87.846 262.074 87.8089 261.842 87.7346 261.636C87.6621 261.427 87.5515 261.262 87.4029 261.138C87.2543 261.015 87.0694 260.953 86.8483 260.953C86.6217 260.953 86.4332 261.015 86.2828 261.138C86.1341 261.262 86.0227 261.427 85.9483 261.636C85.8758 261.842 85.8396 262.074 85.8396 262.329C85.8396 262.583 85.8758 262.813 85.9483 263.02C86.0227 263.226 86.1341 263.391 86.2828 263.514C86.4332 263.636 86.6217 263.697 86.8483 263.697Z"
        fill="#110F24" />
    <path
        d="M91.7943 260.228V260.989H89.3257V260.228H91.7943ZM89.9428 264.403V259.833C89.9428 259.552 90.0009 259.319 90.1169 259.132C90.2347 258.945 90.3924 258.806 90.5899 258.713C90.7875 258.621 91.0068 258.575 91.2478 258.575C91.4182 258.575 91.5696 258.588 91.7019 258.615C91.8342 258.642 91.9321 258.667 91.9955 258.689L91.7997 259.45C91.7581 259.437 91.7055 259.425 91.6421 259.412C91.5786 259.397 91.5079 259.39 91.43 259.39C91.2469 259.39 91.1173 259.435 91.0412 259.523C90.9669 259.61 90.9297 259.735 90.9297 259.899V264.403H89.9428Z"
        fill="#110F24" />
    <path
        d="M96.5494 260.228V260.989H94.1487V260.228H96.5494ZM94.7414 259.227H95.7256V263.147C95.7256 263.28 95.7455 263.381 95.7854 263.452C95.8271 263.521 95.8815 263.568 95.9485 263.593C96.0156 263.619 96.0899 263.631 96.1715 263.631C96.2331 263.631 96.2893 263.627 96.34 263.618C96.3926 263.609 96.4325 263.601 96.4597 263.593L96.6255 264.363C96.5729 264.381 96.4977 264.401 96.3998 264.423C96.3038 264.444 96.186 264.457 96.0464 264.461C95.7999 264.468 95.5779 264.431 95.3803 264.349C95.1828 264.266 95.026 264.137 94.91 263.963C94.7958 263.789 94.7396 263.572 94.7414 263.311V259.227Z"
        fill="#110F24" />
    <path
        d="M98.4464 261.957V264.403H97.4622V258.836H98.4246V260.937H98.4736C98.5714 260.701 98.7228 260.516 98.9276 260.38C99.1342 260.242 99.397 260.173 99.716 260.173C100.006 260.173 100.259 260.234 100.475 260.355C100.69 260.477 100.857 260.654 100.975 260.888C101.094 261.122 101.154 261.407 101.154 261.745V264.403H100.17V261.897C100.17 261.616 100.098 261.397 99.9525 261.242C99.8094 261.084 99.6082 261.005 99.349 261.005C99.175 261.005 99.0191 261.043 98.8814 261.119C98.7454 261.194 98.6385 261.301 98.5606 261.443C98.4844 261.584 98.4464 261.755 98.4464 261.957Z"
        fill="#110F24" />
    <path
        d="M104.006 264.485C103.587 264.485 103.226 264.398 102.921 264.224C102.619 264.048 102.386 263.8 102.223 263.479C102.06 263.156 101.978 262.777 101.978 262.34C101.978 261.91 102.06 261.533 102.223 261.209C102.388 260.883 102.618 260.629 102.913 260.448C103.209 260.265 103.556 260.173 103.955 260.173C104.212 260.173 104.455 260.215 104.683 260.298C104.913 260.38 105.116 260.507 105.292 260.679C105.47 260.851 105.609 261.07 105.711 261.337C105.812 261.601 105.863 261.917 105.863 262.283V262.585H102.44V261.921H104.92C104.918 261.733 104.877 261.565 104.797 261.418C104.718 261.27 104.606 261.153 104.463 261.068C104.322 260.982 104.157 260.94 103.968 260.94C103.767 260.94 103.59 260.989 103.438 261.087C103.286 261.183 103.167 261.31 103.082 261.467C102.998 261.623 102.956 261.794 102.954 261.981V262.56C102.954 262.803 102.998 263.011 103.087 263.185C103.176 263.358 103.3 263.49 103.46 263.582C103.619 263.673 103.806 263.718 104.02 263.718C104.163 263.718 104.293 263.698 104.409 263.659C104.525 263.617 104.625 263.556 104.71 263.476C104.796 263.397 104.86 263.298 104.903 263.18L105.822 263.283C105.764 263.526 105.654 263.738 105.491 263.92C105.329 264.099 105.123 264.239 104.871 264.338C104.619 264.436 104.331 264.485 104.006 264.485Z"
        fill="#110F24" />
    <path
        d="M110.525 264.403H108.638V258.836H110.563C111.116 258.836 111.591 258.947 111.988 259.17C112.386 259.391 112.693 259.709 112.907 260.124C113.121 260.539 113.227 261.036 113.227 261.614C113.227 262.194 113.12 262.692 112.904 263.109C112.69 263.526 112.381 263.846 111.977 264.069C111.574 264.292 111.091 264.403 110.525 264.403ZM109.647 263.531H110.476C110.864 263.531 111.187 263.46 111.447 263.319C111.706 263.176 111.901 262.963 112.031 262.68C112.162 262.395 112.227 262.04 112.227 261.614C112.227 261.188 112.162 260.835 112.031 260.554C111.901 260.271 111.708 260.06 111.452 259.92C111.198 259.779 110.883 259.708 110.506 259.708H109.647V263.531Z"
        fill="#110F24" />
    <path
        d="M114.142 264.403V260.228H115.097V260.923H115.14C115.216 260.682 115.347 260.497 115.532 260.366C115.718 260.234 115.931 260.168 116.17 260.168C116.225 260.168 116.286 260.17 116.353 260.176C116.421 260.179 116.479 260.186 116.524 260.195V261.1C116.482 261.086 116.416 261.073 116.325 261.062C116.237 261.049 116.151 261.043 116.067 261.043C115.888 261.043 115.726 261.082 115.583 261.16C115.442 261.236 115.33 261.342 115.249 261.478C115.167 261.614 115.126 261.771 115.126 261.948V264.403H114.142Z"
        fill="#110F24" />
    <path
        d="M117.178 264.403V260.228H118.162V264.403H117.178ZM117.673 259.635C117.517 259.635 117.383 259.583 117.27 259.48C117.158 259.375 117.102 259.249 117.102 259.102C117.102 258.953 117.158 258.827 117.27 258.724C117.383 258.619 117.517 258.566 117.673 258.566C117.83 258.566 117.964 258.619 118.075 258.724C118.187 258.827 118.243 258.953 118.243 259.102C118.243 259.249 118.187 259.375 118.075 259.48C117.964 259.583 117.83 259.635 117.673 259.635Z"
        fill="#110F24" />
    <path
        d="M122.904 260.228L121.417 264.403H120.329L118.842 260.228H119.892L120.851 263.33H120.895L121.857 260.228H122.904Z"
        fill="#110F24" />
    <path
        d="M125.292 264.485C124.873 264.485 124.512 264.398 124.207 264.224C123.904 264.048 123.671 263.8 123.508 263.479C123.345 263.156 123.264 262.777 123.264 262.34C123.264 261.91 123.345 261.533 123.508 261.209C123.673 260.883 123.903 260.629 124.199 260.448C124.494 260.265 124.841 260.173 125.24 260.173C125.498 260.173 125.74 260.215 125.969 260.298C126.199 260.38 126.402 260.507 126.578 260.679C126.755 260.851 126.895 261.07 126.996 261.337C127.098 261.601 127.149 261.917 127.149 262.283V262.585H123.726V261.921H126.205C126.203 261.733 126.163 261.565 126.083 261.418C126.003 261.27 125.892 261.153 125.749 261.068C125.607 260.982 125.442 260.94 125.254 260.94C125.053 260.94 124.876 260.989 124.724 261.087C124.571 261.183 124.453 261.31 124.367 261.467C124.284 261.623 124.241 261.794 124.24 261.981V262.56C124.24 262.803 124.284 263.011 124.373 263.185C124.462 263.358 124.586 263.49 124.745 263.582C124.905 263.673 125.092 263.718 125.305 263.718C125.449 263.718 125.578 263.698 125.694 263.659C125.81 263.617 125.911 263.556 125.996 263.476C126.081 263.397 126.145 263.298 126.189 263.18L127.108 263.283C127.05 263.526 126.939 263.738 126.776 263.92C126.615 264.099 126.408 264.239 126.156 264.338C125.904 264.436 125.616 264.485 125.292 264.485Z"
        fill="#110F24" />
    <path
        d="M127.981 264.403V260.228H128.936V260.923H128.979C129.055 260.682 129.186 260.497 129.371 260.366C129.557 260.234 129.77 260.168 130.01 260.168C130.064 260.168 130.125 260.17 130.192 260.176C130.261 260.179 130.318 260.186 130.363 260.195V261.1C130.321 261.086 130.255 261.073 130.164 261.062C130.076 261.049 129.99 261.043 129.906 261.043C129.727 261.043 129.565 261.082 129.422 261.16C129.281 261.236 129.169 261.342 129.088 261.478C129.006 261.614 128.966 261.771 128.966 261.948V264.403H127.981Z"
        fill="#110F24" />
    <path d="M132.959 264.403V258.836H133.968V263.558H136.42V264.403H132.959Z" fill="#110F24" />
    <path
        d="M137.252 264.403V260.228H138.236V264.403H137.252ZM137.747 259.635C137.591 259.635 137.457 259.583 137.345 259.48C137.232 259.375 137.176 259.249 137.176 259.102C137.176 258.953 137.232 258.827 137.345 258.724C137.457 258.619 137.591 258.566 137.747 258.566C137.905 258.566 138.039 258.619 138.149 258.724C138.262 258.827 138.318 258.953 138.318 259.102C138.318 259.249 138.262 259.375 138.149 259.48C138.039 259.583 137.905 259.635 137.747 259.635Z"
        fill="#110F24" />
    <path
        d="M141.07 264.485C140.653 264.485 140.295 264.394 139.996 264.21C139.699 264.027 139.47 263.775 139.308 263.452C139.149 263.127 139.069 262.754 139.069 262.332C139.069 261.908 139.151 261.533 139.314 261.209C139.477 260.883 139.707 260.629 140.004 260.448C140.303 260.265 140.657 260.173 141.065 260.173C141.403 260.173 141.703 260.236 141.964 260.361C142.227 260.484 142.437 260.659 142.592 260.885C142.748 261.11 142.837 261.373 142.859 261.674H141.918C141.88 261.473 141.79 261.305 141.646 261.171C141.505 261.035 141.316 260.967 141.078 260.967C140.877 260.967 140.7 261.021 140.548 261.13C140.396 261.237 140.277 261.391 140.192 261.592C140.108 261.794 140.067 262.035 140.067 262.315C140.067 262.6 140.108 262.845 140.192 263.05C140.275 263.253 140.392 263.409 140.543 263.52C140.695 263.629 140.873 263.683 141.078 263.683C141.223 263.683 141.353 263.656 141.467 263.601C141.583 263.545 141.68 263.465 141.758 263.359C141.836 263.254 141.889 263.127 141.918 262.976H142.859C142.835 263.272 142.748 263.533 142.598 263.762C142.447 263.988 142.243 264.166 141.983 264.295C141.724 264.422 141.42 264.485 141.07 264.485Z"
        fill="#110F24" />
    <path
        d="M145.516 264.485C145.097 264.485 144.736 264.398 144.431 264.224C144.128 264.048 143.895 263.8 143.732 263.479C143.569 263.156 143.488 262.777 143.488 262.34C143.488 261.91 143.569 261.533 143.732 261.209C143.897 260.883 144.127 260.629 144.423 260.448C144.718 260.265 145.065 260.173 145.464 260.173C145.722 260.173 145.964 260.215 146.193 260.298C146.423 260.38 146.626 260.507 146.802 260.679C146.979 260.851 147.119 261.07 147.22 261.337C147.322 261.601 147.373 261.917 147.373 262.283V262.585H143.95V261.921H146.429C146.427 261.733 146.387 261.565 146.307 261.418C146.227 261.27 146.116 261.153 145.973 261.068C145.831 260.982 145.666 260.94 145.478 260.94C145.277 260.94 145.1 260.989 144.948 261.087C144.795 261.183 144.677 261.31 144.591 261.467C144.508 261.623 144.465 261.794 144.464 261.981V262.56C144.464 262.803 144.508 263.011 144.597 263.185C144.686 263.358 144.81 263.49 144.969 263.582C145.129 263.673 145.316 263.718 145.529 263.718C145.673 263.718 145.802 263.698 145.918 263.659C146.034 263.617 146.135 263.556 146.22 263.476C146.305 263.397 146.369 263.298 146.413 263.18L147.332 263.283C147.274 263.526 147.163 263.738 147 263.92C146.839 264.099 146.632 264.239 146.38 264.338C146.128 264.436 145.84 264.485 145.516 264.485Z"
        fill="#110F24" />
    <path
        d="M149.189 261.957V264.403H148.205V260.228H149.146V260.937H149.195C149.291 260.703 149.444 260.518 149.654 260.38C149.866 260.242 150.128 260.173 150.44 260.173C150.728 260.173 150.979 260.235 151.193 260.358C151.409 260.481 151.576 260.66 151.693 260.894C151.813 261.127 151.872 261.411 151.87 261.745V264.403H150.886V261.897C150.886 261.618 150.813 261.399 150.668 261.242C150.525 261.084 150.327 261.005 150.073 261.005C149.901 261.005 149.748 261.043 149.614 261.119C149.481 261.194 149.377 261.301 149.301 261.443C149.227 261.584 149.189 261.755 149.189 261.957Z"
        fill="#110F24" />
    <path
        d="M154.692 264.485C154.275 264.485 153.917 264.394 153.618 264.21C153.321 264.027 153.092 263.775 152.93 263.452C152.771 263.127 152.691 262.754 152.691 262.332C152.691 261.908 152.773 261.533 152.936 261.209C153.099 260.883 153.329 260.629 153.626 260.448C153.926 260.265 154.279 260.173 154.687 260.173C155.026 260.173 155.326 260.236 155.587 260.361C155.849 260.484 156.059 260.659 156.215 260.885C156.371 261.11 156.459 261.373 156.481 261.674H155.54C155.502 261.473 155.412 261.305 155.269 261.171C155.127 261.035 154.938 260.967 154.7 260.967C154.499 260.967 154.322 261.021 154.17 261.13C154.018 261.237 153.899 261.391 153.814 261.592C153.731 261.794 153.689 262.035 153.689 262.315C153.689 262.6 153.731 262.845 153.814 263.05C153.897 263.253 154.014 263.409 154.165 263.52C154.317 263.629 154.496 263.683 154.7 263.683C154.845 263.683 154.975 263.656 155.089 263.601C155.205 263.545 155.302 263.465 155.38 263.359C155.458 263.254 155.511 263.127 155.54 262.976H156.481C156.458 263.272 156.371 263.533 156.22 263.762C156.07 263.988 155.865 264.166 155.606 264.295C155.347 264.422 155.042 264.485 154.692 264.485Z"
        fill="#110F24" />
    <path
        d="M159.138 264.485C158.719 264.485 158.358 264.398 158.053 264.224C157.751 264.048 157.518 263.8 157.355 263.479C157.191 263.156 157.11 262.777 157.11 262.34C157.11 261.91 157.191 261.533 157.355 261.209C157.519 260.883 157.75 260.629 158.045 260.448C158.341 260.265 158.688 260.173 159.086 260.173C159.344 260.173 159.587 260.215 159.815 260.298C160.045 260.38 160.248 260.507 160.424 260.679C160.602 260.851 160.741 261.07 160.843 261.337C160.944 261.601 160.995 261.917 160.995 262.283V262.585H157.572V261.921H160.051C160.05 261.733 160.009 261.565 159.929 261.418C159.849 261.27 159.738 261.153 159.595 261.068C159.453 260.982 159.288 260.94 159.1 260.94C158.899 260.94 158.722 260.989 158.57 261.087C158.418 261.183 158.299 261.31 158.214 261.467C158.13 261.623 158.088 261.794 158.086 261.981V262.56C158.086 262.803 158.13 263.011 158.219 263.185C158.308 263.358 158.432 263.49 158.592 263.582C158.751 263.673 158.938 263.718 159.152 263.718C159.295 263.718 159.424 263.698 159.54 263.659C159.656 263.617 159.757 263.556 159.842 263.476C159.927 263.397 159.992 263.298 160.035 263.18L160.954 263.283C160.896 263.526 160.786 263.738 160.622 263.92C160.461 264.099 160.254 264.239 160.003 264.338C159.751 264.436 159.462 264.485 159.138 264.485Z"
        fill="#110F24" />
    <path fill-rule="evenodd" clip-rule="evenodd"
        d="M89.4107 42.5456C89.8779 42.5506 90.3414 42.4624 90.7741 42.2863C91.2069 42.1103 91.6002 41.8497 91.9312 41.52C92.2622 41.1903 92.5242 40.798 92.702 40.3659C92.8797 39.9338 92.9697 39.4707 92.9665 39.0035C92.9447 38.0746 92.5605 37.1911 91.8958 36.5418C91.2311 35.8926 90.3389 35.5291 89.4097 35.5291C88.4806 35.5291 87.5883 35.8926 86.9236 36.5418C86.259 37.1911 85.8747 38.0746 85.8529 39.0035C85.8497 39.4708 85.9397 39.9341 86.1176 40.3663C86.2955 40.7985 86.5577 41.191 86.8889 41.5207C87.2201 41.8505 87.6137 42.1109 88.0467 42.2869C88.4796 42.4629 88.9433 42.5508 89.4107 42.5456ZM89.4107 40.6455C88.4606 40.6455 87.8077 39.9437 87.8077 39.0035C87.8077 38.0632 88.4606 37.3595 89.4107 37.3595C90.3607 37.3595 91.0117 38.0612 91.0117 39.0035C91.0117 39.9457 90.3588 40.6475 89.4107 40.6475V40.6455Z"
        fill="#4959E7" />
    <path fill-rule="evenodd" clip-rule="evenodd"
        d="M105.306 39.7738C105.356 39.5194 105.38 39.2608 105.379 39.0016C105.379 37.0272 103.983 35.4575 101.971 35.4575C99.9148 35.4575 98.4018 36.9314 98.4018 39.0016C98.4018 41.1656 99.9969 42.5438 102.116 42.5438C103.289 42.5438 104.313 42.1528 105.015 41.1989L103.451 40.3016C103.098 40.6358 102.627 40.8171 102.141 40.8059C101.406 40.8059 100.744 40.5714 100.474 39.8285L100.452 39.7738H105.306ZM100.439 38.2842C100.634 37.5433 101.201 37.1817 101.958 37.1817C102.294 37.1638 102.625 37.2643 102.895 37.4657C103.165 37.6672 103.355 37.9568 103.434 38.2842L103.447 38.335H100.425L100.439 38.2842Z"
        fill="#4959E7" />
    <path fill-rule="evenodd" clip-rule="evenodd"
        d="M96.7327 35.649H97.9252V37.5746H96.7327C96.4582 37.5761 96.1954 37.6857 96.0011 37.8796C95.8069 38.0735 95.6968 38.3361 95.6947 38.6106V42.3561H93.7712V38.6106C93.7732 37.8258 94.0859 37.0737 94.6409 36.5187C95.1958 35.9638 95.9479 35.6511 96.7327 35.649Z"
        fill="#4959E7" />
    <path fill-rule="evenodd" clip-rule="evenodd"
        d="M82.8759 34.001H85.1475V35.9206H82.8759C82.3584 35.9237 81.863 36.1306 81.4971 36.4966C81.1311 36.8625 80.9242 37.3579 80.9211 37.8754V38.4775C80.9242 38.995 81.1311 39.4905 81.4971 39.8564C81.863 40.2223 82.3584 40.4293 82.8759 40.4324H85.1475V42.352H82.8759C81.8493 42.3494 80.8654 41.9407 80.1391 41.2152C79.4128 40.4896 79.0031 39.5061 78.9995 38.4795V37.8774C79.0021 36.8501 79.4113 35.8656 80.1377 35.1392C80.8641 34.4128 81.8486 34.0035 82.8759 34.001Z"
        fill="#4959E7" />
    <path fill-rule="evenodd" clip-rule="evenodd"
        d="M127.959 34.001H130.231V35.9206H127.959C127.442 35.9237 126.946 36.1306 126.58 36.4966C126.214 36.8625 126.008 37.3579 126.004 37.8754V38.4775C126.008 38.995 126.214 39.4905 126.58 39.8564C126.946 40.2223 127.442 40.4293 127.959 40.4324H130.231V42.352H127.959C126.932 42.3489 125.948 41.9395 125.222 41.2131C124.496 40.4867 124.087 39.5025 124.085 38.4756V37.8774C124.087 36.8504 124.496 35.8662 125.222 35.1399C125.948 34.4135 126.932 34.0041 127.959 34.001Z"
        fill="#4959E7" />
    <path fill-rule="evenodd" clip-rule="evenodd"
        d="M110.131 38.804V42.3559H108.139V34.001H110.131V36.8179H110.316C110.728 36.8184 111.136 36.7348 111.515 36.5721C111.893 36.4094 112.234 36.1711 112.518 35.8717C113.014 35.3765 113.334 34.7325 113.43 34.0381V34.001H115.426V34.0479C115.317 35.2647 114.784 36.4044 113.919 37.2675C113.585 37.6014 113.208 37.8887 112.797 38.1218L112.615 38.2254L115.692 42.3559H113.21L110.639 38.804H110.131Z"
        fill="#4959E7" />
    <path fill-rule="evenodd" clip-rule="evenodd"
        d="M121.144 39.2301V42.3559H119.233V39.2282L116.343 34.001H118.503L120.216 37.1443L121.856 34.001H123.938L121.144 39.2301Z"
        fill="#4959E7" />
</svg>