<?xml version="1.0" encoding="utf-8"?>
<!-- Generator: Adobe Illustrator 27.0.0, SVG Export Plug-In . SVG Version: 6.00 Build 0)  -->
<svg version="1.1" id="Layer_1" xmlns="http://www.w3.org/2000/svg" xmlns:xlink="http://www.w3.org/1999/xlink" x="0px" y="0px"
	 viewBox="0 0 1280 279" style="enable-background:new 0 0 1280 279;" xml:space="preserve">
<style type="text/css">
	.st0{opacity:0.994;fill-rule:evenodd;clip-rule:evenodd;fill:#737373;enable-background:new    ;}
	.st1{opacity:0.98;fill-rule:evenodd;clip-rule:evenodd;fill:#737373;enable-background:new    ;}
	.st2{opacity:0.983;fill-rule:evenodd;clip-rule:evenodd;fill:#737373;enable-background:new    ;}
	.st3{opacity:0.977;fill-rule:evenodd;clip-rule:evenodd;fill:#737373;enable-background:new    ;}
	.st4{opacity:0.985;fill-rule:evenodd;clip-rule:evenodd;fill:#737373;enable-background:new    ;}
	.st5{opacity:0.989;fill-rule:evenodd;clip-rule:evenodd;fill:#737373;enable-background:new    ;}
	.st6{opacity:0.969;fill-rule:evenodd;clip-rule:evenodd;fill:#737373;enable-background:new    ;}
</style>
<g>
	<path class="st0" d="M37.5-0.5c2.7,0,5.3,0,8,0c0,25.7,0,51.3,0,77c25,0,50,0,75,0c0-23.3,0-46.7,0-70c11.3-2.9,22.7-5.2,34-7
		c4.3,0,8.7,0,13,0c0.2,64.7,0,129.3-0.5,194c-15,5.5-30.5,8.5-46.5,9c0-28.3,0-56.7,0-85c-25,0-50,0-75,0c0.3,26,0,52-1,78
		c-14.7,4.5-29.7,7.2-45,8c0-65,0-130,0-195C12,4.2,24.6,1.2,37.5-0.5z"/>
</g>
<g>
	<path class="st1" d="M1112.5,11.5c1.3,0,2.7,0,4,0c0,14.3,0,28.7,0,43c11,0,22,0,33,0c0,11.7,0,23.3,0,35c-11,0-22,0-33,0
		c-0.4,22.4,0.1,44.7,1.5,67c1.5,5.5,5,9,10.5,10.5c6.7,0.7,13.4,0.5,20-0.5c0,12,0,24,0,36c-15.3,3.8-30.6,4.3-46,1.5
		c-19.8-6.1-30.2-19.6-31.5-40.5c-0.5-48.3-0.7-96.7-0.5-145C1084.4,15.1,1098.4,12.7,1112.5,11.5z"/>
</g>
<g>
	<path class="st2" d="M254.5,50.5c19.8-2,38.2,2.2,55,12.5c11.4,10.3,17.9,23.1,19.5,38.5c0,31.7,0.9,63.4,2.5,95
		c-13.5,3.3-27.2,5.6-41,7c-1.4-4.9-2.5-9.9-3.5-15c-16.8,16.5-36.6,21.6-59.5,15.5c-20.4-7.6-30.8-22.2-31-44c-0.3-18,7-32,22-42
		c20-10.4,41.4-15.2,64-14.5c-0.2-11.7-6.2-18.2-18-19.5c-17.7-1.2-34.4,2.3-50,10.5c-2.3-9.9-4.9-19.8-8-29.5c0.3-0.5,0.7-1,1-1.5
		C222.5,56.2,238.2,51.9,254.5,50.5z M271.5,133.5c4.3,0,8.7,0,13,0c0.2,6.7,0,13.3-0.5,20c-4.8,15-15,21.2-30.5,18.5
		c-8.9-3.9-12.4-10.8-10.5-20.5c1.5-4.9,4.3-8.7,8.5-11.5C258,136.9,264.6,134.7,271.5,133.5z"/>
</g>
<g>
	<path class="st3" d="M441.5,50.5c5.4-0.1,10.7,0.2,16,1c0,14.7,0,29.3,0,44c-12.1-2.6-23.5-0.8-34,5.5c-6,5.1-9.5,11.6-10.5,19.5
		c-0.5,27.7-0.7,55.3-0.5,83c-15.7,0-31.3,0-47,0c0.3-46.4,0-92.7-1-139c0.4-2.9,2-4.4,5-4.5c11.5-2.8,23.2-4.6,35-5.5
		c0.5,8.7,1.4,17.4,2.5,26C413.5,64.5,425,54.5,441.5,50.5z"/>
</g>
<g>
	<path class="st4" d="M674.5,50.5c52.8-1.2,81.1,24.5,85,77c-1.8,46.1-25.5,72.3-71,78.5c-30.9,3.1-55.4-7.8-73.5-32.5
		c-13.4-25.6-15-51.9-5-79C623.1,67.5,644.6,52.9,674.5,50.5z M677.5,84.5c16.1,0.3,26.3,8.3,30.5,24c4.3,17.2,3,33.8-4,50
		c-9.3,14-21.5,17.2-36.5,9.5c-6.9-5.6-11.4-12.7-13.5-21.5c-3.9-17.3-1.9-34,6-50C664.5,90.4,670.3,86.4,677.5,84.5z"/>
</g>
<g>
	<path class="st5" d="M1039.5,50.5c5.1-0.2,10.1,0.2,15,1c0,14.7,0,29.3,0,44c-13.3-3.2-25.3-0.7-36,7.5c-3.7,4.2-6.2,9-7.5,14.5
		c-0.5,28.7-0.7,57.3-0.5,86c-15.7,0-31.3,0-47,0c0.1-47.7-0.2-95.3-1-143c13.2-3.1,26.5-5.1,40-6c0.3,9,0.8,18,1.5,27
		C1010.2,64.5,1022,54.1,1039.5,50.5z"/>
</g>
<g>
	<path class="st1" d="M1279.5,154.5c0,2.3,0,4.7,0,7c-2.9,22-15.3,35.8-37,41.5c-25.8,6.2-50.8,3.8-75-7c-0.5-0.6-0.9-1.2-1-2
		c2.6-9.8,5.1-19.6,7.5-29.5c0.4-0.9,1.1-1.6,2-2c16.3,8.9,33.4,11.8,51.5,8.5c5.6-3.3,7.4-8.1,5.5-14.5c-0.5-1.4-1.3-2.6-2.5-3.5
		c-13.8-5.9-27.5-12.3-41-19c-19.6-14.5-24.4-33-14.5-55.5c10.9-17.2,26.8-26.4,47.5-27.5c17.3-1.4,33.8,1.4,49.5,8.5
		c-1.6,11.3-4.2,22.3-8,33c-14.2-8.4-29-10.3-44.5-5.5c-5.3,5.3-5.3,10.7,0,16c8.2,4.6,16.9,8.3,26,11
		C1265.2,120.8,1276.5,134.3,1279.5,154.5z"/>
</g>
<g>
	<path class="st2" d="M552.5,50.5c12.6,0.1,25,2.1,37,6c0.3,0.8,0.7,1.7,1,2.5c-2.2,10.2-4.3,20.3-6.5,30.5c-0.4,0.9-1.1,1.6-2,2
		c-14.1-5-28.3-5.2-42.5-0.5c-14.2,8.1-21.2,20.4-21,37c1,26,14.5,39.8,40.5,41.5c9.1-0.6,17.9-2.2,26.5-5c1.3,10.9,3,21.7,5,32.5
		c-0.3,0.8-0.7,1.7-1,2.5c-23.1,7.6-46.4,8.4-70,2.5c-23.9-7.6-39.4-23.4-46.5-47.5c-6.7-26-2.7-50.4,12-73
		c11.3-14.1,25.8-23.2,43.5-27.5C536.6,52.4,544.6,51.2,552.5,50.5z"/>
</g>
<g>
	<path class="st4" d="M785.5,54.5c15.7,0,31.3,0,47,0c-0.4,30.7,0.1,61.4,1.5,92c2.7,17.1,12.6,23.9,29.5,20.5
		c7.6-3.3,12.8-8.8,15.5-16.5c1.5-32,2-64,1.5-96c15.7,0,31.3,0,47,0c-0.3,47.2,0,94.4,1,141.5c-0.4,0.9-1.1,1.6-2,2
		c-12.9,2.8-25.9,4.6-39,5.5c-0.7-7-1.5-14-2.5-21c-13.2,18-31,25.8-53.5,23.5c-18.8-1.8-31.9-11.3-39.5-28.5c-2.3-6.5-4-13.2-5-20
		C785.6,123.2,785.1,88.9,785.5,54.5z"/>
</g>
<g>
	<path class="st6" d="M-0.5,237.5c56.3,0,112.7,0,169,0c0,13.7,0,27.3,0,41c-56.3,0-112.7,0-169,0C-0.5,264.8-0.5,251.2-0.5,237.5z"
		/>
</g>
</svg>
