<svg width="587" height="555" viewBox="0 0 587 555" fill="none" xmlns="http://www.w3.org/2000/svg">
<g filter="url(#filter0_f_4364_9581)">
<rect x="21.5977" y="94.2539" width="366.755" height="365.942" rx="16.2641" fill="#35353D" fill-opacity="0.09"/>
<rect x="22.0043" y="94.6605" width="365.942" height="365.129" rx="15.8575" stroke="#F0F0F4" stroke-width="0.813205"/>
</g>
<rect x="0.863634" y="82.4632" width="374.887" height="365.129" rx="15.8575" fill="white" stroke="#F0F0F4" stroke-width="0.813205"/>
<path d="M1.27344 98.32C1.27344 89.7867 8.19103 82.8691 16.7243 82.8691H359.897C368.43 82.8691 375.348 89.7867 375.348 98.32V108.078H1.27344V98.32Z" fill="#99A7F3"/>
<line x1="375.344" y1="108.487" x2="1.26968" y2="108.487" stroke="#F2F2F7" stroke-width="0.813205"/>
<circle cx="15.0952" cy="95.8803" r="1.62641" fill="white"/>
<circle cx="21.5991" cy="95.8803" r="1.62641" fill="white"/>
<circle cx="28.1069" cy="95.8803" r="1.62641" fill="white"/>
<rect x="32.9844" y="166.631" width="310.644" height="40.6602" rx="8.13205" fill="#F4F4F4"/>
<rect x="32.9844" y="215.424" width="310.644" height="40.6602" rx="8.13205" fill="#F4F4F4"/>
<rect x="32.9844" y="275.6" width="112.222" height="145.564" rx="8.13205" fill="#F4F4F4"/>
<path d="M160.66 249.653V409.798C160.66 414.279 164.292 417.911 168.773 417.911H509.544C514.025 417.911 517.657 414.279 517.657 409.798V178.016" stroke="#EBF1FF" stroke-width="6.49018" stroke-linecap="round" stroke-linejoin="round"/>
<g filter="url(#filter1_f_4364_9581)">
<rect x="193.195" y="33.2637" width="235.829" height="488.736" rx="48.7923" fill="#35353D" fill-opacity="0.12"/>
</g>
<rect x="177.336" y="17.4066" width="235.016" height="487.923" rx="32.1216" fill="white" stroke="#F2F2F7" stroke-width="0.813205"/>
<rect x="201.324" y="158.498" width="103.277" height="11.3849" rx="3.85314" fill="#F4F4F4"/>
<rect x="201.324" y="182.08" width="154.509" height="11.3849" rx="3.85314" fill="#F4F4F4"/>
<rect x="201.324" y="205.664" width="121.167" height="11.3849" rx="3.85314" fill="#F4F4F4"/>
<path d="M298.451 354.316C295.758 356.661 288.31 359.194 284.543 360.283C284.27 360.362 284.012 360.48 283.776 360.639L280.271 362.987C279.828 363.284 279.307 363.442 278.775 363.442H243.137C241.009 363.442 239.711 361.081 240.811 359.26C245.264 351.883 251.193 340.966 251.653 335.76C252.211 329.433 251.886 313.149 251.653 305.798M253.056 291.805C254.32 288.474 256.485 285.978 260.034 285.873C261.315 285.772 264.086 286.056 264.924 288.003C265.735 289.673 266.354 292.808 266.738 296.6M251.653 298.33C251.579 299.104 251.531 299.874 251.504 300.626" stroke="#CCD1E2" stroke-width="2.01567" stroke-linecap="round"/>
<rect x="320.496" y="300.18" width="24.464" height="10.5107" rx="5.25533" fill="white" stroke="#CCD1E2" stroke-width="2.01567"/>
<rect x="321.168" y="310.334" width="26.4751" height="11.8649" rx="5.93243" fill="white" stroke="#CCD1E2" stroke-width="2.01567"/>
<rect x="321.844" y="322.184" width="25.1344" height="11.1878" rx="5.59388" fill="white" stroke="#CCD1E2" stroke-width="2.01567"/>
<rect x="320.496" y="333.697" width="22.7881" height="10.5107" rx="5.25533" fill="white" stroke="#CCD1E2" stroke-width="2.01567"/>
<rect x="261.023" y="298.633" width="73.9352" height="49.2901" rx="5.47668" fill="white"/>
<path d="M300.504 348.836H302.928M294.571 348.836H267.12C263.25 348.836 260.113 345.699 260.113 341.83V304.727C260.113 300.858 263.25 297.721 267.12 297.721H328.867C332.737 297.721 335.874 300.858 335.874 304.727V341.83C335.874 345.699 332.737 348.836 328.867 348.836H308.262" stroke="#CCD1E2" stroke-width="1.82556" stroke-linecap="round"/>
<path d="M261.023 305.936L334.959 305.936" stroke="#CCD1E2" stroke-width="1.82556" stroke-linecap="round"/>
<circle cx="278.37" cy="320.538" r="5.47668" stroke="#4959E7" stroke-width="1.82556"/>
<path d="M269.241 335.6C269.241 330.307 273.532 326.016 278.825 326.016C284.118 326.016 288.409 330.307 288.409 335.6V336.057H269.241V335.6Z" stroke="#4959E7" stroke-width="1.82556"/>
<path d="M298.453 315.977H321.273" stroke="#4959E7" stroke-width="1.82556" stroke-linecap="round"/>
<path d="M298.453 321.453H321.273" stroke="#4959E7" stroke-width="1.82556" stroke-linecap="round"/>
<path d="M298.453 328.756H309.406" stroke="#4959E7" stroke-width="1.82556" stroke-linecap="round"/>
<circle cx="299.822" cy="336.514" r="1.36917" fill="#4959E7"/>
<circle cx="306.209" cy="336.514" r="1.36917" fill="#4959E7"/>
<circle cx="313.514" cy="336.514" r="1.36917" fill="#4959E7"/>
<circle cx="320.814" cy="336.514" r="1.36917" fill="#4959E7"/>
<path d="M355.715 288.924H362.349V295.563" stroke="#4959E7" stroke-width="2.33761" stroke-linecap="round"/>
<path d="M232.98 287.68H226.346V294.319" stroke="#4959E7" stroke-width="2.33761" stroke-linecap="round"/>
<path d="M355.715 358.639H362.349V351.584" stroke="#4959E7" stroke-width="2.33761" stroke-linecap="round"/>
<path d="M232.98 358.223H226.346V351.583" stroke="#4959E7" stroke-width="2.33761" stroke-linecap="round"/>
<path d="M286.076 304.178V299.531H289.152V300.341H287.058V301.448H288.948V302.258H287.058V304.178H286.076ZM290.452 304.178V299.531H292.286C292.637 299.531 292.936 299.594 293.184 299.719C293.434 299.843 293.624 300.019 293.754 300.248C293.885 300.475 293.951 300.742 293.951 301.049C293.951 301.357 293.885 301.623 293.751 301.845C293.618 302.066 293.425 302.235 293.173 302.353C292.922 302.471 292.618 302.53 292.261 302.53H291.033V301.741H292.102C292.289 301.741 292.445 301.715 292.569 301.664C292.693 301.612 292.786 301.535 292.846 301.432C292.908 301.329 292.939 301.202 292.939 301.049C292.939 300.895 292.908 300.764 292.846 300.659C292.786 300.553 292.693 300.472 292.567 300.418C292.443 300.362 292.286 300.334 292.097 300.334H291.435V304.178H290.452ZM292.962 302.063L294.117 304.178H293.032L291.902 302.063H292.962ZM299.555 301.854C299.555 302.361 299.458 302.792 299.266 303.148C299.076 303.503 298.816 303.775 298.486 303.962C298.158 304.148 297.789 304.241 297.379 304.241C296.966 304.241 296.595 304.147 296.267 303.96C295.939 303.772 295.679 303.501 295.489 303.145C295.298 302.79 295.203 302.36 295.203 301.854C295.203 301.348 295.298 300.916 295.489 300.561C295.679 300.205 295.939 299.935 296.267 299.749C296.595 299.561 296.966 299.467 297.379 299.467C297.789 299.467 298.158 299.561 298.486 299.749C298.816 299.935 299.076 300.205 299.266 300.561C299.458 300.916 299.555 301.348 299.555 301.854ZM298.558 301.854C298.558 301.526 298.509 301.249 298.411 301.024C298.314 300.798 298.177 300.628 298 300.511C297.823 300.395 297.616 300.336 297.379 300.336C297.141 300.336 296.934 300.395 296.757 300.511C296.58 300.628 296.442 300.798 296.344 301.024C296.247 301.249 296.199 301.526 296.199 301.854C296.199 302.183 296.247 302.459 296.344 302.685C296.442 302.91 296.58 303.081 296.757 303.198C296.934 303.314 297.141 303.372 297.379 303.372C297.616 303.372 297.823 303.314 298 303.198C298.177 303.081 298.314 302.91 298.411 302.685C298.509 302.459 298.558 302.183 298.558 301.854ZM304.808 299.531V304.178H303.959L301.938 301.253H301.904V304.178H300.921V299.531H301.783L303.789 302.453H303.83V299.531H304.808ZM306.082 300.341V299.531H309.898V300.341H308.476V304.178H307.504V300.341H306.082Z" fill="#4959E7"/>
<g clip-path="url(#clip0_4364_9581)">
<path fill-rule="evenodd" clip-rule="evenodd" d="M278.202 74.2094C281.478 74.2094 284.075 71.6434 284.075 68.3586C284.075 65.0738 281.478 62.5078 278.202 62.5078C274.925 62.5078 272.328 65.0738 272.328 68.3586C272.328 71.6434 274.925 74.2094 278.202 74.2094ZM278.202 71.0711C276.634 71.0711 275.556 69.9122 275.556 68.3586C275.556 66.8049 276.634 65.6464 278.202 65.6464C279.769 65.6464 280.847 66.8053 280.847 68.3586C280.847 69.9122 279.769 71.0711 278.202 71.0711Z" fill="#4959E7"/>
<path fill-rule="evenodd" clip-rule="evenodd" d="M304.443 69.6327C304.528 69.2124 304.565 68.7834 304.565 68.3547C304.565 65.0957 302.258 62.5039 298.939 62.5039C295.537 62.5039 293.043 64.9491 293.043 68.3547C293.043 71.9297 295.676 74.2055 299.185 74.2055C301.117 74.2055 302.813 73.5524 303.974 71.9849L301.395 70.5023C300.85 71.0724 300.003 71.3364 299.23 71.3364C298.016 71.3364 296.924 70.9481 296.477 69.7227L296.444 69.6323H304.443V69.6327ZM296.408 67.1716C296.744 65.9466 297.667 65.351 298.916 65.351C300.119 65.351 301.029 65.9831 301.357 67.1713L301.381 67.2565H296.385L296.408 67.1716Z" fill="#4959E7"/>
<path fill-rule="evenodd" clip-rule="evenodd" d="M290.285 62.8203H292.255V65.9976H290.285C289.349 65.9976 288.572 66.7746 288.572 67.7108V69.041V70.7177V73.8947H285.395V67.7108C285.394 65.0208 287.595 62.8203 290.285 62.8203Z" fill="#4959E7"/>
<path fill-rule="evenodd" clip-rule="evenodd" d="M267.404 60.0977H271.155V63.2685H267.404C265.634 63.2685 264.175 64.7279 264.175 66.4975V67.4937C264.175 69.2633 265.634 70.7227 267.404 70.7227H271.155V73.8936H267.404C263.884 73.8936 261.004 71.0135 261.004 67.4937V66.4975C261.004 62.9777 263.884 60.0977 267.404 60.0977Z" fill="#4959E7"/>
<path fill-rule="evenodd" clip-rule="evenodd" d="M341.849 60.0977H345.601V63.2685H341.849C340.079 63.2685 338.62 64.7279 338.62 66.4975V67.4937C338.62 69.2633 340.079 70.7227 341.849 70.7227H345.601V73.8936H341.849C338.329 73.8936 335.449 71.0135 335.449 67.4937V66.4975C335.449 62.9777 338.329 60.0977 341.849 60.0977Z" fill="#4959E7"/>
<path fill-rule="evenodd" clip-rule="evenodd" d="M312.412 68.0299V73.8939H309.121V66.8771V60.0977H312.412V64.7502H312.718C314.14 64.7502 315.345 64.1943 316.351 63.1885C317.171 62.3689 317.699 61.3069 317.86 60.1593L317.869 60.0977H321.165L321.158 60.1755C320.979 62.1884 320.097 64.0639 318.669 65.493L318.658 65.5033C318.107 66.0546 317.482 66.5301 316.804 66.9146L316.503 67.086L321.595 73.8939H317.495L313.249 68.0299H312.412Z" fill="#4959E7"/>
<path fill-rule="evenodd" clip-rule="evenodd" d="M330.594 68.7329V73.8939H327.44V68.7281L322.668 60.0977H326.234L329.06 65.289L331.77 60.0977H335.209L330.594 68.7329Z" fill="#4959E7"/>
</g>
<path d="M204.073 122.009L207.152 131.32H207.273L210.346 122.009H212.702L208.532 133.838H205.887L201.723 122.009H204.073ZM217.142 134.011C216.253 134.011 215.485 133.826 214.838 133.457C214.195 133.083 213.7 132.556 213.353 131.874C213.007 131.189 212.834 130.382 212.834 129.454C212.834 128.542 213.007 127.741 213.353 127.052C213.704 126.358 214.193 125.819 214.82 125.434C215.448 125.046 216.185 124.851 217.032 124.851C217.579 124.851 218.095 124.94 218.58 125.117C219.069 125.29 219.501 125.56 219.874 125.925C220.251 126.291 220.548 126.757 220.763 127.323C220.979 127.885 221.087 128.555 221.087 129.333V129.974H213.815V128.565H219.083C219.079 128.164 218.992 127.808 218.823 127.496C218.653 127.181 218.417 126.932 218.112 126.751C217.812 126.57 217.462 126.48 217.061 126.48C216.634 126.48 216.258 126.584 215.935 126.792C215.612 126.996 215.359 127.265 215.178 127.6C215.001 127.931 214.911 128.295 214.907 128.692V129.922C214.907 130.438 215.001 130.881 215.19 131.25C215.379 131.616 215.642 131.897 215.981 132.094C216.32 132.286 216.717 132.382 217.171 132.382C217.475 132.382 217.751 132.34 217.997 132.255C218.243 132.167 218.457 132.038 218.638 131.868C218.819 131.699 218.956 131.489 219.048 131.239L221 131.458C220.877 131.974 220.642 132.425 220.296 132.81C219.953 133.191 219.514 133.488 218.979 133.699C218.444 133.907 217.831 134.011 217.142 134.011ZM222.856 133.838V124.967H224.883V126.445H224.975C225.137 125.933 225.414 125.538 225.807 125.261C226.204 124.98 226.656 124.84 227.164 124.84C227.28 124.84 227.409 124.845 227.551 124.857C227.698 124.865 227.819 124.878 227.915 124.897V126.821C227.827 126.79 227.686 126.763 227.493 126.74C227.305 126.713 227.122 126.699 226.945 126.699C226.564 126.699 226.221 126.782 225.917 126.948C225.616 127.109 225.38 127.335 225.206 127.623C225.033 127.912 224.946 128.245 224.946 128.623V133.838H222.856ZM229.304 133.838V124.967H231.395V133.838H229.304ZM230.355 123.707C230.024 123.707 229.739 123.598 229.5 123.378C229.262 123.155 229.142 122.887 229.142 122.575C229.142 122.26 229.262 121.992 229.5 121.773C229.739 121.549 230.024 121.438 230.355 121.438C230.69 121.438 230.975 121.549 231.21 121.773C231.449 121.992 231.568 122.26 231.568 122.575C231.568 122.887 231.449 123.155 231.21 123.378C230.975 123.598 230.69 123.707 230.355 123.707ZM238.038 124.967V126.584H232.794V124.967H238.038ZM234.105 133.838V124.129C234.105 123.532 234.228 123.036 234.475 122.639C234.725 122.242 235.06 121.946 235.48 121.75C235.899 121.553 236.365 121.455 236.877 121.455C237.239 121.455 237.561 121.484 237.842 121.542C238.123 121.599 238.331 121.651 238.466 121.698L238.05 123.315C237.961 123.288 237.85 123.261 237.715 123.234C237.58 123.203 237.43 123.188 237.264 123.188C236.875 123.188 236.6 123.282 236.438 123.471C236.281 123.656 236.202 123.921 236.202 124.268V133.838H234.105ZM240.975 137.165C240.69 137.165 240.426 137.142 240.184 137.095C239.945 137.053 239.755 137.003 239.612 136.945L240.097 135.316C240.401 135.405 240.673 135.447 240.912 135.444C241.15 135.44 241.36 135.365 241.541 135.218C241.726 135.076 241.882 134.837 242.009 134.502L242.188 134.023L238.971 124.967H241.189L243.233 131.666H243.326L245.376 124.967H247.6L244.048 134.912C243.882 135.382 243.663 135.784 243.389 136.119C243.116 136.458 242.781 136.716 242.384 136.893C241.992 137.074 241.522 137.165 240.975 137.165ZM254.38 137.165C254.095 137.165 253.832 137.142 253.589 137.095C253.35 137.053 253.16 137.003 253.017 136.945L253.502 135.316C253.807 135.405 254.078 135.447 254.317 135.444C254.556 135.44 254.765 135.365 254.946 135.218C255.131 135.076 255.287 134.837 255.414 134.502L255.593 134.023L252.376 124.967H254.594L256.639 131.666H256.731L258.781 124.967H261.005L257.453 134.912C257.287 135.382 257.068 135.784 256.795 136.119C256.521 136.458 256.186 136.716 255.79 136.893C255.397 137.074 254.927 137.165 254.38 137.165ZM266.02 134.011C265.153 134.011 264.402 133.821 263.767 133.439C263.132 133.058 262.639 132.525 262.289 131.84C261.942 131.154 261.769 130.353 261.769 129.437C261.769 128.52 261.942 127.718 262.289 127.028C262.639 126.339 263.132 125.804 263.767 125.423C264.402 125.042 265.153 124.851 266.02 124.851C266.886 124.851 267.637 125.042 268.272 125.423C268.907 125.804 269.398 126.339 269.745 127.028C270.095 127.718 270.27 128.52 270.27 129.437C270.27 130.353 270.095 131.154 269.745 131.84C269.398 132.525 268.907 133.058 268.272 133.439C267.637 133.821 266.886 134.011 266.02 134.011ZM266.031 132.336C266.501 132.336 266.894 132.207 267.209 131.949C267.525 131.687 267.76 131.337 267.914 130.898C268.072 130.459 268.151 129.97 268.151 129.431C268.151 128.888 268.072 128.397 267.914 127.958C267.76 127.516 267.525 127.163 267.209 126.901C266.894 126.64 266.501 126.509 266.031 126.509C265.55 126.509 265.149 126.64 264.83 126.901C264.514 127.163 264.277 127.516 264.119 127.958C263.965 128.397 263.888 128.888 263.888 129.431C263.888 129.97 263.965 130.459 264.119 130.898C264.277 131.337 264.514 131.687 264.83 131.949C265.149 132.207 265.55 132.336 266.031 132.336ZM277.699 130.107V124.967H279.79V133.838H277.763V132.261H277.67C277.47 132.758 277.141 133.164 276.683 133.48C276.228 133.796 275.668 133.953 275.002 133.953C274.421 133.953 273.907 133.824 273.46 133.566C273.017 133.305 272.671 132.925 272.42 132.429C272.17 131.928 272.045 131.324 272.045 130.615V124.967H274.136V130.292C274.136 130.854 274.29 131.3 274.598 131.632C274.906 131.963 275.31 132.128 275.811 132.128C276.119 132.128 276.417 132.053 276.706 131.903C276.995 131.753 277.231 131.53 277.416 131.233C277.605 130.933 277.699 130.557 277.699 130.107ZM281.94 133.838V124.967H283.967V126.445H284.06C284.221 125.933 284.499 125.538 284.891 125.261C285.288 124.98 285.74 124.84 286.249 124.84C286.364 124.84 286.493 124.845 286.636 124.857C286.782 124.865 286.903 124.878 286.999 124.897V126.821C286.911 126.79 286.77 126.763 286.578 126.74C286.389 126.713 286.206 126.699 286.029 126.699C285.648 126.699 285.305 126.782 285.001 126.948C284.701 127.109 284.464 127.335 284.291 127.623C284.117 127.912 284.031 128.245 284.031 128.623V133.838H281.94ZM292.423 133.838V124.967H294.514V133.838H292.423ZM293.474 123.707C293.143 123.707 292.858 123.598 292.619 123.378C292.38 123.155 292.261 122.887 292.261 122.575C292.261 122.26 292.38 121.992 292.619 121.773C292.858 121.549 293.143 121.438 293.474 121.438C293.809 121.438 294.094 121.549 294.329 121.773C294.567 121.992 294.687 122.26 294.687 122.575C294.687 122.887 294.567 123.155 294.329 123.378C294.094 123.598 293.809 123.707 293.474 123.707ZM299.956 133.994C299.259 133.994 298.635 133.815 298.084 133.457C297.534 133.099 297.099 132.579 296.779 131.897C296.459 131.216 296.3 130.388 296.3 129.414C296.3 128.428 296.461 127.596 296.785 126.919C297.112 126.237 297.553 125.723 298.107 125.377C298.662 125.026 299.28 124.851 299.961 124.851C300.481 124.851 300.909 124.94 301.244 125.117C301.579 125.29 301.844 125.5 302.041 125.746C302.237 125.989 302.389 126.218 302.497 126.434H302.583V122.009H304.68V133.838H302.624V132.44H302.497C302.389 132.656 302.233 132.885 302.029 133.127C301.825 133.366 301.555 133.57 301.22 133.74C300.885 133.909 300.464 133.994 299.956 133.994ZM300.539 132.278C300.982 132.278 301.359 132.159 301.671 131.92C301.983 131.678 302.22 131.341 302.381 130.91C302.543 130.478 302.624 129.976 302.624 129.402C302.624 128.829 302.543 128.33 302.381 127.906C302.223 127.483 301.989 127.154 301.677 126.919C301.369 126.684 300.989 126.566 300.539 126.566C300.073 126.566 299.684 126.688 299.372 126.93C299.06 127.173 298.826 127.508 298.668 127.935C298.51 128.363 298.431 128.852 298.431 129.402C298.431 129.957 298.51 130.451 298.668 130.887C298.829 131.318 299.066 131.659 299.378 131.909C299.694 132.155 300.081 132.278 300.539 132.278ZM310.835 134.011C309.946 134.011 309.178 133.826 308.531 133.457C307.888 133.083 307.393 132.556 307.047 131.874C306.7 131.189 306.527 130.382 306.527 129.454C306.527 128.542 306.7 127.741 307.047 127.052C307.397 126.358 307.886 125.819 308.514 125.434C309.141 125.046 309.879 124.851 310.726 124.851C311.272 124.851 311.788 124.94 312.274 125.117C312.763 125.29 313.194 125.56 313.567 125.925C313.945 126.291 314.241 126.757 314.457 127.323C314.672 127.885 314.78 128.555 314.78 129.333V129.974H307.509V128.565H312.776C312.772 128.164 312.685 127.808 312.516 127.496C312.347 127.181 312.11 126.932 311.806 126.751C311.505 126.57 311.155 126.48 310.755 126.48C310.327 126.48 309.952 126.584 309.628 126.792C309.305 126.996 309.053 127.265 308.872 127.6C308.695 127.931 308.604 128.295 308.6 128.692V129.922C308.6 130.438 308.695 130.881 308.883 131.25C309.072 131.616 309.336 131.897 309.674 132.094C310.013 132.286 310.41 132.382 310.864 132.382C311.168 132.382 311.444 132.34 311.69 132.255C311.937 132.167 312.15 132.038 312.331 131.868C312.512 131.699 312.649 131.489 312.741 131.239L314.693 131.458C314.57 131.974 314.335 132.425 313.989 132.81C313.646 133.191 313.207 133.488 312.672 133.699C312.137 133.907 311.525 134.011 310.835 134.011ZM318.64 128.64V133.838H316.549V124.967H318.547V126.474H318.651C318.855 125.977 319.181 125.583 319.627 125.29C320.078 124.997 320.634 124.851 321.296 124.851C321.909 124.851 322.442 124.982 322.896 125.244C323.354 125.506 323.709 125.885 323.959 126.382C324.213 126.878 324.338 127.481 324.334 128.189V133.838H322.244V128.513C322.244 127.92 322.09 127.456 321.782 127.121C321.477 126.786 321.056 126.618 320.517 126.618C320.151 126.618 319.826 126.699 319.541 126.861C319.26 127.019 319.038 127.248 318.876 127.548C318.719 127.849 318.64 128.212 318.64 128.64ZM330.89 124.967V126.584H325.79V124.967H330.89ZM327.049 122.841H329.14V131.17C329.14 131.451 329.182 131.666 329.267 131.816C329.355 131.963 329.471 132.063 329.613 132.117C329.756 132.171 329.914 132.198 330.087 132.198C330.218 132.198 330.337 132.188 330.445 132.169C330.557 132.149 330.641 132.132 330.699 132.117L331.051 133.751C330.94 133.79 330.78 133.832 330.572 133.878C330.368 133.925 330.118 133.951 329.821 133.959C329.298 133.975 328.826 133.896 328.406 133.722C327.987 133.545 327.653 133.272 327.407 132.902C327.164 132.533 327.045 132.071 327.049 131.516V122.841ZM332.638 133.838V124.967H334.729V133.838H332.638ZM333.689 123.707C333.358 123.707 333.073 123.598 332.835 123.378C332.596 123.155 332.477 122.887 332.477 122.575C332.477 122.26 332.596 121.992 332.835 121.773C333.073 121.549 333.358 121.438 333.689 121.438C334.024 121.438 334.309 121.549 334.544 121.773C334.783 121.992 334.902 122.26 334.902 122.575C334.902 122.887 334.783 123.155 334.544 123.378C334.309 123.598 334.024 123.707 333.689 123.707ZM341.309 124.967V126.584H336.209V124.967H341.309ZM337.468 122.841H339.559V131.17C339.559 131.451 339.601 131.666 339.686 131.816C339.775 131.963 339.89 132.063 340.032 132.117C340.175 132.171 340.333 132.198 340.506 132.198C340.637 132.198 340.756 132.188 340.864 132.169C340.976 132.149 341.061 132.132 341.118 132.117L341.471 133.751C341.359 133.79 341.199 133.832 340.991 133.878C340.787 133.925 340.537 133.951 340.24 133.959C339.717 133.975 339.245 133.896 338.825 133.722C338.406 133.545 338.073 133.272 337.826 132.902C337.584 132.533 337.464 132.071 337.468 131.516V122.841ZM344.357 137.165C344.072 137.165 343.808 137.142 343.566 137.095C343.327 137.053 343.136 137.003 342.994 136.945L343.479 135.316C343.783 135.405 344.055 135.447 344.293 135.444C344.532 135.44 344.742 135.365 344.923 135.218C345.108 135.076 345.264 134.837 345.391 134.502L345.57 134.023L342.353 124.967H344.571L346.615 131.666H346.708L348.758 124.967H350.982L347.43 134.912C347.264 135.382 347.045 135.784 346.771 136.119C346.498 136.458 346.163 136.716 345.766 136.893C345.373 137.074 344.904 137.165 344.357 137.165Z" fill="#5B6081"/>
<rect x="209.453" y="434.174" width="187.037" height="30.0886" rx="6.02893" fill="#4959E7"/>
<path d="M287.427 448.363H286.146C286.109 448.153 286.042 447.967 285.944 447.805C285.846 447.64 285.723 447.501 285.577 447.387C285.431 447.273 285.264 447.187 285.077 447.13C284.892 447.071 284.692 447.041 284.478 447.041C284.096 447.041 283.758 447.137 283.464 447.329C283.169 447.518 282.939 447.797 282.772 448.165C282.605 448.53 282.522 448.976 282.522 449.504C282.522 450.041 282.605 450.493 282.772 450.86C282.941 451.226 283.171 451.502 283.464 451.689C283.758 451.874 284.095 451.967 284.474 451.967C284.684 451.967 284.881 451.94 285.064 451.885C285.248 451.828 285.414 451.744 285.56 451.635C285.709 451.525 285.833 451.39 285.934 451.23C286.036 451.071 286.107 450.888 286.146 450.682L287.427 450.689C287.379 451.023 287.275 451.335 287.115 451.628C286.958 451.92 286.751 452.178 286.495 452.402C286.24 452.623 285.94 452.797 285.598 452.923C285.255 453.046 284.875 453.108 284.457 453.108C283.841 453.108 283.29 452.965 282.806 452.679C282.322 452.394 281.941 451.982 281.662 451.443C281.383 450.904 281.244 450.258 281.244 449.504C281.244 448.748 281.384 448.102 281.665 447.565C281.946 447.026 282.329 446.614 282.813 446.329C283.297 446.043 283.845 445.9 284.457 445.9C284.848 445.9 285.211 445.955 285.547 446.065C285.882 446.174 286.181 446.335 286.444 446.548C286.707 446.758 286.922 447.016 287.091 447.322C287.263 447.626 287.375 447.973 287.427 448.363ZM291.024 453.114C290.51 453.114 290.065 453.001 289.688 452.775C289.311 452.549 289.019 452.233 288.811 451.826C288.606 451.42 288.503 450.945 288.503 450.401C288.503 449.858 288.606 449.382 288.811 448.973C289.019 448.564 289.311 448.247 289.688 448.021C290.065 447.795 290.51 447.682 291.024 447.682C291.538 447.682 291.983 447.795 292.36 448.021C292.737 448.247 293.028 448.564 293.234 448.973C293.441 449.382 293.545 449.858 293.545 450.401C293.545 450.945 293.441 451.42 293.234 451.826C293.028 452.233 292.737 452.549 292.36 452.775C291.983 453.001 291.538 453.114 291.024 453.114ZM291.031 452.121C291.31 452.121 291.543 452.045 291.73 451.892C291.917 451.736 292.056 451.528 292.148 451.268C292.241 451.008 292.288 450.718 292.288 450.398C292.288 450.076 292.241 449.785 292.148 449.525C292.056 449.262 291.917 449.053 291.73 448.898C291.543 448.742 291.31 448.665 291.031 448.665C290.746 448.665 290.508 448.742 290.319 448.898C290.131 449.053 289.991 449.262 289.897 449.525C289.806 449.785 289.76 450.076 289.76 450.398C289.76 450.718 289.806 451.008 289.897 451.268C289.991 451.528 290.131 451.736 290.319 451.892C290.508 452.045 290.746 452.121 291.031 452.121ZM296.031 449.929V453.012H294.791V447.75H295.976V448.644H296.038C296.159 448.35 296.352 448.115 296.617 447.942C296.884 447.768 297.214 447.682 297.607 447.682C297.97 447.682 298.286 447.759 298.555 447.915C298.827 448.07 299.037 448.295 299.186 448.589C299.336 448.884 299.411 449.241 299.408 449.662V453.012H298.168V449.853C298.168 449.502 298.077 449.227 297.894 449.028C297.714 448.829 297.464 448.73 297.144 448.73C296.927 448.73 296.734 448.778 296.565 448.874C296.398 448.967 296.267 449.103 296.171 449.281C296.078 449.459 296.031 449.675 296.031 449.929ZM303.489 447.75V448.709H300.465V447.75H303.489ZM301.211 446.49H302.451V451.429C302.451 451.596 302.476 451.724 302.527 451.813C302.579 451.9 302.648 451.959 302.732 451.991C302.817 452.023 302.91 452.039 303.013 452.039C303.091 452.039 303.162 452.033 303.226 452.022C303.292 452.01 303.342 452 303.376 451.991L303.585 452.96C303.519 452.983 303.424 453.008 303.301 453.036C303.18 453.063 303.031 453.079 302.856 453.084C302.545 453.093 302.265 453.046 302.016 452.943C301.767 452.838 301.57 452.676 301.424 452.457C301.28 452.238 301.209 451.964 301.211 451.635V446.49ZM304.719 453.012V447.75H305.959V453.012H304.719ZM305.343 447.003C305.146 447.003 304.977 446.938 304.836 446.808C304.694 446.676 304.623 446.517 304.623 446.332C304.623 446.145 304.694 445.986 304.836 445.856C304.977 445.723 305.146 445.657 305.343 445.657C305.541 445.657 305.71 445.723 305.85 445.856C305.991 445.986 306.062 446.145 306.062 446.332C306.062 446.517 305.991 446.676 305.85 446.808C305.71 446.938 305.541 447.003 305.343 447.003ZM308.667 449.929V453.012H307.427V447.75H308.613V448.644H308.674C308.795 448.35 308.988 448.115 309.253 447.942C309.52 447.768 309.85 447.682 310.243 447.682C310.606 447.682 310.923 447.759 311.192 447.915C311.464 448.07 311.674 448.295 311.822 448.589C311.973 448.884 312.047 449.241 312.045 449.662V453.012H310.805V449.853C310.805 449.502 310.714 449.227 310.531 449.028C310.351 448.829 310.1 448.73 309.781 448.73C309.564 448.73 309.371 448.778 309.202 448.874C309.035 448.967 308.904 449.103 308.808 449.281C308.714 449.459 308.667 449.675 308.667 449.929ZM316.852 450.799V447.75H318.092V453.012H316.89V452.077H316.835C316.716 452.371 316.521 452.612 316.249 452.799C315.98 452.987 315.647 453.08 315.252 453.08C314.908 453.08 314.603 453.004 314.338 452.851C314.075 452.695 313.87 452.47 313.721 452.176C313.573 451.879 313.499 451.52 313.499 451.1V447.75H314.739V450.908C314.739 451.242 314.83 451.507 315.013 451.703C315.195 451.9 315.435 451.998 315.732 451.998C315.915 451.998 316.092 451.953 316.263 451.864C316.434 451.775 316.575 451.643 316.684 451.467C316.796 451.289 316.852 451.066 316.852 450.799ZM321.89 453.114C321.362 453.114 320.906 453.005 320.523 452.786C320.141 452.564 319.848 452.251 319.642 451.847C319.437 451.441 319.334 450.962 319.334 450.412C319.334 449.871 319.437 449.396 319.642 448.987C319.85 448.576 320.14 448.256 320.513 448.028C320.885 447.797 321.322 447.682 321.825 447.682C322.149 447.682 322.455 447.734 322.743 447.839C323.033 447.942 323.288 448.102 323.51 448.319C323.734 448.536 323.91 448.812 324.037 449.148C324.165 449.481 324.229 449.879 324.229 450.34V450.72H319.917V449.884H323.041C323.038 449.647 322.987 449.435 322.886 449.25C322.786 449.063 322.646 448.916 322.465 448.809C322.287 448.701 322.079 448.648 321.842 448.648C321.588 448.648 321.366 448.709 321.174 448.833C320.982 448.954 320.832 449.113 320.725 449.312C320.62 449.509 320.566 449.724 320.564 449.96V450.689C320.564 450.995 320.62 451.258 320.732 451.477C320.844 451.694 321 451.861 321.201 451.977C321.402 452.091 321.637 452.148 321.907 452.148C322.087 452.148 322.25 452.123 322.397 452.073C322.543 452.021 322.669 451.944 322.777 451.844C322.884 451.743 322.965 451.619 323.02 451.47L324.178 451.6C324.105 451.906 323.965 452.174 323.76 452.402C323.557 452.628 323.296 452.804 322.979 452.93C322.662 453.053 322.298 453.114 321.89 453.114Z" fill="white"/>
<circle r="53.3802" transform="matrix(1 0 0 -1 161.186 211.066)" fill="#EAF5FF" stroke="#99A7F3" stroke-width="1.62641"/>
<g clip-path="url(#clip1_4364_9581)">
<path d="M161.221 217.376C164.549 217.376 167.247 214.678 167.247 211.35C167.247 208.022 164.549 205.324 161.221 205.324C157.893 205.324 155.195 208.022 155.195 211.35C155.195 214.678 157.893 217.376 161.221 217.376Z" fill="#4959E7"/>
<path d="M161.217 223.697C179.075 223.697 193.551 218.17 193.551 211.352C193.551 204.533 179.075 199.006 161.217 199.006C143.359 199.006 128.883 204.533 128.883 211.352C128.883 218.17 143.359 223.697 161.217 223.697Z" stroke="#4959E7" stroke-width="2.93947"/>
<path d="M150.526 217.524C159.455 232.989 171.48 242.762 177.385 239.353C183.29 235.944 180.838 220.643 171.909 205.178C162.98 189.713 150.955 179.939 145.05 183.349C139.146 186.758 141.597 202.059 150.526 217.524Z" stroke="#4959E7" stroke-width="2.93947"/>
<path d="M150.524 205.176C141.595 220.641 139.143 235.942 145.048 239.351C150.953 242.76 162.978 232.987 171.907 217.522C180.836 202.057 183.287 186.756 177.382 183.347C171.478 179.937 159.452 189.711 150.524 205.176Z" stroke="#4959E7" stroke-width="2.93947"/>
</g>
<circle r="67.5696" transform="matrix(1 0 0 -1 517.947 135.204)" fill="#EAF5FF" stroke="#99A7F3" stroke-width="2.05874"/>
<g clip-path="url(#clip2_4364_9581)">
<path d="M518.308 140.824C530.587 140.824 540.541 131.635 540.541 120.301C540.541 108.966 530.587 99.7773 518.308 99.7773C506.029 99.7773 496.074 108.966 496.074 120.301C496.074 131.635 506.029 140.824 518.308 140.824Z" fill="#4959E7" stroke="#EAF5FF" stroke-width="3.51827"/>
<path d="M535.166 115.17H501.449C498.481 115.17 496.074 117.576 496.074 120.545V154.262C496.074 157.23 498.481 159.637 501.449 159.637H535.166C538.135 159.637 540.541 157.23 540.541 154.262V120.545C540.541 117.576 538.135 115.17 535.166 115.17Z" fill="#4959E7" stroke="#EAF5FF" stroke-width="3.51827"/>
<path d="M503.117 96.4953C502.692 95.7281 502.969 94.7616 503.736 94.3363C504.503 93.9111 505.47 94.1883 505.895 94.9554L514.542 110.555C514.967 111.322 514.69 112.289 513.923 112.714C513.156 113.139 512.189 112.862 511.764 112.095L503.117 96.4953Z" fill="#4959E7" stroke="#EAF5FF" stroke-width="1.75914"/>
<path d="M541.515 126.167C541.515 122.928 544.14 120.303 547.378 120.303C550.617 120.303 553.242 122.928 553.242 126.167V146.934C553.242 150.173 550.617 152.798 547.378 152.798C544.14 152.798 541.515 150.173 541.515 146.934V126.167Z" fill="#4959E7" stroke="#EAF5FF" stroke-width="1.75914"/>
<path d="M520.745 149.868C520.745 146.629 523.37 144.004 526.609 144.004C529.847 144.004 532.473 146.629 532.473 149.868V170.635C532.473 173.874 529.847 176.499 526.609 176.499C523.37 176.499 520.745 173.874 520.745 170.635V149.868Z" fill="#4959E7" stroke="#EAF5FF" stroke-width="1.75914"/>
<path d="M533.485 96.4953C533.91 95.7281 533.633 94.7616 532.866 94.3363C532.098 93.9111 531.132 94.1883 530.707 94.9554L522.06 110.555C521.634 111.322 521.912 112.289 522.679 112.714C523.446 113.139 524.412 112.862 524.838 112.095L533.485 96.4953Z" fill="#4959E7" stroke="#EAF5FF" stroke-width="1.75914"/>
<path d="M495.087 126.167C495.087 122.928 492.462 120.303 489.223 120.303C485.985 120.303 483.359 122.928 483.359 126.167V146.934C483.359 150.173 485.985 152.798 489.223 152.798C492.462 152.798 495.087 150.173 495.087 146.934V126.167Z" fill="#4959E7" stroke="#EAF5FF" stroke-width="1.75914"/>
<path d="M515.856 149.868C515.856 146.629 513.231 144.004 509.993 144.004C506.754 144.004 504.129 146.629 504.129 149.868V170.635C504.129 173.874 506.754 176.499 509.993 176.499C513.231 176.499 515.856 173.874 515.856 170.635V149.868Z" fill="#4959E7" stroke="#EAF5FF" stroke-width="1.75914"/>
<path d="M518.308 140.824C530.587 140.824 540.541 131.635 540.541 120.301C540.541 108.966 530.587 99.7773 518.308 99.7773C506.029 99.7773 496.074 108.966 496.074 120.301C496.074 131.635 506.029 140.824 518.308 140.824Z" fill="#4959E7"/>
<path d="M535.166 115.17H501.449C498.481 115.17 496.074 117.576 496.074 120.545V154.262C496.074 157.23 498.481 159.637 501.449 159.637H535.166C538.135 159.637 540.541 157.23 540.541 154.262V120.545C540.541 117.576 538.135 115.17 535.166 115.17Z" fill="#4959E7"/>
<path d="M495.098 121.158H541.519H495.098Z" fill="#EAF5FF"/>
<path d="M495.098 121.158H541.519" stroke="#EAF5FF" stroke-width="1.75914"/>
<path d="M508.052 111.261C508.591 111.261 509.029 110.824 509.029 110.284C509.029 109.744 508.591 109.307 508.052 109.307C507.512 109.307 507.074 109.744 507.074 110.284C507.074 110.824 507.512 111.261 508.052 111.261Z" fill="#EAF5FF" stroke="#EAF5FF" stroke-width="1.75914"/>
<path d="M528.567 111.261C529.107 111.261 529.544 110.824 529.544 110.284C529.544 109.744 529.107 109.307 528.567 109.307C528.027 109.307 527.59 109.744 527.59 110.284C527.59 110.824 528.027 111.261 528.567 111.261Z" fill="#EAF5FF" stroke="#EAF5FF" stroke-width="1.75914"/>
</g>
<circle r="67.5696" transform="matrix(1 0 0 -1 517.599 305.401)" fill="#EAF5FF" stroke="#99A7F3" stroke-width="2.05874"/>
<g clip-path="url(#clip3_4364_9581)">
<path d="M548.591 292.155C548.131 292.513 539.998 297.109 539.998 307.329C539.998 319.15 550.346 323.332 550.656 323.436C550.609 323.69 549.012 329.163 545.2 334.739C541.801 339.646 538.251 344.544 532.85 344.544C527.45 344.544 526.06 341.398 519.825 341.398C513.75 341.398 511.589 344.648 506.649 344.648C501.709 344.648 498.263 340.108 494.299 334.532C489.709 327.984 486 317.812 486 308.158C486 292.672 496.039 284.46 505.919 284.46C511.168 284.46 515.544 287.917 518.84 287.917C521.977 287.917 526.87 284.253 532.842 284.253C535.106 284.253 543.238 284.46 548.591 292.155ZM530.007 277.697C532.477 274.758 534.224 270.679 534.224 266.601C534.224 266.036 534.176 265.462 534.073 265C530.055 265.151 525.273 267.684 522.39 271.038C520.127 273.619 518.014 277.697 518.014 281.831C518.014 282.453 518.118 283.074 518.165 283.273C518.419 283.321 518.832 283.377 519.245 283.377C522.851 283.377 527.386 280.955 530.007 277.697Z" fill="#4959E7"/>
</g>
<defs>
<filter id="filter0_f_4364_9581" x="9.39959" y="82.0558" width="391.15" height="390.338" filterUnits="userSpaceOnUse" color-interpolation-filters="sRGB">
<feFlood flood-opacity="0" result="BackgroundImageFix"/>
<feBlend mode="normal" in="SourceGraphic" in2="BackgroundImageFix" result="shape"/>
<feGaussianBlur stdDeviation="6.09903" result="effect1_foregroundBlur_4364_9581"/>
</filter>
<filter id="filter1_f_4364_9581" x="160.667" y="0.735489" width="300.884" height="553.793" filterUnits="userSpaceOnUse" color-interpolation-filters="sRGB">
<feFlood flood-opacity="0" result="BackgroundImageFix"/>
<feBlend mode="normal" in="SourceGraphic" in2="BackgroundImageFix" result="shape"/>
<feGaussianBlur stdDeviation="16.2641" result="effect1_foregroundBlur_4364_9581"/>
</filter>
<clipPath id="clip0_4364_9581">
<rect width="84.8968" height="14.2033" fill="white" transform="translate(260.688 60.0996)"/>
</clipPath>
<clipPath id="clip1_4364_9581">
<rect width="67.6078" height="60.1518" fill="white" transform="translate(127.422 181.273)"/>
</clipPath>
<clipPath id="clip2_4364_9581">
<rect width="71.8314" height="84.2919" fill="white" transform="translate(482.391 93.1836)"/>
</clipPath>
<clipPath id="clip3_4364_9581">
<rect width="64.6482" height="79.6559" fill="white" transform="translate(486 265)"/>
</clipPath>
</defs>
</svg>
