<svg width="136" height="58" viewBox="0 0 136 58" fill="none" xmlns="http://www.w3.org/2000/svg">
<path fill-rule="evenodd" clip-rule="evenodd" d="M29.0523 26.9623C34.8715 26.9623 39.4836 22.2806 39.4836 16.2868C39.4836 10.2935 34.8715 5.61133 29.0523 5.61133C23.2332 5.61133 18.6211 10.2935 18.6211 16.2868C18.6212 22.2806 23.2332 26.9623 29.0523 26.9623ZM29.0523 21.2361C26.2687 21.2361 24.3541 19.1215 24.3541 16.2868C24.3541 13.4519 26.2686 11.338 29.0523 11.338C31.8358 11.338 33.7501 13.4524 33.7501 16.2868C33.7501 19.1215 31.8363 21.2361 29.0523 21.2361Z" fill="white"/>
<path fill-rule="evenodd" clip-rule="evenodd" d="M75.6653 18.6183C75.8154 17.8511 75.8822 17.069 75.8822 16.2868C75.8822 10.3403 71.7836 5.61133 65.8887 5.61133C59.8471 5.61133 55.418 10.0732 55.418 16.2868C55.418 22.8095 60.0948 26.9623 66.3269 26.9623C69.7578 26.9623 72.7706 25.7705 74.8312 22.9106L70.251 20.2052C69.2827 21.2453 67.7784 21.7269 66.4064 21.7269C64.2509 21.7269 62.3117 21.0182 61.5165 18.7829L61.4581 18.6182H75.6653V18.6183ZM61.3941 14.1279C61.9913 11.8925 63.6306 10.8061 65.8492 10.8061C67.9845 10.8061 69.6021 11.9592 70.1843 14.1275L70.2262 14.283H61.3528L61.3941 14.1279Z" fill="white"/>
<path fill-rule="evenodd" clip-rule="evenodd" d="M84.1473 13.0672V0.910156H78.4141V26.3897H84.1473V18.3813C84.3772 18.3813 84.6062 18.3746 84.8329 18.3611L90.4906 26.3897H96.9597L89.9807 16.8041C90.9178 16.2582 91.7759 15.5861 92.5324 14.8089L92.5428 14.7983C94.6906 12.5911 96.0204 9.5442 96.0204 6.18374H90.8476C90.8476 8.08857 90.0996 9.81185 88.8905 11.0568C87.6787 12.2986 86.0014 13.0672 84.1473 13.0672Z" fill="white"/>
<path fill-rule="evenodd" clip-rule="evenodd" d="M112.552 6.18555L108.731 18.9659L104.218 6.18555H97.9121L105.784 25.5703L105.768 25.6152C104.849 28.2332 103.431 29.0664 100.798 29.0906V34.5776C106.839 34.8452 109.962 31.5443 111.913 25.8601L118.666 6.18555H112.552Z" fill="white"/>
<path fill-rule="evenodd" clip-rule="evenodd" d="M50.5231 6.18555H54.0226V11.9828H50.5231C48.8609 11.9828 47.4807 13.4006 47.4807 15.1084V17.5355V20.5944V26.3916H41.8379V15.1083C41.8379 10.2005 45.746 6.18555 50.5231 6.18555Z" fill="white"/>
<path fill-rule="evenodd" clip-rule="evenodd" d="M127.581 26.3604H134.467V20.5724H127.581C125.92 20.5724 124.543 19.1565 124.543 17.451V17.0701V15.095C124.543 13.3895 125.92 11.9736 127.581 11.9736H134.467V6.18555H127.581C122.811 6.18555 118.908 10.1946 118.908 15.095V17.0701V17.451C118.908 22.349 122.81 26.3604 127.581 26.3604Z" fill="white"/>
<path fill-rule="evenodd" clip-rule="evenodd" d="M9.67232 26.3604H16.5587V20.5724H9.67232C8.01214 20.5724 6.63452 19.1565 6.63452 17.451V17.0701V15.095C6.63452 13.3895 8.01214 11.9736 9.67232 11.9736H16.5587V6.18555H9.67232C4.90296 6.18555 1 10.1946 1 15.095V17.0701V17.451C0.999904 22.349 4.90228 26.3604 9.67232 26.3604Z" fill="white"/>
<path d="M18.2557 49V39.5455H23.7262V40.321H19.119V43.8803H23.2969V44.6559H19.119V49H18.2557ZM27.7579 49V39.5455H28.6212V44.6374H28.7042L33.3207 39.5455H34.4564L30.417 43.9173L34.4379 49H33.3854L29.8814 44.5174L28.6212 45.93V49H27.7579ZM37.9848 49H37.08L40.5193 39.5455H41.4426L44.8819 49H43.977L41.0133 40.6673H40.9486L37.9848 49ZM38.6358 45.3761H43.3261V46.1516H38.6358V45.3761ZM53.9285 49V39.5455H56.98C57.6509 39.5455 58.211 39.667 58.6604 39.9102C59.1128 40.1502 59.4529 40.4841 59.6806 40.9119C59.9115 41.3366 60.0269 41.8245 60.0269 42.3754C60.0269 42.9263 59.9115 43.4125 59.6806 43.8342C59.4529 44.2558 59.1143 44.5851 58.665 44.8221C58.2157 45.0591 57.6586 45.1776 56.9938 45.1776H54.3948V44.3881H56.9708C57.4632 44.3881 57.8725 44.3066 58.1987 44.1435C58.528 43.9804 58.7727 43.748 58.9328 43.4464C59.0959 43.1448 59.1774 42.7878 59.1774 42.3754C59.1774 41.9629 59.0959 41.6029 58.9328 41.2951C58.7696 40.9843 58.5234 40.7442 58.1941 40.5749C57.8679 40.4057 57.4555 40.321 56.9569 40.321H54.7918V49H53.9285ZM58.0972 44.7344L60.4239 49H59.4267L57.1231 44.7344H58.0972ZM66.6345 49.1477C65.9728 49.1477 65.4004 48.9938 64.9172 48.6861C64.434 48.3752 64.0601 47.9459 63.7954 47.3981C63.5338 46.8472 63.403 46.2132 63.403 45.4961C63.403 44.7821 63.5338 44.1481 63.7954 43.5941C64.0601 43.037 64.4248 42.6016 64.8895 42.2876C65.3573 41.9706 65.8974 41.8121 66.5099 41.8121C66.8946 41.8121 67.2654 41.8829 67.6224 42.0245C67.9795 42.163 68.2995 42.3769 68.5827 42.6662C68.8689 42.9524 69.0951 43.314 69.2613 43.7511C69.4275 44.185 69.5106 44.699 69.5106 45.293V45.6992H63.9708V44.9744H68.6704C68.6704 44.5189 68.5781 44.1096 68.3934 43.7464C68.2118 43.3802 67.9579 43.0909 67.6317 42.8786C67.3085 42.6662 66.9346 42.56 66.5099 42.56C66.0605 42.56 65.6651 42.68 65.3234 42.9201C64.9818 43.1602 64.7141 43.4772 64.5202 43.8711C64.3294 44.265 64.2324 44.6959 64.2293 45.1637V45.5977C64.2293 46.1609 64.3263 46.6533 64.5202 47.0749C64.7171 47.4935 64.9957 47.8182 65.3558 48.049C65.7158 48.2798 66.1421 48.3952 66.6345 48.3952C66.97 48.3952 67.2639 48.3429 67.5163 48.2383C67.7717 48.1336 67.9856 47.9936 68.158 47.8182C68.3334 47.6397 68.4657 47.4442 68.555 47.2319L69.3352 47.4858C69.2274 47.7843 69.0505 48.0598 68.8043 48.3121C68.5611 48.5645 68.2564 48.7676 67.8902 48.9215C67.527 49.0723 67.1085 49.1477 66.6345 49.1477ZM75.1869 49.1616C74.7591 49.1616 74.3682 49.0785 74.0143 48.9123C73.6604 48.743 73.3787 48.4999 73.1695 48.1829C72.9602 47.8628 72.8555 47.475 72.8555 47.0195C72.8555 46.6687 72.9217 46.3732 73.0541 46.1332C73.1864 45.8931 73.3741 45.6961 73.6173 45.5423C73.8604 45.3884 74.1482 45.2668 74.4805 45.1776C74.8129 45.0883 75.1792 45.0191 75.5793 44.9698C75.9763 44.9206 76.3117 44.8775 76.5857 44.8406C76.8626 44.8036 77.0735 44.7451 77.2181 44.6651C77.3628 44.5851 77.4351 44.4558 77.4351 44.2773V44.1112C77.4351 43.628 77.2904 43.2479 77.0011 42.9709C76.7149 42.6908 76.3025 42.5508 75.7639 42.5508C75.253 42.5508 74.836 42.6631 74.5129 42.8878C74.1928 43.1125 73.9681 43.3771 73.8389 43.6818L73.0587 43.4002C73.2187 43.0124 73.4403 42.7031 73.7234 42.4723C74.0066 42.2384 74.3236 42.0707 74.6744 41.9691C75.0253 41.8645 75.3808 41.8121 75.7408 41.8121C76.0117 41.8121 76.2933 41.8475 76.5857 41.9183C76.8811 41.9891 77.155 42.1122 77.4074 42.2876C77.6598 42.46 77.8644 42.7016 78.0214 43.0124C78.1783 43.3202 78.2568 43.7111 78.2568 44.185V49H77.4351V47.8782H77.3843C77.2858 48.0875 77.1396 48.2906 76.9457 48.4876C76.7519 48.6845 76.5087 48.8461 76.2163 48.9723C75.924 49.0985 75.5808 49.1616 75.1869 49.1616ZM75.2977 48.4091C75.7347 48.4091 76.1132 48.3121 76.4333 48.1183C76.7534 47.9244 76.9996 47.6674 77.172 47.3473C77.3474 47.0241 77.4351 46.6687 77.4351 46.2809V45.256C77.3735 45.3145 77.2704 45.3668 77.1258 45.413C76.9842 45.4592 76.8196 45.5007 76.6318 45.5376C76.4472 45.5715 76.2625 45.6007 76.0778 45.6254C75.8932 45.65 75.727 45.6715 75.5793 45.69C75.1792 45.7392 74.8376 45.8162 74.5544 45.9208C74.2713 46.0254 74.0543 46.1701 73.9035 46.3548C73.7527 46.5363 73.6773 46.7702 73.6773 47.0565C73.6773 47.4873 73.8312 47.8213 74.1389 48.0582C74.4467 48.2921 74.8329 48.4091 75.2977 48.4091ZM83.1495 39.5455V49H82.3277V39.5455H83.1495ZM87.3935 49H86.4886L89.9279 39.5455H90.8512L94.2905 49H93.3857L90.4219 40.6673H90.3573L87.3935 49ZM88.0444 45.3761H92.7347V46.1516H88.0444V45.3761ZM97.7959 39.5455H98.793L102.223 47.7812H102.306L105.736 39.5455H106.733V49H105.921V41.369H105.847L102.657 49H101.872L98.6822 41.369H98.6084V49H97.7959V39.5455ZM111.132 49V39.5455H111.995V48.2244H116.501V49H111.132Z" fill="white"/>
</svg>
