<svg width="100" height="26" viewBox="0 0 100 26" fill="none" xmlns="http://www.w3.org/2000/svg">
<g clip-path="url(#clip0_2227_3935)">
<path fill-rule="evenodd" clip-rule="evenodd" d="M21.7098 20.0287C26.0327 20.0287 29.4588 16.5508 29.4588 12.0983C29.4588 7.64615 26.0327 4.16797 21.7098 4.16797C17.387 4.16797 13.9609 7.64615 13.9609 12.0983C13.961 16.5508 17.387 20.0287 21.7098 20.0287ZM21.7098 15.7749C19.642 15.7749 18.2198 14.2041 18.2198 12.0983C18.2198 9.99242 19.6419 8.42205 21.7098 8.42205C23.7776 8.42205 25.1996 9.99278 25.1996 12.0983C25.1996 14.2041 23.778 15.7749 21.7098 15.7749Z" fill="white"/>
<path fill-rule="evenodd" clip-rule="evenodd" d="M56.3368 13.8293C56.4483 13.2594 56.4979 12.6784 56.4979 12.0973C56.4979 7.67997 53.4533 4.16699 49.0742 4.16699C44.5861 4.16699 41.2959 7.48152 41.2959 12.0973C41.2959 16.9428 44.7701 20.0277 49.3997 20.0277C51.9483 20.0277 54.1864 19.1424 55.7171 17.0178L52.3147 15.0081C51.5954 15.7808 50.4779 16.1386 49.4587 16.1386C47.8575 16.1386 46.4169 15.6121 45.8262 13.9516L45.7828 13.8292H56.3368V13.8293ZM45.7353 10.4936C46.179 8.83303 47.3967 8.026 49.0448 8.026C50.631 8.026 51.8327 8.88258 52.2651 10.4933L52.2963 10.6088H45.7047L45.7353 10.4936Z" fill="white"/>
<path fill-rule="evenodd" clip-rule="evenodd" d="M62.6369 9.70578V0.674805H58.3779V19.6024H62.6369V13.6534C62.8077 13.6534 62.9778 13.6484 63.1462 13.6384L67.3491 19.6024H72.1547L66.9703 12.4817C67.6664 12.0762 68.3039 11.577 68.8659 10.9996L68.8736 10.9917C70.4691 9.35205 71.4569 7.08866 71.4569 4.59232H67.6143C67.6143 6.00734 67.0586 7.28749 66.1604 8.21228C65.2602 9.1348 64.0142 9.70578 62.6369 9.70578Z" fill="white"/>
<path fill-rule="evenodd" clip-rule="evenodd" d="M83.7379 4.5918L80.8991 14.0858L77.547 4.5918H72.8623L78.7099 18.9919L78.6984 19.0253C78.0154 20.97 76.9619 21.589 75.0065 21.607V25.683C79.4938 25.8819 81.814 23.4297 83.2629 19.2072L88.2791 4.5918H83.7379Z" fill="white"/>
<path fill-rule="evenodd" clip-rule="evenodd" d="M37.6589 4.5918H40.2585V8.8983H37.6589C36.4241 8.8983 35.3988 9.95158 35.3988 11.2202V13.0232V15.2955V19.602H31.207V11.2201C31.207 7.57432 34.1102 4.5918 37.6589 4.5918Z" fill="white"/>
<path fill-rule="evenodd" clip-rule="evenodd" d="M94.9042 19.5789H100.02V15.2792H94.9042C93.6709 15.2792 92.6477 14.2274 92.6477 12.9604V12.6775V11.2103C92.6477 9.94328 93.6709 8.89147 94.9042 8.89147H100.02V4.5918H94.9042C91.3613 4.5918 88.4619 7.56992 88.4619 11.2103V12.6775V12.9604C88.4619 16.5989 91.3607 19.5789 94.9042 19.5789Z" fill="white"/>
<path fill-rule="evenodd" clip-rule="evenodd" d="M7.31339 19.5789H12.429V15.2792H7.31339C6.08012 15.2792 5.05674 14.2274 5.05674 12.9604V12.6775V11.2103C5.05674 9.94328 6.08012 8.89147 7.31339 8.89147H12.429V4.5918H7.31339C3.77043 4.5918 0.871094 7.56992 0.871094 11.2103V12.6775V12.9604C0.871022 16.5989 3.76993 19.5789 7.31339 19.5789Z" fill="white"/>
</g>
<defs>
<clipPath id="clip0_2227_3935">
<rect width="100" height="26" fill="white"/>
</clipPath>
</defs>
</svg>
