<svg width="576" height="357" viewBox="0 0 576 357" fill="none" xmlns="http://www.w3.org/2000/svg">
<g opacity="0.4" filter="url(#filter0_f_2227_4195)">
<ellipse cx="288.082" cy="327.151" rx="257.902" ry="2.84975" fill="black"/>
</g>
<path d="M56.9963 16.8774C56.9963 7.88918 64.2827 0.602765 73.271 0.602765H504.595C513.584 0.602765 520.87 7.88918 520.87 16.8774V313.341C520.87 314.34 520.06 315.15 519.062 315.15H58.8046C57.8059 315.15 56.9963 314.34 56.9963 313.341V16.8774Z" fill="#E2E8F0" stroke="#CBD5E0" stroke-width="1.20553"/>
<path d="M59.2393 16.1095C59.2393 8.78571 65.1763 2.84863 72.5001 2.84863H505.358C512.682 2.84863 518.619 8.78571 518.619 16.1095V303.782H59.2393V16.1095Z" fill="white"/>
<rect x="72.5" y="18.5" width="432.73" height="271.44" stroke="#E2E8F0"/>
<path d="M0.539062 314.678C0.539062 314.012 1.0788 313.473 1.74459 313.473H573.843C574.509 313.473 575.049 314.012 575.049 314.678V316.892H0.539062V314.678Z" fill="#E2E8F0"/>
<path d="M0.539062 314.678C0.539062 314.012 1.0788 313.473 1.74459 313.473H573.843C574.509 313.473 575.049 314.012 575.049 314.678V316.892H0.539062V314.678Z" fill="url(#paint0_linear_2227_4195)"/>
<path d="M0.539062 316.891H575.049L564.732 318.971C549.041 322.136 533.073 323.73 517.066 323.73H57.7831C40.1915 323.73 22.6526 321.805 5.47986 317.989L0.539062 316.891Z" fill="#E2E8F0"/>
<path d="M0.539062 316.891H575.049L564.732 318.971C549.041 322.136 533.073 323.73 517.066 323.73H57.7831C40.1915 323.73 22.6526 321.805 5.47986 317.989L0.539062 316.891Z" fill="url(#paint1_linear_2227_4195)"/>
<path fill-rule="evenodd" clip-rule="evenodd" d="M245.639 313.472C245.932 315.381 244.51 316.891 249.04 316.891H327.123C331.653 316.891 330.231 315.381 330.524 313.472H245.639Z" fill="#E2E8F0"/>
<path fill-rule="evenodd" clip-rule="evenodd" d="M245.639 313.472C245.932 315.381 244.51 316.891 249.04 316.891H327.123C331.653 316.891 330.231 315.381 330.524 313.472H245.639Z" fill="url(#paint2_linear_2227_4195)"/>
<defs>
<filter id="filter0_f_2227_4195" x="3.65802" y="297.779" width="568.848" height="58.7426" filterUnits="userSpaceOnUse" color-interpolation-filters="sRGB">
<feFlood flood-opacity="0" result="BackgroundImageFix"/>
<feBlend mode="normal" in="SourceGraphic" in2="BackgroundImageFix" result="shape"/>
<feGaussianBlur stdDeviation="13.2608" result="effect1_foregroundBlur_2227_4195"/>
</filter>
<linearGradient id="paint0_linear_2227_4195" x1="0.539062" y1="315.183" x2="575.049" y2="315.183" gradientUnits="userSpaceOnUse">
<stop stop-color="#B7C2D0"/>
<stop offset="0.0295345" stop-color="#CAD4DB"/>
<stop offset="0.0625" stop-color="#BECCDE"/>
<stop offset="0.133609" stop-color="#B7C2D0" stop-opacity="0.3"/>
<stop offset="0.865967" stop-color="#B7C2D0" stop-opacity="0.3"/>
<stop offset="0.941937" stop-color="#BECCDE"/>
<stop offset="0.971275" stop-color="#CAD4DB"/>
<stop offset="0.996436" stop-color="#B7C2D0"/>
</linearGradient>
<linearGradient id="paint1_linear_2227_4195" x1="287.794" y1="316.891" x2="287.794" y2="323.73" gradientUnits="userSpaceOnUse">
<stop stop-color="#D1DBE9" stop-opacity="0.6"/>
<stop offset="1" stop-color="#AAB5C6" stop-opacity="0.6"/>
</linearGradient>
<linearGradient id="paint2_linear_2227_4195" x1="254.012" y1="315.548" x2="323.676" y2="315.548" gradientUnits="userSpaceOnUse">
<stop stop-color="#CFD9E7"/>
<stop offset="0.317518" stop-color="#CFD9E7" stop-opacity="0"/>
<stop offset="0.660584" stop-color="#CFD9E7" stop-opacity="0"/>
<stop offset="1" stop-color="#CFD9E7"/>
</linearGradient>
</defs>
</svg>
