<svg width="64" height="44" viewBox="0 0 64 44" fill="none" xmlns="http://www.w3.org/2000/svg">
    <path
        d="M0 14V16.432L4.686 14H0ZM54 0H32V4.714L27.386 7H32V14H27.386L32 16.395V21H31.808L19 14.651V21H13V14.651L0.234 21H0V33C0 39.075 3.373 44 10 44H54C60.627 44 64 39.075 64 33V11C64 4.925 60.627 0 54 0ZM1.212 5.28C0.94601 5.83438 0.725939 6.40964 0.554 7H4.686L1.212 5.28Z"
        fill="#2B3990" />
    <path
        d="M32 0.0100002V0H19V6.699L32 0.0100002ZM13 6.699V0H10C7.38 0 5.277 0.778 3.682 2.085L13 6.699Z"
        fill="#2B3990" />
    <path
        d="M32 8V7H27.386L32 4.714V2.344L22.83 7H19.792L32 0.767V0.0100002L19 6.699V0H18V8H32ZM18 21H19V14.651L31.808 21H32V18.72L22.83 14H25.869L32 17.17V16.395L27.386 14H32V13H18V21ZM13 14.651V21H14V13H0V14H4.686L0 16.432V18.73L9.242 14H12.282L0 20.28V21H0.234L13 14.651ZM3.682 2.09C3.156 2.521 2.687 3.01 2.273 3.549L9.242 7.005H6.203L1.508 4.703C1.40356 4.89401 1.30485 5.0881 1.212 5.285L4.686 7.005H0.554C0.458 7.331 0.375 7.664 0.305 8.005H14V0.00500011H13V6.704L3.682 2.09Z"
        fill="white" />
    <path
        d="M14 21H18V13H32V8.333L18 9V0H14V9L0.228 8.409C0.0769363 9.26441 0.000648208 10.1314 0 11V13H14V21Z"
        fill="#FF0000" />
    <path
        d="M18 9L32 8.333V8H18V9ZM0.228 8.409L14 9V8H0.305C0.276 8.135 0.252 8.271 0.228 8.409ZM9.242 7L2.266 3.552C1.98639 3.91569 1.73276 4.29864 1.507 4.698L6.203 7H9.242ZM2.272 3.544L2.266 3.552L9.242 7L2.272 3.544ZM22.83 7L32 2.318V0.767L19.792 7H22.83ZM22.83 14L32 18.682V17.17L25.869 14H22.83Z"
        fill="#FF0000" />
    <path d="M32 18.72V18.682L22.83 14L32 18.72ZM9.242 14L0 18.753V20.28L12.282 14H9.242Z"
        fill="#FF0000" />
    <path
        d="M0 18.73V18.753L9.242 14L0 18.73ZM49.47 11.48L47.99 11.482L47.544 10.02L47.1 11.482L45.617 11.48L46.819 12.391L46.36 13.854L47.546 12.945L48.729 13.854L48.27 12.391L49.47 11.48Z"
        fill="#FF0000" />
    <path
        d="M50.25 11.22L48.185 11.223L47.543 9.135L46.907 11.223L44.84 11.22L46.515 12.494L45.867 14.569L47.548 13.281L49.23 14.569L48.581 12.494L50.25 11.22ZM47.547 12.949L46.362 13.857L46.82 12.394L45.618 11.484L47.099 11.486L47.544 10.029L47.99 11.486L49.47 11.484L48.274 12.394L48.729 13.857L47.547 12.949Z"
        fill="white" />
    <path
        d="M49.741 32.13H48.05L47.544 30.473L47.03 32.13H45.35L46.717 33.17L46.2 34.841L47.546 33.804L48.896 34.841L48.38 33.17L49.741 32.13Z"
        fill="#FF0000" />
    <path
        d="M50.631 31.83L48.275 31.835L47.543 29.451L46.816 31.835L44.458 31.83L46.369 33.283L45.631 35.652L47.547 34.18L49.466 35.652L48.726 33.283L50.631 31.83ZM47.546 33.804L46.195 34.841L46.717 33.17L45.346 32.133L47.034 32.135L47.544 30.473L48.052 32.135L49.74 32.133L48.376 33.17L48.896 34.841L47.546 33.804Z"
        fill="white" />
    <path
        d="M57.13 18.498L55.651 18.5L55.21 17.04L54.761 18.5L53.28 18.498L54.48 19.407L54.02 20.871L55.21 19.963L56.39 20.871L55.937 19.407L57.13 18.498Z"
        fill="#FF0000" />
    <path
        d="M57.911 18.23L55.846 18.235L55.204 16.146L54.568 18.235L52.5 18.23L54.175 19.505L53.528 21.58L55.208 20.292L56.89 21.58L56.242 19.505L57.911 18.23ZM55.207 19.961L54.023 20.869L54.48 19.405L53.279 18.496L54.76 18.498L55.205 17.041L55.65 18.498L57.13 18.496L55.935 19.405L56.39 20.869L55.207 19.961Z"
        fill="white" />
    <path
        d="M41.972 18.591L40.491 18.593L40.05 17.14L39.601 18.593L38.12 18.591L39.32 19.499L38.864 20.965L40.05 20.06L41.23 20.965L40.776 19.499L41.972 18.591Z"
        fill="#FF0000" />
    <path
        d="M42.751 18.325L40.686 18.33L40.043 16.241L39.408 18.33L37.34 18.325L39.015 19.6L38.368 21.675L40.049 20.387L41.73 21.675L41.082 19.6L42.751 18.325ZM40.048 20.057L38.864 20.965L39.32 19.499L38.12 18.591L39.6 18.593L40.045 17.137L40.491 18.593L41.97 18.591L40.776 19.499L41.23 20.965L40.048 20.057Z"
        fill="white" />
</svg>