<svg width="646" height="536" viewBox="0 0 646 536" fill="none" xmlns="http://www.w3.org/2000/svg">
<g filter="url(#filter0_f_2128_13237)">
<rect x="19" y="18" width="719" height="500" rx="23.2352" fill="#35353D" fill-opacity="0.09"/>
<rect x="19.5809" y="18.5809" width="717.838" height="498.838" rx="22.6543" stroke="#F0F0F4" stroke-width="1.16176"/>
</g>
<rect x="0.580879" y="3.58088" width="716.838" height="498.838" rx="22.6543" fill="white" stroke="#F0F0F4" stroke-width="1.16176"/>
<g clip-path="url(#clip0_2128_13237)">
<path fill-rule="evenodd" clip-rule="evenodd" d="M38.9924 74.4639C41.4224 74.4639 43.3485 72.5608 43.3485 70.1245C43.3485 67.6883 41.4226 65.7852 38.9924 65.7852C36.5623 65.7852 34.6362 67.6883 34.6362 70.1245C34.6362 72.5608 36.5623 74.4639 38.9924 74.4639ZM38.9924 72.1363C37.8298 72.1363 37.0304 71.2768 37.0304 70.1245C37.0304 68.9722 37.8295 68.113 38.9924 68.113C40.1547 68.113 40.9541 68.9725 40.9541 70.1245C40.9541 71.2768 40.155 72.1363 38.9924 72.1363Z" fill="#4959E7"/>
<path fill-rule="evenodd" clip-rule="evenodd" d="M58.4583 71.0714C58.5208 70.7597 58.5488 70.4415 58.5488 70.1236C58.5488 67.7064 56.8372 65.7842 54.3756 65.7842C51.8526 65.7842 50.0029 67.5977 50.0029 70.1236C50.0029 72.7751 51.9561 74.4629 54.5585 74.4629C55.9911 74.4629 57.2493 73.9786 58.11 72.816L56.1973 71.7164C55.7929 72.1392 55.1647 72.335 54.5918 72.335C53.6916 72.335 52.8816 72.047 52.5498 71.1382L52.5254 71.0712H58.4583V71.0714ZM52.4986 69.2461C52.748 68.3375 53.4325 67.8958 54.3591 67.8958C55.2509 67.8958 55.9263 68.3646 56.1695 69.2459L56.187 69.3091H52.4816L52.4986 69.2461Z" fill="#4959E7"/>
<path fill-rule="evenodd" clip-rule="evenodd" d="M47.957 66.0176H49.4183V68.3741H47.957C47.2627 68.3741 46.6864 68.9504 46.6864 69.6447V70.6313V71.8748V74.2311H44.3301V69.6447C44.3298 67.6497 45.9619 66.0176 47.957 66.0176Z" fill="#4959E7"/>
<path fill-rule="evenodd" clip-rule="evenodd" d="M30.9859 63.999H33.7683V66.3508H30.9859C29.6734 66.3508 28.591 67.4332 28.591 68.7456V69.4845C28.591 70.7969 29.6734 71.8793 30.9859 71.8793H33.7683V74.2311H30.9859C28.3753 74.2311 26.2393 72.095 26.2393 69.4845V68.7456C26.2393 66.1351 28.3753 63.999 30.9859 63.999Z" fill="#4959E7"/>
<path fill-rule="evenodd" clip-rule="evenodd" d="M86.2022 63.999H88.9847V66.3508H86.2022C84.8897 66.3508 83.8073 67.4332 83.8073 68.7456V69.4845C83.8073 70.7969 84.8897 71.8793 86.2022 71.8793H88.9847V74.2311H86.2022C83.5916 74.2311 81.4556 72.095 81.4556 69.4845V68.7456C81.4556 66.1351 83.5914 63.999 86.2022 63.999Z" fill="#4959E7"/>
<path fill-rule="evenodd" clip-rule="evenodd" d="M64.3666 69.8821V74.2313H61.9258V69.0272V63.999H64.3666V67.4497H64.5933C65.6479 67.4497 66.5419 67.0374 67.2882 66.2914C67.896 65.6835 68.2877 64.8959 68.4074 64.0448L68.4139 63.999H70.8585L70.8535 64.0567C70.7204 65.5497 70.0666 66.9407 69.0072 68.0006L68.9993 68.0082C68.5906 68.4172 68.1268 68.7698 67.6241 69.055L67.4005 69.1821L71.1774 74.2313H68.1364L64.9876 69.8821H64.3666Z" fill="#4959E7"/>
<path fill-rule="evenodd" clip-rule="evenodd" d="M77.8532 70.4036V74.2313H75.5136V70.4L71.9746 63.999H74.6194L76.7157 67.8493L78.7256 63.999H81.2758L77.8532 70.4036Z" fill="#4959E7"/>
</g>
<path d="M1.16113 26.2365C1.16113 14.0457 11.0437 4.16309 23.2345 4.16309H694.731C706.922 4.16309 716.805 14.0457 716.805 26.2365V40.1776H1.16113V26.2365Z" fill="#99A7F3"/>
<line x1="116.057" y1="40.3604" x2="116.057" y2="500" stroke="#F2F2F7" stroke-width="1.16176"/>
<line x1="716.804" y1="40.7586" x2="1.16083" y2="40.7586" stroke="#F2F2F7" stroke-width="1.16176"/>
<line x1="716.805" y1="97.3875" x2="116.175" y2="97.3875" stroke="#F2F2F7" stroke-width="1.16176"/>
<path d="M140.494 76.6035H142.483V72.8922H144.586C147.122 72.8922 148.485 71.369 148.485 69.2559C148.485 67.1589 147.139 65.6196 144.612 65.6196H140.494V76.6035ZM142.483 71.2564V67.2822H144.307C145.798 67.2822 146.457 68.0867 146.457 69.2559C146.457 70.4251 145.798 71.2564 144.318 71.2564H142.483ZM150.213 76.6035H157.4V74.9356H152.203V71.9375H156.987V70.2695H152.203V67.2876H157.357V65.6196H150.213V76.6035ZM159.387 76.6035H161.377V72.8922H163.479C166.016 72.8922 167.378 71.369 167.378 69.2559C167.378 67.1589 166.032 65.6196 163.506 65.6196H159.387V76.6035ZM161.377 71.2564V67.2822H163.2C164.691 67.2822 165.351 68.0867 165.351 69.2559C165.351 70.4251 164.691 71.2564 163.211 71.2564H161.377ZM182.254 69.3256C181.916 66.8853 180.039 65.4694 177.604 65.4694C174.735 65.4694 172.574 67.5611 172.574 71.1116C172.574 74.6567 174.708 76.7537 177.604 76.7537C180.216 76.7537 181.949 75.0643 182.254 72.9672L180.248 72.9565C179.996 74.2437 178.945 74.9677 177.631 74.9677C175.851 74.9677 174.574 73.6323 174.574 71.1116C174.574 68.6338 175.84 67.2554 177.637 67.2554C178.972 67.2554 180.018 68.0116 180.248 69.3256H182.254ZM185.932 71.7766C185.932 70.586 186.672 69.8995 187.713 69.8995C188.732 69.8995 189.332 70.5484 189.332 71.6586V76.6035H191.274V71.3583C191.274 69.3685 190.148 68.2583 188.437 68.2583C187.171 68.2583 186.367 68.8322 185.986 69.7654H185.889V65.6196H183.991V76.6035H185.932V71.7766ZM196.9 76.7644C198.82 76.7644 200.139 75.8258 200.483 74.3939L198.67 74.1901C198.407 74.8873 197.763 75.252 196.927 75.252C195.672 75.252 194.841 74.426 194.824 73.0155H200.563V72.4202C200.563 69.5294 198.825 68.2583 196.798 68.2583C194.438 68.2583 192.899 69.9906 192.899 72.5328C192.899 75.1179 194.417 76.7644 196.9 76.7644ZM194.83 71.7069C194.889 70.6557 195.666 69.7708 196.825 69.7708C197.94 69.7708 198.691 70.586 198.702 71.7069H194.83ZM205.799 76.7644C207.869 76.7644 209.188 75.5362 209.328 73.7878H207.472C207.306 74.6728 206.668 75.1823 205.815 75.1823C204.603 75.1823 203.82 74.1686 203.82 72.4846C203.82 70.822 204.619 69.8244 205.815 69.8244C206.748 69.8244 207.322 70.4251 207.472 71.2188H209.328C209.194 69.4329 207.799 68.2583 205.788 68.2583C203.375 68.2583 201.852 70.0014 201.852 72.5167C201.852 75.0106 203.337 76.7644 205.799 76.7644ZM210.922 76.6035H212.864V73.8361L213.572 73.0799L216.092 76.6035H218.415L215.036 71.9214L218.227 68.3656H215.958L212.998 71.6747H212.864V65.6196H210.922V76.6035Z" fill="#62636D"/>
<rect x="38.3379" y="115.721" width="53.4409" height="6.97055" rx="3.48528" fill="#F4F4F4"/>
<rect x="38.3379" y="136.633" width="34.8528" height="6.97055" rx="3.48528" fill="#F4F4F4"/>
<rect x="38.3379" y="157.543" width="53.4409" height="6.97055" rx="3.48528" fill="#F4F4F4"/>
<rect x="38.3379" y="199.365" width="53.4409" height="6.97055" rx="3.48528" fill="#F4F4F4"/>
<rect x="38.3379" y="450.545" width="53.4409" height="6.97055" rx="3.48528" fill="#F4F4F4"/>
<rect x="38.3379" y="178.455" width="34.8528" height="6.97055" rx="3.48528" fill="#F4F4F4"/>
<rect x="25.5586" y="115.721" width="6.97055" height="6.97055" rx="3.48528" fill="#F4F4F4"/>
<rect x="25.5586" y="136.633" width="6.97055" height="6.97055" rx="3.48528" fill="#F4F4F4"/>
<rect x="25.5586" y="157.543" width="6.97055" height="6.97055" rx="3.48528" fill="#F4F4F4"/>
<rect x="25.5586" y="199.365" width="6.97055" height="6.97055" rx="3.48528" fill="#F4F4F4"/>
<rect x="25.5586" y="450.545" width="6.97055" height="6.97055" rx="3.48528" fill="#F4F4F4"/>
<rect x="25.5586" y="178.455" width="6.97055" height="6.97055" rx="3.48528" fill="#F4F4F4"/>
<circle cx="18.5882" cy="21.5862" r="2.32352" fill="white"/>
<circle cx="27.8826" cy="21.5862" r="2.32352" fill="white"/>
<circle cx="37.177" cy="21.5862" r="2.32352" fill="white"/>
<rect x="139.24" y="131.459" width="553.627" height="38.8093" rx="5.9402" stroke="#DDDFE7" stroke-width="0.792027"/>
<rect x="150.724" y="123.144" width="118.012" height="14.2565" fill="white"/>
<path d="M155.57 135.352H156.787V132.3H158.441C158.468 132.3 158.492 132.3 158.519 132.3L160.157 135.352H161.543L159.756 132.087C160.744 131.721 161.236 130.898 161.236 129.815C161.236 128.331 160.315 127.287 158.445 127.287H155.57V135.352ZM156.787 131.252V128.331H158.315C159.516 128.331 160.012 128.902 160.012 129.815C160.012 130.725 159.516 131.252 158.33 131.252H156.787ZM165.153 135.474C166.472 135.474 167.406 134.824 167.673 133.84L166.559 133.639C166.346 134.21 165.834 134.501 165.165 134.501C164.157 134.501 163.48 133.847 163.448 132.682H167.748V132.264C167.748 130.079 166.441 129.225 165.071 129.225C163.385 129.225 162.275 130.508 162.275 132.367C162.275 134.245 163.37 135.474 165.153 135.474ZM163.452 131.8C163.499 130.941 164.122 130.197 165.078 130.197C165.992 130.197 166.591 130.874 166.594 131.8H163.452ZM171.933 129.303H170.63V128.76C170.63 128.224 170.85 127.933 171.425 127.933C171.669 127.933 171.842 127.988 171.953 128.024L172.228 127.071C172.063 127.008 171.72 126.909 171.244 126.909C170.287 126.909 169.448 127.468 169.448 128.602V129.303H168.515V130.248H169.448V135.352H170.63V130.248H171.933V129.303ZM175.516 135.474C176.835 135.474 177.768 134.824 178.036 133.84L176.922 133.639C176.709 134.21 176.197 134.501 175.528 134.501C174.52 134.501 173.843 133.847 173.811 132.682H178.111V132.264C178.111 130.079 176.804 129.225 175.433 129.225C173.748 129.225 172.638 130.508 172.638 132.367C172.638 134.245 173.732 135.474 175.516 135.474ZM173.815 131.8C173.862 130.941 174.484 130.197 175.441 130.197C176.355 130.197 176.953 130.874 176.957 131.8H173.815ZM179.417 135.352H180.595V131.658C180.595 130.867 181.205 130.296 182.04 130.296C182.284 130.296 182.56 130.339 182.654 130.367V129.24C182.536 129.225 182.304 129.213 182.154 129.213C181.445 129.213 180.839 129.614 180.618 130.264H180.555V129.303H179.417V135.352ZM186.063 135.474C187.382 135.474 188.315 134.824 188.583 133.84L187.469 133.639C187.256 134.21 186.744 134.501 186.075 134.501C185.067 134.501 184.39 133.847 184.358 132.682H188.658V132.264C188.658 130.079 187.351 129.225 185.98 129.225C184.295 129.225 183.185 130.508 183.185 132.367C183.185 134.245 184.279 135.474 186.063 135.474ZM184.362 131.8C184.409 130.941 185.031 130.197 185.988 130.197C186.902 130.197 187.5 130.874 187.504 131.8H184.362ZM191.142 131.76C191.142 130.796 191.732 130.244 192.551 130.244C193.351 130.244 193.835 130.768 193.835 131.646V135.352H195.012V131.504C195.012 130.008 194.189 129.225 192.953 129.225C192.043 129.225 191.449 129.646 191.169 130.288H191.094V129.303H189.964V135.352H191.142V131.76ZM199.139 135.474C200.568 135.474 201.494 134.615 201.624 133.438H200.478C200.328 134.092 199.82 134.477 199.147 134.477C198.151 134.477 197.509 133.647 197.509 132.327C197.509 131.032 198.162 130.217 199.147 130.217C199.895 130.217 200.352 130.689 200.478 131.256H201.624C201.498 130.036 200.501 129.225 199.127 129.225C197.422 129.225 196.32 130.508 196.32 132.355C196.32 134.178 197.383 135.474 199.139 135.474ZM205.489 135.474C206.809 135.474 207.742 134.824 208.009 133.84L206.895 133.639C206.683 134.21 206.171 134.501 205.501 134.501C204.493 134.501 203.816 133.847 203.784 132.682H208.084V132.264C208.084 130.079 206.777 129.225 205.407 129.225C203.721 129.225 202.611 130.508 202.611 132.367C202.611 134.245 203.706 135.474 205.489 135.474ZM203.788 131.8C203.836 130.941 204.458 130.197 205.415 130.197C206.328 130.197 206.927 130.874 206.931 131.8H203.788ZM212.668 132.005C212.668 133.981 213.195 135.627 214.196 137.029H215.274C214.499 135.989 213.888 133.879 213.888 132.005C213.888 130.134 214.499 128.024 215.274 126.984H214.196C213.195 128.386 212.668 130.032 212.668 132.005ZM223.615 131.319C223.615 128.74 222.072 127.177 219.985 127.177C217.89 127.177 216.35 128.74 216.35 131.319C216.35 133.895 217.89 135.462 219.985 135.462C222.072 135.462 223.615 133.899 223.615 131.319ZM222.41 131.319C222.41 133.284 221.371 134.351 219.985 134.351C218.595 134.351 217.559 133.284 217.559 131.319C217.559 129.355 218.595 128.287 219.985 128.287C221.371 128.287 222.41 129.355 222.41 131.319ZM225.038 137.62H226.215V134.41H226.286C226.499 134.796 226.932 135.47 228.034 135.47C229.499 135.47 230.562 134.296 230.562 132.339C230.562 130.378 229.483 129.225 228.023 129.225C226.9 129.225 226.495 129.91 226.286 130.284H226.188V129.303H225.038V137.62ZM226.192 132.327C226.192 131.063 226.743 130.225 227.77 130.225C228.838 130.225 229.373 131.126 229.373 132.327C229.373 133.54 228.822 134.466 227.77 134.466C226.759 134.466 226.192 133.599 226.192 132.327ZM234.705 129.303H233.464V127.854H232.287V129.303H231.401V130.248H232.287V133.82C232.283 134.918 233.122 135.45 234.051 135.43C234.425 135.426 234.677 135.356 234.815 135.304L234.602 134.332C234.524 134.347 234.378 134.383 234.189 134.383C233.807 134.383 233.464 134.257 233.464 133.576V130.248H234.705V129.303ZM236.007 135.352H237.184V129.303H236.007V135.352ZM236.602 128.37C237.007 128.37 237.346 128.055 237.346 127.669C237.346 127.283 237.007 126.964 236.602 126.964C236.192 126.964 235.857 127.283 235.857 127.669C235.857 128.055 236.192 128.37 236.602 128.37ZM241.316 135.474C243.021 135.474 244.135 134.225 244.135 132.355C244.135 130.473 243.021 129.225 241.316 129.225C239.611 129.225 238.497 130.473 238.497 132.355C238.497 134.225 239.611 135.474 241.316 135.474ZM241.32 134.485C240.206 134.485 239.686 133.513 239.686 132.351C239.686 131.193 240.206 130.209 241.32 130.209C242.426 130.209 242.946 131.193 242.946 132.351C242.946 133.513 242.426 134.485 241.32 134.485ZM246.627 131.76C246.627 130.796 247.217 130.244 248.037 130.244C248.836 130.244 249.32 130.768 249.32 131.646V135.352H250.498V131.504C250.498 130.008 249.675 129.225 248.438 129.225C247.529 129.225 246.934 129.646 246.654 130.288H246.58V129.303H245.449V135.352H246.627V131.76ZM253.837 135.485C254.837 135.485 255.4 134.977 255.624 134.525H255.672V135.352H256.821V131.335C256.821 129.575 255.435 129.225 254.475 129.225C253.38 129.225 252.372 129.666 251.978 130.768L253.085 131.02C253.258 130.591 253.699 130.178 254.49 130.178C255.25 130.178 255.64 130.575 255.64 131.26V131.288C255.64 131.717 255.199 131.709 254.112 131.835C252.966 131.969 251.793 132.268 251.793 133.643C251.793 134.832 252.687 135.485 253.837 135.485ZM254.093 134.54C253.427 134.54 252.947 134.241 252.947 133.658C252.947 133.028 253.506 132.804 254.187 132.713C254.569 132.662 255.475 132.56 255.644 132.39V133.17C255.644 133.887 255.073 134.54 254.093 134.54ZM259.567 127.287H258.39V135.352H259.567V127.287ZM263.415 132.009C263.415 130.032 262.887 128.386 261.887 126.984H260.808C261.584 128.024 262.194 130.134 262.194 132.009C262.194 133.879 261.584 135.989 260.808 137.029H261.887C262.887 135.627 263.415 133.981 263.415 132.009Z" fill="#8185A0"/>
<path d="M157.243 192.381H155.853V201.598H157.243V192.381ZM161.748 201.733C163.008 201.733 163.503 200.963 163.746 200.522H163.859V201.598H165.173V192.381H163.827V195.806H163.746C163.503 195.378 163.044 194.595 161.757 194.595C160.088 194.595 158.859 195.914 158.859 198.155C158.859 200.392 160.07 201.733 161.748 201.733ZM162.045 200.585C160.844 200.585 160.218 199.528 160.218 198.142C160.218 196.769 160.83 195.738 162.045 195.738C163.22 195.738 163.85 196.697 163.85 198.142C163.85 199.595 163.206 200.585 162.045 200.585ZM170.072 201.737C171.58 201.737 172.646 200.995 172.952 199.87L171.679 199.64C171.436 200.293 170.851 200.626 170.086 200.626C168.934 200.626 168.16 199.879 168.124 198.547H173.038V198.07C173.038 195.572 171.544 194.595 169.978 194.595C168.052 194.595 166.783 196.062 166.783 198.187C166.783 200.333 168.034 201.737 170.072 201.737ZM168.128 197.539C168.182 196.557 168.893 195.707 169.987 195.707C171.031 195.707 171.715 196.481 171.719 197.539H168.128ZM175.876 197.494C175.876 196.391 176.551 195.761 177.487 195.761C178.401 195.761 178.954 196.359 178.954 197.363V201.598H180.3V197.201C180.3 195.491 179.359 194.595 177.946 194.595C176.907 194.595 176.227 195.077 175.908 195.81H175.822V194.685H174.531V201.598H175.876V197.494ZM185.331 194.685H183.914V193.029H182.568V194.685H181.555V195.765H182.568V199.847C182.564 201.103 183.522 201.71 184.584 201.688C185.012 201.683 185.3 201.602 185.457 201.544L185.214 200.432C185.124 200.45 184.958 200.491 184.742 200.491C184.305 200.491 183.914 200.347 183.914 199.568V195.765H185.331V194.685ZM186.82 201.598H188.165V194.685H186.82V201.598ZM187.499 193.619C187.963 193.619 188.35 193.259 188.35 192.818C188.35 192.377 187.963 192.012 187.499 192.012C187.031 192.012 186.649 192.377 186.649 192.818C186.649 193.259 187.031 193.619 187.499 193.619ZM193.202 194.685H191.784V193.029H190.439V194.685H189.426V195.765H190.439V199.847C190.434 201.103 191.393 201.71 192.455 201.688C192.882 201.683 193.17 201.602 193.328 201.544L193.085 200.432C192.995 200.45 192.828 200.491 192.612 200.491C192.176 200.491 191.784 200.347 191.784 199.568V195.765H193.202V194.685ZM195.541 204.19C196.652 204.19 197.354 203.609 197.755 202.52L200.613 194.699L199.159 194.685L197.408 200.05H197.336L195.586 194.685H194.146L196.675 201.688L196.508 202.147C196.166 203.065 195.685 203.141 194.947 202.939L194.623 204.041C194.785 204.113 195.136 204.19 195.541 204.19Z" fill="#62636D"/>
<rect x="139.396" y="230.635" width="264.537" height="38.8093" rx="5.9402" stroke="#DDDFE7" stroke-width="0.792027"/>
<rect x="150.88" y="222.319" width="64.1542" height="14.2565" fill="white"/>
<path d="M155.726 234.527H156.943V231.011H160.369V229.968H156.943V227.51H160.727V226.463H155.726V234.527ZM162.129 234.527H163.306V228.479H162.129V234.527ZM162.723 227.546C163.129 227.546 163.468 227.231 163.468 226.845C163.468 226.459 163.129 226.14 162.723 226.14C162.314 226.14 161.979 226.459 161.979 226.845C161.979 227.231 162.314 227.546 162.723 227.546ZM164.89 234.527H166.068V230.834C166.068 230.042 166.678 229.471 167.513 229.471C167.757 229.471 168.032 229.515 168.127 229.542V228.416C168.009 228.4 167.776 228.389 167.627 228.389C166.918 228.389 166.312 228.79 166.091 229.44H166.028V228.479H164.89V234.527ZM173.678 229.956C173.434 229.015 172.697 228.4 171.39 228.4C170.024 228.4 169.055 229.121 169.055 230.192C169.055 231.05 169.575 231.621 170.709 231.873L171.733 232.098C172.316 232.228 172.587 232.488 172.587 232.866C172.587 233.334 172.087 233.7 171.315 233.7C170.611 233.7 170.158 233.397 170.016 232.803L168.878 232.976C169.075 234.047 169.965 234.649 171.323 234.649C172.784 234.649 173.796 233.874 173.796 232.779C173.796 231.925 173.253 231.397 172.142 231.141L171.182 230.92C170.516 230.763 170.229 230.539 170.233 230.129C170.229 229.664 170.733 229.334 171.402 229.334C172.134 229.334 172.473 229.739 172.611 230.145L173.678 229.956ZM177.914 228.479H176.674V227.03H175.496V228.479H174.61V229.424H175.496V232.996C175.492 234.094 176.331 234.626 177.26 234.606C177.634 234.602 177.886 234.531 178.024 234.48L177.812 233.507C177.733 233.523 177.587 233.559 177.398 233.559C177.016 233.559 176.674 233.433 176.674 232.751V229.424H177.914V228.479ZM183.328 230.936C183.328 229.972 183.919 229.42 184.738 229.42C185.537 229.42 186.021 229.944 186.021 230.822V234.527H187.199V230.68C187.199 229.184 186.376 228.4 185.139 228.4C184.23 228.4 183.635 228.822 183.356 229.464H183.281V228.479H182.151V234.527H183.328V230.936ZM190.538 234.661C191.538 234.661 192.101 234.153 192.326 233.7H192.373V234.527H193.523V230.511C193.523 228.751 192.137 228.4 191.176 228.4C190.081 228.4 189.073 228.841 188.679 229.944L189.786 230.196C189.959 229.767 190.4 229.353 191.192 229.353C191.952 229.353 192.341 229.751 192.341 230.436V230.464C192.341 230.893 191.9 230.885 190.814 231.011C189.668 231.145 188.494 231.444 188.494 232.818C188.494 234.008 189.388 234.661 190.538 234.661ZM190.794 233.716C190.128 233.716 189.648 233.417 189.648 232.834C189.648 232.204 190.207 231.98 190.888 231.889C191.27 231.838 192.176 231.736 192.345 231.566V232.346C192.345 233.063 191.774 233.716 190.794 233.716ZM195.091 234.527H196.268V230.798C196.268 229.983 196.839 229.416 197.509 229.416C198.162 229.416 198.615 229.849 198.615 230.507V234.527H199.788V230.672C199.788 229.944 200.233 229.416 201.001 229.416C201.623 229.416 202.135 229.763 202.135 230.582V234.527H203.313V230.472C203.313 229.089 202.541 228.4 201.446 228.4C200.576 228.4 199.922 228.818 199.631 229.464H199.568C199.304 228.802 198.749 228.4 197.942 228.4C197.142 228.4 196.548 228.798 196.296 229.464H196.221V228.479H195.091V234.527ZM207.497 234.649C208.816 234.649 209.75 234 210.017 233.015L208.903 232.814C208.69 233.385 208.179 233.677 207.509 233.677C206.501 233.677 205.824 233.023 205.792 231.858H210.092V231.44C210.092 229.255 208.785 228.4 207.415 228.4C205.729 228.4 204.619 229.684 204.619 231.543C204.619 233.421 205.714 234.649 207.497 234.649ZM205.796 230.976C205.844 230.117 206.466 229.373 207.423 229.373C208.336 229.373 208.935 230.05 208.938 230.976H205.796Z" fill="#8185A0"/>
<rect x="428.486" y="230.635" width="264.537" height="38.8093" rx="5.9402" stroke="#DDDFE7" stroke-width="0.792027"/>
<rect x="439.97" y="222.319" width="76.0346" height="14.2565" fill="white"/>
<path d="M444.817 226.463V234.527H445.974V228.688H446.049L448.427 234.516H449.388L451.767 228.692H451.841V234.527H452.999V226.463H451.522L448.955 232.732H448.861L446.293 226.463H444.817ZM454.674 234.527H455.851V228.479H454.674V234.527ZM455.268 227.546C455.674 227.546 456.012 227.231 456.012 226.845C456.012 226.459 455.674 226.14 455.268 226.14C454.859 226.14 454.524 226.459 454.524 226.845C454.524 227.231 454.859 227.546 455.268 227.546ZM459.699 234.645C460.801 234.645 461.235 233.972 461.447 233.586H461.546V234.527H462.695V226.463H461.518V229.46H461.447C461.235 229.086 460.833 228.4 459.707 228.4C458.246 228.4 457.171 229.554 457.171 231.515C457.171 233.472 458.23 234.645 459.699 234.645ZM459.959 233.641C458.907 233.641 458.36 232.716 458.36 231.503C458.36 230.302 458.896 229.401 459.959 229.401C460.987 229.401 461.538 230.239 461.538 231.503C461.538 232.775 460.975 233.641 459.959 233.641ZM466.64 234.645C467.743 234.645 468.176 233.972 468.388 233.586H468.487V234.527H469.637V226.463H468.459V229.46H468.388C468.176 229.086 467.774 228.4 466.648 228.4C465.187 228.4 464.112 229.554 464.112 231.515C464.112 233.472 465.171 234.645 466.64 234.645ZM466.9 233.641C465.849 233.641 465.301 232.716 465.301 231.503C465.301 230.302 465.837 229.401 466.9 229.401C467.928 229.401 468.479 230.239 468.479 231.503C468.479 232.775 467.916 233.641 466.9 233.641ZM472.494 226.463H471.317V234.527H472.494V226.463ZM476.685 234.649C478.004 234.649 478.937 234 479.205 233.015L478.091 232.814C477.878 233.385 477.366 233.677 476.697 233.677C475.689 233.677 475.011 233.023 474.98 231.858H479.28V231.44C479.28 229.255 477.972 228.4 476.602 228.4C474.917 228.4 473.806 229.684 473.806 231.543C473.806 233.421 474.901 234.649 476.685 234.649ZM474.984 230.976C475.031 230.117 475.653 229.373 476.61 229.373C477.524 229.373 478.122 230.05 478.126 230.976H474.984ZM484.698 230.936C484.698 229.972 485.289 229.42 486.108 229.42C486.907 229.42 487.391 229.944 487.391 230.822V234.527H488.569V230.68C488.569 229.184 487.746 228.4 486.509 228.4C485.6 228.4 485.005 228.822 484.726 229.464H484.651V228.479H483.521V234.527H484.698V230.936ZM491.908 234.661C492.908 234.661 493.471 234.153 493.695 233.7H493.743V234.527H494.893V230.511C494.893 228.751 493.506 228.4 492.546 228.4C491.451 228.4 490.443 228.841 490.049 229.944L491.156 230.196C491.329 229.767 491.77 229.353 492.561 229.353C493.321 229.353 493.711 229.751 493.711 230.436V230.464C493.711 230.893 493.27 230.885 492.183 231.011C491.038 231.145 489.864 231.444 489.864 232.818C489.864 234.008 490.758 234.661 491.908 234.661ZM492.164 233.716C491.498 233.716 491.018 233.417 491.018 232.834C491.018 232.204 491.577 231.98 492.258 231.889C492.64 231.838 493.546 231.736 493.715 231.566V232.346C493.715 233.063 493.144 233.716 492.164 233.716ZM496.461 234.527H497.638V230.798C497.638 229.983 498.209 229.416 498.878 229.416C499.532 229.416 499.985 229.849 499.985 230.507V234.527H501.158V230.672C501.158 229.944 501.603 229.416 502.371 229.416C502.993 229.416 503.505 229.763 503.505 230.582V234.527H504.682V230.472C504.682 229.089 503.911 228.4 502.816 228.4C501.946 228.4 501.292 228.818 501.001 229.464H500.938C500.674 228.802 500.119 228.4 499.312 228.4C498.512 228.4 497.918 228.798 497.666 229.464H497.591V228.479H496.461V234.527ZM508.867 234.649C510.186 234.649 511.119 234 511.387 233.015L510.273 232.814C510.06 233.385 509.548 233.677 508.879 233.677C507.871 233.677 507.194 233.023 507.162 231.858H511.462V231.44C511.462 229.255 510.155 228.4 508.784 228.4C507.099 228.4 505.989 229.684 505.989 231.543C505.989 233.421 507.083 234.649 508.867 234.649ZM507.166 230.976C507.213 230.117 507.836 229.373 508.792 229.373C509.706 229.373 510.304 230.05 510.308 230.976H507.166Z" fill="#8185A0"/>
<rect x="139.396" y="295.519" width="264.537" height="38.8093" rx="5.9402" stroke="#DDDFE7" stroke-width="0.792027"/>
<rect x="150.88" y="287.202" width="63.3622" height="14.2565" fill="white"/>
<path d="M155.726 299.41H160.597V298.363H156.943V291.346H155.726V299.41ZM163.651 299.544C164.651 299.544 165.214 299.036 165.438 298.583H165.486V299.41H166.636V295.394C166.636 293.634 165.249 293.283 164.289 293.283C163.194 293.283 162.186 293.724 161.792 294.827L162.899 295.079C163.072 294.65 163.513 294.236 164.304 294.236C165.064 294.236 165.454 294.634 165.454 295.319V295.347C165.454 295.776 165.013 295.768 163.926 295.894C162.781 296.028 161.607 296.327 161.607 297.701C161.607 298.89 162.501 299.544 163.651 299.544ZM163.907 298.599C163.241 298.599 162.761 298.3 162.761 297.717C162.761 297.087 163.32 296.863 164.001 296.772C164.383 296.721 165.289 296.618 165.458 296.449V297.229C165.458 297.945 164.887 298.599 163.907 298.599ZM172.736 294.839C172.492 293.897 171.755 293.283 170.448 293.283C169.082 293.283 168.113 294.004 168.113 295.075C168.113 295.933 168.633 296.504 169.767 296.756L170.791 296.981C171.373 297.111 171.645 297.37 171.645 297.748C171.645 298.217 171.145 298.583 170.373 298.583C169.668 298.583 169.216 298.28 169.074 297.685L167.936 297.859C168.133 298.93 169.023 299.532 170.381 299.532C171.842 299.532 172.854 298.757 172.854 297.662C172.854 296.807 172.311 296.28 171.2 296.024L170.239 295.803C169.574 295.646 169.287 295.421 169.29 295.012C169.287 294.547 169.791 294.216 170.46 294.216C171.192 294.216 171.531 294.622 171.669 295.028L172.736 294.839ZM176.972 293.362H175.731V291.913H174.554V293.362H173.668V294.307H174.554V297.878C174.55 298.977 175.389 299.509 176.318 299.489C176.692 299.485 176.944 299.414 177.082 299.363L176.869 298.39C176.791 298.406 176.645 298.441 176.456 298.441C176.074 298.441 175.731 298.315 175.731 297.634V294.307H176.972V293.362ZM182.386 295.819C182.386 294.854 182.977 294.303 183.796 294.303C184.595 294.303 185.079 294.827 185.079 295.705V299.41H186.257V295.563C186.257 294.067 185.434 293.283 184.197 293.283C183.288 293.283 182.693 293.705 182.414 294.346H182.339V293.362H181.209V299.41H182.386V295.819ZM189.596 299.544C190.596 299.544 191.159 299.036 191.384 298.583H191.431V299.41H192.581V295.394C192.581 293.634 191.195 293.283 190.234 293.283C189.139 293.283 188.131 293.724 187.737 294.827L188.844 295.079C189.017 294.65 189.458 294.236 190.25 294.236C191.009 294.236 191.399 294.634 191.399 295.319V295.347C191.399 295.776 190.958 295.768 189.871 295.894C188.726 296.028 187.552 296.327 187.552 297.701C187.552 298.89 188.446 299.544 189.596 299.544ZM189.852 298.599C189.186 298.599 188.706 298.3 188.706 297.717C188.706 297.087 189.265 296.863 189.946 296.772C190.328 296.721 191.234 296.618 191.403 296.449V297.229C191.403 297.945 190.832 298.599 189.852 298.599ZM194.149 299.41H195.326V295.681C195.326 294.866 195.897 294.299 196.566 294.299C197.22 294.299 197.673 294.732 197.673 295.39V299.41H198.846V295.555C198.846 294.827 199.291 294.299 200.059 294.299C200.681 294.299 201.193 294.646 201.193 295.465V299.41H202.371V295.354C202.371 293.972 201.599 293.283 200.504 293.283C199.634 293.283 198.98 293.701 198.689 294.346H198.626C198.362 293.685 197.807 293.283 197 293.283C196.2 293.283 195.606 293.681 195.354 294.346H195.279V293.362H194.149V299.41ZM206.555 299.532C207.874 299.532 208.808 298.883 209.075 297.898L207.961 297.697C207.748 298.268 207.236 298.56 206.567 298.56C205.559 298.56 204.882 297.906 204.85 296.74H209.15V296.323C209.15 294.138 207.843 293.283 206.473 293.283C204.787 293.283 203.677 294.567 203.677 296.425C203.677 298.304 204.771 299.532 206.555 299.532ZM204.854 295.858C204.901 295 205.524 294.256 206.48 294.256C207.394 294.256 207.992 294.933 207.996 295.858H204.854Z" fill="#8185A0"/>
<rect x="428.486" y="295.519" width="264.537" height="38.8093" rx="5.9402" stroke="#DDDFE7" stroke-width="0.792027"/>
<rect x="439.97" y="287.202" width="75.2426" height="14.2565" fill="white"/>
<path d="M447.427 299.41C449.884 299.41 451.306 297.886 451.306 295.366C451.306 292.858 449.884 291.346 447.51 291.346H444.817V299.41H447.427ZM446.033 298.347V292.409H447.435C449.199 292.409 450.109 293.464 450.109 295.366C450.109 297.276 449.199 298.347 447.36 298.347H446.033ZM454.485 299.544C455.485 299.544 456.048 299.036 456.272 298.583H456.319V299.41H457.469V295.394C457.469 293.634 456.083 293.283 455.122 293.283C454.028 293.283 453.02 293.724 452.626 294.827L453.732 295.079C453.906 294.65 454.347 294.236 455.138 294.236C455.898 294.236 456.288 294.634 456.288 295.319V295.347C456.288 295.776 455.847 295.768 454.76 295.894C453.614 296.028 452.441 296.327 452.441 297.701C452.441 298.89 453.335 299.544 454.485 299.544ZM454.74 298.599C454.075 298.599 453.595 298.3 453.595 297.717C453.595 297.087 454.154 296.863 454.835 296.772C455.217 296.721 456.123 296.618 456.292 296.449V297.229C456.292 297.945 455.721 298.599 454.74 298.599ZM461.861 293.362H460.62V291.913H459.443V293.362H458.557V294.307H459.443V297.878C459.439 298.977 460.278 299.509 461.207 299.489C461.581 299.485 461.833 299.414 461.971 299.363L461.758 298.39C461.68 298.406 461.534 298.441 461.345 298.441C460.963 298.441 460.62 298.315 460.62 297.634V294.307H461.861V293.362ZM465.705 299.532C467.024 299.532 467.957 298.883 468.225 297.898L467.111 297.697C466.898 298.268 466.386 298.56 465.717 298.56C464.709 298.56 464.031 297.906 464 296.74H468.3V296.323C468.3 294.138 466.992 293.283 465.622 293.283C463.937 293.283 462.826 294.567 462.826 296.425C462.826 298.304 463.921 299.532 465.705 299.532ZM464.004 295.858C464.051 295 464.673 294.256 465.63 294.256C466.544 294.256 467.142 294.933 467.146 295.858H464.004ZM475.088 299.532C476.793 299.532 477.908 298.284 477.908 296.414C477.908 294.531 476.793 293.283 475.088 293.283C473.383 293.283 472.269 294.531 472.269 296.414C472.269 298.284 473.383 299.532 475.088 299.532ZM475.092 298.544C473.978 298.544 473.458 297.571 473.458 296.41C473.458 295.252 473.978 294.268 475.092 294.268C476.199 294.268 476.718 295.252 476.718 296.41C476.718 297.571 476.199 298.544 475.092 298.544ZM482.1 293.362H480.797V292.819C480.797 292.283 481.017 291.992 481.592 291.992C481.836 291.992 482.01 292.047 482.12 292.082L482.395 291.129C482.23 291.066 481.887 290.968 481.411 290.968C480.454 290.968 479.615 291.527 479.615 292.661V293.362H478.682V294.307H479.615V299.41H480.797V294.307H482.1V293.362ZM486.344 299.41H489.435C491.309 299.41 492.156 298.477 492.156 297.241C492.156 295.992 491.282 295.287 490.482 295.244V295.165C491.223 294.976 491.841 294.472 491.841 293.464C491.841 292.271 491.014 291.346 489.297 291.346H486.344V299.41ZM487.561 298.367V295.784H489.36C490.337 295.784 490.947 296.414 490.947 297.181C490.947 297.859 490.486 298.367 489.317 298.367H487.561ZM487.561 294.835V292.381H489.222C490.187 292.381 490.648 292.889 490.648 293.559C490.648 294.338 490.01 294.835 489.191 294.835H487.561ZM493.504 299.41H494.682V293.362H493.504V299.41ZM494.099 292.429C494.505 292.429 494.843 292.114 494.843 291.728C494.843 291.342 494.505 291.023 494.099 291.023C493.69 291.023 493.355 291.342 493.355 291.728C493.355 292.114 493.69 292.429 494.099 292.429ZM496.266 299.41H497.443V295.717C497.443 294.925 498.053 294.354 498.888 294.354C499.132 294.354 499.408 294.398 499.502 294.425V293.299C499.384 293.283 499.152 293.271 499.002 293.271C498.294 293.271 497.687 293.673 497.467 294.323H497.404V293.362H496.266V299.41ZM503.702 293.362H502.462V291.913H501.284V293.362H500.398V294.307H501.284V297.878C501.28 298.977 502.119 299.509 503.048 299.489C503.422 299.485 503.674 299.414 503.812 299.363L503.6 298.39C503.521 298.406 503.375 298.441 503.186 298.441C502.804 298.441 502.462 298.315 502.462 297.634V294.307H503.702V293.362ZM506.312 295.819C506.312 294.854 506.922 294.303 507.761 294.303C508.572 294.303 509.056 294.819 509.056 295.705V299.41H510.234V295.563C510.234 294.055 509.407 293.283 508.162 293.283C507.221 293.283 506.654 293.693 506.371 294.346H506.296V291.346H505.134V299.41H506.312V295.819Z" fill="#8185A0"/>
<path d="M447.513 319.563C448.845 319.563 449.295 318.735 449.529 318.357H449.655V319.419H450.681V310.203H449.619V313.605H449.529C449.295 313.245 448.881 312.417 447.531 312.417C445.785 312.417 444.579 313.803 444.579 315.981C444.579 318.177 445.785 319.563 447.513 319.563ZM447.657 318.609C446.325 318.609 445.641 317.439 445.641 315.963C445.641 314.505 446.307 313.371 447.657 313.371C448.953 313.371 449.637 314.415 449.637 315.963C449.637 317.529 448.935 318.609 447.657 318.609ZM455.384 319.563C456.716 319.563 457.166 318.735 457.4 318.357H457.526V319.419H458.552V310.203H457.49V313.605H457.4C457.166 313.245 456.752 312.417 455.402 312.417C453.655 312.417 452.449 313.803 452.449 315.981C452.449 318.177 453.655 319.563 455.384 319.563ZM455.528 318.609C454.196 318.609 453.511 317.439 453.511 315.963C453.511 314.505 454.178 313.371 455.528 313.371C456.824 313.371 457.508 314.415 457.508 315.963C457.508 317.529 456.806 318.609 455.528 318.609ZM463.902 309.771H462.93L459.96 320.805H460.932L463.902 309.771ZM465.161 319.419H466.223V315.099C466.223 314.086 466.961 313.371 467.789 313.371C468.595 313.371 469.157 313.897 469.157 314.685V319.419H470.237V314.919C470.237 314.028 470.795 313.371 471.767 313.371C472.524 313.371 473.172 313.771 473.172 314.793V319.419H474.234V314.793C474.234 313.168 473.361 312.417 472.127 312.417C471.137 312.417 470.413 312.871 470.057 313.587H469.985C469.643 312.849 469.04 312.417 468.131 312.417C467.231 312.417 466.565 312.849 466.277 313.587H466.187V312.507H465.161V319.419ZM476.175 319.419H477.237V315.099C477.237 314.086 477.975 313.371 478.803 313.371C479.609 313.371 480.172 313.897 480.172 314.685V319.419H481.252V314.919C481.252 314.028 481.81 313.371 482.782 313.371C483.538 313.371 484.186 313.771 484.186 314.793V319.419H485.248V314.793C485.248 313.168 484.375 312.417 483.142 312.417C482.152 312.417 481.427 312.871 481.072 313.587H481C480.658 312.849 480.055 312.417 479.145 312.417C478.245 312.417 477.579 312.849 477.291 313.587H477.201V312.507H476.175V319.419ZM490.448 309.771H489.476L486.505 320.805H487.478L490.448 309.771ZM492.391 322.011C493.349 322.011 494.024 321.503 494.425 320.427L497.368 312.525L496.207 312.507L494.299 318.015H494.227L492.319 312.507H491.167L493.723 319.455L493.525 319.995C493.138 321.048 492.661 321.147 491.887 320.949L491.617 321.885C491.725 321.939 492.031 322.011 492.391 322.011ZM499.457 322.011C500.415 322.011 501.09 321.503 501.491 320.427L504.434 312.525L503.273 312.507L501.365 318.015H501.293L499.385 312.507H498.233L500.789 319.455L500.591 319.995C500.204 321.048 499.727 321.147 498.953 320.949L498.683 321.885C498.791 321.939 499.097 322.011 499.457 322.011Z" fill="#B0B2C1"/>
<rect x="139" y="364" width="534" height="11" rx="5.5" fill="#F4F4F4"/>
<rect x="210" y="388.236" width="412.9" height="10.7596" rx="5.37981" fill="#F4F4F4"/>
<rect x="271" y="430.586" width="289.882" height="39.6013" rx="7.92027" fill="#4959E7"/>
<path d="M365.899 454.882H367.569V451.507H369.27L371.079 454.882H372.942L370.948 451.228C372.033 450.791 372.604 449.864 372.604 448.613C372.604 446.854 371.47 445.666 369.355 445.666H365.899V454.882ZM367.569 450.121V447.061H369.099C370.345 447.061 370.903 447.632 370.903 448.613C370.903 449.594 370.345 450.121 369.108 450.121H367.569ZM378.728 451.975C378.728 453.028 377.977 453.55 377.257 453.55C376.474 453.55 375.952 452.996 375.952 452.119V447.97H374.323V452.371C374.323 454.031 375.268 454.972 376.627 454.972C377.662 454.972 378.391 454.427 378.706 453.653H378.778V454.882H380.357V447.97H378.728V451.975ZM383.915 450.832C383.915 449.833 384.518 449.257 385.378 449.257C386.219 449.257 386.723 449.81 386.723 450.733V454.882H388.352V450.481C388.357 448.825 387.412 447.88 385.985 447.88C384.95 447.88 384.239 448.375 383.924 449.144H383.843V447.97H382.286V454.882H383.915V450.832ZM394.964 445.666H393.132L396.377 454.882H398.438L401.687 445.666H399.851L397.457 452.92H397.362L394.964 445.666ZM405.4 455.017C407.011 455.017 408.118 454.229 408.406 453.028L406.885 452.857C406.664 453.442 406.124 453.748 405.422 453.748C404.369 453.748 403.672 453.055 403.658 451.871H408.473V451.372C408.473 448.946 407.015 447.88 405.314 447.88C403.334 447.88 402.043 449.333 402.043 451.466C402.043 453.635 403.316 455.017 405.4 455.017ZM403.663 450.773C403.712 449.891 404.365 449.149 405.337 449.149C406.273 449.149 406.903 449.833 406.912 450.773H403.663ZM410.105 454.882H411.734V450.818C411.734 449.941 412.395 449.32 413.291 449.32C413.566 449.32 413.908 449.369 414.047 449.414V447.916C413.899 447.889 413.642 447.871 413.462 447.871C412.67 447.871 412.008 448.321 411.756 449.122H411.684V447.97H410.105V454.882ZM415.383 454.882H417.012V447.97H415.383V454.882ZM416.202 446.989C416.719 446.989 417.142 446.593 417.142 446.107C417.142 445.616 416.719 445.22 416.202 445.22C415.68 445.22 415.257 445.616 415.257 446.107C415.257 446.593 415.68 446.989 416.202 446.989ZM422.442 447.97H421.006V447.425C421.006 446.885 421.231 446.584 421.839 446.584C422.095 446.584 422.311 446.642 422.446 446.683L422.775 445.423C422.563 445.351 422.1 445.234 421.537 445.234C420.336 445.234 419.377 445.922 419.377 447.317V447.97H418.355V449.23H419.377V454.882H421.006V449.23H422.442V447.97ZM423.971 454.882H425.6V447.97H423.971V454.882ZM424.79 446.989C425.307 446.989 425.73 446.593 425.73 446.107C425.73 445.616 425.307 445.22 424.79 445.22C424.268 445.22 423.845 445.616 423.845 446.107C423.845 446.593 424.268 446.989 424.79 446.989ZM430.544 455.017C432.281 455.017 433.388 453.986 433.505 452.519H431.948C431.808 453.262 431.273 453.689 430.557 453.689C429.54 453.689 428.883 452.839 428.883 451.426C428.883 450.031 429.554 449.194 430.557 449.194C431.34 449.194 431.822 449.698 431.948 450.364H433.505C433.392 448.865 432.222 447.88 430.535 447.88C428.51 447.88 427.231 449.342 427.231 451.453C427.231 453.545 428.478 455.017 430.544 455.017ZM437.085 455.021C438.169 455.021 438.817 454.513 439.114 453.932H439.168V454.882H440.735V450.256C440.735 448.429 439.245 447.88 437.926 447.88C436.473 447.88 435.357 448.528 434.997 449.788L436.518 450.004C436.68 449.531 437.139 449.126 437.935 449.126C438.691 449.126 439.105 449.513 439.105 450.193V450.22C439.105 450.688 438.615 450.71 437.395 450.841C436.054 450.985 434.772 451.385 434.772 452.942C434.772 454.301 435.766 455.021 437.085 455.021ZM437.508 453.824C436.828 453.824 436.342 453.514 436.342 452.915C436.342 452.29 436.887 452.029 437.616 451.925C438.043 451.867 438.898 451.759 439.11 451.588V452.402C439.11 453.172 438.489 453.824 437.508 453.824ZM446.078 447.97H444.714V446.314H443.085V447.97H442.104V449.23H443.085V453.073C443.076 454.373 444.021 455.012 445.245 454.976C445.709 454.963 446.028 454.873 446.204 454.814L445.929 453.541C445.839 453.563 445.655 453.604 445.452 453.604C445.043 453.604 444.714 453.46 444.714 452.803V449.23H446.078V447.97ZM447.694 454.882H449.323V447.97H447.694V454.882ZM448.513 446.989C449.03 446.989 449.453 446.593 449.453 446.107C449.453 445.616 449.03 445.22 448.513 445.22C447.991 445.22 447.567 445.616 447.567 446.107C447.567 446.593 447.991 446.989 448.513 446.989ZM454.266 455.017C456.291 455.017 457.578 453.59 457.578 451.453C457.578 449.311 456.291 447.88 454.266 447.88C452.241 447.88 450.954 449.311 450.954 451.453C450.954 453.59 452.241 455.017 454.266 455.017ZM454.275 453.712C453.155 453.712 452.606 452.713 452.606 451.448C452.606 450.184 453.155 449.171 454.275 449.171C455.378 449.171 455.927 450.184 455.927 451.448C455.927 452.713 455.378 453.712 454.275 453.712ZM460.844 450.832C460.844 449.833 461.447 449.257 462.306 449.257C463.148 449.257 463.652 449.81 463.652 450.733V454.882H465.281V450.481C465.285 448.825 464.34 447.88 462.914 447.88C461.879 447.88 461.168 448.375 460.853 449.144H460.772V447.97H459.215V454.882H460.844V450.832Z" fill="white"/>
<defs>
<filter id="filter0_f_2128_13237" x="1.57362" y="0.573622" width="753.853" height="534.853" filterUnits="userSpaceOnUse" color-interpolation-filters="sRGB">
<feFlood flood-opacity="0" result="BackgroundImageFix"/>
<feBlend mode="normal" in="SourceGraphic" in2="BackgroundImageFix" result="shape"/>
<feGaussianBlur stdDeviation="8.71319" result="effect1_foregroundBlur_2128_13237"/>
</filter>
<clipPath id="clip0_2128_13237">
<rect width="62.9658" height="10.5342" fill="white" transform="translate(26 64)"/>
</clipPath>
</defs>
</svg>
