<svg width="136" height="58" viewBox="0 0 136 58" fill="none" xmlns="http://www.w3.org/2000/svg">
<path fill-rule="evenodd" clip-rule="evenodd" d="M29.0523 26.9623C34.8715 26.9623 39.4836 22.2806 39.4836 16.2868C39.4836 10.2935 34.8715 5.61133 29.0523 5.61133C23.2332 5.61133 18.6211 10.2935 18.6211 16.2868C18.6212 22.2806 23.2332 26.9623 29.0523 26.9623ZM29.0523 21.2361C26.2687 21.2361 24.3541 19.1215 24.3541 16.2868C24.3541 13.4519 26.2686 11.338 29.0523 11.338C31.8358 11.338 33.7501 13.4524 33.7501 16.2868C33.7501 19.1215 31.8363 21.2361 29.0523 21.2361Z" fill="white"/>
<path fill-rule="evenodd" clip-rule="evenodd" d="M75.6653 18.6183C75.8154 17.8511 75.8822 17.069 75.8822 16.2868C75.8822 10.3403 71.7836 5.61133 65.8887 5.61133C59.8471 5.61133 55.418 10.0732 55.418 16.2868C55.418 22.8095 60.0948 26.9623 66.3269 26.9623C69.7578 26.9623 72.7706 25.7705 74.8312 22.9106L70.251 20.2052C69.2827 21.2453 67.7784 21.7269 66.4064 21.7269C64.2509 21.7269 62.3117 21.0182 61.5165 18.7829L61.4581 18.6182H75.6653V18.6183ZM61.3941 14.1279C61.9913 11.8925 63.6306 10.8061 65.8492 10.8061C67.9845 10.8061 69.6021 11.9592 70.1843 14.1275L70.2262 14.283H61.3528L61.3941 14.1279Z" fill="white"/>
<path fill-rule="evenodd" clip-rule="evenodd" d="M84.1473 13.0672V0.910156H78.4141V26.3897H84.1473V18.3813C84.3772 18.3813 84.6062 18.3746 84.8329 18.3611L90.4906 26.3897H96.9597L89.9807 16.8041C90.9178 16.2582 91.7759 15.5861 92.5324 14.8089L92.5428 14.7983C94.6906 12.5911 96.0204 9.5442 96.0204 6.18374H90.8476C90.8476 8.08857 90.0996 9.81185 88.8905 11.0568C87.6787 12.2986 86.0014 13.0672 84.1473 13.0672Z" fill="white"/>
<path fill-rule="evenodd" clip-rule="evenodd" d="M112.552 6.18555L108.731 18.9659L104.218 6.18555H97.9121L105.784 25.5703L105.768 25.6152C104.849 28.2332 103.431 29.0664 100.798 29.0906V34.5776C106.839 34.8452 109.962 31.5443 111.913 25.8601L118.666 6.18555H112.552Z" fill="white"/>
<path fill-rule="evenodd" clip-rule="evenodd" d="M50.5231 6.18555H54.0226V11.9828H50.5231C48.8609 11.9828 47.4807 13.4006 47.4807 15.1084V17.5355V20.5944V26.3916H41.8379V15.1083C41.8379 10.2005 45.746 6.18555 50.5231 6.18555Z" fill="white"/>
<path fill-rule="evenodd" clip-rule="evenodd" d="M127.581 26.3604H134.467V20.5724H127.581C125.92 20.5724 124.543 19.1565 124.543 17.451V17.0701V15.095C124.543 13.3895 125.92 11.9736 127.581 11.9736H134.467V6.18555H127.581C122.811 6.18555 118.908 10.1946 118.908 15.095V17.0701V17.451C118.908 22.349 122.81 26.3604 127.581 26.3604Z" fill="white"/>
<path fill-rule="evenodd" clip-rule="evenodd" d="M9.67232 26.3604H16.5587V20.5724H9.67232C8.01214 20.5724 6.63452 19.1565 6.63452 17.451V17.0701V15.095C6.63452 13.3895 8.01214 11.9736 9.67232 11.9736H16.5587V6.18555H9.67232C4.90296 6.18555 1 10.1946 1 15.095V17.0701V17.451C0.999904 22.349 4.90228 26.3604 9.67232 26.3604Z" fill="white"/>
<path d="M9.25568 49V39.5455H14.7262V40.321H10.119V43.8803H14.2969V44.6559H10.119V49H9.25568ZM19.9776 49.1477C19.3651 49.1477 18.8235 48.9923 18.3526 48.6815C17.8848 48.3706 17.5185 47.9413 17.2539 47.3935C16.9892 46.8426 16.8569 46.207 16.8569 45.4869C16.8569 44.7605 16.9892 44.1219 17.2539 43.571C17.5185 43.017 17.8848 42.5862 18.3526 42.2784C18.8235 41.9676 19.3651 41.8121 19.9776 41.8121C20.59 41.8121 21.1302 41.9676 21.598 42.2784C22.0658 42.5893 22.432 43.0201 22.6967 43.571C22.9644 44.1219 23.0983 44.7605 23.0983 45.4869C23.0983 46.207 22.966 46.8426 22.7013 47.3935C22.4366 47.9413 22.0689 48.3706 21.598 48.6815C21.1302 48.9923 20.59 49.1477 19.9776 49.1477ZM19.9776 48.3952C20.47 48.3952 20.887 48.2629 21.2287 47.9982C21.5703 47.7335 21.8288 47.3812 22.0042 46.9411C22.1827 46.5009 22.272 46.0162 22.272 45.4869C22.272 44.9575 22.1827 44.4712 22.0042 44.0281C21.8288 43.5849 21.5703 43.2294 21.2287 42.9616C20.887 42.6939 20.47 42.56 19.9776 42.56C19.4882 42.56 19.0712 42.6939 18.7265 42.9616C18.3849 43.2294 18.1248 43.5849 17.9463 44.0281C17.7709 44.4712 17.6832 44.9575 17.6832 45.4869C17.6832 46.0162 17.7709 46.5009 17.9463 46.9411C18.1248 47.3812 18.3849 47.7335 18.7265 47.9982C19.0681 48.2629 19.4852 48.3952 19.9776 48.3952ZM25.9422 49V41.9091H26.7409V42.9986H26.8009C26.9425 42.6416 27.1887 42.3538 27.5395 42.1353C27.8934 41.9137 28.2935 41.8029 28.7398 41.8029C28.8075 41.8029 28.8829 41.8045 28.966 41.8075C29.0491 41.8106 29.1184 41.8137 29.1737 41.8168V42.6523C29.1368 42.6462 29.0722 42.637 28.9799 42.6246C28.8875 42.6123 28.7875 42.6062 28.6798 42.6062C28.3105 42.6062 27.9812 42.6847 27.6919 42.8416C27.4056 42.9955 27.1794 43.2094 27.0132 43.4833C26.847 43.7572 26.7639 44.0696 26.7639 44.4205V49H25.9422ZM31.616 49V41.9091H32.4147V42.9986H32.4885C32.6301 42.6323 32.8655 42.3446 33.1948 42.1353C33.5272 41.9229 33.9258 41.8168 34.3905 41.8168C34.8799 41.8168 35.2815 41.9322 35.5954 42.163C35.9124 42.3907 36.1494 42.7047 36.3063 43.1048H36.3664C36.5264 42.7108 36.7865 42.3984 37.1465 42.1676C37.5097 41.9337 37.9498 41.8168 38.4669 41.8168C39.1255 41.8168 39.6456 42.0245 40.0272 42.44C40.4089 42.8524 40.5997 43.4556 40.5997 44.2496V49H39.7779V44.2496C39.7779 43.6895 39.6348 43.2694 39.3486 42.9893C39.0624 42.7093 38.6854 42.5692 38.2176 42.5692C37.6759 42.5692 37.2589 42.7354 36.9665 43.0678C36.6741 43.4002 36.5279 43.8219 36.5279 44.3327V49H35.6877V44.1758C35.6877 43.6957 35.5539 43.3079 35.2861 43.0124C35.0183 42.717 34.6413 42.5692 34.1551 42.5692C33.8288 42.5692 33.5349 42.6493 33.2733 42.8093C33.0148 42.9693 32.8101 43.1925 32.6593 43.4787C32.5116 43.7618 32.4377 44.0881 32.4377 44.4574V49H31.616ZM46.682 49.1477C46.0203 49.1477 45.4479 48.9938 44.9647 48.6861C44.4815 48.3752 44.1076 47.9459 43.8429 47.3981C43.5813 46.8472 43.4505 46.2132 43.4505 45.4961C43.4505 44.7821 43.5813 44.1481 43.8429 43.5941C44.1076 43.037 44.4723 42.6016 44.937 42.2876C45.4048 41.9706 45.9449 41.8121 46.5574 41.8121C46.9421 41.8121 47.3129 41.8829 47.6699 42.0245C48.027 42.163 48.347 42.3769 48.6302 42.6662C48.9164 42.9524 49.1426 43.314 49.3088 43.7511C49.475 44.185 49.5581 44.699 49.5581 45.293V45.6992H44.0183V44.9744H48.7179C48.7179 44.5189 48.6256 44.1096 48.4409 43.7464C48.2593 43.3802 48.0054 43.0909 47.6792 42.8786C47.356 42.6662 46.9821 42.56 46.5574 42.56C46.108 42.56 45.7126 42.68 45.3709 42.9201C45.0293 43.1602 44.7616 43.4772 44.5677 43.8711C44.3769 44.265 44.2799 44.6959 44.2768 45.1637V45.5977C44.2768 46.1609 44.3738 46.6533 44.5677 47.0749C44.7646 47.4935 45.0432 47.8182 45.4033 48.049C45.7633 48.2798 46.1896 48.3952 46.682 48.3952C47.0175 48.3952 47.3114 48.3429 47.5638 48.2383C47.8192 48.1336 48.0331 47.9936 48.2055 47.8182C48.3809 47.6397 48.5132 47.4442 48.6025 47.2319L49.3827 47.4858C49.2749 47.7843 49.098 48.0598 48.8518 48.3121C48.6086 48.5645 48.3039 48.7676 47.9377 48.9215C47.5745 49.0723 47.156 49.1477 46.682 49.1477ZM53.2306 39.5455V49H52.4089V39.5455H53.2306ZM57.0174 51.6591C56.8543 51.6591 56.702 51.6437 56.5604 51.6129C56.4188 51.5821 56.3065 51.5483 56.2234 51.5114L56.445 50.7866C56.7251 50.8728 56.9743 50.9035 57.1929 50.8789C57.4114 50.8574 57.6053 50.7589 57.7745 50.5835C57.9438 50.4111 58.0946 50.1464 58.2269 49.7894L58.4855 49.0692L55.8772 41.9091H56.7681L58.8733 47.9151H58.9379L61.043 41.9091H61.934L58.9333 50.1218C58.8071 50.4634 58.6517 50.7481 58.467 50.9759C58.2823 51.2067 58.0684 51.3775 57.8253 51.4883C57.5853 51.6022 57.316 51.6591 57.0174 51.6591ZM69.4487 49V39.5455H72.5002C73.1711 39.5455 73.7313 39.667 74.1806 39.9102C74.633 40.1502 74.9731 40.4841 75.2009 40.9119C75.4317 41.3366 75.5471 41.8245 75.5471 42.3754C75.5471 42.9263 75.4317 43.4125 75.2009 43.8342C74.9731 44.2558 74.6346 44.5851 74.1852 44.8221C73.7359 45.0591 73.1788 45.1776 72.5141 45.1776H69.915V44.3881H72.491C72.9834 44.3881 73.3927 44.3066 73.719 44.1435C74.0483 43.9804 74.293 43.748 74.453 43.4464C74.6161 43.1448 74.6977 42.7878 74.6977 42.3754C74.6977 41.9629 74.6161 41.6029 74.453 41.2951C74.2899 40.9843 74.0437 40.7442 73.7144 40.5749C73.3881 40.4057 72.9757 40.321 72.4771 40.321H70.312V49H69.4487ZM73.6174 44.7344L75.9441 49H74.947L72.6433 44.7344H73.6174ZM81.3098 49.1477C80.6481 49.1477 80.0756 48.9938 79.5924 48.6861C79.1092 48.3752 78.7353 47.9459 78.4706 47.3981C78.209 46.8472 78.0782 46.2132 78.0782 45.4961C78.0782 44.7821 78.209 44.1481 78.4706 43.5941C78.7353 43.037 79.1 42.6016 79.5647 42.2876C80.0325 41.9706 80.5727 41.8121 81.1851 41.8121C81.5698 41.8121 81.9407 41.8829 82.2977 42.0245C82.6547 42.163 82.9748 42.3769 83.2579 42.6662C83.5441 42.9524 83.7703 43.314 83.9365 43.7511C84.1027 44.185 84.1858 44.699 84.1858 45.293V45.6992H78.646V44.9744H83.3456C83.3456 44.5189 83.2533 44.1096 83.0686 43.7464C82.887 43.3802 82.6331 43.0909 82.3069 42.8786C81.9838 42.6662 81.6098 42.56 81.1851 42.56C80.7358 42.56 80.3403 42.68 79.9987 42.9201C79.6571 43.1602 79.3893 43.4772 79.1954 43.8711C79.0046 44.265 78.9076 44.6959 78.9046 45.1637V45.5977C78.9046 46.1609 79.0015 46.6533 79.1954 47.0749C79.3924 47.4935 79.6709 47.8182 80.031 48.049C80.3911 48.2798 80.8173 48.3952 81.3098 48.3952C81.6452 48.3952 81.9391 48.3429 82.1915 48.2383C82.4469 48.1336 82.6608 47.9936 82.8332 47.8182C83.0086 47.6397 83.141 47.4442 83.2302 47.2319L84.0104 47.4858C83.9027 47.7843 83.7257 48.0598 83.4795 48.3121C83.2364 48.5645 82.9317 48.7676 82.5654 48.9215C82.2023 49.0723 81.7837 49.1477 81.3098 49.1477ZM89.0171 49.1616C88.5893 49.1616 88.1984 49.0785 87.8445 48.9123C87.4906 48.743 87.209 48.4999 86.9997 48.1829C86.7904 47.8628 86.6858 47.475 86.6858 47.0195C86.6858 46.6687 86.7519 46.3732 86.8843 46.1332C87.0166 45.8931 87.2044 45.6961 87.4475 45.5423C87.6906 45.3884 87.9784 45.2668 88.3108 45.1776C88.6432 45.0883 89.0094 45.0191 89.4095 44.9698C89.8065 44.9206 90.142 44.8775 90.4159 44.8406C90.6929 44.8036 90.9037 44.7451 91.0484 44.6651C91.193 44.5851 91.2653 44.4558 91.2653 44.2773V44.1112C91.2653 43.628 91.1207 43.2479 90.8314 42.9709C90.5452 42.6908 90.1327 42.5508 89.5942 42.5508C89.0833 42.5508 88.6662 42.6631 88.3431 42.8878C88.023 43.1125 87.7984 43.3771 87.6691 43.6818L86.8889 43.4002C87.0489 43.0124 87.2705 42.7031 87.5537 42.4723C87.8368 42.2384 88.1538 42.0707 88.5047 41.9691C88.8555 41.8645 89.211 41.8121 89.5711 41.8121C89.8419 41.8121 90.1235 41.8475 90.4159 41.9183C90.7113 41.9891 90.9853 42.1122 91.2376 42.2876C91.49 42.46 91.6947 42.7016 91.8516 43.0124C92.0086 43.3202 92.0871 43.7111 92.0871 44.185V49H91.2653V47.8782H91.2145C91.1161 48.0875 90.9699 48.2906 90.776 48.4876C90.5821 48.6845 90.339 48.8461 90.0466 48.9723C89.7542 49.0985 89.411 49.1616 89.0171 49.1616ZM89.1279 48.4091C89.5649 48.4091 89.9435 48.3121 90.2635 48.1183C90.5836 47.9244 90.8298 47.6674 91.0022 47.3473C91.1776 47.0241 91.2653 46.6687 91.2653 46.2809V45.256C91.2038 45.3145 91.1007 45.3668 90.956 45.413C90.8144 45.4592 90.6498 45.5007 90.4621 45.5376C90.2774 45.5715 90.0927 45.6007 89.9081 45.6254C89.7234 45.65 89.5572 45.6715 89.4095 45.69C89.0094 45.7392 88.6678 45.8162 88.3846 45.9208C88.1015 46.0254 87.8845 46.1701 87.7337 46.3548C87.5829 46.5363 87.5075 46.7702 87.5075 47.0565C87.5075 47.4873 87.6614 47.8213 87.9692 48.0582C88.2769 48.2921 88.6632 48.4091 89.1279 48.4091ZM96.1347 39.5455V49H95.313V39.5455H96.1347ZM99.5337 49H98.6289L102.068 39.5455H102.991L106.431 49H105.526L102.562 40.6673H102.497L99.5337 49ZM100.185 45.3761H104.875V46.1516H100.185V45.3761ZM109.091 39.5455H110.088L113.518 47.7812H113.601L117.031 39.5455H118.029V49H117.216V41.369H117.142L113.952 49H113.167L109.977 41.369H109.904V49H109.091V39.5455ZM121.582 49V39.5455H122.446V48.2244H126.951V49H121.582Z" fill="white"/>
</svg>
