<svg width="370" height="681" viewBox="0 0 370 681" fill="none" xmlns="http://www.w3.org/2000/svg">
<g filter="url(#filter0_f_2301_22338)">
<rect x="40" y="40" width="290" height="601" rx="60" fill="#35353D" fill-opacity="0.12"/>
</g>
<rect x="20" y="20" width="290" height="601" rx="40" fill="#E6E9EF"/>
<path d="M17 143C17 141.343 18.3431 140 20 140V162C18.3431 162 17 160.657 17 159V143Z" fill="#E6E9EF"/>
<path d="M17 186C17 184.343 18.3431 183 20 183V228C18.3431 228 17 226.657 17 225V186Z" fill="#E6E9EF"/>
<path d="M17 244C17 242.343 18.3431 241 20 241V286C18.3431 286 17 284.657 17 283V244Z" fill="#E6E9EF"/>
<path d="M313 201C313 199.343 311.657 198 310 198V270C311.657 270 313 268.657 313 267V201Z" fill="#E6E9EF"/>
<rect x="30" y="30" width="270" height="581" rx="32" fill="white"/>
<path d="M108 20H219V27.118C219 36.4417 211.442 44 202.118 44H124.882C115.558 44 108 36.4417 108 27.118V20Z" fill="#E6E9EF"/>
<path fill-rule="evenodd" clip-rule="evenodd" d="M140.604 87.6979C144.048 87.6979 146.778 85.0567 146.778 81.6751C146.778 78.2939 144.048 75.6523 140.604 75.6523C137.159 75.6523 134.43 78.2939 134.43 81.6751C134.43 85.0567 137.159 87.6979 140.604 87.6979ZM140.604 84.4674C138.956 84.4674 137.823 83.2744 137.823 81.6751C137.823 80.0758 138.956 78.8832 140.604 78.8832C142.251 78.8832 143.384 80.0761 143.384 81.6751C143.384 83.2744 142.252 84.4674 140.604 84.4674Z" fill="#4959E7"/>
<path fill-rule="evenodd" clip-rule="evenodd" d="M168.193 82.9905C168.282 82.5577 168.321 82.1164 168.321 81.6751C168.321 78.3203 165.896 75.6523 162.406 75.6523C158.83 75.6523 156.209 78.1696 156.209 81.6751C156.209 85.3551 158.977 87.6979 162.666 87.6979C164.696 87.6979 166.48 87.0256 167.699 85.4121L164.988 83.8858C164.415 84.4726 163.525 84.7443 162.713 84.7443C161.437 84.7443 160.289 84.3445 159.819 83.0834L159.784 82.9904H168.193V82.9905ZM159.746 80.4571C160.1 79.196 161.07 78.5831 162.383 78.5831C163.647 78.5831 164.604 79.2337 164.949 80.4569L164.974 80.5447H159.722L159.746 80.4571Z" fill="#4959E7"/>
<path fill-rule="evenodd" clip-rule="evenodd" d="M173.215 79.8587V73H169.822V87.3748H173.215V82.8568C173.351 82.8568 173.487 82.853 173.621 82.8453L176.97 87.3748H180.799L176.668 81.9669C177.223 81.6589 177.73 81.2798 178.178 80.8413L178.184 80.8353C179.456 79.59 180.243 77.8711 180.243 75.9752H177.181C177.181 77.0499 176.738 78.0221 176.023 78.7244C175.305 79.425 174.313 79.8587 173.215 79.8587Z" fill="#4959E7"/>
<path fill-rule="evenodd" clip-rule="evenodd" d="M190.027 75.9736L187.765 83.1839L185.094 75.9736H181.361L186.02 86.9099L186.011 86.9353C185.467 88.4123 184.628 88.8824 183.07 88.896V91.9916C186.645 92.1426 188.494 90.2803 189.648 87.0735L193.645 75.9736H190.027Z" fill="#4959E7"/>
<path fill-rule="evenodd" clip-rule="evenodd" d="M153.313 75.9775H155.384V79.2482H153.313C152.329 79.2482 151.512 80.0481 151.512 81.0116V82.3808V84.1066V87.3772H148.172V81.0115C148.172 78.2427 150.485 75.9775 153.313 75.9775Z" fill="#4959E7"/>
<path fill-rule="evenodd" clip-rule="evenodd" d="M198.924 87.3597H203V84.0942H198.924C197.941 84.0942 197.126 83.2954 197.126 82.3332V82.1183V81.004C197.126 80.0418 197.941 79.243 198.924 79.243H203V75.9775H198.924C196.101 75.9775 193.791 78.2393 193.791 81.004V82.1183V82.3332C193.791 85.0965 196.101 87.3597 198.924 87.3597Z" fill="#4959E7"/>
<path fill-rule="evenodd" clip-rule="evenodd" d="M129.133 87.3557H133.209V84.0903H129.133C128.15 84.0903 127.335 83.2915 127.335 82.3293V82.1144V81.0001C127.335 80.0379 128.15 79.2391 129.133 79.2391H133.209V75.9736H129.133C126.31 75.9736 124 78.2354 124 81.0001V82.1144V82.3293C124 85.0926 126.31 87.3557 129.133 87.3557Z" fill="#4959E7"/>
<path d="M55.4531 76.0938L49.5469 82L55.4531 87.9062" stroke="#110F24" stroke-width="1.03633" stroke-linecap="round" stroke-linejoin="round"/>
<rect x="50" y="122" width="230" height="6" rx="3" fill="#F4F4F4"/>
<rect x="50" y="122" width="99" height="6" rx="3" fill="#4959E7"/>
<path d="M59.3395 172.453H61.875C61.8253 169.996 59.7301 168.256 56.6335 168.256C53.5795 168.256 51.2855 169.974 51.2926 172.545C51.2926 174.634 52.777 175.834 55.1705 176.452L56.8253 176.878C58.3949 177.276 59.4318 177.766 59.4389 178.895C59.4318 180.138 58.2528 180.969 56.5341 180.969C54.8864 180.969 53.608 180.23 53.5014 178.703H50.9091C51.0156 181.594 53.1676 183.22 56.5554 183.22C60.0426 183.22 62.0668 181.48 62.0739 178.916C62.0668 176.395 59.9858 175.244 57.7983 174.726L56.4347 174.385C55.2415 174.101 53.9489 173.597 53.9631 172.382C53.9702 171.288 54.9503 170.486 56.598 170.486C58.1676 170.486 59.2045 171.217 59.3395 172.453ZM69.0678 183.213C71.8093 183.213 73.5565 181.587 73.7411 179.271H71.2837C71.0636 180.443 70.2184 181.118 69.0891 181.118C67.484 181.118 66.4471 179.776 66.4471 177.545C66.4471 175.344 67.5053 174.023 69.0891 174.023C70.3249 174.023 71.0849 174.818 71.2837 175.869H73.7411C73.5636 173.504 71.717 171.949 69.0536 171.949C65.8576 171.949 63.8406 174.257 63.8406 177.588C63.8406 180.891 65.8079 183.213 69.0678 183.213ZM78.9915 183.22C80.7031 183.22 81.7259 182.418 82.1946 181.501H82.2798V183H84.7514V175.699C84.7514 172.815 82.4006 171.949 80.3196 171.949C78.0256 171.949 76.2642 172.972 75.696 174.96L78.0966 175.301C78.3523 174.555 79.0767 173.916 80.3338 173.916C81.527 173.916 82.1804 174.527 82.1804 175.599V175.642C82.1804 176.381 81.4062 176.416 79.4815 176.622C77.3651 176.849 75.3409 177.482 75.3409 179.939C75.3409 182.084 76.9105 183.22 78.9915 183.22ZM79.6591 181.331C78.5866 181.331 77.8196 180.841 77.8196 179.896C77.8196 178.909 78.679 178.497 79.8295 178.334C80.5043 178.241 81.8537 178.071 82.1875 177.801V179.087C82.1875 180.301 81.2074 181.331 79.6591 181.331ZM89.9077 176.608C89.9077 175.031 90.8594 174.122 92.2159 174.122C93.544 174.122 94.3395 174.996 94.3395 176.452V183H96.9105V176.054C96.9176 173.44 95.4261 171.949 93.1747 171.949C91.5412 171.949 90.419 172.73 89.9219 173.945H89.794V172.091H87.3366V183H89.9077V176.608ZM109.933 172.091H107.781V169.477H105.21V172.091H103.661V174.08H105.21V180.145C105.195 182.197 106.687 183.206 108.619 183.149C109.35 183.128 109.854 182.986 110.131 182.893L109.698 180.884C109.556 180.919 109.265 180.983 108.945 180.983C108.299 180.983 107.781 180.756 107.781 179.719V174.08H109.933V172.091ZM114.888 176.608C114.888 175.031 115.868 174.122 117.246 174.122C118.596 174.122 119.391 174.982 119.391 176.452V183H121.962V176.054C121.962 173.419 120.471 171.949 118.205 171.949C116.529 171.949 115.463 172.709 114.959 173.945H114.831V168.455H112.317V183H114.888V176.608ZM129.412 183.213C131.955 183.213 133.702 181.97 134.157 180.074L131.756 179.804C131.408 180.727 130.556 181.21 129.448 181.21C127.786 181.21 126.685 180.116 126.664 178.249H134.263V177.46C134.263 173.632 131.962 171.949 129.277 171.949C126.152 171.949 124.114 174.243 124.114 177.609C124.114 181.033 126.124 183.213 129.412 183.213ZM126.671 176.516C126.749 175.124 127.779 173.952 129.313 173.952C130.79 173.952 131.784 175.031 131.799 176.516H126.671ZM146.925 172.091H144.659V171.232C144.659 170.379 145.014 169.903 145.973 169.903C146.378 169.903 146.719 169.996 146.932 170.06L147.45 168.071C147.116 167.957 146.385 167.773 145.497 167.773C143.601 167.773 142.088 168.859 142.088 171.061V172.091H140.476V174.08H142.088V183H144.659V174.08H146.925V172.091ZM148.938 183H151.509V176.587C151.509 175.202 152.553 174.222 153.967 174.222C154.4 174.222 154.94 174.3 155.16 174.371V172.006C154.925 171.963 154.521 171.935 154.237 171.935C152.987 171.935 151.942 172.645 151.545 173.909H151.431V172.091H148.938V183ZM161.177 183.213C164.373 183.213 166.404 180.962 166.404 177.588C166.404 174.207 164.373 171.949 161.177 171.949C157.981 171.949 155.95 174.207 155.95 177.588C155.95 180.962 157.981 183.213 161.177 183.213ZM161.191 181.153C159.423 181.153 158.556 179.577 158.556 177.581C158.556 175.585 159.423 173.987 161.191 173.987C162.931 173.987 163.798 175.585 163.798 177.581C163.798 179.577 162.931 181.153 161.191 181.153ZM171.158 176.608C171.158 175.031 172.109 174.122 173.466 174.122C174.794 174.122 175.589 174.996 175.589 176.452V183H178.161V176.054C178.168 173.44 176.676 171.949 174.425 171.949C172.791 171.949 171.669 172.73 171.172 173.945H171.044V172.091H168.587V183H171.158V176.608ZM186.222 172.091H184.07V169.477H181.499V172.091H179.95V174.08H181.499V180.145C181.484 182.197 182.976 183.206 184.908 183.149C185.639 183.128 186.143 182.986 186.42 182.893L185.987 180.884C185.845 180.919 185.554 180.983 185.234 180.983C184.588 180.983 184.07 180.756 184.07 179.719V174.08H186.222V172.091ZM198.091 183.213C201.287 183.213 203.319 180.962 203.319 177.588C203.319 174.207 201.287 171.949 198.091 171.949C194.895 171.949 192.864 174.207 192.864 177.588C192.864 180.962 194.895 183.213 198.091 183.213ZM198.105 181.153C196.337 181.153 195.471 179.577 195.471 177.581C195.471 175.585 196.337 173.987 198.105 173.987C199.846 173.987 200.712 175.585 200.712 177.581C200.712 179.577 199.846 181.153 198.105 181.153ZM211.026 172.091H208.761V171.232C208.761 170.379 209.116 169.903 210.075 169.903C210.479 169.903 210.82 169.996 211.033 170.06L211.552 168.071C211.218 167.957 210.487 167.773 209.599 167.773C207.702 167.773 206.19 168.859 206.19 171.061V172.091H204.577V174.08H206.19V183H208.761V174.08H211.026V172.091ZM219.599 187.091C221.602 187.091 222.759 186.061 223.377 184.321L227.759 172.105L225.011 172.091L222.489 180.33H222.376L219.862 172.091H217.134L221.09 183.227L220.87 183.817C220.394 185.06 219.641 185.145 218.519 184.818L217.923 186.821C218.271 186.963 218.896 187.091 219.599 187.091ZM233.931 183.213C237.127 183.213 239.158 180.962 239.158 177.588C239.158 174.207 237.127 171.949 233.931 171.949C230.735 171.949 228.704 174.207 228.704 177.588C228.704 180.962 230.735 183.213 233.931 183.213ZM233.945 181.153C232.177 181.153 231.31 179.577 231.31 177.581C231.31 175.585 232.177 173.987 233.945 173.987C235.685 173.987 236.552 175.585 236.552 177.581C236.552 179.577 235.685 181.153 233.945 181.153ZM248.294 178.412C248.294 180.074 247.108 180.898 245.971 180.898C244.735 180.898 243.912 180.024 243.912 178.639V172.091H241.341V179.037C241.341 181.658 242.832 183.142 244.977 183.142C246.61 183.142 247.761 182.283 248.258 181.061H248.372V183H250.865V172.091H248.294V178.412ZM253.509 183H256.08V176.587C256.08 175.202 257.124 174.222 258.537 174.222C258.97 174.222 259.51 174.3 259.73 174.371V172.006C259.496 171.963 259.091 171.935 258.807 171.935C257.557 171.935 256.513 172.645 256.115 173.909H256.001V172.091H253.509V183ZM55.3693 207.192C57.2443 207.192 58.0895 206.077 58.4943 205.281H58.6506V207H61.179V192.455H58.6009V197.895H58.4943C58.1037 197.107 57.3011 195.949 55.3764 195.949C52.8551 195.949 50.8736 197.923 50.8736 201.56C50.8736 205.153 52.7983 207.192 55.3693 207.192ZM56.0866 205.082C54.3892 205.082 53.4943 203.591 53.4943 201.545C53.4943 199.514 54.375 198.058 56.0866 198.058C57.7415 198.058 58.6506 199.429 58.6506 201.545C58.6506 203.662 57.7273 205.082 56.0866 205.082ZM63.9187 207H66.4897V200.587C66.4897 199.202 67.5337 198.222 68.9471 198.222C69.3803 198.222 69.9201 198.3 70.1403 198.371V196.006C69.9059 195.963 69.5011 195.935 69.217 195.935C67.967 195.935 66.9229 196.645 66.5252 197.909H66.4116V196.091H63.9187V207ZM71.8484 207H74.4194V196.091H71.8484V207ZM73.141 194.543C73.9577 194.543 74.6254 193.918 74.6254 193.151C74.6254 192.376 73.9577 191.751 73.141 191.751C72.3171 191.751 71.6495 192.376 71.6495 193.151C71.6495 193.918 72.3171 194.543 73.141 194.543ZM86.8075 196.091H84.0732L81.5589 204.195H81.4453L78.9382 196.091H76.1967L80.0817 207H82.9226L86.8075 196.091ZM93.0451 207.213C95.5877 207.213 97.3349 205.97 97.7894 204.074L95.3888 203.804C95.0408 204.727 94.1886 205.21 93.0806 205.21C91.4187 205.21 90.3178 204.116 90.2965 202.249H97.896V201.46C97.896 197.632 95.5948 195.949 92.9102 195.949C89.7852 195.949 87.7468 198.243 87.7468 201.609C87.7468 205.033 89.7567 207.213 93.0451 207.213ZM90.3036 200.516C90.3817 199.124 91.4116 197.952 92.9457 197.952C94.4229 197.952 95.4173 199.031 95.4315 200.516H90.3036ZM100.071 207H102.642V200.587C102.642 199.202 103.686 198.222 105.099 198.222C105.533 198.222 106.072 198.3 106.293 198.371V196.006C106.058 195.963 105.653 195.935 105.369 195.935C104.119 195.935 103.075 196.645 102.678 197.909H102.564V196.091H100.071V207ZM115.533 192.455H112.962V207H115.533V192.455ZM118.176 207H120.748V196.091H118.176V207ZM119.469 194.543C120.286 194.543 120.953 193.918 120.953 193.151C120.953 192.376 120.286 191.751 119.469 191.751C118.645 191.751 117.978 192.376 117.978 193.151C117.978 193.918 118.645 194.543 119.469 194.543ZM128.15 207.213C130.891 207.213 132.638 205.587 132.823 203.271H130.366C130.146 204.443 129.3 205.118 128.171 205.118C126.566 205.118 125.529 203.776 125.529 201.545C125.529 199.344 126.587 198.023 128.171 198.023C129.407 198.023 130.167 198.818 130.366 199.869H132.823C132.646 197.504 130.799 195.949 128.136 195.949C124.94 195.949 122.923 198.257 122.923 201.588C122.923 204.891 124.89 207.213 128.15 207.213ZM139.764 207.213C142.306 207.213 144.054 205.97 144.508 204.074L142.108 203.804C141.76 204.727 140.907 205.21 139.799 205.21C138.137 205.21 137.037 204.116 137.015 202.249H144.615V201.46C144.615 197.632 142.314 195.949 139.629 195.949C136.504 195.949 134.466 198.243 134.466 201.609C134.466 205.033 136.475 207.213 139.764 207.213ZM137.022 200.516C137.1 199.124 138.13 197.952 139.664 197.952C141.142 197.952 142.136 199.031 142.15 200.516H137.022ZM149.361 200.608C149.361 199.031 150.312 198.122 151.669 198.122C152.997 198.122 153.793 198.996 153.793 200.452V207H156.364V200.054C156.371 197.44 154.879 195.949 152.628 195.949C150.994 195.949 149.872 196.73 149.375 197.945H149.247V196.091H146.79V207H149.361V200.608ZM163.736 207.213C166.477 207.213 168.224 205.587 168.409 203.271H165.952C165.732 204.443 164.886 205.118 163.757 205.118C162.152 205.118 161.115 203.776 161.115 201.545C161.115 199.344 162.173 198.023 163.757 198.023C164.993 198.023 165.753 198.818 165.952 199.869H168.409C168.232 197.504 166.385 195.949 163.722 195.949C160.526 195.949 158.509 198.257 158.509 201.588C158.509 204.891 160.476 207.213 163.736 207.213ZM175.35 207.213C177.892 207.213 179.64 205.97 180.094 204.074L177.694 203.804C177.346 204.727 176.493 205.21 175.385 205.21C173.723 205.21 172.623 204.116 172.601 202.249H180.201V201.46C180.201 197.632 177.9 195.949 175.215 195.949C172.09 195.949 170.051 198.243 170.051 201.609C170.051 205.033 172.061 207.213 175.35 207.213ZM172.608 200.516C172.686 199.124 173.716 197.952 175.25 197.952C176.728 197.952 177.722 199.031 177.736 200.516H172.608Z" fill="#494A53"/>
<rect x="68" y="469" width="194" height="8" rx="4" fill="#F4F4F4"/>
<rect x="94" y="487" width="142" height="8" rx="4" fill="#F4F4F4"/>
<rect x="50" y="535" width="230" height="37" rx="7.41379" fill="#4959E7"/>
<path d="M127.046 550.321H129.712V557.638H131.262V550.321H133.929V549.011H127.046V550.321ZM136.407 557.768C137.422 557.768 138.029 557.292 138.307 556.749H138.357V557.638H139.823V553.307C139.823 551.597 138.429 551.083 137.195 551.083C135.834 551.083 134.789 551.69 134.452 552.869L135.876 553.071C136.028 552.629 136.458 552.25 137.203 552.25C137.911 552.25 138.298 552.612 138.298 553.248V553.274C138.298 553.712 137.839 553.733 136.698 553.855C135.442 553.99 134.242 554.365 134.242 555.822C134.242 557.094 135.173 557.768 136.407 557.768ZM136.803 556.648C136.167 556.648 135.712 556.357 135.712 555.797C135.712 555.211 136.222 554.967 136.904 554.87C137.304 554.815 138.105 554.714 138.303 554.554V555.317C138.303 556.037 137.721 556.648 136.803 556.648ZM141.594 557.638H143.119V555.464L143.675 554.87L145.655 557.638H147.478L144.825 553.96L147.331 551.167H145.549L143.224 553.767H143.119V549.011H141.594V557.638ZM151.183 557.764C152.691 557.764 153.727 557.027 153.996 555.902L152.573 555.742C152.366 556.29 151.861 556.576 151.204 556.576C150.218 556.576 149.565 555.927 149.552 554.82H154.06V554.352C154.06 552.082 152.695 551.083 151.102 551.083C149.249 551.083 148.04 552.444 148.04 554.44C148.04 556.471 149.232 557.764 151.183 557.764ZM149.557 553.792C149.603 552.966 150.214 552.271 151.124 552.271C152 552.271 152.589 552.911 152.598 553.792H149.557ZM160.628 557.768C161.644 557.768 162.25 557.292 162.528 556.749H162.579V557.638H164.045V553.307C164.045 551.597 162.65 551.083 161.416 551.083C160.055 551.083 159.011 551.69 158.674 552.869L160.098 553.071C160.249 552.629 160.679 552.25 161.424 552.25C162.132 552.25 162.52 552.612 162.52 553.248V553.274C162.52 553.712 162.061 553.733 160.919 553.855C159.664 553.99 158.463 554.365 158.463 555.822C158.463 557.094 159.394 557.768 160.628 557.768ZM161.024 556.648C160.388 556.648 159.933 556.357 159.933 555.797C159.933 555.211 160.443 554.967 161.125 554.87C161.526 554.815 162.326 554.714 162.524 554.554V555.317C162.524 556.037 161.943 556.648 161.024 556.648ZM168.995 560.064H170.52V556.618H170.583C170.823 557.09 171.324 557.751 172.436 557.751C173.961 557.751 175.103 556.542 175.103 554.411C175.103 552.254 173.927 551.083 172.432 551.083C171.29 551.083 170.814 551.77 170.583 552.237H170.494V551.167H168.995V560.064ZM170.49 554.403C170.49 553.147 171.029 552.334 172.011 552.334C173.026 552.334 173.548 553.198 173.548 554.403C173.548 555.616 173.018 556.5 172.011 556.5C171.038 556.5 170.49 555.658 170.49 554.403ZM178.171 553.847C178.171 552.911 178.752 552.372 179.569 552.372C180.369 552.372 180.841 552.882 180.841 553.754V557.638H182.366V553.518C182.366 551.955 181.482 551.083 180.138 551.083C179.144 551.083 178.512 551.534 178.213 552.267H178.137V549.011H176.646V557.638H178.171V553.847ZM186.98 557.764C188.876 557.764 190.08 556.429 190.08 554.428C190.08 552.423 188.876 551.083 186.98 551.083C185.084 551.083 183.88 552.423 183.88 554.428C183.88 556.429 185.084 557.764 186.98 557.764ZM186.988 556.542C185.94 556.542 185.426 555.607 185.426 554.424C185.426 553.24 185.94 552.292 186.988 552.292C188.021 552.292 188.534 553.24 188.534 554.424C188.534 555.607 188.021 556.542 186.988 556.542ZM194.843 551.167H193.566V549.617H192.042V551.167H191.123V552.347H192.042V555.944C192.033 557.162 192.918 557.76 194.063 557.726C194.497 557.714 194.796 557.629 194.961 557.575L194.704 556.382C194.62 556.403 194.447 556.441 194.257 556.441C193.874 556.441 193.566 556.307 193.566 555.692V552.347H194.843V551.167ZM199.108 557.764C201.004 557.764 202.208 556.429 202.208 554.428C202.208 552.423 201.004 551.083 199.108 551.083C197.213 551.083 196.008 552.423 196.008 554.428C196.008 556.429 197.213 557.764 199.108 557.764ZM199.117 556.542C198.068 556.542 197.554 555.607 197.554 554.424C197.554 553.24 198.068 552.292 199.117 552.292C200.149 552.292 200.662 553.24 200.662 554.424C200.662 555.607 200.149 556.542 199.117 556.542Z" fill="white"/>
<path d="M160.216 374.226C161.045 374.226 161.716 373.555 161.716 372.726C161.716 371.898 161.045 371.226 160.216 371.226V374.226ZM179.355 371.226C178.526 371.226 177.855 371.898 177.855 372.726C177.855 373.555 178.526 374.226 179.355 374.226V371.226ZM171.899 374.226C172.727 374.226 173.399 373.555 173.399 372.726C173.399 371.898 172.727 371.226 171.899 371.226V374.226ZM168.51 371.226C167.681 371.226 167.01 371.898 167.01 372.726C167.01 373.555 167.681 374.226 168.51 374.226V371.226ZM122.687 301.77H207.315V298.77H122.687V301.77ZM216.45 310.905V362.09H219.45V310.905H216.45ZM113.551 362.09V310.905H110.551V362.09H113.551ZM160.216 371.226H122.687V374.226H160.216V371.226ZM207.315 371.226H179.355V374.226H207.315V371.226ZM171.899 371.226H168.51V374.226H171.899V371.226ZM110.551 362.09C110.551 368.793 115.985 374.226 122.687 374.226V371.226C117.642 371.226 113.551 367.136 113.551 362.09H110.551ZM216.45 362.09C216.45 367.136 212.36 371.226 207.315 371.226V374.226C214.017 374.226 219.45 368.793 219.45 362.09H216.45ZM207.315 301.77C212.36 301.77 216.45 305.86 216.45 310.905H219.45C219.45 304.203 214.017 298.77 207.315 298.77V301.77ZM122.687 298.77C115.985 298.77 110.551 304.203 110.551 310.905H113.551C113.551 305.86 117.642 301.77 122.687 301.77V298.77Z" fill="#F4F4F4"/>
<path d="M112.714 312.234L217.29 312.234" stroke="#F4F4F4" stroke-width="3" stroke-linecap="round"/>
<path d="M145.629 332.845C145.629 337.163 142.146 340.652 137.863 340.652C133.58 340.652 130.097 337.163 130.097 332.845C130.097 328.528 133.58 325.039 137.863 325.039C142.146 325.039 145.629 328.528 145.629 332.845Z" stroke="#4959E7" stroke-width="3"/>
<path d="M125.463 353.722C125.463 346.692 131.163 340.992 138.193 340.992C145.224 340.992 150.923 346.692 150.923 353.722V353.946H125.463V353.722Z" stroke="#4959E7" stroke-width="3"/>
<path d="M165.662 325.531H197.432" stroke="#4959E7" stroke-width="3" stroke-linecap="round"/>
<path d="M165.662 334.172H197.432" stroke="#4959E7" stroke-width="3" stroke-linecap="round"/>
<path d="M165.662 343.48H181.547" stroke="#4959E7" stroke-width="3" stroke-linecap="round"/>
<ellipse cx="166.988" cy="354.779" rx="1.98561" ry="1.99422" fill="#4959E7"/>
<ellipse cx="176.915" cy="354.779" rx="1.98561" ry="1.99422" fill="#4959E7"/>
<ellipse cx="186.841" cy="354.779" rx="1.98561" ry="1.99422" fill="#4959E7"/>
<ellipse cx="196.771" cy="354.779" rx="1.98561" ry="1.99422" fill="#4959E7"/>
<path d="M244.426 279H257.001V291.63" stroke="#4959E7" stroke-width="3" stroke-linecap="round"/>
<path d="M85.5756 279H73V291.63" stroke="#4959E7" stroke-width="3" stroke-linecap="round"/>
<path d="M244.426 394H257.001V381.37" stroke="#4959E7" stroke-width="3" stroke-linecap="round"/>
<path d="M85.5756 394H73V381.37" stroke="#4959E7" stroke-width="3" stroke-linecap="round"/>
<defs>
<filter id="filter0_f_2301_22338" x="0" y="0" width="370" height="681" filterUnits="userSpaceOnUse" color-interpolation-filters="sRGB">
<feFlood flood-opacity="0" result="BackgroundImageFix"/>
<feBlend mode="normal" in="SourceGraphic" in2="BackgroundImageFix" result="shape"/>
<feGaussianBlur stdDeviation="20" result="effect1_foregroundBlur_2301_22338"/>
</filter>
</defs>
</svg>
