<svg width="342" height="243" viewBox="0 0 342 243" fill="none" xmlns="http://www.w3.org/2000/svg">
<g filter="url(#filter0_f_2301_23341)">
<rect x="8.59863" y="8.75" width="325.401" height="226.287" rx="10.5156" fill="#35353D" fill-opacity="0.09"/>
<rect x="8.86152" y="9.01289" width="324.875" height="225.761" rx="10.2528" stroke="#F0F0F4" stroke-width="0.525782"/>
</g>
<rect x="0.262891" y="2.22481" width="324.423" height="225.761" rx="10.2528" fill="white" stroke="#F0F0F4" stroke-width="0.525782"/>
<g clip-path="url(#clip0_2301_23341)">
<path fill-rule="evenodd" clip-rule="evenodd" d="M17.9588 34.463C19.2316 34.463 20.2404 33.4784 20.2404 32.2178C20.2404 30.9574 19.2316 29.9727 17.9588 29.9727C16.686 29.9727 15.6772 30.9574 15.6772 32.2178C15.6773 33.4784 16.686 34.463 17.9588 34.463ZM17.9588 33.2587C17.35 33.2587 16.9312 32.814 16.9312 32.2178C16.9312 31.6216 17.3499 31.177 17.9588 31.177C18.5676 31.177 18.9863 31.6217 18.9863 32.2178C18.9863 32.814 18.5678 33.2587 17.9588 33.2587Z" fill="#4959E7"/>
<path fill-rule="evenodd" clip-rule="evenodd" d="M28.1547 32.7082C28.1875 32.5468 28.2021 32.3823 28.2021 32.2178C28.2021 30.9672 27.3057 29.9727 26.0163 29.9727C24.6948 29.9727 23.7261 30.911 23.7261 32.2178C23.7261 33.5897 24.749 34.463 26.1121 34.463C26.8626 34.463 27.5215 34.2124 27.9722 33.6109L26.9704 33.0419C26.7587 33.2607 26.4296 33.362 26.1295 33.362C25.658 33.362 25.2339 33.2129 25.06 32.7428L25.0472 32.7082H28.1547V32.7082ZM25.0332 31.7638C25.1638 31.2937 25.5224 31.0652 26.0076 31.0652C26.4747 31.0652 26.8285 31.3077 26.9558 31.7637L26.965 31.7964H25.0242L25.0332 31.7638Z" fill="#4959E7"/>
<path fill-rule="evenodd" clip-rule="evenodd" d="M30.0099 31.5402V28.9834H28.7559V34.3421H30.0099V32.6578C30.0601 32.6578 30.1102 32.6564 30.1598 32.6536L31.3973 34.3421H32.8123L31.2858 32.3261C31.4907 32.2113 31.6784 32.0699 31.8439 31.9065L31.8462 31.9043C32.3159 31.44 32.6068 30.7992 32.6068 30.0925H31.4754C31.4754 30.4931 31.3118 30.8555 31.0473 31.1174C30.7823 31.3785 30.4154 31.5402 30.0099 31.5402Z" fill="#4959E7"/>
<path fill-rule="evenodd" clip-rule="evenodd" d="M36.2217 30.0928L35.3859 32.7806L34.3989 30.0928H33.0195L34.7413 34.1696L34.7379 34.1791C34.5368 34.7297 34.2266 34.9049 33.6509 34.91V36.064C34.9721 36.1203 35.6552 35.426 36.0819 34.2306L37.5588 30.0928H36.2217Z" fill="#4959E7"/>
<path fill-rule="evenodd" clip-rule="evenodd" d="M22.6546 30.0928H23.42V31.312H22.6546C22.291 31.312 21.9891 31.6102 21.9891 31.9694V32.4798V33.1231V34.3424H20.7549V31.9693C20.7549 30.9372 21.6097 30.0928 22.6546 30.0928Z" fill="#4959E7"/>
<path fill-rule="evenodd" clip-rule="evenodd" d="M39.5097 34.3358H41.0159V33.1185H39.5097C39.1465 33.1185 38.8452 32.8207 38.8452 32.462V32.3819V31.9666C38.8452 31.6079 39.1465 31.3101 39.5097 31.3101H41.0159V30.0928H39.5097C38.4665 30.0928 37.6128 30.9359 37.6128 31.9666V32.3819V32.462C37.6128 33.4922 38.4663 34.3358 39.5097 34.3358Z" fill="#4959E7"/>
<path fill-rule="evenodd" clip-rule="evenodd" d="M13.7196 34.3358H15.2258V33.1185H13.7196C13.3565 33.1185 13.0552 32.8207 13.0552 32.462V32.3819V31.9666C13.0552 31.6079 13.3565 31.3101 13.7196 31.3101H15.2258V30.0928H13.7196C12.6764 30.0928 11.8228 30.9359 11.8228 31.9666V32.3819V32.462C11.8227 33.4922 12.6763 34.3358 13.7196 34.3358Z" fill="#4959E7"/>
</g>
<path d="M0.525391 12.4781C0.525391 6.9609 4.99801 2.48828 10.5153 2.48828H314.417C319.935 2.48828 324.407 6.9609 324.407 12.4781V18.7875H0.525391V12.4781Z" fill="#99A7F3"/>
<line x1="52.5241" y1="18.8701" x2="52.5241" y2="226.892" stroke="#F2F2F7" stroke-width="0.525782"/>
<line x1="324.408" y1="19.05" x2="0.525757" y2="19.05" stroke="#F2F2F7" stroke-width="0.525782"/>
<line x1="324.408" y1="44.6789" x2="52.5782" y2="44.6789" stroke="#F2F2F7" stroke-width="0.525782"/>
<path d="M63.5836 34.9375H64.4841V33.2578H65.4356C66.5837 33.2578 67.2002 32.5685 67.2002 31.6122C67.2002 30.6631 66.5909 29.9665 65.4477 29.9665H63.5836V34.9375ZM64.4841 32.5175V30.7189H65.3094C65.9841 30.7189 66.2827 31.083 66.2827 31.6122C66.2827 32.1413 65.9841 32.5175 65.3142 32.5175H64.4841ZM67.9824 34.9375H71.2349V34.1826H68.8829V32.8258H71.048V32.0709H68.8829V30.7213H71.2155V29.9665H67.9824V34.9375ZM72.1342 34.9375H73.0347V33.2578H73.9862C75.1343 33.2578 75.7508 32.5685 75.7508 31.6122C75.7508 30.6631 75.1416 29.9665 73.9983 29.9665H72.1342V34.9375ZM73.0347 32.5175V30.7189H73.86C74.5348 30.7189 74.8333 31.083 74.8333 31.6122C74.8333 32.1413 74.5348 32.5175 73.8648 32.5175H73.0347ZM82.4834 31.6437C82.3305 30.5393 81.481 29.8985 80.379 29.8985C79.0804 29.8985 78.1022 30.8451 78.1022 32.452C78.1022 34.0564 79.0683 35.0055 80.379 35.0055C81.5611 35.0055 82.3451 34.2409 82.4834 33.2918L81.5757 33.287C81.4616 33.8695 80.9858 34.1972 80.3911 34.1972C79.5853 34.1972 79.0076 33.5928 79.0076 32.452C79.0076 31.3306 79.5804 30.7068 80.3936 30.7068C80.998 30.7068 81.4713 31.049 81.5757 31.6437H82.4834ZM84.1479 32.753C84.1479 32.2141 84.4829 31.9034 84.9538 31.9034C85.415 31.9034 85.6868 32.1971 85.6868 32.6996V34.9375H86.5655V32.5636C86.5655 31.6631 86.0558 31.1607 85.2815 31.1607C84.7086 31.1607 84.3446 31.4204 84.1722 31.8427H84.1285V29.9665H83.2693V34.9375H84.1479V32.753ZM89.1117 35.0103C89.9807 35.0103 90.5778 34.5855 90.7331 33.9375L89.9127 33.8452C89.7938 34.1608 89.5025 34.3258 89.1238 34.3258C88.5558 34.3258 88.1796 33.952 88.1723 33.3137H90.7695V33.0442C90.7695 31.7359 89.9831 31.1607 89.0656 31.1607C87.9976 31.1607 87.301 31.9447 87.301 33.0952C87.301 34.2651 87.9879 35.0103 89.1117 35.0103ZM88.1748 32.7214C88.2015 32.2457 88.5534 31.8452 89.0777 31.8452C89.5826 31.8452 89.9224 32.2141 89.9273 32.7214H88.1748ZM93.1391 35.0103C94.0761 35.0103 94.6732 34.4545 94.7363 33.6632H93.8964C93.8212 34.0637 93.5323 34.2943 93.1464 34.2943C92.5978 34.2943 92.2435 33.8355 92.2435 33.0734C92.2435 32.3209 92.6051 31.8694 93.1464 31.8694C93.5688 31.8694 93.8285 32.1413 93.8964 32.5005H94.7363C94.6756 31.6923 94.0445 31.1607 93.1343 31.1607C92.042 31.1607 91.3527 31.9495 91.3527 33.0879C91.3527 34.2166 92.025 35.0103 93.1391 35.0103ZM95.4578 34.9375H96.3364V33.685L96.6568 33.3428L97.7977 34.9375H98.8487L97.3195 32.8185L98.7637 31.2092H97.737L96.3971 32.7068H96.3364V29.9665H95.4578V34.9375Z" fill="#62636D"/>
<rect x="17.3506" y="52.9766" width="24.186" height="3.15469" rx="1.57735" fill="#F4F4F4"/>
<rect x="17.3506" y="62.4404" width="15.7735" height="3.15469" rx="1.57735" fill="#F4F4F4"/>
<rect x="17.3506" y="71.9043" width="24.186" height="3.15469" rx="1.57735" fill="#F4F4F4"/>
<rect x="17.3506" y="90.8311" width="24.186" height="3.15469" rx="1.57735" fill="#F4F4F4"/>
<rect x="17.3506" y="204.51" width="24.186" height="3.15469" rx="1.57735" fill="#F4F4F4"/>
<rect x="17.3506" y="81.3682" width="15.7735" height="3.15469" rx="1.57735" fill="#F4F4F4"/>
<rect x="11.5674" y="52.9766" width="3.15469" height="3.15469" rx="1.57735" fill="#F4F4F4"/>
<rect x="11.5674" y="62.4404" width="3.15469" height="3.15469" rx="1.57735" fill="#F4F4F4"/>
<rect x="11.5674" y="71.9043" width="3.15469" height="3.15469" rx="1.57735" fill="#F4F4F4"/>
<rect x="11.5674" y="90.8311" width="3.15469" height="3.15469" rx="1.57735" fill="#F4F4F4"/>
<rect x="11.5674" y="204.51" width="3.15469" height="3.15469" rx="1.57735" fill="#F4F4F4"/>
<rect x="11.5674" y="81.3682" width="3.15469" height="3.15469" rx="1.57735" fill="#F4F4F4"/>
<circle cx="8.4124" cy="10.3738" r="1.05156" fill="white"/>
<circle cx="12.6189" cy="10.3738" r="1.05156" fill="white"/>
<circle cx="16.8255" cy="10.3738" r="1.05156" fill="white"/>
<rect x="63.0166" y="60.0991" width="250.557" height="17.5641" rx="2.68838" stroke="#DDDFE7" stroke-width="0.358451"/>
<rect x="68.2144" y="56.3359" width="53.4092" height="6.45212" fill="white"/>
<path d="M70.4073 61.9775H70.958V60.5964H71.7064C71.7189 60.5964 71.7296 60.5964 71.7421 60.5964L72.4834 61.9775H73.1107L72.3017 60.5002C72.749 60.3345 72.9717 59.962 72.9717 59.4719C72.9717 58.8001 72.5547 58.3279 71.7082 58.3279H70.4073V61.9775ZM70.958 60.1224V58.8001H71.6494C72.193 58.8001 72.4175 59.0585 72.4175 59.4719C72.4175 59.8836 72.193 60.1224 71.6565 60.1224H70.958ZM74.7444 62.0328C75.3414 62.0328 75.7638 61.7387 75.885 61.2932L75.3806 61.2023C75.2844 61.4607 75.0527 61.5926 74.7498 61.5926C74.2936 61.5926 73.9871 61.2968 73.9728 60.7693H75.9188V60.5804C75.9188 59.5913 75.3272 59.2046 74.707 59.2046C73.9443 59.2046 73.4417 59.7856 73.4417 60.6267C73.4417 61.4768 73.9372 62.0328 74.7444 62.0328ZM73.9746 60.3701C73.996 59.9816 74.2775 59.6448 74.7106 59.6448C75.124 59.6448 75.3949 59.9513 75.3967 60.3701H73.9746ZM77.8127 59.2403H77.2229V58.9943C77.2229 58.752 77.3226 58.6201 77.5828 58.6201C77.6933 58.6201 77.7717 58.6451 77.8216 58.6611L77.9464 58.2298C77.8715 58.2013 77.7165 58.1568 77.5009 58.1568C77.0678 58.1568 76.6882 58.4098 76.6882 58.9231V59.2403H76.2659V59.668H76.6882V61.9775H77.2229V59.668H77.8127V59.2403ZM79.4344 62.0328C80.0314 62.0328 80.4537 61.7387 80.5749 61.2932L80.0706 61.2023C79.9744 61.4607 79.7427 61.5926 79.4397 61.5926C78.9835 61.5926 78.677 61.2968 78.6628 60.7693H80.6088V60.5804C80.6088 59.5913 80.0171 59.2046 79.397 59.2046C78.6343 59.2046 78.1317 59.7856 78.1317 60.6267C78.1317 61.4768 78.6271 62.0328 79.4344 62.0328ZM78.6645 60.3701C78.6859 59.9816 78.9675 59.6448 79.4005 59.6448C79.814 59.6448 80.0849 59.9513 80.0866 60.3701H78.6645ZM81.2 61.9775H81.7328V60.306C81.7328 59.9478 82.0091 59.6894 82.3869 59.6894C82.4973 59.6894 82.6221 59.709 82.6649 59.7214V59.2118C82.6114 59.2046 82.5062 59.1993 82.4385 59.1993C82.1178 59.1993 81.8433 59.3811 81.7435 59.6751H81.715V59.2403H81.2V61.9775ZM84.2077 62.0328C84.8047 62.0328 85.227 61.7387 85.3482 61.2932L84.8439 61.2023C84.7477 61.4607 84.516 61.5926 84.213 61.5926C83.7568 61.5926 83.4503 61.2968 83.436 60.7693H85.3821V60.5804C85.3821 59.5913 84.7904 59.2046 84.1703 59.2046C83.4075 59.2046 82.905 59.7856 82.905 60.6267C82.905 61.4768 83.4004 62.0328 84.2077 62.0328ZM83.4378 60.3701C83.4592 59.9816 83.7408 59.6448 84.1738 59.6448C84.5873 59.6448 84.8581 59.9513 84.8599 60.3701H83.4378ZM86.5061 60.3523C86.5061 59.9157 86.7734 59.6662 87.1441 59.6662C87.5059 59.6662 87.725 59.9032 87.725 60.3006V61.9775H88.2579V60.2365C88.2579 59.5593 87.8854 59.2046 87.3259 59.2046C86.9142 59.2046 86.6451 59.3953 86.5186 59.6858H86.4847V59.2403H85.9733V61.9775H86.5061V60.3523ZM90.1255 62.0328C90.7724 62.0328 91.1912 61.6443 91.25 61.1115H90.7314C90.6637 61.4073 90.4338 61.5819 90.1291 61.5819C89.6782 61.5819 89.3877 61.2059 89.3877 60.6089C89.3877 60.0226 89.6835 59.6537 90.1291 59.6537C90.4677 59.6537 90.6744 59.8676 90.7314 60.1242H91.25C91.193 59.5717 90.7421 59.2046 90.1202 59.2046C89.3485 59.2046 88.8495 59.7856 88.8495 60.6214C88.8495 61.4465 89.3307 62.0328 90.1255 62.0328ZM92.9995 62.0328C93.5965 62.0328 94.0189 61.7387 94.1401 61.2932L93.6357 61.2023C93.5395 61.4607 93.3078 61.5926 93.0049 61.5926C92.5487 61.5926 92.2422 61.2968 92.2279 60.7693H94.1739V60.5804C94.1739 59.5913 93.5823 59.2046 92.9621 59.2046C92.1994 59.2046 91.6968 59.7856 91.6968 60.6267C91.6968 61.4768 92.1923 62.0328 92.9995 62.0328ZM92.2297 60.3701C92.2511 59.9816 92.5326 59.6448 92.9657 59.6448C93.3791 59.6448 93.65 59.9513 93.6518 60.3701H92.2297ZM96.2483 60.4628C96.2483 61.3574 96.4871 62.1023 96.9397 62.7367H97.428C97.0769 62.2662 96.8007 61.311 96.8007 60.4628C96.8007 59.6163 97.0769 58.6611 97.428 58.1906H96.9397C96.4871 58.8251 96.2483 59.57 96.2483 60.4628ZM101.203 60.1527C101.203 58.9854 100.504 58.278 99.5598 58.278C98.6117 58.278 97.9149 58.9854 97.9149 60.1527C97.9149 61.3182 98.6117 62.0274 99.5598 62.0274C100.504 62.0274 101.203 61.32 101.203 60.1527ZM100.658 60.1527C100.658 61.042 100.187 61.5249 99.5598 61.5249C98.9307 61.5249 98.462 61.042 98.462 60.1527C98.462 59.2634 98.9307 58.7805 99.5598 58.7805C100.187 58.7805 100.658 59.2634 100.658 60.1527ZM101.847 63.004H102.379V61.5516H102.412C102.508 61.7263 102.704 62.031 103.203 62.031C103.866 62.031 104.347 61.4999 104.347 60.6143C104.347 59.7268 103.859 59.2046 103.197 59.2046C102.69 59.2046 102.506 59.5147 102.412 59.684H102.367V59.2403H101.847V63.004ZM102.369 60.6089C102.369 60.0369 102.618 59.6573 103.083 59.6573C103.566 59.6573 103.809 60.0654 103.809 60.6089C103.809 61.1578 103.559 61.5766 103.083 61.5766C102.625 61.5766 102.369 61.1845 102.369 60.6089ZM106.222 59.2403H105.66V58.5845H105.127V59.2403H104.726V59.668H105.127V61.2843C105.126 61.7815 105.505 62.0221 105.926 62.0132C106.095 62.0114 106.209 61.9793 106.272 61.9562L106.175 61.516C106.14 61.5231 106.074 61.5391 105.988 61.5391C105.815 61.5391 105.66 61.4821 105.66 61.1738V59.668H106.222V59.2403ZM106.811 61.9775H107.344V59.2403H106.811V61.9775ZM107.08 58.8179C107.264 58.8179 107.417 58.6754 107.417 58.5007C107.417 58.3261 107.264 58.1817 107.08 58.1817C106.895 58.1817 106.743 58.3261 106.743 58.5007C106.743 58.6754 106.895 58.8179 107.08 58.8179ZM109.214 62.0328C109.985 62.0328 110.49 61.4679 110.49 60.6214C110.49 59.7696 109.985 59.2046 109.214 59.2046C108.442 59.2046 107.938 59.7696 107.938 60.6214C107.938 61.4679 108.442 62.0328 109.214 62.0328ZM109.216 61.5855C108.711 61.5855 108.476 61.1453 108.476 60.6196C108.476 60.0957 108.711 59.6502 109.216 59.6502C109.716 59.6502 109.952 60.0957 109.952 60.6196C109.952 61.1453 109.716 61.5855 109.216 61.5855ZM111.617 60.3523C111.617 59.9157 111.885 59.6662 112.255 59.6662C112.617 59.6662 112.836 59.9032 112.836 60.3006V61.9775H113.369V60.2365C113.369 59.5593 112.997 59.2046 112.437 59.2046C112.025 59.2046 111.756 59.3953 111.63 59.6858H111.596V59.2403H111.084V61.9775H111.617V60.3523ZM114.88 62.0381C115.333 62.0381 115.588 61.8082 115.689 61.6033H115.711V61.9775H116.231V60.1598C116.231 59.3632 115.604 59.2046 115.169 59.2046C114.674 59.2046 114.217 59.4042 114.039 59.9032L114.54 60.0173C114.618 59.823 114.818 59.6359 115.176 59.6359C115.52 59.6359 115.696 59.8159 115.696 60.126V60.1384C115.696 60.3327 115.497 60.3291 115.005 60.3861C114.486 60.4467 113.955 60.5822 113.955 61.2041C113.955 61.7423 114.36 62.0381 114.88 62.0381ZM114.996 61.6104C114.695 61.6104 114.478 61.475 114.478 61.2112C114.478 60.9261 114.731 60.8245 115.039 60.7836C115.212 60.7604 115.622 60.714 115.698 60.6374V60.9903C115.698 61.3146 115.44 61.6104 114.996 61.6104ZM117.474 58.3279H116.941V61.9775H117.474V58.3279ZM119.215 60.4646C119.215 59.57 118.976 58.8251 118.524 58.1906H118.035C118.386 58.6611 118.663 59.6163 118.663 60.4646C118.663 61.311 118.386 62.2662 118.035 62.7367H118.524C118.976 62.1023 119.215 61.3574 119.215 60.4646Z" fill="#8185A0"/>
<path d="M71.1647 88.2391H70.5354V92.4102H71.1647V88.2391ZM73.2034 92.4713C73.7737 92.4713 73.9977 92.123 74.1077 91.9234H74.1586V92.4102H74.7533V88.2391H74.1443V89.789H74.1077C73.9977 89.5955 73.79 89.2411 73.2075 89.2411C72.4519 89.2411 71.8959 89.8379 71.8959 90.8521C71.8959 91.8643 72.4437 92.4713 73.2034 92.4713ZM73.3378 91.9519C72.794 91.9519 72.511 91.4733 72.511 90.846C72.511 90.2248 72.7879 89.7584 73.3378 89.7584C73.8694 89.7584 74.1545 90.1922 74.1545 90.846C74.1545 91.5038 73.8633 91.9519 73.3378 91.9519ZM76.9707 92.4733C77.653 92.4733 78.1357 92.1372 78.2742 91.6281L77.6978 91.5242C77.5878 91.8195 77.3231 91.9702 76.9768 91.9702C76.4554 91.9702 76.1051 91.6322 76.0888 91.0293H78.3129V90.8134C78.3129 89.6831 77.6367 89.2411 76.9279 89.2411C76.0563 89.2411 75.4819 89.9051 75.4819 90.8664C75.4819 91.8379 76.0481 92.4733 76.9707 92.4733ZM76.0909 90.5731C76.1153 90.1291 76.4371 89.7442 76.932 89.7442C77.4045 89.7442 77.7141 90.0945 77.7161 90.5731H76.0909ZM79.5975 90.5527C79.5975 90.0537 79.903 89.7686 80.3266 89.7686C80.7401 89.7686 80.9906 90.0395 80.9906 90.4937V92.4102H81.5995V90.4203C81.5995 89.6464 81.1739 89.2411 80.5343 89.2411C80.0639 89.2411 79.7563 89.459 79.6117 89.791H79.573V89.2819H78.9885V92.4102H79.5975V90.5527ZM83.8765 89.2819H83.235V88.5324H82.626V89.2819H82.1677V89.7707H82.626V91.6179C82.624 92.1861 83.0578 92.4611 83.5384 92.4509C83.7319 92.4489 83.8622 92.4122 83.9335 92.3857L83.8235 91.8827C83.7828 91.8908 83.7075 91.9091 83.6097 91.9091C83.4121 91.9091 83.235 91.844 83.235 91.4916V89.7707H83.8765V89.2819ZM84.5501 92.4102H85.1591V89.2819H84.5501V92.4102ZM84.8577 88.7992C85.0674 88.7992 85.2426 88.6362 85.2426 88.4366C85.2426 88.2371 85.0674 88.0721 84.8577 88.0721C84.6458 88.0721 84.4727 88.2371 84.4727 88.4366C84.4727 88.6362 84.6458 88.7992 84.8577 88.7992ZM87.4386 89.2819H86.7971V88.5324H86.1881V89.2819H85.7299V89.7707H86.1881V91.6179C86.1861 92.1861 86.6199 92.4611 87.1005 92.4509C87.294 92.4489 87.4244 92.4122 87.4956 92.3857L87.3857 91.8827C87.3449 91.8908 87.2696 91.9091 87.1718 91.9091C86.9743 91.9091 86.7971 91.844 86.7971 91.4916V89.7707H87.4386V89.2819ZM88.4972 93.5833C89.0002 93.5833 89.3179 93.3205 89.4992 92.8277L90.7925 89.288L90.1346 89.2819L89.3424 91.7095H89.3098L88.5175 89.2819H87.8658L89.0104 92.4509L88.935 92.6586C88.7803 93.0741 88.5623 93.1087 88.2283 93.0171L88.0817 93.5161C88.155 93.5486 88.3139 93.5833 88.4972 93.5833Z" fill="#62636D"/>
<rect x="63.0874" y="104.982" width="119.723" height="17.5641" rx="2.68838" stroke="#DDDFE7" stroke-width="0.358451"/>
<rect x="68.2852" y="101.219" width="29.0345" height="6.45212" fill="white"/>
<path d="M70.4781 106.86H71.0288V105.269H72.5792V104.797H71.0288V103.685H72.7413V103.211H70.4781V106.86ZM73.3758 106.86H73.9086V104.123H73.3758V106.86ZM73.6449 103.701C73.8284 103.701 73.9817 103.558 73.9817 103.384C73.9817 103.209 73.8284 103.065 73.6449 103.065C73.4595 103.065 73.308 103.209 73.308 103.384C73.308 103.558 73.4595 103.701 73.6449 103.701ZM74.6254 106.86H75.1583V105.189C75.1583 104.831 75.4345 104.572 75.8123 104.572C75.9228 104.572 76.0475 104.592 76.0903 104.604V104.095C76.0368 104.087 75.9317 104.082 75.864 104.082C75.5432 104.082 75.2688 104.264 75.169 104.558H75.1405V104.123H74.6254V106.86ZM78.6026 104.791C78.4921 104.365 78.1588 104.087 77.5672 104.087C76.9488 104.087 76.5104 104.414 76.5104 104.898C76.5104 105.287 76.7457 105.545 77.2589 105.659L77.7222 105.761C77.986 105.82 78.1089 105.937 78.1089 106.108C78.1089 106.32 77.8826 106.486 77.5333 106.486C77.2143 106.486 77.0094 106.349 76.9453 106.08L76.4302 106.158C76.5193 106.643 76.9221 106.916 77.5369 106.916C78.1981 106.916 78.656 106.565 78.656 106.069C78.656 105.682 78.4101 105.444 77.9076 105.328L77.4727 105.228C77.1716 105.157 77.0415 105.055 77.0433 104.87C77.0415 104.659 77.2696 104.51 77.5725 104.51C77.904 104.51 78.0573 104.693 78.1196 104.877L78.6026 104.791ZM80.5196 104.123H79.9583V103.467H79.4255V104.123H79.0245V104.551H79.4255V106.167C79.4237 106.664 79.8033 106.905 80.2238 106.896C80.3931 106.894 80.5072 106.862 80.5695 106.839L80.4733 106.399C80.4377 106.406 80.3717 106.422 80.2862 106.422C80.1133 106.422 79.9583 106.365 79.9583 106.057V104.551H80.5196V104.123ZM82.97 105.235C82.97 104.798 83.2373 104.549 83.608 104.549C83.9697 104.549 84.1889 104.786 84.1889 105.183V106.86H84.7218V105.119C84.7218 104.442 84.3493 104.087 83.7898 104.087C83.3781 104.087 83.109 104.278 82.9825 104.569H82.9486V104.123H82.4372V106.86H82.97V105.235ZM86.233 106.921C86.6856 106.921 86.9405 106.691 87.042 106.486H87.0634V106.86H87.5838V105.043C87.5838 104.246 86.9565 104.087 86.5217 104.087C86.0263 104.087 85.57 104.287 85.3918 104.786L85.8926 104.9C85.971 104.706 86.1706 104.519 86.5288 104.519C86.8727 104.519 87.0492 104.699 87.0492 105.009V105.021C87.0492 105.215 86.8496 105.212 86.3577 105.269C85.8391 105.33 85.3081 105.465 85.3081 106.087C85.3081 106.625 85.7126 106.921 86.233 106.921ZM86.3488 106.493C86.0476 106.493 85.8302 106.358 85.8302 106.094C85.8302 105.809 86.0833 105.707 86.3916 105.666C86.5644 105.643 86.9743 105.597 87.0509 105.52V105.873C87.0509 106.197 86.7925 106.493 86.3488 106.493ZM88.2935 106.86H88.8263V105.173C88.8263 104.804 89.0847 104.547 89.3877 104.547C89.6835 104.547 89.8884 104.743 89.8884 105.041V106.86H90.4195V105.116C90.4195 104.786 90.6209 104.547 90.9684 104.547C91.25 104.547 91.4816 104.704 91.4816 105.075V106.86H92.0145V105.025C92.0145 104.399 91.6652 104.087 91.1698 104.087C90.7759 104.087 90.4801 104.276 90.3482 104.569H90.3197C90.2003 104.269 89.949 104.087 89.5837 104.087C89.222 104.087 88.9529 104.267 88.8388 104.569H88.8049V104.123H88.2935V106.86ZM93.9084 106.916C94.5054 106.916 94.9277 106.622 95.0489 106.176L94.5446 106.085C94.4483 106.344 94.2167 106.475 93.9137 106.475C93.4575 106.475 93.151 106.18 93.1367 105.652H95.0827V105.463C95.0827 104.474 94.4911 104.087 93.8709 104.087C93.1082 104.087 92.6057 104.668 92.6057 105.51C92.6057 106.36 93.1011 106.916 93.9084 106.916ZM93.1385 105.253C93.1599 104.864 93.4415 104.528 93.8745 104.528C94.2879 104.528 94.5588 104.834 94.5606 105.253H93.1385Z" fill="#8185A0"/>
<rect x="193.922" y="104.982" width="119.723" height="17.5641" rx="2.68838" stroke="#DDDFE7" stroke-width="0.358451"/>
<rect x="199.12" y="101.219" width="34.4113" height="6.45212" fill="white"/>
<path d="M201.313 103.211V106.86H201.837V104.218H201.87L202.947 106.855H203.382L204.458 104.219H204.492V106.86H205.016V103.211H204.347L203.186 106.048H203.143L201.981 103.211H201.313ZM205.774 106.86H206.306V104.123H205.774V106.86ZM206.043 103.701C206.226 103.701 206.379 103.558 206.379 103.384C206.379 103.209 206.226 103.065 206.043 103.065C205.857 103.065 205.706 103.209 205.706 103.384C205.706 103.558 205.857 103.701 206.043 103.701ZM208.048 106.914C208.547 106.914 208.743 106.609 208.839 106.434H208.884V106.86H209.404V103.211H208.871V104.567H208.839C208.743 104.398 208.561 104.087 208.051 104.087C207.39 104.087 206.904 104.61 206.904 105.497C206.904 106.383 207.383 106.914 208.048 106.914ZM208.166 106.459C207.69 106.459 207.442 106.041 207.442 105.492C207.442 104.948 207.684 104.54 208.166 104.54C208.631 104.54 208.88 104.92 208.88 105.492C208.88 106.067 208.625 106.459 208.166 106.459ZM211.189 106.914C211.688 106.914 211.884 106.609 211.981 106.434H212.025V106.86H212.545V103.211H212.013V104.567H211.981C211.884 104.398 211.703 104.087 211.193 104.087C210.532 104.087 210.045 104.61 210.045 105.497C210.045 106.383 210.525 106.914 211.189 106.914ZM211.307 106.459C210.831 106.459 210.583 106.041 210.583 105.492C210.583 104.948 210.826 104.54 211.307 104.54C211.772 104.54 212.022 104.92 212.022 105.492C212.022 106.067 211.767 106.459 211.307 106.459ZM213.839 103.211H213.306V106.86H213.839V103.211ZM215.735 106.916C216.332 106.916 216.755 106.622 216.876 106.176L216.372 106.085C216.275 106.344 216.044 106.475 215.741 106.475C215.284 106.475 214.978 106.18 214.964 105.652H216.91V105.463C216.91 104.474 216.318 104.087 215.698 104.087C214.935 104.087 214.433 104.668 214.433 105.51C214.433 106.36 214.928 106.916 215.735 106.916ZM214.965 105.253C214.987 104.864 215.268 104.528 215.701 104.528C216.115 104.528 216.386 104.834 216.388 105.253H214.965ZM219.362 105.235C219.362 104.798 219.629 104.549 220 104.549C220.362 104.549 220.581 104.786 220.581 105.183V106.86H221.114V105.119C221.114 104.442 220.741 104.087 220.182 104.087C219.77 104.087 219.501 104.278 219.374 104.569H219.34V104.123H218.829V106.86H219.362V105.235ZM222.625 106.921C223.077 106.921 223.332 106.691 223.434 106.486H223.455V106.86H223.976V105.043C223.976 104.246 223.348 104.087 222.914 104.087C222.418 104.087 221.962 104.287 221.784 104.786L222.284 104.9C222.363 104.706 222.562 104.519 222.921 104.519C223.265 104.519 223.441 104.699 223.441 105.009V105.021C223.441 105.215 223.241 105.212 222.75 105.269C222.231 105.33 221.7 105.465 221.7 106.087C221.7 106.625 222.104 106.921 222.625 106.921ZM222.741 106.493C222.44 106.493 222.222 106.358 222.222 106.094C222.222 105.809 222.475 105.707 222.783 105.666C222.956 105.643 223.366 105.597 223.443 105.52V105.873C223.443 106.197 223.184 106.493 222.741 106.493ZM224.685 106.86H225.218V105.173C225.218 104.804 225.477 104.547 225.78 104.547C226.075 104.547 226.28 104.743 226.28 105.041V106.86H226.811V105.116C226.811 104.786 227.013 104.547 227.36 104.547C227.642 104.547 227.873 104.704 227.873 105.075V106.86H228.406V105.025C228.406 104.399 228.057 104.087 227.562 104.087C227.168 104.087 226.872 104.276 226.74 104.569H226.712C226.592 104.269 226.341 104.087 225.976 104.087C225.614 104.087 225.345 104.267 225.231 104.569H225.197V104.123H224.685V106.86ZM230.3 106.916C230.897 106.916 231.32 106.622 231.441 106.176L230.936 106.085C230.84 106.344 230.609 106.475 230.306 106.475C229.849 106.475 229.543 106.18 229.529 105.652H231.475V105.463C231.475 104.474 230.883 104.087 230.263 104.087C229.5 104.087 228.998 104.668 228.998 105.51C228.998 106.36 229.493 106.916 230.3 106.916ZM229.53 105.253C229.552 104.864 229.833 104.528 230.266 104.528C230.68 104.528 230.951 104.834 230.952 105.253H229.53Z" fill="#8185A0"/>
<rect x="63.0874" y="134.348" width="119.723" height="17.5641" rx="2.68838" stroke="#DDDFE7" stroke-width="0.358451"/>
<rect x="68.2852" y="130.584" width="28.6761" height="6.45212" fill="white"/>
<path d="M70.4781 136.226H72.6825V135.752H71.0288V132.576H70.4781V136.226ZM74.0645 136.286C74.5172 136.286 74.772 136.056 74.8736 135.851H74.895V136.226H75.4153V134.408C75.4153 133.611 74.7881 133.453 74.3532 133.453C73.8578 133.453 73.4016 133.652 73.2234 134.151L73.7242 134.265C73.8026 134.071 74.0022 133.884 74.3604 133.884C74.7043 133.884 74.8807 134.064 74.8807 134.374V134.386C74.8807 134.581 74.6811 134.577 74.1893 134.634C73.6707 134.695 73.1396 134.83 73.1396 135.452C73.1396 135.99 73.5442 136.286 74.0645 136.286ZM74.1804 135.858C73.8792 135.858 73.6618 135.723 73.6618 135.459C73.6618 135.174 73.9148 135.073 74.2231 135.032C74.396 135.008 74.8059 134.962 74.8825 134.885V135.238C74.8825 135.563 74.6241 135.858 74.1804 135.858ZM78.1762 134.157C78.0657 133.731 77.7325 133.453 77.1408 133.453C76.5225 133.453 76.0841 133.779 76.0841 134.264C76.0841 134.652 76.3193 134.91 76.8325 135.024L77.2959 135.126C77.5596 135.185 77.6826 135.302 77.6826 135.474C77.6826 135.686 77.4563 135.851 77.107 135.851C76.788 135.851 76.5831 135.714 76.5189 135.445L76.0039 135.523C76.093 136.008 76.4957 136.281 77.1105 136.281C77.7717 136.281 78.2297 135.93 78.2297 135.434C78.2297 135.048 77.9838 134.809 77.4812 134.693L77.0464 134.593C76.7452 134.522 76.6151 134.42 76.6169 134.235C76.6151 134.025 76.8432 133.875 77.1462 133.875C77.4777 133.875 77.6309 134.059 77.6933 134.242L78.1762 134.157ZM80.0933 133.488H79.5319V132.833H78.9991V133.488H78.5981V133.916H78.9991V135.532C78.9973 136.03 79.3769 136.27 79.7975 136.261C79.9668 136.259 80.0808 136.227 80.1432 136.204L80.047 135.764C80.0113 135.771 79.9454 135.787 79.8598 135.787C79.687 135.787 79.5319 135.73 79.5319 135.422V133.916H80.0933V133.488ZM82.5436 134.6C82.5436 134.164 82.8109 133.914 83.1816 133.914C83.5434 133.914 83.7626 134.151 83.7626 134.549V136.226H84.2954V134.485C84.2954 133.807 83.923 133.453 83.3634 133.453C82.9517 133.453 82.6826 133.643 82.5561 133.934H82.5223V133.488H82.0108V136.226H82.5436V134.6ZM85.8066 136.286C86.2593 136.286 86.5141 136.056 86.6157 135.851H86.6371V136.226H87.1574V134.408C87.1574 133.611 86.5301 133.453 86.0953 133.453C85.5999 133.453 85.1437 133.652 84.9655 134.151L85.4662 134.265C85.5446 134.071 85.7442 133.884 86.1024 133.884C86.4464 133.884 86.6228 134.064 86.6228 134.374V134.386C86.6228 134.581 86.4232 134.577 85.9314 134.634C85.4128 134.695 84.8817 134.83 84.8817 135.452C84.8817 135.99 85.2862 136.286 85.8066 136.286ZM85.9224 135.858C85.6213 135.858 85.4039 135.723 85.4039 135.459C85.4039 135.174 85.6569 135.073 85.9652 135.032C86.1381 135.008 86.548 134.962 86.6246 134.885V135.238C86.6246 135.563 86.3662 135.858 85.9224 135.858ZM87.8671 136.226H88.4V134.538C88.4 134.169 88.6584 133.912 88.9613 133.912C89.2571 133.912 89.4621 134.108 89.4621 134.406V136.226H89.9931V134.481C89.9931 134.151 90.1945 133.912 90.542 133.912C90.8236 133.912 91.0553 134.069 91.0553 134.44V136.226H91.5881V134.39C91.5881 133.765 91.2388 133.453 90.7434 133.453C90.3496 133.453 90.0537 133.642 89.9219 133.934H89.8933C89.774 133.634 89.5227 133.453 89.1574 133.453C88.7956 133.453 88.5265 133.633 88.4124 133.934H88.3786V133.488H87.8671V136.226ZM93.482 136.281C94.079 136.281 94.5013 135.987 94.6225 135.541L94.1182 135.45C94.022 135.709 93.7903 135.841 93.4873 135.841C93.0311 135.841 92.7246 135.545 92.7104 135.017H94.6564V134.828C94.6564 133.839 94.0647 133.453 93.4446 133.453C92.6818 133.453 92.1793 134.034 92.1793 134.875C92.1793 135.725 92.6747 136.281 93.482 136.281ZM92.7121 134.618C92.7335 134.23 93.0151 133.893 93.4481 133.893C93.8616 133.893 94.1325 134.199 94.1342 134.618H92.7121Z" fill="#8185A0"/>
<rect x="193.922" y="134.348" width="119.723" height="17.5641" rx="2.68838" stroke="#DDDFE7" stroke-width="0.358451"/>
<rect x="199.12" y="130.584" width="34.0529" height="6.45212" fill="white"/>
<path d="M202.494 136.226C203.606 136.226 204.249 135.536 204.249 134.395C204.249 133.26 203.606 132.576 202.532 132.576H201.313V136.226H202.494ZM201.863 135.744V133.057H202.498C203.296 133.057 203.708 133.535 203.708 134.395C203.708 135.26 203.296 135.744 202.464 135.744H201.863ZM205.688 136.286C206.141 136.286 206.396 136.056 206.497 135.851H206.518V136.226H207.039V134.408C207.039 133.611 206.412 133.453 205.977 133.453C205.481 133.453 205.025 133.652 204.847 134.151L205.348 134.265C205.426 134.071 205.626 133.884 205.984 133.884C206.328 133.884 206.504 134.064 206.504 134.374V134.386C206.504 134.581 206.305 134.577 205.813 134.634C205.294 134.695 204.763 134.83 204.763 135.452C204.763 135.99 205.168 136.286 205.688 136.286ZM205.804 135.858C205.503 135.858 205.285 135.723 205.285 135.459C205.285 135.174 205.538 135.073 205.847 135.032C206.019 135.008 206.429 134.962 206.506 134.885V135.238C206.506 135.563 206.248 135.858 205.804 135.858ZM209.026 133.488H208.465V132.833H207.932V133.488H207.531V133.916H207.932V135.532C207.93 136.03 208.31 136.27 208.73 136.261C208.9 136.259 209.014 136.227 209.076 136.204L208.98 135.764C208.944 135.771 208.878 135.787 208.793 135.787C208.62 135.787 208.465 135.73 208.465 135.422V133.916H209.026V133.488ZM210.766 136.281C211.363 136.281 211.785 135.987 211.907 135.541L211.402 135.45C211.306 135.709 211.074 135.841 210.771 135.841C210.315 135.841 210.009 135.545 209.994 135.017H211.94V134.828C211.94 133.839 211.349 133.453 210.729 133.453C209.966 133.453 209.463 134.034 209.463 134.875C209.463 135.725 209.959 136.281 210.766 136.281ZM209.996 134.618C210.018 134.23 210.299 133.893 210.732 133.893C211.146 133.893 211.416 134.199 211.418 134.618H209.996ZM215.013 136.281C215.784 136.281 216.289 135.716 216.289 134.869C216.289 134.018 215.784 133.453 215.013 133.453C214.241 133.453 213.737 134.018 213.737 134.869C213.737 135.716 214.241 136.281 215.013 136.281ZM215.014 135.834C214.51 135.834 214.275 135.393 214.275 134.868C214.275 134.344 214.51 133.898 215.014 133.898C215.515 133.898 215.75 134.344 215.75 134.868C215.75 135.393 215.515 135.834 215.014 135.834ZM218.186 133.488H217.596V133.242C217.596 133 217.696 132.868 217.956 132.868C218.067 132.868 218.145 132.893 218.195 132.909L218.32 132.478C218.245 132.449 218.09 132.405 217.874 132.405C217.441 132.405 217.062 132.658 217.062 133.171V133.488H216.639V133.916H217.062V136.226H217.596V133.916H218.186V133.488ZM220.107 136.226H221.506C222.354 136.226 222.737 135.803 222.737 135.244C222.737 134.679 222.341 134.36 221.98 134.34V134.305C222.315 134.219 222.595 133.991 222.595 133.535C222.595 132.995 222.22 132.576 221.443 132.576H220.107V136.226ZM220.657 135.753V134.584H221.472C221.914 134.584 222.19 134.869 222.19 135.217C222.19 135.523 221.982 135.753 221.452 135.753H220.657ZM220.657 134.155V133.045H221.409C221.846 133.045 222.055 133.274 222.055 133.577C222.055 133.93 221.766 134.155 221.395 134.155H220.657ZM223.347 136.226H223.88V133.488H223.347V136.226ZM223.617 133.066C223.8 133.066 223.953 132.923 223.953 132.749C223.953 132.574 223.8 132.43 223.617 132.43C223.431 132.43 223.28 132.574 223.28 132.749C223.28 132.923 223.431 133.066 223.617 133.066ZM224.597 136.226H225.13V134.554C225.13 134.196 225.406 133.937 225.784 133.937C225.894 133.937 226.019 133.957 226.062 133.969V133.46C226.009 133.453 225.903 133.447 225.836 133.447C225.515 133.447 225.24 133.629 225.141 133.923H225.112V133.488H224.597V136.226ZM227.963 133.488H227.401V132.833H226.868V133.488H226.467V133.916H226.868V135.532C226.867 136.03 227.246 136.27 227.667 136.261C227.836 136.259 227.95 136.227 228.012 136.204L227.916 135.764C227.881 135.771 227.815 135.787 227.729 135.787C227.556 135.787 227.401 135.73 227.401 135.422V133.916H227.963V133.488ZM229.144 134.6C229.144 134.164 229.42 133.914 229.799 133.914C230.167 133.914 230.386 134.148 230.386 134.549V136.226H230.919V134.485C230.919 133.802 230.544 133.453 229.981 133.453C229.555 133.453 229.299 133.638 229.17 133.934H229.137V132.576H228.611V136.226H229.144V134.6Z" fill="#8185A0"/>
<path d="M202.533 145.893C203.136 145.893 203.339 145.519 203.445 145.347H203.502V145.828H203.967V141.657H203.486V143.197H203.445C203.339 143.034 203.152 142.659 202.541 142.659C201.751 142.659 201.205 143.286 201.205 144.272C201.205 145.266 201.751 145.893 202.533 145.893ZM202.598 145.462C201.995 145.462 201.686 144.932 201.686 144.264C201.686 143.604 201.987 143.091 202.598 143.091C203.185 143.091 203.494 143.563 203.494 144.264C203.494 144.973 203.176 145.462 202.598 145.462ZM206.095 145.893C206.698 145.893 206.901 145.519 207.007 145.347H207.064V145.828H207.529V141.657H207.048V143.197H207.007C206.901 143.034 206.714 142.659 206.103 142.659C205.313 142.659 204.767 143.286 204.767 144.272C204.767 145.266 205.313 145.893 206.095 145.893ZM206.16 145.462C205.557 145.462 205.248 144.932 205.248 144.264C205.248 143.604 205.549 143.091 206.16 143.091C206.747 143.091 207.056 143.563 207.056 144.264C207.056 144.973 206.738 145.462 206.16 145.462ZM209.95 141.462H209.51L208.166 146.455H208.606L209.95 141.462ZM210.52 145.828H211.001V143.873C211.001 143.415 211.335 143.091 211.709 143.091C212.074 143.091 212.329 143.329 212.329 143.686V145.828H212.817V143.791C212.817 143.388 213.07 143.091 213.51 143.091C213.852 143.091 214.145 143.272 214.145 143.734V145.828H214.626V143.734C214.626 142.999 214.231 142.659 213.673 142.659C213.225 142.659 212.897 142.865 212.736 143.189H212.703C212.549 142.855 212.276 142.659 211.864 142.659C211.457 142.659 211.155 142.855 211.025 143.189H210.984V142.7H210.52V145.828ZM215.505 145.828H215.985V143.873C215.985 143.415 216.319 143.091 216.694 143.091C217.059 143.091 217.313 143.329 217.313 143.686V145.828H217.802V143.791C217.802 143.388 218.055 143.091 218.495 143.091C218.837 143.091 219.13 143.272 219.13 143.734V145.828H219.611V143.734C219.611 142.999 219.216 142.659 218.657 142.659C218.209 142.659 217.882 142.865 217.721 143.189H217.688C217.533 142.855 217.26 142.659 216.849 142.659C216.442 142.659 216.14 142.855 216.01 143.189H215.969V142.7H215.505V145.828ZM221.964 141.462H221.524L220.18 146.455H220.62L221.964 141.462ZM222.843 147.001C223.277 147.001 223.583 146.771 223.764 146.284L225.096 142.708L224.57 142.7L223.707 145.193H223.674L222.811 142.7H222.289L223.446 145.844L223.357 146.089C223.181 146.565 222.966 146.61 222.615 146.521L222.493 146.944C222.542 146.969 222.68 147.001 222.843 147.001ZM226.041 147.001C226.475 147.001 226.781 146.771 226.962 146.284L228.294 142.708L227.768 142.7L226.905 145.193H226.872L226.009 142.7H225.487L226.644 145.844L226.555 146.089C226.379 146.565 226.164 146.61 225.813 146.521L225.691 146.944C225.74 146.969 225.878 147.001 226.041 147.001Z" fill="#B0B2C1"/>
<rect x="62.9077" y="165.342" width="241.675" height="4.97832" rx="2.48916" fill="#F4F4F4"/>
<rect x="95.041" y="176.31" width="186.868" height="4.86953" rx="2.43476" fill="#F4F4F4"/>
<rect x="122.648" y="195.477" width="131.193" height="17.9226" rx="3.58451" fill="#4959E7"/>
<path d="M165.597 207.137H166.352V205.609H167.122L167.941 207.137H168.784L167.882 205.483C168.373 205.285 168.631 204.866 168.631 204.3C168.631 203.503 168.118 202.966 167.161 202.966H165.597V207.137ZM166.352 204.982V203.597H167.045C167.609 203.597 167.861 203.856 167.861 204.3C167.861 204.744 167.609 204.982 167.049 204.982H166.352ZM171.403 205.821C171.403 206.298 171.063 206.534 170.737 206.534C170.382 206.534 170.146 206.283 170.146 205.886V204.008H169.409V206C169.409 206.752 169.837 207.177 170.452 207.177C170.92 207.177 171.25 206.931 171.393 206.581H171.425V207.137H172.14V204.008H171.403V205.821ZM173.75 205.304C173.75 204.852 174.023 204.591 174.412 204.591C174.793 204.591 175.021 204.841 175.021 205.259V207.137H175.758V205.145C175.76 204.395 175.333 203.968 174.687 203.968C174.219 203.968 173.897 204.192 173.754 204.54H173.718V204.008H173.013V207.137H173.75V205.304ZM178.75 202.966H177.922L179.39 207.137H180.323L181.793 202.966H180.962L179.879 206.249H179.836L178.75 202.966ZM183.474 207.198C184.203 207.198 184.704 206.841 184.834 206.298L184.146 206.22C184.046 206.485 183.801 206.623 183.484 206.623C183.007 206.623 182.692 206.31 182.685 205.774H184.865V205.548C184.865 204.45 184.205 203.968 183.435 203.968C182.539 203.968 181.954 204.626 181.954 205.591C181.954 206.573 182.531 207.198 183.474 207.198ZM182.687 205.277C182.71 204.878 183.005 204.542 183.445 204.542C183.869 204.542 184.154 204.852 184.158 205.277H182.687ZM185.603 207.137H186.34V205.298C186.34 204.9 186.64 204.619 187.045 204.619C187.169 204.619 187.324 204.642 187.387 204.662V203.984C187.32 203.972 187.204 203.964 187.122 203.964C186.764 203.964 186.465 204.167 186.351 204.53H186.318V204.008H185.603V207.137ZM187.992 207.137H188.729V204.008H187.992V207.137ZM188.362 203.564C188.597 203.564 188.788 203.385 188.788 203.165C188.788 202.943 188.597 202.764 188.362 202.764C188.126 202.764 187.935 202.943 187.935 203.165C187.935 203.385 188.126 203.564 188.362 203.564ZM191.186 204.008H190.537V203.762C190.537 203.518 190.638 203.381 190.913 203.381C191.03 203.381 191.127 203.408 191.188 203.426L191.337 202.856C191.241 202.823 191.032 202.77 190.777 202.77C190.233 202.77 189.799 203.082 189.799 203.713V204.008H189.337V204.579H189.799V207.137H190.537V204.579H191.186V204.008ZM191.878 207.137H192.616V204.008H191.878V207.137ZM192.249 203.564C192.483 203.564 192.675 203.385 192.675 203.165C192.675 202.943 192.483 202.764 192.249 202.764C192.013 202.764 191.821 202.943 191.821 203.165C191.821 203.385 192.013 203.564 192.249 203.564ZM194.853 207.198C195.639 207.198 196.14 206.731 196.193 206.067H195.489C195.425 206.404 195.183 206.597 194.859 206.597C194.399 206.597 194.102 206.212 194.102 205.573C194.102 204.941 194.405 204.562 194.859 204.562C195.214 204.562 195.432 204.79 195.489 205.092H196.193C196.142 204.414 195.613 203.968 194.849 203.968C193.933 203.968 193.354 204.63 193.354 205.585C193.354 206.532 193.918 207.198 194.853 207.198ZM197.814 207.2C198.304 207.2 198.598 206.97 198.732 206.707H198.756V207.137H199.465V205.043C199.465 204.216 198.791 203.968 198.194 203.968C197.537 203.968 197.031 204.261 196.869 204.831L197.557 204.929C197.63 204.715 197.838 204.532 198.198 204.532C198.541 204.532 198.728 204.707 198.728 205.015V205.027C198.728 205.239 198.506 205.249 197.954 205.308C197.347 205.373 196.767 205.554 196.767 206.259C196.767 206.874 197.217 207.2 197.814 207.2ZM198.005 206.658C197.697 206.658 197.477 206.518 197.477 206.247C197.477 205.964 197.724 205.845 198.054 205.799C198.247 205.772 198.634 205.723 198.73 205.646V206.015C198.73 206.363 198.449 206.658 198.005 206.658ZM201.883 204.008H201.266V203.259H200.529V204.008H200.085V204.579H200.529V206.318C200.525 206.907 200.953 207.196 201.507 207.179C201.716 207.173 201.861 207.133 201.94 207.106L201.816 206.53C201.775 206.54 201.692 206.558 201.6 206.558C201.415 206.558 201.266 206.493 201.266 206.196V204.579H201.883V204.008ZM202.615 207.137H203.352V204.008H202.615V207.137ZM202.985 203.564C203.22 203.564 203.411 203.385 203.411 203.165C203.411 202.943 203.22 202.764 202.985 202.764C202.749 202.764 202.558 202.943 202.558 203.165C202.558 203.385 202.749 203.564 202.985 203.564ZM205.589 207.198C206.506 207.198 207.088 206.552 207.088 205.585C207.088 204.615 206.506 203.968 205.589 203.968C204.673 203.968 204.09 204.615 204.09 205.585C204.09 206.552 204.673 207.198 205.589 207.198ZM205.593 206.607C205.086 206.607 204.838 206.155 204.838 205.583C204.838 205.01 205.086 204.552 205.593 204.552C206.092 204.552 206.341 205.01 206.341 205.583C206.341 206.155 206.092 206.607 205.593 206.607ZM208.566 205.304C208.566 204.852 208.839 204.591 209.228 204.591C209.609 204.591 209.837 204.841 209.837 205.259V207.137H210.574V205.145C210.576 204.395 210.149 203.968 209.503 203.968C209.035 203.968 208.713 204.192 208.57 204.54H208.534V204.008H207.829V207.137H208.566V205.304Z" fill="white"/>
<defs>
<filter id="filter0_f_2301_23341" x="0.711897" y="0.863265" width="341.174" height="242.061" filterUnits="userSpaceOnUse" color-interpolation-filters="sRGB">
<feFlood flood-opacity="0" result="BackgroundImageFix"/>
<feBlend mode="normal" in="SourceGraphic" in2="BackgroundImageFix" result="shape"/>
<feGaussianBlur stdDeviation="3.94337" result="effect1_foregroundBlur_2301_23341"/>
</filter>
<clipPath id="clip0_2301_23341">
<rect width="29.4438" height="7.36095" fill="white" transform="translate(11.5674 28.792)"/>
</clipPath>
</defs>
</svg>
