<svg width="623" height="538" viewBox="0 0 623 538" fill="none" xmlns="http://www.w3.org/2000/svg">
<g filter="url(#filter0_f_2227_5338)">
<rect x="20" y="20" width="719" height="500" rx="23.2352" fill="#35353D" fill-opacity="0.3"/>
<rect x="20.5809" y="20.5809" width="717.838" height="498.838" rx="22.6543" stroke="#F0F0F4" stroke-width="1.16176"/>
</g>
<rect width="718" height="500" rx="23.2352" fill="white"/>
<g clip-path="url(#clip0_2227_5338)">
<path fill-rule="evenodd" clip-rule="evenodd" d="M39.68 71.8135C42.4924 71.8135 44.7213 69.6379 44.7213 66.8525C44.7213 64.0674 42.4924 61.8916 39.68 61.8916C36.8676 61.8916 34.6387 64.0674 34.6387 66.8525C34.6387 69.6379 36.8676 71.8135 39.68 71.8135ZM39.68 69.1525C38.3347 69.1525 37.4094 68.1698 37.4094 66.8525C37.4094 65.5352 38.3346 64.5528 39.68 64.5528C41.0252 64.5528 41.9504 65.5354 41.9504 66.8525C41.9504 68.1698 41.0255 69.1525 39.68 69.1525Z" fill="#4959E7"/>
<path fill-rule="evenodd" clip-rule="evenodd" d="M62.2092 67.936C62.2817 67.5795 62.314 67.216 62.314 66.8525C62.314 64.0892 60.3332 61.8916 57.4842 61.8916C54.5644 61.8916 52.4238 63.965 52.4238 66.8525C52.4238 69.8837 54.6841 71.8135 57.696 71.8135C59.3541 71.8135 60.8102 71.2596 61.8061 69.9306L59.5925 68.6734C59.1246 69.1568 58.3975 69.3806 57.7344 69.3806C56.6927 69.3806 55.7555 69.0512 55.3712 68.0125L55.343 67.9359H62.2092V67.936ZM55.312 65.8493C55.6007 64.8105 56.3929 64.3057 57.4651 64.3057C58.4971 64.3057 59.2789 64.8415 59.5602 65.8491L59.5805 65.9214H55.2921L55.312 65.8493Z" fill="#4959E7"/>
<path fill-rule="evenodd" clip-rule="evenodd" d="M66.3079 65.3545V59.7051H63.5371V71.5455H66.3079V67.824C66.419 67.824 66.5297 67.8209 66.6393 67.8146L69.3736 71.5455H72.5001L69.1271 67.091C69.58 66.8374 69.9948 66.5251 70.3604 66.1639L70.3654 66.159C71.4034 65.1332 72.0461 63.7173 72.0461 62.1557H69.5461C69.5461 63.0409 69.1846 63.8417 68.6003 64.4202C68.0146 64.9973 67.204 65.3545 66.3079 65.3545Z" fill="#4959E7"/>
<path fill-rule="evenodd" clip-rule="evenodd" d="M80.0345 62.1553L78.1876 68.0943L76.0068 62.1553H72.959L76.7633 71.1634L76.7559 71.1843C76.3115 72.4009 75.6261 72.7881 74.354 72.7993V75.3492C77.2734 75.4735 78.7828 73.9396 79.7255 71.2981L82.9889 62.1553H80.0345Z" fill="#4959E7"/>
<path fill-rule="evenodd" clip-rule="evenodd" d="M50.0569 62.1553H51.7481V64.8493H50.0569C49.2535 64.8493 48.5865 65.5081 48.5865 66.3017V67.4296V68.8511V71.5451H45.8594V66.3017C45.8594 64.021 47.7481 62.1553 50.0569 62.1553Z" fill="#4959E7"/>
<path fill-rule="evenodd" clip-rule="evenodd" d="M87.2987 71.5306H90.6269V68.8409H87.2987C86.4963 68.8409 85.8306 68.1829 85.8306 67.3903V67.2134V66.2955C85.8306 65.503 86.4963 64.845 87.2987 64.845H90.6269V62.1553H87.2987C84.9937 62.1553 83.1074 64.0183 83.1074 66.2955V67.2134V67.3903C83.1074 69.6665 84.9933 71.5306 87.2987 71.5306Z" fill="#4959E7"/>
<path fill-rule="evenodd" clip-rule="evenodd" d="M30.3143 71.5306H33.6424V68.8409H30.3143C29.512 68.8409 28.8462 68.1829 28.8462 67.3903V67.2134V66.2955C28.8462 65.503 29.512 64.845 30.3143 64.845H33.6424V62.1553H30.3143C28.0093 62.1553 26.123 64.0183 26.123 66.2955V67.2134V67.3903C26.123 69.6665 28.009 71.5306 30.3143 71.5306Z" fill="#4959E7"/>
</g>
<path d="M0 22.0734C0 9.8826 9.8826 0 22.0734 0H694.927C707.117 0 717 9.88261 717 22.0734V37H0V22.0734Z" fill="#99A7F3"/>
<line x1="116.057" y1="37.3604" x2="116.057" y2="497" stroke="#F2F2F7" stroke-width="1.16176"/>
<line x1="716.805" y1="37.7586" x2="1.16132" y2="37.7586" stroke="#F2F2F7" stroke-width="1.16176"/>
<line x1="716.805" y1="94.3875" x2="116.175" y2="94.3875" stroke="#F2F2F7" stroke-width="1.16176"/>
<path d="M140.494 73.6035H142.483V69.8922H144.586C147.122 69.8922 148.485 68.369 148.485 66.2559C148.485 64.1589 147.139 62.6196 144.612 62.6196H140.494V73.6035ZM142.483 68.2564V64.2822H144.307C145.798 64.2822 146.457 65.0867 146.457 66.2559C146.457 67.4251 145.798 68.2564 144.318 68.2564H142.483ZM150.213 73.6035H157.4V71.9356H152.203V68.9375H156.987V67.2695H152.203V64.2876H157.357V62.6196H150.213V73.6035ZM159.387 73.6035H161.377V69.8922H163.479C166.016 69.8922 167.378 68.369 167.378 66.2559C167.378 64.1589 166.032 62.6196 163.506 62.6196H159.387V73.6035ZM161.377 68.2564V64.2822H163.2C164.691 64.2822 165.351 65.0867 165.351 66.2559C165.351 67.4251 164.691 68.2564 163.211 68.2564H161.377ZM182.254 66.3256C181.916 63.8853 180.039 62.4694 177.604 62.4694C174.735 62.4694 172.574 64.5611 172.574 68.1116C172.574 71.6567 174.708 73.7537 177.604 73.7537C180.216 73.7537 181.949 72.0643 182.254 69.9672L180.248 69.9565C179.996 71.2437 178.945 71.9677 177.631 71.9677C175.851 71.9677 174.574 70.6323 174.574 68.1116C174.574 65.6338 175.84 64.2554 177.637 64.2554C178.972 64.2554 180.018 65.0116 180.248 66.3256H182.254ZM185.932 68.7766C185.932 67.586 186.672 66.8995 187.713 66.8995C188.732 66.8995 189.332 67.5484 189.332 68.6586V73.6035H191.274V68.3583C191.274 66.3685 190.148 65.2583 188.437 65.2583C187.171 65.2583 186.367 65.8322 185.986 66.7654H185.889V62.6196H183.991V73.6035H185.932V68.7766ZM196.9 73.7644C198.82 73.7644 200.139 72.8258 200.483 71.3939L198.67 71.1901C198.407 71.8873 197.763 72.252 196.927 72.252C195.672 72.252 194.841 71.426 194.824 70.0155H200.563V69.4202C200.563 66.5294 198.825 65.2583 196.798 65.2583C194.438 65.2583 192.899 66.9906 192.899 69.5328C192.899 72.1179 194.417 73.7644 196.9 73.7644ZM194.83 68.7069C194.889 67.6557 195.666 66.7708 196.825 66.7708C197.94 66.7708 198.691 67.586 198.702 68.7069H194.83ZM205.799 73.7644C207.869 73.7644 209.188 72.5362 209.328 70.7878H207.472C207.306 71.6728 206.668 72.1823 205.815 72.1823C204.603 72.1823 203.82 71.1686 203.82 69.4846C203.82 67.822 204.619 66.8244 205.815 66.8244C206.748 66.8244 207.322 67.4251 207.472 68.2188H209.328C209.194 66.4329 207.799 65.2583 205.788 65.2583C203.375 65.2583 201.852 67.0014 201.852 69.5167C201.852 72.0106 203.337 73.7644 205.799 73.7644ZM210.922 73.6035H212.864V70.8361L213.572 70.0799L216.092 73.6035H218.415L215.036 68.9214L218.227 65.3656H215.958L212.998 68.6747H212.864V62.6196H210.922V73.6035Z" fill="#62636D"/>
<rect x="38.3379" y="112.721" width="53.4409" height="6.97055" rx="3.48528" fill="#F4F4F4"/>
<rect x="38.3379" y="133.633" width="34.8528" height="6.97055" rx="3.48528" fill="#F4F4F4"/>
<rect x="38.3379" y="154.543" width="53.4409" height="6.97055" rx="3.48528" fill="#F4F4F4"/>
<rect x="38.3379" y="196.365" width="53.4409" height="6.97055" rx="3.48528" fill="#F4F4F4"/>
<rect x="38.3379" y="447.545" width="53.4409" height="6.97055" rx="3.48528" fill="#F4F4F4"/>
<rect x="38.3379" y="175.455" width="34.8528" height="6.97055" rx="3.48528" fill="#F4F4F4"/>
<rect x="25.5586" y="112.721" width="6.97055" height="6.97055" rx="3.48528" fill="#F4F4F4"/>
<rect x="25.5586" y="133.633" width="6.97055" height="6.97055" rx="3.48528" fill="#F4F4F4"/>
<rect x="25.5586" y="154.543" width="6.97055" height="6.97055" rx="3.48528" fill="#F4F4F4"/>
<rect x="25.5586" y="196.365" width="6.97055" height="6.97055" rx="3.48528" fill="#F4F4F4"/>
<rect x="25.5586" y="447.545" width="6.97055" height="6.97055" rx="3.48528" fill="#F4F4F4"/>
<rect x="25.5586" y="175.455" width="6.97055" height="6.97055" rx="3.48528" fill="#F4F4F4"/>
<circle cx="18.5891" cy="18.5862" r="2.32352" fill="white"/>
<circle cx="27.8821" cy="18.5862" r="2.32352" fill="white"/>
<circle cx="37.177" cy="18.5862" r="2.32352" fill="white"/>
<rect x="139.24" y="128.459" width="553.627" height="38.8093" rx="5.9402" stroke="#DDDFE7" stroke-width="0.792027"/>
<rect x="150.725" y="120.144" width="118.012" height="14.2565" fill="white"/>
<path d="M155.57 132.352H156.786V129.3H158.44C158.468 129.3 158.491 129.3 158.519 129.3L160.157 132.352H161.543L159.755 129.087C160.744 128.721 161.236 127.898 161.236 126.815C161.236 125.331 160.314 124.287 158.444 124.287H155.57V132.352ZM156.786 128.252V125.331H158.314C159.515 125.331 160.011 125.902 160.011 126.815C160.011 127.725 159.515 128.252 158.33 128.252H156.786ZM165.153 132.474C166.472 132.474 167.405 131.824 167.673 130.84L166.559 130.639C166.346 131.21 165.834 131.501 165.165 131.501C164.157 131.501 163.479 130.847 163.448 129.682H167.748V129.264C167.748 127.079 166.44 126.225 165.07 126.225C163.385 126.225 162.274 127.508 162.274 129.367C162.274 131.245 163.369 132.474 165.153 132.474ZM163.452 128.8C163.499 127.941 164.121 127.197 165.078 127.197C165.991 127.197 166.59 127.874 166.594 128.8H163.452ZM171.932 126.303H170.629V125.76C170.629 125.224 170.85 124.933 171.424 124.933C171.669 124.933 171.842 124.988 171.952 125.024L172.228 124.071C172.062 124.008 171.72 123.909 171.243 123.909C170.286 123.909 169.448 124.468 169.448 125.602V126.303H168.515V127.248H169.448V132.352H170.629V127.248H171.932V126.303ZM175.516 132.474C176.835 132.474 177.768 131.824 178.036 130.84L176.921 130.639C176.709 131.21 176.197 131.501 175.527 131.501C174.519 131.501 173.842 130.847 173.811 129.682H178.111V129.264C178.111 127.079 176.803 126.225 175.433 126.225C173.748 126.225 172.637 127.508 172.637 129.367C172.637 131.245 173.732 132.474 175.516 132.474ZM173.815 128.8C173.862 127.941 174.484 127.197 175.441 127.197C176.354 127.197 176.953 127.874 176.957 128.8H173.815ZM179.417 132.352H180.594V128.658C180.594 127.867 181.205 127.296 182.039 127.296C182.283 127.296 182.559 127.339 182.654 127.367V126.24C182.535 126.225 182.303 126.213 182.154 126.213C181.445 126.213 180.838 126.614 180.618 127.264H180.555V126.303H179.417V132.352ZM186.063 132.474C187.382 132.474 188.315 131.824 188.583 130.84L187.468 130.639C187.256 131.21 186.744 131.501 186.074 131.501C185.066 131.501 184.389 130.847 184.358 129.682H188.657V129.264C188.657 127.079 187.35 126.225 185.98 126.225C184.295 126.225 183.184 127.508 183.184 129.367C183.184 131.245 184.279 132.474 186.063 132.474ZM184.362 128.8C184.409 127.941 185.031 127.197 185.988 127.197C186.901 127.197 187.5 127.874 187.504 128.8H184.362ZM191.141 128.76C191.141 127.796 191.732 127.244 192.551 127.244C193.35 127.244 193.834 127.768 193.834 128.646V132.352H195.012V128.504C195.012 127.008 194.189 126.225 192.952 126.225C192.043 126.225 191.448 126.646 191.169 127.288H191.094V126.303H189.964V132.352H191.141V128.76ZM199.138 132.474C200.568 132.474 201.493 131.615 201.623 130.438H200.477C200.328 131.092 199.82 131.477 199.146 131.477C198.15 131.477 197.508 130.647 197.508 129.327C197.508 128.032 198.162 127.217 199.146 127.217C199.895 127.217 200.351 127.689 200.477 128.256H201.623C201.497 127.036 200.501 126.225 199.127 126.225C197.422 126.225 196.319 127.508 196.319 129.355C196.319 131.178 197.382 132.474 199.138 132.474ZM205.489 132.474C206.808 132.474 207.741 131.824 208.009 130.84L206.895 130.639C206.682 131.21 206.17 131.501 205.501 131.501C204.493 131.501 203.815 130.847 203.784 129.682H208.084V129.264C208.084 127.079 206.777 126.225 205.406 126.225C203.721 126.225 202.611 127.508 202.611 129.367C202.611 131.245 203.705 132.474 205.489 132.474ZM203.788 128.8C203.835 127.941 204.457 127.197 205.414 127.197C206.328 127.197 206.926 127.874 206.93 128.8H203.788ZM212.667 129.005C212.667 130.981 213.195 132.627 214.195 134.029H215.274C214.498 132.989 213.888 130.879 213.888 129.005C213.888 127.134 214.498 125.024 215.274 123.984H214.195C213.195 125.386 212.667 127.032 212.667 129.005ZM223.615 128.319C223.615 125.74 222.071 124.177 219.984 124.177C217.89 124.177 216.35 125.74 216.35 128.319C216.35 130.895 217.89 132.462 219.984 132.462C222.071 132.462 223.615 130.899 223.615 128.319ZM222.41 128.319C222.41 130.284 221.37 131.351 219.984 131.351C218.594 131.351 217.559 130.284 217.559 128.319C217.559 126.355 218.594 125.287 219.984 125.287C221.37 125.287 222.41 126.355 222.41 128.319ZM225.037 134.62H226.215V131.41H226.286C226.498 131.796 226.931 132.47 228.034 132.47C229.499 132.47 230.562 131.296 230.562 129.339C230.562 127.378 229.483 126.225 228.022 126.225C226.9 126.225 226.494 126.91 226.286 127.284H226.187V126.303H225.037V134.62ZM226.191 129.327C226.191 128.063 226.742 127.225 227.77 127.225C228.837 127.225 229.373 128.126 229.373 129.327C229.373 130.54 228.821 131.466 227.77 131.466C226.758 131.466 226.191 130.599 226.191 129.327ZM234.704 126.303H233.464V124.854H232.286V126.303H231.401V127.248H232.286V130.82C232.283 131.918 233.121 132.45 234.051 132.43C234.425 132.426 234.677 132.356 234.814 132.304L234.602 131.332C234.523 131.347 234.377 131.383 234.188 131.383C233.806 131.383 233.464 131.257 233.464 130.576V127.248H234.704V126.303ZM236.007 132.352H237.184V126.303H236.007V132.352ZM236.601 125.37C237.007 125.37 237.345 125.055 237.345 124.669C237.345 124.283 237.007 123.964 236.601 123.964C236.192 123.964 235.857 124.283 235.857 124.669C235.857 125.055 236.192 125.37 236.601 125.37ZM241.315 132.474C243.02 132.474 244.135 131.225 244.135 129.355C244.135 127.473 243.02 126.225 241.315 126.225C239.61 126.225 238.496 127.473 238.496 129.355C238.496 131.225 239.61 132.474 241.315 132.474ZM241.319 131.485C240.205 131.485 239.685 130.513 239.685 129.351C239.685 128.193 240.205 127.209 241.319 127.209C242.426 127.209 242.946 128.193 242.946 129.351C242.946 130.513 242.426 131.485 241.319 131.485ZM246.626 128.76C246.626 127.796 247.217 127.244 248.036 127.244C248.835 127.244 249.32 127.768 249.32 128.646V132.352H250.497V128.504C250.497 127.008 249.674 126.225 248.438 126.225C247.528 126.225 246.933 126.646 246.654 127.288H246.579V126.303H245.449V132.352H246.626V128.76ZM253.836 132.485C254.836 132.485 255.399 131.977 255.624 131.525H255.671V132.352H256.821V128.335C256.821 126.575 255.435 126.225 254.474 126.225C253.379 126.225 252.371 126.666 251.978 127.768L253.084 128.02C253.257 127.591 253.698 127.178 254.49 127.178C255.25 127.178 255.64 127.575 255.64 128.26V128.288C255.64 128.717 255.199 128.709 254.112 128.835C252.966 128.969 251.793 129.268 251.793 130.643C251.793 131.832 252.686 132.485 253.836 132.485ZM254.092 131.54C253.427 131.54 252.946 131.241 252.946 130.658C252.946 130.028 253.505 129.804 254.187 129.713C254.569 129.662 255.474 129.56 255.644 129.39V130.17C255.644 130.887 255.073 131.54 254.092 131.54ZM259.566 124.287H258.389V132.352H259.566V124.287ZM263.414 129.009C263.414 127.032 262.887 125.386 261.887 123.984H260.808C261.583 125.024 262.194 127.134 262.194 129.009C262.194 130.879 261.583 132.989 260.808 134.029H261.887C262.887 132.627 263.414 130.981 263.414 129.009Z" fill="#8185A0"/>
<path d="M157.243 189.381H155.852V198.598H157.243V189.381ZM161.748 198.733C163.008 198.733 163.503 197.963 163.746 197.522H163.858V198.598H165.172V189.381H163.827V192.806H163.746C163.503 192.378 163.044 191.595 161.757 191.595C160.087 191.595 158.858 192.914 158.858 195.155C158.858 197.392 160.069 198.733 161.748 198.733ZM162.045 197.585C160.843 197.585 160.218 196.528 160.218 195.142C160.218 193.769 160.83 192.738 162.045 192.738C163.219 192.738 163.849 193.697 163.849 195.142C163.849 196.595 163.206 197.585 162.045 197.585ZM170.072 198.737C171.579 198.737 172.646 197.995 172.952 196.87L171.678 196.64C171.435 197.293 170.85 197.626 170.085 197.626C168.933 197.626 168.159 196.879 168.123 195.547H173.037V195.07C173.037 192.572 171.543 191.595 169.977 191.595C168.051 191.595 166.782 193.062 166.782 195.187C166.782 197.333 168.033 198.737 170.072 198.737ZM168.128 194.539C168.182 193.557 168.893 192.707 169.986 192.707C171.03 192.707 171.714 193.481 171.719 194.539H168.128ZM175.876 194.494C175.876 193.391 176.551 192.761 177.487 192.761C178.4 192.761 178.954 193.359 178.954 194.363V198.598H180.299V194.201C180.299 192.491 179.359 191.595 177.946 191.595C176.906 191.595 176.227 192.077 175.907 192.81H175.822V191.685H174.53V198.598H175.876V194.494ZM185.331 191.685H183.913V190.029H182.568V191.685H181.555V192.765H182.568V196.847C182.563 198.103 183.522 198.71 184.584 198.688C185.011 198.683 185.299 198.602 185.457 198.544L185.214 197.432C185.124 197.45 184.957 197.491 184.741 197.491C184.305 197.491 183.913 197.347 183.913 196.568V192.765H185.331V191.685ZM186.819 198.598H188.165V191.685H186.819V198.598ZM187.499 190.619C187.962 190.619 188.349 190.259 188.349 189.818C188.349 189.377 187.962 189.012 187.499 189.012C187.031 189.012 186.648 189.377 186.648 189.818C186.648 190.259 187.031 190.619 187.499 190.619ZM193.201 191.685H191.784V190.029H190.438V191.685H189.426V192.765H190.438V196.847C190.434 198.103 191.392 198.71 192.454 198.688C192.882 198.683 193.17 198.602 193.327 198.544L193.084 197.432C192.994 197.45 192.828 197.491 192.612 197.491C192.175 197.491 191.784 197.347 191.784 196.568V192.765H193.201V191.685ZM195.54 201.19C196.652 201.19 197.354 200.609 197.754 199.52L200.612 191.699L199.158 191.685L197.408 197.05H197.336L195.585 191.685H194.145L196.674 198.688L196.508 199.147C196.166 200.065 195.684 200.141 194.946 199.939L194.622 201.041C194.784 201.113 195.135 201.19 195.54 201.19Z" fill="#62636D"/>
<rect x="139.396" y="227.635" width="264.537" height="38.8093" rx="5.9402" stroke="#DDDFE7" stroke-width="0.792027"/>
<rect x="150.881" y="219.319" width="64.1542" height="14.2565" fill="white"/>
<path d="M155.726 231.527H156.943V228.011H160.368V226.968H156.943V224.51H160.727V223.463H155.726V231.527ZM162.128 231.527H163.306V225.479H162.128V231.527ZM162.723 224.546C163.129 224.546 163.467 224.231 163.467 223.845C163.467 223.459 163.129 223.14 162.723 223.14C162.313 223.14 161.979 223.459 161.979 223.845C161.979 224.231 162.313 224.546 162.723 224.546ZM164.89 231.527H166.067V227.834C166.067 227.042 166.677 226.471 167.512 226.471C167.756 226.471 168.032 226.515 168.126 226.542V225.416C168.008 225.4 167.776 225.389 167.626 225.389C166.918 225.389 166.311 225.79 166.091 226.44H166.028V225.479H164.89V231.527ZM173.677 226.956C173.433 226.015 172.697 225.4 171.39 225.4C170.023 225.4 169.055 226.121 169.055 227.192C169.055 228.05 169.574 228.621 170.709 228.873L171.732 229.098C172.315 229.228 172.587 229.488 172.587 229.866C172.587 230.334 172.087 230.7 171.315 230.7C170.61 230.7 170.157 230.397 170.015 229.803L168.878 229.976C169.074 231.047 169.964 231.649 171.323 231.649C172.784 231.649 173.796 230.874 173.796 229.779C173.796 228.925 173.252 228.397 172.142 228.141L171.181 227.92C170.516 227.763 170.228 227.539 170.232 227.129C170.228 226.664 170.732 226.334 171.402 226.334C172.134 226.334 172.473 226.739 172.61 227.145L173.677 226.956ZM177.913 225.479H176.673V224.03H175.496V225.479H174.61V226.424H175.496V229.996C175.492 231.094 176.33 231.626 177.26 231.606C177.634 231.602 177.886 231.531 178.024 231.48L177.811 230.507C177.732 230.523 177.587 230.559 177.398 230.559C177.016 230.559 176.673 230.433 176.673 229.751V226.424H177.913V225.479ZM183.328 227.936C183.328 226.972 183.918 226.42 184.737 226.42C185.537 226.42 186.021 226.944 186.021 227.822V231.527H187.198V227.68C187.198 226.184 186.375 225.4 185.139 225.4C184.229 225.4 183.635 225.822 183.355 226.464H183.28V225.479H182.15V231.527H183.328V227.936ZM190.537 231.661C191.538 231.661 192.101 231.153 192.325 230.7H192.372V231.527H193.522V227.511C193.522 225.751 192.136 225.4 191.175 225.4C190.081 225.4 189.073 225.841 188.679 226.944L189.785 227.196C189.959 226.767 190.4 226.353 191.191 226.353C191.951 226.353 192.341 226.751 192.341 227.436V227.464C192.341 227.893 191.9 227.885 190.813 228.011C189.667 228.145 188.494 228.444 188.494 229.818C188.494 231.008 189.388 231.661 190.537 231.661ZM190.793 230.716C190.128 230.716 189.648 230.417 189.648 229.834C189.648 229.204 190.207 228.98 190.888 228.889C191.27 228.838 192.176 228.736 192.345 228.566V229.346C192.345 230.063 191.774 230.716 190.793 230.716ZM195.09 231.527H196.268V227.798C196.268 226.983 196.839 226.416 197.508 226.416C198.162 226.416 198.615 226.849 198.615 227.507V231.527H199.788V227.672C199.788 226.944 200.233 226.416 201.001 226.416C201.623 226.416 202.135 226.763 202.135 227.582V231.527H203.312V227.472C203.312 226.089 202.54 225.4 201.446 225.4C200.575 225.4 199.922 225.818 199.63 226.464H199.567C199.304 225.802 198.748 225.4 197.941 225.4C197.142 225.4 196.547 225.798 196.295 226.464H196.22V225.479H195.09V231.527ZM207.497 231.649C208.816 231.649 209.749 231 210.017 230.015L208.903 229.814C208.69 230.385 208.178 230.677 207.509 230.677C206.501 230.677 205.823 230.023 205.792 228.858H210.092V228.44C210.092 226.255 208.784 225.4 207.414 225.4C205.729 225.4 204.618 226.684 204.618 228.543C204.618 230.421 205.713 231.649 207.497 231.649ZM205.796 227.976C205.843 227.117 206.465 226.373 207.422 226.373C208.336 226.373 208.934 227.05 208.938 227.976H205.796Z" fill="#8185A0"/>
<rect x="428.486" y="227.635" width="264.537" height="38.8093" rx="5.9402" stroke="#DDDFE7" stroke-width="0.792027"/>
<rect x="439.971" y="219.319" width="76.0346" height="14.2565" fill="white"/>
<path d="M444.816 223.463V231.527H445.973V225.688H446.048L448.426 231.516H449.387L451.766 225.692H451.84V231.527H452.998V223.463H451.521L448.954 229.732H448.86L446.292 223.463H444.816ZM454.673 231.527H455.85V225.479H454.673V231.527ZM455.267 224.546C455.673 224.546 456.011 224.231 456.011 223.845C456.011 223.459 455.673 223.14 455.267 223.14C454.858 223.14 454.523 223.459 454.523 223.845C454.523 224.231 454.858 224.546 455.267 224.546ZM459.698 231.645C460.8 231.645 461.234 230.972 461.446 230.586H461.545V231.527H462.694V223.463H461.517V226.46H461.446C461.234 226.086 460.832 225.4 459.706 225.4C458.245 225.4 457.17 226.554 457.17 228.515C457.17 230.472 458.229 231.645 459.698 231.645ZM459.958 230.641C458.906 230.641 458.359 229.716 458.359 228.503C458.359 227.302 458.895 226.401 459.958 226.401C460.986 226.401 461.537 227.239 461.537 228.503C461.537 229.775 460.974 230.641 459.958 230.641ZM466.639 231.645C467.742 231.645 468.175 230.972 468.387 230.586H468.486V231.527H469.636V223.463H468.458V226.46H468.387C468.175 226.086 467.773 225.4 466.647 225.4C465.186 225.4 464.111 226.554 464.111 228.515C464.111 230.472 465.17 231.645 466.639 231.645ZM466.899 230.641C465.848 230.641 465.3 229.716 465.3 228.503C465.3 227.302 465.836 226.401 466.899 226.401C467.927 226.401 468.478 227.239 468.478 228.503C468.478 229.775 467.915 230.641 466.899 230.641ZM472.493 223.463H471.316V231.527H472.493V223.463ZM476.684 231.649C478.003 231.649 478.936 231 479.204 230.015L478.09 229.814C477.877 230.385 477.365 230.677 476.696 230.677C475.688 230.677 475.01 230.023 474.979 228.858H479.279V228.44C479.279 226.255 477.972 225.4 476.601 225.4C474.916 225.4 473.805 226.684 473.805 228.543C473.805 230.421 474.9 231.649 476.684 231.649ZM474.983 227.976C475.03 227.117 475.652 226.373 476.609 226.373C477.523 226.373 478.121 227.05 478.125 227.976H474.983ZM484.697 227.936C484.697 226.972 485.288 226.42 486.107 226.42C486.906 226.42 487.39 226.944 487.39 227.822V231.527H488.568V227.68C488.568 226.184 487.745 225.4 486.508 225.4C485.599 225.4 485.004 225.822 484.725 226.464H484.65V225.479H483.52V231.527H484.697V227.936ZM491.907 231.661C492.907 231.661 493.47 231.153 493.694 230.7H493.742V231.527H494.892V227.511C494.892 225.751 493.505 225.4 492.545 225.4C491.45 225.4 490.442 225.841 490.048 226.944L491.155 227.196C491.328 226.767 491.769 226.353 492.56 226.353C493.32 226.353 493.71 226.751 493.71 227.436V227.464C493.71 227.893 493.269 227.885 492.182 228.011C491.037 228.145 489.863 228.444 489.863 229.818C489.863 231.008 490.757 231.661 491.907 231.661ZM492.163 230.716C491.497 230.716 491.017 230.417 491.017 229.834C491.017 229.204 491.576 228.98 492.257 228.889C492.639 228.838 493.545 228.736 493.714 228.566V229.346C493.714 230.063 493.143 230.716 492.163 230.716ZM496.46 231.527H497.637V227.798C497.637 226.983 498.208 226.416 498.877 226.416C499.531 226.416 499.984 226.849 499.984 227.507V231.527H501.157V227.672C501.157 226.944 501.602 226.416 502.37 226.416C502.992 226.416 503.504 226.763 503.504 227.582V231.527H504.681V227.472C504.681 226.089 503.91 225.4 502.815 225.4C501.945 225.4 501.291 225.818 501 226.464H500.937C500.673 225.802 500.118 225.4 499.311 225.4C498.511 225.4 497.917 225.798 497.665 226.464H497.59V225.479H496.46V231.527ZM508.866 231.649C510.185 231.649 511.119 231 511.386 230.015L510.272 229.814C510.059 230.385 509.547 230.677 508.878 230.677C507.87 230.677 507.193 230.023 507.161 228.858H511.461V228.44C511.461 226.255 510.154 225.4 508.783 225.4C507.098 225.4 505.988 226.684 505.988 228.543C505.988 230.421 507.082 231.649 508.866 231.649ZM507.165 227.976C507.212 227.117 507.835 226.373 508.791 226.373C509.705 226.373 510.303 227.05 510.307 227.976H507.165Z" fill="#8185A0"/>
<rect x="139.396" y="292.519" width="264.537" height="38.8093" rx="5.9402" stroke="#DDDFE7" stroke-width="0.792027"/>
<rect x="150.881" y="284.202" width="63.3622" height="14.2565" fill="white"/>
<path d="M155.726 296.41H160.597V295.363H156.943V288.346H155.726V296.41ZM163.65 296.544C164.65 296.544 165.214 296.036 165.438 295.583H165.485V296.41H166.635V292.394C166.635 290.634 165.249 290.283 164.288 290.283C163.194 290.283 162.185 290.724 161.792 291.827L162.898 292.079C163.071 291.65 163.512 291.236 164.304 291.236C165.064 291.236 165.454 291.634 165.454 292.319V292.347C165.454 292.776 165.013 292.768 163.926 292.894C162.78 293.028 161.607 293.327 161.607 294.701C161.607 295.89 162.501 296.544 163.65 296.544ZM163.906 295.599C163.241 295.599 162.76 295.3 162.76 294.717C162.76 294.087 163.32 293.863 164.001 293.772C164.383 293.721 165.288 293.618 165.458 293.449V294.229C165.458 294.945 164.887 295.599 163.906 295.599ZM172.735 291.839C172.491 290.897 171.755 290.283 170.448 290.283C169.081 290.283 168.113 291.004 168.113 292.075C168.113 292.933 168.632 293.504 169.766 293.756L170.79 293.981C171.373 294.111 171.645 294.37 171.645 294.748C171.645 295.217 171.145 295.583 170.373 295.583C169.668 295.583 169.215 295.28 169.073 294.685L167.935 294.859C168.132 295.93 169.022 296.532 170.381 296.532C171.842 296.532 172.854 295.757 172.854 294.662C172.854 293.807 172.31 293.28 171.2 293.024L170.239 292.803C169.573 292.646 169.286 292.421 169.29 292.012C169.286 291.547 169.79 291.216 170.459 291.216C171.192 291.216 171.53 291.622 171.668 292.028L172.735 291.839ZM176.971 290.362H175.731V288.913H174.554V290.362H173.668V291.307H174.554V294.878C174.55 295.977 175.388 296.509 176.318 296.489C176.692 296.485 176.944 296.414 177.082 296.363L176.869 295.39C176.79 295.406 176.644 295.441 176.455 295.441C176.074 295.441 175.731 295.315 175.731 294.634V291.307H176.971V290.362ZM182.386 292.819C182.386 291.854 182.976 291.303 183.795 291.303C184.595 291.303 185.079 291.827 185.079 292.705V296.41H186.256V292.563C186.256 291.067 185.433 290.283 184.197 290.283C183.287 290.283 182.693 290.705 182.413 291.346H182.338V290.362H181.208V296.41H182.386V292.819ZM189.595 296.544C190.596 296.544 191.159 296.036 191.383 295.583H191.43V296.41H192.58V292.394C192.58 290.634 191.194 290.283 190.233 290.283C189.139 290.283 188.131 290.724 187.737 291.827L188.843 292.079C189.017 291.65 189.458 291.236 190.249 291.236C191.009 291.236 191.399 291.634 191.399 292.319V292.347C191.399 292.776 190.958 292.768 189.871 292.894C188.725 293.028 187.552 293.327 187.552 294.701C187.552 295.89 188.446 296.544 189.595 296.544ZM189.851 295.599C189.186 295.599 188.705 295.3 188.705 294.717C188.705 294.087 189.265 293.863 189.946 293.772C190.328 293.721 191.233 293.618 191.403 293.449V294.229C191.403 294.945 190.832 295.599 189.851 295.599ZM194.148 296.41H195.326V292.681C195.326 291.866 195.897 291.299 196.566 291.299C197.22 291.299 197.672 291.732 197.672 292.39V296.41H198.846V292.555C198.846 291.827 199.291 291.299 200.059 291.299C200.681 291.299 201.193 291.646 201.193 292.465V296.41H202.37V292.354C202.37 290.972 201.598 290.283 200.504 290.283C199.633 290.283 198.98 290.701 198.688 291.346H198.625C198.362 290.685 197.806 290.283 196.999 290.283C196.2 290.283 195.605 290.681 195.353 291.346H195.278V290.362H194.148V296.41ZM206.555 296.532C207.874 296.532 208.807 295.883 209.075 294.898L207.96 294.697C207.748 295.268 207.236 295.56 206.567 295.56C205.559 295.56 204.881 294.906 204.85 293.74H209.15V293.323C209.15 291.138 207.842 290.283 206.472 290.283C204.787 290.283 203.676 291.567 203.676 293.425C203.676 295.304 204.771 296.532 206.555 296.532ZM204.854 292.858C204.901 292 205.523 291.256 206.48 291.256C207.393 291.256 207.992 291.933 207.996 292.858H204.854Z" fill="#8185A0"/>
<rect x="428.486" y="292.519" width="264.537" height="38.8093" rx="5.9402" stroke="#DDDFE7" stroke-width="0.792027"/>
<rect x="439.971" y="284.202" width="75.2426" height="14.2565" fill="white"/>
<path d="M447.426 296.41C449.883 296.41 451.305 294.886 451.305 292.366C451.305 289.858 449.883 288.346 447.509 288.346H444.816V296.41H447.426ZM446.032 295.347V289.409H447.434C449.198 289.409 450.108 290.464 450.108 292.366C450.108 294.276 449.198 295.347 447.359 295.347H446.032ZM454.484 296.544C455.484 296.544 456.047 296.036 456.271 295.583H456.318V296.41H457.468V292.394C457.468 290.634 456.082 290.283 455.121 290.283C454.027 290.283 453.019 290.724 452.625 291.827L453.731 292.079C453.905 291.65 454.346 291.236 455.137 291.236C455.897 291.236 456.287 291.634 456.287 292.319V292.347C456.287 292.776 455.846 292.768 454.759 292.894C453.613 293.028 452.44 293.327 452.44 294.701C452.44 295.89 453.334 296.544 454.484 296.544ZM454.739 295.599C454.074 295.599 453.594 295.3 453.594 294.717C453.594 294.087 454.153 293.863 454.834 293.772C455.216 293.721 456.122 293.618 456.291 293.449V294.229C456.291 294.945 455.72 295.599 454.739 295.599ZM461.86 290.362H460.619V288.913H459.442V290.362H458.556V291.307H459.442V294.878C459.438 295.977 460.277 296.509 461.206 296.489C461.58 296.485 461.832 296.414 461.97 296.363L461.757 295.39C461.679 295.406 461.533 295.441 461.344 295.441C460.962 295.441 460.619 295.315 460.619 294.634V291.307H461.86V290.362ZM465.704 296.532C467.023 296.532 467.956 295.883 468.224 294.898L467.11 294.697C466.897 295.268 466.385 295.56 465.716 295.56C464.708 295.56 464.03 294.906 463.999 293.74H468.299V293.323C468.299 291.138 466.991 290.283 465.621 290.283C463.936 290.283 462.825 291.567 462.825 293.425C462.825 295.304 463.92 296.532 465.704 296.532ZM464.003 292.858C464.05 292 464.672 291.256 465.629 291.256C466.543 291.256 467.141 291.933 467.145 292.858H464.003ZM475.087 296.532C476.792 296.532 477.907 295.284 477.907 293.414C477.907 291.531 476.792 290.283 475.087 290.283C473.382 290.283 472.268 291.531 472.268 293.414C472.268 295.284 473.382 296.532 475.087 296.532ZM475.091 295.544C473.977 295.544 473.457 294.571 473.457 293.41C473.457 292.252 473.977 291.268 475.091 291.268C476.198 291.268 476.717 292.252 476.717 293.41C476.717 294.571 476.198 295.544 475.091 295.544ZM482.099 290.362H480.796V289.819C480.796 289.283 481.016 288.992 481.591 288.992C481.835 288.992 482.009 289.047 482.119 289.082L482.394 288.129C482.229 288.066 481.887 287.968 481.41 287.968C480.453 287.968 479.614 288.527 479.614 289.661V290.362H478.681V291.307H479.614V296.41H480.796V291.307H482.099V290.362ZM486.343 296.41H489.434C491.308 296.41 492.155 295.477 492.155 294.241C492.155 292.992 491.281 292.287 490.481 292.244V292.165C491.222 291.976 491.84 291.472 491.84 290.464C491.84 289.271 491.013 288.346 489.296 288.346H486.343V296.41ZM487.56 295.367V292.784H489.359C490.336 292.784 490.946 293.414 490.946 294.181C490.946 294.859 490.485 295.367 489.316 295.367H487.56ZM487.56 291.835V289.381H489.221C490.186 289.381 490.647 289.889 490.647 290.559C490.647 291.338 490.009 291.835 489.19 291.835H487.56ZM493.504 296.41H494.681V290.362H493.504V296.41ZM494.098 289.429C494.504 289.429 494.842 289.114 494.842 288.728C494.842 288.342 494.504 288.023 494.098 288.023C493.689 288.023 493.354 288.342 493.354 288.728C493.354 289.114 493.689 289.429 494.098 289.429ZM496.265 296.41H497.442V292.717C497.442 291.925 498.052 291.354 498.887 291.354C499.131 291.354 499.407 291.398 499.502 291.425V290.299C499.383 290.283 499.151 290.271 499.001 290.271C498.293 290.271 497.686 290.673 497.466 291.323H497.403V290.362H496.265V296.41ZM503.701 290.362H502.461V288.913H501.283V290.362H500.397V291.307H501.283V294.878C501.279 295.977 502.118 296.509 503.047 296.489C503.421 296.485 503.673 296.414 503.811 296.363L503.599 295.39C503.52 295.406 503.374 295.441 503.185 295.441C502.803 295.441 502.461 295.315 502.461 294.634V291.307H503.701V290.362ZM506.311 292.819C506.311 291.854 506.921 291.303 507.76 291.303C508.571 291.303 509.055 291.819 509.055 292.705V296.41H510.233V292.563C510.233 291.055 509.406 290.283 508.161 290.283C507.22 290.283 506.653 290.693 506.37 291.346H506.295V288.346H505.133V296.41H506.311V292.819Z" fill="#8185A0"/>
<path d="M447.512 316.563C448.844 316.563 449.294 315.735 449.528 315.357H449.654V316.419H450.68V307.203H449.618V310.605H449.528C449.294 310.245 448.88 309.417 447.53 309.417C445.784 309.417 444.578 310.803 444.578 312.981C444.578 315.177 445.784 316.563 447.512 316.563ZM447.656 315.609C446.324 315.609 445.64 314.439 445.64 312.963C445.64 311.505 446.306 310.371 447.656 310.371C448.952 310.371 449.636 311.415 449.636 312.963C449.636 314.529 448.934 315.609 447.656 315.609ZM455.383 316.563C456.715 316.563 457.165 315.735 457.399 315.357H457.525V316.419H458.551V307.203H457.489V310.605H457.399C457.165 310.245 456.751 309.417 455.401 309.417C453.655 309.417 452.448 310.803 452.448 312.981C452.448 315.177 453.655 316.563 455.383 316.563ZM455.527 315.609C454.195 315.609 453.511 314.439 453.511 312.963C453.511 311.505 454.177 310.371 455.527 310.371C456.823 310.371 457.507 311.415 457.507 312.963C457.507 314.529 456.805 315.609 455.527 315.609ZM463.901 306.771H462.929L459.959 317.805H460.931L463.901 306.771ZM465.16 316.419H466.222V312.099C466.222 311.086 466.96 310.371 467.788 310.371C468.594 310.371 469.156 310.897 469.156 311.685V316.419H470.236V311.919C470.236 311.028 470.794 310.371 471.767 310.371C472.523 310.371 473.171 310.771 473.171 311.793V316.419H474.233V311.793C474.233 310.168 473.36 309.417 472.127 309.417C471.136 309.417 470.412 309.871 470.056 310.587H469.984C469.642 309.849 469.039 309.417 468.13 309.417C467.23 309.417 466.564 309.849 466.276 310.587H466.186V309.507H465.16V316.419ZM476.174 316.419H477.236V312.099C477.236 311.086 477.974 310.371 478.802 310.371C479.608 310.371 480.171 310.897 480.171 311.685V316.419H481.251V311.919C481.251 311.028 481.809 310.371 482.781 310.371C483.537 310.371 484.185 310.771 484.185 311.793V316.419H485.247V311.793C485.247 310.168 484.374 309.417 483.141 309.417C482.151 309.417 481.426 309.871 481.071 310.587H480.999C480.657 309.849 480.054 309.417 479.145 309.417C478.244 309.417 477.578 309.849 477.29 310.587H477.2V309.507H476.174V316.419ZM490.447 306.771H489.475L486.505 317.805H487.477L490.447 306.771ZM492.39 319.011C493.348 319.011 494.023 318.503 494.424 317.427L497.367 309.525L496.206 309.507L494.298 315.015H494.226L492.318 309.507H491.166L493.722 316.455L493.524 316.995C493.137 318.048 492.66 318.147 491.886 317.949L491.616 318.885C491.724 318.939 492.03 319.011 492.39 319.011ZM499.456 319.011C500.414 319.011 501.089 318.503 501.49 317.427L504.433 309.525L503.272 309.507L501.364 315.015H501.292L499.384 309.507H498.232L500.788 316.455L500.59 316.995C500.203 318.048 499.726 318.147 498.952 317.949L498.682 318.885C498.79 318.939 499.096 319.011 499.456 319.011Z" fill="#B0B2C1"/>
<rect x="139" y="361" width="534" height="11" rx="5.5" fill="#F4F4F4"/>
<rect x="210" y="385.236" width="412.9" height="10.7596" rx="5.37981" fill="#F4F4F4"/>
<rect x="271" y="427.586" width="289.882" height="39.6013" rx="7.92027" fill="#4959E7"/>
<path d="M365.899 451.882H367.568V448.507H369.269L371.078 451.882H372.941L370.948 448.228C372.032 447.791 372.604 446.864 372.604 445.613C372.604 443.854 371.47 442.666 369.355 442.666H365.899V451.882ZM367.568 447.121V444.061H369.098C370.345 444.061 370.903 444.632 370.903 445.613C370.903 446.594 370.345 447.121 369.107 447.121H367.568ZM378.728 448.975C378.728 450.028 377.976 450.55 377.256 450.55C376.473 450.55 375.951 449.996 375.951 449.119V444.97H374.322V449.371C374.322 451.031 375.267 451.972 376.626 451.972C377.661 451.972 378.39 451.427 378.705 450.653H378.777V451.882H380.357V444.97H378.728V448.975ZM383.915 447.832C383.915 446.833 384.518 446.257 385.377 446.257C386.219 446.257 386.723 446.81 386.723 447.733V451.882H388.352V447.481C388.356 445.825 387.411 444.88 385.985 444.88C384.95 444.88 384.239 445.375 383.924 446.144H383.843V444.97H382.285V451.882H383.915V447.832ZM394.963 442.666H393.131L396.376 451.882H398.437L401.686 442.666H399.85L397.456 449.92H397.362L394.963 442.666ZM405.399 452.017C407.01 452.017 408.117 451.229 408.405 450.028L406.884 449.857C406.664 450.442 406.124 450.748 405.422 450.748C404.369 450.748 403.671 450.055 403.658 448.871H408.473V448.372C408.473 445.946 407.015 444.88 405.314 444.88C403.334 444.88 402.042 446.333 402.042 448.466C402.042 450.635 403.316 452.017 405.399 452.017ZM403.662 447.773C403.712 446.891 404.364 446.149 405.336 446.149C406.272 446.149 406.902 446.833 406.911 447.773H403.662ZM410.104 451.882H411.733V447.818C411.733 446.941 412.395 446.32 413.291 446.32C413.565 446.32 413.907 446.369 414.047 446.414V444.916C413.898 444.889 413.642 444.871 413.462 444.871C412.67 444.871 412.008 445.321 411.756 446.122H411.684V444.97H410.104V451.882ZM415.382 451.882H417.011V444.97H415.382V451.882ZM416.201 443.989C416.719 443.989 417.142 443.593 417.142 443.107C417.142 442.616 416.719 442.22 416.201 442.22C415.679 442.22 415.256 442.616 415.256 443.107C415.256 443.593 415.679 443.989 416.201 443.989ZM422.441 444.97H421.006V444.425C421.006 443.885 421.231 443.584 421.838 443.584C422.095 443.584 422.311 443.642 422.446 443.683L422.774 442.423C422.563 442.351 422.099 442.234 421.537 442.234C420.335 442.234 419.376 442.922 419.376 444.317V444.97H418.355V446.23H419.376V451.882H421.006V446.23H422.441V444.97ZM423.97 451.882H425.599V444.97H423.97V451.882ZM424.789 443.989C425.307 443.989 425.73 443.593 425.73 443.107C425.73 442.616 425.307 442.22 424.789 442.22C424.267 442.22 423.844 442.616 423.844 443.107C423.844 443.593 424.267 443.989 424.789 443.989ZM430.543 452.017C432.28 452.017 433.387 450.986 433.504 449.519H431.947C431.808 450.262 431.272 450.689 430.557 450.689C429.54 450.689 428.883 449.839 428.883 448.426C428.883 447.031 429.553 446.194 430.557 446.194C431.34 446.194 431.821 446.698 431.947 447.364H433.504C433.392 445.865 432.222 444.88 430.534 444.88C428.509 444.88 427.231 446.342 427.231 448.453C427.231 450.545 428.478 452.017 430.543 452.017ZM437.084 452.021C438.169 452.021 438.817 451.513 439.114 450.932H439.168V451.882H440.734V447.256C440.734 445.429 439.244 444.88 437.926 444.88C436.472 444.88 435.356 445.528 434.996 446.788L436.517 447.004C436.679 446.531 437.138 446.126 437.935 446.126C438.691 446.126 439.105 446.513 439.105 447.193V447.22C439.105 447.688 438.614 447.71 437.395 447.841C436.054 447.985 434.771 448.385 434.771 449.942C434.771 451.301 435.766 452.021 437.084 452.021ZM437.507 450.824C436.828 450.824 436.342 450.514 436.342 449.915C436.342 449.29 436.886 449.029 437.615 448.925C438.043 448.867 438.898 448.759 439.109 448.588V449.402C439.109 450.172 438.488 450.824 437.507 450.824ZM446.077 444.97H444.714V443.314H443.085V444.97H442.104V446.23H443.085V450.073C443.076 451.373 444.021 452.012 445.245 451.976C445.708 451.963 446.028 451.873 446.203 451.814L445.929 450.541C445.839 450.563 445.654 450.604 445.452 450.604C445.042 450.604 444.714 450.46 444.714 449.803V446.23H446.077V444.97ZM447.693 451.882H449.322V444.97H447.693V451.882ZM448.512 443.989C449.03 443.989 449.453 443.593 449.453 443.107C449.453 442.616 449.03 442.22 448.512 442.22C447.99 442.22 447.567 442.616 447.567 443.107C447.567 443.593 447.99 443.989 448.512 443.989ZM454.266 452.017C456.291 452.017 457.578 450.59 457.578 448.453C457.578 446.311 456.291 444.88 454.266 444.88C452.241 444.88 450.954 446.311 450.954 448.453C450.954 450.59 452.241 452.017 454.266 452.017ZM454.275 450.712C453.154 450.712 452.605 449.713 452.605 448.448C452.605 447.184 453.154 446.171 454.275 446.171C455.377 446.171 455.926 447.184 455.926 448.448C455.926 449.713 455.377 450.712 454.275 450.712ZM460.843 447.832C460.843 446.833 461.446 446.257 462.306 446.257C463.147 446.257 463.651 446.81 463.651 447.733V451.882H465.28V447.481C465.285 445.825 464.34 444.88 462.913 444.88C461.878 444.88 461.167 445.375 460.852 446.144H460.771V444.97H459.214V451.882H460.843V447.832Z" fill="white"/>
<defs>
<filter id="filter0_f_2227_5338" x="2.57362" y="2.57362" width="753.853" height="534.853" filterUnits="userSpaceOnUse" color-interpolation-filters="sRGB">
<feFlood flood-opacity="0" result="BackgroundImageFix"/>
<feBlend mode="normal" in="SourceGraphic" in2="BackgroundImageFix" result="shape"/>
<feGaussianBlur stdDeviation="8.71319" result="effect1_foregroundBlur_2227_5338"/>
</filter>
<clipPath id="clip0_2227_5338">
<rect width="65.0585" height="16.2646" fill="white" transform="translate(25.5586 59.2812)"/>
</clipPath>
</defs>
</svg>
