<svg width="62" height="62" viewBox="0 0 62 62" fill="none" xmlns="http://www.w3.org/2000/svg">
<path fill-rule="evenodd" clip-rule="evenodd" d="M31 62C48.1208 62 62 48.1208 62 31C62 13.8792 48.1208 0 31 0C13.8792 0 0 13.8792 0 31C0 48.1208 13.8792 62 31 62ZM26.5303 21.3311L41.2121 30.3036C41.3313 30.3765 41.4299 30.4788 41.4982 30.6007C41.5666 30.7226 41.6025 30.86 41.6025 30.9997C41.6025 31.1395 41.5666 31.2769 41.4982 31.3988C41.4299 31.5207 41.3313 31.623 41.2121 31.6958L26.5303 40.6684C26.4066 40.7439 26.265 40.7852 26.1201 40.7879C25.9752 40.7906 25.8322 40.7547 25.7058 40.6838C25.5794 40.6129 25.4742 40.5096 25.4009 40.3846C25.3277 40.2595 25.2891 40.1172 25.2891 39.9723V22.0272C25.2891 21.8823 25.3277 21.74 25.4009 21.6149C25.4742 21.4899 25.5794 21.3866 25.7058 21.3157C25.8322 21.2448 25.9752 21.2089 26.1201 21.2116C26.265 21.2143 26.4066 21.2555 26.5303 21.3311Z" fill="#717171" fill-opacity="0.9"/>
</svg>
