<svg width="100" height="15" viewBox="0 0 100 15" fill="none" xmlns="http://www.w3.org/2000/svg">
<g clip-path="url(#clip0_2227_4312)">
<path d="M25.6373 11.6294L23.0928 8.3539C24.7265 7.97141 25.8687 6.90489 25.8687 5.1372V5.107C25.8687 4.22032 25.5445 3.43147 24.9968 2.88325C24.2969 2.1834 23.201 1.76465 21.8336 1.76465H17.7969C17.4003 1.76465 17.0586 2.10297 17.0586 2.51829V12.1482C17.0586 12.5637 17.4003 12.902 17.7969 12.902C18.2107 12.902 18.5501 12.5628 18.5501 12.1482V8.63394H21.4419L24.4362 12.5239C24.6006 12.7431 24.8226 12.902 25.1151 12.902C25.4927 12.902 25.8687 12.5603 25.8687 12.163C25.8687 11.9615 25.7829 11.7936 25.6373 11.6294ZM24.3618 5.15315L24.3619 5.18387H24.3618C24.3618 6.4951 23.2555 7.26549 21.7254 7.26549H18.5501V3.16382H21.7408C23.3855 3.16382 24.3618 3.90125 24.3618 5.15315Z" fill="#4959E7"/>
<path d="M28.043 12.0714C28.043 12.4862 28.3847 12.8246 28.7813 12.8246H35.5606C35.945 12.8246 36.2522 12.5169 36.2522 12.1324C36.2522 11.7485 35.9452 11.4407 35.5606 11.4407H29.5346V7.94016H34.7903C35.1749 7.94016 35.4825 7.63295 35.4825 7.24848C35.4825 6.88313 35.1749 6.55628 34.7903 6.55628H29.5346V3.14906H35.4837C35.8675 3.14906 36.1759 2.84132 36.1759 2.45685C36.1759 2.07238 35.8675 1.76465 35.4837 1.76465H28.7813C28.3849 1.76465 28.043 2.10297 28.043 2.51842V12.0714Z" fill="#4959E7"/>
<path d="M42.5406 12.9763L42.6215 12.9761C43.0251 12.9691 43.2765 12.7418 43.436 12.3864L47.614 2.73593C47.6512 2.64311 47.6701 2.55029 47.6701 2.43888C47.6701 2.05929 47.3491 1.71582 46.9317 1.71582C46.6009 1.71582 46.3372 1.96554 46.208 2.22278C46.2065 2.22568 46.2052 2.22858 46.2039 2.23161L42.5873 10.8947L38.985 2.26233C38.8565 1.94985 38.5947 1.71582 38.227 1.71582C37.8108 1.71582 37.4727 2.07669 37.4727 2.45364C37.4727 2.58536 37.4927 2.67897 37.5485 2.79104L41.7054 12.3835C41.8503 12.7448 42.1247 12.9763 42.5406 12.9763Z" fill="#4959E7"/>
<path d="M49.625 2.46947V12.1763C49.625 12.5917 49.9668 12.93 50.3634 12.93C50.7771 12.93 51.1165 12.5908 51.1165 12.1763V2.46947C51.1165 2.05493 50.7771 1.71582 50.3634 1.71582C49.9668 1.71582 49.625 2.05401 49.625 2.46947Z" fill="#4959E7"/>
<path d="M61.312 1.76491L61.2941 1.76465H54.5913C54.1954 1.76465 53.8535 2.10297 53.8535 2.51842V12.0714C53.8535 12.4862 54.1953 12.8246 54.5913 12.8246C54.5912 12.8246 61.371 12.8246 61.371 12.8246C61.7549 12.8246 62.0627 12.5169 62.0627 12.1324C62.0627 11.7485 61.7549 11.4407 61.371 11.4407H55.345V7.94016H60.6002C60.9855 7.94016 61.2924 7.63295 61.2924 7.24848C61.2924 6.88313 60.9855 6.55628 60.6002 6.55628H55.345V3.14906H61.2941C61.6779 3.14906 61.9863 2.84132 61.9863 2.45685C61.9863 2.07845 61.6874 1.77427 61.312 1.76491Z" fill="#4959E7"/>
<path d="M74.4962 12.991H74.6228C74.9822 12.9833 75.2407 12.737 75.3671 12.375C75.3666 12.3761 78.8184 2.79302 78.8184 2.79302C78.8188 2.7917 78.8192 2.79052 78.8197 2.7892C78.8541 2.68372 78.9034 2.55912 78.9034 2.45364C78.9034 2.0759 78.5462 1.71582 78.1496 1.71582C77.7947 1.71582 77.5463 1.95077 77.4337 2.28699C77.4342 2.28554 74.5786 10.499 74.5786 10.499L71.8858 2.28725C71.7742 1.95183 71.5272 1.71582 71.1551 1.71582V1.71701L71.0775 1.71582C70.6864 1.71582 70.4579 1.95183 70.3463 2.28725L67.6536 10.4988L64.8133 2.31573C64.7032 1.98571 64.4209 1.71582 64.0517 1.71582C63.6381 1.71582 63.2832 2.07418 63.2832 2.46907C63.2832 2.57626 63.3156 2.68332 63.3512 2.78986L66.8036 12.3752C66.9305 12.7547 67.1891 12.9838 67.5478 12.991H67.6744C68.0333 12.9833 68.2924 12.7369 68.4182 12.3747L71.0779 4.47039L73.7525 12.375C73.8789 12.737 74.138 12.9833 74.4962 12.991Z" fill="#4959E7"/>
<path d="M86.7194 9.89157V9.92229C86.7194 10.9176 85.8093 11.6188 84.4533 11.6188C83.1209 11.6188 82.1316 11.2149 81.1434 10.3777L81.1407 10.3752C81.043 10.2797 80.8705 10.2008 80.6787 10.2008C80.2802 10.2008 79.9551 10.5218 79.9551 10.9391C79.9551 11.1864 80.0716 11.3953 80.2417 11.512C81.4678 12.4849 82.8041 12.9872 84.4072 12.9872C86.6352 12.9872 88.2263 11.7225 88.2263 9.79927V9.76789C88.2263 8.05914 87.0968 7.12684 84.6056 6.58362C84.6055 6.58362 84.6054 6.58349 84.6051 6.58349C82.3419 6.09829 81.7862 5.59239 81.7862 4.62199V4.59126C81.7862 3.6852 82.6362 2.98759 83.9445 2.98759C84.9172 2.98759 85.7699 3.25788 86.6528 3.90117C86.6531 3.90143 86.6534 3.90157 86.6536 3.90183C86.7851 3.99623 86.9175 4.03526 87.0881 4.03526C87.4869 4.03526 87.8105 3.7125 87.8105 3.31234C87.8105 3.03084 87.6443 2.82292 87.4936 2.70966C87.4928 2.70913 87.4921 2.70847 87.4913 2.70794C86.4821 1.98265 85.4265 1.61914 83.9754 1.61914C81.8401 1.61914 80.2941 2.9334 80.2941 4.69938L80.4315 4.83677C80.4313 4.83677 80.2941 4.7003 80.2941 4.7003V4.72891L80.4315 4.86696L80.2941 4.72971C80.2941 6.5649 81.4546 7.41849 84.0237 7.9766C84.0239 7.9766 84.0242 7.97673 84.0244 7.97673C86.18 8.43174 86.7194 8.93817 86.7194 9.89157Z" fill="#4959E7"/>
<path d="M89.894 11.3898L89.8809 11.3896C89.5912 11.3896 89.3848 11.5972 89.3848 11.877L89.4672 11.9594L89.3848 11.877V12.0494C89.3848 12.3288 89.5916 12.5456 89.8809 12.5456C90.16 12.5456 90.3682 12.3293 90.3682 12.0494C90.3682 12.095 90.3313 12.1318 90.2858 12.1318C90.2858 12.1318 90.3682 12.1226 90.3682 12.0456V11.877C90.3682 11.601 90.167 11.3961 89.894 11.3898ZM89.4744 12.1306C89.4699 12.1316 89.4672 12.1318 89.4672 12.1318C89.4697 12.1318 89.4722 12.1318 89.4747 12.1316L89.4744 12.1306Z" fill="#4959E7"/>
<path d="M91.6328 8.26465V12.1339C91.6328 12.3699 91.8155 12.5525 92.0507 12.5525C92.2881 12.5525 92.4612 12.3704 92.4612 12.1339V8.26465C92.4612 8.02798 92.2786 7.84603 92.0426 7.84603C91.817 7.84603 91.6328 8.03905 91.6328 8.26465ZM91.5724 6.68748H91.5723C91.5723 6.94049 91.7794 7.1231 92.0426 7.1231C92.3159 7.1231 92.521 6.93997 92.521 6.68748V6.57593C92.521 6.31263 92.3159 6.13965 92.0426 6.13965C91.7794 6.13965 91.5723 6.31211 91.5723 6.57593L91.5724 6.68748Z" fill="#4959E7"/>
<path fill-rule="evenodd" clip-rule="evenodd" d="M98.374 10.2032L98.3741 10.1845C98.3741 8.88106 97.3571 7.79199 95.974 7.79199C94.5821 7.79199 93.5645 8.89899 93.5645 10.2015L93.5815 10.2187L93.5645 10.202V10.2187C93.5645 11.5216 94.5732 12.6105 95.9564 12.6105C97.3482 12.6105 98.3734 11.505 98.374 10.2032ZM97.5287 10.2187V10.2015C97.5287 9.2915 96.8502 8.54247 95.9564 8.54247C95.0385 8.54247 94.4099 9.29124 94.4099 10.1845V10.2015C94.4099 11.1114 95.0803 11.8508 95.974 11.8508C96.8912 11.8508 97.5287 11.1118 97.5287 10.2187Z" fill="#4959E7"/>
<path fill-rule="evenodd" clip-rule="evenodd" d="M12.5499 2.63965L11.8875 2.97191C13.1788 4.01469 13.8101 5.36166 13.9275 6.99156C13.8294 10.1376 12.345 12.1596 9.7952 13.0268C6.84931 13.9144 4.98261 13.1962 3.17629 11.3557L3.0625 12.0632L3.7969 12.8285C6.35146 15.4906 10.5868 15.5781 13.249 13.0235C15.9111 10.4688 15.9985 6.23357 13.4438 3.57129L12.5499 2.63965Z" fill="#FEEF7C"/>
<path fill-rule="evenodd" clip-rule="evenodd" d="M2.7028 11.6586L3.1466 11.271C1.3027 8.65799 1.22544 4.83254 3.74888 2.72653C5.61941 1.16545 9.33094 0.356295 12.3003 2.97072L12.5219 2.58084L11.7984 1.82667C9.24366 -0.835481 5.00843 -0.922897 2.34615 1.6318C-0.316001 4.18636 -0.403284 8.42172 2.15128 11.0839L2.7028 11.6586Z" fill="#5CD3CB"/>
<path d="M1.11719 7.34504C1.11719 11.0439 4.11621 14.0429 7.81508 14.0429C11.5146 14.0429 14.5135 11.0439 14.5135 7.34504C14.5135 3.64551 11.5146 0.646484 7.81508 0.646484C4.11621 0.646484 1.11719 3.64551 1.11719 7.34504ZM5.77921 8.55646C5.84962 8.33363 5.7713 8.09077 5.58408 7.95088C5.08833 7.58065 4.11093 6.85074 3.4542 6.36026C3.3594 6.28946 3.32064 6.16592 3.35795 6.05358C3.39526 5.94125 3.50021 5.86557 3.61861 5.86557H6.16408C6.40101 5.86557 6.61117 5.71368 6.68567 5.48888C6.88634 4.88277 7.28518 3.6782 7.54967 2.87973C7.58685 2.76753 7.69167 2.69158 7.80994 2.69145C7.92821 2.69132 8.03342 2.76687 8.07087 2.87894C8.33812 3.67807 8.74171 4.88462 8.94436 5.49046C9.01938 5.71447 9.22915 5.86557 9.46542 5.86557C10.0676 5.86557 11.2276 5.86557 12.0173 5.86557C12.1354 5.86557 12.2403 5.94098 12.2777 6.05306C12.3152 6.16513 12.277 6.28854 12.1826 6.3596C11.5278 6.85285 10.5499 7.58935 10.0552 7.96196C9.86901 8.10211 9.79162 8.34458 9.86189 8.56661C10.0532 9.17074 10.4369 10.3823 10.6961 11.2007C10.7322 11.315 10.69 11.4397 10.5918 11.5085C10.4936 11.5774 10.3621 11.5746 10.2669 11.5016C9.60914 10.9966 8.6481 10.2589 8.14483 9.8727C7.94693 9.72081 7.67163 9.72121 7.47425 9.87389C6.97587 10.2591 6.02788 10.9922 5.37562 11.4965C5.28069 11.57 5.14898 11.5733 5.05049 11.5045C4.95199 11.4358 4.90954 11.311 4.94567 11.1966C5.20488 10.3758 5.58803 9.16217 5.77921 8.55646Z" fill="#4959E7"/>
</g>
<defs>
<clipPath id="clip0_2227_4312">
<rect width="99.5454" height="15" fill="white"/>
</clipPath>
</defs>
</svg>
