<svg width="60" height="60" viewBox="0 0 60 60" fill="none" xmlns="http://www.w3.org/2000/svg">
<rect width="60" height="60" rx="10" fill="#F1F5FE"/>
<path d="M19.356 30.0063C19.2544 28.8377 20.1755 27.833 21.3485 27.833H21.5003C22.6049 27.833 23.5003 28.7284 23.5003 29.833V38.5958C23.5003 39.5322 22.7412 40.2913 21.8048 40.2913V40.2913C20.9253 40.2913 20.1919 39.6189 20.1157 38.7427L19.356 30.0063Z" stroke="#7A80F6" stroke-width="1.8" stroke-linecap="round" stroke-linejoin="round"/>
<path d="M26.75 29.2146C26.75 28.379 27.2732 27.6353 28.0097 27.2405C28.8834 26.7721 29.9861 26.0407 30.5417 25.1141C31.3813 23.7138 31.5743 21.2411 31.6149 20.4713C31.6233 20.3136 31.6094 20.1515 31.6566 20.0008C31.9265 19.1394 33.8495 20.3322 34.6042 21.5909C34.8514 22.0032 34.9732 22.4907 35.0231 22.9696C35.1722 24.4008 34.6683 25.8035 34.2552 27.1819L34.0625 27.8246H38.7319C40.0582 27.8246 41.0171 29.0919 40.6566 30.3682L38.2655 38.8349C38.0222 39.6964 37.236 40.2913 36.3408 40.2913H28.75C27.6454 40.2913 26.75 39.3959 26.75 38.2913V29.2146Z" stroke="#7A80F6" stroke-width="1.8" stroke-linecap="round" stroke-linejoin="round"/>
</svg>
