<svg width="60" height="60" viewBox="0 0 60 60" fill="none" xmlns="http://www.w3.org/2000/svg">
<rect width="60" height="60" rx="10" fill="#F1F5FE"/>
<path d="M31.0434 19.1738C25.0406 19.1738 20.1738 24.0406 20.1738 30.0434C20.1738 36.0462 25.0406 40.913 31.0434 40.913C37.0462 40.913 41.913 36.0462 41.913 30.0434C41.913 24.0406 37.0462 19.1738 31.0434 19.1738Z" stroke="#7A80F6" stroke-width="1.4" stroke-miterlimit="10"/>
<path d="M31.4972 19.1738C28.4626 19.1738 25.6094 24.0406 25.6094 30.0434C25.6094 36.0462 28.4626 40.913 31.4972 40.913C34.5318 40.913 37.3851 36.0462 37.3851 30.0434C37.3851 24.0406 34.5318 19.1738 31.4972 19.1738Z" stroke="#7A80F6" stroke-width="1.4" stroke-miterlimit="10"/>
<path d="M41.913 30.0434H20.1738M31.0434 19.1738V40.913V19.1738Z" stroke="#7A80F6" stroke-width="1.4" stroke-miterlimit="10"/>
</svg>
