<svg width="60" height="60" viewBox="0 0 60 60" fill="none" xmlns="http://www.w3.org/2000/svg">
<rect width="60" height="60" rx="10" fill="#F1F5FE"/>
<path d="M43.2688 28.7962L40.4688 30.1962L36.8438 23.2541L39.6723 21.8398C39.8848 21.7336 40.1306 21.715 40.3566 21.7882C40.5827 21.8613 40.7709 22.0203 40.8809 22.2309L43.6668 27.5661C43.7225 27.6728 43.7564 27.7895 43.7666 27.9094C43.7767 28.0294 43.7628 28.1501 43.7257 28.2646C43.6887 28.3791 43.6292 28.4851 43.5507 28.5764C43.4723 28.6676 43.3764 28.7424 43.2688 28.7962V28.7962Z" stroke="#7A80F6" stroke-width="1.6" stroke-linecap="round" stroke-linejoin="round"/>
<path d="M20.5315 30.0751L17.7314 28.6751C17.6238 28.6213 17.5279 28.5465 17.4495 28.4553C17.371 28.364 17.3115 28.258 17.2745 28.1435C17.2374 28.029 17.2236 27.9083 17.2337 27.7884C17.2438 27.6684 17.2777 27.5517 17.3334 27.445L20.1193 22.1098C20.2293 21.8992 20.4176 21.7402 20.6436 21.6671C20.8697 21.5939 21.1154 21.6125 21.3279 21.7187L24.1565 23.133L20.5315 30.0751Z" stroke="#7A80F6" stroke-width="1.6" stroke-linecap="round" stroke-linejoin="round"/>
<path d="M40.4688 30.1956L38.6562 32.316L34.4878 36.4845C34.3772 36.5951 34.2397 36.6752 34.0889 36.717C33.9381 36.7588 33.779 36.7608 33.6272 36.7228L27.0618 35.0815C26.9386 35.0507 26.8233 34.9944 26.7233 34.9162L20.5312 30.0742" stroke="#7A80F6" stroke-width="1.6" stroke-linecap="round" stroke-linejoin="round"/>
<path d="M38.6565 32.3164L33.6721 28.6914L32.2221 29.7789C31.5946 30.2495 30.8314 30.5039 30.0471 30.5039C29.2627 30.5039 28.4995 30.2495 27.8721 29.7789L27.258 29.3184C27.1541 29.2405 27.0682 29.1411 27.0061 29.0271C26.9439 28.9131 26.907 28.7871 26.8978 28.6576C26.8886 28.5281 26.9073 28.3981 26.9527 28.2765C26.9981 28.1548 27.0691 28.0444 27.1609 27.9525L31.5941 23.5193C31.6783 23.4352 31.7782 23.3684 31.8882 23.3229C31.9981 23.2773 32.1159 23.2539 32.235 23.2539H36.844" stroke="#7A80F6" stroke-width="1.6" stroke-linecap="round" stroke-linejoin="round"/>
<path d="M24.2217 23.1324L30.0353 21.4376C30.2429 21.377 30.4654 21.3928 30.6625 21.482L34.5785 23.2539" stroke="#7A80F6" stroke-width="1.6" stroke-linecap="round" stroke-linejoin="round"/>
<path d="M28.6875 39.1132L25.2733 38.2597C25.1347 38.225 25.0063 38.1581 24.8985 38.0644L22.3438 35.8438" stroke="#7A80F6" stroke-width="1.6" stroke-linecap="round" stroke-linejoin="round"/>
</svg>
