<svg width="60" height="60" viewBox="0 0 60 60" fill="none" xmlns="http://www.w3.org/2000/svg">
<rect width="60" height="60" rx="10" fill="#F1F5FE"/>
<path fill-rule="evenodd" clip-rule="evenodd" d="M21.3327 23.4993C22.5293 23.4993 23.4993 22.5293 23.4993 21.3327C23.4993 20.1361 22.5293 19.166 21.3327 19.166C20.1361 19.166 19.166 20.1361 19.166 21.3327C19.166 22.5293 20.1361 23.4993 21.3327 23.4993Z" stroke="#7A80F6" stroke-width="1.6" stroke-linecap="round" stroke-linejoin="round"/>
<path fill-rule="evenodd" clip-rule="evenodd" d="M22.416 39.75C24.2109 39.75 25.666 38.2949 25.666 36.5C25.666 34.7051 24.2109 33.25 22.416 33.25C20.6211 33.25 19.166 34.7051 19.166 36.5C19.166 38.2949 20.6211 39.75 22.416 39.75Z" stroke="#7A80F6" stroke-width="1.6" stroke-linecap="round" stroke-linejoin="round"/>
<path fill-rule="evenodd" clip-rule="evenodd" d="M37.584 40.834C39.3789 40.834 40.834 39.3789 40.834 37.584C40.834 35.7891 39.3789 34.334 37.584 34.334C35.7891 34.334 34.334 35.7891 34.334 37.584C34.334 39.3789 35.7891 40.834 37.584 40.834Z" stroke="#7A80F6" stroke-width="1.6" stroke-linecap="round" stroke-linejoin="round"/>
<path fill-rule="evenodd" clip-rule="evenodd" d="M28.9173 32.1667C31.3106 32.1667 33.2507 30.2266 33.2507 27.8333C33.2507 25.4401 31.3106 23.5 28.9173 23.5C26.5241 23.5 24.584 25.4401 24.584 27.8333C24.584 30.2266 26.5241 32.1667 28.9173 32.1667Z" stroke="#7A80F6" stroke-width="1.6" stroke-linecap="round" stroke-linejoin="round"/>
<path fill-rule="evenodd" clip-rule="evenodd" d="M35.4167 23.4993C36.6133 23.4993 37.5833 22.5293 37.5833 21.3327C37.5833 20.1361 36.6133 19.166 35.4167 19.166C34.22 19.166 33.25 20.1361 33.25 21.3327C33.25 22.5293 34.22 23.4993 35.4167 23.4993Z" stroke="#7A80F6" stroke-width="1.6" stroke-linecap="round" stroke-linejoin="round"/>
<path d="M22.959 22.959L25.1257 25.1257" stroke="#7A80F6" stroke-width="1.6" stroke-linecap="round" stroke-linejoin="round"/>
<path d="M33.2493 23.5L32.166 24.5833" stroke="#7A80F6" stroke-width="1.6" stroke-linecap="round" stroke-linejoin="round"/>
<path d="M35.416 35.1465L32.166 31.084" stroke="#7A80F6" stroke-width="1.6" stroke-linecap="round" stroke-linejoin="round"/>
<path d="M24.584 33.7917L26.7507 31.625" stroke="#7A80F6" stroke-width="1.6" stroke-linecap="round" stroke-linejoin="round"/>
</svg>
