<svg width="60" height="60" viewBox="0 0 60 60" fill="none" xmlns="http://www.w3.org/2000/svg">
<rect width="60" height="60" rx="10" fill="#F1F5FE"/>
<circle cx="30.0013" cy="26.3333" r="8.53333" stroke="#7A80F6" stroke-width="1.6"/>
<path d="M36.9993 31.333L41.3429 38.1586C41.4777 38.3704 41.3159 38.6457 41.0653 38.631L36.2019 38.3449C36.079 38.3377 35.9637 38.4044 35.9086 38.5145L33.9303 42.4711C33.819 42.6937 33.5031 42.6989 33.3845 42.48L29.3327 34.9997" stroke="#7A80F6" stroke-width="1.6"/>
<path d="M22.6667 31.333L18.3231 38.1586C18.1883 38.3704 18.3502 38.6457 18.6007 38.631L23.4641 38.3449C23.587 38.3377 23.7024 38.4044 23.7574 38.5145L25.7357 42.4711C25.847 42.6937 26.1629 42.6989 26.2815 42.48L30.3333 34.9997" stroke="#7A80F6" stroke-width="1.6"/>
<path d="M30.2068 29.2736L32.5709 30.7714C32.8731 30.9629 33.2483 30.6781 33.1587 30.3254L32.4756 27.6384C32.4564 27.5636 32.4586 27.4848 32.4822 27.4112C32.5057 27.3376 32.5495 27.2721 32.6086 27.2223L34.7286 25.4578C35.0072 25.2259 34.8634 24.7636 34.5055 24.7404L31.7369 24.5607C31.6623 24.5554 31.5908 24.529 31.5307 24.4846C31.4705 24.4402 31.4242 24.3796 31.3972 24.3099L30.3646 21.7096C30.3365 21.6356 30.2866 21.572 30.2215 21.527C30.1564 21.4821 30.0791 21.458 30 21.458C29.9209 21.458 29.8436 21.4821 29.7785 21.527C29.7134 21.572 29.6635 21.6356 29.6354 21.7096L28.6028 24.3099C28.5758 24.3796 28.5295 24.4402 28.4693 24.4846C28.4092 24.529 28.3377 24.5554 28.2631 24.5607L25.4945 24.7404C25.1366 24.7636 24.9928 25.2259 25.2714 25.4578L27.3914 27.2223C27.4505 27.2721 27.4943 27.3376 27.5178 27.4112C27.5414 27.4848 27.5436 27.5636 27.5244 27.6384L26.8909 30.1303C26.7833 30.5536 27.2336 30.8953 27.5962 30.6655L29.7932 29.2736C29.855 29.2343 29.9268 29.2134 30 29.2134C30.0732 29.2134 30.145 29.2343 30.2068 29.2736V29.2736Z" stroke="#7A80F6" stroke-width="1.4" stroke-linecap="round" stroke-linejoin="round"/>
</svg>
