<svg width="60" height="60" viewBox="0 0 60 60" fill="none" xmlns="http://www.w3.org/2000/svg">
<rect width="60" height="60" rx="10" fill="#F1F5FE"/>
<path d="M20.4375 19.5312L38.5625 39.4688" stroke="#7A80F6" stroke-width="1.8125" stroke-linecap="round" stroke-linejoin="round"/>
<path d="M32.5478 32.8542C31.6585 33.6625 30.4846 34.0844 29.2843 34.0272C28.084 33.97 26.9555 33.4383 26.1472 32.5491C25.3388 31.6599 24.9168 30.4861 24.9739 29.2857C25.031 28.0854 25.5626 26.9569 26.4517 26.1484" stroke="#7A80F6" stroke-width="1.8125" stroke-linecap="round" stroke-linejoin="round"/>
<path d="M23.3822 22.7695C18.7638 25.1083 16.8125 29.4992 16.8125 29.4992C16.8125 29.4992 20.4375 37.6545 29.5 37.6545C31.6233 37.6714 33.7202 37.1824 35.6169 36.2278" stroke="#7A80F6" stroke-width="1.8125" stroke-linecap="round" stroke-linejoin="round"/>
<path d="M38.6319 34.1567C41.1017 31.9446 42.1879 29.5009 42.1879 29.5009C42.1879 29.5009 38.5629 21.3438 29.5004 21.3438C28.7155 21.3425 27.9318 21.4063 27.1575 21.5346" stroke="#7A80F6" stroke-width="1.8125" stroke-linecap="round" stroke-linejoin="round"/>
<path d="M30.353 25.0488C31.3161 25.2338 32.1933 25.726 32.8529 26.4516C33.5126 27.1773 33.9192 28.0973 34.0118 29.0736" stroke="#7A80F6" stroke-width="1.8125" stroke-linecap="round" stroke-linejoin="round"/>
</svg>
