<svg width="60" height="60" viewBox="0 0 60 60" fill="none" xmlns="http://www.w3.org/2000/svg">
<rect width="60" height="60" rx="10" fill="#F1F5FE"/>
<path d="M29.499 33.125C30.7503 33.125 31.7646 32.1106 31.7646 30.8594C31.7646 29.6081 30.7503 28.5938 29.499 28.5938C28.2478 28.5938 27.2334 29.6081 27.2334 30.8594C27.2334 32.1106 28.2478 33.125 29.499 33.125Z" stroke="#7A80F6" stroke-width="1.8125" stroke-linecap="round" stroke-linejoin="round"/>
<path d="M29.499 33.125V35.8438" stroke="#7A80F6" stroke-width="1.8125" stroke-linecap="round" stroke-linejoin="round"/>
<path d="M38.5615 24.9688H20.4365C19.936 24.9688 19.5303 25.3745 19.5303 25.875V38.5625C19.5303 39.063 19.936 39.4688 20.4365 39.4688H38.5615C39.062 39.4688 39.4678 39.063 39.4678 38.5625V25.875C39.4678 25.3745 39.062 24.9688 38.5615 24.9688Z" stroke="#7A80F6" stroke-width="1.8125" stroke-linecap="round" stroke-linejoin="round"/>
<path d="M25.4209 24.9688V20.8906C25.4209 19.809 25.8506 18.7718 26.6154 18.007C27.3802 17.2422 28.4174 16.8125 29.499 16.8125C30.5806 16.8125 31.6179 17.2422 32.3827 18.007C33.1475 18.7718 33.5771 19.809 33.5771 20.8906V24.9688" stroke="#7A80F6" stroke-width="1.8125" stroke-linecap="round" stroke-linejoin="round"/>
</svg>
