<svg width="60" height="60" viewBox="0 0 60 60" fill="none" xmlns="http://www.w3.org/2000/svg">
<rect width="60" height="60" rx="10" fill="#F1F5FE"/>
<path d="M24.554 28.9159C23.8554 27.1734 23.7799 25.2431 24.3402 23.4513C24.9005 21.6595 26.0623 20.1161 27.6291 19.082C29.196 18.048 31.0719 17.5866 32.9397 17.7759C34.8075 17.9653 36.5526 18.7937 37.8801 20.1212C39.2075 21.4487 40.036 23.1938 40.2253 25.0616C40.4146 26.9294 39.9533 28.8052 38.9192 30.3721C37.8851 31.939 36.3417 33.1008 34.5499 33.6611C32.7582 34.2214 30.8279 34.1459 29.0853 33.4473L29.0854 33.4471L27.5938 34.9387H24.875V37.6575H22.1562V40.3762H17.625V35.845L24.5542 28.9158L24.554 28.9159Z" stroke="#7A80F6" stroke-width="1.8125" stroke-linecap="round" stroke-linejoin="round"/>
<path d="M34.3906 24.9688C35.1414 24.9688 35.75 24.3601 35.75 23.6094C35.75 22.8586 35.1414 22.25 34.3906 22.25C33.6399 22.25 33.0312 22.8586 33.0312 23.6094C33.0312 24.3601 33.6399 24.9688 34.3906 24.9688Z" fill="#7A80F6"/>
</svg>
