<svg width="34" height="34" viewBox="0 0 34 34" fill="none" xmlns="http://www.w3.org/2000/svg">
    <g clip-path="url(#clip0_5689_20727)">
        <path
            d="M16.0055 3.10935C16.5645 2.90018 17.1754 2.87291 17.7508 3.03143L17.9945 3.10935L27.9112 6.8281C28.414 7.01664 28.8529 7.3442 29.1767 7.77259C29.5005 8.20099 29.6959 8.71258 29.7401 9.24776L29.75 9.48151V17.0791C29.7499 19.3747 29.1301 21.6277 27.9559 23.6003C26.7818 25.5729 25.0968 27.1919 23.0789 28.2863L22.7021 28.4833L17.9506 30.859C17.689 30.9896 17.4032 31.0649 17.1112 31.08C16.8191 31.0951 16.5271 31.0498 16.2534 30.9468L16.0494 30.859L11.2979 28.4833C9.24461 27.4566 7.5066 25.8946 6.26734 23.9621C5.02808 22.0297 4.33356 19.7985 4.25708 17.5041L4.25 17.0791V9.48151C4.25001 8.94478 4.40247 8.41909 4.68964 7.96564C4.97681 7.51219 5.38687 7.14964 5.87208 6.92018L6.08883 6.8281L16.0055 3.10935ZM17 5.76276L7.08333 9.48151V17.0791C7.08337 18.857 7.56139 20.6022 8.46735 22.132C9.37331 23.6618 10.6739 24.9199 12.2329 25.7746L12.5658 25.9488L17 28.1659L21.4342 25.9488C23.0247 25.1537 24.3722 23.9456 25.3355 22.4509C26.2988 20.9562 26.8425 19.23 26.9096 17.4531L26.9167 17.0791V9.48151L17 5.76276ZM21.8634 12.2242C22.1184 11.9701 22.4604 11.8226 22.8202 11.8116C23.18 11.8006 23.5304 11.927 23.8004 12.165C24.0704 12.4031 24.2396 12.735 24.2737 13.0933C24.3079 13.4516 24.2043 13.8094 23.9842 14.0942L23.8666 14.2273L16.4517 21.6436C16.1817 21.9137 15.8218 22.0751 15.4405 22.0973C15.0592 22.1195 14.683 22.0009 14.3834 21.764L14.2474 21.6436L10.8417 18.2379C10.585 17.9836 10.4351 17.6407 10.4229 17.2795C10.4106 16.9183 10.5369 16.566 10.7758 16.2949C11.0148 16.0237 11.3483 15.8541 11.7082 15.8208C12.0681 15.7875 12.4271 15.893 12.7117 16.1158L12.8449 16.2333L15.3496 18.738L21.8634 12.2242Z"
            fill="#4959E7" />
    </g>
    <defs>
        <clipPath id="clip0_5689_20727">
            <rect width="34" height="34" fill="white" />
        </clipPath>
    </defs>
</svg>