<svg width="90" height="90" viewBox="0 0 90 90" fill="none" xmlns="http://www.w3.org/2000/svg">
<rect width="90" height="90" rx="15" fill="#EAEAFF"/>
<circle cx="45" cy="40" r="12.655" stroke="#7A80F6" stroke-width="2.69"/>
<path d="M55.5 47.5L61.975 57.675C62.194 58.0191 61.931 58.4665 61.5238 58.4426L54.3291 58.0194C54.1295 58.0076 53.942 58.116 53.8526 58.2949L50.9295 64.1411C50.7486 64.5029 50.2353 64.5113 50.0426 64.1556L44 53" stroke="#7A80F6" stroke-width="2.69"/>
<path d="M34 47.5L27.525 57.675C27.306 58.0191 27.569 58.4665 27.9762 58.4426L35.1709 58.0194C35.3705 58.0076 35.558 58.116 35.6474 58.2949L38.5705 64.1411C38.7514 64.5029 39.2647 64.5113 39.4574 64.1556L45.5 53" stroke="#7A80F6" stroke-width="2.69"/>
</svg>
