<svg width="90" height="90" viewBox="0 0 90 90" fill="none" xmlns="http://www.w3.org/2000/svg">
<rect width="90" height="90" rx="15" fill="#EAEAFF"/>
<path d="M35.4219 60.2812C38.0193 60.2812 40.125 58.1756 40.125 55.5781C40.125 52.9807 38.0193 50.875 35.4219 50.875C32.8244 50.875 30.7188 52.9807 30.7188 55.5781C30.7188 58.1756 32.8244 60.2812 35.4219 60.2812Z" stroke="#7A80F6" stroke-width="2.6875" stroke-linecap="round" stroke-linejoin="round"/>
<path d="M55.5781 40.125C58.1756 40.125 60.2812 38.0193 60.2812 35.4219C60.2812 32.8244 58.1756 30.7188 55.5781 30.7188C52.9807 30.7188 50.875 32.8244 50.875 35.4219C50.875 38.0193 52.9807 40.125 55.5781 40.125Z" stroke="#7A80F6" stroke-width="2.6875" stroke-linecap="round" stroke-linejoin="round"/>
<path d="M35.4219 40.125C38.0193 40.125 40.125 38.0193 40.125 35.4219C40.125 32.8244 38.0193 30.7188 35.4219 30.7188C32.8244 30.7188 30.7188 32.8244 30.7188 35.4219C30.7188 38.0193 32.8244 40.125 35.4219 40.125Z" stroke="#7A80F6" stroke-width="2.6875" stroke-linecap="round" stroke-linejoin="round"/>
<path d="M35.4219 50.875V49.5312C35.4219 48.4621 35.8466 47.4368 36.6026 46.6808C37.3586 45.9248 38.3839 45.5001 39.453 45.5001L51.547 45.4999C52.6161 45.4999 53.6414 45.0752 54.3974 44.3192C55.1534 43.5632 55.5781 42.5379 55.5781 41.4688V40.125" stroke="#7A80F6" stroke-width="2.6875" stroke-linecap="round" stroke-linejoin="round"/>
<path d="M35.4219 40.125V50.875" stroke="#7A80F6" stroke-width="2.6875" stroke-linecap="round" stroke-linejoin="round"/>
</svg>
