<svg width="90" height="90" viewBox="0 0 90 90" fill="none" xmlns="http://www.w3.org/2000/svg">
<rect width="90" height="90" rx="15" fill="#EAEAFF"/>
<path d="M58.9375 48.1875H32.0625C31.3204 48.1875 30.7188 48.7891 30.7188 49.5312V57.5938C30.7188 58.3359 31.3204 58.9375 32.0625 58.9375H58.9375C59.6796 58.9375 60.2812 58.3359 60.2812 57.5938V49.5312C60.2812 48.7891 59.6796 48.1875 58.9375 48.1875Z" stroke="#7A80F6" stroke-width="2.6875" stroke-linecap="round" stroke-linejoin="round"/>
<path d="M58.9375 32.0625H32.0625C31.3204 32.0625 30.7188 32.6641 30.7188 33.4062V41.4688C30.7188 42.2109 31.3204 42.8125 32.0625 42.8125H58.9375C59.6796 42.8125 60.2812 42.2109 60.2812 41.4688V33.4062C60.2812 32.6641 59.6796 32.0625 58.9375 32.0625Z" stroke="#7A80F6" stroke-width="2.6875" stroke-linecap="round" stroke-linejoin="round"/>
<path d="M54.2344 39.4531C55.3476 39.4531 56.25 38.5507 56.25 37.4375C56.25 36.3243 55.3476 35.4219 54.2344 35.4219C53.1212 35.4219 52.2188 36.3243 52.2188 37.4375C52.2188 38.5507 53.1212 39.4531 54.2344 39.4531Z" fill="#7A80F6"/>
<path d="M54.2344 55.5781C55.3476 55.5781 56.25 54.6757 56.25 53.5625C56.25 52.4493 55.3476 51.5469 54.2344 51.5469C53.1212 51.5469 52.2188 52.4493 52.2188 53.5625C52.2188 54.6757 53.1212 55.5781 54.2344 55.5781Z" fill="#7A80F6"/>
</svg>
