<?xml version="1.0" encoding="utf-8"?>
<!-- Generator: Adobe Illustrator 27.0.0, SVG Export Plug-In . SVG Version: 6.00 Build 0)  -->
<svg version="1.1" id="Layer_1" xmlns="http://www.w3.org/2000/svg" xmlns:xlink="http://www.w3.org/1999/xlink" x="0px" y="0px"
	 viewBox="0 0 1265 317.2" style="enable-background:new 0 0 1265 317.2;" xml:space="preserve">
<style type="text/css">
	.st0{fill:#C1B7EE;}
</style>
<g transform="translate(0.000000,637.000000) scale(0.100000,-0.100000)">
	<path class="st0" d="M3535,6339c-513-45-933-443-1010-956c-12-82-15-271-15-1130V3220h360h360v1003c0,679,4,1022,11,1063
		c23,124,119,247,236,302c52,24,70,27,163,27c98,0,110-2,171-32c89-44,154-111,198-203l36-75l3-1042l3-1043h359h360l2,1048l3,1047
		l32,67c41,88,113,160,201,201c62,30,74,32,172,32c95-1,111-3,165-30c77-37,163-123,201-200l29-60l3-1052l2-1053h366h365l-4,1068
		c-3,951-5,1075-20,1142c-54,240-159,432-325,592c-104,100-183,156-306,214c-281,133-599,142-901,25c-95-36-179-85-276-159l-71-54
		l-27,21C4119,6279,3845,6366,3535,6339z"/>
	<path class="st0" d="M8170,6339c-322-27-634-192-834-440c-122-151-188-283-245-489l-26-95l-3-1047l-3-1048h361h360v974
		c0,605,4,994,10,1027c33,176,185,337,364,385c114,31,261,11,365-48c70-40,157-128,193-194c60-110,58-77,58-1156v-988h366h365
		l-4,1023c-3,881-6,1033-20,1099c-49,243-166,467-330,636c-189,194-472,333-727,357C8291,6347,8264,6347,8170,6339z"/>
	<path class="st0" d="M10,5925v-365h300h300V4390V3220h360h360v1170v1170h305h305v365v365H975H10V5925z"/>
	<path class="st0" d="M10072,6158c4-110,9-145,30-199c92-245,341-390,595-345c118,21,204,65,289,150c115,116,163,243,164,434v92
		h-541h-541L10072,6158z"/>
	<path class="st0" d="M11761,6273c-5-10-388-700-850-1533l-840-1515l432-3c337-2,434,1,443,10c9,11,1682,3025,1692,3050
		c2,4-192,8-432,8C11802,6290,11770,6289,11761,6273z"/>
	<path class="st0" d="M11995,3900c-203-41-367-193-421-391c-8-30-17-107-21-171l-6-118h546h547v108c0,123-16,197-62,291
		c-37,77-139,183-215,224C12260,3898,12106,3922,11995,3900z"/>
</g>
</svg>
