<?xml version="1.0" encoding="utf-8"?>
<!-- Generator: Adobe Illustrator 27.0.0, SVG Export Plug-In . SVG Version: 6.00 Build 0)  -->
<svg version="1.1" id="Layer_1" xmlns="http://www.w3.org/2000/svg" xmlns:xlink="http://www.w3.org/1999/xlink" x="0px" y="0px"
	 viewBox="0 0 2051 304.9" style="enable-background:new 0 0 2051 304.9;" xml:space="preserve">
<style type="text/css">
	.st0{opacity:0.941;fill-rule:evenodd;clip-rule:evenodd;fill:#C1B7EE;enable-background:new    ;}
	.st1{opacity:0.925;fill-rule:evenodd;clip-rule:evenodd;fill:#C1B7EE;enable-background:new    ;}
	.st2{opacity:0.92;fill-rule:evenodd;clip-rule:evenodd;fill:#C1B7EE;enable-background:new    ;}
	.st3{opacity:0.921;fill-rule:evenodd;clip-rule:evenodd;fill:#C1B7EE;enable-background:new    ;}
	.st4{opacity:0.912;fill-rule:evenodd;clip-rule:evenodd;fill:#C1B7EE;enable-background:new    ;}
	.st5{opacity:0.93;fill-rule:evenodd;clip-rule:evenodd;fill:#C1B7EE;enable-background:new    ;}
	.st6{opacity:0.913;fill-rule:evenodd;clip-rule:evenodd;fill:#C1B7EE;enable-background:new    ;}
	.st7{opacity:0.915;fill-rule:evenodd;clip-rule:evenodd;fill:#C1B7EE;enable-background:new    ;}
	.st8{opacity:0.918;fill-rule:evenodd;clip-rule:evenodd;fill:#C1B7EE;enable-background:new    ;}
</style>
<g>
	<path class="st0" d="M1322.4,25.7c5.7,0,11.3,0,17,0c0,85.3,0,170.7,0,256c-5.7,0-11.3,0-17,0
		C1322.4,196.4,1322.4,111.1,1322.4,25.7z"/>
</g>
<g>
	<path class="st1" d="M21.4,69.7c6.1,2.3,12.4,3.5,19,3.5c32,0.7,64,0.7,96,0c4.7-0.7,9.3-1.2,14-1.5c-0.3,9.7-0.6,19.3-1,29
		c-1.3,0-2.7,0-4,0c0.4-10.8-4.9-16.3-16-16.5c-12-0.3-24-0.8-36-1.5c-0.5,46.4,0,92.7,1.5,139c0.5,3.5,2.3,6,5.5,7.5
		c4.3,0.7,8.6,1.2,13,1.5c0.2,1.3-0.2,2.5-1,3.5c-3,0.2-6,0.3-9,0.5c-14.3-1-28.7-1.2-43-0.5c-0.8-1-1.2-2.2-1-3.5
		c4,0.1,7.7-0.9,11-3c2.3-5.1,3.5-10.4,3.5-16c0.5-43,0.7-86,0.5-129c-15,0.4-30,1.2-45,2.5c-5.6,2.4-9.2,6.6-11,12.5
		c-1.2,0.9-2.5,1.3-4,1C15.3,88.6,17.7,79,21.4,69.7z"/>
</g>
<g>
	<path class="st2" d="M242.4,69.7c26.1-1.6,49.1,5.9,69,22.5c18.2,20.3,25.4,44.2,21.5,71.5c-8.7,46.8-36.9,71.5-84.5,74
		c-52.2-3.3-79.8-31.2-83-83.5C168.7,105.4,194.4,77.2,242.4,69.7z M236.4,78.7c37.3-2.5,61.5,14.2,72.5,50c5.1,20.9,4.5,41.5-2,62
		c-12.2,28.4-33.7,40.5-64.5,36.5c-27.9-7.5-45.4-25.4-52.5-53.5c-6-24.4-3.4-47.7,8-70C207.6,90.5,220.5,82.1,236.4,78.7z"/>
</g>
<g>
	<path class="st3" d="M391.4,69.7c1.5,0,2.7,0.7,3.5,2c21.8,44.4,43.7,88.7,65.5,133c20.9-45.1,42.3-89.9,64-134.5c1-0.7,2-0.7,3,0
		c6,48.8,11.9,97.6,17.5,146.5c1.4,6.4,5.3,10.6,11.5,12.5c4.6,1,9.3,1.5,14,1.5c0.2,1.3-0.2,2.5-1,3.5c-13.3,0.1-26.7-0.2-40-1
		c-1.9-0.3-3.8-0.8-5.5-1.5c1.4-5.8,1.7-11.8,1-18c-2.8-33.1-6.1-66.1-10-99c-18.7,39.3-37.3,78.7-56,118c-3.4,1.7-5.7,0.7-7-3
		c-19.4-37.5-37.8-75.5-55-114c-3.9,36.3-6.9,72.6-9,109c0.8,1.8,2,3.3,3.5,4.5c3.9,1,7.9,1.5,12,1.5c0.2,1.3-0.2,2.5-1,3.5
		c-2.3,0.2-4.7,0.3-7,0.5c-12.3-1-24.7-1.1-37-0.5c-0.8-1-1.2-2.2-1-3.5c8.3,1.3,13.5-2.1,15.5-10c5.4-47.7,10.7-95.3,16-143
		C389,74.8,389.8,72.1,391.4,69.7z"/>
</g>
<g>
	<path class="st3" d="M991.4,69.7c1.1-0.1,2.1,0,3,0.5c41.5,44.2,82.7,88.7,123.5,133.5c-0.2-39.4-1.2-78.7-3-118
		c-0.4-2-1.3-3.9-2.5-5.5c-5.1-2.3-10.4-3.7-16-4c-1.3-1-1.3-2,0-3c2.8-0.2,5.7-0.3,8.5-0.5c10.5,1.3,21,1.3,31.5,0
		c2.3,0.2,4.7,0.3,7,0.5c0.8,1,1.2,2.2,1,3.5c-8.6-1-13.4,2.7-14.5,11c-0.2,49.4-0.7,98.7-1.5,148c-2.7,0.2-5.1-0.6-7-2.5
		c-41.3-41.3-81.1-83.8-119.5-127.5c-0.2,38,0.8,76,3,114c0.6,3.4,2.1,6.2,4.5,8.5c4.8,1.7,9.8,2.5,15,2.5c0.1,1.6-0.5,2.8-2,3.5
		c-2.7,0.2-5.3,0.3-8,0.5c-13.3-0.9-26.7-1.1-40-0.5c-0.8-1-1.2-2.2-1-3.5c4.2-0.1,8.2-1,12-2.5c1.8-1.8,3-4,3.5-6.5
		C989.7,171,990.5,120.4,991.4,69.7z"/>
</g>
<g>
	<path class="st4" d="M1221.4,69.7c11.8,0,23.5,1.4,35,4c0.3,0.7,0.7,1.3,1,2c-0.8,8.6-1.3,17.3-1.5,26c-1,0.8-2.2,1.2-3.5,1
		c-1.5-16.9-10.9-24.9-28-24c-16.2-0.1-25.2,7.9-27,24c0.4,3.8,1.2,7.4,2.5,11c2.3,3.9,4.9,7.6,8,11c11.5,9.5,23,19,34.5,28.5
		c18.4,17.6,22.6,38.1,12.5,61.5c-10.7,16.1-25.9,23.8-45.5,23c-11.2,0.3-21.5-2.4-31-8c-0.9-10.3-0.7-20.6,0.5-31
		c1.3-2.7,2.7-2.7,4,0c0.8,20,11.3,30,31.5,30c21.1-1.6,30.9-12.9,29.5-34c-3-10.7-8.8-19.5-17.5-26.5c-15.1-10.1-28-22.6-38.5-37.5
		c-7.6-14.9-7.3-29.5,1-44C1197.4,76.4,1208.2,70.7,1221.4,69.7z"/>
</g>
<g>
	<path class="st4" d="M1681.4,69.7c2.9,0.9,4.8,2.9,5.5,6c18,48.4,37,96.4,57,144c2.2,3.5,5,6.3,8.5,8.5c4.7,1.3,9.4,2.7,14,4
		c-0.7,0.7-1.3,1.3-2,2c-14.3,0.5-28.7,0.3-43-0.5c0.3-2.5,1.3-4.6,3-6.5c-6.6-18.5-13.6-36.8-21-55c-15.9-0.8-31.7-0.7-47.5,0.5
		c-6.2,16.8-11.7,33.8-16.5,51c0.3,2.2,1.3,4,3,5.5c3.5,0.8,6.8,1.8,10,3c-0.7,0.7-1.3,1.3-2,2c-15.3-0.4-30.7-0.4-46,0
		c-0.8-1-1.2-2.2-1-3.5c12.6,0.6,20.7-5,24.5-17C1645.3,165.5,1663.1,117.5,1681.4,69.7z M1678.4,103.7c0.6,0.1,1.1,0.4,1.5,1
		c6.4,19.3,13.3,38.5,20.5,57.5c-13.7,0.8-27.3,0.7-41-0.5C1665.7,142.4,1672.1,123.1,1678.4,103.7z"/>
</g>
<g>
	<path class="st2" d="M2026.4,71.7c1.7,0,3.3,0,5,0c-1.4,9.3-2.6,18.6-3.5,28c-1,1.3-2,1.3-3,0c0.8-10.5-4.1-16-14.5-16.5
		c-10.7-0.5-21.3-0.7-32-0.5c0,20.3,0,40.7,0,61c12.7,0.2,25.3,0,38-0.5c4.3-0.9,8-2.8,11-5.5c-0.9,10.3-1.8,20.7-2.5,31
		c-1,0.8-2.2,1.2-3.5,1c0.2-3.4-0.3-6.8-1.5-10c-0.8-2.2-2.3-3.7-4.5-4.5c-12.2-1.9-24.6-2.8-37-2.5c-0.2,20,0,40,0.5,60
		c0.3,8.6,4.8,12.8,13.5,12.5c9,0.8,18,0.4,27-1c3.2-0.8,6-2.3,8.5-4.5c2-5.2,4.2-10.2,6.5-15c1.5,1,2.2,2.5,2,4.5
		c-0.8,7.6-2,15.1-3.5,22.5c-0.8,0.8-1.7,1.7-2.5,2.5c-26.4,0.1-52.7,0.3-79,0.5c-2-0.2-4-0.3-6-0.5c-0.8-1-1.2-2.2-1-3.5
		c10.2,0.3,15-4.7,14.5-15c0.7-43,0.7-86,0-129c-0.1-4.4-2.3-7.3-6.5-8.5c-3.6-0.9-7.3-1.4-11-1.5c-0.2-1.3,0.2-2.5,1-3.5
		c25.7,0.5,51.3,0.5,77,0C2021.9,73,2024.3,72.5,2026.4,71.7z"/>
</g>
<g>
	<path class="st5" d="M590.4,72.7c16.7,1.2,33.3,1.2,50,0c14.3-0.7,27.7,2.5,40,9.5c13,13.1,16.9,28.6,11.5,46.5
		c-7.6,18.6-21.5,29.5-41.5,32.5c-5.3,0.5-10.7,0.7-16,0.5c0-1.3,0-2.7,0-4c29,0.1,42.9-14.2,41.5-43c-5.3-26-21.2-37.2-47.5-33.5
		c-1.2,0.5-2,1.3-2.5,2.5c-0.9,45.3-0.6,90.7,1,136c0.4,3,1.5,5.7,3.5,8c5.1,1.9,10.5,2.9,16,3c0.1,1.6-0.5,2.8-2,3.5
		c-2.8,0.2-5.7,0.3-8.5,0.5c-14.2-1-28.3-1.1-42.5-0.5c-0.8-1-1.2-2.2-1-3.5c8.3,0.9,12.8-2.8,13.5-11c1.6-43,1.9-86,1-129
		c0.6-5.7-1.6-9.8-6.5-12.5c-3.6-0.8-7.3-1.4-11-2c-0.5-0.4-0.8-0.9-1-1.5C589.1,74.1,589.8,73.4,590.4,72.7z"/>
</g>
<g>
	<path class="st6" d="M722.4,72.7c16.3,1.1,32.7,1.3,49,0.5c0.8,1,1.2,2.2,1,3.5c-8.3-1.4-13.1,1.9-14.5,10c-0.7,20-0.7,40,0,60
		c19.7-20,39-40.4,58-61c0.8-1.7,1.7-3.3,2.5-5c-1.2-2.3-2.9-4.1-5-5.5c0.1-0.8,0.5-1.4,1-2c11.7,0.7,23.3,0.6,35-0.5
		c2,0.2,4,0.3,6,0.5c0.8,1,1.2,2.2,1,3.5c-8.5,0.6-16.2,3.4-23,8.5c-20.3,19.3-40.3,39-60,59c24.3,25.7,49.3,50.7,75,75
		c8.6,7.3,18.6,11.3,30,12c0.9,0.7,1.1,1.6,0.5,2.5c-12.1,1.3-24.3,1.2-36.5-0.5c-4.7-1.2-9.1-3.2-13-6
		c-25.5-23.2-49.4-48-71.5-74.5c-0.9,23-0.6,46,1,69c0.5,3.5,2.3,6,5.5,7.5c4.3,0.7,8.6,1.2,13,1.5c0.2,1.3-0.2,2.5-1,3.5
		c-17.3-0.7-34.7-0.5-52,0.5c0-1.3,0-2.7,0-4c8.3,0.9,12.8-2.8,13.5-11c1.6-42.3,1.9-84.7,1-127c0.4-12.1-5.4-17.4-17.5-16
		C721.3,75.3,721.7,73.9,722.4,72.7z"/>
</g>
<g>
	<path class="st5" d="M888.4,72.7c16,1.1,32,1.3,48,0.5c0.8,1,1.2,2.2,1,3.5c-8-0.9-12.8,2.4-14.5,10c-0.7,42-0.7,84,0,126
		c-0.3,5.8,1.2,10.9,4.5,15.5c4.9,1.5,9.9,2.4,15,2.5c0.2,1.3-0.2,2.5-1,3.5c-3,0.2-6,0.3-9,0.5c-14.3-1-28.7-1.2-43-0.5
		c-0.8-1-1.2-2.2-1-3.5c7.9,1.1,12.4-2.2,13.5-10c1.1-23.6,1.6-47.3,1.5-71c0.1-22-0.4-44-1.5-66c-0.7-2.6-2.2-4.4-4.5-5.5
		c-3.3-1-6.6-1.5-10-1.5C887.3,75.3,887.7,73.9,888.4,72.7z"/>
</g>
<g>
	<path class="st7" d="M1385.4,72.7c17.3,1.1,34.7,1.3,52,0.5c1.5,0.7,2.1,1.9,2,3.5c-4.6-0.4-8.8,0.6-12.5,3c-0.7,2.7-0.7,5.3,0,8
		c9.6,38.7,20.3,77,32,115c15.6-42.8,31.6-85.5,48-128c0.6-0.5,1.2-0.9,2-1c2,1,3.4,2.7,4,5c14.5,41.7,29.1,83.4,44,125
		c11.9-37.8,23.3-75.8,34-114c0.7-3.3,0.7-6.7,0-10c-3.9-2-8.1-3.2-12.5-3.5c-1.3-1.4-1-2.4,1-3c2.7-0.2,5.3-0.3,8-0.5
		c10,1.2,20,1.2,30,0c2,0.2,4,0.3,6,0.5c0.8,1,1.2,2.2,1,3.5c-9.4-0.9-15.5,3.1-18.5,12c-16.3,48.3-32.7,96.7-49,145
		c-1.5,4.2-3.8,4.8-7,2c-15.6-41.8-30.6-83.8-45-126c-15.5,40.2-30.8,80.6-46,121c-1.1,4.1-3.6,6.3-7.5,6.5
		c-2.4-4.2-4.2-8.7-5.5-13.5c-13.5-45.4-27.1-90.7-41-136c-4.3-8.2-11.1-11.9-20.5-11C1384.3,75.3,1384.7,73.9,1385.4,72.7z"/>
</g>
<g>
	<path class="st8" d="M1779.4,72.7c16,1.2,32,1.3,48,0.5c0.8,1,1.2,2.2,1,3.5c-3.4,0.2-6.7,0.7-10,1.5c-1.6,1.2-2.7,2.7-3.5,4.5
		c-1.6,21.3-1.9,42.6-1,64c20-20.4,39.7-41,59-62c2.5-4.2,1.5-7.2-3-9c-0.6-0.9-0.4-1.8,0.5-2.5c11.8,0.7,23.7,0.6,35.5-0.5
		c1.8,0.2,3.7,0.3,5.5,0.5c0.8,1,1.2,2.2,1,3.5c-9.1,0.5-17.1,3.7-24,9.5c-20,19-39.6,38.3-59,58c24,25.3,48.7,50,74,74
		c9.1,8.2,19.7,12.4,32,12.5c0.2,1.3-0.2,2.5-1,3.5c-12,0.8-24,0.4-36-1c-6.6-2.3-12.6-5.6-18-10c-23.6-22.2-45.7-45.7-66.5-70.5
		c-0.9,22.7-0.6,45.4,1,68c0.2,3,1.4,5.5,3.5,7.5c4.9,1.5,9.9,2.4,15,2.5c0.2,1.3-0.2,2.5-1,3.5c-3,0.2-6,0.3-9,0.5
		c-14-1-28-1.2-42-0.5c-0.8-1-1.2-2.2-1-3.5c7.9,1.1,12.4-2.2,13.5-10c1.1-23.6,1.6-47.3,1.5-71c0.1-22-0.4-44-1.5-66
		c-0.7-2.6-2.2-4.4-4.5-5.5c-3.7-0.8-7.3-1.4-11-2c-0.5-0.4-0.8-0.9-1-1.5C1778.1,74.1,1778.8,73.4,1779.4,72.7z"/>
</g>
</svg>
