<svg width="279" height="246" viewBox="0 0 279 246" fill="none" xmlns="http://www.w3.org/2000/svg">
    <path
        d="M0.5 5C0.5 2.23857 2.73858 0 5.5 0H273.5C276.261 0 278.5 2.23858 278.5 5V241C278.5 243.761 276.261 246 273.5 246H5.49999C2.73857 246 0.5 243.761 0.5 241V5Z"
        fill="white" />
    <rect x="19" y="26" width="242" height="197" rx="5" fill="#F8FAFF" />
    <rect x="19" y="26" width="242" height="202" rx="5" fill="#F8FAFF" />
    <path d="M37.5 36V157" stroke="#EBEBF1" stroke-width="2" stroke-linecap="round" />
    <path d="M78.3008 36V157" stroke="#EBEBF1" stroke-width="2" stroke-linecap="round" />
    <path d="M119.102 36V157" stroke="#EBEBF1" stroke-width="2" stroke-linecap="round" />
    <path d="M159.898 36V157" stroke="#EBEBF1" stroke-width="2" stroke-linecap="round" />
    <path d="M200.699 36V157" stroke="#EBEBF1" stroke-width="2" stroke-linecap="round" />
    <path d="M241.5 36V157" stroke="#EBEBF1" stroke-width="2" stroke-linecap="round" />
    <g opacity="0.25" filter="url(#filter0_f_5719_16764)">
        <rect x="153.5" y="69" width="96" height="145" rx="5" fill="#4959E7" />
    </g>
    <rect x="144.5" y="50" width="98" height="157" rx="5" fill="#4959E7" />
    <g opacity="0.45" filter="url(#filter1_f_5719_16764)">
        <rect x="39.5" y="159" width="92" height="37" rx="5" fill="#969696" />
    </g>
    <rect x="36.5" y="138" width="98" height="69" rx="5" fill="#AAADC0" />
    <path
        d="M196.405 168.333C196.459 167.893 196.499 167.453 196.499 167C196.499 166.546 196.459 166.106 196.405 165.666H198.659C198.765 166.093 198.832 166.54 198.832 167C198.832 167.46 198.765 167.906 198.659 168.333M195.225 172.04C195.625 171.3 195.932 170.5 196.145 169.666H198.112C197.466 170.779 196.441 171.621 195.225 172.04ZM195.059 168.333H191.939C191.872 167.893 191.832 167.453 191.832 167C191.832 166.546 191.872 166.1 191.939 165.666H195.059C195.119 166.1 195.165 166.546 195.165 167C195.165 167.453 195.119 167.893 195.059 168.333ZM193.499 172.306C192.945 171.506 192.499 170.62 192.225 169.666H194.772C194.499 170.62 194.052 171.506 193.499 172.306ZM190.832 164.333H188.885C189.525 163.218 190.549 162.374 191.765 161.96C191.365 162.7 191.065 163.5 190.832 164.333ZM188.885 169.666H190.832C191.065 170.5 191.365 171.3 191.765 172.04C190.551 171.621 189.529 170.778 188.885 169.666ZM188.339 168.333C188.232 167.906 188.165 167.46 188.165 167C188.165 166.54 188.232 166.093 188.339 165.666H190.592C190.539 166.106 190.499 166.546 190.499 167C190.499 167.453 190.539 167.893 190.592 168.333M193.499 161.686C194.052 162.486 194.499 163.38 194.772 164.333H192.225C192.499 163.38 192.945 162.486 193.499 161.686ZM198.112 164.333H196.145C195.937 163.507 195.628 162.71 195.225 161.96C196.452 162.38 197.472 163.226 198.112 164.333ZM193.499 160.333C189.812 160.333 186.832 163.333 186.832 167C186.832 168.768 187.534 170.463 188.785 171.714C189.404 172.333 190.139 172.824 190.947 173.159C191.756 173.494 192.623 173.666 193.499 173.666C195.267 173.666 196.962 172.964 198.213 171.714C199.463 170.463 200.165 168.768 200.165 167C200.165 166.124 199.993 165.257 199.658 164.448C199.323 163.64 198.832 162.905 198.213 162.286C197.594 161.667 196.859 161.176 196.05 160.84C195.241 160.505 194.374 160.333 193.499 160.333Z"
        fill="white" />
    <path
        d="M88.4054 168.333C88.4587 167.893 88.4987 167.453 88.4987 167C88.4987 166.546 88.4587 166.106 88.4054 165.666H90.6587C90.7654 166.093 90.832 166.54 90.832 167C90.832 167.46 90.7654 167.906 90.6587 168.333M87.2254 172.04C87.6254 171.3 87.932 170.5 88.1454 169.666H90.112C89.4661 170.779 88.4414 171.621 87.2254 172.04ZM87.0587 168.333H83.9387C83.872 167.893 83.832 167.453 83.832 167C83.832 166.546 83.872 166.1 83.9387 165.666H87.0587C87.1187 166.1 87.1654 166.546 87.1654 167C87.1654 167.453 87.1187 167.893 87.0587 168.333ZM85.4987 172.306C84.9454 171.506 84.4987 170.62 84.2254 169.666H86.772C86.4987 170.62 86.052 171.506 85.4987 172.306ZM82.832 164.333H80.8854C81.5246 163.218 82.5486 162.374 83.7654 161.96C83.3654 162.7 83.0654 163.5 82.832 164.333ZM80.8854 169.666H82.832C83.0654 170.5 83.3654 171.3 83.7654 172.04C82.5511 171.621 81.5286 170.778 80.8854 169.666ZM80.3387 168.333C80.232 167.906 80.1654 167.46 80.1654 167C80.1654 166.54 80.232 166.093 80.3387 165.666H82.592C82.5387 166.106 82.4987 166.546 82.4987 167C82.4987 167.453 82.5387 167.893 82.592 168.333M85.4987 161.686C86.052 162.486 86.4987 163.38 86.772 164.333H84.2254C84.4987 163.38 84.9454 162.486 85.4987 161.686ZM90.112 164.333H88.1454C87.9367 163.507 87.6277 162.71 87.2254 161.96C88.452 162.38 89.472 163.226 90.112 164.333ZM85.4987 160.333C81.812 160.333 78.832 163.333 78.832 167C78.832 168.768 79.5344 170.463 80.7847 171.714C81.4037 172.333 82.1386 172.824 82.9475 173.159C83.7563 173.494 84.6232 173.666 85.4987 173.666C87.2668 173.666 88.9625 172.964 90.2127 171.714C91.463 170.463 92.1654 168.768 92.1654 167C92.1654 166.124 91.9929 165.257 91.6579 164.448C91.3229 163.64 90.8318 162.905 90.2127 162.286C89.5937 161.667 88.8588 161.176 88.0499 160.84C87.2411 160.505 86.3742 160.333 85.4987 160.333Z"
        fill="white" />
    <g clip-path="url(#clip0_5719_16764)">
        <path fill-rule="evenodd" clip-rule="evenodd"
            d="M177.477 190.994C177.969 190.999 178.458 190.906 178.914 190.721C179.37 190.535 179.784 190.261 180.133 189.914C180.482 189.566 180.758 189.153 180.946 188.698C181.133 188.243 181.228 187.755 181.225 187.263C181.202 186.285 180.797 185.354 180.096 184.67C179.395 183.986 178.455 183.604 177.476 183.604C176.496 183.604 175.556 183.986 174.855 184.67C174.155 185.354 173.75 186.285 173.727 187.263C173.723 187.755 173.818 188.243 174.006 188.699C174.193 189.154 174.47 189.567 174.819 189.915C175.168 190.262 175.583 190.536 176.039 190.722C176.495 190.907 176.984 191 177.477 190.994ZM177.477 188.993C176.475 188.993 175.787 188.253 175.787 187.263C175.787 186.273 176.475 185.531 177.477 185.531C178.478 185.531 179.164 186.271 179.164 187.263C179.164 188.256 178.476 188.995 177.477 188.995V188.993Z"
            fill="white" />
        <path fill-rule="evenodd" clip-rule="evenodd"
            d="M194.231 188.078C194.283 187.81 194.308 187.537 194.307 187.264C194.307 185.185 192.836 183.531 190.715 183.531C188.548 183.531 186.953 185.084 186.953 187.264C186.953 189.544 188.634 190.995 190.868 190.995C192.104 190.995 193.184 190.583 193.924 189.579L192.275 188.634C191.903 188.986 191.407 189.176 190.895 189.165C190.12 189.165 189.422 188.918 189.137 188.135L189.115 188.078H194.231ZM189.1 186.509C189.306 185.728 189.904 185.347 190.701 185.347C191.055 185.328 191.405 185.434 191.689 185.647C191.973 185.859 192.174 186.164 192.257 186.509L192.271 186.562H189.086L189.1 186.509Z"
            fill="white" />
        <path fill-rule="evenodd" clip-rule="evenodd"
            d="M185.192 183.73H186.449V185.759H185.192C184.903 185.76 184.626 185.876 184.421 186.08C184.216 186.284 184.1 186.561 184.098 186.85V190.795H182.07V186.85C182.072 186.023 182.402 185.231 182.987 184.647C183.572 184.062 184.365 183.733 185.192 183.73Z"
            fill="white" />
        <path fill-rule="evenodd" clip-rule="evenodd"
            d="M170.586 181.996H172.98V184.018H170.586C170.04 184.021 169.518 184.239 169.132 184.625C168.747 185.01 168.529 185.532 168.525 186.077V186.711C168.529 187.256 168.747 187.778 169.132 188.164C169.518 188.549 170.04 188.767 170.586 188.77H172.98V190.792H170.586C169.504 190.79 168.467 190.359 167.701 189.595C166.936 188.831 166.504 187.795 166.5 186.713V186.079C166.503 184.997 166.934 183.96 167.7 183.195C168.465 182.43 169.503 181.999 170.586 181.996Z"
            fill="white" />
        <path fill-rule="evenodd" clip-rule="evenodd"
            d="M218.103 181.996H220.498V184.018H218.103C217.558 184.021 217.036 184.239 216.65 184.625C216.264 185.01 216.046 185.532 216.043 186.077V186.711C216.046 187.256 216.264 187.778 216.65 188.164C217.036 188.549 217.558 188.767 218.103 188.77H220.498V190.792H218.103C217.021 190.789 215.984 190.358 215.219 189.593C214.453 188.828 214.022 187.791 214.02 186.709V186.079C214.022 184.997 214.453 183.961 215.219 183.196C215.984 182.431 217.021 181.999 218.103 181.996V181.996Z"
            fill="white" />
        <path fill-rule="evenodd" clip-rule="evenodd"
            d="M199.314 187.055V190.796H197.215V181.996H199.314V184.963H199.51C199.944 184.964 200.374 184.876 200.773 184.704C201.172 184.533 201.532 184.282 201.83 183.967C202.353 183.445 202.691 182.767 202.792 182.035V181.996H204.896V182.046C204.781 183.327 204.219 184.528 203.308 185.437C202.956 185.788 202.558 186.091 202.125 186.337L201.933 186.446L205.176 190.796H202.56L199.85 187.055H199.314Z"
            fill="white" />
        <path fill-rule="evenodd" clip-rule="evenodd"
            d="M210.92 187.504V190.796H208.905V187.502L205.859 181.996H208.136L209.941 185.307L211.67 181.996H213.864L210.92 187.504Z"
            fill="white" />
    </g>
    <path
        d="M74.0099 186.273C74.0099 187.304 73.8145 188.181 73.4237 188.904C73.0359 189.627 72.5065 190.18 71.8356 190.561C71.1677 190.94 70.4168 191.129 69.5827 191.129C68.7425 191.129 67.9885 190.938 67.3207 190.557C66.6528 190.175 66.125 189.623 65.7372 188.9C65.3494 188.176 65.1555 187.301 65.1555 186.273C65.1555 185.242 65.3494 184.365 65.7372 183.641C66.125 182.918 66.6528 182.367 67.3207 181.989C67.9885 181.607 68.7425 181.416 69.5827 181.416C70.4168 181.416 71.1677 181.607 71.8356 181.989C72.5065 182.367 73.0359 182.918 73.4237 183.641C73.8145 184.365 74.0099 185.242 74.0099 186.273ZM71.9833 186.273C71.9833 185.605 71.8833 185.042 71.6832 184.583C71.4863 184.125 71.2077 183.777 70.8477 183.54C70.4876 183.303 70.0659 183.184 69.5827 183.184C69.0996 183.184 68.6779 183.303 68.3178 183.54C67.9577 183.777 67.6777 184.125 67.4776 184.583C67.2807 185.042 67.1822 185.605 67.1822 186.273C67.1822 186.941 67.2807 187.504 67.4776 187.962C67.6777 188.421 67.9577 188.769 68.3178 189.006C68.6779 189.243 69.0996 189.361 69.5827 189.361C70.0659 189.361 70.4876 189.243 70.8477 189.006C71.2077 188.769 71.4863 188.421 71.6832 187.962C71.8833 187.504 71.9833 186.941 71.9833 186.273ZM78.7704 183.909V185.386H74.5002V183.909H78.7704ZM75.4696 182.21H77.4362V188.821C77.4362 189.003 77.4639 189.144 77.5193 189.246C77.5747 189.344 77.6517 189.413 77.7502 189.453C77.8517 189.493 77.9687 189.513 78.101 189.513C78.1933 189.513 78.2857 189.506 78.378 189.49C78.4703 189.472 78.5411 189.458 78.5904 189.449L78.8997 190.912C78.8012 190.943 78.6627 190.978 78.4842 191.018C78.3057 191.062 78.0887 191.088 77.8333 191.097C77.3593 191.115 76.9438 191.052 76.5868 190.908C76.2329 190.763 75.9574 190.538 75.7605 190.234C75.5635 189.929 75.4665 189.544 75.4696 189.08V182.21ZM81.7154 186.901V191H79.7488V181.545H81.66V185.16H81.7431C81.9032 184.742 82.1617 184.414 82.5187 184.177C82.8757 183.937 83.3235 183.817 83.8621 183.817C84.3545 183.817 84.7839 183.924 85.1501 184.14C85.5194 184.352 85.8056 184.658 86.0088 185.059C86.215 185.456 86.3165 185.931 86.3135 186.485V191H84.3468V186.836C84.3499 186.399 84.2391 186.059 84.0145 185.816C83.7929 185.573 83.482 185.451 83.0819 185.451C82.8142 185.451 82.5772 185.508 82.371 185.622C82.1679 185.736 82.0078 185.902 81.8909 186.12C81.777 186.336 81.7185 186.596 81.7154 186.901ZM90.6377 191.138C89.9083 191.138 89.2804 190.991 88.7541 190.695C88.2309 190.397 87.8278 189.975 87.5446 189.43C87.2615 188.883 87.1199 188.235 87.1199 187.487C87.1199 186.757 87.2615 186.117 87.5446 185.566C87.8278 185.016 88.2263 184.586 88.7403 184.278C89.2573 183.971 89.8636 183.817 90.5592 183.817C91.027 183.817 91.4625 183.892 91.8656 184.043C92.2719 184.191 92.6258 184.414 92.9274 184.712C93.2321 185.011 93.4691 185.386 93.6384 185.839C93.8076 186.288 93.8923 186.814 93.8923 187.418V187.958H87.9047V186.739H92.0411C92.0411 186.456 91.9795 186.205 91.8564 185.987C91.7333 185.768 91.5625 185.597 91.344 185.474C91.1285 185.348 90.8777 185.285 90.5915 185.285C90.293 185.285 90.0283 185.354 89.7975 185.493C89.5697 185.628 89.3912 185.811 89.262 186.042C89.1327 186.27 89.0665 186.524 89.0634 186.804V187.962C89.0634 188.313 89.1281 188.616 89.2573 188.872C89.3897 189.127 89.5759 189.324 89.8159 189.463C90.056 189.601 90.3407 189.67 90.67 189.67C90.8885 189.67 91.0885 189.64 91.2701 189.578C91.4517 189.517 91.6071 189.424 91.7364 189.301C91.8656 189.178 91.9641 189.027 92.0318 188.849L93.8507 188.969C93.7584 189.406 93.5691 189.787 93.2829 190.114C92.9998 190.437 92.6335 190.689 92.1842 190.871C91.7379 191.049 91.2224 191.138 90.6377 191.138ZM94.7207 191V183.909H96.6273V185.146H96.7011C96.8304 184.706 97.0474 184.374 97.3521 184.149C97.6567 183.921 98.0076 183.808 98.4046 183.808C98.5031 183.808 98.6093 183.814 98.7231 183.826C98.837 183.838 98.937 183.855 99.0232 183.877V185.622C98.9309 185.594 98.8032 185.569 98.6401 185.548C98.4769 185.526 98.3277 185.516 98.1923 185.516C97.903 185.516 97.6444 185.579 97.4167 185.705C97.192 185.828 97.0135 186 96.8812 186.222C96.7519 186.444 96.6873 186.699 96.6873 186.988V191H94.7207ZM105.485 185.931L103.684 186.042C103.654 185.888 103.587 185.75 103.486 185.626C103.384 185.5 103.25 185.4 103.084 185.326C102.921 185.249 102.726 185.211 102.498 185.211C102.193 185.211 101.936 185.276 101.727 185.405C101.518 185.531 101.413 185.7 101.413 185.913C101.413 186.082 101.481 186.225 101.616 186.342C101.752 186.459 101.984 186.553 102.313 186.624L103.597 186.882C104.286 187.024 104.8 187.251 105.139 187.565C105.477 187.879 105.646 188.292 105.646 188.803C105.646 189.267 105.509 189.675 105.236 190.026C104.965 190.377 104.592 190.651 104.118 190.848C103.647 191.042 103.104 191.138 102.489 191.138C101.55 191.138 100.802 190.943 100.245 190.552C99.6912 190.158 99.3665 189.623 99.2711 188.946L101.205 188.844C101.264 189.13 101.405 189.349 101.63 189.5C101.855 189.647 102.143 189.721 102.493 189.721C102.838 189.721 103.115 189.655 103.324 189.523C103.537 189.387 103.644 189.213 103.647 189.001C103.644 188.823 103.569 188.676 103.421 188.562C103.274 188.446 103.046 188.356 102.738 188.295L101.51 188.05C100.818 187.912 100.302 187.672 99.9635 187.33C99.6281 186.988 99.4604 186.553 99.4604 186.023C99.4604 185.568 99.5835 185.176 99.8297 184.846C100.079 184.517 100.428 184.263 100.878 184.085C101.33 183.906 101.859 183.817 102.466 183.817C103.361 183.817 104.066 184.006 104.58 184.385C105.097 184.763 105.399 185.279 105.485 185.931Z"
        fill="white" />
    <defs>
        <filter id="filter0_f_5719_16764" x="138.5" y="54" width="126" height="175"
            filterUnits="userSpaceOnUse" color-interpolation-filters="sRGB">
            <feFlood flood-opacity="0" result="BackgroundImageFix" />
            <feBlend mode="normal" in="SourceGraphic" in2="BackgroundImageFix" result="shape" />
            <feGaussianBlur stdDeviation="7.5" result="effect1_foregroundBlur_5719_16764" />
        </filter>
        <filter id="filter1_f_5719_16764" x="14.5" y="134" width="142" height="87"
            filterUnits="userSpaceOnUse" color-interpolation-filters="sRGB">
            <feFlood flood-opacity="0" result="BackgroundImageFix" />
            <feBlend mode="normal" in="SourceGraphic" in2="BackgroundImageFix" result="shape" />
            <feGaussianBlur stdDeviation="12.5" result="effect1_foregroundBlur_5719_16764" />
        </filter>
        <clipPath id="clip0_5719_16764">
            <rect width="54" height="9" fill="white" transform="translate(166.5 182)" />
        </clipPath>
    </defs>
</svg>