<svg width="303" height="241" viewBox="0 0 303 241" fill="none" xmlns="http://www.w3.org/2000/svg">
    <rect x="0.5" width="302" height="241" rx="5" fill="white" />
    <rect x="18.5" y="16" width="266" height="207" rx="5" fill="#F8FAFF" />
    <g opacity="0.45" filter="url(#filter0_f_5719_16769)">
        <ellipse cx="87" cy="151" rx="37.5" ry="27" fill="#969696" />
    </g>
    <g opacity="0.45" filter="url(#filter1_f_5719_16769)">
        <ellipse cx="215" cy="143.5" rx="45.5" ry="38.5" fill="#4959E7" />
    </g>
    <path d="M49.5 34V205" stroke="#EBEBF1" stroke-linecap="round" />
    <path d="M90.5 34V205" stroke="#EBEBF1" stroke-linecap="round" />
    <path d="M131.5 34V205" stroke="#EBEBF1" stroke-linecap="round" />
    <path d="M171.5 34V205" stroke="#EBEBF1" stroke-linecap="round" />
    <path d="M212.5 34V205" stroke="#EBEBF1" stroke-linecap="round" />
    <path d="M253.5 34V205" stroke="#EBEBF1" stroke-linecap="round" />
    <circle cx="215.5" cy="121" r="42.6176" fill="#F8FAFF" stroke="#99A7F3" stroke-width="16.7647"
        stroke-miterlimit="10" stroke-linejoin="round" />
    <path
        d="M193.589 118.139C192.846 118.139 192.185 118.012 191.605 117.756C191.028 117.498 190.573 117.143 190.238 116.692C189.906 116.238 189.736 115.715 189.726 115.121H191.893C191.907 115.37 191.988 115.589 192.137 115.778C192.29 115.963 192.492 116.107 192.744 116.21C192.996 116.313 193.279 116.364 193.594 116.364C193.922 116.364 194.212 116.306 194.464 116.19C194.716 116.074 194.913 115.914 195.055 115.708C195.198 115.503 195.269 115.266 195.269 114.997C195.269 114.725 195.193 114.485 195.04 114.276C194.891 114.064 194.676 113.898 194.394 113.779C194.116 113.66 193.784 113.6 193.4 113.6H192.45V112.019H193.4C193.725 112.019 194.011 111.963 194.26 111.85C194.512 111.737 194.707 111.582 194.847 111.383C194.986 111.181 195.055 110.945 195.055 110.677C195.055 110.422 194.994 110.198 194.871 110.006C194.752 109.81 194.583 109.658 194.364 109.548C194.149 109.439 193.897 109.384 193.609 109.384C193.317 109.384 193.05 109.437 192.808 109.543C192.566 109.646 192.372 109.794 192.227 109.986C192.081 110.178 192.003 110.403 191.993 110.662H189.93C189.94 110.075 190.107 109.558 190.432 109.111C190.757 108.663 191.194 108.314 191.744 108.062C192.298 107.807 192.923 107.679 193.619 107.679C194.321 107.679 194.936 107.807 195.463 108.062C195.99 108.317 196.399 108.662 196.691 109.096C196.986 109.527 197.132 110.011 197.129 110.548C197.132 111.118 196.955 111.593 196.597 111.974C196.242 112.356 195.78 112.598 195.21 112.7V112.78C195.959 112.876 196.529 113.136 196.92 113.56C197.314 113.981 197.51 114.508 197.506 115.141C197.51 115.721 197.342 116.237 197.004 116.688C196.67 117.138 196.207 117.493 195.617 117.751C195.027 118.01 194.351 118.139 193.589 118.139ZM202.556 118.224C201.701 118.22 200.965 118.01 200.349 117.592C199.735 117.175 199.263 116.57 198.932 115.778C198.604 114.986 198.441 114.033 198.444 112.919C198.444 111.809 198.609 110.862 198.937 110.08C199.268 109.298 199.74 108.703 200.354 108.295C200.97 107.884 201.704 107.679 202.556 107.679C203.408 107.679 204.14 107.884 204.753 108.295C205.37 108.706 205.844 109.303 206.175 110.085C206.507 110.864 206.671 111.809 206.667 112.919C206.667 114.036 206.502 114.991 206.17 115.783C205.842 116.575 205.372 117.18 204.758 117.597C204.145 118.015 203.411 118.224 202.556 118.224ZM202.556 116.439C203.139 116.439 203.605 116.146 203.953 115.559C204.301 114.972 204.473 114.092 204.47 112.919C204.47 112.147 204.391 111.504 204.231 110.99C204.076 110.476 203.854 110.09 203.565 109.832C203.28 109.573 202.944 109.444 202.556 109.444C201.976 109.444 201.512 109.734 201.164 110.314C200.816 110.894 200.64 111.762 200.637 112.919C200.637 113.701 200.715 114.354 200.871 114.878C201.03 115.398 201.253 115.789 201.542 116.051C201.83 116.31 202.168 116.439 202.556 116.439ZM216.836 112.541L214.897 112.661C214.864 112.495 214.793 112.346 214.684 112.213C214.574 112.077 214.43 111.969 214.251 111.89C214.075 111.807 213.865 111.766 213.62 111.766C213.292 111.766 213.015 111.835 212.789 111.974C212.564 112.11 212.451 112.293 212.451 112.521C212.451 112.704 212.524 112.858 212.67 112.984C212.816 113.11 213.066 113.211 213.421 113.287L214.803 113.565C215.545 113.718 216.099 113.963 216.463 114.301C216.828 114.639 217.01 115.083 217.01 115.634C217.01 116.134 216.863 116.573 216.568 116.951C216.276 117.329 215.875 117.624 215.365 117.836C214.858 118.045 214.273 118.149 213.61 118.149C212.599 118.149 211.793 117.939 211.194 117.518C210.597 117.094 210.247 116.517 210.145 115.788L212.228 115.678C212.291 115.987 212.443 116.222 212.685 116.384C212.927 116.543 213.237 116.623 213.615 116.623C213.986 116.623 214.284 116.552 214.51 116.409C214.738 116.263 214.854 116.076 214.858 115.847C214.854 115.655 214.773 115.498 214.614 115.375C214.455 115.249 214.21 115.153 213.878 115.087L212.556 114.823C211.81 114.674 211.255 114.415 210.89 114.048C210.529 113.68 210.348 113.211 210.348 112.641C210.348 112.15 210.481 111.728 210.746 111.373C211.015 111.018 211.391 110.745 211.875 110.553C212.362 110.36 212.932 110.264 213.585 110.264C214.549 110.264 215.308 110.468 215.862 110.876C216.419 111.283 216.743 111.839 216.836 112.541ZM221.334 118.149C220.549 118.149 219.872 117.99 219.306 117.672C218.742 117.35 218.308 116.896 218.003 116.31C217.698 115.72 217.546 115.022 217.546 114.217C217.546 113.431 217.698 112.742 218.003 112.148C218.308 111.555 218.737 111.093 219.291 110.761C219.848 110.43 220.5 110.264 221.25 110.264C221.753 110.264 222.222 110.345 222.656 110.508C223.094 110.667 223.475 110.907 223.8 111.229C224.128 111.55 224.383 111.955 224.566 112.442C224.748 112.926 224.839 113.492 224.839 114.142V114.724H218.391V113.411H222.845C222.845 113.106 222.779 112.836 222.647 112.601C222.514 112.366 222.33 112.182 222.095 112.049C221.863 111.913 221.593 111.845 221.284 111.845C220.963 111.845 220.678 111.92 220.429 112.069C220.184 112.215 219.992 112.412 219.853 112.661C219.713 112.906 219.642 113.179 219.639 113.481V114.729C219.639 115.107 219.708 115.433 219.848 115.708C219.99 115.983 220.191 116.195 220.449 116.344C220.708 116.494 221.014 116.568 221.369 116.568C221.604 116.568 221.82 116.535 222.015 116.469C222.211 116.402 222.378 116.303 222.517 116.17C222.656 116.038 222.763 115.875 222.835 115.683L224.794 115.812C224.695 116.283 224.491 116.694 224.183 117.045C223.878 117.393 223.483 117.665 223 117.861C222.519 118.053 221.964 118.149 221.334 118.149ZM229.181 118.149C228.399 118.149 227.726 117.983 227.163 117.652C226.603 117.317 226.172 116.853 225.87 116.26C225.572 115.667 225.423 114.984 225.423 114.212C225.423 113.429 225.574 112.743 225.875 112.153C226.18 111.56 226.613 111.098 227.173 110.766C227.733 110.432 228.399 110.264 229.171 110.264C229.838 110.264 230.421 110.385 230.921 110.627C231.422 110.869 231.818 111.209 232.11 111.646C232.401 112.084 232.562 112.598 232.592 113.188H230.593C230.537 112.806 230.388 112.5 230.146 112.268C229.907 112.032 229.594 111.915 229.206 111.915C228.878 111.915 228.591 112.004 228.346 112.183C228.104 112.359 227.915 112.616 227.779 112.954C227.644 113.292 227.576 113.701 227.576 114.182C227.576 114.669 227.642 115.083 227.774 115.425C227.91 115.766 228.101 116.026 228.346 116.205C228.591 116.384 228.878 116.474 229.206 116.474C229.448 116.474 229.665 116.424 229.858 116.325C230.053 116.225 230.214 116.081 230.34 115.892C230.469 115.7 230.554 115.469 230.593 115.201H232.592C232.559 115.784 232.4 116.298 232.115 116.742C231.833 117.183 231.443 117.528 230.946 117.776C230.449 118.025 229.861 118.149 229.181 118.149ZM239.812 112.541L237.873 112.661C237.84 112.495 237.768 112.346 237.659 112.213C237.55 112.077 237.405 111.969 237.226 111.89C237.051 111.807 236.84 111.766 236.595 111.766C236.267 111.766 235.99 111.835 235.765 111.974C235.539 112.11 235.427 112.293 235.427 112.521C235.427 112.704 235.5 112.858 235.645 112.984C235.791 113.11 236.041 113.211 236.396 113.287L237.778 113.565C238.521 113.718 239.074 113.963 239.439 114.301C239.803 114.639 239.986 115.083 239.986 115.634C239.986 116.134 239.838 116.573 239.543 116.951C239.251 117.329 238.85 117.624 238.34 117.836C237.833 118.045 237.248 118.149 236.585 118.149C235.574 118.149 234.769 117.939 234.169 117.518C233.572 117.094 233.223 116.517 233.12 115.788L235.203 115.678C235.266 115.987 235.418 116.222 235.66 116.384C235.902 116.543 236.212 116.623 236.59 116.623C236.961 116.623 237.26 116.552 237.485 116.409C237.714 116.263 237.83 116.076 237.833 115.847C237.83 115.655 237.748 115.498 237.589 115.375C237.43 115.249 237.185 115.153 236.854 115.087L235.531 114.823C234.785 114.674 234.23 114.415 233.866 114.048C233.504 113.68 233.324 113.211 233.324 112.641C233.324 112.15 233.456 111.728 233.721 111.373C233.99 111.018 234.366 110.745 234.85 110.553C235.337 110.36 235.907 110.264 236.56 110.264C237.525 110.264 238.284 110.468 238.837 110.876C239.394 111.283 239.719 111.839 239.812 112.541Z"
        fill="#4959E7" />
    <path d="M215.5 78.3824C222.668 78.3824 229.72 80.1903 236.004 83.639" stroke="#4959E7"
        stroke-width="16.7647" stroke-miterlimit="10" stroke-linejoin="round" />
    <g clip-path="url(#clip0_5719_16769)">
        <path fill-rule="evenodd" clip-rule="evenodd"
            d="M199.477 132.994C199.969 132.999 200.458 132.906 200.914 132.721C201.37 132.535 201.784 132.261 202.133 131.914C202.482 131.566 202.758 131.153 202.946 130.698C203.133 130.243 203.228 129.755 203.225 129.263C203.202 128.285 202.797 127.354 202.096 126.67C201.395 125.986 200.455 125.604 199.476 125.604C198.496 125.604 197.556 125.986 196.855 126.67C196.155 127.354 195.75 128.285 195.727 129.263C195.723 129.755 195.818 130.243 196.006 130.699C196.193 131.154 196.47 131.567 196.819 131.915C197.168 132.262 197.583 132.536 198.039 132.722C198.495 132.907 198.984 133 199.477 132.994ZM199.477 130.993C198.475 130.993 197.787 130.253 197.787 129.263C197.787 128.273 198.475 127.531 199.477 127.531C200.478 127.531 201.164 128.271 201.164 129.263C201.164 130.256 200.476 130.995 199.477 130.995V130.993Z"
            fill="#4959E7" />
        <path fill-rule="evenodd" clip-rule="evenodd"
            d="M216.231 130.078C216.283 129.81 216.308 129.537 216.307 129.264C216.307 127.185 214.836 125.531 212.715 125.531C210.548 125.531 208.953 127.084 208.953 129.264C208.953 131.544 210.634 132.995 212.868 132.995C214.104 132.995 215.184 132.583 215.924 131.579L214.275 130.634C213.903 130.986 213.407 131.176 212.895 131.165C212.12 131.165 211.422 130.918 211.137 130.135L211.115 130.078H216.231ZM211.1 128.509C211.306 127.728 211.904 127.347 212.701 127.347C213.055 127.328 213.405 127.434 213.689 127.647C213.973 127.859 214.174 128.164 214.257 128.509L214.271 128.562H211.086L211.1 128.509Z"
            fill="#4959E7" />
        <path fill-rule="evenodd" clip-rule="evenodd"
            d="M207.192 125.73H208.449V127.759H207.192C206.903 127.76 206.626 127.876 206.421 128.08C206.216 128.284 206.1 128.561 206.098 128.85V132.795H204.07V128.85C204.072 128.023 204.402 127.231 204.987 126.647C205.572 126.062 206.365 125.733 207.192 125.73Z"
            fill="#4959E7" />
        <path fill-rule="evenodd" clip-rule="evenodd"
            d="M192.586 123.996H194.98V126.018H192.586C192.04 126.021 191.518 126.239 191.132 126.625C190.747 127.01 190.529 127.532 190.525 128.077V128.711C190.529 129.256 190.747 129.778 191.132 130.164C191.518 130.549 192.04 130.767 192.586 130.77H194.98V132.792H192.586C191.504 132.79 190.467 132.359 189.701 131.595C188.936 130.831 188.504 129.795 188.5 128.713V128.079C188.503 126.997 188.934 125.96 189.7 125.195C190.465 124.43 191.503 123.999 192.586 123.996Z"
            fill="#4959E7" />
        <path fill-rule="evenodd" clip-rule="evenodd"
            d="M240.103 123.996H242.498V126.018H240.103C239.558 126.021 239.036 126.239 238.65 126.625C238.264 127.01 238.046 127.532 238.043 128.077V128.711C238.046 129.256 238.264 129.778 238.65 130.164C239.036 130.549 239.558 130.767 240.103 130.77H242.498V132.792H240.103C239.021 132.789 237.984 132.358 237.219 131.593C236.453 130.828 236.022 129.791 236.02 128.709V128.079C236.022 126.997 236.453 125.961 237.219 125.196C237.984 124.431 239.021 123.999 240.103 123.996V123.996Z"
            fill="#4959E7" />
        <path fill-rule="evenodd" clip-rule="evenodd"
            d="M221.314 129.055V132.796H219.215V123.996H221.314V126.963H221.51C221.944 126.964 222.374 126.876 222.773 126.704C223.172 126.533 223.532 126.282 223.83 125.967C224.353 125.445 224.691 124.767 224.792 124.035V123.996H226.896V124.046C226.781 125.327 226.219 126.528 225.308 127.437C224.956 127.788 224.558 128.091 224.125 128.337L223.933 128.446L227.176 132.796H224.56L221.85 129.055H221.314Z"
            fill="#4959E7" />
        <path fill-rule="evenodd" clip-rule="evenodd"
            d="M232.92 129.504V132.796H230.905V129.502L227.859 123.996H230.136L231.941 127.307L233.67 123.996H235.864L232.92 129.504Z"
            fill="#4959E7" />
    </g>
    <circle cx="87.5" cy="121" r="42.6176" fill="#F8FAFF" stroke="#E6E8F2" stroke-width="16.7647"
        stroke-miterlimit="10" stroke-linejoin="round" />
    <path
        d="M87.5 78.3824C96.1109 78.3824 104.52 80.9908 111.619 85.864C118.718 90.7373 124.175 97.6468 127.27 105.682C130.365 113.718 130.953 122.502 128.957 130.879C126.961 139.255 122.474 146.83 116.088 152.607C109.702 158.383 101.716 162.089 93.1821 163.237C84.6481 164.385 75.9665 162.921 68.2809 159.038C60.5953 155.155 54.2663 149.035 50.1277 141.483C45.989 133.932 44.2348 125.305 45.0961 116.737"
        stroke="#AAADC0" stroke-width="16.7647" stroke-miterlimit="10" stroke-linejoin="round" />
    <path
        d="M70.5888 118.139C69.8464 118.139 69.1851 118.012 68.6051 117.756C68.0284 117.498 67.5727 117.143 67.2379 116.692C66.9065 116.238 66.7358 115.715 66.7259 115.121H68.8935C68.9067 115.37 68.9879 115.589 69.1371 115.778C69.2895 115.963 69.4917 116.107 69.7436 116.21C69.9955 116.313 70.2789 116.364 70.5938 116.364C70.9219 116.364 71.2119 116.306 71.4638 116.19C71.7157 116.074 71.9129 115.914 72.0554 115.708C72.1979 115.503 72.2692 115.266 72.2692 114.997C72.2692 114.725 72.1929 114.485 72.0405 114.276C71.8913 114.064 71.6759 113.898 71.3942 113.779C71.1158 113.66 70.7843 113.6 70.3999 113.6H69.4503V112.019H70.3999C70.7247 112.019 71.0114 111.963 71.2599 111.85C71.5118 111.737 71.7074 111.582 71.8466 111.383C71.9858 111.181 72.0554 110.945 72.0554 110.677C72.0554 110.422 71.9941 110.198 71.8714 110.006C71.7521 109.81 71.5831 109.658 71.3643 109.548C71.1489 109.439 70.897 109.384 70.6087 109.384C70.317 109.384 70.0502 109.437 69.8082 109.543C69.5663 109.646 69.3724 109.794 69.2266 109.986C69.0807 110.178 69.0028 110.403 68.9929 110.662H66.9297C66.9396 110.075 67.107 109.558 67.4318 109.111C67.7566 108.663 68.1941 108.314 68.7443 108.062C69.2978 107.807 69.9226 107.679 70.6186 107.679C71.3213 107.679 71.9361 107.807 72.4631 108.062C72.9901 108.317 73.3994 108.662 73.6911 109.096C73.986 109.527 74.1319 110.011 74.1286 110.548C74.1319 111.118 73.9545 111.593 73.5966 111.974C73.242 112.356 72.7796 112.598 72.2095 112.7V112.78C72.9586 112.876 73.5286 113.136 73.9197 113.56C74.3142 113.981 74.5097 114.508 74.5064 115.141C74.5097 115.721 74.3423 116.237 74.0043 116.688C73.6695 117.138 73.2071 117.493 72.6172 117.751C72.0272 118.01 71.3511 118.139 70.5888 118.139ZM81.1478 118.124C80.5678 118.124 80.0425 117.975 79.5718 117.677C79.1045 117.375 78.7333 116.933 78.4582 116.349C78.1864 115.763 78.0505 115.044 78.0505 114.192C78.0505 113.317 78.1914 112.589 78.4731 112.009C78.7548 111.426 79.1294 110.99 79.5967 110.702C80.0673 110.41 80.5827 110.264 81.1429 110.264C81.5704 110.264 81.9267 110.337 82.2118 110.483C82.5001 110.625 82.7321 110.804 82.9078 111.02C83.0868 111.232 83.2227 111.441 83.3155 111.646H83.3801V107.818H85.493V118H83.4049V116.777H83.3155C83.216 116.989 83.0752 117.2 82.8929 117.408C82.7139 117.614 82.4802 117.785 82.1919 117.92C81.9068 118.056 81.5588 118.124 81.1478 118.124ZM81.819 116.439C82.1604 116.439 82.4487 116.346 82.6841 116.161C82.9227 115.972 83.105 115.708 83.2309 115.37C83.3602 115.032 83.4248 114.636 83.4248 114.182C83.4248 113.728 83.3619 113.333 83.2359 112.999C83.11 112.664 82.9277 112.405 82.689 112.223C82.4504 112.041 82.1604 111.95 81.819 111.95C81.471 111.95 81.1777 112.044 80.939 112.233C80.7004 112.422 80.5198 112.684 80.3971 113.018C80.2745 113.353 80.2132 113.741 80.2132 114.182C80.2132 114.626 80.2745 115.019 80.3971 115.36C80.5231 115.698 80.7037 115.963 80.939 116.156C81.1777 116.344 81.471 116.439 81.819 116.439ZM88.9219 118.144C88.4347 118.144 88.0005 118.06 87.6193 117.891C87.2382 117.718 86.9365 117.465 86.7145 117.13C86.4957 116.792 86.3864 116.371 86.3864 115.867C86.3864 115.443 86.4642 115.087 86.62 114.798C86.7758 114.51 86.9879 114.278 87.2564 114.102C87.5249 113.927 87.8298 113.794 88.1712 113.705C88.5159 113.615 88.8771 113.552 89.255 113.516C89.6991 113.469 90.057 113.426 90.3288 113.386C90.6006 113.343 90.7978 113.28 90.9204 113.197C91.0431 113.115 91.1044 112.992 91.1044 112.83V112.8C91.1044 112.485 91.005 112.241 90.8061 112.069C90.6106 111.897 90.3321 111.81 89.9709 111.81C89.5897 111.81 89.2865 111.895 89.0611 112.064C88.8357 112.23 88.6865 112.438 88.6136 112.69L86.6548 112.531C86.7543 112.067 86.9498 111.666 87.2415 111.328C87.5331 110.987 87.9093 110.725 88.37 110.543C88.834 110.357 89.371 110.264 89.9808 110.264C90.4051 110.264 90.8111 110.314 91.1989 110.413C91.59 110.513 91.9363 110.667 92.2379 110.876C92.5428 111.085 92.7831 111.353 92.9588 111.681C93.1345 112.006 93.2223 112.395 93.2223 112.849V118H91.2138V116.941H91.1541C91.0315 117.18 90.8674 117.39 90.6619 117.572C90.4564 117.751 90.2095 117.892 89.9212 117.995C89.6328 118.094 89.2997 118.144 88.9219 118.144ZM89.5284 116.683C89.84 116.683 90.1151 116.621 90.3537 116.499C90.5923 116.373 90.7796 116.204 90.9155 115.991C91.0514 115.779 91.1193 115.539 91.1193 115.271V114.46C91.053 114.503 90.9619 114.543 90.8459 114.58C90.7332 114.613 90.6056 114.644 90.4631 114.674C90.3205 114.701 90.178 114.725 90.0355 114.749C89.893 114.768 89.7637 114.787 89.6477 114.803C89.3991 114.84 89.182 114.898 88.9964 114.977C88.8108 115.057 88.6667 115.165 88.5639 115.3C88.4612 115.433 88.4098 115.599 88.4098 115.798C88.4098 116.086 88.5142 116.306 88.723 116.459C88.9351 116.608 89.2036 116.683 89.5284 116.683ZM95.4095 120.864C95.141 120.864 94.8891 120.842 94.6538 120.799C94.4218 120.759 94.2296 120.708 94.0771 120.645L94.5544 119.064C94.803 119.14 95.0267 119.182 95.2255 119.188C95.4277 119.195 95.6017 119.148 95.7476 119.049C95.8967 118.95 96.0177 118.781 96.1105 118.542L96.2348 118.219L93.4954 110.364H95.7227L97.3037 115.972H97.3832L98.9791 110.364H101.221L98.2532 118.825C98.1107 119.236 97.9168 119.594 97.6716 119.899C97.4296 120.207 97.123 120.444 96.7518 120.61C96.3806 120.779 95.9332 120.864 95.4095 120.864ZM108.169 112.541L106.23 112.661C106.197 112.495 106.125 112.346 106.016 112.213C105.907 112.077 105.763 111.969 105.584 111.89C105.408 111.807 105.197 111.766 104.952 111.766C104.624 111.766 104.347 111.835 104.122 111.974C103.897 112.11 103.784 112.293 103.784 112.521C103.784 112.704 103.857 112.858 104.003 112.984C104.148 113.11 104.399 113.211 104.753 113.287L106.135 113.565C106.878 113.718 107.431 113.963 107.796 114.301C108.16 114.639 108.343 115.083 108.343 115.634C108.343 116.134 108.195 116.573 107.9 116.951C107.609 117.329 107.208 117.624 106.697 117.836C106.19 118.045 105.605 118.149 104.942 118.149C103.931 118.149 103.126 117.939 102.526 117.518C101.929 117.094 101.58 116.517 101.477 115.788L103.56 115.678C103.623 115.987 103.776 116.222 104.018 116.384C104.259 116.543 104.569 116.623 104.947 116.623C105.318 116.623 105.617 116.552 105.842 116.409C106.071 116.263 106.187 116.076 106.19 115.847C106.187 115.655 106.106 115.498 105.946 115.375C105.787 115.249 105.542 115.153 105.211 115.087L103.888 114.823C103.143 114.674 102.587 114.415 102.223 114.048C101.861 113.68 101.681 113.211 101.681 112.641C101.681 112.15 101.813 111.728 102.079 111.373C102.347 111.018 102.723 110.745 103.207 110.553C103.694 110.36 104.264 110.264 104.917 110.264C105.882 110.264 106.641 110.468 107.194 110.876C107.751 111.283 108.076 111.839 108.169 112.541Z"
        fill="#AAADC0" />
    <path
        d="M74.7415 127.909C74.7415 129.019 74.531 129.964 74.1101 130.743C73.6925 131.522 73.1224 132.117 72.3999 132.528C71.6806 132.935 70.8719 133.139 69.9737 133.139C69.0689 133.139 68.2569 132.934 67.5376 132.523C66.8184 132.112 66.25 131.517 65.8324 130.738C65.4148 129.959 65.206 129.016 65.206 127.909C65.206 126.799 65.4148 125.854 65.8324 125.075C66.25 124.296 66.8184 123.703 67.5376 123.295C68.2569 122.884 69.0689 122.679 69.9737 122.679C70.8719 122.679 71.6806 122.884 72.3999 123.295C73.1224 123.703 73.6925 124.296 74.1101 125.075C74.531 125.854 74.7415 126.799 74.7415 127.909ZM72.5589 127.909C72.5589 127.19 72.4512 126.583 72.2358 126.089C72.0237 125.596 71.7237 125.221 71.3359 124.966C70.9482 124.711 70.4941 124.583 69.9737 124.583C69.4534 124.583 68.9993 124.711 68.6115 124.966C68.2237 125.221 67.9221 125.596 67.7067 126.089C67.4946 126.583 67.3885 127.19 67.3885 127.909C67.3885 128.628 67.4946 129.235 67.7067 129.729C67.9221 130.223 68.2237 130.597 68.6115 130.852C68.9993 131.107 69.4534 131.235 69.9737 131.235C70.4941 131.235 70.9482 131.107 71.3359 130.852C71.7237 130.597 72.0237 130.223 72.2358 129.729C72.4512 129.235 72.5589 128.628 72.5589 127.909ZM79.8681 125.364V126.955H75.2694V125.364H79.8681ZM76.3134 123.534H78.4313V130.653C78.4313 130.849 78.4612 131.001 78.5208 131.111C78.5805 131.217 78.6634 131.291 78.7694 131.335C78.8788 131.378 79.0047 131.399 79.1473 131.399C79.2467 131.399 79.3461 131.391 79.4455 131.374C79.545 131.354 79.6212 131.339 79.6742 131.33L80.0073 132.906C79.9013 132.939 79.7521 132.977 79.5599 133.02C79.3677 133.066 79.134 133.094 78.8589 133.104C78.3485 133.124 77.901 133.056 77.5166 132.901C77.1354 132.745 76.8388 132.503 76.6267 132.175C76.4145 131.847 76.3101 131.432 76.3134 130.932V123.534ZM83.0397 128.585V133H80.9218V122.818H82.9801V126.711H83.0695C83.2419 126.26 83.5203 125.907 83.9048 125.652C84.2892 125.393 84.7715 125.264 85.3515 125.264C85.8818 125.264 86.3442 125.38 86.7386 125.612C87.1363 125.841 87.4445 126.171 87.6633 126.602C87.8854 127.029 87.9947 127.541 87.9914 128.138V133H85.8735V128.516C85.8768 128.045 85.7575 127.679 85.5156 127.417C85.2769 127.155 84.9422 127.024 84.5113 127.024C84.2229 127.024 83.9677 127.085 83.7457 127.208C83.5269 127.331 83.3546 127.51 83.2286 127.745C83.106 127.977 83.043 128.257 83.0397 128.585ZM92.6483 133.149C91.8627 133.149 91.1866 132.99 90.6198 132.672C90.0564 132.35 89.6222 131.896 89.3173 131.31C89.0124 130.72 88.8599 130.022 88.8599 129.217C88.8599 128.431 89.0124 127.742 89.3173 127.148C89.6222 126.555 90.0514 126.093 90.6049 125.761C91.1617 125.43 91.8147 125.264 92.5637 125.264C93.0675 125.264 93.5365 125.345 93.9707 125.508C94.4082 125.667 94.7894 125.907 95.1142 126.229C95.4423 126.55 95.6975 126.955 95.8798 127.442C96.0621 127.926 96.1532 128.492 96.1532 129.142V129.724H89.7051V128.411H94.1596C94.1596 128.106 94.0933 127.836 93.9608 127.601C93.8282 127.366 93.6442 127.182 93.4089 127.049C93.1769 126.913 92.9068 126.845 92.5985 126.845C92.277 126.845 91.992 126.92 91.7434 127.069C91.4982 127.215 91.3059 127.412 91.1667 127.661C91.0275 127.906 90.9563 128.179 90.9529 128.481V129.729C90.9529 130.107 91.0225 130.433 91.1617 130.708C91.3043 130.983 91.5048 131.195 91.7633 131.344C92.0218 131.494 92.3284 131.568 92.6831 131.568C92.9184 131.568 93.1338 131.535 93.3294 131.469C93.5249 131.402 93.6923 131.303 93.8315 131.17C93.9707 131.038 94.0768 130.875 94.1497 130.683L96.1085 130.812C96.009 131.283 95.8052 131.694 95.497 132.045C95.1921 132.393 94.7976 132.665 94.3137 132.861C93.8331 133.053 93.278 133.149 92.6483 133.149ZM97.0453 133V125.364H99.0986V126.696H99.1781C99.3173 126.222 99.551 125.864 99.8791 125.622C100.207 125.377 100.585 125.254 101.013 125.254C101.119 125.254 101.233 125.261 101.356 125.274C101.478 125.287 101.586 125.306 101.679 125.329V127.208C101.579 127.178 101.442 127.152 101.266 127.129C101.091 127.105 100.93 127.094 100.784 127.094C100.472 127.094 100.194 127.162 99.9487 127.298C99.7068 127.43 99.5146 127.616 99.372 127.854C99.2328 128.093 99.1632 128.368 99.1632 128.68V133H97.0453ZM108.638 127.541L106.699 127.661C106.665 127.495 106.594 127.346 106.485 127.213C106.375 127.077 106.231 126.969 106.052 126.89C105.877 126.807 105.666 126.766 105.421 126.766C105.093 126.766 104.816 126.835 104.591 126.974C104.365 127.11 104.253 127.293 104.253 127.521C104.253 127.704 104.326 127.858 104.471 127.984C104.617 128.11 104.867 128.211 105.222 128.287L106.604 128.565C107.347 128.718 107.9 128.963 108.265 129.301C108.629 129.639 108.812 130.083 108.812 130.634C108.812 131.134 108.664 131.573 108.369 131.951C108.077 132.329 107.676 132.624 107.166 132.836C106.659 133.045 106.074 133.149 105.411 133.149C104.4 133.149 103.595 132.939 102.995 132.518C102.398 132.094 102.049 131.517 101.946 130.788L104.029 130.678C104.092 130.987 104.244 131.222 104.486 131.384C104.728 131.543 105.038 131.623 105.416 131.623C105.787 131.623 106.085 131.552 106.311 131.409C106.54 131.263 106.656 131.076 106.659 130.847C106.656 130.655 106.574 130.498 106.415 130.375C106.256 130.249 106.011 130.153 105.679 130.087L104.357 129.823C103.611 129.674 103.056 129.415 102.692 129.048C102.33 128.68 102.15 128.211 102.15 127.641C102.15 127.15 102.282 126.728 102.547 126.373C102.816 126.018 103.192 125.745 103.676 125.553C104.163 125.36 104.733 125.264 105.386 125.264C106.351 125.264 107.11 125.468 107.663 125.876C108.22 126.283 108.545 126.839 108.638 127.541Z"
        fill="#AAADC0" />
    <defs>
        <filter id="filter0_f_5719_16769" x="24.5" y="99" width="125" height="104"
            filterUnits="userSpaceOnUse" color-interpolation-filters="sRGB">
            <feFlood flood-opacity="0" result="BackgroundImageFix" />
            <feBlend mode="normal" in="SourceGraphic" in2="BackgroundImageFix" result="shape" />
            <feGaussianBlur stdDeviation="12.5" result="effect1_foregroundBlur_5719_16769" />
        </filter>
        <filter id="filter1_f_5719_16769" x="144.5" y="80" width="141" height="127"
            filterUnits="userSpaceOnUse" color-interpolation-filters="sRGB">
            <feFlood flood-opacity="0" result="BackgroundImageFix" />
            <feBlend mode="normal" in="SourceGraphic" in2="BackgroundImageFix" result="shape" />
            <feGaussianBlur stdDeviation="12.5" result="effect1_foregroundBlur_5719_16769" />
        </filter>
        <clipPath id="clip0_5719_16769">
            <rect width="54" height="9" fill="white" transform="translate(188.5 124)" />
        </clipPath>
    </defs>
</svg>