<svg width="322" height="234" viewBox="0 0 322 234" fill="none" xmlns="http://www.w3.org/2000/svg">
<rect width="322" height="234" rx="5" fill="white"/>
<rect x="19" y="16" width="285" height="201" rx="5" fill="#F8FAFF"/>
<g opacity="0.5">
<path d="M63 63V202" stroke="#EBEBF1" stroke-width="2" stroke-linecap="round"/>
<path d="M119 63V202" stroke="#EBEBF1" stroke-width="2" stroke-linecap="round"/>
<path d="M175 63V202" stroke="#EBEBF1" stroke-width="2" stroke-linecap="round"/>
<path d="M231 63V202" stroke="#EBEBF1" stroke-width="2" stroke-linecap="round"/>
<path d="M287 63V202" stroke="#EBEBF1" stroke-width="2" stroke-linecap="round"/>
</g>
<path d="M110 46.5L61.5 38.5V158.5L262.5 163L287 117.5V34.5L282 37L256.5 46.5L182 39.5L110 46.5Z" fill="url(#paint0_radial_3683_6550)" fill-opacity="0.5"/>
<path d="M53 36L109.5 48.5L181 39.5L257 46L287.5 34.5" stroke="#AAADC0" stroke-width="5" stroke-linecap="round"/>
<circle cx="50.5" cy="35.5" r="12.5" fill="white" stroke="#AAADC0" stroke-width="4"/>
<path d="M50.1832 41.1818V29.3636H50.9403V41.1818H50.1832ZM52.1914 33.2646C52.1544 32.8922 51.9959 32.6029 51.7159 32.3967C51.4358 32.1905 51.0557 32.0874 50.5756 32.0874C50.2494 32.0874 49.9739 32.1335 49.7492 32.2259C49.5246 32.3151 49.3522 32.4397 49.2322 32.5998C49.1152 32.7598 49.0568 32.9414 49.0568 33.1445C49.0506 33.3138 49.086 33.4615 49.163 33.5877C49.243 33.7139 49.3522 33.8232 49.4907 33.9155C49.6292 34.0047 49.7893 34.0832 49.9708 34.1509C50.1524 34.2156 50.3463 34.271 50.5525 34.3171L51.4019 34.5202C51.8143 34.6126 52.1929 34.7357 52.5376 34.8896C52.8823 35.0434 53.1808 35.2327 53.4332 35.4574C53.6856 35.6821 53.881 35.9467 54.0195 36.2514C54.1611 36.5561 54.2334 36.9054 54.2365 37.2994C54.2334 37.878 54.0857 38.3796 53.7933 38.8043C53.504 39.226 53.0854 39.5537 52.5376 39.7876C51.9929 40.0185 51.3358 40.1339 50.5664 40.1339C49.8031 40.1339 49.1383 40.0169 48.572 39.783C48.0088 39.5491 47.5687 39.2029 47.2517 38.7443C46.9378 38.2827 46.7732 37.7118 46.7578 37.0316H48.6921C48.7136 37.3486 48.8044 37.6133 48.9644 37.8256C49.1276 38.0349 49.3445 38.1934 49.6154 38.3011C49.8893 38.4058 50.1986 38.4581 50.5433 38.4581C50.8818 38.4581 51.1757 38.4089 51.425 38.3104C51.6774 38.2119 51.8728 38.0749 52.0113 37.8995C52.1498 37.7241 52.2191 37.5225 52.2191 37.2947C52.2191 37.0824 52.156 36.9039 52.0298 36.7592C51.9067 36.6146 51.7251 36.4915 51.485 36.3899C51.2481 36.2884 50.9572 36.196 50.6125 36.1129L49.5831 35.8544C48.7859 35.6605 48.1566 35.3574 47.6949 34.945C47.2333 34.5326 47.004 33.977 47.0071 33.2784C47.004 32.706 47.1563 32.2058 47.4641 31.7781C47.7749 31.3503 48.2012 31.0163 48.7429 30.7763C49.2845 30.5362 49.9001 30.4162 50.5894 30.4162C51.2911 30.4162 51.9036 30.5362 52.4268 30.7763C52.9531 31.0163 53.3624 31.3503 53.6548 31.7781C53.9472 32.2058 54.098 32.7013 54.1072 33.2646H52.1914Z" fill="#AAADC0"/>
<path d="M109 112.5L63 98V172.5L287 179.5V161.5L255 154L179.5 114.5L109 112.5Z" fill="url(#paint1_radial_3683_6550)" fill-opacity="0.74"/>
<path d="M63.5 98L110 113L180.5 115L256.5 154L286 160" stroke="#4959E7" stroke-width="5" stroke-linecap="round"/>
<circle cx="110" cy="113" r="7" fill="white" stroke="#4959E7" stroke-width="4"/>
<circle cx="181" cy="115" r="7" fill="white" stroke="#4959E7" stroke-width="4"/>
<circle cx="257" cy="154" r="7" fill="white" stroke="#4959E7" stroke-width="4"/>
<circle cx="53.5" cy="95.5" r="12.5" fill="white" stroke="#4959E7" stroke-width="4"/>
<path d="M53.1832 101.182V89.3636H53.9403V101.182H53.1832ZM55.1914 93.2646C55.1544 92.8922 54.9959 92.6029 54.7159 92.3967C54.4358 92.1905 54.0557 92.0874 53.5756 92.0874C53.2494 92.0874 52.9739 92.1335 52.7492 92.2259C52.5246 92.3151 52.3522 92.4397 52.2322 92.5998C52.1152 92.7598 52.0568 92.9414 52.0568 93.1445C52.0506 93.3138 52.086 93.4615 52.163 93.5877C52.243 93.7139 52.3522 93.8232 52.4907 93.9155C52.6292 94.0047 52.7893 94.0832 52.9708 94.1509C53.1524 94.2156 53.3463 94.271 53.5525 94.3171L54.4019 94.5202C54.8143 94.6126 55.1929 94.7357 55.5376 94.8896C55.8823 95.0434 56.1808 95.2327 56.4332 95.4574C56.6856 95.6821 56.881 95.9467 57.0195 96.2514C57.1611 96.5561 57.2334 96.9054 57.2365 97.2994C57.2334 97.878 57.0857 98.3796 56.7933 98.8043C56.504 99.226 56.0854 99.5537 55.5376 99.7876C54.9929 100.018 54.3358 100.134 53.5664 100.134C52.8031 100.134 52.1383 100.017 51.572 99.783C51.0088 99.5491 50.5687 99.2029 50.2517 98.7443C49.9378 98.2827 49.7732 97.7118 49.7578 97.0316H51.6921C51.7136 97.3486 51.8044 97.6133 51.9644 97.8256C52.1276 98.0349 52.3445 98.1934 52.6154 98.3011C52.8893 98.4058 53.1986 98.4581 53.5433 98.4581C53.8818 98.4581 54.1757 98.4089 54.425 98.3104C54.6774 98.2119 54.8728 98.0749 55.0113 97.8995C55.1498 97.7241 55.2191 97.5225 55.2191 97.2947C55.2191 97.0824 55.156 96.9039 55.0298 96.7592C54.9067 96.6146 54.7251 96.4915 54.485 96.3899C54.2481 96.2884 53.9572 96.196 53.6125 96.1129L52.5831 95.8544C51.7859 95.6605 51.1566 95.3574 50.6949 94.945C50.2333 94.5326 50.004 93.977 50.0071 93.2784C50.004 92.706 50.1563 92.2058 50.4641 91.7781C50.7749 91.3503 51.2012 91.0163 51.7429 90.7763C52.2845 90.5362 52.9001 90.4162 53.5894 90.4162C54.2911 90.4162 54.9036 90.5362 55.4268 90.7763C55.9531 91.0163 56.3624 91.3503 56.6548 91.7781C56.9472 92.2058 57.098 92.7013 57.1072 93.2646H55.1914Z" fill="#4959E7"/>
<g filter="url(#filter0_d_3683_6550)">
<rect x="57" y="170" width="98" height="34" rx="2" fill="white"/>
</g>
<circle cx="80.5" cy="187" r="8.18966" fill="white" stroke="#AAADC0" stroke-width="2.62069"/>
<path d="M80.2498 191.933V182.6H80.8477V191.933H80.2498ZM81.8357 185.681C81.8066 185.387 81.6814 185.158 81.4602 184.995C81.239 184.832 80.9389 184.751 80.5597 184.751C80.3021 184.751 80.0845 184.787 79.9071 184.86C79.7297 184.931 79.5936 185.029 79.4988 185.156C79.4064 185.282 79.3602 185.426 79.3602 185.586C79.3554 185.72 79.3833 185.836 79.4441 185.936C79.5073 186.036 79.5936 186.122 79.7029 186.195C79.8123 186.265 79.9387 186.327 80.0821 186.381C80.2255 186.432 80.3786 186.476 80.5415 186.512L81.2123 186.672C81.538 186.745 81.837 186.843 82.1092 186.964C82.3814 187.086 82.6172 187.235 82.8165 187.412C83.0158 187.59 83.1701 187.799 83.2795 188.04C83.3913 188.28 83.4484 188.556 83.4508 188.867C83.4484 189.324 83.3317 189.72 83.1008 190.056C82.8724 190.389 82.5418 190.648 82.1092 190.832C81.679 191.015 81.16 191.106 80.5524 191.106C79.9496 191.106 79.4246 191.013 78.9774 190.829C78.5326 190.644 78.185 190.37 77.9347 190.008C77.6868 189.644 77.5567 189.193 77.5446 188.656H79.0722C79.0892 188.906 79.1609 189.115 79.2873 189.283C79.4161 189.448 79.5875 189.573 79.8014 189.658C80.0177 189.741 80.262 189.782 80.5342 189.782C80.8015 189.782 81.0337 189.743 81.2305 189.666C81.4298 189.588 81.5842 189.48 81.6936 189.341C81.8029 189.203 81.8576 189.043 81.8576 188.864C81.8576 188.696 81.8078 188.555 81.7081 188.441C81.6109 188.326 81.4675 188.229 81.2779 188.149C81.0908 188.069 80.8611 187.996 80.5889 187.93L79.7758 187.726C79.1463 187.573 78.6493 187.334 78.2847 187.008C77.9201 186.682 77.739 186.243 77.7415 185.692C77.739 185.24 77.8594 184.845 78.1024 184.507C78.3479 184.169 78.6845 183.905 79.1123 183.716C79.5401 183.526 80.0262 183.431 80.5706 183.431C81.1248 183.431 81.6085 183.526 82.0217 183.716C82.4373 183.905 82.7606 184.169 82.9915 184.507C83.2224 184.845 83.3415 185.236 83.3488 185.681H81.8357Z" fill="#AAADC0"/>
<path d="M107.241 186.909C107.241 188.019 107.031 188.964 106.61 189.743C106.192 190.522 105.622 191.117 104.9 191.528C104.181 191.935 103.372 192.139 102.474 192.139C101.569 192.139 100.757 191.934 100.038 191.523C99.3184 191.112 98.75 190.517 98.3324 189.738C97.9148 188.959 97.706 188.016 97.706 186.909C97.706 185.799 97.9148 184.854 98.3324 184.075C98.75 183.296 99.3184 182.703 100.038 182.295C100.757 181.884 101.569 181.679 102.474 181.679C103.372 181.679 104.181 181.884 104.9 182.295C105.622 182.703 106.192 183.296 106.61 184.075C107.031 184.854 107.241 185.799 107.241 186.909ZM105.059 186.909C105.059 186.19 104.951 185.583 104.736 185.089C104.524 184.596 104.224 184.221 103.836 183.966C103.448 183.711 102.994 183.583 102.474 183.583C101.953 183.583 101.499 183.711 101.112 183.966C100.724 184.221 100.422 184.596 100.207 185.089C99.9946 185.583 99.8885 186.19 99.8885 186.909C99.8885 187.628 99.9946 188.235 100.207 188.729C100.422 189.223 100.724 189.597 101.112 189.852C101.499 190.107 101.953 190.235 102.474 190.235C102.994 190.235 103.448 190.107 103.836 189.852C104.224 189.597 104.524 189.223 104.736 188.729C104.951 188.235 105.059 187.628 105.059 186.909ZM112.368 184.364V185.955H107.769V184.364H112.368ZM108.813 182.534H110.931V189.653C110.931 189.849 110.961 190.001 111.021 190.111C111.08 190.217 111.163 190.291 111.269 190.335C111.379 190.378 111.505 190.399 111.647 190.399C111.747 190.399 111.846 190.391 111.946 190.374C112.045 190.354 112.121 190.339 112.174 190.33L112.507 191.906C112.401 191.939 112.252 191.977 112.06 192.02C111.868 192.066 111.634 192.094 111.359 192.104C110.848 192.124 110.401 192.056 110.017 191.901C109.635 191.745 109.339 191.503 109.127 191.175C108.915 190.847 108.81 190.432 108.813 189.932V182.534ZM115.54 187.585V192H113.422V181.818H115.48V185.711H115.57C115.742 185.26 116.02 184.907 116.405 184.652C116.789 184.393 117.271 184.264 117.851 184.264C118.382 184.264 118.844 184.38 119.239 184.612C119.636 184.841 119.945 185.171 120.163 185.602C120.385 186.029 120.495 186.541 120.491 187.138V192H118.374V187.516C118.377 187.045 118.258 186.679 118.016 186.417C117.777 186.155 117.442 186.024 117.011 186.024C116.723 186.024 116.468 186.085 116.246 186.208C116.027 186.331 115.855 186.51 115.729 186.745C115.606 186.977 115.543 187.257 115.54 187.585ZM125.148 192.149C124.363 192.149 123.687 191.99 123.12 191.672C122.556 191.35 122.122 190.896 121.817 190.31C121.512 189.72 121.36 189.022 121.36 188.217C121.36 187.431 121.512 186.742 121.817 186.148C122.122 185.555 122.551 185.093 123.105 184.761C123.662 184.43 124.315 184.264 125.064 184.264C125.568 184.264 126.037 184.345 126.471 184.508C126.908 184.667 127.289 184.907 127.614 185.229C127.942 185.55 128.197 185.955 128.38 186.442C128.562 186.926 128.653 187.492 128.653 188.142V188.724H122.205V187.411H126.66C126.66 187.106 126.593 186.836 126.461 186.601C126.328 186.366 126.144 186.182 125.909 186.049C125.677 185.913 125.407 185.845 125.099 185.845C124.777 185.845 124.492 185.92 124.243 186.069C123.998 186.215 123.806 186.412 123.667 186.661C123.528 186.906 123.456 187.179 123.453 187.481V188.729C123.453 189.107 123.523 189.433 123.662 189.708C123.804 189.983 124.005 190.195 124.263 190.344C124.522 190.494 124.828 190.568 125.183 190.568C125.418 190.568 125.634 190.535 125.829 190.469C126.025 190.402 126.192 190.303 126.331 190.17C126.471 190.038 126.577 189.875 126.65 189.683L128.608 189.812C128.509 190.283 128.305 190.694 127.997 191.045C127.692 191.393 127.298 191.665 126.814 191.861C126.333 192.053 125.778 192.149 125.148 192.149ZM129.545 192V184.364H131.599V185.696H131.678C131.817 185.222 132.051 184.864 132.379 184.622C132.707 184.377 133.085 184.254 133.513 184.254C133.619 184.254 133.733 184.261 133.856 184.274C133.978 184.287 134.086 184.306 134.179 184.329V186.208C134.079 186.178 133.942 186.152 133.766 186.129C133.591 186.105 133.43 186.094 133.284 186.094C132.972 186.094 132.694 186.162 132.449 186.298C132.207 186.43 132.015 186.616 131.872 186.854C131.733 187.093 131.663 187.368 131.663 187.68V192H129.545ZM141.138 186.541L139.199 186.661C139.165 186.495 139.094 186.346 138.985 186.213C138.875 186.077 138.731 185.969 138.552 185.89C138.377 185.807 138.166 185.766 137.921 185.766C137.593 185.766 137.316 185.835 137.091 185.974C136.865 186.11 136.753 186.293 136.753 186.521C136.753 186.704 136.826 186.858 136.971 186.984C137.117 187.11 137.367 187.211 137.722 187.287L139.104 187.565C139.847 187.718 140.4 187.963 140.765 188.301C141.129 188.639 141.312 189.083 141.312 189.634C141.312 190.134 141.164 190.573 140.869 190.951C140.577 191.329 140.176 191.624 139.666 191.836C139.159 192.045 138.574 192.149 137.911 192.149C136.9 192.149 136.095 191.939 135.495 191.518C134.898 191.094 134.549 190.517 134.446 189.788L136.529 189.678C136.592 189.987 136.744 190.222 136.986 190.384C137.228 190.543 137.538 190.623 137.916 190.623C138.287 190.623 138.585 190.552 138.811 190.409C139.04 190.263 139.156 190.076 139.159 189.847C139.156 189.655 139.074 189.498 138.915 189.375C138.756 189.249 138.511 189.153 138.179 189.087L136.857 188.823C136.111 188.674 135.556 188.415 135.192 188.048C134.83 187.68 134.65 187.211 134.65 186.641C134.65 186.15 134.782 185.728 135.047 185.373C135.316 185.018 135.692 184.745 136.176 184.553C136.663 184.36 137.233 184.264 137.886 184.264C138.851 184.264 139.61 184.468 140.163 184.876C140.72 185.283 141.045 185.839 141.138 186.541Z" fill="#AAADC0"/>
<g filter="url(#filter1_d_3683_6550)">
<rect x="165" y="170" width="98" height="34" rx="2" fill="white"/>
</g>
<circle cx="183.5" cy="187.5" r="8.18966" fill="white" stroke="#4959E7" stroke-width="2.62069"/>
<path d="M183.25 191.933V182.6H183.848V191.933H183.25ZM184.836 185.681C184.807 185.387 184.681 185.158 184.46 184.995C184.239 184.832 183.939 184.751 183.56 184.751C183.302 184.751 183.085 184.787 182.907 184.86C182.73 184.931 182.594 185.029 182.499 185.156C182.406 185.282 182.36 185.426 182.36 185.586C182.355 185.72 182.383 185.836 182.444 185.936C182.507 186.036 182.594 186.122 182.703 186.195C182.812 186.265 182.939 186.327 183.082 186.381C183.225 186.432 183.379 186.476 183.541 186.512L184.212 186.672C184.538 186.745 184.837 186.843 185.109 186.964C185.381 187.086 185.617 187.235 185.816 187.412C186.016 187.59 186.17 187.799 186.279 188.04C186.391 188.28 186.448 188.556 186.451 188.867C186.448 189.324 186.332 189.72 186.101 190.056C185.872 190.389 185.542 190.648 185.109 190.832C184.679 191.015 184.16 191.106 183.552 191.106C182.95 191.106 182.425 191.013 181.977 190.829C181.533 190.644 181.185 190.37 180.935 190.008C180.687 189.644 180.557 189.193 180.545 188.656H182.072C182.089 188.906 182.161 189.115 182.287 189.283C182.416 189.448 182.587 189.573 182.801 189.658C183.018 189.741 183.262 189.782 183.534 189.782C183.802 189.782 184.034 189.743 184.231 189.666C184.43 189.588 184.584 189.48 184.694 189.341C184.803 189.203 184.858 189.043 184.858 188.864C184.858 188.696 184.808 188.555 184.708 188.441C184.611 188.326 184.468 188.229 184.278 188.149C184.091 188.069 183.861 187.996 183.589 187.93L182.776 187.726C182.146 187.573 181.649 187.334 181.285 187.008C180.92 186.682 180.739 186.243 180.741 185.692C180.739 185.24 180.859 184.845 181.102 184.507C181.348 184.169 181.685 183.905 182.112 183.716C182.54 183.526 183.026 183.431 183.571 183.431C184.125 183.431 184.608 183.526 185.022 183.716C185.437 183.905 185.761 184.169 185.991 184.507C186.222 184.845 186.341 185.236 186.349 185.681H184.836Z" fill="#4959E7"/>
<g clip-path="url(#clip0_3683_6550)">
<path fill-rule="evenodd" clip-rule="evenodd" d="M210.977 191.994C211.469 191.999 211.958 191.906 212.414 191.721C212.87 191.535 213.284 191.261 213.633 190.914C213.982 190.566 214.258 190.153 214.446 189.698C214.633 189.243 214.728 188.755 214.725 188.263C214.702 187.285 214.297 186.354 213.596 185.67C212.895 184.986 211.955 184.604 210.976 184.604C209.996 184.604 209.056 184.986 208.355 185.67C207.655 186.354 207.25 187.285 207.227 188.263C207.223 188.755 207.318 189.243 207.506 189.699C207.693 190.154 207.97 190.567 208.319 190.915C208.668 191.262 209.083 191.536 209.539 191.722C209.995 191.907 210.484 192 210.977 191.994ZM210.977 189.993C209.975 189.993 209.287 189.253 209.287 188.263C209.287 187.273 209.975 186.531 210.977 186.531C211.978 186.531 212.664 187.271 212.664 188.263C212.664 189.256 211.976 189.995 210.977 189.995V189.993Z" fill="#4959E7"/>
<path fill-rule="evenodd" clip-rule="evenodd" d="M227.731 189.078C227.783 188.81 227.808 188.537 227.807 188.264C227.807 186.185 226.336 184.531 224.215 184.531C222.048 184.531 220.453 186.084 220.453 188.264C220.453 190.544 222.134 191.995 224.368 191.995C225.604 191.995 226.684 191.583 227.424 190.579L225.775 189.634C225.403 189.986 224.907 190.176 224.395 190.165C223.62 190.165 222.922 189.918 222.637 189.135L222.615 189.078H227.731ZM222.6 187.509C222.806 186.728 223.404 186.347 224.201 186.347C224.555 186.328 224.905 186.434 225.189 186.647C225.473 186.859 225.674 187.164 225.757 187.509L225.771 187.562H222.586L222.6 187.509Z" fill="#4959E7"/>
<path fill-rule="evenodd" clip-rule="evenodd" d="M218.692 184.73H219.949V186.759H218.692C218.403 186.76 218.126 186.876 217.921 187.08C217.716 187.284 217.6 187.561 217.598 187.85V191.795H215.57V187.85C215.572 187.023 215.902 186.231 216.487 185.647C217.072 185.062 217.865 184.733 218.692 184.73Z" fill="#4959E7"/>
<path fill-rule="evenodd" clip-rule="evenodd" d="M204.086 182.996H206.48V185.018H204.086C203.54 185.021 203.018 185.239 202.632 185.625C202.247 186.01 202.029 186.532 202.025 187.077V187.711C202.029 188.256 202.247 188.778 202.632 189.164C203.018 189.549 203.54 189.767 204.086 189.77H206.48V191.792H204.086C203.004 191.79 201.967 191.359 201.201 190.595C200.436 189.831 200.004 188.795 200 187.713V187.079C200.003 185.997 200.434 184.96 201.2 184.195C201.965 183.43 203.003 182.999 204.086 182.996Z" fill="#4959E7"/>
<path fill-rule="evenodd" clip-rule="evenodd" d="M251.603 182.996H253.998V185.018H251.603C251.058 185.021 250.536 185.239 250.15 185.625C249.764 186.01 249.546 186.532 249.543 187.077V187.711C249.546 188.256 249.764 188.778 250.15 189.164C250.536 189.549 251.058 189.767 251.603 189.77H253.998V191.792H251.603C250.521 191.789 249.484 191.358 248.719 190.593C247.953 189.828 247.522 188.791 247.52 187.709V187.079C247.522 185.997 247.953 184.961 248.719 184.196C249.484 183.431 250.521 182.999 251.603 182.996V182.996Z" fill="#4959E7"/>
<path fill-rule="evenodd" clip-rule="evenodd" d="M232.814 188.055V191.796H230.715V182.996H232.814V185.963H233.01C233.444 185.964 233.874 185.876 234.273 185.704C234.672 185.533 235.032 185.282 235.33 184.967C235.853 184.445 236.191 183.767 236.292 183.035V182.996H238.396V183.046C238.281 184.327 237.719 185.528 236.808 186.437C236.456 186.788 236.058 187.091 235.625 187.337L235.433 187.446L238.676 191.796H236.06L233.35 188.055H232.814Z" fill="#4959E7"/>
<path fill-rule="evenodd" clip-rule="evenodd" d="M244.42 188.504V191.796H242.405V188.502L239.359 182.996H241.636L243.441 186.307L245.17 182.996H247.364L244.42 188.504Z" fill="#4959E7"/>
</g>
<circle cx="257" cy="46" r="7" fill="white" stroke="#AAADC0" stroke-width="4"/>
<circle cx="181" cy="40" r="7" fill="white" stroke="#AAADC0" stroke-width="4"/>
<circle cx="110" cy="48" r="7" fill="white" stroke="#AAADC0" stroke-width="4"/>
<defs>
<filter id="filter0_d_3683_6550" x="38" y="152" width="136" height="72" filterUnits="userSpaceOnUse" color-interpolation-filters="sRGB">
<feFlood flood-opacity="0" result="BackgroundImageFix"/>
<feColorMatrix in="SourceAlpha" type="matrix" values="0 0 0 0 0 0 0 0 0 0 0 0 0 0 0 0 0 0 127 0" result="hardAlpha"/>
<feOffset dy="1"/>
<feGaussianBlur stdDeviation="9.5"/>
<feComposite in2="hardAlpha" operator="out"/>
<feColorMatrix type="matrix" values="0 0 0 0 0 0 0 0 0 0 0 0 0 0 0 0 0 0 0.07 0"/>
<feBlend mode="normal" in2="BackgroundImageFix" result="effect1_dropShadow_3683_6550"/>
<feBlend mode="normal" in="SourceGraphic" in2="effect1_dropShadow_3683_6550" result="shape"/>
</filter>
<filter id="filter1_d_3683_6550" x="146" y="152" width="136" height="72" filterUnits="userSpaceOnUse" color-interpolation-filters="sRGB">
<feFlood flood-opacity="0" result="BackgroundImageFix"/>
<feColorMatrix in="SourceAlpha" type="matrix" values="0 0 0 0 0 0 0 0 0 0 0 0 0 0 0 0 0 0 127 0" result="hardAlpha"/>
<feOffset dy="1"/>
<feGaussianBlur stdDeviation="9.5"/>
<feComposite in2="hardAlpha" operator="out"/>
<feColorMatrix type="matrix" values="0 0 0 0 0 0 0 0 0 0 0 0 0 0 0 0 0 0 0.07 0"/>
<feBlend mode="normal" in2="BackgroundImageFix" result="effect1_dropShadow_3683_6550"/>
<feBlend mode="normal" in="SourceGraphic" in2="effect1_dropShadow_3683_6550" result="shape"/>
</filter>
<radialGradient id="paint0_radial_3683_6550" cx="0" cy="0" r="1" gradientUnits="userSpaceOnUse" gradientTransform="translate(167 21.5) rotate(91.7899) scale(96.0469 209.432)">
<stop stop-color="#969696"/>
<stop offset="1" stop-color="white" stop-opacity="0"/>
</radialGradient>
<radialGradient id="paint1_radial_3683_6550" cx="0" cy="0" r="1" gradientUnits="userSpaceOnUse" gradientTransform="translate(180.5 105.5) rotate(100.222) scale(61.9839 95.9653)">
<stop stop-color="#CAD1F8"/>
<stop offset="1" stop-color="#D0D7FF" stop-opacity="0"/>
</radialGradient>
<clipPath id="clip0_3683_6550">
<rect width="54" height="9" fill="white" transform="translate(200 183)"/>
</clipPath>
</defs>
</svg>
