<svg width="323" height="234" viewBox="0 0 323 234" fill="none" xmlns="http://www.w3.org/2000/svg">
    <rect x="0.5" width="322" height="234" rx="5" fill="white" />
    <rect x="19.5" y="16" width="285" height="201" rx="5" fill="#F8FAFF" />
    <g opacity="0.5">
        <path d="M63.5 63V202" stroke="#EBEBF1" stroke-width="2" stroke-linecap="round" />
        <path d="M119.5 63V202" stroke="#EBEBF1" stroke-width="2" stroke-linecap="round" />
        <path d="M175.5 63V202" stroke="#EBEBF1" stroke-width="2" stroke-linecap="round" />
        <path d="M231.5 63V202" stroke="#EBEBF1" stroke-width="2" stroke-linecap="round" />
        <path d="M287.5 63V202" stroke="#EBEBF1" stroke-width="2" stroke-linecap="round" />
    </g>
    <path d="M110.5 56.5H62V168.5L263 173L287.5 127.5V44.5L282.5 47L257 56.5L182.5 49.5L110.5 56.5Z"
        fill="url(#paint0_radial_5719_16760)" fill-opacity="0.5" />
    <path d="M53.5 56L110 58.5L181.5 49.5L257.5 56L288 44.5" stroke="#AAADC0" stroke-width="3"
        stroke-linecap="round" />
    <circle cx="51" cy="55.5" r="12.5" fill="white" stroke="#AAADC0" stroke-width="4" />
    <path
        d="M50.6392 61.0909V50.1818H51.3381V61.0909H50.6392ZM52.4929 53.7827C52.4588 53.4389 52.3125 53.1719 52.054 52.9815C51.7955 52.7912 51.4446 52.696 51.0014 52.696C50.7003 52.696 50.446 52.7386 50.2386 52.8239C50.0313 52.9062 49.8722 53.0213 49.7614 53.169C49.6534 53.3168 49.5994 53.4844 49.5994 53.6719C49.5938 53.8281 49.6264 53.9645 49.6974 54.081C49.7713 54.1974 49.8722 54.2983 50 54.3835C50.1278 54.4659 50.2756 54.5384 50.4432 54.6009C50.6108 54.6605 50.7898 54.7116 50.9801 54.7543L51.7642 54.9418C52.1449 55.027 52.4943 55.1406 52.8125 55.2827C53.1307 55.4247 53.4063 55.5994 53.6392 55.8068C53.8722 56.0142 54.0526 56.2585 54.1804 56.5398C54.3111 56.821 54.3778 57.1435 54.3807 57.5071C54.3778 58.0412 54.2415 58.5043 53.9716 58.8963C53.7045 59.2855 53.3182 59.5881 52.8125 59.804C52.3097 60.017 51.7031 60.1236 50.9929 60.1236C50.2884 60.1236 49.6747 60.0156 49.152 59.7997C48.6321 59.5838 48.2259 59.2642 47.9332 58.8409C47.6435 58.4148 47.4915 57.8878 47.4773 57.2599H49.2628C49.2827 57.5526 49.3665 57.7969 49.5142 57.9929C49.6648 58.1861 49.8651 58.3324 50.1151 58.4318C50.3679 58.5284 50.6534 58.5767 50.9716 58.5767C51.2841 58.5767 51.5554 58.5312 51.7855 58.4403C52.0185 58.3494 52.1989 58.223 52.3267 58.0611C52.4545 57.8991 52.5185 57.7131 52.5185 57.5028C52.5185 57.3068 52.4602 57.142 52.3438 57.0085C52.2301 56.875 52.0625 56.7614 51.8409 56.6676C51.6222 56.5739 51.3537 56.4886 51.0355 56.4119L50.0852 56.1733C49.3494 55.9943 48.7685 55.7145 48.3423 55.3338C47.9162 54.9531 47.7045 54.4403 47.7074 53.7955C47.7045 53.267 47.8452 52.8054 48.1293 52.4105C48.4162 52.0156 48.8097 51.7074 49.3097 51.4858C49.8097 51.2642 50.3778 51.1534 51.0142 51.1534C51.6619 51.1534 52.2273 51.2642 52.7102 51.4858C53.196 51.7074 53.5739 52.0156 53.8438 52.4105C54.1136 52.8054 54.2528 53.2628 54.2614 53.7827H52.4929Z"
        fill="#AAADC0" />
    <path d="M109.5 142.5L63.5 128V202.5L287.5 209.5V191.5L255.5 184L180 144.5L109.5 142.5Z"
        fill="url(#paint1_radial_5719_16760)" fill-opacity="0.74" />
    <path d="M64 128L110.5 143L181 145L257 184L286.5 190" stroke="#4959E7" stroke-width="3"
        stroke-linecap="round" />
    <circle cx="110.5" cy="143" r="7" fill="white" stroke="#4959E7" stroke-width="4" />
    <circle cx="181.5" cy="145" r="7" fill="white" stroke="#4959E7" stroke-width="4" />
    <circle cx="257.5" cy="184" r="7" fill="white" stroke="#4959E7" stroke-width="4" />
    <circle cx="51" cy="125.5" r="12.5" fill="white" stroke="#4959E7" stroke-width="4" />
    <path
        d="M50.6392 131.091V120.182H51.3381V131.091H50.6392ZM52.4929 123.783C52.4588 123.439 52.3125 123.172 52.054 122.982C51.7955 122.791 51.4446 122.696 51.0014 122.696C50.7003 122.696 50.446 122.739 50.2386 122.824C50.0313 122.906 49.8722 123.021 49.7614 123.169C49.6534 123.317 49.5994 123.484 49.5994 123.672C49.5938 123.828 49.6264 123.964 49.6974 124.081C49.7713 124.197 49.8722 124.298 50 124.384C50.1278 124.466 50.2756 124.538 50.4432 124.601C50.6108 124.661 50.7898 124.712 50.9801 124.754L51.7642 124.942C52.1449 125.027 52.4943 125.141 52.8125 125.283C53.1307 125.425 53.4063 125.599 53.6392 125.807C53.8722 126.014 54.0526 126.259 54.1804 126.54C54.3111 126.821 54.3778 127.143 54.3807 127.507C54.3778 128.041 54.2415 128.504 53.9716 128.896C53.7045 129.286 53.3182 129.588 52.8125 129.804C52.3097 130.017 51.7031 130.124 50.9929 130.124C50.2884 130.124 49.6747 130.016 49.152 129.8C48.6321 129.584 48.2259 129.264 47.9332 128.841C47.6435 128.415 47.4915 127.888 47.4773 127.26H49.2628C49.2827 127.553 49.3665 127.797 49.5142 127.993C49.6648 128.186 49.8651 128.332 50.1151 128.432C50.3679 128.528 50.6534 128.577 50.9716 128.577C51.2841 128.577 51.5554 128.531 51.7855 128.44C52.0185 128.349 52.1989 128.223 52.3267 128.061C52.4545 127.899 52.5185 127.713 52.5185 127.503C52.5185 127.307 52.4602 127.142 52.3438 127.009C52.2301 126.875 52.0625 126.761 51.8409 126.668C51.6222 126.574 51.3537 126.489 51.0355 126.412L50.0852 126.173C49.3494 125.994 48.7685 125.714 48.3423 125.334C47.9162 124.953 47.7045 124.44 47.7074 123.795C47.7045 123.267 47.8452 122.805 48.1293 122.411C48.4162 122.016 48.8097 121.707 49.3097 121.486C49.8097 121.264 50.3778 121.153 51.0142 121.153C51.6619 121.153 52.2273 121.264 52.7102 121.486C53.196 121.707 53.5739 122.016 53.8438 122.411C54.1136 122.805 54.2528 123.263 54.2614 123.783H52.4929Z"
        fill="#4959E7" />
    <path
        d="M39.0099 84.2727C39.0099 85.3037 38.8145 86.1809 38.4237 86.9041C38.0359 87.6274 37.5065 88.1798 36.8356 88.5614C36.1677 88.94 35.4168 89.1293 34.5827 89.1293C33.7425 89.1293 32.9885 88.9384 32.3207 88.5568C31.6528 88.1752 31.125 87.6228 30.7372 86.8995C30.3494 86.1763 30.1555 85.3007 30.1555 84.2727C30.1555 83.2417 30.3494 82.3646 30.7372 81.6413C31.125 80.9181 31.6528 80.3672 32.3207 79.9886C32.9885 79.607 33.7425 79.4162 34.5827 79.4162C35.4168 79.4162 36.1677 79.607 36.8356 79.9886C37.5065 80.3672 38.0359 80.9181 38.4237 81.6413C38.8145 82.3646 39.0099 83.2417 39.0099 84.2727ZM36.9833 84.2727C36.9833 83.6049 36.8833 83.0417 36.6832 82.5831C36.4863 82.1245 36.2077 81.7768 35.8477 81.5398C35.4876 81.3028 35.0659 81.1843 34.5827 81.1843C34.0996 81.1843 33.6779 81.3028 33.3178 81.5398C32.9577 81.7768 32.6777 82.1245 32.4776 82.5831C32.2807 83.0417 32.1822 83.6049 32.1822 84.2727C32.1822 84.9406 32.2807 85.5038 32.4776 85.9624C32.6777 86.4209 32.9577 86.7687 33.3178 87.0057C33.6779 87.2427 34.0996 87.3612 34.5827 87.3612C35.0659 87.3612 35.4876 87.2427 35.8477 87.0057C36.2077 86.7687 36.4863 86.4209 36.6832 85.9624C36.8833 85.5038 36.9833 84.9406 36.9833 84.2727ZM43.7704 81.9091V83.3864H39.5002V81.9091H43.7704ZM40.4696 80.2102H42.4362V86.821C42.4362 87.0026 42.4639 87.1442 42.5193 87.2457C42.5747 87.3442 42.6517 87.4135 42.7502 87.4535C42.8517 87.4935 42.9687 87.5135 43.101 87.5135C43.1933 87.5135 43.2857 87.5058 43.378 87.4904C43.4703 87.4719 43.5411 87.4581 43.5904 87.4489L43.8997 88.9123C43.8012 88.9431 43.6627 88.9785 43.4842 89.0185C43.3057 89.0616 43.0887 89.0877 42.8333 89.0969C42.3593 89.1154 41.9438 89.0523 41.5868 88.9077C41.2329 88.763 40.9574 88.5384 40.7605 88.2337C40.5635 87.929 40.4665 87.5443 40.4696 87.0795V80.2102ZM46.7154 84.9006V89H44.7488V79.5455H46.66V83.1602H46.7431C46.9032 82.7416 47.1617 82.4138 47.5187 82.1768C47.8757 81.9368 48.3235 81.8168 48.8621 81.8168C49.3545 81.8168 49.7839 81.9245 50.1501 82.1399C50.5194 82.3523 50.8056 82.6585 51.0088 83.0586C51.215 83.4556 51.3165 83.9311 51.3135 84.4851V89H49.3468V84.8359C49.3499 84.3989 49.2391 84.0588 49.0145 83.8157C48.7929 83.5726 48.482 83.451 48.0819 83.451C47.8142 83.451 47.5772 83.5079 47.371 83.6218C47.1679 83.7357 47.0078 83.9019 46.8909 84.1204C46.777 84.3358 46.7185 84.5959 46.7154 84.9006ZM55.6377 89.1385C54.9083 89.1385 54.2804 88.9908 53.7541 88.6953C53.2309 88.3968 52.8278 87.9751 52.5446 87.4304C52.2615 86.8826 52.1199 86.2347 52.1199 85.4869C52.1199 84.7575 52.2615 84.1173 52.5446 83.5664C52.8278 83.0155 53.2263 82.5862 53.7403 82.2784C54.2573 81.9706 54.8636 81.8168 55.5592 81.8168C56.027 81.8168 56.4625 81.8922 56.8656 82.043C57.2719 82.1907 57.6258 82.4138 57.9274 82.7124C58.2321 83.0109 58.4691 83.3864 58.6384 83.8388C58.8076 84.2881 58.8923 84.8144 58.8923 85.4176V85.9577H52.9047V84.739H57.0411C57.0411 84.4558 56.9795 84.205 56.8564 83.9865C56.7333 83.768 56.5625 83.5972 56.344 83.4741C56.1285 83.3479 55.8777 83.2848 55.5915 83.2848C55.293 83.2848 55.0283 83.354 54.7975 83.4925C54.5697 83.628 54.3912 83.8111 54.262 84.0419C54.1327 84.2696 54.0665 84.5236 54.0634 84.8036V85.9624C54.0634 86.3132 54.1281 86.6164 54.2573 86.8718C54.3897 87.1272 54.5759 87.3242 54.8159 87.4627C55.056 87.6012 55.3407 87.6705 55.67 87.6705C55.8885 87.6705 56.0885 87.6397 56.2701 87.5781C56.4517 87.5166 56.6071 87.4242 56.7364 87.3011C56.8656 87.178 56.9641 87.0272 57.0318 86.8487L58.8507 86.9688C58.7584 87.4058 58.5691 87.7874 58.2829 88.1136C57.9998 88.4368 57.6335 88.6892 57.1842 88.8707C56.7379 89.0492 56.2224 89.1385 55.6377 89.1385ZM59.7207 89V81.9091H61.6273V83.1463H61.7011C61.8304 82.7062 62.0474 82.3738 62.3521 82.1491C62.6567 81.9214 63.0076 81.8075 63.4046 81.8075C63.5031 81.8075 63.6093 81.8137 63.7231 81.826C63.837 81.8383 63.937 81.8552 64.0232 81.8768V83.6218C63.9309 83.5941 63.8032 83.5695 63.6401 83.5479C63.4769 83.5264 63.3277 83.5156 63.1923 83.5156C62.903 83.5156 62.6444 83.5787 62.4167 83.7049C62.192 83.828 62.0135 84.0004 61.8812 84.2219C61.7519 84.4435 61.6873 84.699 61.6873 84.9883V89H59.7207ZM70.4849 83.9311L68.6844 84.0419C68.6537 83.888 68.5875 83.7495 68.4859 83.6264C68.3844 83.5002 68.2505 83.4002 68.0843 83.3263C67.9212 83.2494 67.7257 83.2109 67.498 83.2109C67.1933 83.2109 66.9363 83.2756 66.727 83.4048C66.5178 83.531 66.4131 83.7003 66.4131 83.9126C66.4131 84.0819 66.4808 84.225 66.6162 84.342C66.7517 84.4589 66.984 84.5528 67.3133 84.6236L68.5967 84.8821C69.2861 85.0237 69.8001 85.2514 70.1386 85.5653C70.4772 85.8793 70.6464 86.2917 70.6464 86.8026C70.6464 87.2673 70.5095 87.6751 70.2356 88.0259C69.9647 88.3768 69.5923 88.6507 69.1184 88.8477C68.6475 89.0415 68.1043 89.1385 67.4888 89.1385C66.5501 89.1385 65.8022 88.9431 65.2452 88.5522C64.6912 88.1583 64.3665 87.6228 64.2711 86.9457L66.2054 86.8441C66.2639 87.1303 66.4054 87.3488 66.6301 87.4996C66.8548 87.6474 67.1425 87.7212 67.4934 87.7212C67.8381 87.7212 68.1151 87.6551 68.3243 87.5227C68.5367 87.3873 68.6444 87.2134 68.6475 87.0011C68.6444 86.8226 68.569 86.6764 68.4213 86.5625C68.2736 86.4455 68.0458 86.3563 67.738 86.2947L66.5101 86.0501C65.8176 85.9116 65.3021 85.6715 64.9635 85.3299C64.6281 84.9883 64.4604 84.5528 64.4604 84.0234C64.4604 83.5679 64.5835 83.1755 64.8297 82.8462C65.079 82.5169 65.4283 82.263 65.8776 82.0845C66.33 81.906 66.8594 81.8168 67.4657 81.8168C68.3613 81.8168 69.0661 82.006 69.58 82.3846C70.0971 82.7631 70.3987 83.2786 70.4849 83.9311Z"
        fill="#AAADC0" />
    <g clip-path="url(#clip0_5719_16760)">
        <path fill-rule="evenodd" clip-rule="evenodd"
            d="M35.4766 157.994C35.9691 157.999 36.4576 157.906 36.9137 157.721C37.3698 157.535 37.7844 157.261 38.1333 156.914C38.4822 156.566 38.7584 156.153 38.9457 155.698C39.1331 155.243 39.2279 154.755 39.2246 154.263C39.2016 153.285 38.7966 152.354 38.096 151.67C37.3954 150.986 36.455 150.604 35.4756 150.604C34.4963 150.604 33.5558 150.986 32.8552 151.67C32.1547 152.354 31.7496 153.285 31.7266 154.263C31.7233 154.755 31.8182 155.243 32.0057 155.699C32.1932 156.154 32.4695 156.567 32.8186 156.915C33.1677 157.262 33.5826 157.536 34.0389 157.722C34.4953 157.907 34.9841 158 35.4766 157.994ZM35.4766 155.993C34.4753 155.993 33.7871 155.253 33.7871 154.263C33.7871 153.273 34.4753 152.531 35.4766 152.531C36.478 152.531 37.1641 153.271 37.1641 154.263C37.1641 155.256 36.476 155.995 35.4766 155.995V155.993Z"
            fill="#4959E7" />
        <path fill-rule="evenodd" clip-rule="evenodd"
            d="M52.2306 155.078C52.2827 154.81 52.3082 154.537 52.3068 154.264C52.3068 152.185 50.8357 150.531 48.7155 150.531C46.5479 150.531 44.9531 152.084 44.9531 154.264C44.9531 156.544 46.6344 157.995 48.868 157.995C50.1042 157.995 51.1839 157.583 51.9236 156.579L50.2752 155.634C49.9032 155.986 49.407 156.176 48.8947 156.165C48.12 156.165 47.4215 155.918 47.1372 155.135L47.1145 155.078H52.2306ZM47.1001 153.509C47.3061 152.728 47.9037 152.347 48.7011 152.347C49.0553 152.328 49.405 152.434 49.6893 152.647C49.9735 152.859 50.1743 153.164 50.2567 153.509L50.2711 153.562H47.0857L47.1001 153.509Z"
            fill="#4959E7" />
        <path fill-rule="evenodd" clip-rule="evenodd"
            d="M43.1919 150.73H44.4487V152.759H43.1919C42.9026 152.76 42.6255 152.876 42.4208 153.08C42.216 153.284 42.0999 153.561 42.0978 153.85V157.795H40.0703V153.85C40.0725 153.023 40.4021 152.231 40.987 151.647C41.5719 151.062 42.3647 150.733 43.1919 150.73Z"
            fill="#4959E7" />
        <path fill-rule="evenodd" clip-rule="evenodd"
            d="M28.5859 148.996H30.9801V151.018H28.5859C28.0404 151.021 27.5182 151.239 27.1325 151.625C26.7468 152.01 26.5287 152.532 26.5254 153.077V153.711C26.5287 154.256 26.7468 154.778 27.1325 155.164C27.5182 155.549 28.0404 155.767 28.5859 155.77H30.9801V157.792H28.5859C27.5038 157.79 26.4667 157.359 25.7012 156.595C24.9356 155.831 24.5038 154.795 24.5 153.713V153.079C24.5027 151.997 24.9341 150.96 25.6997 150.195C26.4654 149.43 27.5031 148.999 28.5859 148.996Z"
            fill="#4959E7" />
        <path fill-rule="evenodd" clip-rule="evenodd"
            d="M76.1033 148.996H78.4976V151.018H76.1033C75.5579 151.021 75.0357 151.239 74.65 151.625C74.2642 152.01 74.0461 152.532 74.0429 153.077V153.711C74.0461 154.256 74.2642 154.778 74.65 155.164C75.0357 155.549 75.5579 155.767 76.1033 155.77H78.4976V157.792H76.1033C75.0209 157.789 73.9837 157.358 73.2185 156.593C72.4533 155.828 72.0222 154.791 72.0195 153.709V153.079C72.0222 151.997 72.4533 150.961 73.2185 150.196C73.9837 149.431 75.0209 148.999 76.1033 148.996V148.996Z"
            fill="#4959E7" />
        <path fill-rule="evenodd" clip-rule="evenodd"
            d="M57.3144 154.055V157.796H55.2148V148.996H57.3144V151.963H57.5102C57.9444 151.964 58.3742 151.876 58.7732 151.704C59.1721 151.533 59.5318 151.282 59.8302 150.967C60.3532 150.445 60.6911 149.767 60.7925 149.035V148.996H62.8962V149.046C62.7812 150.327 62.2189 151.528 61.3076 152.437C60.9556 152.788 60.5578 153.091 60.1249 153.337L59.9333 153.446L63.1764 157.796H60.5596L57.8501 154.055H57.3144Z"
            fill="#4959E7" />
        <path fill-rule="evenodd" clip-rule="evenodd"
            d="M68.9198 154.504V157.796H66.9047V154.502L63.8594 148.996H66.1362L67.9411 152.307L69.6698 148.996H71.8642L68.9198 154.504Z"
            fill="#4959E7" />
    </g>
    <circle cx="257.5" cy="56" r="7" fill="white" stroke="#AAADC0" stroke-width="4" />
    <circle cx="181.5" cy="50" r="7" fill="white" stroke="#AAADC0" stroke-width="4" />
    <circle cx="110.5" cy="58" r="7" fill="white" stroke="#AAADC0" stroke-width="4" />
    <defs>
        <radialGradient id="paint0_radial_5719_16760" cx="0" cy="0" r="1"
            gradientUnits="userSpaceOnUse"
            gradientTransform="translate(167.5 31.5) rotate(91.7899) scale(96.0469 209.432)">
            <stop stop-color="#AABBDC" />
            <stop offset="1" stop-color="white" stop-opacity="0" />
        </radialGradient>
        <radialGradient id="paint1_radial_5719_16760" cx="0" cy="0" r="1"
            gradientUnits="userSpaceOnUse"
            gradientTransform="translate(181 135.5) rotate(100.222) scale(61.9839 95.9653)">
            <stop stop-color="#CAD1F8" />
            <stop offset="1" stop-color="#D0D7FF" stop-opacity="0" />
        </radialGradient>
        <clipPath id="clip0_5719_16760">
            <rect width="54" height="9" fill="white" transform="translate(24.5 149)" />
        </clipPath>
    </defs>
</svg>