<svg width="34" height="34" viewBox="0 0 34 34" fill="none" xmlns="http://www.w3.org/2000/svg">
    <path fill-rule="evenodd" clip-rule="evenodd"
        d="M16.9666 18.4167H17.0233C20.9354 18.4167 24.1066 15.2455 24.1066 11.3333C24.1066 7.42121 20.9354 4.25 17.0233 4.25H16.9666C13.0807 4.28046 9.93992 7.44033 9.93992 11.3333C9.93992 15.2263 13.0807 18.3862 16.9666 18.4167ZM22.646 12.0417H21.2293C21.1911 12.6884 21.1004 13.3096 20.9644 13.894H22.0793C22.3738 13.3139 22.5656 12.6872 22.646 12.0417ZM21.0593 15.3106H20.5175C20.4133 15.5677 20.2979 15.8121 20.1746 16.0437C20.4937 15.8299 20.7904 15.5842 21.06 15.3106H21.0593ZM19.5031 13.894C19.6575 13.3294 19.7652 12.7068 19.8098 12.0417H17.7316V13.894H19.5031ZM17.7316 15.3106H18.9598C18.9053 15.4155 18.8493 15.516 18.7913 15.6131C18.4371 16.2017 18.0709 16.5658 17.7316 16.7719V15.3106ZM16.3149 13.894V12.0417H14.1913C14.236 12.7068 14.3436 13.3294 14.498 13.894H16.3149ZM15.0413 15.3106H16.3149V16.7981C15.9636 16.5977 15.5797 16.2286 15.2099 15.6131C15.1506 15.514 15.0944 15.4132 15.0413 15.3106ZM13.0368 13.894C12.8965 13.2851 12.8079 12.6654 12.7718 12.0417H11.4005C11.4827 12.7004 11.6782 13.3252 11.9672 13.894H13.0368ZM12.9872 15.3106H13.483C13.5808 15.55 13.687 15.7781 13.801 15.9949C13.5088 15.7927 13.2368 15.5636 12.9872 15.3106ZM21.2293 10.625C21.1933 10.0012 21.1047 9.38158 20.9644 8.77271H22.0793C22.3741 9.35267 22.5658 9.97941 22.646 10.625H21.2293ZM21.0593 7.35604H20.5175C20.4133 7.09892 20.2979 6.85454 20.1746 6.62292C20.4941 6.83754 20.7909 7.08333 21.06 7.35604H21.0593ZM17.7316 7.35604H18.9598C18.9068 7.25351 18.8506 7.15264 18.7913 7.05358C18.4371 6.46425 18.0709 6.10087 17.7316 5.89475V7.35604ZM19.5031 8.77271H17.7316V10.625H19.8098C19.7692 9.99893 19.6665 9.37845 19.5031 8.77271ZM16.3149 5.86854V7.35604H15.0413C15.0959 7.25121 15.1525 7.15063 15.2099 7.05358C15.579 6.43804 15.9636 6.06971 16.3149 5.86854ZM16.3149 8.77271H14.498C14.3436 9.33725 14.236 9.95987 14.1913 10.625H16.3149V8.77271ZM13.8003 6.67179C13.687 6.88854 13.5808 7.11663 13.4837 7.35604H12.9872C13.2358 7.10317 13.5078 6.87437 13.8003 6.67179ZM13.0368 8.77271H11.9672C11.6727 9.35275 11.4809 9.97946 11.4005 10.625H12.7718C12.8101 9.97758 12.9008 9.35708 13.0368 8.77271ZM6.18433 12.0417C5.44908 12.0247 4.711 12.4759 4.47229 13.1785C4.41279 13.3542 4.38021 13.5837 4.35683 13.7927C4.33204 14.0207 4.31292 14.2949 4.29804 14.5931C4.26734 15.276 4.25152 15.9594 4.25058 16.643C4.24492 18.0724 4.28104 19.5599 4.33275 20.021C4.42342 20.8285 4.88808 21.5808 5.29183 22.2353L5.33717 22.3082C5.45971 22.5066 5.58083 22.7042 5.69983 22.9075C6.23392 23.822 6.81475 24.4382 7.34104 24.9971L7.35308 25.0091C7.64917 25.3229 7.92329 25.6147 8.18183 25.9399C7.93102 26.2031 7.79147 26.553 7.79225 26.9167V28.3333C7.79225 28.7091 7.94151 29.0694 8.20718 29.3351C8.47286 29.6007 8.83319 29.75 9.20892 29.75H14.8756C15.2513 29.75 15.6116 29.6007 15.8773 29.3351C16.143 29.0694 16.2923 28.7091 16.2923 28.3333V26.9167C16.2922 26.5581 16.1563 26.2129 15.9118 25.9507C15.6673 25.6884 15.3324 25.5286 14.9748 25.5035C14.8791 24.6989 14.7552 23.6123 14.7438 23.3027C14.7339 23.0364 14.6447 22.7765 14.5611 22.5788C14.4734 22.3752 14.3726 22.1774 14.2593 21.9867C14.1429 21.7886 14.0181 21.5955 13.8853 21.408L13.8577 21.3697L13.8506 21.3591L13.8478 21.3555L13.8464 21.3534L13.8393 21.3435L11.5415 18.4464L11.5202 18.4252V18.4237L11.5174 18.4209L11.5004 18.4025C11.3947 18.2856 11.2931 18.1651 11.1958 18.0412C10.979 17.7705 10.7901 17.4786 10.632 17.17C10.4705 16.8385 10.1645 16.5205 9.69483 16.4971C9.29463 16.4758 8.98083 16.6883 8.79808 16.852C8.69744 16.9427 8.60565 17.0428 8.52396 17.1509L8.49208 16.7245L8.48854 16.6777C8.41913 15.7441 8.33483 14.6143 8.06071 13.7098C7.73913 12.6515 7.02442 12.0622 6.18363 12.0424L6.18433 12.0417ZM13.5475 25.5C13.4554 24.7208 13.3406 23.703 13.3279 23.3545C13.3253 23.3335 13.3208 23.3129 13.3144 23.2928C13.2983 23.2366 13.2786 23.1815 13.2556 23.1278C13.1918 22.9816 13.1187 22.8397 13.0368 22.7028C12.9413 22.5403 12.8389 22.382 12.73 22.2282L12.7116 22.202L10.4676 19.3729L10.4549 19.3587C10.3253 19.2153 10.2008 19.0674 10.0816 18.9153C9.8907 18.6734 9.71539 18.4195 9.55671 18.1553L9.55175 18.1631C9.488 18.2814 9.45258 18.3897 9.44196 18.4606C9.403 18.7113 9.42283 18.8842 9.44267 18.9777C9.44864 19.0075 9.45693 19.0369 9.46746 19.0655V19.0676L10.7651 21.6445L9.56025 22.3805L9.54254 22.3564L9.49367 22.2891C9.2408 21.9404 8.99051 21.5897 8.74283 21.2372C8.31288 20.6252 7.79863 19.8744 7.54504 19.4239C7.35521 19.0875 7.26738 18.6419 7.21142 18.2389C7.15369 17.7756 7.10999 17.3108 7.08038 16.8449L7.07896 16.8293C7.00529 15.839 6.92879 14.8601 6.70496 14.1213C6.60721 13.799 6.48113 13.6368 6.39046 13.5582C6.3253 13.4972 6.24023 13.462 6.15104 13.459C5.95767 13.4541 5.82946 13.588 5.81317 13.6361C5.81175 13.6404 5.80538 13.6645 5.79617 13.7169C5.78338 13.7928 5.77299 13.8691 5.765 13.9457C5.74446 14.1355 5.72675 14.3792 5.71258 14.6639C5.68334 15.3251 5.66846 15.9868 5.66796 16.6487C5.66158 18.093 5.70054 19.4976 5.74163 19.8631C5.79263 20.32 6.07738 20.808 6.54346 21.5645L6.54558 21.568C6.666 21.7635 6.79563 21.9739 6.92383 22.1935C7.37221 22.9613 7.85529 23.4763 8.38442 24.0373L8.39646 24.05C8.79029 24.468 9.21813 24.9213 9.62188 25.5H13.5475ZM9.77558 17.8826C9.77558 17.8826 9.77275 17.8833 9.76779 17.8875C9.77058 17.8862 9.7732 17.8846 9.77558 17.8826ZM14.8756 28.3333V26.9167H9.20892V28.3333H14.8756ZM29.5289 13.1785C29.2895 12.4759 28.5521 12.0247 27.8168 12.0424C26.9768 12.0622 26.262 12.6515 25.9405 13.7098C25.6663 14.6143 25.582 15.7441 25.5126 16.6777L25.5091 16.7245L25.4772 17.1509C25.3922 17.0397 25.3001 16.9384 25.2031 16.852C25.0203 16.689 24.7073 16.4765 24.3063 16.4964C23.8367 16.5205 23.5307 16.8385 23.3692 17.1693C23.2108 17.4779 23.0216 17.7698 22.8047 18.0405C22.7074 18.1647 22.6058 18.2854 22.5001 18.4025L22.4838 18.4209L22.481 18.4245L22.4597 18.4464L20.1626 21.3435L20.1548 21.3534L20.1534 21.3555L20.1513 21.3591L20.1435 21.3697C20.0002 21.5689 19.8662 21.7745 19.7418 21.986C19.6284 22.1769 19.5273 22.3749 19.4394 22.5788C19.3565 22.7765 19.2673 23.0364 19.2573 23.3027C19.246 23.6123 19.1228 24.6989 19.0264 25.5035C18.6688 25.5286 18.3339 25.6884 18.0894 25.9507C17.8449 26.2129 17.7089 26.5581 17.7089 26.9167V28.3333C17.7089 28.7091 17.8582 29.0694 18.1239 29.3351C18.3895 29.6007 18.7499 29.75 19.1256 29.75H24.7923C25.168 29.75 25.5283 29.6007 25.794 29.3351C26.0597 29.0694 26.2089 28.7091 26.2089 28.3333V26.9167C26.2092 26.5528 26.0694 26.2028 25.8186 25.9392C26.0779 25.6147 26.3513 25.3229 26.6474 25.0091L26.6594 24.9964C27.1857 24.4382 27.7665 23.822 28.3006 22.9075C28.4196 22.7042 28.5415 22.5073 28.6633 22.3082L28.7086 22.2353C29.1124 21.5808 29.577 20.8285 29.6677 20.021C29.7194 19.5599 29.7555 18.0724 29.7499 16.643C29.7492 15.9594 29.7336 15.276 29.7031 14.5931C29.6911 14.3258 29.6715 14.0589 29.6443 13.7927C29.6217 13.5837 29.5891 13.3535 29.5289 13.1785ZM24.38 25.5C24.7838 24.9213 25.2109 24.468 25.6054 24.05L25.6168 24.0373C26.1459 23.4763 26.6297 22.9606 27.0773 22.1935C27.2048 21.9739 27.3345 21.7642 27.4556 21.568L27.4577 21.5645C27.9245 20.808 28.2085 20.32 28.2595 19.8631C28.3006 19.4976 28.3389 18.093 28.3332 16.6487C28.3304 15.9361 28.3169 15.232 28.2886 14.6639C28.2744 14.3792 28.2567 14.1355 28.2362 13.9457C28.2282 13.8691 28.2178 13.7928 28.205 13.7169C28.2006 13.6897 28.195 13.6628 28.188 13.6361C28.1717 13.588 28.0435 13.4541 27.8508 13.459C27.7614 13.4618 27.676 13.4971 27.6107 13.5582C27.52 13.6361 27.394 13.799 27.2962 14.1213C27.0724 14.8594 26.9959 15.839 26.9222 16.8293L26.9208 16.8449C26.8854 17.3294 26.8485 17.8181 26.7898 18.2389C26.7345 18.6419 26.646 19.0875 26.4568 19.4246C26.2025 19.8744 25.6883 20.6252 25.2583 21.238C25.0106 21.5902 24.7604 21.9406 24.5075 22.2891L24.4579 22.3564L24.4409 22.3805L23.236 21.6438L24.533 19.0676L24.5337 19.0655C24.5442 19.0369 24.5525 19.0075 24.5585 18.9777C24.5783 18.8842 24.5982 18.7113 24.5592 18.4606C24.539 18.3561 24.5019 18.2556 24.4494 18.1631L24.4445 18.1553C24.2702 18.4492 24.0783 18.7127 23.9203 18.9146C23.8009 19.067 23.6761 19.2151 23.5463 19.3587L23.5328 19.3729L21.2895 22.202L21.2711 22.2282C21.1623 22.382 21.0599 22.5404 20.9644 22.7028C20.8794 22.8473 20.8015 22.9953 20.7455 23.1278C20.7179 23.1937 20.6988 23.2482 20.6868 23.2921C20.6804 23.3125 20.6759 23.3333 20.6733 23.3545C20.6605 23.703 20.5458 24.7215 20.4537 25.5H24.38ZM24.2256 17.8826C24.2256 17.8826 24.2284 17.8833 24.2334 17.8875C24.2306 17.8862 24.228 17.8845 24.2256 17.8826ZM19.1256 28.3333V26.9167H24.7923V28.3333H19.1256Z"
        fill="#4959E7" />
</svg>