<svg width="1291" height="339" viewBox="0 0 1291 339" fill="none" xmlns="http://www.w3.org/2000/svg">
<path d="M704.026 152.364H705.219C705.164 150.827 703.747 149.679 701.779 149.679C699.83 149.679 698.298 150.812 698.298 152.523C698.298 153.895 699.293 154.71 700.884 155.168L702.137 155.526C703.21 155.824 704.165 156.202 704.165 157.216C704.165 158.33 703.091 159.065 701.679 159.065C700.466 159.065 699.392 158.528 699.293 157.375H698.02C698.139 159.045 699.492 160.179 701.679 160.179C704.026 160.179 705.358 158.886 705.358 157.236C705.358 155.327 703.548 154.71 702.494 154.432L701.46 154.153C700.705 153.955 699.492 153.557 699.492 152.463C699.492 151.489 700.387 150.773 701.739 150.773C702.972 150.773 703.906 151.359 704.026 152.364ZM707.226 160H708.4V152.364H707.226V160ZM707.823 151.091C708.28 151.091 708.658 150.733 708.658 150.295C708.658 149.858 708.28 149.5 707.823 149.5C707.365 149.5 706.988 149.858 706.988 150.295C706.988 150.733 707.365 151.091 707.823 151.091ZM711.722 155.406C711.722 154.074 712.547 153.318 713.671 153.318C714.759 153.318 715.421 154.029 715.421 155.227V160H716.594V155.148C716.594 153.199 715.555 152.264 714.009 152.264C712.855 152.264 712.139 152.781 711.781 153.557H711.682V152.364H710.548V160H711.722V155.406ZM721.82 163.023C723.65 163.023 725.121 162.188 725.121 160.219V152.364H723.988V153.577H723.869C723.61 153.179 723.133 152.264 721.641 152.264C719.712 152.264 718.38 153.795 718.38 156.142C718.38 158.528 719.772 159.881 721.621 159.881C723.113 159.881 723.59 159.006 723.849 158.588H723.948V160.139C723.948 161.412 723.053 161.989 721.82 161.989C720.433 161.989 719.946 161.258 719.633 160.835L718.698 161.491C719.175 162.292 720.115 163.023 721.82 163.023ZM721.781 158.827C720.309 158.827 719.553 157.713 719.553 156.122C719.553 154.571 720.289 153.318 721.781 153.318C723.212 153.318 723.968 154.472 723.968 156.122C723.968 157.812 723.192 158.827 721.781 158.827ZM728.442 149.818H727.269V160H728.442V149.818ZM733.793 160.159C735.344 160.159 736.478 159.384 736.836 158.23L735.702 157.912C735.404 158.707 734.713 159.105 733.793 159.105C732.416 159.105 731.466 158.215 731.412 156.58H736.955V156.082C736.955 153.239 735.265 152.264 733.674 152.264C731.606 152.264 730.233 153.895 730.233 156.241C730.233 158.588 731.586 160.159 733.793 160.159ZM731.412 155.565C731.491 154.377 732.331 153.318 733.674 153.318C734.947 153.318 735.762 154.273 735.762 155.565H731.412ZM743.254 160L744.278 157.116H748.395L749.419 160H750.711L746.973 149.818H745.7L741.961 160H743.254ZM744.666 156.023L746.297 151.429H746.376L748.007 156.023H744.666ZM752.297 160H753.53V156.281H755.758C758.129 156.281 759.198 154.839 759.198 153.04C759.198 151.24 758.129 149.818 755.738 149.818H752.297V160ZM753.53 155.188V150.912H755.698C757.354 150.912 757.985 151.817 757.985 153.04C757.985 154.263 757.354 155.188 755.718 155.188H753.53ZM762.417 149.818H761.184V160H762.417V149.818ZM771.551 160.139C772.486 160.139 773.53 159.811 774.191 159.135L774.912 160H776.324L774.917 158.285C775.3 157.793 775.727 156.967 775.727 155.545H774.594C774.594 156.241 774.435 156.858 774.171 157.37L771.959 154.67L772.705 154.114C773.54 153.497 774.057 152.821 774.057 151.847C774.057 150.713 773.122 149.719 771.591 149.719C770.099 149.719 769.125 150.653 769.125 152.026C769.125 152.93 769.617 153.626 770.318 154.472C769.13 155.297 768.31 156.062 768.31 157.295C768.31 158.946 769.543 160.139 771.551 160.139ZM773.49 158.285C772.928 158.812 772.217 159.105 771.511 159.105C770.298 159.105 769.503 158.25 769.503 157.295C769.503 157.017 769.761 156.301 770.676 155.625L771.054 155.347L773.49 158.285ZM771.238 153.795C770.741 153.189 770.318 152.612 770.318 152.045C770.318 151.409 770.855 150.733 771.631 150.733C772.366 150.733 772.864 151.33 772.864 151.847C772.864 152.543 772.486 152.92 771.909 153.298L771.238 153.795ZM781.56 162.864H782.733V158.827H782.833C783.091 159.244 783.589 160.159 785.06 160.159C786.969 160.159 788.302 158.628 788.302 156.202C788.302 153.795 786.969 152.264 785.04 152.264C783.549 152.264 783.091 153.179 782.833 153.577H782.694V152.364H781.56V162.864ZM782.714 156.182C782.714 154.472 783.469 153.318 784.901 153.318C786.393 153.318 787.128 154.571 787.128 156.182C787.128 157.812 786.373 159.105 784.901 159.105C783.489 159.105 782.714 157.912 782.714 156.182ZM791.265 149.818H790.091V160H791.265V149.818ZM795.661 160.179C796.993 160.179 797.689 159.463 797.928 158.966H797.988V160H799.161V154.969C799.161 152.543 797.311 152.264 796.337 152.264C795.184 152.264 793.871 152.662 793.275 154.054L794.388 154.452C794.647 153.895 795.258 153.298 796.377 153.298C797.456 153.298 797.988 153.87 797.988 154.849V154.889C797.988 155.456 797.411 155.406 796.019 155.585C794.602 155.769 793.056 156.082 793.056 157.832C793.056 159.324 794.209 160.179 795.661 160.179ZM795.84 159.125C794.905 159.125 794.229 158.707 794.229 157.892C794.229 156.997 795.044 156.719 795.959 156.599C796.456 156.54 797.789 156.401 797.988 156.162V157.236C797.988 158.19 797.232 159.125 795.84 159.125ZM804.623 152.364H802.993V150.534H801.819V152.364H800.666V153.358H801.819V158.131C801.819 159.463 802.893 160.099 803.888 160.099C804.325 160.099 804.604 160.02 804.763 159.96L804.524 158.906C804.425 158.926 804.265 158.966 804.007 158.966C803.49 158.966 802.993 158.807 802.993 157.812V153.358H804.623V152.364ZM809.789 152.364H808.079V151.588C808.079 150.832 808.397 150.435 809.172 150.435C809.51 150.435 809.709 150.514 809.829 150.554L810.167 149.54C809.988 149.46 809.63 149.341 809.053 149.341C807.959 149.341 806.905 149.997 806.905 151.31V152.364H805.672V153.358H806.905V160H808.079V153.358H809.789V152.364ZM814.221 160.159C816.289 160.159 817.681 158.588 817.681 156.222C817.681 153.835 816.289 152.264 814.221 152.264C812.153 152.264 810.761 153.835 810.761 156.222C810.761 158.588 812.153 160.159 814.221 160.159ZM814.221 159.105C812.65 159.105 811.934 157.753 811.934 156.222C811.934 154.69 812.65 153.318 814.221 153.318C815.792 153.318 816.508 154.69 816.508 156.222C816.508 157.753 815.792 159.105 814.221 159.105ZM819.472 160H820.646V155.168C820.646 154.134 821.461 153.378 822.575 153.378C822.888 153.378 823.211 153.438 823.29 153.457V152.264C823.156 152.254 822.848 152.244 822.674 152.244C821.759 152.244 820.964 152.761 820.685 153.517H820.606V152.364H819.472V160ZM824.681 160H825.855V155.227C825.855 154.109 826.67 153.318 827.585 153.318C828.475 153.318 829.096 153.9 829.096 154.77V160H830.289V155.028C830.289 154.044 830.906 153.318 831.98 153.318C832.815 153.318 833.531 153.761 833.531 154.889V160H834.704V154.889C834.704 153.094 833.74 152.264 832.377 152.264C831.284 152.264 830.483 152.766 830.09 153.557H830.011C829.633 152.741 828.967 152.264 827.963 152.264C826.968 152.264 826.232 152.741 825.914 153.557H825.815V152.364H824.681V160Z" fill="#4959E7"/>
<rect x="104" y="175" width="757" height="8" fill="#F1F5FE"/>
<path d="M857 165L888 178L857 192V165Z" fill="#F1F5FE"/>
<circle cx="571" cy="175" r="100" fill="#F1F5FE"/>
<circle cx="571" cy="175" r="72" fill="white"/>
<circle cx="571" cy="175" r="44" fill="#4959E7"/>
<path fill-rule="evenodd" clip-rule="evenodd" d="M570.147 192.452H581.862V182.778H570.147C567.323 182.778 564.98 180.412 564.98 177.561V176.924V173.623C564.98 170.772 567.323 168.406 570.147 168.406H581.862V158.731H570.147C562.034 158.731 555.395 165.432 555.395 173.623V176.924V177.561C555.395 185.747 562.033 192.452 570.147 192.452Z" fill="white"/>
<g filter="url(#filter0_f_2914_877)">
<rect x="914" y="15" width="419" height="309" rx="20" fill="#EFEFF4" fill-opacity="0.6"/>
<rect x="914.5" y="15.5" width="418" height="308" rx="19.5" stroke="#F0F0F4"/>
</g>
<rect x="888.5" y="6.5" width="431" height="308" rx="19.5" fill="white" stroke="#F0F0F4"/>
<path d="M889 26C889 15.5066 897.507 7 908 7H1300C1310.49 7 1319 15.5066 1319 26V38H889V26Z" fill="#99A7F3"/>
<line x1="1319" y1="38.5" x2="889" y2="38.5" stroke="#F2F2F7"/>
<path d="M1081.29 78V64.9091H1089.68V66.897H1083.66V70.451H1089.1V72.4389H1083.66V78H1081.29ZM1094.47 78.1982C1093.85 78.1982 1093.29 78.0874 1092.79 77.8658C1092.3 77.6399 1091.91 77.3075 1091.62 76.8686C1091.33 76.4297 1091.19 75.8885 1091.19 75.245C1091.19 74.6911 1091.29 74.233 1091.49 73.8707C1091.7 73.5085 1091.98 73.2188 1092.33 73.0014C1092.69 72.7841 1093.08 72.62 1093.53 72.5092C1093.97 72.3942 1094.44 72.3111 1094.91 72.2599C1095.49 72.2003 1095.96 72.147 1096.31 72.1001C1096.67 72.049 1096.93 71.9723 1097.09 71.87C1097.26 71.7635 1097.34 71.5994 1097.34 71.3778V71.3395C1097.34 70.858 1097.2 70.4851 1096.91 70.2209C1096.63 69.9567 1096.22 69.8246 1095.68 69.8246C1095.11 69.8246 1094.66 69.9482 1094.33 70.1953C1094 70.4425 1093.78 70.7344 1093.67 71.071L1091.51 70.7642C1091.68 70.1676 1091.96 69.669 1092.35 69.2685C1092.74 68.8636 1093.22 68.5611 1093.79 68.3608C1094.36 68.1562 1094.98 68.054 1095.67 68.054C1096.14 68.054 1096.61 68.1094 1097.08 68.2202C1097.55 68.331 1097.98 68.5142 1098.37 68.7699C1098.75 69.0213 1099.06 69.3643 1099.3 69.799C1099.54 70.2337 1099.66 70.777 1099.66 71.429V78H1097.43V76.6513H1097.36C1097.22 76.924 1097.02 77.1797 1096.76 77.4183C1096.51 77.6527 1096.19 77.8423 1095.81 77.9872C1095.43 78.1278 1094.98 78.1982 1094.47 78.1982ZM1095.07 76.4979C1095.54 76.4979 1095.94 76.4062 1096.28 76.223C1096.62 76.0355 1096.89 75.7884 1097.07 75.4815C1097.26 75.1747 1097.35 74.8402 1097.35 74.478V73.321C1097.28 73.3807 1097.15 73.4361 1096.98 73.4872C1096.81 73.5384 1096.62 73.5831 1096.4 73.6214C1096.19 73.6598 1095.98 73.6939 1095.77 73.7237C1095.56 73.7536 1095.38 73.7791 1095.23 73.8004C1094.88 73.8473 1094.57 73.924 1094.3 74.0305C1094.03 74.1371 1093.81 74.2862 1093.66 74.478C1093.5 74.6655 1093.42 74.9084 1093.42 75.2067C1093.42 75.6328 1093.57 75.9545 1093.89 76.1719C1094.2 76.3892 1094.59 76.4979 1095.07 76.4979ZM1106.27 78.1918C1105.29 78.1918 1104.44 77.9766 1103.74 77.5462C1103.04 77.1158 1102.5 76.5213 1102.12 75.7628C1101.75 75 1101.56 74.1222 1101.56 73.1293C1101.56 72.1321 1101.75 71.2521 1102.14 70.4893C1102.52 69.7223 1103.06 69.1257 1103.76 68.6996C1104.46 68.2692 1105.29 68.054 1106.25 68.054C1107.05 68.054 1107.76 68.201 1108.37 68.495C1108.99 68.7848 1109.48 69.196 1109.85 69.7287C1110.21 70.2571 1110.42 70.875 1110.47 71.5824H1108.26C1108.17 71.1094 1107.96 70.7152 1107.62 70.3999C1107.29 70.0803 1106.84 69.9205 1106.29 69.9205C1105.81 69.9205 1105.4 70.0483 1105.04 70.304C1104.68 70.5554 1104.4 70.9176 1104.2 71.3906C1104.01 71.8636 1103.91 72.4304 1103.91 73.0909C1103.91 73.7599 1104.01 74.3352 1104.2 74.8168C1104.4 75.294 1104.67 75.6626 1105.03 75.9226C1105.38 76.1783 1105.8 76.3061 1106.29 76.3061C1106.63 76.3061 1106.93 76.2422 1107.2 76.1143C1107.47 75.9822 1107.7 75.7926 1107.88 75.5455C1108.07 75.2983 1108.19 74.9979 1108.26 74.6442H1110.47C1110.42 75.3388 1110.21 75.9545 1109.86 76.4915C1109.51 77.0241 1109.02 77.4418 1108.41 77.7443C1107.8 78.0426 1107.09 78.1918 1106.27 78.1918ZM1116.72 78.1918C1115.73 78.1918 1114.88 77.9872 1114.17 77.5781C1113.46 77.1648 1112.91 76.581 1112.53 75.8267C1112.14 75.0682 1111.95 74.1754 1111.95 73.1484C1111.95 72.1385 1112.14 71.2521 1112.53 70.4893C1112.91 69.7223 1113.45 69.1257 1114.15 68.6996C1114.84 68.2692 1115.66 68.054 1116.6 68.054C1117.2 68.054 1117.77 68.152 1118.31 68.348C1118.85 68.5398 1119.33 68.8381 1119.74 69.2429C1120.16 69.6477 1120.49 70.1634 1120.73 70.7898C1120.97 71.4119 1121.08 72.1534 1121.08 73.0142V73.7237H1113.04V72.1641H1118.87C1118.86 71.7209 1118.77 71.3267 1118.58 70.9815C1118.39 70.6321 1118.13 70.3572 1117.79 70.157C1117.46 69.9567 1117.07 69.8565 1116.63 69.8565C1116.16 69.8565 1115.74 69.9716 1115.38 70.2017C1115.03 70.4276 1114.75 70.7259 1114.55 71.0966C1114.35 71.4631 1114.25 71.8658 1114.25 72.3047V73.6662C1114.25 74.2372 1114.35 74.7273 1114.56 75.1364C1114.77 75.5412 1115.06 75.8523 1115.43 76.0696C1115.81 76.2827 1116.25 76.3892 1116.75 76.3892C1117.09 76.3892 1117.39 76.3423 1117.67 76.2486C1117.94 76.1506 1118.17 76.0078 1118.37 75.8203C1118.57 75.6328 1118.73 75.4006 1118.83 75.1236L1120.99 75.3665C1120.85 75.9375 1120.59 76.4361 1120.21 76.8622C1119.83 77.2841 1119.34 77.6122 1118.75 77.8466C1118.16 78.0767 1117.48 78.1918 1116.72 78.1918ZM1127.61 64.9091H1130.51L1134.4 74.3949H1134.55L1138.44 64.9091H1141.34V78H1139.06V69.0064H1138.94L1135.32 77.9616H1133.62L1130.01 68.9872H1129.89V78H1127.61V64.9091ZM1146.65 78.1982C1146.02 78.1982 1145.46 78.0874 1144.96 77.8658C1144.47 77.6399 1144.08 77.3075 1143.79 76.8686C1143.5 76.4297 1143.36 75.8885 1143.36 75.245C1143.36 74.6911 1143.46 74.233 1143.67 73.8707C1143.87 73.5085 1144.15 73.2188 1144.5 73.0014C1144.86 72.7841 1145.26 72.62 1145.7 72.5092C1146.15 72.3942 1146.61 72.3111 1147.09 72.2599C1147.66 72.2003 1148.13 72.147 1148.49 72.1001C1148.84 72.049 1149.1 71.9723 1149.27 71.87C1149.43 71.7635 1149.52 71.5994 1149.52 71.3778V71.3395C1149.52 70.858 1149.37 70.4851 1149.09 70.2209C1148.8 69.9567 1148.39 69.8246 1147.85 69.8246C1147.29 69.8246 1146.84 69.9482 1146.5 70.1953C1146.18 70.4425 1145.95 70.7344 1145.84 71.071L1143.68 70.7642C1143.85 70.1676 1144.13 69.669 1144.52 69.2685C1144.91 68.8636 1145.39 68.5611 1145.96 68.3608C1146.53 68.1562 1147.15 68.054 1147.84 68.054C1148.31 68.054 1148.78 68.1094 1149.25 68.2202C1149.72 68.331 1150.15 68.5142 1150.54 68.7699C1150.93 69.0213 1151.24 69.3643 1151.47 69.799C1151.71 70.2337 1151.83 70.777 1151.83 71.429V78H1149.6V76.6513H1149.53C1149.39 76.924 1149.19 77.1797 1148.93 77.4183C1148.68 77.6527 1148.36 77.8423 1147.98 77.9872C1147.6 78.1278 1147.16 78.1982 1146.65 78.1982ZM1147.25 76.4979C1147.71 76.4979 1148.11 76.4062 1148.45 76.223C1148.79 76.0355 1149.06 75.7884 1149.24 75.4815C1149.43 75.1747 1149.52 74.8402 1149.52 74.478V73.321C1149.45 73.3807 1149.33 73.4361 1149.15 73.4872C1148.98 73.5384 1148.79 73.5831 1148.58 73.6214C1148.36 73.6598 1148.15 73.6939 1147.94 73.7237C1147.73 73.7536 1147.55 73.7791 1147.4 73.8004C1147.05 73.8473 1146.75 73.924 1146.47 74.0305C1146.2 74.1371 1145.98 74.2862 1145.83 74.478C1145.67 74.6655 1145.59 74.9084 1145.59 75.2067C1145.59 75.6328 1145.75 75.9545 1146.06 76.1719C1146.37 76.3892 1146.76 76.4979 1147.25 76.4979ZM1159.06 68.1818V69.9716H1153.41V68.1818H1159.06ZM1154.81 65.8295H1157.12V75.0469C1157.12 75.358 1157.17 75.5966 1157.26 75.7628C1157.36 75.9247 1157.49 76.0355 1157.65 76.0952C1157.8 76.1548 1157.98 76.1847 1158.17 76.1847C1158.31 76.1847 1158.45 76.174 1158.57 76.1527C1158.69 76.1314 1158.78 76.1122 1158.85 76.0952L1159.24 77.9041C1159.11 77.9467 1158.94 77.9936 1158.71 78.0447C1158.48 78.0959 1158.2 78.1257 1157.88 78.1342C1157.3 78.1513 1156.77 78.0639 1156.31 77.8722C1155.85 77.6761 1155.48 77.3736 1155.2 76.9645C1154.94 76.5554 1154.8 76.044 1154.81 75.4304V65.8295ZM1165.17 78.1918C1164.19 78.1918 1163.35 77.9766 1162.65 77.5462C1161.95 77.1158 1161.41 76.5213 1161.03 75.7628C1160.65 75 1160.47 74.1222 1160.47 73.1293C1160.47 72.1321 1160.66 71.2521 1161.04 70.4893C1161.43 69.7223 1161.97 69.1257 1162.67 68.6996C1163.37 68.2692 1164.2 68.054 1165.16 68.054C1165.95 68.054 1166.66 68.201 1167.27 68.495C1167.89 68.7848 1168.38 69.196 1168.75 69.7287C1169.12 70.2571 1169.33 70.875 1169.38 71.5824H1167.17C1167.08 71.1094 1166.86 70.7152 1166.53 70.3999C1166.19 70.0803 1165.75 69.9205 1165.19 69.9205C1164.72 69.9205 1164.3 70.0483 1163.94 70.304C1163.59 70.5554 1163.31 70.9176 1163.11 71.3906C1162.91 71.8636 1162.81 72.4304 1162.81 73.0909C1162.81 73.7599 1162.91 74.3352 1163.11 74.8168C1163.3 75.294 1163.58 75.6626 1163.93 75.9226C1164.29 76.1783 1164.71 76.3061 1165.19 76.3061C1165.53 76.3061 1165.84 76.2422 1166.1 76.1143C1166.38 75.9822 1166.6 75.7926 1166.79 75.5455C1166.97 75.2983 1167.1 74.9979 1167.17 74.6442H1169.38C1169.32 75.3388 1169.12 75.9545 1168.76 76.4915C1168.41 77.0241 1167.93 77.4418 1167.32 77.7443C1166.71 78.0426 1165.99 78.1918 1165.17 78.1918ZM1173.59 72.2472V78H1171.28V64.9091H1173.54V69.8501H1173.65C1173.88 69.2962 1174.24 68.8594 1174.72 68.5398C1175.21 68.2159 1175.83 68.054 1176.58 68.054C1177.26 68.054 1177.85 68.1967 1178.36 68.4822C1178.87 68.7678 1179.26 69.1854 1179.54 69.7351C1179.82 70.2848 1179.96 70.956 1179.96 71.7486V78H1177.64V72.1065C1177.64 71.446 1177.47 70.9325 1177.13 70.5661C1176.8 70.1953 1176.32 70.0099 1175.71 70.0099C1175.3 70.0099 1174.94 70.0994 1174.61 70.2784C1174.29 70.4531 1174.04 70.7067 1173.86 71.0391C1173.68 71.3714 1173.59 71.7741 1173.59 72.2472Z" fill="#62636D"/>
<circle cx="1054.5" cy="72.5" r="15.5" fill="#F1F5FE"/>
<path d="M1054.42 78.9277C1057.45 78.9277 1059.91 76.1188 1059.91 72.6538C1059.91 69.1888 1057.45 66.3799 1054.42 66.3799C1051.38 66.3799 1048.93 69.1888 1048.93 72.6538C1048.93 76.1188 1051.38 78.9277 1054.42 78.9277Z" stroke="#4959E7" stroke-width="1.14286"/>
<path d="M1047.36 72.6585L1061.47 72.6553" stroke="#4959E7" stroke-width="1.14286" stroke-linecap="round"/>
<path d="M1052.87 75.833C1053.37 76.2005 1053.89 76.3843 1054.42 76.3843C1054.95 76.3843 1055.47 76.2005 1056 75.833" stroke="#4959E7" stroke-width="1.14286" stroke-linecap="round"/>
<path d="M1058.25 65H1062V68.75" stroke="#4959E7" stroke-width="1.19062" stroke-linecap="round" stroke-linejoin="round"/>
<path d="M1050.75 80H1047V76.25" stroke="#4959E7" stroke-width="1.19062" stroke-linecap="round" stroke-linejoin="round"/>
<path d="M1062 76.25V80H1058.25" stroke="#4959E7" stroke-width="1.19062" stroke-linecap="round" stroke-linejoin="round"/>
<path d="M1047 68.75V65H1050.75" stroke="#4959E7" stroke-width="1.19062" stroke-linecap="round" stroke-linejoin="round"/>
<rect x="1066" y="138" width="77" height="33" rx="6.6" fill="#F1FFF3" fill-opacity="0.8"/>
<rect x="1066.33" y="138.33" width="76.34" height="32.34" rx="6.27" stroke="#74E3A7" stroke-opacity="0.7" stroke-width="0.66"/>
<path d="M1085.64 153.435L1082.01 156.9L1080.2 155.167" stroke="#1FB162" stroke-opacity="0.7" stroke-width="1.23077" stroke-linecap="round" stroke-linejoin="round"/>
<path d="M1082.92 160.86C1086.2 160.86 1088.86 158.201 1088.86 154.92C1088.86 151.64 1086.2 148.98 1082.92 148.98C1079.64 148.98 1076.98 151.64 1076.98 154.92C1076.98 158.201 1079.64 160.86 1082.92 160.86Z" stroke="#1FB162" stroke-opacity="0.7" stroke-width="1.23077" stroke-linecap="round" stroke-linejoin="round"/>
<path d="M1097.84 159H1099V156.3H1100.58C1102.36 156.3 1103.24 155.224 1103.24 153.806C1103.24 152.392 1102.37 151.32 1100.58 151.32H1097.84V159ZM1099 155.317V152.314H1100.46C1101.61 152.314 1102.07 152.936 1102.07 153.806C1102.07 154.676 1101.61 155.317 1100.47 155.317H1099ZM1106.13 159.128C1107.09 159.128 1107.62 158.644 1107.84 158.212H1107.88V159H1108.98V155.175C1108.98 153.499 1107.66 153.165 1106.74 153.165C1105.7 153.165 1104.74 153.585 1104.36 154.635L1105.42 154.875C1105.58 154.466 1106 154.072 1106.76 154.072C1107.48 154.072 1107.85 154.451 1107.85 155.104V155.13C1107.85 155.539 1107.43 155.531 1106.4 155.651C1105.3 155.779 1104.19 156.064 1104.19 157.372C1104.19 158.505 1105.04 159.128 1106.13 159.128ZM1106.38 158.227C1105.74 158.227 1105.29 157.942 1105.29 157.387C1105.29 156.787 1105.82 156.574 1106.47 156.487C1106.83 156.439 1107.69 156.341 1107.85 156.18V156.922C1107.85 157.605 1107.31 158.227 1106.38 158.227ZM1114.79 154.646C1114.55 153.75 1113.85 153.165 1112.61 153.165C1111.31 153.165 1110.38 153.851 1110.38 154.871C1110.38 155.689 1110.88 156.232 1111.96 156.472L1112.93 156.686C1113.49 156.81 1113.75 157.057 1113.75 157.417C1113.75 157.864 1113.27 158.212 1112.54 158.212C1111.86 158.212 1111.43 157.924 1111.3 157.357L1110.21 157.522C1110.4 158.542 1111.25 159.116 1112.54 159.116C1113.93 159.116 1114.9 158.377 1114.9 157.335C1114.9 156.521 1114.38 156.019 1113.32 155.775L1112.41 155.565C1111.77 155.415 1111.5 155.201 1111.5 154.811C1111.5 154.369 1111.98 154.054 1112.62 154.054C1113.32 154.054 1113.64 154.44 1113.77 154.826L1114.79 154.646ZM1120.45 154.646C1120.21 153.75 1119.51 153.165 1118.27 153.165C1116.97 153.165 1116.04 153.851 1116.04 154.871C1116.04 155.689 1116.54 156.232 1117.62 156.472L1118.59 156.686C1119.15 156.81 1119.41 157.057 1119.41 157.417C1119.41 157.864 1118.93 158.212 1118.2 158.212C1117.53 158.212 1117.09 157.924 1116.96 157.357L1115.88 157.522C1116.06 158.542 1116.91 159.116 1118.2 159.116C1119.6 159.116 1120.56 158.377 1120.56 157.335C1120.56 156.521 1120.04 156.019 1118.98 155.775L1118.07 155.565C1117.44 155.415 1117.16 155.201 1117.17 154.811C1117.16 154.369 1117.64 154.054 1118.28 154.054C1118.98 154.054 1119.3 154.44 1119.43 154.826L1120.45 154.646ZM1124.27 159.116C1125.53 159.116 1126.42 158.497 1126.67 157.56L1125.61 157.369C1125.41 157.912 1124.92 158.19 1124.29 158.19C1123.33 158.19 1122.68 157.567 1122.65 156.457H1126.75V156.06C1126.75 153.979 1125.5 153.165 1124.2 153.165C1122.59 153.165 1121.53 154.387 1121.53 156.157C1121.53 157.946 1122.58 159.116 1124.27 159.116ZM1122.65 155.617C1122.7 154.8 1123.29 154.091 1124.2 154.091C1125.07 154.091 1125.64 154.736 1125.65 155.617H1122.65ZM1130.15 159.113C1131.2 159.113 1131.61 158.471 1131.81 158.104H1131.91V159H1133V151.32H1131.88V154.174H1131.81C1131.61 153.817 1131.23 153.165 1130.15 153.165C1128.76 153.165 1127.74 154.264 1127.74 156.131C1127.74 157.995 1128.75 159.113 1130.15 159.113ZM1130.39 158.156C1129.39 158.156 1128.87 157.275 1128.87 156.12C1128.87 154.976 1129.38 154.117 1130.39 154.117C1131.37 154.117 1131.9 154.916 1131.9 156.12C1131.9 157.331 1131.36 158.156 1130.39 158.156Z" fill="#1FB162" fill-opacity="0.7"/>
<line x1="1319" y1="108.5" x2="889" y2="108.5" stroke="#F2F2F7"/>
<line x1="1280" y1="260.5" x2="928" y2="260.5" stroke="#F2F2F7"/>
<path d="M928.861 218V209.273H934.452V210.598H930.442V212.967H934.068V214.293H930.442V218H928.861ZM937.649 218.132C937.234 218.132 936.86 218.058 936.528 217.911C936.199 217.76 935.937 217.538 935.744 217.246C935.554 216.953 935.458 216.592 935.458 216.163C935.458 215.794 935.527 215.489 935.663 215.247C935.799 215.006 935.985 214.812 936.221 214.668C936.457 214.523 936.723 214.413 937.018 214.339C937.316 214.263 937.625 214.207 937.943 214.173C938.326 214.134 938.637 214.098 938.876 214.067C939.115 214.033 939.288 213.982 939.396 213.913C939.507 213.842 939.562 213.733 939.562 213.585V213.56C939.562 213.239 939.467 212.99 939.277 212.814C939.086 212.638 938.812 212.55 938.454 212.55C938.076 212.55 937.777 212.632 937.555 212.797C937.336 212.962 937.189 213.156 937.112 213.381L935.672 213.176C935.785 212.778 935.973 212.446 936.234 212.179C936.495 211.909 936.815 211.707 937.193 211.574C937.571 211.438 937.988 211.369 938.446 211.369C938.761 211.369 939.075 211.406 939.387 211.48C939.7 211.554 939.985 211.676 940.244 211.847C940.502 212.014 940.71 212.243 940.866 212.533C941.025 212.822 941.105 213.185 941.105 213.619V218H939.622V217.101H939.571C939.477 217.283 939.345 217.453 939.174 217.612C939.007 217.768 938.795 217.895 938.539 217.991C938.287 218.085 937.99 218.132 937.649 218.132ZM938.049 216.999C938.359 216.999 938.627 216.937 938.855 216.815C939.082 216.69 939.257 216.526 939.379 216.321C939.504 216.116 939.566 215.893 939.566 215.652V214.881C939.518 214.92 939.436 214.957 939.319 214.991C939.206 215.026 939.078 215.055 938.936 215.081C938.794 215.107 938.653 215.129 938.514 215.149C938.375 215.169 938.254 215.186 938.152 215.2C937.922 215.232 937.716 215.283 937.534 215.354C937.352 215.425 937.208 215.524 937.103 215.652C936.998 215.777 936.946 215.939 936.946 216.138C936.946 216.422 937.049 216.636 937.257 216.781C937.464 216.926 937.728 216.999 938.049 216.999ZM945.511 218.128C944.858 218.128 944.297 217.984 943.828 217.697C943.362 217.411 943.002 217.014 942.75 216.509C942.5 216 942.375 215.415 942.375 214.753C942.375 214.088 942.502 213.501 942.758 212.993C943.014 212.482 943.375 212.084 943.841 211.8C944.309 211.513 944.863 211.369 945.502 211.369C946.034 211.369 946.504 211.467 946.913 211.663C947.325 211.857 947.653 212.131 947.897 212.486C948.142 212.838 948.281 213.25 948.315 213.722H946.841C946.781 213.406 946.639 213.143 946.414 212.933C946.193 212.72 945.896 212.614 945.524 212.614C945.208 212.614 944.931 212.699 944.693 212.869C944.454 213.037 944.268 213.278 944.135 213.594C944.004 213.909 943.939 214.287 943.939 214.727C943.939 215.173 944.004 215.557 944.135 215.878C944.265 216.196 944.449 216.442 944.684 216.615C944.923 216.786 945.203 216.871 945.524 216.871C945.751 216.871 945.954 216.828 946.133 216.743C946.315 216.655 946.467 216.528 946.589 216.364C946.711 216.199 946.795 215.999 946.841 215.763H948.315C948.278 216.226 948.142 216.636 947.906 216.994C947.67 217.349 947.349 217.628 946.943 217.83C946.537 218.028 946.059 218.128 945.511 218.128ZM952.479 218.128C951.823 218.128 951.256 217.991 950.779 217.719C950.305 217.443 949.94 217.054 949.684 216.551C949.428 216.045 949.3 215.45 949.3 214.766C949.3 214.092 949.428 213.501 949.684 212.993C949.942 212.482 950.303 212.084 950.766 211.8C951.229 211.513 951.773 211.369 952.398 211.369C952.802 211.369 953.183 211.435 953.54 211.565C953.901 211.693 954.219 211.892 954.495 212.162C954.773 212.432 954.992 212.776 955.151 213.193C955.31 213.608 955.39 214.102 955.39 214.676V215.149H950.025V214.109H953.911C953.908 213.814 953.844 213.551 953.719 213.321C953.594 213.088 953.42 212.905 953.195 212.771C952.974 212.638 952.715 212.571 952.42 212.571C952.104 212.571 951.827 212.648 951.589 212.801C951.35 212.952 951.164 213.151 951.031 213.398C950.9 213.642 950.833 213.911 950.83 214.203V215.111C950.83 215.491 950.9 215.818 951.039 216.091C951.178 216.361 951.373 216.568 951.623 216.713C951.873 216.855 952.165 216.926 952.501 216.926C952.725 216.926 952.928 216.895 953.11 216.832C953.292 216.767 953.45 216.672 953.583 216.547C953.717 216.422 953.817 216.267 953.886 216.082L955.326 216.244C955.235 216.625 955.062 216.957 954.806 217.241C954.553 217.523 954.229 217.741 953.835 217.898C953.44 218.051 952.988 218.128 952.479 218.128ZM959.74 209.273H961.674L964.265 215.597H964.368L966.958 209.273H968.893V218H967.376V212.004H967.295L964.883 217.974H963.75L961.338 211.991H961.257V218H959.74V209.273ZM972.43 218.132C972.015 218.132 971.642 218.058 971.309 217.911C970.98 217.76 970.718 217.538 970.525 217.246C970.335 216.953 970.24 216.592 970.24 216.163C970.24 215.794 970.308 215.489 970.444 215.247C970.581 215.006 970.767 214.812 971.002 214.668C971.238 214.523 971.504 214.413 971.799 214.339C972.098 214.263 972.406 214.207 972.724 214.173C973.108 214.134 973.419 214.098 973.657 214.067C973.896 214.033 974.069 213.982 974.177 213.913C974.288 213.842 974.343 213.733 974.343 213.585V213.56C974.343 213.239 974.248 212.99 974.058 212.814C973.868 212.638 973.593 212.55 973.235 212.55C972.858 212.55 972.558 212.632 972.336 212.797C972.118 212.962 971.97 213.156 971.893 213.381L970.453 213.176C970.566 212.778 970.754 212.446 971.015 212.179C971.277 211.909 971.596 211.707 971.974 211.574C972.352 211.438 972.77 211.369 973.227 211.369C973.542 211.369 973.856 211.406 974.169 211.48C974.481 211.554 974.767 211.676 975.025 211.847C975.284 212.014 975.491 212.243 975.647 212.533C975.806 212.822 975.886 213.185 975.886 213.619V218H974.403V217.101H974.352C974.258 217.283 974.126 217.453 973.956 217.612C973.788 217.768 973.576 217.895 973.321 217.991C973.068 218.085 972.771 218.132 972.43 218.132ZM972.831 216.999C973.14 216.999 973.409 216.937 973.636 216.815C973.863 216.69 974.038 216.526 974.16 216.321C974.285 216.116 974.348 215.893 974.348 215.652V214.881C974.299 214.92 974.217 214.957 974.1 214.991C973.987 215.026 973.859 215.055 973.717 215.081C973.575 215.107 973.434 215.129 973.295 215.149C973.156 215.169 973.035 215.186 972.933 215.2C972.703 215.232 972.497 215.283 972.315 215.354C972.133 215.425 971.99 215.524 971.885 215.652C971.779 215.777 971.727 215.939 971.727 216.138C971.727 216.422 971.831 216.636 972.038 216.781C972.245 216.926 972.51 216.999 972.831 216.999ZM980.706 211.455V212.648H976.943V211.455H980.706ZM977.872 209.886H979.414V216.031C979.414 216.239 979.446 216.398 979.508 216.509C979.574 216.616 979.659 216.69 979.764 216.73C979.869 216.77 979.985 216.79 980.113 216.79C980.21 216.79 980.298 216.783 980.377 216.768C980.46 216.754 980.522 216.741 980.565 216.73L980.825 217.936C980.743 217.964 980.625 217.996 980.471 218.03C980.321 218.064 980.136 218.084 979.917 218.089C979.531 218.101 979.183 218.043 978.873 217.915C978.564 217.784 978.318 217.582 978.136 217.31C977.957 217.037 977.869 216.696 977.872 216.287V209.886ZM984.781 218.128C984.127 218.128 983.566 217.984 983.097 217.697C982.631 217.411 982.272 217.014 982.019 216.509C981.769 216 981.644 215.415 981.644 214.753C981.644 214.088 981.772 213.501 982.028 212.993C982.283 212.482 982.644 212.084 983.11 211.8C983.579 211.513 984.133 211.369 984.772 211.369C985.303 211.369 985.773 211.467 986.183 211.663C986.594 211.857 986.923 212.131 987.167 212.486C987.411 212.838 987.55 213.25 987.585 213.722H986.11C986.05 213.406 985.908 213.143 985.684 212.933C985.462 212.72 985.165 212.614 984.793 212.614C984.478 212.614 984.201 212.699 983.962 212.869C983.724 213.037 983.538 213.278 983.404 213.594C983.273 213.909 983.208 214.287 983.208 214.727C983.208 215.173 983.273 215.557 983.404 215.878C983.535 216.196 983.718 216.442 983.954 216.615C984.192 216.786 984.472 216.871 984.793 216.871C985.021 216.871 985.224 216.828 985.403 216.743C985.585 216.655 985.737 216.528 985.859 216.364C985.981 216.199 986.065 215.999 986.11 215.763H987.585C987.548 216.226 987.411 216.636 987.175 216.994C986.94 217.349 986.619 217.628 986.212 217.83C985.806 218.028 985.329 218.128 984.781 218.128ZM990.394 214.165V218H988.851V209.273H990.36V212.567H990.436C990.59 212.197 990.827 211.906 991.148 211.693C991.472 211.477 991.884 211.369 992.384 211.369C992.838 211.369 993.235 211.464 993.573 211.655C993.911 211.845 994.172 212.124 994.357 212.49C994.544 212.857 994.638 213.304 994.638 213.832V218H993.096V214.071C993.096 213.631 992.982 213.288 992.755 213.044C992.53 212.797 992.215 212.673 991.809 212.673C991.536 212.673 991.292 212.733 991.076 212.852C990.863 212.969 990.695 213.138 990.573 213.359C990.453 213.581 990.394 213.849 990.394 214.165Z" fill="#494A53"/>
<rect x="1236" y="209" width="46.4516" height="18" rx="8.70968" fill="#F1FFF3" fill-opacity="0.8"/>
<rect x="1236.29" y="209.29" width="45.871" height="17.4194" rx="8.41936" stroke="#74E3A7" stroke-opacity="0.7" stroke-width="0.580645"/>
<path d="M1245.29 220.902H1246.36V218.905H1247.5C1248.86 218.905 1249.59 218.085 1249.59 216.948C1249.59 215.819 1248.87 214.99 1247.51 214.99H1245.29V220.902ZM1246.36 218.024V215.885H1247.35C1248.15 215.885 1248.5 216.318 1248.5 216.948C1248.5 217.577 1248.15 218.024 1247.35 218.024H1246.36ZM1251.67 220.992C1252.37 220.992 1252.79 220.666 1252.98 220.293H1253.01V220.902H1254.02V217.935C1254.02 216.763 1253.06 216.411 1252.21 216.411C1251.28 216.411 1250.57 216.826 1250.33 217.635L1251.31 217.773C1251.41 217.47 1251.71 217.21 1252.22 217.21C1252.7 217.21 1252.97 217.458 1252.97 217.894V217.912C1252.97 218.212 1252.66 218.226 1251.87 218.31C1251.01 218.402 1250.19 218.659 1250.19 219.658C1250.19 220.53 1250.83 220.992 1251.67 220.992ZM1251.95 220.224C1251.51 220.224 1251.2 220.025 1251.2 219.641C1251.2 219.24 1251.55 219.072 1252.02 219.006C1252.29 218.968 1252.84 218.899 1252.97 218.789V219.312C1252.97 219.805 1252.58 220.224 1251.95 220.224ZM1258.57 217.64C1258.43 216.89 1257.83 216.411 1256.79 216.411C1255.72 216.411 1254.99 216.936 1254.99 217.756C1254.99 218.402 1255.39 218.83 1256.24 219.006L1257 219.165C1257.4 219.254 1257.6 219.419 1257.6 219.67C1257.6 219.973 1257.27 220.201 1256.77 220.201C1256.29 220.201 1255.98 219.993 1255.89 219.595L1254.87 219.693C1255 220.507 1255.68 220.989 1256.77 220.989C1257.88 220.989 1258.66 220.414 1258.67 219.574C1258.66 218.942 1258.26 218.555 1257.42 218.374L1256.66 218.212C1256.21 218.111 1256.03 217.955 1256.04 217.698C1256.03 217.398 1256.37 217.19 1256.8 217.19C1257.28 217.19 1257.54 217.453 1257.62 217.744L1258.57 217.64ZM1263.03 217.64C1262.89 216.89 1262.29 216.411 1261.25 216.411C1260.18 216.411 1259.45 216.936 1259.46 217.756C1259.45 218.402 1259.85 218.83 1260.7 219.006L1261.46 219.165C1261.87 219.254 1262.06 219.419 1262.06 219.67C1262.06 219.973 1261.73 220.201 1261.23 220.201C1260.75 220.201 1260.44 219.993 1260.35 219.595L1259.33 219.693C1259.46 220.507 1260.15 220.989 1261.23 220.989C1262.34 220.989 1263.12 220.414 1263.13 219.574C1263.12 218.942 1262.72 218.555 1261.88 218.374L1261.12 218.212C1260.67 218.111 1260.49 217.955 1260.5 217.698C1260.49 217.398 1260.83 217.19 1261.26 217.19C1261.74 217.19 1262 217.453 1262.08 217.744L1263.03 217.64ZM1265.95 220.989C1266.99 220.989 1267.7 220.484 1267.88 219.713L1266.9 219.603C1266.76 219.979 1266.42 220.175 1265.97 220.175C1265.29 220.175 1264.84 219.73 1264.84 218.971H1267.92V218.651C1267.92 217.095 1266.99 216.411 1265.9 216.411C1264.63 216.411 1263.8 217.343 1263.8 218.711C1263.8 220.103 1264.62 220.989 1265.95 220.989ZM1264.84 218.267C1264.87 217.701 1265.29 217.225 1265.91 217.225C1266.51 217.225 1266.92 217.663 1266.92 218.267H1264.84ZM1270.45 220.98C1271.22 220.98 1271.56 220.527 1271.72 220.204H1271.79V220.902H1272.81V214.99H1271.77V217.202H1271.72C1271.56 216.881 1271.24 216.411 1270.46 216.411C1269.43 216.411 1268.63 217.213 1268.63 218.691C1268.63 220.152 1269.41 220.98 1270.45 220.98ZM1270.74 220.123C1270.05 220.123 1269.69 219.517 1269.69 218.685C1269.69 217.86 1270.05 217.268 1270.74 217.268C1271.42 217.268 1271.79 217.825 1271.79 218.685C1271.79 219.546 1271.41 220.123 1270.74 220.123Z" fill="#1FB162" fill-opacity="0.7"/>
<circle cx="906" cy="23" r="2" fill="white"/>
<circle cx="914" cy="23" r="2" fill="white"/>
<circle cx="922" cy="23" r="2" fill="white"/>
<path d="M928.799 238V230.727H931.391C931.957 230.727 932.426 230.83 932.798 231.036C933.169 231.242 933.447 231.524 933.632 231.881C933.817 232.237 933.909 232.637 933.909 233.082C933.909 233.529 933.816 233.932 933.629 234.289C933.444 234.644 933.165 234.926 932.79 235.134C932.419 235.34 931.951 235.443 931.388 235.443H929.605V234.513H931.288C931.646 234.513 931.936 234.451 932.158 234.328C932.381 234.203 932.544 234.032 932.648 233.817C932.753 233.601 932.805 233.356 932.805 233.082C932.805 232.807 932.753 232.563 932.648 232.35C932.544 232.137 932.38 231.97 932.155 231.849C931.932 231.729 931.639 231.668 931.274 231.668H929.896V238H928.799ZM936.649 238.121C936.303 238.121 935.991 238.057 935.711 237.929C935.432 237.799 935.211 237.611 935.047 237.364C934.886 237.118 934.806 236.816 934.806 236.459C934.806 236.151 934.865 235.898 934.983 235.699C935.102 235.5 935.261 235.343 935.463 235.227C935.664 235.111 935.889 235.023 936.137 234.964C936.386 234.905 936.639 234.86 936.897 234.829C937.224 234.791 937.489 234.76 937.693 234.737C937.896 234.71 938.044 234.669 938.137 234.612C938.229 234.555 938.275 234.463 938.275 234.335V234.31C938.275 234 938.188 233.76 938.012 233.589C937.84 233.419 937.582 233.334 937.238 233.334C936.881 233.334 936.599 233.413 936.393 233.572C936.19 233.728 936.049 233.902 935.971 234.094L934.973 233.866C935.091 233.535 935.264 233.268 935.491 233.064C935.721 232.858 935.985 232.709 936.283 232.616C936.581 232.522 936.895 232.474 937.224 232.474C937.442 232.474 937.673 232.5 937.917 232.553C938.163 232.602 938.392 232.695 938.605 232.83C938.821 232.964 938.997 233.157 939.135 233.408C939.272 233.657 939.341 233.98 939.341 234.378V238H938.304V237.254H938.261C938.192 237.392 938.089 237.527 937.952 237.659C937.815 237.792 937.638 237.902 937.423 237.989C937.208 238.077 936.949 238.121 936.649 238.121ZM936.88 237.268C937.173 237.268 937.424 237.21 937.632 237.094C937.843 236.978 938.003 236.827 938.112 236.64C938.223 236.451 938.279 236.248 938.279 236.033V235.33C938.241 235.367 938.167 235.403 938.059 235.436C937.952 235.467 937.83 235.494 937.693 235.518C937.556 235.539 937.422 235.559 937.292 235.578C937.161 235.595 937.052 235.609 936.965 235.621C936.759 235.647 936.571 235.691 936.4 235.752C936.232 235.814 936.097 235.902 935.995 236.018C935.896 236.132 935.846 236.284 935.846 236.473C935.846 236.736 935.943 236.935 936.137 237.07C936.332 237.202 936.579 237.268 936.88 237.268ZM944.842 233.877L943.88 234.048C943.84 233.924 943.776 233.807 943.688 233.696C943.603 233.585 943.487 233.494 943.34 233.423C943.193 233.352 943.01 233.316 942.79 233.316C942.489 233.316 942.238 233.384 942.037 233.518C941.836 233.651 941.735 233.823 941.735 234.033C941.735 234.216 941.802 234.362 941.937 234.474C942.072 234.585 942.29 234.676 942.591 234.747L943.457 234.946C943.959 235.062 944.333 235.241 944.579 235.482C944.826 235.724 944.949 236.037 944.949 236.423C944.949 236.75 944.854 237.041 944.665 237.297C944.478 237.55 944.216 237.749 943.88 237.893C943.546 238.038 943.159 238.11 942.719 238.11C942.108 238.11 941.609 237.98 941.224 237.719C940.838 237.457 940.601 237.084 940.513 236.601L941.54 236.445C941.604 236.712 941.735 236.915 941.934 237.052C942.133 237.187 942.392 237.254 942.711 237.254C943.059 237.254 943.338 237.182 943.546 237.038C943.754 236.891 943.858 236.712 943.858 236.501C943.858 236.331 943.795 236.188 943.667 236.072C943.541 235.956 943.348 235.868 943.088 235.809L942.165 235.607C941.656 235.491 941.279 235.306 941.035 235.053C940.794 234.799 940.673 234.478 940.673 234.09C940.673 233.768 940.763 233.487 940.943 233.245C941.123 233.004 941.372 232.815 941.689 232.68C942.006 232.543 942.369 232.474 942.779 232.474C943.368 232.474 943.832 232.602 944.171 232.858C944.51 233.111 944.733 233.451 944.842 233.877ZM950.203 233.877L949.241 234.048C949.201 233.924 949.137 233.807 949.049 233.696C948.964 233.585 948.848 233.494 948.701 233.423C948.555 233.352 948.371 233.316 948.151 233.316C947.85 233.316 947.599 233.384 947.398 233.518C947.197 233.651 947.096 233.823 947.096 234.033C947.096 234.216 947.164 234.362 947.299 234.474C947.434 234.585 947.651 234.676 947.952 234.747L948.819 234.946C949.32 235.062 949.694 235.241 949.941 235.482C950.187 235.724 950.31 236.037 950.31 236.423C950.31 236.75 950.215 237.041 950.026 237.297C949.839 237.55 949.577 237.749 949.241 237.893C948.907 238.038 948.52 238.11 948.08 238.11C947.469 238.11 946.971 237.98 946.585 237.719C946.199 237.457 945.962 237.084 945.875 236.601L946.901 236.445C946.965 236.712 947.096 236.915 947.295 237.052C947.494 237.187 947.753 237.254 948.073 237.254C948.421 237.254 948.699 237.182 948.907 237.038C949.116 236.891 949.22 236.712 949.22 236.501C949.22 236.331 949.156 236.188 949.028 236.072C948.903 235.956 948.71 235.868 948.449 235.809L947.526 235.607C947.017 235.491 946.641 235.306 946.397 235.053C946.155 234.799 946.034 234.478 946.034 234.09C946.034 233.768 946.124 233.487 946.304 233.245C946.484 233.004 946.733 232.815 947.05 232.68C947.367 232.543 947.731 232.474 948.14 232.474C948.73 232.474 949.194 232.602 949.532 232.858C949.871 233.111 950.095 233.451 950.203 233.877ZM951.477 238V232.545H952.539V238H951.477ZM952.014 231.704C951.829 231.704 951.67 231.642 951.538 231.519C951.408 231.394 951.343 231.245 951.343 231.072C951.343 230.897 951.408 230.747 951.538 230.624C951.67 230.499 951.829 230.436 952.014 230.436C952.198 230.436 952.356 230.499 952.486 230.624C952.619 230.747 952.685 230.897 952.685 231.072C952.685 231.245 952.619 231.394 952.486 231.519C952.356 231.642 952.198 231.704 952.014 231.704ZM958.634 232.545L956.656 238H955.52L953.538 232.545H954.678L956.059 236.743H956.116L957.494 232.545H958.634ZM961.797 238.11C961.26 238.11 960.797 237.995 960.409 237.766C960.023 237.534 959.724 237.208 959.514 236.789C959.305 236.368 959.201 235.874 959.201 235.308C959.201 234.75 959.305 234.257 959.514 233.831C959.724 233.405 960.018 233.072 960.394 232.833C960.773 232.594 961.216 232.474 961.722 232.474C962.03 232.474 962.329 232.525 962.617 232.627C962.906 232.729 963.165 232.889 963.395 233.107C963.625 233.324 963.806 233.607 963.938 233.955C964.071 234.301 964.137 234.721 964.137 235.216V235.592H959.801V234.797H963.097C963.097 234.518 963.04 234.27 962.926 234.055C962.813 233.837 962.653 233.665 962.447 233.54C962.243 233.414 962.004 233.352 961.73 233.352C961.431 233.352 961.171 233.425 960.948 233.572C960.728 233.716 960.558 233.906 960.437 234.14C960.319 234.372 960.259 234.624 960.259 234.896V235.518C960.259 235.882 960.323 236.192 960.451 236.448C960.581 236.704 960.762 236.899 960.994 237.034C961.227 237.167 961.498 237.233 961.808 237.233C962.009 237.233 962.192 237.205 962.358 237.148C962.524 237.089 962.667 237.001 962.788 236.885C962.909 236.769 963.001 236.626 963.065 236.455L964.07 236.636C963.989 236.932 963.845 237.192 963.637 237.414C963.431 237.634 963.171 237.806 962.859 237.929C962.549 238.05 962.195 238.11 961.797 238.11ZM969.024 230.727V238H967.962V230.727H969.024ZM970.452 238V232.545H971.514V238H970.452ZM970.988 231.704C970.804 231.704 970.645 231.642 970.512 231.519C970.382 231.394 970.317 231.245 970.317 231.072C970.317 230.897 970.382 230.747 970.512 230.624C970.645 230.499 970.804 230.436 970.988 230.436C971.173 230.436 971.33 230.499 971.461 230.624C971.593 230.747 971.659 230.897 971.659 231.072C971.659 231.245 971.593 231.394 971.461 231.519C971.33 231.642 971.173 231.704 970.988 231.704ZM977.608 232.545L975.631 238H974.494L972.513 232.545H973.653L975.034 236.743H975.091L976.469 232.545H977.608ZM980.772 238.11C980.234 238.11 979.771 237.995 979.383 237.766C978.997 237.534 978.699 237.208 978.488 236.789C978.28 236.368 978.176 235.874 978.176 235.308C978.176 234.75 978.28 234.257 978.488 233.831C978.699 233.405 978.993 233.072 979.369 232.833C979.748 232.594 980.19 232.474 980.697 232.474C981.005 232.474 981.303 232.525 981.592 232.627C981.881 232.729 982.14 232.889 982.37 233.107C982.599 233.324 982.78 233.607 982.913 233.955C983.046 234.301 983.112 234.721 983.112 235.216V235.592H978.776V234.797H982.071C982.071 234.518 982.015 234.27 981.901 234.055C981.787 233.837 981.627 233.665 981.422 233.54C981.218 233.414 980.979 233.352 980.704 233.352C980.406 233.352 980.145 233.425 979.923 233.572C979.703 233.716 979.532 233.906 979.412 234.14C979.293 234.372 979.234 234.624 979.234 234.896V235.518C979.234 235.882 979.298 236.192 979.426 236.448C979.556 236.704 979.737 236.899 979.969 237.034C980.201 237.167 980.472 237.233 980.782 237.233C980.984 237.233 981.167 237.205 981.333 237.148C981.498 237.089 981.642 237.001 981.762 236.885C981.883 236.769 981.975 236.626 982.039 236.455L983.044 236.636C982.964 236.932 982.819 237.192 982.611 237.414C982.405 237.634 982.146 237.806 981.833 237.929C981.523 238.05 981.169 238.11 980.772 238.11ZM985.352 234.761V238H984.29V232.545H985.309V233.433H985.377C985.502 233.144 985.699 232.912 985.966 232.737C986.236 232.562 986.576 232.474 986.985 232.474C987.357 232.474 987.682 232.553 987.962 232.709C988.241 232.863 988.458 233.092 988.612 233.398C988.766 233.703 988.843 234.081 988.843 234.531V238H987.781V234.658C987.781 234.263 987.678 233.954 987.472 233.732C987.266 233.507 986.983 233.394 986.623 233.394C986.377 233.394 986.158 233.447 985.966 233.554C985.777 233.661 985.626 233.817 985.515 234.023C985.406 234.226 985.352 234.473 985.352 234.761ZM992.617 238.11C992.08 238.11 991.617 237.995 991.229 237.766C990.843 237.534 990.545 237.208 990.334 236.789C990.126 236.368 990.021 235.874 990.021 235.308C990.021 234.75 990.126 234.257 990.334 233.831C990.545 233.405 990.838 233.072 991.215 232.833C991.593 232.594 992.036 232.474 992.543 232.474C992.851 232.474 993.149 232.525 993.438 232.627C993.727 232.729 993.986 232.889 994.215 233.107C994.445 233.324 994.626 233.607 994.759 233.955C994.891 234.301 994.958 234.721 994.958 235.216V235.592H990.622V234.797H993.917C993.917 234.518 993.86 234.27 993.747 234.055C993.633 233.837 993.473 233.665 993.267 233.54C993.064 233.414 992.825 233.352 992.55 233.352C992.252 233.352 991.991 233.425 991.769 233.572C991.548 233.716 991.378 233.906 991.257 234.14C991.139 234.372 991.08 234.624 991.08 234.896V235.518C991.08 235.882 991.144 236.192 991.271 236.448C991.402 236.704 991.583 236.899 991.815 237.034C992.047 237.167 992.318 237.233 992.628 237.233C992.829 237.233 993.013 237.205 993.178 237.148C993.344 237.089 993.487 237.001 993.608 236.885C993.729 236.769 993.821 236.626 993.885 236.455L994.89 236.636C994.81 236.932 994.665 237.192 994.457 237.414C994.251 237.634 993.992 237.806 993.679 237.929C993.369 238.05 993.015 238.11 992.617 238.11ZM1000.22 233.877L999.261 234.048C999.22 233.924 999.156 233.807 999.069 233.696C998.984 233.585 998.868 233.494 998.721 233.423C998.574 233.352 998.391 233.316 998.17 233.316C997.87 233.316 997.619 233.384 997.418 233.518C997.216 233.651 997.116 233.823 997.116 234.033C997.116 234.216 997.183 234.362 997.318 234.474C997.453 234.585 997.671 234.676 997.972 234.747L998.838 234.946C999.34 235.062 999.714 235.241 999.96 235.482C1000.21 235.724 1000.33 236.037 1000.33 236.423C1000.33 236.75 1000.23 237.041 1000.05 237.297C999.858 237.55 999.597 237.749 999.261 237.893C998.927 238.038 998.54 238.11 998.099 238.11C997.489 238.11 996.99 237.98 996.604 237.719C996.219 237.457 995.982 237.084 995.894 236.601L996.92 236.445C996.984 236.712 997.116 236.915 997.315 237.052C997.513 237.187 997.773 237.254 998.092 237.254C998.44 237.254 998.719 237.182 998.927 237.038C999.135 236.891 999.239 236.712 999.239 236.501C999.239 236.331 999.175 236.188 999.048 236.072C998.922 235.956 998.729 235.868 998.469 235.809L997.545 235.607C997.036 235.491 996.66 235.306 996.416 235.053C996.175 234.799 996.054 234.478 996.054 234.09C996.054 233.768 996.144 233.487 996.324 233.245C996.504 233.004 996.752 232.815 997.07 232.68C997.387 232.543 997.75 232.474 998.16 232.474C998.749 232.474 999.213 232.602 999.552 232.858C999.89 233.111 1000.11 233.451 1000.22 233.877ZM1005.58 233.877L1004.62 234.048C1004.58 233.924 1004.52 233.807 1004.43 233.696C1004.34 233.585 1004.23 233.494 1004.08 233.423C1003.94 233.352 1003.75 233.316 1003.53 233.316C1003.23 233.316 1002.98 233.384 1002.78 233.518C1002.58 233.651 1002.48 233.823 1002.48 234.033C1002.48 234.216 1002.54 234.362 1002.68 234.474C1002.81 234.585 1003.03 234.676 1003.33 234.747L1004.2 234.946C1004.7 235.062 1005.08 235.241 1005.32 235.482C1005.57 235.724 1005.69 236.037 1005.69 236.423C1005.69 236.75 1005.6 237.041 1005.41 237.297C1005.22 237.55 1004.96 237.749 1004.62 237.893C1004.29 238.038 1003.9 238.11 1003.46 238.11C1002.85 238.11 1002.35 237.98 1001.97 237.719C1001.58 237.457 1001.34 237.084 1001.26 236.601L1002.28 236.445C1002.35 236.712 1002.48 236.915 1002.68 237.052C1002.87 237.187 1003.13 237.254 1003.45 237.254C1003.8 237.254 1004.08 237.182 1004.29 237.038C1004.5 236.891 1004.6 236.712 1004.6 236.501C1004.6 236.331 1004.54 236.188 1004.41 236.072C1004.28 235.956 1004.09 235.868 1003.83 235.809L1002.91 235.607C1002.4 235.491 1002.02 235.306 1001.78 235.053C1001.54 234.799 1001.42 234.478 1001.42 234.09C1001.42 233.768 1001.51 233.487 1001.69 233.245C1001.87 233.004 1002.11 232.815 1002.43 232.68C1002.75 232.543 1003.11 232.474 1003.52 232.474C1004.11 232.474 1004.57 232.602 1004.91 232.858C1005.25 233.111 1005.48 233.451 1005.58 233.877ZM1011.8 238.11C1011.27 238.11 1010.82 237.991 1010.44 237.751C1010.06 237.51 1009.77 237.177 1009.57 236.754C1009.36 236.33 1009.26 235.844 1009.26 235.298C1009.26 234.744 1009.36 234.255 1009.57 233.831C1009.78 233.405 1010.07 233.072 1010.45 232.833C1010.83 232.594 1011.28 232.474 1011.79 232.474C1012.21 232.474 1012.58 232.551 1012.9 232.705C1013.22 232.857 1013.49 233.07 1013.68 233.344C1013.89 233.619 1014.01 233.94 1014.04 234.307H1013.01C1012.95 234.051 1012.82 233.831 1012.62 233.646C1012.42 233.462 1012.15 233.369 1011.81 233.369C1011.51 233.369 1011.25 233.447 1011.03 233.604C1010.81 233.758 1010.64 233.978 1010.52 234.264C1010.39 234.548 1010.33 234.884 1010.33 235.273C1010.33 235.67 1010.39 236.014 1010.51 236.303C1010.63 236.591 1010.8 236.815 1011.02 236.974C1011.25 237.132 1011.51 237.212 1011.81 237.212C1012.01 237.212 1012.19 237.175 1012.36 237.102C1012.52 237.026 1012.66 236.918 1012.77 236.778C1012.89 236.639 1012.96 236.471 1013.01 236.274H1014.04C1014.01 236.627 1013.89 236.942 1013.7 237.219C1013.51 237.496 1013.25 237.714 1012.93 237.872C1012.61 238.031 1012.23 238.11 1011.8 238.11ZM1016.24 234.761V238H1015.18V230.727H1016.23V233.433H1016.29C1016.42 233.14 1016.62 232.906 1016.88 232.734C1017.14 232.561 1017.49 232.474 1017.91 232.474C1018.28 232.474 1018.61 232.551 1018.89 232.705C1019.17 232.859 1019.39 233.089 1019.54 233.394C1019.7 233.697 1019.78 234.076 1019.78 234.531V238H1018.72V234.658C1018.72 234.258 1018.61 233.948 1018.41 233.728C1018.2 233.505 1017.91 233.394 1017.55 233.394C1017.3 233.394 1017.07 233.447 1016.87 233.554C1016.68 233.661 1016.52 233.817 1016.41 234.023C1016.3 234.226 1016.24 234.473 1016.24 234.761ZM1023.55 238.11C1023.01 238.11 1022.54 237.995 1022.16 237.766C1021.77 237.534 1021.47 237.208 1021.26 236.789C1021.05 236.368 1020.95 235.874 1020.95 235.308C1020.95 234.75 1021.05 234.257 1021.26 233.831C1021.47 233.405 1021.77 233.072 1022.14 232.833C1022.52 232.594 1022.96 232.474 1023.47 232.474C1023.78 232.474 1024.08 232.525 1024.37 232.627C1024.65 232.729 1024.91 232.889 1025.14 233.107C1025.37 233.324 1025.55 233.607 1025.69 233.955C1025.82 234.301 1025.89 234.721 1025.89 235.216V235.592H1021.55V234.797H1024.84C1024.84 234.518 1024.79 234.27 1024.67 234.055C1024.56 233.837 1024.4 233.665 1024.19 233.54C1023.99 233.414 1023.75 233.352 1023.48 233.352C1023.18 233.352 1022.92 233.425 1022.7 233.572C1022.48 233.716 1022.31 233.906 1022.19 234.14C1022.07 234.372 1022.01 234.624 1022.01 234.896V235.518C1022.01 235.882 1022.07 236.192 1022.2 236.448C1022.33 236.704 1022.51 236.899 1022.74 237.034C1022.97 237.167 1023.25 237.233 1023.56 237.233C1023.76 237.233 1023.94 237.205 1024.11 237.148C1024.27 237.089 1024.42 237.001 1024.54 236.885C1024.66 236.769 1024.75 236.626 1024.81 236.455L1025.82 236.636C1025.74 236.932 1025.59 237.192 1025.38 237.414C1025.18 237.634 1024.92 237.806 1024.61 237.929C1024.3 238.05 1023.94 238.11 1023.55 238.11ZM1029.36 238.11C1028.83 238.11 1028.38 237.991 1028 237.751C1027.62 237.51 1027.33 237.177 1027.12 236.754C1026.92 236.33 1026.82 235.844 1026.82 235.298C1026.82 234.744 1026.92 234.255 1027.13 233.831C1027.34 233.405 1027.63 233.072 1028.01 232.833C1028.39 232.594 1028.84 232.474 1029.35 232.474C1029.76 232.474 1030.13 232.551 1030.46 232.705C1030.78 232.857 1031.04 233.07 1031.24 233.344C1031.44 233.619 1031.56 233.94 1031.6 234.307H1030.57C1030.51 234.051 1030.38 233.831 1030.18 233.646C1029.98 233.462 1029.71 233.369 1029.37 233.369C1029.07 233.369 1028.81 233.447 1028.59 233.604C1028.37 233.758 1028.2 233.978 1028.08 234.264C1027.95 234.548 1027.89 234.884 1027.89 235.273C1027.89 235.67 1027.95 236.014 1028.07 236.303C1028.19 236.591 1028.36 236.815 1028.58 236.974C1028.81 237.132 1029.07 237.212 1029.37 237.212C1029.57 237.212 1029.75 237.175 1029.91 237.102C1030.08 237.026 1030.22 236.918 1030.33 236.778C1030.44 236.639 1030.52 236.471 1030.57 236.274H1031.6C1031.56 236.627 1031.45 236.942 1031.26 237.219C1031.07 237.496 1030.81 237.714 1030.49 237.872C1030.17 238.031 1029.79 238.11 1029.36 238.11ZM1033.71 236.15L1033.71 234.854H1033.89L1036.06 232.545H1037.34L1034.86 235.173H1034.69L1033.71 236.15ZM1032.74 238V230.727H1033.8V238H1032.74ZM1036.18 238L1034.23 235.408L1034.96 234.665L1037.49 238H1036.18ZM1045.62 232.545L1043.64 238H1042.5L1040.52 232.545H1041.66L1043.04 236.743H1043.1L1044.48 232.545H1045.62ZM1048.78 238.11C1048.24 238.11 1047.78 237.995 1047.39 237.766C1047.01 237.534 1046.71 237.208 1046.5 236.789C1046.29 236.368 1046.18 235.874 1046.18 235.308C1046.18 234.75 1046.29 234.257 1046.5 233.831C1046.71 233.405 1047 233.072 1047.38 232.833C1047.76 232.594 1048.2 232.474 1048.7 232.474C1049.01 232.474 1049.31 232.525 1049.6 232.627C1049.89 232.729 1050.15 232.889 1050.38 233.107C1050.61 233.324 1050.79 233.607 1050.92 233.955C1051.05 234.301 1051.12 234.721 1051.12 235.216V235.592H1046.78V234.797H1050.08C1050.08 234.518 1050.02 234.27 1049.91 234.055C1049.8 233.837 1049.64 233.665 1049.43 233.54C1049.23 233.414 1048.99 233.352 1048.71 233.352C1048.41 233.352 1048.15 233.425 1047.93 233.572C1047.71 233.716 1047.54 233.906 1047.42 234.14C1047.3 234.372 1047.24 234.624 1047.24 234.896V235.518C1047.24 235.882 1047.31 236.192 1047.43 236.448C1047.56 236.704 1047.74 236.899 1047.98 237.034C1048.21 237.167 1048.48 237.233 1048.79 237.233C1048.99 237.233 1049.17 237.205 1049.34 237.148C1049.51 237.089 1049.65 237.001 1049.77 236.885C1049.89 236.769 1049.98 236.626 1050.05 236.455L1051.05 236.636C1050.97 236.932 1050.83 237.192 1050.62 237.414C1050.41 237.634 1050.15 237.806 1049.84 237.929C1049.53 238.05 1049.18 238.11 1048.78 238.11ZM1052.3 238V232.545H1053.32V233.412H1053.38C1053.48 233.118 1053.66 232.888 1053.91 232.719C1054.16 232.549 1054.45 232.464 1054.77 232.464C1054.83 232.464 1054.91 232.466 1055 232.471C1055.09 232.476 1055.16 232.482 1055.22 232.489V233.504C1055.17 233.492 1055.1 233.479 1054.99 233.465C1054.88 233.449 1054.77 233.44 1054.66 233.44C1054.41 233.44 1054.19 233.494 1053.99 233.6C1053.8 233.704 1053.64 233.85 1053.53 234.037C1053.42 234.222 1053.36 234.432 1053.36 234.669V238H1052.3ZM1056.14 238V232.545H1057.2V238H1056.14ZM1056.67 231.704C1056.49 231.704 1056.33 231.642 1056.2 231.519C1056.07 231.394 1056 231.245 1056 231.072C1056 230.897 1056.07 230.747 1056.2 230.624C1056.33 230.499 1056.49 230.436 1056.67 230.436C1056.86 230.436 1057.01 230.499 1057.14 230.624C1057.28 230.747 1057.34 230.897 1057.34 231.072C1057.34 231.245 1057.28 231.394 1057.14 231.519C1057.01 231.642 1056.86 231.704 1056.67 231.704ZM1061.22 232.545V233.398H1058.14V232.545H1061.22ZM1058.98 238V231.913C1058.98 231.572 1059.06 231.29 1059.21 231.065C1059.36 230.837 1059.56 230.668 1059.8 230.557C1060.05 230.443 1060.32 230.386 1060.6 230.386C1060.82 230.386 1061 230.404 1061.15 230.44C1061.3 230.473 1061.41 230.504 1061.49 230.532L1061.24 231.391C1061.19 231.377 1061.13 231.361 1061.05 231.342C1060.97 231.32 1060.87 231.31 1060.76 231.31C1060.51 231.31 1060.32 231.374 1060.21 231.501C1060.1 231.629 1060.05 231.814 1060.05 232.055V238H1058.98ZM1062.32 238V232.545H1063.38V238H1062.32ZM1062.85 231.704C1062.67 231.704 1062.51 231.642 1062.38 231.519C1062.25 231.394 1062.18 231.245 1062.18 231.072C1062.18 230.897 1062.25 230.747 1062.38 230.624C1062.51 230.499 1062.67 230.436 1062.85 230.436C1063.04 230.436 1063.2 230.499 1063.33 230.624C1063.46 230.747 1063.52 230.897 1063.52 231.072C1063.52 231.245 1063.46 231.394 1063.33 231.519C1063.2 231.642 1063.04 231.704 1062.85 231.704ZM1067.16 238.11C1066.62 238.11 1066.16 237.995 1065.77 237.766C1065.38 237.534 1065.09 237.208 1064.88 236.789C1064.67 236.368 1064.56 235.874 1064.56 235.308C1064.56 234.75 1064.67 234.257 1064.88 233.831C1065.09 233.405 1065.38 233.072 1065.76 232.833C1066.13 232.594 1066.58 232.474 1067.08 232.474C1067.39 232.474 1067.69 232.525 1067.98 232.627C1068.27 232.729 1068.53 232.889 1068.76 233.107C1068.99 233.324 1069.17 233.607 1069.3 233.955C1069.43 234.301 1069.5 234.721 1069.5 235.216V235.592H1065.16V234.797H1068.46C1068.46 234.518 1068.4 234.27 1068.29 234.055C1068.17 233.837 1068.01 233.665 1067.81 233.54C1067.6 233.414 1067.37 233.352 1067.09 233.352C1066.79 233.352 1066.53 233.425 1066.31 233.572C1066.09 233.716 1065.92 233.906 1065.8 234.14C1065.68 234.372 1065.62 234.624 1065.62 234.896V235.518C1065.62 235.882 1065.68 236.192 1065.81 236.448C1065.94 236.704 1066.12 236.899 1066.36 237.034C1066.59 237.167 1066.86 237.233 1067.17 237.233C1067.37 237.233 1067.55 237.205 1067.72 237.148C1067.89 237.089 1068.03 237.001 1068.15 236.885C1068.27 236.769 1068.36 236.626 1068.43 236.455L1069.43 236.636C1069.35 236.932 1069.21 237.192 1069 237.414C1068.79 237.634 1068.53 237.806 1068.22 237.929C1067.91 238.05 1067.56 238.11 1067.16 238.11ZM1072.72 238.107C1072.28 238.107 1071.89 237.994 1071.54 237.769C1071.2 237.542 1070.93 237.219 1070.73 236.8C1070.54 236.378 1070.44 235.873 1070.44 235.283C1070.44 234.694 1070.54 234.19 1070.73 233.771C1070.93 233.352 1071.2 233.031 1071.55 232.808C1071.9 232.586 1072.29 232.474 1072.73 232.474C1073.06 232.474 1073.34 232.531 1073.54 232.645C1073.75 232.756 1073.91 232.886 1074.03 233.036C1074.14 233.185 1074.23 233.316 1074.3 233.43H1074.36V230.727H1075.42V238H1074.38V237.151H1074.3C1074.23 237.267 1074.14 237.4 1074.02 237.549C1073.9 237.698 1073.74 237.828 1073.53 237.94C1073.32 238.051 1073.05 238.107 1072.72 238.107ZM1072.95 237.201C1073.26 237.201 1073.52 237.121 1073.73 236.96C1073.94 236.796 1074.1 236.57 1074.21 236.281C1074.32 235.992 1074.38 235.656 1074.38 235.273C1074.38 234.894 1074.32 234.562 1074.21 234.278C1074.1 233.994 1073.94 233.773 1073.73 233.614C1073.52 233.456 1073.26 233.376 1072.95 233.376C1072.63 233.376 1072.37 233.459 1072.15 233.625C1071.94 233.791 1071.78 234.017 1071.67 234.303C1071.56 234.59 1071.51 234.913 1071.51 235.273C1071.51 235.637 1071.57 235.965 1071.67 236.256C1071.78 236.548 1071.94 236.778 1072.16 236.949C1072.37 237.117 1072.64 237.201 1072.95 237.201ZM1077.64 238.067C1077.44 238.067 1077.27 237.999 1077.14 237.862C1077 237.722 1076.93 237.554 1076.93 237.357C1076.93 237.163 1077 236.997 1077.14 236.86C1077.27 236.72 1077.44 236.651 1077.64 236.651C1077.83 236.651 1078 236.72 1078.14 236.86C1078.28 236.997 1078.35 237.163 1078.35 237.357C1078.35 237.487 1078.31 237.607 1078.25 237.716C1078.18 237.822 1078.1 237.908 1077.99 237.972C1077.88 238.036 1077.77 238.067 1077.64 238.067Z" fill="#494A53"/>
<g filter="url(#filter1_f_2914_877)">
<rect x="10" y="152" width="249" height="58" rx="10" fill="#35353D" fill-opacity="0.05"/>
</g>
<rect x="4.5" y="147.5" width="249" height="57" rx="9.5" fill="white" stroke="#F0F0F4"/>
<path d="M76.2784 172H80.7386C83.4432 172 84.6648 170.653 84.6648 168.869C84.6648 167.068 83.4034 166.051 82.25 165.989V165.875C83.3182 165.602 84.2102 164.875 84.2102 163.42C84.2102 161.699 83.017 160.364 80.5398 160.364H76.2784V172ZM78.0341 170.494V166.767H80.6307C82.0398 166.767 82.9205 167.676 82.9205 168.784C82.9205 169.761 82.2557 170.494 80.5682 170.494H78.0341ZM78.0341 165.398V161.858H80.4318C81.8239 161.858 82.4886 162.591 82.4886 163.557C82.4886 164.682 81.5682 165.398 80.3864 165.398H78.0341ZM86.6108 172H88.3097V163.273H86.6108V172ZM87.4688 161.926C88.054 161.926 88.5426 161.472 88.5426 160.915C88.5426 160.358 88.054 159.898 87.4688 159.898C86.8778 159.898 86.3949 160.358 86.3949 160.915C86.3949 161.472 86.8778 161.926 87.4688 161.926ZM94.2713 172.176C96.7315 172.176 98.3395 170.375 98.3395 167.676C98.3395 164.96 96.7315 163.159 94.2713 163.159C91.8111 163.159 90.2031 164.96 90.2031 167.676C90.2031 170.375 91.8111 172.176 94.2713 172.176ZM94.277 170.75C92.669 170.75 91.919 169.347 91.919 167.67C91.919 166 92.669 164.58 94.277 164.58C95.8736 164.58 96.6236 166 96.6236 167.67C96.6236 169.347 95.8736 170.75 94.277 170.75ZM100.236 172H101.935V166.619C101.935 165.443 102.759 164.625 103.724 164.625C104.668 164.625 105.321 165.25 105.321 166.199V172H107.014V166.438C107.014 165.386 107.656 164.625 108.764 164.625C109.662 164.625 110.401 165.125 110.401 166.307V172H112.099V166.148C112.099 164.153 110.986 163.159 109.406 163.159C108.151 163.159 107.207 163.761 106.787 164.693H106.696C106.315 163.739 105.514 163.159 104.349 163.159C103.196 163.159 102.338 163.733 101.974 164.693H101.866V163.273H100.236V172ZM118.138 172.176C120.041 172.176 121.388 171.239 121.774 169.818L120.166 169.528C119.859 170.352 119.121 170.773 118.155 170.773C116.7 170.773 115.723 169.83 115.678 168.148H121.882V167.545C121.882 164.392 119.996 163.159 118.018 163.159C115.587 163.159 113.984 165.011 113.984 167.693C113.984 170.403 115.564 172.176 118.138 172.176ZM115.683 166.875C115.751 165.636 116.649 164.562 118.03 164.562C119.348 164.562 120.212 165.54 120.217 166.875H115.683ZM127.841 163.273H126.051V161.182H124.352V163.273H123.074V164.636H124.352V169.79C124.347 171.375 125.557 172.142 126.898 172.114C127.438 172.108 127.801 172.006 128 171.932L127.693 170.528C127.58 170.551 127.369 170.602 127.097 170.602C126.545 170.602 126.051 170.42 126.051 169.438V164.636H127.841V163.273ZM129.72 172H131.419V166.67C131.419 165.528 132.3 164.705 133.504 164.705C133.857 164.705 134.254 164.767 134.391 164.807V163.182C134.22 163.159 133.885 163.142 133.669 163.142C132.646 163.142 131.771 163.722 131.453 164.659H131.362V163.273H129.72V172ZM135.861 172H137.56V163.273H135.861V172ZM136.719 161.926C137.304 161.926 137.793 161.472 137.793 160.915C137.793 160.358 137.304 159.898 136.719 159.898C136.128 159.898 135.645 160.358 135.645 160.915C135.645 161.472 136.128 161.926 136.719 161.926ZM143.521 172.176C145.584 172.176 146.919 170.938 147.107 169.239H145.453C145.237 170.182 144.504 170.739 143.533 170.739C142.095 170.739 141.169 169.54 141.169 167.636C141.169 165.767 142.112 164.591 143.533 164.591C144.612 164.591 145.271 165.273 145.453 166.091H147.107C146.925 164.33 145.487 163.159 143.504 163.159C141.044 163.159 139.453 165.011 139.453 167.676C139.453 170.307 140.987 172.176 143.521 172.176ZM153.294 172H155.05V166.926H159.993V165.42H155.05V161.875H160.51V160.364H153.294V172ZM165.041 172.193C166.484 172.193 167.297 171.46 167.621 170.807H167.689V172H169.348V166.205C169.348 163.665 167.348 163.159 165.962 163.159C164.382 163.159 162.928 163.795 162.359 165.386L163.956 165.75C164.206 165.131 164.842 164.534 165.984 164.534C167.081 164.534 167.643 165.108 167.643 166.097V166.136C167.643 166.756 167.007 166.744 165.439 166.926C163.786 167.119 162.092 167.551 162.092 169.534C162.092 171.25 163.382 172.193 165.041 172.193ZM165.411 170.83C164.45 170.83 163.757 170.398 163.757 169.557C163.757 168.648 164.564 168.324 165.547 168.193C166.098 168.119 167.405 167.972 167.649 167.727V168.852C167.649 169.886 166.825 170.83 165.411 170.83ZM175.287 172.176C177.349 172.176 178.685 170.938 178.872 169.239H177.219C177.003 170.182 176.27 170.739 175.298 170.739C173.861 170.739 172.935 169.54 172.935 167.636C172.935 165.767 173.878 164.591 175.298 164.591C176.378 164.591 177.037 165.273 177.219 166.091H178.872C178.69 164.33 177.253 163.159 175.27 163.159C172.81 163.159 171.219 165.011 171.219 167.676C171.219 170.307 172.753 172.176 175.287 172.176ZM180.689 172H182.388V163.273H180.689V172ZM181.547 161.926C182.132 161.926 182.621 161.472 182.621 160.915C182.621 160.358 182.132 159.898 181.547 159.898C180.956 159.898 180.473 160.358 180.473 160.915C180.473 161.472 180.956 161.926 181.547 161.926ZM187.213 172.193C188.656 172.193 189.469 171.46 189.793 170.807H189.861V172H191.52V166.205C191.52 163.665 189.52 163.159 188.134 163.159C186.554 163.159 185.099 163.795 184.531 165.386L186.128 165.75C186.378 165.131 187.014 164.534 188.156 164.534C189.253 164.534 189.815 165.108 189.815 166.097V166.136C189.815 166.756 189.179 166.744 187.611 166.926C185.957 167.119 184.264 167.551 184.264 169.534C184.264 171.25 185.554 172.193 187.213 172.193ZM187.582 170.83C186.622 170.83 185.929 170.398 185.929 169.557C185.929 168.648 186.736 168.324 187.719 168.193C188.27 168.119 189.577 167.972 189.821 167.727V168.852C189.821 169.886 188.997 170.83 187.582 170.83ZM195.482 160.364H193.783V172H195.482V160.364ZM76.2784 192H78.0341V187.597H80.4205C80.4602 187.597 80.4943 187.597 80.5341 187.597L82.8977 192H84.8977L82.3182 187.29C83.7443 186.761 84.4545 185.574 84.4545 184.011C84.4545 181.869 83.125 180.364 80.4261 180.364H76.2784V192ZM78.0341 186.085V181.869H80.2386C81.9716 181.869 82.6875 182.693 82.6875 184.011C82.6875 185.324 81.9716 186.085 80.2614 186.085H78.0341ZM90.1065 192.176C92.0099 192.176 93.3565 191.239 93.7429 189.818L92.1349 189.528C91.8281 190.352 91.0895 190.773 90.1236 190.773C88.669 190.773 87.6918 189.83 87.6463 188.148H93.8509V187.545C93.8509 184.392 91.9645 183.159 89.9872 183.159C87.5554 183.159 85.9531 185.011 85.9531 187.693C85.9531 190.403 87.5327 192.176 90.1065 192.176ZM87.652 186.875C87.7202 185.636 88.6179 184.562 89.9986 184.562C91.3168 184.562 92.1804 185.54 92.1861 186.875H87.652ZM99.4119 192.176C101.474 192.176 102.81 190.938 102.997 189.239H101.344C101.128 190.182 100.395 190.739 99.4233 190.739C97.9858 190.739 97.0597 189.54 97.0597 187.636C97.0597 185.767 98.0028 184.591 99.4233 184.591C100.503 184.591 101.162 185.273 101.344 186.091H102.997C102.815 184.33 101.378 183.159 99.3949 183.159C96.9347 183.159 95.3438 185.011 95.3438 187.676C95.3438 190.307 96.8778 192.176 99.4119 192.176ZM108.49 192.176C110.95 192.176 112.558 190.375 112.558 187.676C112.558 184.96 110.95 183.159 108.49 183.159C106.03 183.159 104.422 184.96 104.422 187.676C104.422 190.375 106.03 192.176 108.49 192.176ZM108.496 190.75C106.888 190.75 106.138 189.347 106.138 187.67C106.138 186 106.888 184.58 108.496 184.58C110.092 184.58 110.842 186 110.842 187.67C110.842 189.347 110.092 190.75 108.496 190.75ZM118.114 195.455C120.335 195.455 122.051 194.438 122.051 192.193V183.273H120.386V184.688H120.261C119.96 184.148 119.358 183.159 117.733 183.159C115.625 183.159 114.074 184.824 114.074 187.602C114.074 190.386 115.659 191.869 117.722 191.869C119.324 191.869 119.943 190.966 120.25 190.409H120.358V192.125C120.358 193.494 119.42 194.085 118.131 194.085C116.716 194.085 116.165 193.375 115.864 192.875L114.403 193.477C114.864 194.545 116.028 195.455 118.114 195.455ZM118.097 190.46C116.58 190.46 115.79 189.295 115.79 187.58C115.79 185.903 116.562 184.602 118.097 184.602C119.58 184.602 120.375 185.812 120.375 187.58C120.375 189.381 119.562 190.46 118.097 190.46ZM126.028 186.818C126.028 185.426 126.881 184.631 128.062 184.631C129.216 184.631 129.915 185.386 129.915 186.653V192H131.614V186.449C131.614 184.29 130.426 183.159 128.642 183.159C127.33 183.159 126.472 183.767 126.068 184.693H125.96V183.273H124.33V192H126.028V186.818ZM133.892 192H135.591V183.273H133.892V192ZM134.75 181.926C135.335 181.926 135.824 181.472 135.824 180.915C135.824 180.358 135.335 179.898 134.75 179.898C134.159 179.898 133.676 180.358 133.676 180.915C133.676 181.472 134.159 181.926 134.75 181.926ZM141.95 183.273H140.161V181.182H138.462V183.273H137.183V184.636H138.462V189.79C138.456 191.375 139.666 192.142 141.007 192.114C141.547 192.108 141.911 192.006 142.109 191.932L141.803 190.528C141.689 190.551 141.479 190.602 141.206 190.602C140.655 190.602 140.161 190.42 140.161 189.438V184.636H141.95V183.273ZM143.83 192H145.528V183.273H143.83V192ZM144.688 181.926C145.273 181.926 145.761 181.472 145.761 180.915C145.761 180.358 145.273 179.898 144.688 179.898C144.097 179.898 143.614 180.358 143.614 180.915C143.614 181.472 144.097 181.926 144.688 181.926ZM151.49 192.176C153.95 192.176 155.558 190.375 155.558 187.676C155.558 184.96 153.95 183.159 151.49 183.159C149.03 183.159 147.422 184.96 147.422 187.676C147.422 190.375 149.03 192.176 151.49 192.176ZM151.496 190.75C149.888 190.75 149.138 189.347 149.138 187.67C149.138 186 149.888 184.58 151.496 184.58C153.092 184.58 153.842 186 153.842 187.67C153.842 189.347 153.092 190.75 151.496 190.75ZM159.153 186.818C159.153 185.426 160.006 184.631 161.188 184.631C162.341 184.631 163.04 185.386 163.04 186.653V192H164.739V186.449C164.739 184.29 163.551 183.159 161.767 183.159C160.455 183.159 159.597 183.767 159.193 184.693H159.085V183.273H157.455V192H159.153V186.818ZM181.053 184.148C180.655 181.659 178.706 180.205 176.246 180.205C173.234 180.205 171.013 182.46 171.013 186.182C171.013 189.903 173.223 192.159 176.246 192.159C178.803 192.159 180.672 190.557 181.053 188.256L179.28 188.25C178.979 189.739 177.729 190.557 176.257 190.557C174.263 190.557 172.757 189.028 172.757 186.182C172.757 183.358 174.257 181.807 176.263 181.807C177.746 181.807 178.99 182.642 179.28 184.148H181.053ZM184.716 186.818C184.716 185.426 185.597 184.631 186.807 184.631C187.977 184.631 188.676 185.375 188.676 186.653V192H190.375V186.449C190.375 184.273 189.182 183.159 187.386 183.159C186.028 183.159 185.21 183.75 184.801 184.693H184.693V180.364H183.017V192H184.716V186.818ZM196.403 192.176C198.307 192.176 199.653 191.239 200.04 189.818L198.432 189.528C198.125 190.352 197.386 190.773 196.42 190.773C194.966 190.773 193.989 189.83 193.943 188.148H200.148V187.545C200.148 184.392 198.261 183.159 196.284 183.159C193.852 183.159 192.25 185.011 192.25 187.693C192.25 190.403 193.83 192.176 196.403 192.176ZM193.949 186.875C194.017 185.636 194.915 184.562 196.295 184.562C197.614 184.562 198.477 185.54 198.483 186.875H193.949ZM205.709 192.176C207.771 192.176 209.107 190.938 209.294 189.239H207.641C207.425 190.182 206.692 190.739 205.72 190.739C204.283 190.739 203.357 189.54 203.357 187.636C203.357 185.767 204.3 184.591 205.72 184.591C206.8 184.591 207.459 185.273 207.641 186.091H209.294C209.112 184.33 207.675 183.159 205.692 183.159C203.232 183.159 201.641 185.011 201.641 187.676C201.641 190.307 203.175 192.176 205.709 192.176ZM211.111 192H212.81V188.903L213.656 188.057L216.622 192H218.707L214.935 187.017L218.469 183.273H216.435L212.957 186.966H212.81V180.364H211.111V192Z" fill="#4959E7"/>
<path d="M5 157C5 152.029 9.02944 148 14 148H60V204H14C9.02944 204 5 199.971 5 195V157Z" fill="#F1F5FE"/>
<path d="M41.5029 186.084V183.784C41.5029 182.564 41.0044 181.394 40.1171 180.531C39.2298 179.668 38.0263 179.184 36.7715 179.184H27.3086C26.0538 179.184 24.8503 179.668 23.963 180.531C23.0757 181.394 22.5772 182.564 22.5772 183.784V186.084" stroke="#7A80F6" stroke-width="1.8" stroke-linecap="round" stroke-linejoin="round"/>
<path d="M32.0399 176.618C34.653 176.618 36.7713 174.558 36.7713 172.018C36.7713 169.477 34.653 167.418 32.0399 167.418C29.4268 167.418 27.3085 169.477 27.3085 172.018C27.3085 174.558 29.4268 176.618 32.0399 176.618Z" stroke="#7A80F6" stroke-width="1.8" stroke-linecap="round" stroke-linejoin="round"/>
<defs>
<filter id="filter0_f_2914_877" x="899" y="0" width="449" height="339" filterUnits="userSpaceOnUse" color-interpolation-filters="sRGB">
<feFlood flood-opacity="0" result="BackgroundImageFix"/>
<feBlend mode="normal" in="SourceGraphic" in2="BackgroundImageFix" result="shape"/>
<feGaussianBlur stdDeviation="7.5" result="effect1_foregroundBlur_2914_877"/>
</filter>
<filter id="filter1_f_2914_877" x="0" y="142" width="269" height="78" filterUnits="userSpaceOnUse" color-interpolation-filters="sRGB">
<feFlood flood-opacity="0" result="BackgroundImageFix"/>
<feBlend mode="normal" in="SourceGraphic" in2="BackgroundImageFix" result="shape"/>
<feGaussianBlur stdDeviation="5" result="effect1_foregroundBlur_2914_877"/>
</filter>
</defs>
</svg>
