<svg width="1381" height="409" viewBox="0 0 1381 409" fill="none" xmlns="http://www.w3.org/2000/svg">
<path d="M794.026 210.364H795.219C795.164 208.827 793.747 207.679 791.779 207.679C789.83 207.679 788.298 208.812 788.298 210.523C788.298 211.895 789.293 212.71 790.884 213.168L792.137 213.526C793.21 213.824 794.165 214.202 794.165 215.216C794.165 216.33 793.091 217.065 791.679 217.065C790.466 217.065 789.392 216.528 789.293 215.375H788.02C788.139 217.045 789.492 218.179 791.679 218.179C794.026 218.179 795.358 216.886 795.358 215.236C795.358 213.327 793.548 212.71 792.494 212.432L791.46 212.153C790.705 211.955 789.492 211.557 789.492 210.463C789.492 209.489 790.387 208.773 791.739 208.773C792.972 208.773 793.906 209.359 794.026 210.364ZM797.226 218H798.4V210.364H797.226V218ZM797.823 209.091C798.28 209.091 798.658 208.733 798.658 208.295C798.658 207.858 798.28 207.5 797.823 207.5C797.365 207.5 796.988 207.858 796.988 208.295C796.988 208.733 797.365 209.091 797.823 209.091ZM801.722 213.406C801.722 212.074 802.547 211.318 803.671 211.318C804.759 211.318 805.421 212.029 805.421 213.227V218H806.594V213.148C806.594 211.199 805.555 210.264 804.009 210.264C802.855 210.264 802.139 210.781 801.781 211.557H801.682V210.364H800.548V218H801.722V213.406ZM811.82 221.023C813.65 221.023 815.121 220.188 815.121 218.219V210.364H813.988V211.577H813.869C813.61 211.179 813.133 210.264 811.641 210.264C809.712 210.264 808.38 211.795 808.38 214.142C808.38 216.528 809.772 217.881 811.621 217.881C813.113 217.881 813.59 217.006 813.849 216.588H813.948V218.139C813.948 219.412 813.053 219.989 811.82 219.989C810.433 219.989 809.946 219.258 809.633 218.835L808.698 219.491C809.175 220.292 810.115 221.023 811.82 221.023ZM811.781 216.827C810.309 216.827 809.553 215.713 809.553 214.122C809.553 212.571 810.289 211.318 811.781 211.318C813.212 211.318 813.968 212.472 813.968 214.122C813.968 215.812 813.192 216.827 811.781 216.827ZM818.442 207.818H817.269V218H818.442V207.818ZM823.793 218.159C825.344 218.159 826.478 217.384 826.836 216.23L825.702 215.912C825.404 216.707 824.713 217.105 823.793 217.105C822.416 217.105 821.466 216.215 821.412 214.58H826.955V214.082C826.955 211.239 825.265 210.264 823.674 210.264C821.606 210.264 820.233 211.895 820.233 214.241C820.233 216.588 821.586 218.159 823.793 218.159ZM821.412 213.565C821.491 212.377 822.331 211.318 823.674 211.318C824.947 211.318 825.762 212.273 825.762 213.565H821.412ZM833.254 218L834.278 215.116H838.395L839.419 218H840.711L836.973 207.818H835.7L831.961 218H833.254ZM834.666 214.023L836.297 209.429H836.376L838.007 214.023H834.666ZM842.297 218H843.53V214.281H845.758C848.129 214.281 849.198 212.839 849.198 211.04C849.198 209.24 848.129 207.818 845.738 207.818H842.297V218ZM843.53 213.188V208.912H845.698C847.354 208.912 847.985 209.817 847.985 211.04C847.985 212.263 847.354 213.188 845.718 213.188H843.53ZM852.417 207.818H851.184V218H852.417V207.818ZM861.551 218.139C862.486 218.139 863.53 217.811 864.191 217.135L864.912 218H866.324L864.917 216.285C865.3 215.793 865.727 214.967 865.727 213.545H864.594C864.594 214.241 864.435 214.858 864.171 215.37L861.959 212.67L862.705 212.114C863.54 211.497 864.057 210.821 864.057 209.847C864.057 208.713 863.122 207.719 861.591 207.719C860.099 207.719 859.125 208.653 859.125 210.026C859.125 210.93 859.617 211.626 860.318 212.472C859.13 213.297 858.31 214.062 858.31 215.295C858.31 216.946 859.543 218.139 861.551 218.139ZM863.49 216.285C862.928 216.812 862.217 217.105 861.511 217.105C860.298 217.105 859.503 216.25 859.503 215.295C859.503 215.017 859.761 214.301 860.676 213.625L861.054 213.347L863.49 216.285ZM861.238 211.795C860.741 211.189 860.318 210.612 860.318 210.045C860.318 209.409 860.855 208.733 861.631 208.733C862.366 208.733 862.864 209.33 862.864 209.847C862.864 210.543 862.486 210.92 861.909 211.298L861.238 211.795ZM871.56 220.864H872.733V216.827H872.833C873.091 217.244 873.589 218.159 875.06 218.159C876.969 218.159 878.302 216.628 878.302 214.202C878.302 211.795 876.969 210.264 875.04 210.264C873.549 210.264 873.091 211.179 872.833 211.577H872.694V210.364H871.56V220.864ZM872.714 214.182C872.714 212.472 873.469 211.318 874.901 211.318C876.393 211.318 877.128 212.571 877.128 214.182C877.128 215.812 876.373 217.105 874.901 217.105C873.489 217.105 872.714 215.912 872.714 214.182ZM881.265 207.818H880.091V218H881.265V207.818ZM885.661 218.179C886.993 218.179 887.689 217.463 887.928 216.966H887.988V218H889.161V212.969C889.161 210.543 887.311 210.264 886.337 210.264C885.184 210.264 883.871 210.662 883.275 212.054L884.388 212.452C884.647 211.895 885.258 211.298 886.377 211.298C887.456 211.298 887.988 211.87 887.988 212.849V212.889C887.988 213.456 887.411 213.406 886.019 213.585C884.602 213.769 883.056 214.082 883.056 215.832C883.056 217.324 884.209 218.179 885.661 218.179ZM885.84 217.125C884.905 217.125 884.229 216.707 884.229 215.892C884.229 214.997 885.044 214.719 885.959 214.599C886.456 214.54 887.789 214.401 887.988 214.162V215.236C887.988 216.19 887.232 217.125 885.84 217.125ZM894.623 210.364H892.993V208.534H891.819V210.364H890.666V211.358H891.819V216.131C891.819 217.463 892.893 218.099 893.888 218.099C894.325 218.099 894.604 218.02 894.763 217.96L894.524 216.906C894.425 216.926 894.265 216.966 894.007 216.966C893.49 216.966 892.993 216.807 892.993 215.812V211.358H894.623V210.364ZM899.789 210.364H898.079V209.588C898.079 208.832 898.397 208.435 899.172 208.435C899.51 208.435 899.709 208.514 899.829 208.554L900.167 207.54C899.988 207.46 899.63 207.341 899.053 207.341C897.959 207.341 896.905 207.997 896.905 209.31V210.364H895.672V211.358H896.905V218H898.079V211.358H899.789V210.364ZM904.221 218.159C906.289 218.159 907.681 216.588 907.681 214.222C907.681 211.835 906.289 210.264 904.221 210.264C902.153 210.264 900.761 211.835 900.761 214.222C900.761 216.588 902.153 218.159 904.221 218.159ZM904.221 217.105C902.65 217.105 901.934 215.753 901.934 214.222C901.934 212.69 902.65 211.318 904.221 211.318C905.792 211.318 906.508 212.69 906.508 214.222C906.508 215.753 905.792 217.105 904.221 217.105ZM909.472 218H910.646V213.168C910.646 212.134 911.461 211.378 912.575 211.378C912.888 211.378 913.211 211.438 913.29 211.457V210.264C913.156 210.254 912.848 210.244 912.674 210.244C911.759 210.244 910.964 210.761 910.685 211.517H910.606V210.364H909.472V218ZM914.681 218H915.855V213.227C915.855 212.109 916.67 211.318 917.585 211.318C918.475 211.318 919.096 211.9 919.096 212.77V218H920.289V213.028C920.289 212.044 920.906 211.318 921.98 211.318C922.815 211.318 923.531 211.761 923.531 212.889V218H924.704V212.889C924.704 211.094 923.74 210.264 922.377 210.264C921.284 210.264 920.483 210.766 920.09 211.557H920.011C919.633 210.741 918.967 210.264 917.963 210.264C916.968 210.264 916.232 210.741 915.914 211.557H915.815V210.364H914.681V218Z" fill="#4959E7"/>
<path d="M194 110L197.083 110.033L200.167 110.069L203.25 110.108L206.333 110.152L209.417 110.201L212.5 110.254L215.583 110.313L218.667 110.379L221.75 110.451L224.833 110.53L227.917 110.618L231 110.715L234.083 110.822L237.167 110.94L240.25 111.07L243.333 111.213L246.417 111.371L249.5 111.545L252.583 111.737L255.667 111.949L258.75 112.182L261.833 112.438L264.917 112.72L268 113.031L271.083 113.372L274.167 113.746L277.25 114.158L280.333 114.609L283.417 115.105L286.5 115.647L289.583 116.241L292.667 116.891L295.75 117.6L298.833 118.375L301.917 119.219L305 120.138L308.083 121.136L311.167 122.22L314.25 123.394L317.333 124.664L320.417 126.034L323.5 127.509L326.583 129.094L329.667 130.791L332.75 132.606L335.833 134.539L338.917 136.593L342 138.768L345.083 141.062L348.167 143.474L351.25 146L354.333 148.635L357.417 151.372L360.5 154.202L363.583 157.117L366.667 160.103L369.75 163.148L372.833 166.24L375.917 169.362L379 172.5L382.083 175.638L385.167 178.76L388.25 181.852L391.333 184.897L394.417 187.883L397.5 190.798L400.583 193.628L403.667 196.365L406.75 199L409.833 201.526L412.917 203.938L416 206.232L419.083 208.407L422.167 210.461L425.25 212.394L428.333 214.209L431.417 215.906L434.5 217.491L437.583 218.966L440.667 220.336L443.75 221.606L446.833 222.78L449.917 223.864L453 224.862L456.083 225.781L459.167 226.625L462.25 227.4L465.333 228.109L468.417 228.759L471.5 229.353L474.583 229.895L477.667 230.391L480.75 230.842L483.833 231.254L486.917 231.628L490 231.969L493.083 232.28L496.167 232.562L499.25 232.818L502.333 233.051L505.417 233.263L508.5 233.455L511.583 233.629L514.667 233.787L517.75 233.93L520.833 234.06L523.917 234.178L527 234.285L530.083 234.382L533.167 234.47L536.25 234.549L539.333 234.621L542.417 234.687L545.5 234.746L548.583 234.799L551.667 234.848L554.75 234.892L557.833 234.931L560.917 234.967L564 235" stroke="#F1F5FE" stroke-width="8"/>
<path d="M194 370L197.083 369.965L200.167 369.926L203.25 369.883L206.333 369.836L209.417 369.783L212.5 369.725L215.583 369.662L218.667 369.591L221.75 369.513L224.833 369.427L227.917 369.333L231 369.228L234.083 369.113L237.167 368.985L240.25 368.845L243.333 368.69L246.417 368.519L249.5 368.331L252.583 368.124L255.667 367.895L258.75 367.644L261.833 367.367L264.917 367.062L268 366.727L271.083 366.359L274.167 365.954L277.25 365.509L280.333 365.022L283.417 364.487L286.5 363.901L289.583 363.26L292.667 362.558L295.75 361.792L298.833 360.955L301.917 360.044L305 359.051L308.083 357.973L311.167 356.802L314.25 355.534L317.333 354.163L320.417 352.684L323.5 351.09L326.583 349.379L329.667 347.545L332.75 345.586L335.833 343.498L338.917 341.28L342 338.931L345.083 336.453L348.167 333.848L351.25 331.12L354.333 328.274L357.417 325.318L360.5 322.261L363.583 319.114L366.667 315.889L369.75 312.6L372.833 309.261L375.917 305.889L379 302.5L382.083 299.111L385.167 295.739L388.25 292.4L391.333 289.111L394.417 285.886L397.5 282.739L400.583 279.682L403.667 276.726L406.75 273.88L409.833 271.152L412.917 268.547L416 266.069L419.083 263.721L422.167 261.502L425.25 259.414L428.333 257.455L431.417 255.621L434.5 253.91L437.583 252.316L440.667 250.837L443.75 249.466L446.833 248.198L449.917 247.027L453 245.949L456.083 244.956L459.167 244.045L462.25 243.208L465.333 242.442L468.417 241.74L471.5 241.099L474.583 240.513L477.667 239.978L480.75 239.491L483.833 239.046L486.917 238.641L490 238.273L493.083 237.938L496.167 237.633L499.25 237.356L502.333 237.105L505.417 236.876L508.5 236.669L511.583 236.481L514.667 236.31L517.75 236.155L520.833 236.015L523.917 235.887L527 235.772L530.083 235.667L533.167 235.573L536.25 235.487L539.333 235.409L542.417 235.338L545.5 235.275L548.583 235.217L551.667 235.164L554.75 235.117L557.833 235.074L560.917 235.035L564 235" stroke="#F1F5FE" stroke-width="8"/>
<rect x="194" y="233" width="757" height="8" fill="#F1F5FE"/>
<path d="M947 223L978 236L947 250V223Z" fill="#F1F5FE"/>
<g filter="url(#filter0_f_2290_6297)">
<rect x="12" y="90" width="274" height="58" rx="10" fill="#EFEFF4" fill-opacity="0.6"/>
</g>
<rect x="6.5" y="85.5" width="274" height="57" rx="9.5" fill="white" stroke="#F0F0F4"/>
<path d="M87.9432 102.148C87.5455 99.6591 85.5966 98.2045 83.1364 98.2045C80.125 98.2045 77.9034 100.46 77.9034 104.182C77.9034 107.903 80.1136 110.159 83.1364 110.159C85.6932 110.159 87.5625 108.557 87.9432 106.256L86.1705 106.25C85.8693 107.739 84.6193 108.557 83.1477 108.557C81.1534 108.557 79.6477 107.028 79.6477 104.182C79.6477 101.358 81.1477 99.8068 83.1534 99.8068C84.6364 99.8068 85.8807 100.642 86.1705 102.148H87.9432ZM91.6065 104.818C91.6065 103.426 92.4872 102.631 93.6974 102.631C94.8679 102.631 95.5668 103.375 95.5668 104.653V110H97.2656V104.449C97.2656 102.273 96.0724 101.159 94.277 101.159C92.919 101.159 92.1009 101.75 91.6918 102.693H91.5838V98.3636H89.9077V110H91.6065V104.818ZM99.5327 110H101.232V101.273H99.5327V110ZM100.391 99.9261C100.976 99.9261 101.464 99.4716 101.464 98.9148C101.464 98.358 100.976 97.8977 100.391 97.8977C99.7997 97.8977 99.3168 98.358 99.3168 98.9148C99.3168 99.4716 99.7997 99.9261 100.391 99.9261ZM105.216 104.818C105.216 103.426 106.068 102.631 107.25 102.631C108.403 102.631 109.102 103.386 109.102 104.653V110H110.801V104.449C110.801 102.29 109.614 101.159 107.83 101.159C106.517 101.159 105.659 101.767 105.256 102.693H105.148V101.273H103.517V110H105.216V104.818ZM116.841 110.176C118.744 110.176 120.091 109.239 120.477 107.818L118.869 107.528C118.562 108.352 117.824 108.773 116.858 108.773C115.403 108.773 114.426 107.83 114.381 106.148H120.585V105.545C120.585 102.392 118.699 101.159 116.722 101.159C114.29 101.159 112.688 103.011 112.688 105.693C112.688 108.403 114.267 110.176 116.841 110.176ZM114.386 104.875C114.455 103.636 115.352 102.562 116.733 102.562C118.051 102.562 118.915 103.54 118.92 104.875H114.386ZM129.01 103.403C128.658 102.045 127.595 101.159 125.709 101.159C123.737 101.159 122.339 102.199 122.339 103.744C122.339 104.983 123.089 105.807 124.726 106.17L126.203 106.494C127.044 106.682 127.436 107.057 127.436 107.602C127.436 108.278 126.714 108.807 125.601 108.807C124.584 108.807 123.93 108.369 123.726 107.511L122.084 107.761C122.368 109.307 123.652 110.176 125.612 110.176C127.72 110.176 129.18 109.057 129.18 107.477C129.18 106.244 128.396 105.483 126.794 105.114L125.408 104.795C124.447 104.568 124.033 104.244 124.038 103.653C124.033 102.983 124.76 102.506 125.726 102.506C126.783 102.506 127.271 103.091 127.47 103.676L129.01 103.403ZM134.81 110.176C136.713 110.176 138.06 109.239 138.446 107.818L136.838 107.528C136.531 108.352 135.793 108.773 134.827 108.773C133.372 108.773 132.395 107.83 132.349 106.148H138.554V105.545C138.554 102.392 136.668 101.159 134.69 101.159C132.259 101.159 130.656 103.011 130.656 105.693C130.656 108.403 132.236 110.176 134.81 110.176ZM132.355 104.875C132.423 103.636 133.321 102.562 134.702 102.562C136.02 102.562 136.884 103.54 136.889 104.875H132.355ZM144.81 110H146.565V105.597H148.952C148.991 105.597 149.026 105.597 149.065 105.597L151.429 110H153.429L150.849 105.29C152.276 104.761 152.986 103.574 152.986 102.011C152.986 99.8693 151.656 98.3636 148.957 98.3636H144.81V110ZM146.565 104.085V99.8693H148.77C150.503 99.8693 151.219 100.693 151.219 102.011C151.219 103.324 150.503 104.085 148.793 104.085H146.565ZM158.638 110.176C160.541 110.176 161.888 109.239 162.274 107.818L160.666 107.528C160.359 108.352 159.621 108.773 158.655 108.773C157.2 108.773 156.223 107.83 156.178 106.148H162.382V105.545C162.382 102.392 160.496 101.159 158.518 101.159C156.087 101.159 154.484 103.011 154.484 105.693C154.484 108.403 156.064 110.176 158.638 110.176ZM156.183 104.875C156.251 103.636 157.149 102.562 158.53 102.562C159.848 102.562 160.712 103.54 160.717 104.875H156.183ZM170.807 103.403C170.455 102.045 169.392 101.159 167.506 101.159C165.534 101.159 164.136 102.199 164.136 103.744C164.136 104.983 164.886 105.807 166.523 106.17L168 106.494C168.841 106.682 169.233 107.057 169.233 107.602C169.233 108.278 168.511 108.807 167.398 108.807C166.381 108.807 165.727 108.369 165.523 107.511L163.881 107.761C164.165 109.307 165.449 110.176 167.409 110.176C169.517 110.176 170.977 109.057 170.977 107.477C170.977 106.244 170.193 105.483 168.591 105.114L167.205 104.795C166.244 104.568 165.83 104.244 165.835 103.653C165.83 102.983 166.557 102.506 167.523 102.506C168.58 102.506 169.068 103.091 169.267 103.676L170.807 103.403ZM172.845 110H174.544V101.273H172.845V110ZM173.703 99.9261C174.288 99.9261 174.777 99.4716 174.777 98.9148C174.777 98.358 174.288 97.8977 173.703 97.8977C173.112 97.8977 172.629 98.358 172.629 98.9148C172.629 99.4716 173.112 99.9261 173.703 99.9261ZM180.097 110.17C181.688 110.17 182.312 109.199 182.619 108.642H182.761V110H184.42V98.3636H182.722V102.688H182.619C182.312 102.148 181.733 101.159 180.108 101.159C178 101.159 176.449 102.824 176.449 105.653C176.449 108.477 177.977 110.17 180.097 110.17ZM180.472 108.722C178.955 108.722 178.165 107.386 178.165 105.636C178.165 103.903 178.938 102.602 180.472 102.602C181.955 102.602 182.75 103.812 182.75 105.636C182.75 107.472 181.938 108.722 180.472 108.722ZM190.607 110.176C192.51 110.176 193.857 109.239 194.243 107.818L192.635 107.528C192.328 108.352 191.589 108.773 190.624 108.773C189.169 108.773 188.192 107.83 188.146 106.148H194.351V105.545C194.351 102.392 192.464 101.159 190.487 101.159C188.055 101.159 186.453 103.011 186.453 105.693C186.453 108.403 188.033 110.176 190.607 110.176ZM188.152 104.875C188.22 103.636 189.118 102.562 190.499 102.562C191.817 102.562 192.68 103.54 192.686 104.875H188.152ZM197.935 104.818C197.935 103.426 198.787 102.631 199.969 102.631C201.122 102.631 201.821 103.386 201.821 104.653V110H203.52V104.449C203.52 102.29 202.332 101.159 200.548 101.159C199.236 101.159 198.378 101.767 197.974 102.693H197.866V101.273H196.236V110H197.935V104.818ZM209.872 101.273H208.082V99.1818H206.384V101.273H205.105V102.636H206.384V107.79C206.378 109.375 207.588 110.142 208.929 110.114C209.469 110.108 209.832 110.006 210.031 109.932L209.724 108.528C209.611 108.551 209.401 108.602 209.128 108.602C208.577 108.602 208.082 108.42 208.082 107.438V102.636H209.872V101.273ZM80.0341 118.364H78.2784V130H80.0341V118.364ZM85.7216 130.17C87.3125 130.17 87.9375 129.199 88.2443 128.642H88.3864V130H90.0455V118.364H88.3466V122.688H88.2443C87.9375 122.148 87.358 121.159 85.733 121.159C83.625 121.159 82.0739 122.824 82.0739 125.653C82.0739 128.477 83.6023 130.17 85.7216 130.17ZM86.0966 128.722C84.5795 128.722 83.7898 127.386 83.7898 125.636C83.7898 123.903 84.5625 122.602 86.0966 122.602C87.5795 122.602 88.375 123.812 88.375 125.636C88.375 127.472 87.5625 128.722 86.0966 128.722ZM96.2315 130.176C98.1349 130.176 99.4815 129.239 99.8679 127.818L98.2599 127.528C97.9531 128.352 97.2145 128.773 96.2486 128.773C94.794 128.773 93.8168 127.83 93.7713 126.148H99.9759V125.545C99.9759 122.392 98.0895 121.159 96.1122 121.159C93.6804 121.159 92.0781 123.011 92.0781 125.693C92.0781 128.403 93.6577 130.176 96.2315 130.176ZM93.777 124.875C93.8452 123.636 94.7429 122.562 96.1236 122.562C97.4418 122.562 98.3054 123.54 98.3111 124.875H93.777ZM103.56 124.818C103.56 123.426 104.412 122.631 105.594 122.631C106.747 122.631 107.446 123.386 107.446 124.653V130H109.145V124.449C109.145 122.29 107.957 121.159 106.173 121.159C104.861 121.159 104.003 121.767 103.599 122.693H103.491V121.273H101.861V130H103.56V124.818ZM115.497 121.273H113.707V119.182H112.009V121.273H110.73V122.636H112.009V127.79C112.003 129.375 113.213 130.142 114.554 130.114C115.094 130.108 115.457 130.006 115.656 129.932L115.349 128.528C115.236 128.551 115.026 128.602 114.753 128.602C114.202 128.602 113.707 128.42 113.707 127.438V122.636H115.497V121.273ZM117.376 130H119.075V121.273H117.376V130ZM118.234 119.926C118.82 119.926 119.308 119.472 119.308 118.915C119.308 118.358 118.82 117.898 118.234 117.898C117.643 117.898 117.161 118.358 117.161 118.915C117.161 119.472 117.643 119.926 118.234 119.926ZM125.435 121.273H123.645V119.182H121.946V121.273H120.668V122.636H121.946V127.79C121.94 129.375 123.151 130.142 124.491 130.114C125.031 130.108 125.395 130.006 125.594 129.932L125.287 128.528C125.173 128.551 124.963 128.602 124.69 128.602C124.139 128.602 123.645 128.42 123.645 127.438V122.636H125.435V121.273ZM128.388 133.273C129.791 133.273 130.678 132.54 131.183 131.165L134.791 121.29L132.956 121.273L130.746 128.045H130.655L128.445 121.273H126.626L129.82 130.114L129.609 130.693C129.178 131.852 128.57 131.949 127.638 131.693L127.229 133.085C127.433 133.176 127.876 133.273 128.388 133.273ZM144.303 130.176C146.365 130.176 147.7 128.938 147.888 127.239H146.234C146.018 128.182 145.286 128.739 144.314 128.739C142.876 128.739 141.95 127.54 141.95 125.636C141.95 123.767 142.893 122.591 144.314 122.591C145.393 122.591 146.053 123.273 146.234 124.091H147.888C147.706 122.33 146.268 121.159 144.286 121.159C141.825 121.159 140.234 123.011 140.234 125.676C140.234 128.307 141.768 130.176 144.303 130.176ZM152.244 130.193C153.688 130.193 154.5 129.46 154.824 128.807H154.892V130H156.551V124.205C156.551 121.665 154.551 121.159 153.165 121.159C151.585 121.159 150.131 121.795 149.562 123.386L151.159 123.75C151.409 123.131 152.045 122.534 153.188 122.534C154.284 122.534 154.847 123.108 154.847 124.097V124.136C154.847 124.756 154.21 124.744 152.642 124.926C150.989 125.119 149.295 125.551 149.295 127.534C149.295 129.25 150.585 130.193 152.244 130.193ZM152.614 128.83C151.653 128.83 150.96 128.398 150.96 127.557C150.96 126.648 151.767 126.324 152.75 126.193C153.301 126.119 154.608 125.972 154.852 125.727V126.852C154.852 127.886 154.028 128.83 152.614 128.83ZM158.814 130H160.513V124.67C160.513 123.528 161.393 122.705 162.598 122.705C162.95 122.705 163.348 122.767 163.484 122.807V121.182C163.314 121.159 162.979 121.142 162.763 121.142C161.74 121.142 160.865 121.722 160.547 122.659H160.456V121.273H158.814V130ZM167.909 130.17C169.5 130.17 170.125 129.199 170.432 128.642H170.574V130H172.233V118.364H170.534V122.688H170.432C170.125 122.148 169.545 121.159 167.92 121.159C165.812 121.159 164.261 122.824 164.261 125.653C164.261 128.477 165.79 130.17 167.909 130.17ZM168.284 128.722C166.767 128.722 165.977 127.386 165.977 125.636C165.977 123.903 166.75 122.602 168.284 122.602C169.767 122.602 170.562 123.812 170.562 125.636C170.562 127.472 169.75 128.722 168.284 128.722ZM186.358 121.273H184.534L182.33 127.989H182.239L180.028 121.273H178.205L181.375 130H183.193L186.358 121.273ZM191.403 130.176C193.307 130.176 194.653 129.239 195.04 127.818L193.432 127.528C193.125 128.352 192.386 128.773 191.42 128.773C189.966 128.773 188.989 127.83 188.943 126.148H195.148V125.545C195.148 122.392 193.261 121.159 191.284 121.159C188.852 121.159 187.25 123.011 187.25 125.693C187.25 128.403 188.83 130.176 191.403 130.176ZM188.949 124.875C189.017 123.636 189.915 122.562 191.295 122.562C192.614 122.562 193.477 123.54 193.483 124.875H188.949ZM197.033 130H198.732V124.67C198.732 123.528 199.612 122.705 200.817 122.705C201.169 122.705 201.567 122.767 201.703 122.807V121.182C201.533 121.159 201.197 121.142 200.982 121.142C199.959 121.142 199.084 121.722 198.766 122.659H198.675V121.273H197.033V130ZM203.173 130H204.872V121.273H203.173V130ZM204.031 119.926C204.616 119.926 205.105 119.472 205.105 118.915C205.105 118.358 204.616 117.898 204.031 117.898C203.44 117.898 202.957 118.358 202.957 118.915C202.957 119.472 203.44 119.926 204.031 119.926ZM211.311 121.273H209.43V120.489C209.43 119.716 209.749 119.295 210.578 119.295C210.93 119.295 211.18 119.375 211.339 119.426L211.737 118.051C211.499 117.96 211.004 117.818 210.317 117.818C208.936 117.818 207.726 118.625 207.726 120.261V121.273H206.379V122.636H207.726V130H209.43V122.636H211.311V121.273ZM213.064 130H214.763V121.273H213.064V130ZM213.922 119.926C214.507 119.926 214.996 119.472 214.996 118.915C214.996 118.358 214.507 117.898 213.922 117.898C213.331 117.898 212.848 118.358 212.848 118.915C212.848 119.472 213.331 119.926 213.922 119.926ZM220.724 130.176C222.787 130.176 224.122 128.938 224.31 127.239H222.656C222.44 128.182 221.707 128.739 220.736 128.739C219.298 128.739 218.372 127.54 218.372 125.636C218.372 123.767 219.315 122.591 220.736 122.591C221.815 122.591 222.474 123.273 222.656 124.091H224.31C224.128 122.33 222.69 121.159 220.707 121.159C218.247 121.159 216.656 123.011 216.656 125.676C216.656 128.307 218.19 130.176 220.724 130.176ZM228.666 130.193C230.109 130.193 230.922 129.46 231.246 128.807H231.314V130H232.973V124.205C232.973 121.665 230.973 121.159 229.587 121.159C228.007 121.159 226.553 121.795 225.984 123.386L227.581 123.75C227.831 123.131 228.467 122.534 229.609 122.534C230.706 122.534 231.268 123.108 231.268 124.097V124.136C231.268 124.756 230.632 124.744 229.064 124.926C227.411 125.119 225.717 125.551 225.717 127.534C225.717 129.25 227.007 130.193 228.666 130.193ZM229.036 128.83C228.075 128.83 227.382 128.398 227.382 127.557C227.382 126.648 228.189 126.324 229.172 126.193C229.723 126.119 231.03 125.972 231.274 125.727V126.852C231.274 127.886 230.45 128.83 229.036 128.83ZM239.31 121.273H237.52V119.182H235.821V121.273H234.543V122.636H235.821V127.79C235.815 129.375 237.026 130.142 238.366 130.114C238.906 130.108 239.27 130.006 239.469 129.932L239.162 128.528C239.048 128.551 238.838 128.602 238.565 128.602C238.014 128.602 237.52 128.42 237.52 127.438V122.636H239.31V121.273ZM241.189 130H242.888V121.273H241.189V130ZM242.047 119.926C242.632 119.926 243.121 119.472 243.121 118.915C243.121 118.358 242.632 117.898 242.047 117.898C241.456 117.898 240.973 118.358 240.973 118.915C240.973 119.472 241.456 119.926 242.047 119.926ZM248.849 130.176C251.31 130.176 252.918 128.375 252.918 125.676C252.918 122.96 251.31 121.159 248.849 121.159C246.389 121.159 244.781 122.96 244.781 125.676C244.781 128.375 246.389 130.176 248.849 130.176ZM248.855 128.75C247.247 128.75 246.497 127.347 246.497 125.67C246.497 124 247.247 122.58 248.855 122.58C250.452 122.58 251.202 124 251.202 125.67C251.202 127.347 250.452 128.75 248.855 128.75ZM256.513 124.818C256.513 123.426 257.365 122.631 258.547 122.631C259.7 122.631 260.399 123.386 260.399 124.653V130H262.098V124.449C262.098 122.29 260.911 121.159 259.126 121.159C257.814 121.159 256.956 121.767 256.553 122.693H256.445V121.273H254.814V130H256.513V124.818Z" fill="#4959E7"/>
<path d="M7 95C7 90.0294 11.0294 86 16 86H62V142H16C11.0294 142 7 137.971 7 133V95Z" fill="#F1F5FE"/>
<rect x="23.1904" y="106.249" width="22.8175" height="16.2353" rx="2" stroke="#7A80F6" stroke-width="1.5" stroke-linejoin="round"/>
<path d="M30.6061 114.874C31.8663 114.874 32.8879 113.966 32.8879 112.845C32.8879 111.724 31.8663 110.815 30.6061 110.815C29.346 110.815 28.3244 111.724 28.3244 112.845C28.3244 113.966 29.346 114.874 30.6061 114.874Z" stroke="#7A80F6" stroke-width="1.5" stroke-linejoin="round"/>
<path d="M34.0292 117.918C34.0292 116.237 32.4968 114.874 30.6065 114.874C28.7163 114.874 27.1839 116.237 27.1839 117.918" stroke="#7A80F6" stroke-width="1.5" stroke-linecap="round" stroke-linejoin="round"/>
<path d="M36.881 112.337H41.4444" stroke="#7A80F6" stroke-width="1.5" stroke-linecap="round" stroke-linejoin="round"/>
<path d="M38.0221 116.396H41.4447" stroke="#7A80F6" stroke-width="1.5" stroke-linecap="round" stroke-linejoin="round"/>
<mask id="mask0_2290_6297" style="mask-type:alpha" maskUnits="userSpaceOnUse" x="0" y="79" width="24" height="24">
<circle cx="12" cy="91" r="12" fill="#C4C4C4"/>
</mask>
<g mask="url(#mask0_2290_6297)">
<path d="M-1.71429 79H42.8571V115H-1.71429V79Z" fill="#DE2910"/>
<path d="M3.63417 92.3206L6.64271 82.6006L9.65124 92.3206L1.62848 86.3806H11.6569L3.63417 92.3206Z" fill="#FFDE00"/>
<path d="M16.6834 82.7864L13.5872 83.5253L15.6525 80.9336L15.4499 84.4217L13.7317 81.3336L16.6834 82.7864Z" fill="#FFDE00"/>
<path d="M19.8081 87.0508L16.6882 86.4387L19.5251 84.9124L18.0822 88.0429L17.6106 84.479L19.8081 87.0508Z" fill="#FFDE00"/>
<path d="M19.3529 93.0346L16.7361 91.1053L19.9044 90.9578L17.4014 93.1824L18.3205 89.7212L19.3529 93.0346Z" fill="#FFDE00"/>
<path d="M15.4172 96.9423L13.6954 94.0743L16.6707 95.2561L13.5641 96.267L15.6533 93.4566L15.4172 96.9423Z" fill="#FFDE00"/>
</g>
<g filter="url(#filter1_f_2290_6297)">
<rect x="12" y="213" width="274" height="58" rx="10" fill="#EFEFF4" fill-opacity="0.6"/>
</g>
<rect x="6.5" y="208.5" width="274" height="57" rx="9.5" fill="white" stroke="#F0F0F4"/>
<path d="M87.9432 225.148C87.5455 222.659 85.5966 221.205 83.1364 221.205C80.125 221.205 77.9034 223.46 77.9034 227.182C77.9034 230.903 80.1136 233.159 83.1364 233.159C85.6932 233.159 87.5625 231.557 87.9432 229.256L86.1705 229.25C85.8693 230.739 84.6193 231.557 83.1477 231.557C81.1534 231.557 79.6477 230.028 79.6477 227.182C79.6477 224.358 81.1477 222.807 83.1534 222.807C84.6364 222.807 85.8807 223.642 86.1705 225.148H87.9432ZM91.6065 227.818C91.6065 226.426 92.4872 225.631 93.6974 225.631C94.8679 225.631 95.5668 226.375 95.5668 227.653V233H97.2656V227.449C97.2656 225.273 96.0724 224.159 94.277 224.159C92.919 224.159 92.1009 224.75 91.6918 225.693H91.5838V221.364H89.9077V233H91.6065V227.818ZM99.5327 233H101.232V224.273H99.5327V233ZM100.391 222.926C100.976 222.926 101.464 222.472 101.464 221.915C101.464 221.358 100.976 220.898 100.391 220.898C99.7997 220.898 99.3168 221.358 99.3168 221.915C99.3168 222.472 99.7997 222.926 100.391 222.926ZM105.216 227.818C105.216 226.426 106.068 225.631 107.25 225.631C108.403 225.631 109.102 226.386 109.102 227.653V233H110.801V227.449C110.801 225.29 109.614 224.159 107.83 224.159C106.517 224.159 105.659 224.767 105.256 225.693H105.148V224.273H103.517V233H105.216V227.818ZM116.841 233.176C118.744 233.176 120.091 232.239 120.477 230.818L118.869 230.528C118.562 231.352 117.824 231.773 116.858 231.773C115.403 231.773 114.426 230.83 114.381 229.148H120.585V228.545C120.585 225.392 118.699 224.159 116.722 224.159C114.29 224.159 112.688 226.011 112.688 228.693C112.688 231.403 114.267 233.176 116.841 233.176ZM114.386 227.875C114.455 226.636 115.352 225.562 116.733 225.562C118.051 225.562 118.915 226.54 118.92 227.875H114.386ZM129.01 226.403C128.658 225.045 127.595 224.159 125.709 224.159C123.737 224.159 122.339 225.199 122.339 226.744C122.339 227.983 123.089 228.807 124.726 229.17L126.203 229.494C127.044 229.682 127.436 230.057 127.436 230.602C127.436 231.278 126.714 231.807 125.601 231.807C124.584 231.807 123.93 231.369 123.726 230.511L122.084 230.761C122.368 232.307 123.652 233.176 125.612 233.176C127.72 233.176 129.18 232.057 129.18 230.477C129.18 229.244 128.396 228.483 126.794 228.114L125.408 227.795C124.447 227.568 124.033 227.244 124.038 226.653C124.033 225.983 124.76 225.506 125.726 225.506C126.783 225.506 127.271 226.091 127.47 226.676L129.01 226.403ZM134.81 233.176C136.713 233.176 138.06 232.239 138.446 230.818L136.838 230.528C136.531 231.352 135.793 231.773 134.827 231.773C133.372 231.773 132.395 230.83 132.349 229.148H138.554V228.545C138.554 225.392 136.668 224.159 134.69 224.159C132.259 224.159 130.656 226.011 130.656 228.693C130.656 231.403 132.236 233.176 134.81 233.176ZM132.355 227.875C132.423 226.636 133.321 225.562 134.702 225.562C136.02 225.562 136.884 226.54 136.889 227.875H132.355ZM144.673 233H146.372V227.619C146.372 226.443 147.196 225.625 148.162 225.625C149.105 225.625 149.759 226.25 149.759 227.199V233H151.452V227.438C151.452 226.386 152.094 225.625 153.202 225.625C154.099 225.625 154.838 226.125 154.838 227.307V233H156.537V227.148C156.537 225.153 155.423 224.159 153.844 224.159C152.588 224.159 151.645 224.761 151.224 225.693H151.134C150.753 224.739 149.952 224.159 148.787 224.159C147.634 224.159 146.776 224.733 146.412 225.693H146.304V224.273H144.673V233ZM162.49 233.176C164.95 233.176 166.558 231.375 166.558 228.676C166.558 225.96 164.95 224.159 162.49 224.159C160.03 224.159 158.422 225.96 158.422 228.676C158.422 231.375 160.03 233.176 162.49 233.176ZM162.496 231.75C160.888 231.75 160.138 230.347 160.138 228.67C160.138 227 160.888 225.58 162.496 225.58C164.092 225.58 164.842 227 164.842 228.67C164.842 230.347 164.092 231.75 162.496 231.75ZM168.591 233H170.25V231.642H170.392C170.699 232.199 171.324 233.17 172.915 233.17C175.028 233.17 176.562 231.477 176.562 228.653C176.562 225.824 175.006 224.159 172.898 224.159C171.278 224.159 170.693 225.148 170.392 225.688H170.29V221.364H168.591V233ZM170.256 228.636C170.256 226.812 171.051 225.602 172.534 225.602C174.074 225.602 174.847 226.903 174.847 228.636C174.847 230.386 174.051 231.722 172.534 231.722C171.074 231.722 170.256 230.472 170.256 228.636ZM178.47 233H180.169V224.273H178.47V233ZM179.328 222.926C179.913 222.926 180.402 222.472 180.402 221.915C180.402 221.358 179.913 220.898 179.328 220.898C178.737 220.898 178.254 221.358 178.254 221.915C178.254 222.472 178.737 222.926 179.328 222.926ZM184.153 221.364H182.455V233H184.153V221.364ZM190.2 233.176C192.104 233.176 193.45 232.239 193.837 230.818L192.229 230.528C191.922 231.352 191.183 231.773 190.217 231.773C188.763 231.773 187.786 230.83 187.74 229.148H193.945V228.545C193.945 225.392 192.058 224.159 190.081 224.159C187.649 224.159 186.047 226.011 186.047 228.693C186.047 231.403 187.626 233.176 190.2 233.176ZM187.746 227.875C187.814 226.636 188.712 225.562 190.092 225.562C191.411 225.562 192.274 226.54 192.28 227.875H187.746ZM79.8409 247.818C79.8409 246.426 80.6932 245.631 81.875 245.631C83.0284 245.631 83.7273 246.386 83.7273 247.653V253H85.4261V247.449C85.4261 245.29 84.2386 244.159 82.4545 244.159C81.142 244.159 80.2841 244.767 79.8807 245.693H79.7727V244.273H78.142V253H79.8409V247.818ZM93.233 249.381C93.2386 250.864 92.1364 251.568 91.1818 251.568C90.1307 251.568 89.4034 250.807 89.4034 249.619V244.273H87.7045V249.824C87.7045 251.989 88.892 253.114 90.5682 253.114C91.8807 253.114 92.7727 252.42 93.1761 251.489H93.267V253H94.9375V244.273H93.233V249.381ZM97.2202 253H98.919V247.619C98.919 246.443 99.7429 245.625 100.709 245.625C101.652 245.625 102.305 246.25 102.305 247.199V253H103.999V247.438C103.999 246.386 104.641 245.625 105.749 245.625C106.646 245.625 107.385 246.125 107.385 247.307V253H109.084V247.148C109.084 245.153 107.97 244.159 106.391 244.159C105.135 244.159 104.192 244.761 103.771 245.693H103.68C103.3 244.739 102.499 244.159 101.334 244.159C100.18 244.159 99.3224 244.733 98.9588 245.693H98.8509V244.273H97.2202V253ZM111.497 253H113.156V251.642H113.298C113.605 252.199 114.23 253.17 115.821 253.17C117.935 253.17 119.469 251.477 119.469 248.653C119.469 245.824 117.912 244.159 115.804 244.159C114.185 244.159 113.599 245.148 113.298 245.688H113.196V241.364H111.497V253ZM113.162 248.636C113.162 246.812 113.957 245.602 115.44 245.602C116.98 245.602 117.753 246.903 117.753 248.636C117.753 250.386 116.957 251.722 115.44 251.722C113.98 251.722 113.162 250.472 113.162 248.636ZM125.138 253.176C127.041 253.176 128.388 252.239 128.774 250.818L127.166 250.528C126.859 251.352 126.121 251.773 125.155 251.773C123.7 251.773 122.723 250.83 122.678 249.148H128.882V248.545C128.882 245.392 126.996 244.159 125.018 244.159C122.587 244.159 120.984 246.011 120.984 248.693C120.984 251.403 122.564 253.176 125.138 253.176ZM122.683 247.875C122.751 246.636 123.649 245.562 125.03 245.562C126.348 245.562 127.212 246.54 127.217 247.875H122.683ZM130.767 253H132.466V247.67C132.466 246.528 133.347 245.705 134.551 245.705C134.903 245.705 135.301 245.767 135.438 245.807V244.182C135.267 244.159 134.932 244.142 134.716 244.142C133.693 244.142 132.818 244.722 132.5 245.659H132.409V244.273H130.767V253ZM148.608 244.273H146.784L144.58 250.989H144.489L142.278 244.273H140.455L143.625 253H145.443L148.608 244.273ZM153.653 253.176C155.557 253.176 156.903 252.239 157.29 250.818L155.682 250.528C155.375 251.352 154.636 251.773 153.67 251.773C152.216 251.773 151.239 250.83 151.193 249.148H157.398V248.545C157.398 245.392 155.511 244.159 153.534 244.159C151.102 244.159 149.5 246.011 149.5 248.693C149.5 251.403 151.08 253.176 153.653 253.176ZM151.199 247.875C151.267 246.636 152.165 245.562 153.545 245.562C154.864 245.562 155.727 246.54 155.733 247.875H151.199ZM159.283 253H160.982V247.67C160.982 246.528 161.862 245.705 163.067 245.705C163.419 245.705 163.817 245.767 163.953 245.807V244.182C163.783 244.159 163.447 244.142 163.232 244.142C162.209 244.142 161.334 244.722 161.016 245.659H160.925V244.273H159.283V253ZM165.423 253H167.122V244.273H165.423V253ZM166.281 242.926C166.866 242.926 167.355 242.472 167.355 241.915C167.355 241.358 166.866 240.898 166.281 240.898C165.69 240.898 165.207 241.358 165.207 241.915C165.207 242.472 165.69 242.926 166.281 242.926ZM173.561 244.273H171.68V243.489C171.68 242.716 171.999 242.295 172.828 242.295C173.18 242.295 173.43 242.375 173.589 242.426L173.987 241.051C173.749 240.96 173.254 240.818 172.567 240.818C171.186 240.818 169.976 241.625 169.976 243.261V244.273H168.629V245.636H169.976V253H171.68V245.636H173.561V244.273ZM175.314 253H177.013V244.273H175.314V253ZM176.172 242.926C176.757 242.926 177.246 242.472 177.246 241.915C177.246 241.358 176.757 240.898 176.172 240.898C175.581 240.898 175.098 241.358 175.098 241.915C175.098 242.472 175.581 242.926 176.172 242.926ZM182.974 253.176C185.037 253.176 186.372 251.938 186.56 250.239H184.906C184.69 251.182 183.957 251.739 182.986 251.739C181.548 251.739 180.622 250.54 180.622 248.636C180.622 246.767 181.565 245.591 182.986 245.591C184.065 245.591 184.724 246.273 184.906 247.091H186.56C186.378 245.33 184.94 244.159 182.957 244.159C180.497 244.159 178.906 246.011 178.906 248.676C178.906 251.307 180.44 253.176 182.974 253.176ZM190.916 253.193C192.359 253.193 193.172 252.46 193.496 251.807H193.564V253H195.223V247.205C195.223 244.665 193.223 244.159 191.837 244.159C190.257 244.159 188.803 244.795 188.234 246.386L189.831 246.75C190.081 246.131 190.717 245.534 191.859 245.534C192.956 245.534 193.518 246.108 193.518 247.097V247.136C193.518 247.756 192.882 247.744 191.314 247.926C189.661 248.119 187.967 248.551 187.967 250.534C187.967 252.25 189.257 253.193 190.916 253.193ZM191.286 251.83C190.325 251.83 189.632 251.398 189.632 250.557C189.632 249.648 190.439 249.324 191.422 249.193C191.973 249.119 193.28 248.972 193.524 248.727V249.852C193.524 250.886 192.7 251.83 191.286 251.83ZM201.56 244.273H199.77V242.182H198.071V244.273H196.793V245.636H198.071V250.79C198.065 252.375 199.276 253.142 200.616 253.114C201.156 253.108 201.52 253.006 201.719 252.932L201.412 251.528C201.298 251.551 201.088 251.602 200.815 251.602C200.264 251.602 199.77 251.42 199.77 250.438V245.636H201.56V244.273ZM203.439 253H205.138V244.273H203.439V253ZM204.297 242.926C204.882 242.926 205.371 242.472 205.371 241.915C205.371 241.358 204.882 240.898 204.297 240.898C203.706 240.898 203.223 241.358 203.223 241.915C203.223 242.472 203.706 242.926 204.297 242.926ZM211.099 253.176C213.56 253.176 215.168 251.375 215.168 248.676C215.168 245.96 213.56 244.159 211.099 244.159C208.639 244.159 207.031 245.96 207.031 248.676C207.031 251.375 208.639 253.176 211.099 253.176ZM211.105 251.75C209.497 251.75 208.747 250.347 208.747 248.67C208.747 247 209.497 245.58 211.105 245.58C212.702 245.58 213.452 247 213.452 248.67C213.452 250.347 212.702 251.75 211.105 251.75ZM218.763 247.818C218.763 246.426 219.615 245.631 220.797 245.631C221.95 245.631 222.649 246.386 222.649 247.653V253H224.348V247.449C224.348 245.29 223.161 244.159 221.376 244.159C220.064 244.159 219.206 244.767 218.803 245.693H218.695V244.273H217.064V253H218.763V247.818Z" fill="#4959E7"/>
<path d="M7 218C7 213.029 11.0294 209 16 209H62V265H16C11.0294 265 7 260.971 7 256V218Z" fill="#F1F5FE"/>
<path d="M31.3921 236.676C32.2349 238.399 33.6316 239.789 35.3585 240.624C35.4848 240.684 35.6246 240.71 35.764 240.7C35.9034 240.689 36.0377 240.642 36.1536 240.564L38.6963 238.869C38.8087 238.794 38.9381 238.748 39.0727 238.736C39.2073 238.723 39.3429 238.745 39.4671 238.798L44.224 240.836C44.3856 240.905 44.5205 241.024 44.6084 241.176C44.6963 241.328 44.7324 241.505 44.7113 241.679C44.561 242.856 43.9869 243.937 43.0967 244.721C42.2065 245.504 41.0611 245.937 39.875 245.937C36.2117 245.937 32.6984 244.482 30.1081 241.891C27.5177 239.301 26.0625 235.788 26.0625 232.124C26.0626 230.938 26.4949 229.793 27.2787 228.903C28.0624 228.012 29.1438 227.438 30.3203 227.288C30.4946 227.267 30.671 227.303 30.823 227.391C30.975 227.479 31.0943 227.614 31.1629 227.775L33.2034 232.536C33.2562 232.66 33.2777 232.794 33.266 232.927C33.2543 233.061 33.2098 233.189 33.1364 233.301L31.4468 235.883C31.3699 235.999 31.3244 236.133 31.3148 236.272C31.3053 236.411 31.3319 236.55 31.3921 236.676V236.676Z" stroke="#7A80F6" stroke-width="1.625" stroke-linecap="round" stroke-linejoin="round"/>
<mask id="mask1_2290_6297" style="mask-type:alpha" maskUnits="userSpaceOnUse" x="0" y="204" width="24" height="24">
<circle cx="12" cy="216" r="12" fill="#C4C4C4"/>
</mask>
<g mask="url(#mask1_2290_6297)">
<path d="M-1.71429 204H42.8571V240H-1.71429V204Z" fill="#DE2910"/>
<path d="M3.63417 217.321L6.64271 207.601L9.65124 217.321L1.62848 211.381H11.6569L3.63417 217.321Z" fill="#FFDE00"/>
<path d="M16.6834 207.786L13.5872 208.525L15.6525 205.934L15.4499 209.422L13.7317 206.334L16.6834 207.786Z" fill="#FFDE00"/>
<path d="M19.8081 212.051L16.6882 211.439L19.5251 209.912L18.0822 213.043L17.6106 209.479L19.8081 212.051Z" fill="#FFDE00"/>
<path d="M19.3529 218.035L16.7361 216.105L19.9044 215.958L17.4014 218.182L18.3205 214.721L19.3529 218.035Z" fill="#FFDE00"/>
<path d="M15.4172 221.942L13.6954 219.074L16.6707 220.256L13.5641 221.267L15.6533 218.457L15.4172 221.942Z" fill="#FFDE00"/>
</g>
<g filter="url(#filter2_f_2290_6297)">
<rect x="13" y="336" width="274" height="58" rx="10" fill="#EFEFF4" fill-opacity="0.6"/>
</g>
<rect x="7.5" y="331.5" width="273" height="57" rx="9.5" fill="white" stroke="#F0F0F4"/>
<path d="M79.2784 356H81.0341V351.909H83.4205C86.1193 351.909 87.4545 350.278 87.4545 348.131C87.4545 345.989 86.1307 344.364 83.4261 344.364H79.2784V356ZM81.0341 350.42V345.869H83.2386C84.9773 345.869 85.6875 346.812 85.6875 348.131C85.6875 349.449 84.9773 350.42 83.2614 350.42H81.0341ZM89.5128 356H96.8764V354.489H91.2685V350.926H96.4276V349.42H91.2685V345.875H96.8082V344.364H89.5128V356ZM99.1534 356H100.909V351.909H103.295C105.994 351.909 107.33 350.278 107.33 348.131C107.33 345.989 106.006 344.364 103.301 344.364H99.1534V356ZM100.909 350.42V345.869H103.114C104.852 345.869 105.562 346.812 105.562 348.131C105.562 349.449 104.852 350.42 103.136 350.42H100.909ZM116.026 356.193C117.469 356.193 118.281 355.46 118.605 354.807H118.673V356H120.332V350.205C120.332 347.665 118.332 347.159 116.946 347.159C115.366 347.159 113.912 347.795 113.344 349.386L114.94 349.75C115.19 349.131 115.827 348.534 116.969 348.534C118.065 348.534 118.628 349.108 118.628 350.097V350.136C118.628 350.756 117.991 350.744 116.423 350.926C114.77 351.119 113.077 351.551 113.077 353.534C113.077 355.25 114.366 356.193 116.026 356.193ZM116.395 354.83C115.435 354.83 114.741 354.398 114.741 353.557C114.741 352.648 115.548 352.324 116.531 352.193C117.082 352.119 118.389 351.972 118.634 351.727V352.852C118.634 353.886 117.81 354.83 116.395 354.83ZM124.294 350.818C124.294 349.426 125.146 348.631 126.328 348.631C127.482 348.631 128.18 349.386 128.18 350.653V356H129.879V350.449C129.879 348.29 128.692 347.159 126.908 347.159C125.595 347.159 124.737 347.767 124.334 348.693H124.226V347.273H122.595V356H124.294V350.818ZM135.425 356.17C137.016 356.17 137.641 355.199 137.947 354.642H138.089V356H139.749V344.364H138.05V348.688H137.947C137.641 348.148 137.061 347.159 135.436 347.159C133.328 347.159 131.777 348.824 131.777 351.653C131.777 354.477 133.305 356.17 135.425 356.17ZM135.8 354.722C134.283 354.722 133.493 353.386 133.493 351.636C133.493 349.903 134.266 348.602 135.8 348.602C137.283 348.602 138.078 349.812 138.078 351.636C138.078 353.472 137.266 354.722 135.8 354.722ZM152.891 347.42H154.584C154.533 345.557 152.885 344.205 150.521 344.205C148.186 344.205 146.396 345.54 146.396 347.545C146.396 349.165 147.555 350.114 149.425 350.619L150.8 350.994C152.044 351.324 153.004 351.733 153.004 352.767C153.004 353.903 151.919 354.653 150.425 354.653C149.072 354.653 147.947 354.051 147.845 352.784H146.084C146.197 354.892 147.828 356.193 150.436 356.193C153.169 356.193 154.743 354.756 154.743 352.784C154.743 350.688 152.874 349.875 151.396 349.511L150.26 349.216C149.351 348.983 148.141 348.557 148.146 347.443C148.146 346.455 149.05 345.722 150.482 345.722C151.817 345.722 152.766 346.347 152.891 347.42ZM159.244 356.193C160.688 356.193 161.5 355.46 161.824 354.807H161.892V356H163.551V350.205C163.551 347.665 161.551 347.159 160.165 347.159C158.585 347.159 157.131 347.795 156.562 349.386L158.159 349.75C158.409 349.131 159.045 348.534 160.188 348.534C161.284 348.534 161.847 349.108 161.847 350.097V350.136C161.847 350.756 161.21 350.744 159.642 350.926C157.989 351.119 156.295 351.551 156.295 353.534C156.295 355.25 157.585 356.193 159.244 356.193ZM159.614 354.83C158.653 354.83 157.96 354.398 157.96 353.557C157.96 352.648 158.767 352.324 159.75 352.193C160.301 352.119 161.608 351.972 161.852 351.727V352.852C161.852 353.886 161.028 354.83 159.614 354.83ZM167.513 350.818C167.513 349.426 168.365 348.631 169.547 348.631C170.7 348.631 171.399 349.386 171.399 350.653V356H173.098V350.449C173.098 348.29 171.911 347.159 170.126 347.159C168.814 347.159 167.956 347.767 167.553 348.693H167.445V347.273H165.814V356H167.513V350.818ZM179.053 356.176C181.115 356.176 182.45 354.938 182.638 353.239H180.984C180.768 354.182 180.036 354.739 179.064 354.739C177.626 354.739 176.7 353.54 176.7 351.636C176.7 349.767 177.643 348.591 179.064 348.591C180.143 348.591 180.803 349.273 180.984 350.091H182.638C182.456 348.33 181.018 347.159 179.036 347.159C176.575 347.159 174.984 349.011 174.984 351.676C174.984 354.307 176.518 356.176 179.053 356.176ZM188.528 347.273H186.739V345.182H185.04V347.273H183.761V348.636H185.04V353.79C185.034 355.375 186.244 356.142 187.585 356.114C188.125 356.108 188.489 356.006 188.688 355.932L188.381 354.528C188.267 354.551 188.057 354.602 187.784 354.602C187.233 354.602 186.739 354.42 186.739 353.438V348.636H188.528V347.273ZM190.408 356H192.107V347.273H190.408V356ZM191.266 345.926C191.851 345.926 192.339 345.472 192.339 344.915C192.339 344.358 191.851 343.898 191.266 343.898C190.675 343.898 190.192 344.358 190.192 344.915C190.192 345.472 190.675 345.926 191.266 345.926ZM198.068 356.176C200.528 356.176 202.136 354.375 202.136 351.676C202.136 348.96 200.528 347.159 198.068 347.159C195.608 347.159 194 348.96 194 351.676C194 354.375 195.608 356.176 198.068 356.176ZM198.074 354.75C196.466 354.75 195.716 353.347 195.716 351.67C195.716 350 196.466 348.58 198.074 348.58C199.67 348.58 200.42 350 200.42 351.67C200.42 353.347 199.67 354.75 198.074 354.75ZM205.732 350.818C205.732 349.426 206.584 348.631 207.766 348.631C208.919 348.631 209.618 349.386 209.618 350.653V356H211.317V350.449C211.317 348.29 210.129 347.159 208.345 347.159C207.033 347.159 206.175 347.767 205.771 348.693H205.663V347.273H204.033V356H205.732V350.818ZM220.135 349.403C219.783 348.045 218.72 347.159 216.834 347.159C214.862 347.159 213.464 348.199 213.464 349.744C213.464 350.983 214.214 351.807 215.851 352.17L217.328 352.494C218.169 352.682 218.561 353.057 218.561 353.602C218.561 354.278 217.839 354.807 216.726 354.807C215.709 354.807 215.055 354.369 214.851 353.511L213.209 353.761C213.493 355.307 214.777 356.176 216.737 356.176C218.845 356.176 220.305 355.057 220.305 353.477C220.305 352.244 219.521 351.483 217.919 351.114L216.533 350.795C215.572 350.568 215.158 350.244 215.163 349.653C215.158 348.983 215.885 348.506 216.851 348.506C217.908 348.506 218.396 349.091 218.595 349.676L220.135 349.403ZM88.9432 368.148C88.5455 365.659 86.5966 364.205 84.1364 364.205C81.125 364.205 78.9034 366.46 78.9034 370.182C78.9034 373.903 81.1136 376.159 84.1364 376.159C86.6932 376.159 88.5625 374.557 88.9432 372.256L87.1705 372.25C86.8693 373.739 85.6193 374.557 84.1477 374.557C82.1534 374.557 80.6477 373.028 80.6477 370.182C80.6477 367.358 82.1477 365.807 84.1534 365.807C85.6364 365.807 86.8807 366.642 87.1705 368.148H88.9432ZM92.6065 370.818C92.6065 369.426 93.4872 368.631 94.6974 368.631C95.8679 368.631 96.5668 369.375 96.5668 370.653V376H98.2656V370.449C98.2656 368.273 97.0724 367.159 95.277 367.159C93.919 367.159 93.1009 367.75 92.6918 368.693H92.5838V364.364H90.9077V376H92.6065V370.818ZM104.294 376.176C106.197 376.176 107.544 375.239 107.93 373.818L106.322 373.528C106.016 374.352 105.277 374.773 104.311 374.773C102.857 374.773 101.879 373.83 101.834 372.148H108.038V371.545C108.038 368.392 106.152 367.159 104.175 367.159C101.743 367.159 100.141 369.011 100.141 371.693C100.141 374.403 101.72 376.176 104.294 376.176ZM101.839 370.875C101.908 369.636 102.805 368.562 104.186 368.562C105.504 368.562 106.368 369.54 106.374 370.875H101.839ZM113.599 376.176C115.662 376.176 116.997 374.938 117.185 373.239H115.531C115.315 374.182 114.582 374.739 113.611 374.739C112.173 374.739 111.247 373.54 111.247 371.636C111.247 369.767 112.19 368.591 113.611 368.591C114.69 368.591 115.349 369.273 115.531 370.091H117.185C117.003 368.33 115.565 367.159 113.582 367.159C111.122 367.159 109.531 369.011 109.531 371.676C109.531 374.307 111.065 376.176 113.599 376.176ZM119.001 376H120.7V372.903L121.547 372.057L124.513 376H126.598L122.825 371.017L126.359 367.273H124.325L120.848 370.966H120.7V364.364H119.001V376Z" fill="#4959E7"/>
<path d="M8 341C8 336.029 12.0294 332 17 332H63V388H17C12.0294 388 8 383.971 8 379V341Z" fill="#F1F5FE"/>
<path d="M27.2222 352.729L35.7819 350.223L44.3333 352.729V357.87C44.3333 363.273 40.8875 368.07 35.779 369.778C30.6692 368.07 27.2222 363.272 27.2222 357.868V352.729Z" stroke="#7A80F6" stroke-width="1.7" stroke-linejoin="round"/>
<path d="M32.111 360.122L34.6777 362.689L39.811 357.556" stroke="#7A80F6" stroke-width="1.7" stroke-linecap="round" stroke-linejoin="round"/>
<circle cx="661" cy="233" r="100" fill="#F1F5FE"/>
<circle cx="661" cy="233" r="72" fill="white"/>
<circle cx="661" cy="233" r="44" fill="#4959E7"/>
<path fill-rule="evenodd" clip-rule="evenodd" d="M660.147 250.452H671.862V240.778H660.147C657.323 240.778 654.98 238.412 654.98 235.561V234.924V231.623C654.98 228.772 657.323 226.406 660.147 226.406H671.862V216.731H660.147C652.034 216.731 645.395 223.432 645.395 231.623V234.924V235.561C645.395 243.747 652.033 250.452 660.147 250.452Z" fill="white"/>
<g filter="url(#filter3_f_2290_6297)">
<rect x="1004" y="15" width="419" height="379" rx="20" fill="#EFEFF4" fill-opacity="0.6"/>
<rect x="1004.5" y="15.5" width="418" height="378" rx="19.5" stroke="#F0F0F4"/>
</g>
<rect x="978.5" y="4.5" width="431" height="378" rx="19.5" fill="white" stroke="#F0F0F4"/>
<path d="M979 24C979 13.5066 987.507 5 998 5H1390C1400.49 5 1409 13.5066 1409 24V36H979V24Z" fill="#99A7F3"/>
<line x1="1409" y1="36.5" x2="979" y2="36.5" stroke="#F2F2F7"/>
<path d="M1184.17 71.6023H1186.32L1187.59 73.2514L1188.5 74.3253L1190.68 77.125H1188.37L1186.89 75.2457L1186.26 74.3509L1184.17 71.6023ZM1190.99 69.4545C1190.99 70.8651 1190.72 72.0732 1190.2 73.0788C1189.67 74.0803 1188.96 74.8473 1188.05 75.38C1187.14 75.9126 1186.12 76.179 1184.97 76.179C1183.83 76.179 1182.8 75.9126 1181.89 75.38C1180.99 74.843 1180.27 74.0739 1179.75 73.0724C1179.22 72.0668 1178.96 70.8608 1178.96 69.4545C1178.96 68.044 1179.22 66.8381 1179.75 65.8366C1180.27 64.831 1180.99 64.0618 1181.89 63.5291C1182.8 62.9964 1183.83 62.7301 1184.97 62.7301C1186.12 62.7301 1187.14 62.9964 1188.05 63.5291C1188.96 64.0618 1189.67 64.831 1190.2 65.8366C1190.72 66.8381 1190.99 68.044 1190.99 69.4545ZM1188.6 69.4545C1188.6 68.4616 1188.45 67.6243 1188.14 66.9425C1187.83 66.2564 1187.4 65.7386 1186.86 65.3892C1186.31 65.0355 1185.69 64.8587 1184.97 64.8587C1184.26 64.8587 1183.63 65.0355 1183.09 65.3892C1182.54 65.7386 1182.11 66.2564 1181.8 66.9425C1181.5 67.6243 1181.34 68.4616 1181.34 69.4545C1181.34 70.4474 1181.5 71.2869 1181.8 71.973C1182.11 72.6548 1182.54 73.1726 1183.09 73.5263C1183.63 73.8757 1184.26 74.0504 1184.97 74.0504C1185.69 74.0504 1186.31 73.8757 1186.86 73.5263C1187.4 73.1726 1187.83 72.6548 1188.14 71.973C1188.45 71.2869 1188.6 70.4474 1188.6 69.4545ZM1199.4 71.8707V66.1818H1201.72V76H1199.47V74.255H1199.37C1199.15 74.8047 1198.79 75.2543 1198.28 75.6037C1197.78 75.9531 1197.16 76.1278 1196.42 76.1278C1195.78 76.1278 1195.21 75.9851 1194.71 75.6996C1194.22 75.4098 1193.84 74.9901 1193.56 74.4403C1193.28 73.8864 1193.15 73.2173 1193.15 72.4332V66.1818H1195.46V72.0753C1195.46 72.6974 1195.63 73.1918 1195.97 73.5582C1196.31 73.9247 1196.76 74.108 1197.31 74.108C1197.65 74.108 1197.98 74.0249 1198.3 73.8587C1198.62 73.6925 1198.89 73.4453 1199.09 73.1172C1199.3 72.7848 1199.4 72.3693 1199.4 71.8707ZM1204.1 76V66.1818H1206.41V76H1204.1ZM1205.26 64.7884C1204.89 64.7884 1204.58 64.6669 1204.31 64.424C1204.05 64.1768 1203.92 63.8807 1203.92 63.5355C1203.92 63.1861 1204.05 62.8899 1204.31 62.647C1204.58 62.3999 1204.89 62.2763 1205.26 62.2763C1205.63 62.2763 1205.95 62.3999 1206.21 62.647C1206.47 62.8899 1206.6 63.1861 1206.6 63.5355C1206.6 63.8807 1206.47 64.1768 1206.21 64.424C1205.95 64.6669 1205.63 64.7884 1205.26 64.7884ZM1213.07 76.1918C1212.09 76.1918 1211.25 75.9766 1210.55 75.5462C1209.85 75.1158 1209.31 74.5213 1208.93 73.7628C1208.56 73 1208.37 72.1222 1208.37 71.1293C1208.37 70.1321 1208.56 69.2521 1208.94 68.4893C1209.33 67.7223 1209.87 67.1257 1210.57 66.6996C1211.27 66.2692 1212.1 66.054 1213.06 66.054C1213.86 66.054 1214.56 66.201 1215.18 66.495C1215.79 66.7848 1216.29 67.196 1216.65 67.7287C1217.02 68.2571 1217.23 68.875 1217.28 69.5824H1215.07C1214.98 69.1094 1214.76 68.7152 1214.43 68.3999C1214.1 68.0803 1213.65 67.9205 1213.09 67.9205C1212.62 67.9205 1212.2 68.0483 1211.85 68.304C1211.49 68.5554 1211.21 68.9176 1211.01 69.3906C1210.81 69.8636 1210.71 70.4304 1210.71 71.0909C1210.71 71.7599 1210.81 72.3352 1211.01 72.8168C1211.2 73.294 1211.48 73.6626 1211.83 73.9226C1212.19 74.1783 1212.61 74.3061 1213.09 74.3061C1213.43 74.3061 1213.74 74.2422 1214.01 74.1143C1214.28 73.9822 1214.51 73.7926 1214.69 73.5455C1214.87 73.2983 1215 72.9979 1215.07 72.6442H1217.28C1217.22 73.3388 1217.02 73.9545 1216.67 74.4915C1216.31 75.0241 1215.83 75.4418 1215.22 75.7443C1214.61 76.0426 1213.9 76.1918 1213.07 76.1918ZM1221.29 72.919L1221.28 70.1257H1221.65L1225.18 66.1818H1227.89L1223.54 71.0142H1223.07L1221.29 72.919ZM1219.18 76V62.9091H1221.49V76H1219.18ZM1225.34 76L1222.15 71.532L1223.7 69.902L1228.11 76H1225.34ZM1236.37 62.9091V76H1233.99V62.9091H1236.37ZM1243.37 76H1238.93V62.9091H1243.46C1244.76 62.9091 1245.88 63.1712 1246.81 63.6953C1247.75 64.2152 1248.47 64.9631 1248.97 65.9389C1249.47 66.9148 1249.72 68.0824 1249.72 69.4418C1249.72 70.8054 1249.47 71.9773 1248.96 72.9574C1248.46 73.9375 1247.73 74.6896 1246.78 75.2138C1245.84 75.7379 1244.7 76 1243.37 76ZM1241.31 73.9482H1243.25C1244.17 73.9482 1244.93 73.782 1245.54 73.4496C1246.15 73.1129 1246.6 72.6122 1246.91 71.9474C1247.22 71.2784 1247.37 70.4432 1247.37 69.4418C1247.37 68.4403 1247.22 67.6094 1246.91 66.9489C1246.6 66.2841 1246.15 65.7876 1245.55 65.4595C1244.95 65.1271 1244.21 64.9609 1243.33 64.9609H1241.31V73.9482ZM1253.03 62.9091L1256.43 73.2131H1256.57L1259.97 62.9091H1262.57L1257.96 76H1255.03L1250.42 62.9091H1253.03Z" fill="#62636D"/>
<circle cx="1152.5" cy="70.5" r="15.5" fill="#F1F5FE"/>
<path d="M1154.64 64.0318L1147.5 72.6579H1151.67L1150.64 78.1718C1150.64 78.1826 1150.64 78.1938 1150.64 78.2044C1150.65 78.215 1150.65 78.2248 1150.66 78.2332C1150.67 78.2416 1150.68 78.2484 1150.69 78.253C1150.7 78.2576 1150.71 78.26 1150.72 78.26V78.26C1150.73 78.26 1150.74 78.2572 1150.75 78.252C1150.76 78.2467 1150.77 78.2391 1150.78 78.2298L1157.92 69.6021H1153.75L1154.78 64.0875C1154.78 64.0765 1154.78 64.0654 1154.78 64.0548C1154.78 64.0443 1154.77 64.0345 1154.76 64.0262C1154.76 64.0179 1154.75 64.0113 1154.74 64.0068C1154.73 64.0023 1154.72 64 1154.7 64V64C1154.69 64 1154.68 64.003 1154.67 64.0085C1154.66 64.014 1154.65 64.022 1154.64 64.0318V64.0318Z" stroke="#4959E7" stroke-width="1.2" stroke-linecap="round" stroke-linejoin="round"/>
<rect x="1156" y="136" width="77" height="33" rx="6.6" fill="#F1FFF3" fill-opacity="0.8"/>
<rect x="1156.33" y="136.33" width="76.34" height="32.34" rx="6.27" stroke="#74E3A7" stroke-opacity="0.7" stroke-width="0.66"/>
<path d="M1175.64 151.435L1172.01 154.9L1170.2 153.167" stroke="#1FB162" stroke-opacity="0.7" stroke-width="1.23077" stroke-linecap="round" stroke-linejoin="round"/>
<path d="M1172.92 158.86C1176.2 158.86 1178.86 156.201 1178.86 152.92C1178.86 149.64 1176.2 146.98 1172.92 146.98C1169.64 146.98 1166.98 149.64 1166.98 152.92C1166.98 156.201 1169.64 158.86 1172.92 158.86Z" stroke="#1FB162" stroke-opacity="0.7" stroke-width="1.23077" stroke-linecap="round" stroke-linejoin="round"/>
<path d="M1187.84 157H1189V154.3H1190.58C1192.36 154.3 1193.24 153.224 1193.24 151.806C1193.24 150.392 1192.37 149.32 1190.58 149.32H1187.84V157ZM1189 153.317V150.314H1190.46C1191.61 150.314 1192.07 150.936 1192.07 151.806C1192.07 152.676 1191.61 153.317 1190.47 153.317H1189ZM1196.13 157.128C1197.09 157.128 1197.62 156.644 1197.84 156.212H1197.88V157H1198.98V153.175C1198.98 151.499 1197.66 151.165 1196.74 151.165C1195.7 151.165 1194.74 151.585 1194.36 152.635L1195.42 152.875C1195.58 152.466 1196 152.072 1196.76 152.072C1197.48 152.072 1197.85 152.451 1197.85 153.104V153.13C1197.85 153.539 1197.43 153.531 1196.4 153.651C1195.3 153.779 1194.19 154.064 1194.19 155.372C1194.19 156.505 1195.04 157.128 1196.13 157.128ZM1196.38 156.227C1195.74 156.227 1195.29 155.942 1195.29 155.387C1195.29 154.787 1195.82 154.574 1196.47 154.487C1196.83 154.439 1197.69 154.341 1197.85 154.18V154.922C1197.85 155.605 1197.31 156.227 1196.38 156.227ZM1204.79 152.646C1204.55 151.75 1203.85 151.165 1202.61 151.165C1201.31 151.165 1200.38 151.851 1200.38 152.871C1200.38 153.689 1200.88 154.232 1201.96 154.472L1202.93 154.686C1203.49 154.81 1203.75 155.057 1203.75 155.417C1203.75 155.864 1203.27 156.212 1202.54 156.212C1201.86 156.212 1201.43 155.924 1201.3 155.357L1200.21 155.522C1200.4 156.542 1201.25 157.116 1202.54 157.116C1203.93 157.116 1204.9 156.377 1204.9 155.335C1204.9 154.521 1204.38 154.019 1203.32 153.775L1202.41 153.565C1201.77 153.415 1201.5 153.201 1201.5 152.811C1201.5 152.369 1201.98 152.054 1202.62 152.054C1203.32 152.054 1203.64 152.44 1203.77 152.826L1204.79 152.646ZM1210.45 152.646C1210.21 151.75 1209.51 151.165 1208.27 151.165C1206.97 151.165 1206.04 151.851 1206.04 152.871C1206.04 153.689 1206.54 154.232 1207.62 154.472L1208.59 154.686C1209.15 154.81 1209.41 155.057 1209.41 155.417C1209.41 155.864 1208.93 156.212 1208.2 156.212C1207.53 156.212 1207.09 155.924 1206.96 155.357L1205.88 155.522C1206.06 156.542 1206.91 157.116 1208.2 157.116C1209.6 157.116 1210.56 156.377 1210.56 155.335C1210.56 154.521 1210.04 154.019 1208.98 153.775L1208.07 153.565C1207.44 153.415 1207.16 153.201 1207.17 152.811C1207.16 152.369 1207.64 152.054 1208.28 152.054C1208.98 152.054 1209.3 152.44 1209.43 152.826L1210.45 152.646ZM1214.27 157.116C1215.53 157.116 1216.42 156.497 1216.67 155.56L1215.61 155.369C1215.41 155.912 1214.92 156.19 1214.29 156.19C1213.33 156.19 1212.68 155.567 1212.65 154.457H1216.75V154.06C1216.75 151.979 1215.5 151.165 1214.2 151.165C1212.59 151.165 1211.53 152.387 1211.53 154.157C1211.53 155.946 1212.58 157.116 1214.27 157.116ZM1212.65 153.617C1212.7 152.8 1213.29 152.091 1214.2 152.091C1215.07 152.091 1215.64 152.736 1215.65 153.617H1212.65ZM1220.15 157.113C1221.2 157.113 1221.61 156.471 1221.81 156.104H1221.91V157H1223V149.32H1221.88V152.174H1221.81C1221.61 151.817 1221.23 151.165 1220.15 151.165C1218.76 151.165 1217.74 152.264 1217.74 154.131C1217.74 155.995 1218.75 157.113 1220.15 157.113ZM1220.39 156.156C1219.39 156.156 1218.87 155.275 1218.87 154.12C1218.87 152.976 1219.38 152.117 1220.39 152.117C1221.37 152.117 1221.9 152.916 1221.9 154.12C1221.9 155.331 1221.36 156.156 1220.39 156.156Z" fill="#1FB162" fill-opacity="0.7"/>
<line x1="1409" y1="106.5" x2="979" y2="106.5" stroke="#F2F2F7"/>
<line x1="1370" y1="258.5" x2="1018" y2="258.5" stroke="#F2F2F7"/>
<line x1="1370" y1="332.5" x2="1018" y2="332.5" stroke="#F2F2F7"/>
<path d="M1020.44 207.273H1018.86V216H1020.44V207.273ZM1024.51 216.115C1025.64 216.115 1026.15 215.446 1026.39 214.969H1026.48V216H1028V207.273H1026.45V210.537H1026.39C1026.16 210.064 1025.67 209.369 1024.52 209.369C1023.01 209.369 1021.82 210.554 1021.82 212.736C1021.82 214.892 1022.97 216.115 1024.51 216.115ZM1024.94 214.849C1023.93 214.849 1023.39 213.955 1023.39 212.727C1023.39 211.509 1023.92 210.635 1024.94 210.635C1025.94 210.635 1026.48 211.457 1026.48 212.727C1026.48 213.997 1025.93 214.849 1024.94 214.849ZM1032.54 216.128C1034.07 216.128 1035.12 215.382 1035.39 214.244L1033.95 214.082C1033.74 214.636 1033.23 214.926 1032.56 214.926C1031.57 214.926 1030.91 214.27 1030.89 213.149H1035.45V212.676C1035.45 210.379 1034.07 209.369 1032.46 209.369C1030.59 209.369 1029.36 210.746 1029.36 212.766C1029.36 214.82 1030.57 216.128 1032.54 216.128ZM1030.9 212.109C1030.94 211.274 1031.56 210.571 1032.48 210.571C1033.37 210.571 1033.97 211.219 1033.97 212.109H1030.9ZM1038.3 212.165C1038.3 211.219 1038.87 210.673 1039.69 210.673C1040.48 210.673 1040.96 211.197 1040.96 212.071V216H1042.5V211.832C1042.51 210.264 1041.61 209.369 1040.26 209.369C1039.28 209.369 1038.61 209.838 1038.31 210.567H1038.23V209.455H1036.76V216H1038.3V212.165ZM1047.34 209.455H1046.05V207.886H1044.5V209.455H1043.58V210.648H1044.5V214.287C1044.5 215.518 1045.39 216.124 1046.55 216.089C1046.99 216.077 1047.29 215.991 1047.46 215.936L1047.2 214.73C1047.11 214.751 1046.94 214.79 1046.75 214.79C1046.36 214.79 1046.05 214.653 1046.05 214.031V210.648H1047.34V209.455ZM1048.63 216H1050.17V209.455H1048.63V216ZM1049.4 208.526C1049.89 208.526 1050.29 208.151 1050.29 207.69C1050.29 207.226 1049.89 206.851 1049.4 206.851C1048.91 206.851 1048.51 207.226 1048.51 207.69C1048.51 208.151 1048.91 208.526 1049.4 208.526ZM1055.03 209.455H1053.73V207.886H1052.19V209.455H1051.26V210.648H1052.19V214.287C1052.18 215.518 1053.08 216.124 1054.24 216.089C1054.68 216.077 1054.98 215.991 1055.15 215.936L1054.89 214.73C1054.8 214.751 1054.63 214.79 1054.43 214.79C1054.05 214.79 1053.73 214.653 1053.73 214.031V210.648H1055.03V209.455ZM1057.27 218.455C1058.48 218.455 1059.17 217.837 1059.54 216.793L1062.17 209.463L1060.52 209.455L1059.01 214.398H1058.94L1057.43 209.455H1055.8L1058.17 216.136L1058.04 216.49C1057.75 217.236 1057.3 217.287 1056.63 217.091L1056.27 218.293C1056.48 218.378 1056.85 218.455 1057.27 218.455Z" fill="#494A53"/>
<path d="M1018.86 290H1020.44V287.051H1022.11C1024.13 287.051 1025.21 285.841 1025.21 284.162C1025.21 282.496 1024.14 281.273 1022.13 281.273H1018.86V290ZM1020.44 285.751V282.594H1021.89C1023.08 282.594 1023.6 283.233 1023.6 284.162C1023.6 285.091 1023.08 285.751 1021.9 285.751H1020.44ZM1026.58 290H1032.29V288.675H1028.16V286.293H1031.97V284.967H1028.16V282.598H1032.26V281.273H1026.58V290ZM1033.87 290H1035.45V287.051H1037.12C1039.14 287.051 1040.22 285.841 1040.22 284.162C1040.22 282.496 1039.15 281.273 1037.15 281.273H1033.87V290ZM1035.45 285.751V282.594H1036.9C1038.09 282.594 1038.61 283.233 1038.61 284.162C1038.61 285.091 1038.09 285.751 1036.91 285.751H1035.45ZM1052.04 284.217C1051.77 282.278 1050.28 281.153 1048.35 281.153C1046.07 281.153 1044.35 282.815 1044.35 285.636C1044.35 288.453 1046.05 290.119 1048.35 290.119C1050.42 290.119 1051.8 288.777 1052.04 287.111L1050.45 287.102C1050.25 288.125 1049.41 288.7 1048.37 288.7C1046.95 288.7 1045.94 287.639 1045.94 285.636C1045.94 283.668 1046.95 282.572 1048.37 282.572C1049.43 282.572 1050.26 283.173 1050.45 284.217H1052.04ZM1054.96 286.165C1054.96 285.219 1055.55 284.673 1056.38 284.673C1057.19 284.673 1057.67 285.189 1057.67 286.071V290H1059.21V285.832C1059.21 284.251 1058.31 283.369 1056.95 283.369C1055.95 283.369 1055.31 283.825 1055.01 284.567H1054.93V281.273H1053.42V290H1054.96V286.165ZM1063.68 290.128C1065.2 290.128 1066.25 289.382 1066.53 288.244L1065.08 288.082C1064.88 288.636 1064.36 288.926 1063.7 288.926C1062.7 288.926 1062.04 288.27 1062.03 287.149H1066.59V286.676C1066.59 284.379 1065.21 283.369 1063.6 283.369C1061.72 283.369 1060.5 284.746 1060.5 286.766C1060.5 288.82 1061.71 290.128 1063.68 290.128ZM1062.03 286.109C1062.08 285.274 1062.7 284.571 1063.62 284.571C1064.51 284.571 1065.1 285.219 1065.11 286.109H1062.03ZM1070.75 290.128C1072.39 290.128 1073.44 289.152 1073.55 287.763H1072.08C1071.95 288.466 1071.44 288.871 1070.76 288.871C1069.8 288.871 1069.18 288.065 1069.18 286.727C1069.18 285.406 1069.81 284.614 1070.76 284.614C1071.5 284.614 1071.96 285.091 1072.08 285.722H1073.55C1073.45 284.303 1072.34 283.369 1070.74 283.369C1068.82 283.369 1067.61 284.754 1067.61 286.753C1067.61 288.734 1068.79 290.128 1070.75 290.128ZM1074.82 290H1076.36V287.801L1076.93 287.2L1078.93 290H1080.77L1078.09 286.28L1080.62 283.455H1078.82L1076.47 286.084H1076.36V281.273H1074.82V290Z" fill="#494A53"/>
<rect x="1326" y="207" width="46.4516" height="18" rx="8.70968" fill="#F1FFF3" fill-opacity="0.8"/>
<rect x="1326.29" y="207.29" width="45.871" height="17.4194" rx="8.41936" stroke="#74E3A7" stroke-opacity="0.7" stroke-width="0.580645"/>
<path d="M1335.29 218.902H1336.36V216.905H1337.5C1338.86 216.905 1339.59 216.085 1339.59 214.948C1339.59 213.819 1338.87 212.99 1337.51 212.99H1335.29V218.902ZM1336.36 216.024V213.885H1337.35C1338.15 213.885 1338.5 214.318 1338.5 214.948C1338.5 215.577 1338.15 216.024 1337.35 216.024H1336.36ZM1341.67 218.992C1342.37 218.992 1342.79 218.666 1342.98 218.293H1343.01V218.902H1344.02V215.935C1344.02 214.763 1343.06 214.411 1342.21 214.411C1341.28 214.411 1340.57 214.826 1340.33 215.635L1341.31 215.773C1341.41 215.47 1341.71 215.21 1342.22 215.21C1342.7 215.21 1342.97 215.458 1342.97 215.894V215.912C1342.97 216.212 1342.66 216.226 1341.87 216.31C1341.01 216.402 1340.19 216.659 1340.19 217.658C1340.19 218.53 1340.83 218.992 1341.67 218.992ZM1341.95 218.224C1341.51 218.224 1341.2 218.025 1341.2 217.641C1341.2 217.24 1341.55 217.072 1342.02 217.006C1342.29 216.968 1342.84 216.899 1342.97 216.789V217.312C1342.97 217.805 1342.58 218.224 1341.95 218.224ZM1348.57 215.64C1348.43 214.89 1347.83 214.411 1346.79 214.411C1345.72 214.411 1344.99 214.936 1344.99 215.756C1344.99 216.402 1345.39 216.83 1346.24 217.006L1347 217.165C1347.4 217.254 1347.6 217.419 1347.6 217.67C1347.6 217.973 1347.27 218.201 1346.77 218.201C1346.29 218.201 1345.98 217.993 1345.89 217.595L1344.87 217.693C1345 218.507 1345.68 218.989 1346.77 218.989C1347.88 218.989 1348.66 218.414 1348.67 217.574C1348.66 216.942 1348.26 216.555 1347.42 216.374L1346.66 216.212C1346.21 216.111 1346.03 215.955 1346.04 215.698C1346.03 215.398 1346.37 215.19 1346.8 215.19C1347.28 215.19 1347.54 215.453 1347.62 215.744L1348.57 215.64ZM1353.03 215.64C1352.89 214.89 1352.29 214.411 1351.25 214.411C1350.18 214.411 1349.45 214.936 1349.46 215.756C1349.45 216.402 1349.85 216.83 1350.7 217.006L1351.46 217.165C1351.87 217.254 1352.06 217.419 1352.06 217.67C1352.06 217.973 1351.73 218.201 1351.23 218.201C1350.75 218.201 1350.44 217.993 1350.35 217.595L1349.33 217.693C1349.46 218.507 1350.15 218.989 1351.23 218.989C1352.34 218.989 1353.12 218.414 1353.13 217.574C1353.12 216.942 1352.72 216.555 1351.88 216.374L1351.12 216.212C1350.67 216.111 1350.49 215.955 1350.5 215.698C1350.49 215.398 1350.83 215.19 1351.26 215.19C1351.74 215.19 1352 215.453 1352.08 215.744L1353.03 215.64ZM1355.95 218.989C1356.99 218.989 1357.7 218.484 1357.88 217.713L1356.9 217.603C1356.76 217.979 1356.42 218.175 1355.97 218.175C1355.29 218.175 1354.84 217.73 1354.84 216.971H1357.92V216.651C1357.92 215.095 1356.99 214.411 1355.9 214.411C1354.63 214.411 1353.8 215.343 1353.8 216.711C1353.8 218.103 1354.62 218.989 1355.95 218.989ZM1354.84 216.267C1354.87 215.701 1355.29 215.225 1355.91 215.225C1356.51 215.225 1356.92 215.663 1356.92 216.267H1354.84ZM1360.45 218.98C1361.22 218.98 1361.56 218.527 1361.72 218.204H1361.79V218.902H1362.81V212.99H1361.77V215.202H1361.72C1361.56 214.881 1361.24 214.411 1360.46 214.411C1359.43 214.411 1358.63 215.213 1358.63 216.691C1358.63 218.152 1359.41 218.98 1360.45 218.98ZM1360.74 218.123C1360.05 218.123 1359.69 217.517 1359.69 216.685C1359.69 215.86 1360.05 215.268 1360.74 215.268C1361.42 215.268 1361.79 215.825 1361.79 216.685C1361.79 217.546 1361.41 218.123 1360.74 218.123Z" fill="#1FB162" fill-opacity="0.7"/>
<rect x="1326" y="281" width="46.4516" height="18" rx="8.70968" fill="#F1FFF3" fill-opacity="0.8"/>
<rect x="1326.29" y="281.29" width="45.871" height="17.4194" rx="8.41936" stroke="#74E3A7" stroke-opacity="0.7" stroke-width="0.580645"/>
<path d="M1335.29 292.902H1336.36V290.905H1337.5C1338.86 290.905 1339.59 290.085 1339.59 288.948C1339.59 287.819 1338.87 286.99 1337.51 286.99H1335.29V292.902ZM1336.36 290.024V287.885H1337.35C1338.15 287.885 1338.5 288.318 1338.5 288.948C1338.5 289.577 1338.15 290.024 1337.35 290.024H1336.36ZM1341.67 292.992C1342.37 292.992 1342.79 292.666 1342.98 292.293H1343.01V292.902H1344.02V289.935C1344.02 288.763 1343.06 288.411 1342.21 288.411C1341.28 288.411 1340.57 288.826 1340.33 289.635L1341.31 289.773C1341.41 289.47 1341.71 289.21 1342.22 289.21C1342.7 289.21 1342.97 289.458 1342.97 289.894V289.912C1342.97 290.212 1342.66 290.226 1341.87 290.31C1341.01 290.402 1340.19 290.659 1340.19 291.658C1340.19 292.53 1340.83 292.992 1341.67 292.992ZM1341.95 292.224C1341.51 292.224 1341.2 292.025 1341.2 291.641C1341.2 291.24 1341.55 291.072 1342.02 291.006C1342.29 290.968 1342.84 290.899 1342.97 290.789V291.312C1342.97 291.805 1342.58 292.224 1341.95 292.224ZM1348.57 289.64C1348.43 288.89 1347.83 288.411 1346.79 288.411C1345.72 288.411 1344.99 288.936 1344.99 289.756C1344.99 290.402 1345.39 290.83 1346.24 291.006L1347 291.165C1347.4 291.254 1347.6 291.419 1347.6 291.67C1347.6 291.973 1347.27 292.201 1346.77 292.201C1346.29 292.201 1345.98 291.993 1345.89 291.595L1344.87 291.693C1345 292.507 1345.68 292.989 1346.77 292.989C1347.88 292.989 1348.66 292.414 1348.67 291.574C1348.66 290.942 1348.26 290.555 1347.42 290.374L1346.66 290.212C1346.21 290.111 1346.03 289.955 1346.04 289.698C1346.03 289.398 1346.37 289.19 1346.8 289.19C1347.28 289.19 1347.54 289.453 1347.62 289.744L1348.57 289.64ZM1353.03 289.64C1352.89 288.89 1352.29 288.411 1351.25 288.411C1350.18 288.411 1349.45 288.936 1349.46 289.756C1349.45 290.402 1349.85 290.83 1350.7 291.006L1351.46 291.165C1351.87 291.254 1352.06 291.419 1352.06 291.67C1352.06 291.973 1351.73 292.201 1351.23 292.201C1350.75 292.201 1350.44 291.993 1350.35 291.595L1349.33 291.693C1349.46 292.507 1350.15 292.989 1351.23 292.989C1352.34 292.989 1353.12 292.414 1353.13 291.574C1353.12 290.942 1352.72 290.555 1351.88 290.374L1351.12 290.212C1350.67 290.111 1350.49 289.955 1350.5 289.698C1350.49 289.398 1350.83 289.19 1351.26 289.19C1351.74 289.19 1352 289.453 1352.08 289.744L1353.03 289.64ZM1355.95 292.989C1356.99 292.989 1357.7 292.484 1357.88 291.713L1356.9 291.603C1356.76 291.979 1356.42 292.175 1355.97 292.175C1355.29 292.175 1354.84 291.73 1354.84 290.971H1357.92V290.651C1357.92 289.095 1356.99 288.411 1355.9 288.411C1354.63 288.411 1353.8 289.343 1353.8 290.711C1353.8 292.103 1354.62 292.989 1355.95 292.989ZM1354.84 290.267C1354.87 289.701 1355.29 289.225 1355.91 289.225C1356.51 289.225 1356.92 289.663 1356.92 290.267H1354.84ZM1360.45 292.98C1361.22 292.98 1361.56 292.527 1361.72 292.204H1361.79V292.902H1362.81V286.99H1361.77V289.202H1361.72C1361.56 288.881 1361.24 288.411 1360.46 288.411C1359.43 288.411 1358.63 289.213 1358.63 290.691C1358.63 292.152 1359.41 292.98 1360.45 292.98ZM1360.74 292.123C1360.05 292.123 1359.69 291.517 1359.69 290.685C1359.69 289.86 1360.05 289.268 1360.74 289.268C1361.42 289.268 1361.79 289.825 1361.79 290.685C1361.79 291.546 1361.41 292.123 1360.74 292.123Z" fill="#1FB162" fill-opacity="0.7"/>
<circle cx="996" cy="21" r="2" fill="white"/>
<circle cx="1004" cy="21" r="2" fill="white"/>
<circle cx="1012" cy="21" r="2" fill="white"/>
<path d="M1019.41 236L1020.08 234.075H1022.92L1023.59 236H1024.75L1022.13 228.727H1020.87L1018.25 236H1019.41ZM1020.4 233.152L1021.47 230.048H1021.53L1022.6 233.152H1020.4ZM1030.48 228.727V233.422C1030.48 234.409 1029.8 235.119 1028.69 235.119C1027.58 235.119 1026.9 234.409 1026.9 233.422V228.727H1025.8V233.511C1025.8 235.038 1026.94 236.121 1028.69 236.121C1030.43 236.121 1031.58 235.038 1031.58 233.511V228.727H1030.48ZM1035.72 236H1040.51V235.059H1037.23V235.006L1038.68 233.493C1040.01 232.147 1040.39 231.504 1040.39 230.691C1040.39 229.523 1039.44 228.628 1038.07 228.628C1036.71 228.628 1035.71 229.509 1035.71 230.837H1036.76C1036.76 230.055 1037.26 229.544 1038.05 229.544C1038.79 229.544 1039.35 229.999 1039.35 230.723C1039.35 231.366 1038.96 231.827 1038.18 232.655L1035.72 235.205V236ZM1046.19 234.793L1046.86 234.121L1045.16 232.417L1046.86 230.712L1046.19 230.038L1044.49 231.742L1042.78 230.038L1042.11 230.712L1043.81 232.417L1042.11 234.121L1042.78 234.793L1044.49 233.088L1046.19 234.793ZM1048.51 236H1053.3V235.059H1050.03V235.006L1051.47 233.493C1052.8 232.147 1053.18 231.504 1053.18 230.691C1053.18 229.523 1052.23 228.628 1050.86 228.628C1049.5 228.628 1048.51 229.509 1048.51 230.837H1049.55C1049.55 230.055 1050.06 229.544 1050.84 229.544C1051.58 229.544 1052.14 229.999 1052.14 230.723C1052.14 231.366 1051.76 231.827 1050.97 232.655L1048.51 235.205V236ZM1057.62 232.364C1057.62 234.146 1058.09 235.631 1058.99 236.895H1059.97C1059.27 235.957 1058.72 234.054 1058.72 232.364C1058.72 230.677 1059.27 228.773 1059.97 227.836H1058.99C1058.09 229.1 1057.62 230.585 1057.62 232.364ZM1066.09 231.025H1067.22C1066.97 229.608 1065.76 228.628 1064.19 228.628C1062.31 228.628 1060.94 230.045 1060.94 232.367C1060.94 234.668 1062.27 236.099 1064.24 236.099C1066.01 236.099 1067.27 234.942 1067.27 233.106V232.278H1064.41V233.184H1066.21C1066.18 234.356 1065.41 235.098 1064.24 235.098C1062.96 235.098 1062.03 234.129 1062.03 232.36C1062.03 230.599 1062.97 229.629 1064.2 229.629C1065.17 229.629 1065.82 230.162 1066.09 231.025ZM1070.87 236.11C1072.41 236.11 1073.42 234.984 1073.42 233.298C1073.42 231.6 1072.41 230.474 1070.87 230.474C1069.34 230.474 1068.33 231.6 1068.33 233.298C1068.33 234.984 1069.34 236.11 1070.87 236.11ZM1070.88 235.219C1069.87 235.219 1069.4 234.342 1069.4 233.294C1069.4 232.25 1069.87 231.362 1070.88 231.362C1071.88 231.362 1072.34 232.25 1072.34 233.294C1072.34 234.342 1071.88 235.219 1070.88 235.219ZM1079.07 230.545H1077.93L1076.56 234.743H1076.5L1075.12 230.545H1073.98L1075.96 236H1077.1L1079.07 230.545ZM1082.23 236.11C1083.42 236.11 1084.26 235.524 1084.5 234.636L1083.49 234.455C1083.3 234.97 1082.84 235.233 1082.24 235.233C1081.33 235.233 1080.72 234.643 1080.69 233.592H1084.57V233.216C1084.57 231.245 1083.39 230.474 1082.15 230.474C1080.63 230.474 1079.63 231.632 1079.63 233.308C1079.63 235.002 1080.62 236.11 1082.23 236.11ZM1080.69 232.797C1080.74 232.023 1081.3 231.352 1082.16 231.352C1082.98 231.352 1083.52 231.962 1083.53 232.797H1080.69ZM1085.75 236H1086.81V232.669C1086.81 231.955 1087.36 231.44 1088.11 231.44C1088.33 231.44 1088.58 231.479 1088.66 231.504V230.489C1088.56 230.474 1088.35 230.464 1088.21 230.464C1087.57 230.464 1087.03 230.826 1086.83 231.412H1086.77V230.545H1085.75V236ZM1090.64 232.761C1090.64 231.891 1091.18 231.394 1091.92 231.394C1092.64 231.394 1093.07 231.866 1093.07 232.658V236H1094.14V232.531C1094.14 231.181 1093.39 230.474 1092.28 230.474C1091.46 230.474 1090.92 230.854 1090.67 231.433H1090.6V230.545H1089.58V236H1090.64V232.761ZM1095.56 236H1096.62V232.637C1096.62 231.902 1097.14 231.391 1097.74 231.391C1098.33 231.391 1098.74 231.781 1098.74 232.374V236H1099.8V232.523C1099.8 231.866 1100.2 231.391 1100.89 231.391C1101.45 231.391 1101.91 231.703 1101.91 232.442V236H1102.97V232.342C1102.97 231.096 1102.28 230.474 1101.29 230.474C1100.51 230.474 1099.92 230.851 1099.65 231.433H1099.6C1099.36 230.837 1098.86 230.474 1098.13 230.474C1097.41 230.474 1096.87 230.833 1096.65 231.433H1096.58V230.545H1095.56V236ZM1106.75 236.11C1107.94 236.11 1108.78 235.524 1109.02 234.636L1108.02 234.455C1107.82 234.97 1107.36 235.233 1106.76 235.233C1105.85 235.233 1105.24 234.643 1105.21 233.592H1109.09V233.216C1109.09 231.245 1107.91 230.474 1106.67 230.474C1105.15 230.474 1104.15 231.632 1104.15 233.308C1104.15 235.002 1105.14 236.11 1106.75 236.11ZM1105.21 232.797C1105.26 232.023 1105.82 231.352 1106.68 231.352C1107.5 231.352 1108.04 231.962 1108.05 232.797H1105.21ZM1111.33 232.761C1111.33 231.891 1111.86 231.394 1112.6 231.394C1113.32 231.394 1113.76 231.866 1113.76 232.658V236H1114.82V232.531C1114.82 231.181 1114.08 230.474 1112.96 230.474C1112.14 230.474 1111.61 230.854 1111.35 231.433H1111.29V230.545H1110.27V236H1111.33V232.761ZM1118.79 230.545H1117.67V229.239H1116.61V230.545H1115.81V231.398H1116.61V234.619C1116.61 235.609 1117.36 236.089 1118.2 236.071C1118.54 236.067 1118.76 236.004 1118.89 235.957L1118.7 235.08C1118.63 235.094 1118.49 235.126 1118.32 235.126C1117.98 235.126 1117.67 235.013 1117.67 234.398V231.398H1118.79V230.545ZM1123.79 228.727H1122.7V236H1123.79V228.727ZM1127.75 236C1129.96 236 1131.24 234.626 1131.24 232.353C1131.24 230.091 1129.96 228.727 1127.82 228.727H1125.39V236H1127.75ZM1126.49 235.041V229.686H1127.75C1129.34 229.686 1130.16 230.638 1130.16 232.353C1130.16 234.075 1129.34 235.041 1127.68 235.041H1126.49ZM1137.47 236.11C1139 236.11 1140.01 234.984 1140.01 233.298C1140.01 231.6 1139 230.474 1137.47 230.474C1135.93 230.474 1134.92 231.6 1134.92 233.298C1134.92 234.984 1135.93 236.11 1137.47 236.11ZM1137.47 235.219C1136.47 235.219 1136 234.342 1136 233.294C1136 232.25 1136.47 231.362 1137.47 231.362C1138.47 231.362 1138.94 232.25 1138.94 233.294C1138.94 234.342 1138.47 235.219 1137.47 235.219ZM1141.19 238.045H1142.26V235.151H1142.32C1142.51 235.499 1142.9 236.107 1143.9 236.107C1145.22 236.107 1146.18 235.048 1146.18 233.283C1146.18 231.515 1145.2 230.474 1143.89 230.474C1142.87 230.474 1142.51 231.092 1142.32 231.43H1142.23V230.545H1141.19V238.045ZM1142.23 233.273C1142.23 232.133 1142.73 231.376 1143.66 231.376C1144.62 231.376 1145.1 232.19 1145.1 233.273C1145.1 234.366 1144.61 235.201 1143.66 235.201C1142.75 235.201 1142.23 234.42 1142.23 233.273ZM1149.91 230.545H1148.79V229.239H1147.73V230.545H1146.93V231.398H1147.73V234.619C1147.73 235.609 1148.48 236.089 1149.32 236.071C1149.66 236.067 1149.89 236.004 1150.01 235.957L1149.82 235.08C1149.75 235.094 1149.62 235.126 1149.45 235.126C1149.1 235.126 1148.79 235.013 1148.79 234.398V231.398H1149.91V230.545ZM1151.09 236H1152.15V230.545H1151.09V236ZM1151.62 229.704C1151.99 229.704 1152.29 229.42 1152.29 229.072C1152.29 228.724 1151.99 228.436 1151.62 228.436C1151.25 228.436 1150.95 228.724 1150.95 229.072C1150.95 229.42 1151.25 229.704 1151.62 229.704ZM1155.87 236.11C1157.41 236.11 1158.42 234.984 1158.42 233.298C1158.42 231.6 1157.41 230.474 1155.87 230.474C1154.34 230.474 1153.33 231.6 1153.33 233.298C1153.33 234.984 1154.34 236.11 1155.87 236.11ZM1155.88 235.219C1154.87 235.219 1154.4 234.342 1154.4 233.294C1154.4 232.25 1154.87 231.362 1155.88 231.362C1156.88 231.362 1157.34 232.25 1157.34 233.294C1157.34 234.342 1156.88 235.219 1155.88 235.219ZM1160.66 232.761C1160.66 231.891 1161.2 231.394 1161.94 231.394C1162.66 231.394 1163.09 231.866 1163.09 232.658V236H1164.16V232.531C1164.16 231.181 1163.41 230.474 1162.3 230.474C1161.48 230.474 1160.94 230.854 1160.69 231.433H1160.62V230.545H1159.6V236H1160.66V232.761ZM1167.17 236.121C1168.07 236.121 1168.58 235.663 1168.78 235.254H1168.82V236H1169.86V232.378C1169.86 230.79 1168.61 230.474 1167.74 230.474C1166.75 230.474 1165.85 230.872 1165.49 231.866L1166.49 232.094C1166.64 231.707 1167.04 231.334 1167.76 231.334C1168.44 231.334 1168.79 231.692 1168.79 232.31V232.335C1168.79 232.722 1168.4 232.715 1167.41 232.829C1166.38 232.95 1165.32 233.219 1165.32 234.459C1165.32 235.531 1166.13 236.121 1167.17 236.121ZM1167.4 235.268C1166.8 235.268 1166.36 234.999 1166.36 234.473C1166.36 233.905 1166.87 233.702 1167.48 233.621C1167.83 233.575 1168.64 233.482 1168.8 233.33V234.033C1168.8 234.679 1168.28 235.268 1167.4 235.268ZM1172.33 228.727H1171.27V236H1172.33V228.727ZM1175.8 232.985C1175.8 231.202 1175.33 229.718 1174.43 228.454H1173.45C1174.15 229.391 1174.7 231.295 1174.7 232.985C1174.7 234.672 1174.15 236.575 1173.45 237.513H1174.43C1175.33 236.249 1175.8 234.764 1175.8 232.985ZM1184.85 230.545H1183.71L1182.34 234.743H1182.28L1180.9 230.545H1179.76L1181.74 236H1182.88L1184.85 230.545ZM1188.01 236.11C1189.2 236.11 1190.04 235.524 1190.28 234.636L1189.28 234.455C1189.08 234.97 1188.62 235.233 1188.02 235.233C1187.11 235.233 1186.5 234.643 1186.47 233.592H1190.35V233.216C1190.35 231.245 1189.17 230.474 1187.93 230.474C1186.41 230.474 1185.41 231.632 1185.41 233.308C1185.41 235.002 1186.4 236.11 1188.01 236.11ZM1186.47 232.797C1186.52 232.023 1187.08 231.352 1187.94 231.352C1188.76 231.352 1189.3 231.962 1189.31 232.797H1186.47ZM1191.53 236H1192.59V232.669C1192.59 231.955 1193.14 231.44 1193.89 231.44C1194.11 231.44 1194.36 231.479 1194.45 231.504V230.489C1194.34 230.474 1194.13 230.464 1193.99 230.464C1193.36 230.464 1192.81 230.826 1192.61 231.412H1192.55V230.545H1191.53V236ZM1195.36 236H1196.43V230.545H1195.36V236ZM1195.9 229.704C1196.27 229.704 1196.57 229.42 1196.57 229.072C1196.57 228.724 1196.27 228.436 1195.9 228.436C1195.53 228.436 1195.23 228.724 1195.23 229.072C1195.23 229.42 1195.53 229.704 1195.9 229.704ZM1200.45 230.545H1199.27V230.055C1199.27 229.572 1199.47 229.31 1199.99 229.31C1200.21 229.31 1200.37 229.359 1200.47 229.391L1200.72 228.532C1200.57 228.475 1200.26 228.386 1199.83 228.386C1198.97 228.386 1198.21 228.891 1198.21 229.913V230.545H1197.37V231.398H1198.21V236H1199.27V231.398H1200.45V230.545ZM1201.55 236H1202.61V230.545H1201.55V236ZM1202.08 229.704C1202.45 229.704 1202.75 229.42 1202.75 229.072C1202.75 228.724 1202.45 228.436 1202.08 228.436C1201.71 228.436 1201.41 228.724 1201.41 229.072C1201.41 229.42 1201.71 229.704 1202.08 229.704ZM1206.39 236.11C1207.58 236.11 1208.42 235.524 1208.66 234.636L1207.65 234.455C1207.46 234.97 1207 235.233 1206.4 235.233C1205.49 235.233 1204.88 234.643 1204.85 233.592H1208.73V233.216C1208.73 231.245 1207.55 230.474 1206.31 230.474C1204.79 230.474 1203.79 231.632 1203.79 233.308C1203.79 235.002 1204.78 236.11 1206.39 236.11ZM1204.85 232.797C1204.9 232.023 1205.46 231.352 1206.32 231.352C1207.14 231.352 1207.68 231.962 1207.69 232.797H1204.85ZM1211.95 236.107C1212.94 236.107 1213.33 235.499 1213.52 235.151H1213.61V236H1214.65V228.727H1213.59V231.43H1213.52C1213.33 231.092 1212.97 230.474 1211.95 230.474C1210.64 230.474 1209.67 231.515 1209.67 233.283C1209.67 235.048 1210.62 236.107 1211.95 236.107ZM1212.18 235.201C1211.23 235.201 1210.74 234.366 1210.74 233.273C1210.74 232.19 1211.22 231.376 1212.18 231.376C1213.11 231.376 1213.61 232.133 1213.61 233.273C1213.61 234.42 1213.1 235.201 1212.18 235.201ZM1216.86 236.067C1217.25 236.067 1217.57 235.751 1217.57 235.357C1217.57 234.97 1217.25 234.651 1216.86 234.651C1216.47 234.651 1216.15 234.97 1216.15 235.357C1216.15 235.751 1216.47 236.067 1216.86 236.067Z" fill="#494A53"/>
<path d="M1024.67 302.727H1023.58V308.068H1023.51L1019.81 302.727H1018.8V310H1019.9V304.666H1019.96L1023.66 310H1024.67V302.727ZM1028.48 310.11C1030.02 310.11 1031.02 308.984 1031.02 307.298C1031.02 305.6 1030.02 304.474 1028.48 304.474C1026.94 304.474 1025.94 305.6 1025.94 307.298C1025.94 308.984 1026.94 310.11 1028.48 310.11ZM1028.49 309.219C1027.48 309.219 1027.01 308.342 1027.01 307.294C1027.01 306.25 1027.48 305.362 1028.49 305.362C1029.48 305.362 1029.95 306.25 1029.95 307.294C1029.95 308.342 1029.48 309.219 1028.49 309.219ZM1034.94 310H1036.04V307.443H1037.53C1039.22 307.443 1040.05 306.424 1040.05 305.082C1040.05 303.743 1039.22 302.727 1037.53 302.727H1034.94V310ZM1036.04 306.513V303.668H1037.42C1038.5 303.668 1038.95 304.258 1038.95 305.082C1038.95 305.906 1038.5 306.513 1037.43 306.513H1036.04ZM1041.34 310H1045.94V309.055H1042.44V306.829H1045.66V305.888H1042.44V303.672H1045.9V302.727H1041.34V310ZM1047.36 310H1048.46V307.443H1049.95C1051.64 307.443 1052.47 306.424 1052.47 305.082C1052.47 303.743 1051.65 302.727 1049.96 302.727H1047.36V310ZM1048.46 306.513V303.668H1049.84C1050.93 303.668 1051.37 304.258 1051.37 305.082C1051.37 305.906 1050.93 306.513 1049.85 306.513H1048.46ZM1056.44 302.386H1055.5L1053.15 311.094H1054.1L1056.44 302.386ZM1061.4 304.638H1062.46C1062.42 303.473 1061.39 302.628 1059.92 302.628C1058.46 302.628 1057.34 303.462 1057.34 304.716C1057.34 305.728 1058.06 306.321 1059.23 306.637L1060.09 306.871C1060.87 307.077 1061.47 307.333 1061.47 307.979C1061.47 308.69 1060.79 309.158 1059.86 309.158C1059.01 309.158 1058.31 308.782 1058.25 307.99H1057.14C1057.22 309.308 1058.23 310.121 1059.86 310.121C1061.57 310.121 1062.56 309.222 1062.56 307.99C1062.56 306.68 1061.39 306.172 1060.46 305.945L1059.75 305.76C1059.19 305.614 1058.43 305.348 1058.43 304.652C1058.43 304.034 1059 303.576 1059.89 303.576C1060.73 303.576 1061.32 303.967 1061.4 304.638ZM1065.37 310.121C1066.27 310.121 1066.78 309.663 1066.98 309.254H1067.02V310H1068.06V306.378C1068.06 304.79 1066.81 304.474 1065.94 304.474C1064.96 304.474 1064.05 304.872 1063.69 305.866L1064.69 306.094C1064.85 305.707 1065.25 305.334 1065.96 305.334C1066.64 305.334 1067 305.692 1067 306.31V306.335C1067 306.722 1066.6 306.715 1065.62 306.829C1064.58 306.95 1063.53 307.219 1063.53 308.459C1063.53 309.531 1064.33 310.121 1065.37 310.121ZM1065.6 309.268C1065 309.268 1064.57 308.999 1064.57 308.473C1064.57 307.905 1065.07 307.702 1065.69 307.621C1066.03 307.575 1066.85 307.482 1067 307.33V308.033C1067 308.679 1066.48 309.268 1065.6 309.268ZM1070.54 306.761C1070.54 305.891 1071.07 305.394 1071.81 305.394C1072.53 305.394 1072.97 305.866 1072.97 306.658V310H1074.03V306.531C1074.03 305.181 1073.29 304.474 1072.17 304.474C1071.35 304.474 1070.81 304.854 1070.56 305.433H1070.49V304.545H1069.48V310H1070.54V306.761ZM1077.75 310.11C1079.04 310.11 1079.87 309.336 1079.99 308.274H1078.96C1078.82 308.864 1078.36 309.212 1077.76 309.212C1076.86 309.212 1076.28 308.462 1076.28 307.273C1076.28 306.104 1076.87 305.369 1077.76 305.369C1078.43 305.369 1078.84 305.795 1078.96 306.307H1079.99C1079.88 305.206 1078.98 304.474 1077.74 304.474C1076.2 304.474 1075.21 305.632 1075.21 307.298C1075.21 308.942 1076.17 310.11 1077.75 310.11ZM1083.67 304.545H1082.55V303.239H1081.49V304.545H1080.69V305.398H1081.49V308.619C1081.49 309.609 1082.24 310.089 1083.08 310.071C1083.42 310.067 1083.65 310.004 1083.77 309.957L1083.58 309.08C1083.51 309.094 1083.38 309.126 1083.21 309.126C1082.86 309.126 1082.55 309.013 1082.55 308.398V305.398H1083.67V304.545ZM1084.85 310H1085.91V304.545H1084.85V310ZM1085.38 303.704C1085.75 303.704 1086.05 303.42 1086.05 303.072C1086.05 302.724 1085.75 302.436 1085.38 302.436C1085.01 302.436 1084.71 302.724 1084.71 303.072C1084.71 303.42 1085.01 303.704 1085.38 303.704ZM1089.63 310.11C1091.17 310.11 1092.18 308.984 1092.18 307.298C1092.18 305.6 1091.17 304.474 1089.63 304.474C1088.1 304.474 1087.09 305.6 1087.09 307.298C1087.09 308.984 1088.1 310.11 1089.63 310.11ZM1089.64 309.219C1088.63 309.219 1088.16 308.342 1088.16 307.294C1088.16 306.25 1088.63 305.362 1089.64 305.362C1090.64 305.362 1091.1 306.25 1091.1 307.294C1091.1 308.342 1090.64 309.219 1089.64 309.219ZM1094.42 306.761C1094.42 305.891 1094.96 305.394 1095.7 305.394C1096.42 305.394 1096.85 305.866 1096.85 306.658V310H1097.91V306.531C1097.91 305.181 1097.17 304.474 1096.06 304.474C1095.24 304.474 1094.7 304.854 1094.45 305.433H1094.38V304.545H1093.36V310H1094.42V306.761ZM1103.43 305.877C1103.21 305.028 1102.54 304.474 1101.36 304.474C1100.13 304.474 1099.26 305.124 1099.26 306.09C1099.26 306.864 1099.73 307.379 1100.75 307.607L1101.67 307.809C1102.2 307.926 1102.44 308.161 1102.44 308.501C1102.44 308.924 1101.99 309.254 1101.3 309.254C1100.66 309.254 1100.25 308.981 1100.12 308.445L1099.1 308.601C1099.27 309.567 1100.08 310.11 1101.3 310.11C1102.62 310.11 1103.53 309.411 1103.53 308.423C1103.53 307.653 1103.04 307.177 1102.04 306.946L1101.17 306.747C1100.57 306.605 1100.32 306.403 1100.32 306.033C1100.32 305.614 1100.77 305.316 1101.37 305.316C1102.03 305.316 1102.34 305.682 1102.46 306.048L1103.43 305.877ZM1107.35 310H1108.41V306.637C1108.41 305.902 1108.92 305.391 1109.53 305.391C1110.12 305.391 1110.52 305.781 1110.52 306.374V310H1111.58V306.523C1111.58 305.866 1111.98 305.391 1112.68 305.391C1113.24 305.391 1113.7 305.703 1113.7 306.442V310H1114.76V306.342C1114.76 305.096 1114.07 304.474 1113.08 304.474C1112.29 304.474 1111.7 304.851 1111.44 305.433H1111.38C1111.15 304.837 1110.65 304.474 1109.92 304.474C1109.2 304.474 1108.66 304.833 1108.43 305.433H1108.37V304.545H1107.35V310ZM1117.77 310.121C1118.67 310.121 1119.18 309.663 1119.38 309.254H1119.43V310H1120.46V306.378C1120.46 304.79 1119.21 304.474 1118.35 304.474C1117.36 304.474 1116.45 304.872 1116.1 305.866L1117.09 306.094C1117.25 305.707 1117.65 305.334 1118.36 305.334C1119.05 305.334 1119.4 305.692 1119.4 306.31V306.335C1119.4 306.722 1119 306.715 1118.02 306.829C1116.99 306.95 1115.93 307.219 1115.93 308.459C1115.93 309.531 1116.73 310.121 1117.77 310.121ZM1118 309.268C1117.4 309.268 1116.97 308.999 1116.97 308.473C1116.97 307.905 1117.47 307.702 1118.09 307.621C1118.43 307.575 1119.25 307.482 1119.4 307.33V308.033C1119.4 308.679 1118.89 309.268 1118 309.268ZM1124.42 304.545H1123.31V303.239H1122.24V304.545H1121.44V305.398H1122.24V308.619C1122.24 309.609 1123 310.089 1123.83 310.071C1124.17 310.067 1124.4 310.004 1124.52 309.957L1124.33 309.08C1124.26 309.094 1124.13 309.126 1123.96 309.126C1123.61 309.126 1123.31 309.013 1123.31 308.398V305.398H1124.42V304.545ZM1127.84 310.11C1129.13 310.11 1129.96 309.336 1130.08 308.274H1129.04C1128.91 308.864 1128.45 309.212 1127.84 309.212C1126.95 309.212 1126.37 308.462 1126.37 307.273C1126.37 306.104 1126.96 305.369 1127.84 305.369C1128.52 305.369 1128.93 305.795 1129.04 306.307H1130.08C1129.96 305.206 1129.07 304.474 1127.83 304.474C1126.29 304.474 1125.29 305.632 1125.29 307.298C1125.29 308.942 1126.25 310.11 1127.84 310.11ZM1132.28 306.761C1132.28 305.891 1132.83 305.394 1133.58 305.394C1134.31 305.394 1134.75 305.859 1134.75 306.658V310H1135.81V306.531C1135.81 305.17 1135.07 304.474 1133.94 304.474C1133.1 304.474 1132.58 304.844 1132.33 305.433H1132.26V302.727H1131.21V310H1132.28V306.761ZM1139.58 310.11C1140.77 310.11 1141.61 309.524 1141.85 308.636L1140.85 308.455C1140.66 308.97 1140.19 309.233 1139.59 309.233C1138.68 309.233 1138.07 308.643 1138.04 307.592H1141.92V307.216C1141.92 305.245 1140.74 304.474 1139.51 304.474C1137.99 304.474 1136.98 305.632 1136.98 307.308C1136.98 309.002 1137.97 310.11 1139.58 310.11ZM1138.05 306.797C1138.09 306.023 1138.65 305.352 1139.51 305.352C1140.34 305.352 1140.88 305.962 1140.88 306.797H1138.05ZM1147.19 305.877C1146.97 305.028 1146.3 304.474 1145.12 304.474C1143.89 304.474 1143.02 305.124 1143.02 306.09C1143.02 306.864 1143.49 307.379 1144.51 307.607L1145.43 307.809C1145.96 307.926 1146.2 308.161 1146.2 308.501C1146.2 308.924 1145.75 309.254 1145.06 309.254C1144.42 309.254 1144.01 308.981 1143.88 308.445L1142.86 308.601C1143.03 309.567 1143.84 310.11 1145.06 310.11C1146.38 310.11 1147.29 309.411 1147.29 308.423C1147.29 307.653 1146.8 307.177 1145.8 306.946L1144.93 306.747C1144.33 306.605 1144.08 306.403 1144.08 306.033C1144.08 305.614 1144.53 305.316 1145.13 305.316C1145.79 305.316 1146.1 305.682 1146.22 306.048L1147.19 305.877ZM1152.17 306.761C1152.17 305.891 1152.72 305.394 1153.47 305.394C1154.21 305.394 1154.64 305.859 1154.64 306.658V310H1155.71V306.531C1155.71 305.17 1154.96 304.474 1153.84 304.474C1152.99 304.474 1152.48 304.844 1152.22 305.433H1152.15V302.727H1151.11V310H1152.17V306.761ZM1158.71 310.121C1159.61 310.121 1160.12 309.663 1160.32 309.254H1160.36V310H1161.4V306.378C1161.4 304.79 1160.15 304.474 1159.28 304.474C1158.3 304.474 1157.39 304.872 1157.03 305.866L1158.03 306.094C1158.19 305.707 1158.59 305.334 1159.3 305.334C1159.98 305.334 1160.34 305.692 1160.34 306.31V306.335C1160.34 306.722 1159.94 306.715 1158.96 306.829C1157.92 306.95 1156.87 307.219 1156.87 308.459C1156.87 309.531 1157.67 310.121 1158.71 310.121ZM1158.94 309.268C1158.34 309.268 1157.91 308.999 1157.91 308.473C1157.91 307.905 1158.41 307.702 1159.03 307.621C1159.37 307.575 1160.19 307.482 1160.34 307.33V308.033C1160.34 308.679 1159.82 309.268 1158.94 309.268ZM1167.29 304.545H1166.15L1164.77 308.743H1164.71L1163.33 304.545H1162.19L1164.17 310H1165.31L1167.29 304.545ZM1170.44 310.11C1171.63 310.11 1172.47 309.524 1172.71 308.636L1171.71 308.455C1171.52 308.97 1171.05 309.233 1170.45 309.233C1169.54 309.233 1168.93 308.643 1168.9 307.592H1172.78V307.216C1172.78 305.245 1171.6 304.474 1170.37 304.474C1168.85 304.474 1167.84 305.632 1167.84 307.308C1167.84 309.002 1168.83 310.11 1170.44 310.11ZM1168.91 306.797C1168.95 306.023 1169.51 305.352 1170.37 305.352C1171.2 305.352 1171.74 305.962 1171.74 306.797H1168.91ZM1176.69 310H1177.73V309.151H1177.82C1178.01 309.499 1178.4 310.107 1179.39 310.107C1180.71 310.107 1181.67 309.048 1181.67 307.283C1181.67 305.515 1180.7 304.474 1179.38 304.474C1178.37 304.474 1178 305.092 1177.82 305.43H1177.75V302.727H1176.69V310ZM1177.73 307.273C1177.73 306.133 1178.23 305.376 1179.15 305.376C1180.12 305.376 1180.6 306.19 1180.6 307.273C1180.6 308.366 1180.1 309.201 1179.15 309.201C1178.24 309.201 1177.73 308.42 1177.73 307.273ZM1185.22 310.11C1186.4 310.11 1187.25 309.524 1187.49 308.636L1186.48 308.455C1186.29 308.97 1185.83 309.233 1185.23 309.233C1184.32 309.233 1183.71 308.643 1183.68 307.592H1187.56V307.216C1187.56 305.245 1186.38 304.474 1185.14 304.474C1183.62 304.474 1182.62 305.632 1182.62 307.308C1182.62 309.002 1183.61 310.11 1185.22 310.11ZM1183.68 306.797C1183.72 306.023 1184.28 305.352 1185.15 305.352C1185.97 305.352 1186.51 305.962 1186.51 306.797H1183.68ZM1191.08 310.11C1192.27 310.11 1193.12 309.524 1193.36 308.636L1192.35 308.455C1192.16 308.97 1191.7 309.233 1191.09 309.233C1190.19 309.233 1189.57 308.643 1189.55 307.592H1193.42V307.216C1193.42 305.245 1192.25 304.474 1191.01 304.474C1189.49 304.474 1188.49 305.632 1188.49 307.308C1188.49 309.002 1189.48 310.11 1191.08 310.11ZM1189.55 306.797C1189.59 306.023 1190.15 305.352 1191.02 305.352C1191.84 305.352 1192.38 305.962 1192.38 306.797H1189.55ZM1195.66 306.761C1195.66 305.891 1196.2 305.394 1196.94 305.394C1197.66 305.394 1198.09 305.866 1198.09 306.658V310H1199.16V306.531C1199.16 305.181 1198.41 304.474 1197.3 304.474C1196.48 304.474 1195.94 304.854 1195.69 305.433H1195.62V304.545H1194.6V310H1195.66V306.761ZM1205.82 304.545H1204.65V304.055C1204.65 303.572 1204.84 303.31 1205.36 303.31C1205.58 303.31 1205.74 303.359 1205.84 303.391L1206.09 302.532C1205.94 302.475 1205.63 302.386 1205.2 302.386C1204.34 302.386 1203.58 302.891 1203.58 303.913V304.545H1202.74V305.398H1203.58V310H1204.65V305.398H1205.82V304.545ZM1209 310.11C1210.54 310.11 1211.54 308.984 1211.54 307.298C1211.54 305.6 1210.54 304.474 1209 304.474C1207.46 304.474 1206.46 305.6 1206.46 307.298C1206.46 308.984 1207.46 310.11 1209 310.11ZM1209 309.219C1208 309.219 1207.53 308.342 1207.53 307.294C1207.53 306.25 1208 305.362 1209 305.362C1210 305.362 1210.47 306.25 1210.47 307.294C1210.47 308.342 1210 309.219 1209 309.219ZM1216.18 307.738C1216.19 308.665 1215.5 309.105 1214.9 309.105C1214.24 309.105 1213.79 308.629 1213.79 307.887V304.545H1212.73V308.015C1212.73 309.368 1213.47 310.071 1214.52 310.071C1215.34 310.071 1215.9 309.638 1216.15 309.055H1216.2V310H1217.25V304.545H1216.18V307.738ZM1219.74 306.761C1219.74 305.891 1220.27 305.394 1221.01 305.394C1221.73 305.394 1222.17 305.866 1222.17 306.658V310H1223.23V306.531C1223.23 305.181 1222.49 304.474 1221.37 304.474C1220.55 304.474 1220.01 304.854 1219.76 305.433H1219.69V304.545H1218.67V310H1219.74V306.761ZM1226.69 310.107C1227.69 310.107 1228.08 309.499 1228.27 309.151H1228.36V310H1229.4V302.727H1228.33V305.43H1228.27C1228.08 305.092 1227.72 304.474 1226.7 304.474C1225.38 304.474 1224.41 305.515 1224.41 307.283C1224.41 309.048 1225.37 310.107 1226.69 310.107ZM1226.93 309.201C1225.98 309.201 1225.49 308.366 1225.49 307.273C1225.49 306.19 1225.97 305.376 1226.93 305.376C1227.85 305.376 1228.35 306.133 1228.35 307.273C1228.35 308.42 1227.84 309.201 1226.93 309.201ZM1231.61 310.067C1232 310.067 1232.32 309.751 1232.32 309.357C1232.32 308.97 1232 308.651 1231.61 308.651C1231.22 308.651 1230.9 308.97 1230.9 309.357C1230.9 309.751 1231.22 310.067 1231.61 310.067Z" fill="#494A53"/>
<defs>
<filter id="filter0_f_2290_6297" x="2" y="80" width="294" height="78" filterUnits="userSpaceOnUse" color-interpolation-filters="sRGB">
<feFlood flood-opacity="0" result="BackgroundImageFix"/>
<feBlend mode="normal" in="SourceGraphic" in2="BackgroundImageFix" result="shape"/>
<feGaussianBlur stdDeviation="5" result="effect1_foregroundBlur_2290_6297"/>
</filter>
<filter id="filter1_f_2290_6297" x="2" y="203" width="294" height="78" filterUnits="userSpaceOnUse" color-interpolation-filters="sRGB">
<feFlood flood-opacity="0" result="BackgroundImageFix"/>
<feBlend mode="normal" in="SourceGraphic" in2="BackgroundImageFix" result="shape"/>
<feGaussianBlur stdDeviation="5" result="effect1_foregroundBlur_2290_6297"/>
</filter>
<filter id="filter2_f_2290_6297" x="3" y="326" width="294" height="78" filterUnits="userSpaceOnUse" color-interpolation-filters="sRGB">
<feFlood flood-opacity="0" result="BackgroundImageFix"/>
<feBlend mode="normal" in="SourceGraphic" in2="BackgroundImageFix" result="shape"/>
<feGaussianBlur stdDeviation="5" result="effect1_foregroundBlur_2290_6297"/>
</filter>
<filter id="filter3_f_2290_6297" x="989" y="0" width="449" height="409" filterUnits="userSpaceOnUse" color-interpolation-filters="sRGB">
<feFlood flood-opacity="0" result="BackgroundImageFix"/>
<feBlend mode="normal" in="SourceGraphic" in2="BackgroundImageFix" result="shape"/>
<feGaussianBlur stdDeviation="7.5" result="effect1_foregroundBlur_2290_6297"/>
</filter>
</defs>
</svg>
