<svg width="1291" height="339" viewBox="0 0 1291 339" fill="none" xmlns="http://www.w3.org/2000/svg">
<path d="M704.026 152.364H705.219C705.164 150.827 703.747 149.679 701.779 149.679C699.83 149.679 698.298 150.812 698.298 152.523C698.298 153.895 699.293 154.71 700.884 155.168L702.137 155.526C703.21 155.824 704.165 156.202 704.165 157.216C704.165 158.33 703.091 159.065 701.679 159.065C700.466 159.065 699.392 158.528 699.293 157.375H698.02C698.139 159.045 699.492 160.179 701.679 160.179C704.026 160.179 705.358 158.886 705.358 157.236C705.358 155.327 703.548 154.71 702.494 154.432L701.46 154.153C700.705 153.955 699.492 153.557 699.492 152.463C699.492 151.489 700.387 150.773 701.739 150.773C702.972 150.773 703.906 151.359 704.026 152.364ZM707.226 160H708.4V152.364H707.226V160ZM707.823 151.091C708.28 151.091 708.658 150.733 708.658 150.295C708.658 149.858 708.28 149.5 707.823 149.5C707.365 149.5 706.988 149.858 706.988 150.295C706.988 150.733 707.365 151.091 707.823 151.091ZM711.722 155.406C711.722 154.074 712.547 153.318 713.671 153.318C714.759 153.318 715.421 154.029 715.421 155.227V160H716.594V155.148C716.594 153.199 715.555 152.264 714.009 152.264C712.855 152.264 712.139 152.781 711.781 153.557H711.682V152.364H710.548V160H711.722V155.406ZM721.82 163.023C723.65 163.023 725.121 162.188 725.121 160.219V152.364H723.988V153.577H723.869C723.61 153.179 723.133 152.264 721.641 152.264C719.712 152.264 718.38 153.795 718.38 156.142C718.38 158.528 719.772 159.881 721.621 159.881C723.113 159.881 723.59 159.006 723.849 158.588H723.948V160.139C723.948 161.412 723.053 161.989 721.82 161.989C720.433 161.989 719.946 161.258 719.633 160.835L718.698 161.491C719.175 162.292 720.115 163.023 721.82 163.023ZM721.781 158.827C720.309 158.827 719.553 157.713 719.553 156.122C719.553 154.571 720.289 153.318 721.781 153.318C723.212 153.318 723.968 154.472 723.968 156.122C723.968 157.812 723.192 158.827 721.781 158.827ZM728.442 149.818H727.269V160H728.442V149.818ZM733.793 160.159C735.344 160.159 736.478 159.384 736.836 158.23L735.702 157.912C735.404 158.707 734.713 159.105 733.793 159.105C732.416 159.105 731.466 158.215 731.412 156.58H736.955V156.082C736.955 153.239 735.265 152.264 733.674 152.264C731.606 152.264 730.233 153.895 730.233 156.241C730.233 158.588 731.586 160.159 733.793 160.159ZM731.412 155.565C731.491 154.377 732.331 153.318 733.674 153.318C734.947 153.318 735.762 154.273 735.762 155.565H731.412ZM743.254 160L744.278 157.116H748.395L749.419 160H750.711L746.973 149.818H745.7L741.961 160H743.254ZM744.666 156.023L746.297 151.429H746.376L748.007 156.023H744.666ZM752.297 160H753.53V156.281H755.758C758.129 156.281 759.198 154.839 759.198 153.04C759.198 151.24 758.129 149.818 755.738 149.818H752.297V160ZM753.53 155.188V150.912H755.698C757.354 150.912 757.985 151.817 757.985 153.04C757.985 154.263 757.354 155.188 755.718 155.188H753.53ZM762.417 149.818H761.184V160H762.417V149.818ZM771.551 160.139C772.486 160.139 773.53 159.811 774.191 159.135L774.912 160H776.324L774.917 158.285C775.3 157.793 775.727 156.967 775.727 155.545H774.594C774.594 156.241 774.435 156.858 774.171 157.37L771.959 154.67L772.705 154.114C773.54 153.497 774.057 152.821 774.057 151.847C774.057 150.713 773.122 149.719 771.591 149.719C770.099 149.719 769.125 150.653 769.125 152.026C769.125 152.93 769.617 153.626 770.318 154.472C769.13 155.297 768.31 156.062 768.31 157.295C768.31 158.946 769.543 160.139 771.551 160.139ZM773.49 158.285C772.928 158.812 772.217 159.105 771.511 159.105C770.298 159.105 769.503 158.25 769.503 157.295C769.503 157.017 769.761 156.301 770.676 155.625L771.054 155.347L773.49 158.285ZM771.238 153.795C770.741 153.189 770.318 152.612 770.318 152.045C770.318 151.409 770.855 150.733 771.631 150.733C772.366 150.733 772.864 151.33 772.864 151.847C772.864 152.543 772.486 152.92 771.909 153.298L771.238 153.795ZM781.56 162.864H782.733V158.827H782.833C783.091 159.244 783.589 160.159 785.06 160.159C786.969 160.159 788.302 158.628 788.302 156.202C788.302 153.795 786.969 152.264 785.04 152.264C783.549 152.264 783.091 153.179 782.833 153.577H782.694V152.364H781.56V162.864ZM782.714 156.182C782.714 154.472 783.469 153.318 784.901 153.318C786.393 153.318 787.128 154.571 787.128 156.182C787.128 157.812 786.373 159.105 784.901 159.105C783.489 159.105 782.714 157.912 782.714 156.182ZM791.265 149.818H790.091V160H791.265V149.818ZM795.661 160.179C796.993 160.179 797.689 159.463 797.928 158.966H797.988V160H799.161V154.969C799.161 152.543 797.311 152.264 796.337 152.264C795.184 152.264 793.871 152.662 793.275 154.054L794.388 154.452C794.647 153.895 795.258 153.298 796.377 153.298C797.456 153.298 797.988 153.87 797.988 154.849V154.889C797.988 155.456 797.411 155.406 796.019 155.585C794.602 155.769 793.056 156.082 793.056 157.832C793.056 159.324 794.209 160.179 795.661 160.179ZM795.84 159.125C794.905 159.125 794.229 158.707 794.229 157.892C794.229 156.997 795.044 156.719 795.959 156.599C796.456 156.54 797.789 156.401 797.988 156.162V157.236C797.988 158.19 797.232 159.125 795.84 159.125ZM804.623 152.364H802.993V150.534H801.819V152.364H800.666V153.358H801.819V158.131C801.819 159.463 802.893 160.099 803.888 160.099C804.325 160.099 804.604 160.02 804.763 159.96L804.524 158.906C804.425 158.926 804.265 158.966 804.007 158.966C803.49 158.966 802.993 158.807 802.993 157.812V153.358H804.623V152.364ZM809.789 152.364H808.079V151.588C808.079 150.832 808.397 150.435 809.172 150.435C809.51 150.435 809.709 150.514 809.829 150.554L810.167 149.54C809.988 149.46 809.63 149.341 809.053 149.341C807.959 149.341 806.905 149.997 806.905 151.31V152.364H805.672V153.358H806.905V160H808.079V153.358H809.789V152.364ZM814.221 160.159C816.289 160.159 817.681 158.588 817.681 156.222C817.681 153.835 816.289 152.264 814.221 152.264C812.153 152.264 810.761 153.835 810.761 156.222C810.761 158.588 812.153 160.159 814.221 160.159ZM814.221 159.105C812.65 159.105 811.934 157.753 811.934 156.222C811.934 154.69 812.65 153.318 814.221 153.318C815.792 153.318 816.508 154.69 816.508 156.222C816.508 157.753 815.792 159.105 814.221 159.105ZM819.472 160H820.646V155.168C820.646 154.134 821.461 153.378 822.575 153.378C822.888 153.378 823.211 153.438 823.29 153.457V152.264C823.156 152.254 822.848 152.244 822.674 152.244C821.759 152.244 820.964 152.761 820.685 153.517H820.606V152.364H819.472V160ZM824.681 160H825.855V155.227C825.855 154.109 826.67 153.318 827.585 153.318C828.475 153.318 829.096 153.9 829.096 154.77V160H830.289V155.028C830.289 154.044 830.906 153.318 831.98 153.318C832.815 153.318 833.531 153.761 833.531 154.889V160H834.704V154.889C834.704 153.094 833.74 152.264 832.377 152.264C831.284 152.264 830.483 152.766 830.09 153.557H830.011C829.633 152.741 828.967 152.264 827.963 152.264C826.968 152.264 826.232 152.741 825.914 153.557H825.815V152.364H824.681V160Z" fill="#4959E7"/>
<rect x="104" y="175" width="757" height="8" fill="#F1F5FE"/>
<path d="M857 165L888 178L857 192V165Z" fill="#F1F5FE"/>
<g filter="url(#filter0_f_2290_6404)">
<rect x="10" y="152" width="250" height="58" rx="10" fill="#EFEFF4" fill-opacity="0.6"/>
</g>
<rect x="4.5" y="147.5" width="249" height="57" rx="9.5" fill="white" stroke="#F0F0F4"/>
<path d="M76.2784 172H78.0341V167.909H80.4205C83.1193 167.909 84.4545 166.278 84.4545 164.131C84.4545 161.989 83.1307 160.364 80.4261 160.364H76.2784V172ZM78.0341 166.42V161.869H80.2386C81.9773 161.869 82.6875 162.812 82.6875 164.131C82.6875 165.449 81.9773 166.42 80.2614 166.42H78.0341ZM86.5128 172H93.8764V170.489H88.2685V166.926H93.4276V165.42H88.2685V161.875H93.8082V160.364H86.5128V172ZM96.1534 172H97.9091V167.909H100.295C102.994 167.909 104.33 166.278 104.33 164.131C104.33 161.989 103.006 160.364 100.301 160.364H96.1534V172ZM97.9091 166.42V161.869H100.114C101.852 161.869 102.562 162.812 102.562 164.131C102.562 165.449 101.852 166.42 100.136 166.42H97.9091ZM113.026 172.193C114.469 172.193 115.281 171.46 115.605 170.807H115.673V172H117.332V166.205C117.332 163.665 115.332 163.159 113.946 163.159C112.366 163.159 110.912 163.795 110.344 165.386L111.94 165.75C112.19 165.131 112.827 164.534 113.969 164.534C115.065 164.534 115.628 165.108 115.628 166.097V166.136C115.628 166.756 114.991 166.744 113.423 166.926C111.77 167.119 110.077 167.551 110.077 169.534C110.077 171.25 111.366 172.193 113.026 172.193ZM113.395 170.83C112.435 170.83 111.741 170.398 111.741 169.557C111.741 168.648 112.548 168.324 113.531 168.193C114.082 168.119 115.389 167.972 115.634 167.727V168.852C115.634 169.886 114.81 170.83 113.395 170.83ZM121.294 166.818C121.294 165.426 122.146 164.631 123.328 164.631C124.482 164.631 125.18 165.386 125.18 166.653V172H126.879V166.449C126.879 164.29 125.692 163.159 123.908 163.159C122.595 163.159 121.737 163.767 121.334 164.693H121.226V163.273H119.595V172H121.294V166.818ZM132.425 172.17C134.016 172.17 134.641 171.199 134.947 170.642H135.089V172H136.749V160.364H135.05V164.688H134.947C134.641 164.148 134.061 163.159 132.436 163.159C130.328 163.159 128.777 164.824 128.777 167.653C128.777 170.477 130.305 172.17 132.425 172.17ZM132.8 170.722C131.283 170.722 130.493 169.386 130.493 167.636C130.493 165.903 131.266 164.602 132.8 164.602C134.283 164.602 135.078 165.812 135.078 167.636C135.078 169.472 134.266 170.722 132.8 170.722ZM149.891 163.42H151.584C151.533 161.557 149.885 160.205 147.521 160.205C145.186 160.205 143.396 161.54 143.396 163.545C143.396 165.165 144.555 166.114 146.425 166.619L147.8 166.994C149.044 167.324 150.004 167.733 150.004 168.767C150.004 169.903 148.919 170.653 147.425 170.653C146.072 170.653 144.947 170.051 144.845 168.784H143.084C143.197 170.892 144.828 172.193 147.436 172.193C150.169 172.193 151.743 170.756 151.743 168.784C151.743 166.688 149.874 165.875 148.396 165.511L147.26 165.216C146.351 164.983 145.141 164.557 145.146 163.443C145.146 162.455 146.05 161.722 147.482 161.722C148.817 161.722 149.766 162.347 149.891 163.42ZM156.244 172.193C157.688 172.193 158.5 171.46 158.824 170.807H158.892V172H160.551V166.205C160.551 163.665 158.551 163.159 157.165 163.159C155.585 163.159 154.131 163.795 153.562 165.386L155.159 165.75C155.409 165.131 156.045 164.534 157.188 164.534C158.284 164.534 158.847 165.108 158.847 166.097V166.136C158.847 166.756 158.21 166.744 156.642 166.926C154.989 167.119 153.295 167.551 153.295 169.534C153.295 171.25 154.585 172.193 156.244 172.193ZM156.614 170.83C155.653 170.83 154.96 170.398 154.96 169.557C154.96 168.648 155.767 168.324 156.75 168.193C157.301 168.119 158.608 167.972 158.852 167.727V168.852C158.852 169.886 158.028 170.83 156.614 170.83ZM164.513 166.818C164.513 165.426 165.365 164.631 166.547 164.631C167.7 164.631 168.399 165.386 168.399 166.653V172H170.098V166.449C170.098 164.29 168.911 163.159 167.126 163.159C165.814 163.159 164.956 163.767 164.553 164.693H164.445V163.273H162.814V172H164.513V166.818ZM176.053 172.176C178.115 172.176 179.45 170.938 179.638 169.239H177.984C177.768 170.182 177.036 170.739 176.064 170.739C174.626 170.739 173.7 169.54 173.7 167.636C173.7 165.767 174.643 164.591 176.064 164.591C177.143 164.591 177.803 165.273 177.984 166.091H179.638C179.456 164.33 178.018 163.159 176.036 163.159C173.575 163.159 171.984 165.011 171.984 167.676C171.984 170.307 173.518 172.176 176.053 172.176ZM185.528 163.273H183.739V161.182H182.04V163.273H180.761V164.636H182.04V169.79C182.034 171.375 183.244 172.142 184.585 172.114C185.125 172.108 185.489 172.006 185.688 171.932L185.381 170.528C185.267 170.551 185.057 170.602 184.784 170.602C184.233 170.602 183.739 170.42 183.739 169.438V164.636H185.528V163.273ZM187.408 172H189.107V163.273H187.408V172ZM188.266 161.926C188.851 161.926 189.339 161.472 189.339 160.915C189.339 160.358 188.851 159.898 188.266 159.898C187.675 159.898 187.192 160.358 187.192 160.915C187.192 161.472 187.675 161.926 188.266 161.926ZM195.068 172.176C197.528 172.176 199.136 170.375 199.136 167.676C199.136 164.96 197.528 163.159 195.068 163.159C192.608 163.159 191 164.96 191 167.676C191 170.375 192.608 172.176 195.068 172.176ZM195.074 170.75C193.466 170.75 192.716 169.347 192.716 167.67C192.716 166 193.466 164.58 195.074 164.58C196.67 164.58 197.42 166 197.42 167.67C197.42 169.347 196.67 170.75 195.074 170.75ZM202.732 166.818C202.732 165.426 203.584 164.631 204.766 164.631C205.919 164.631 206.618 165.386 206.618 166.653V172H208.317V166.449C208.317 164.29 207.129 163.159 205.345 163.159C204.033 163.159 203.175 163.767 202.771 164.693H202.663V163.273H201.033V172H202.732V166.818ZM217.135 165.403C216.783 164.045 215.72 163.159 213.834 163.159C211.862 163.159 210.464 164.199 210.464 165.744C210.464 166.983 211.214 167.807 212.851 168.17L214.328 168.494C215.169 168.682 215.561 169.057 215.561 169.602C215.561 170.278 214.839 170.807 213.726 170.807C212.709 170.807 212.055 170.369 211.851 169.511L210.209 169.761C210.493 171.307 211.777 172.176 213.737 172.176C215.845 172.176 217.305 171.057 217.305 169.477C217.305 168.244 216.521 167.483 214.919 167.114L213.533 166.795C212.572 166.568 212.158 166.244 212.163 165.653C212.158 164.983 212.885 164.506 213.851 164.506C214.908 164.506 215.396 165.091 215.595 165.676L217.135 165.403ZM85.9432 184.148C85.5455 181.659 83.5966 180.205 81.1364 180.205C78.125 180.205 75.9034 182.46 75.9034 186.182C75.9034 189.903 78.1136 192.159 81.1364 192.159C83.6932 192.159 85.5625 190.557 85.9432 188.256L84.1705 188.25C83.8693 189.739 82.6193 190.557 81.1477 190.557C79.1534 190.557 77.6477 189.028 77.6477 186.182C77.6477 183.358 79.1477 181.807 81.1534 181.807C82.6364 181.807 83.8807 182.642 84.1705 184.148H85.9432ZM89.6065 186.818C89.6065 185.426 90.4872 184.631 91.6974 184.631C92.8679 184.631 93.5668 185.375 93.5668 186.653V192H95.2656V186.449C95.2656 184.273 94.0724 183.159 92.277 183.159C90.919 183.159 90.1009 183.75 89.6918 184.693H89.5838V180.364H87.9077V192H89.6065V186.818ZM101.294 192.176C103.197 192.176 104.544 191.239 104.93 189.818L103.322 189.528C103.016 190.352 102.277 190.773 101.311 190.773C99.8565 190.773 98.8793 189.83 98.8338 188.148H105.038V187.545C105.038 184.392 103.152 183.159 101.175 183.159C98.7429 183.159 97.1406 185.011 97.1406 187.693C97.1406 190.403 98.7202 192.176 101.294 192.176ZM98.8395 186.875C98.9077 185.636 99.8054 184.562 101.186 184.562C102.504 184.562 103.368 185.54 103.374 186.875H98.8395ZM110.599 192.176C112.662 192.176 113.997 190.938 114.185 189.239H112.531C112.315 190.182 111.582 190.739 110.611 190.739C109.173 190.739 108.247 189.54 108.247 187.636C108.247 185.767 109.19 184.591 110.611 184.591C111.69 184.591 112.349 185.273 112.531 186.091H114.185C114.003 184.33 112.565 183.159 110.582 183.159C108.122 183.159 106.531 185.011 106.531 187.676C106.531 190.307 108.065 192.176 110.599 192.176ZM116.001 192H117.7V188.903L118.547 188.057L121.513 192H123.598L119.825 187.017L123.359 183.273H121.325L117.848 186.966H117.7V180.364H116.001V192Z" fill="#4959E7"/>
<path d="M5 157C5 152.029 9.02944 148 14 148H60V204H14C9.02944 204 5 199.971 5 195V157Z" fill="#F1F5FE"/>
<path d="M24.2223 168.729L32.782 166.223L41.3334 168.729V173.87C41.3334 179.273 37.8875 184.07 32.7791 185.778C27.6693 184.07 24.2223 179.272 24.2223 173.868V168.729Z" stroke="#7A80F6" stroke-width="1.7" stroke-linejoin="round"/>
<path d="M29.1111 176.122L31.6778 178.689L36.8111 173.556" stroke="#7A80F6" stroke-width="1.7" stroke-linecap="round" stroke-linejoin="round"/>
<circle cx="571" cy="175" r="100" fill="#F1F5FE"/>
<circle cx="571" cy="175" r="72" fill="white"/>
<circle cx="571" cy="175" r="44" fill="#4959E7"/>
<path fill-rule="evenodd" clip-rule="evenodd" d="M570.147 192.452H581.862V182.778H570.147C567.323 182.778 564.98 180.412 564.98 177.561V176.924V173.623C564.98 170.772 567.323 168.406 570.147 168.406H581.862V158.731H570.147C562.034 158.731 555.395 165.432 555.395 173.623V176.924V177.561C555.395 185.747 562.033 192.452 570.147 192.452Z" fill="white"/>
<g filter="url(#filter1_f_2290_6404)">
<rect x="914" y="15" width="419" height="309" rx="20" fill="#EFEFF4" fill-opacity="0.6"/>
<rect x="914.5" y="15.5" width="418" height="308" rx="19.5" stroke="#F0F0F4"/>
</g>
<rect x="888.5" y="6.5" width="431" height="308" rx="19.5" fill="white" stroke="#F0F0F4"/>
<path d="M889 26C889 15.5066 897.507 7 908 7H1300C1310.49 7 1319 15.5066 1319 26V38H889V26Z" fill="#99A7F3"/>
<line x1="1319" y1="38.5" x2="889" y2="38.5" stroke="#F2F2F7"/>
<path d="M1078.29 78H1080.66V73.5767H1083.17C1086.19 73.5767 1087.82 71.7614 1087.82 69.2429C1087.82 66.7436 1086.21 64.9091 1083.2 64.9091H1078.29V78ZM1080.66 71.6271V66.8906H1082.84C1084.61 66.8906 1085.4 67.8494 1085.4 69.2429C1085.4 70.6364 1084.61 71.6271 1082.85 71.6271H1080.66ZM1089.88 78H1098.44V76.0121H1092.25V72.4389H1097.95V70.451H1092.25V66.897H1098.39V64.9091H1089.88V78ZM1100.81 78H1103.18V73.5767H1105.69C1108.71 73.5767 1110.33 71.7614 1110.33 69.2429C1110.33 66.7436 1108.73 64.9091 1105.72 64.9091H1100.81V78ZM1103.18 71.6271V66.8906H1105.35C1107.13 66.8906 1107.92 67.8494 1107.92 69.2429C1107.92 70.6364 1107.13 71.6271 1105.37 71.6271H1103.18ZM1128.06 69.326C1127.66 66.4176 1125.42 64.7301 1122.52 64.7301C1119.1 64.7301 1116.53 67.223 1116.53 71.4545C1116.53 75.6797 1119.07 78.179 1122.52 78.179C1125.63 78.179 1127.7 76.1655 1128.06 73.6662L1125.67 73.6534C1125.37 75.1875 1124.12 76.0504 1122.55 76.0504C1120.43 76.0504 1118.91 74.4588 1118.91 71.4545C1118.91 68.5014 1120.42 66.8587 1122.56 66.8587C1124.15 66.8587 1125.4 67.7599 1125.67 69.326H1128.06ZM1132.45 72.2472C1132.45 70.8281 1133.33 70.0099 1134.57 70.0099C1135.78 70.0099 1136.5 70.7834 1136.5 72.1065V78H1138.81V71.7486C1138.81 69.3771 1137.47 68.054 1135.43 68.054C1133.92 68.054 1132.96 68.7379 1132.51 69.8501H1132.4V64.9091H1130.13V78H1132.45V72.2472ZM1145.52 78.1918C1147.81 78.1918 1149.38 77.0732 1149.79 75.3665L1147.63 75.1236C1147.31 75.9545 1146.55 76.3892 1145.55 76.3892C1144.05 76.3892 1143.06 75.4048 1143.04 73.7237H1149.88V73.0142C1149.88 69.5689 1147.81 68.054 1145.4 68.054C1142.58 68.054 1140.75 70.1186 1140.75 73.1484C1140.75 76.2294 1142.56 78.1918 1145.52 78.1918ZM1143.05 72.1641C1143.12 70.9112 1144.05 69.8565 1145.43 69.8565C1146.76 69.8565 1147.65 70.8281 1147.67 72.1641H1143.05ZM1156.12 78.1918C1158.59 78.1918 1160.16 76.728 1160.33 74.6442H1158.12C1157.92 75.6989 1157.16 76.3061 1156.14 76.3061C1154.7 76.3061 1153.77 75.098 1153.77 73.0909C1153.77 71.1094 1154.72 69.9205 1156.14 69.9205C1157.26 69.9205 1157.94 70.6364 1158.12 71.5824H1160.33C1160.17 69.4538 1158.51 68.054 1156.11 68.054C1153.23 68.054 1151.42 70.1314 1151.42 73.1293C1151.42 76.1016 1153.19 78.1918 1156.12 78.1918ZM1162.23 78H1164.54V74.7017L1165.39 73.8004L1168.39 78H1171.16L1167.13 72.4197L1170.94 68.1818H1168.23L1164.7 72.1257H1164.54V64.9091H1162.23V78Z" fill="#62636D"/>
<circle cx="1051.5" cy="72.5" r="15.5" fill="#F1F5FE"/>
<path d="M1044.91 66.776L1051.28 64.9102L1057.65 66.776V70.6023C1057.65 74.624 1055.08 78.1944 1051.28 79.4657C1047.48 78.1944 1044.91 74.6232 1044.91 70.6005V66.776Z" stroke="#4959E7" stroke-width="1.26534" stroke-linejoin="round"/>
<path d="M1048.55 72.2786L1050.46 74.189L1054.28 70.3682" stroke="#4959E7" stroke-width="1.26534" stroke-linecap="round" stroke-linejoin="round"/>
<rect x="1066" y="138" width="77" height="33" rx="6.6" fill="#F1FFF3" fill-opacity="0.8"/>
<rect x="1066.33" y="138.33" width="76.34" height="32.34" rx="6.27" stroke="#74E3A7" stroke-opacity="0.7" stroke-width="0.66"/>
<path d="M1085.64 153.435L1082.01 156.9L1080.2 155.167" stroke="#1FB162" stroke-opacity="0.7" stroke-width="1.23077" stroke-linecap="round" stroke-linejoin="round"/>
<path d="M1082.92 160.86C1086.2 160.86 1088.86 158.201 1088.86 154.92C1088.86 151.64 1086.2 148.98 1082.92 148.98C1079.64 148.98 1076.98 151.64 1076.98 154.92C1076.98 158.201 1079.64 160.86 1082.92 160.86Z" stroke="#1FB162" stroke-opacity="0.7" stroke-width="1.23077" stroke-linecap="round" stroke-linejoin="round"/>
<path d="M1097.84 159H1099V156.3H1100.58C1102.36 156.3 1103.24 155.224 1103.24 153.806C1103.24 152.392 1102.37 151.32 1100.58 151.32H1097.84V159ZM1099 155.317V152.314H1100.46C1101.61 152.314 1102.07 152.936 1102.07 153.806C1102.07 154.676 1101.61 155.317 1100.47 155.317H1099ZM1106.13 159.128C1107.09 159.128 1107.62 158.644 1107.84 158.212H1107.88V159H1108.98V155.175C1108.98 153.499 1107.66 153.165 1106.74 153.165C1105.7 153.165 1104.74 153.585 1104.36 154.635L1105.42 154.875C1105.58 154.466 1106 154.072 1106.76 154.072C1107.48 154.072 1107.85 154.451 1107.85 155.104V155.13C1107.85 155.539 1107.43 155.531 1106.4 155.651C1105.3 155.779 1104.19 156.064 1104.19 157.372C1104.19 158.505 1105.04 159.128 1106.13 159.128ZM1106.38 158.227C1105.74 158.227 1105.29 157.942 1105.29 157.387C1105.29 156.787 1105.82 156.574 1106.47 156.487C1106.83 156.439 1107.69 156.341 1107.85 156.18V156.922C1107.85 157.605 1107.31 158.227 1106.38 158.227ZM1114.79 154.646C1114.55 153.75 1113.85 153.165 1112.61 153.165C1111.31 153.165 1110.38 153.851 1110.38 154.871C1110.38 155.689 1110.88 156.232 1111.96 156.472L1112.93 156.686C1113.49 156.81 1113.75 157.057 1113.75 157.417C1113.75 157.864 1113.27 158.212 1112.54 158.212C1111.86 158.212 1111.43 157.924 1111.3 157.357L1110.21 157.522C1110.4 158.542 1111.25 159.116 1112.54 159.116C1113.93 159.116 1114.9 158.377 1114.9 157.335C1114.9 156.521 1114.38 156.019 1113.32 155.775L1112.41 155.565C1111.77 155.415 1111.5 155.201 1111.5 154.811C1111.5 154.369 1111.98 154.054 1112.62 154.054C1113.32 154.054 1113.64 154.44 1113.77 154.826L1114.79 154.646ZM1120.45 154.646C1120.21 153.75 1119.51 153.165 1118.27 153.165C1116.97 153.165 1116.04 153.851 1116.04 154.871C1116.04 155.689 1116.54 156.232 1117.62 156.472L1118.59 156.686C1119.15 156.81 1119.41 157.057 1119.41 157.417C1119.41 157.864 1118.93 158.212 1118.2 158.212C1117.53 158.212 1117.09 157.924 1116.96 157.357L1115.88 157.522C1116.06 158.542 1116.91 159.116 1118.2 159.116C1119.6 159.116 1120.56 158.377 1120.56 157.335C1120.56 156.521 1120.04 156.019 1118.98 155.775L1118.07 155.565C1117.44 155.415 1117.16 155.201 1117.17 154.811C1117.16 154.369 1117.64 154.054 1118.28 154.054C1118.98 154.054 1119.3 154.44 1119.43 154.826L1120.45 154.646ZM1124.27 159.116C1125.53 159.116 1126.42 158.497 1126.67 157.56L1125.61 157.369C1125.41 157.912 1124.92 158.19 1124.29 158.19C1123.33 158.19 1122.68 157.567 1122.65 156.457H1126.75V156.06C1126.75 153.979 1125.5 153.165 1124.2 153.165C1122.59 153.165 1121.53 154.387 1121.53 156.157C1121.53 157.946 1122.58 159.116 1124.27 159.116ZM1122.65 155.617C1122.7 154.8 1123.29 154.091 1124.2 154.091C1125.07 154.091 1125.64 154.736 1125.65 155.617H1122.65ZM1130.15 159.113C1131.2 159.113 1131.61 158.471 1131.81 158.104H1131.91V159H1133V151.32H1131.88V154.174H1131.81C1131.61 153.817 1131.23 153.165 1130.15 153.165C1128.76 153.165 1127.74 154.264 1127.74 156.131C1127.74 157.995 1128.75 159.113 1130.15 159.113ZM1130.39 158.156C1129.39 158.156 1128.87 157.275 1128.87 156.12C1128.87 154.976 1129.38 154.117 1130.39 154.117C1131.37 154.117 1131.9 154.916 1131.9 156.12C1131.9 157.331 1131.36 158.156 1130.39 158.156Z" fill="#1FB162" fill-opacity="0.7"/>
<line x1="1319" y1="108.5" x2="889" y2="108.5" stroke="#F2F2F7"/>
<line x1="1280" y1="260.5" x2="928" y2="260.5" stroke="#F2F2F7"/>
<path d="M928.861 218H930.442V215.051H932.112C934.128 215.051 935.21 213.841 935.21 212.162C935.21 210.496 934.141 209.273 932.134 209.273H928.861V218ZM930.442 213.751V210.594H931.891C933.075 210.594 933.599 211.233 933.599 212.162C933.599 213.091 933.075 213.751 931.899 213.751H930.442ZM936.583 218H942.294V216.675H938.164V214.293H941.966V212.967H938.164V210.598H942.26V209.273H936.583V218ZM943.873 218H945.453V215.051H947.124C949.14 215.051 950.222 213.841 950.222 212.162C950.222 210.496 949.152 209.273 947.145 209.273H943.873V218ZM945.453 213.751V210.594H946.902C948.087 210.594 948.611 211.233 948.611 212.162C948.611 213.091 948.087 213.751 946.911 213.751H945.453ZM962.042 212.217C961.773 210.278 960.282 209.153 958.347 209.153C956.067 209.153 954.35 210.815 954.35 213.636C954.35 216.453 956.046 218.119 958.347 218.119C960.423 218.119 961.799 216.777 962.042 215.111L960.448 215.102C960.248 216.125 959.413 216.7 958.369 216.7C956.954 216.7 955.94 215.639 955.94 213.636C955.94 211.668 956.945 210.572 958.373 210.572C959.434 210.572 960.265 211.173 960.448 212.217H962.042ZM964.964 214.165C964.964 213.219 965.552 212.673 966.379 212.673C967.189 212.673 967.666 213.189 967.666 214.071V218H969.208V213.832C969.208 212.251 968.314 211.369 966.954 211.369C965.949 211.369 965.309 211.825 965.007 212.567H964.93V209.273H963.422V218H964.964V214.165ZM973.679 218.128C975.204 218.128 976.252 217.382 976.525 216.244L975.085 216.082C974.876 216.636 974.365 216.926 973.7 216.926C972.703 216.926 972.042 216.27 972.029 215.149H976.589V214.676C976.589 212.379 975.208 211.369 973.598 211.369C971.723 211.369 970.5 212.746 970.5 214.766C970.5 216.82 971.706 218.128 973.679 218.128ZM972.034 214.109C972.081 213.274 972.699 212.571 973.619 212.571C974.505 212.571 975.102 213.219 975.11 214.109H972.034ZM980.749 218.128C982.394 218.128 983.442 217.152 983.553 215.763H982.079C981.947 216.466 981.44 216.871 980.762 216.871C979.799 216.871 979.177 216.065 979.177 214.727C979.177 213.406 979.812 212.614 980.762 212.614C981.504 212.614 981.96 213.091 982.079 213.722H983.553C983.447 212.303 982.339 211.369 980.741 211.369C978.823 211.369 977.613 212.754 977.613 214.753C977.613 216.734 978.793 218.128 980.749 218.128ZM984.82 218H986.363V215.801L986.925 215.2L988.928 218H990.773L988.088 214.28L990.624 211.455H988.821L986.469 214.084H986.363V209.273H984.82V218Z" fill="#494A53"/>
<rect x="1236" y="209" width="46.4516" height="18" rx="8.70968" fill="#F1FFF3" fill-opacity="0.8"/>
<rect x="1236.29" y="209.29" width="45.871" height="17.4194" rx="8.41936" stroke="#74E3A7" stroke-opacity="0.7" stroke-width="0.580645"/>
<path d="M1245.29 220.902H1246.36V218.905H1247.5C1248.86 218.905 1249.59 218.085 1249.59 216.948C1249.59 215.819 1248.87 214.99 1247.51 214.99H1245.29V220.902ZM1246.36 218.024V215.885H1247.35C1248.15 215.885 1248.5 216.318 1248.5 216.948C1248.5 217.577 1248.15 218.024 1247.35 218.024H1246.36ZM1251.67 220.992C1252.37 220.992 1252.79 220.666 1252.98 220.293H1253.01V220.902H1254.02V217.935C1254.02 216.763 1253.06 216.411 1252.21 216.411C1251.28 216.411 1250.57 216.826 1250.33 217.635L1251.31 217.773C1251.41 217.47 1251.71 217.21 1252.22 217.21C1252.7 217.21 1252.97 217.458 1252.97 217.894V217.912C1252.97 218.212 1252.66 218.226 1251.87 218.31C1251.01 218.402 1250.19 218.659 1250.19 219.658C1250.19 220.53 1250.83 220.992 1251.67 220.992ZM1251.95 220.224C1251.51 220.224 1251.2 220.025 1251.2 219.641C1251.2 219.24 1251.55 219.072 1252.02 219.006C1252.29 218.968 1252.84 218.899 1252.97 218.789V219.312C1252.97 219.805 1252.58 220.224 1251.95 220.224ZM1258.57 217.64C1258.43 216.89 1257.83 216.411 1256.79 216.411C1255.72 216.411 1254.99 216.936 1254.99 217.756C1254.99 218.402 1255.39 218.83 1256.24 219.006L1257 219.165C1257.4 219.254 1257.6 219.419 1257.6 219.67C1257.6 219.973 1257.27 220.201 1256.77 220.201C1256.29 220.201 1255.98 219.993 1255.89 219.595L1254.87 219.693C1255 220.507 1255.68 220.989 1256.77 220.989C1257.88 220.989 1258.66 220.414 1258.67 219.574C1258.66 218.942 1258.26 218.555 1257.42 218.374L1256.66 218.212C1256.21 218.111 1256.03 217.955 1256.04 217.698C1256.03 217.398 1256.37 217.19 1256.8 217.19C1257.28 217.19 1257.54 217.453 1257.62 217.744L1258.57 217.64ZM1263.03 217.64C1262.89 216.89 1262.29 216.411 1261.25 216.411C1260.18 216.411 1259.45 216.936 1259.46 217.756C1259.45 218.402 1259.85 218.83 1260.7 219.006L1261.46 219.165C1261.87 219.254 1262.06 219.419 1262.06 219.67C1262.06 219.973 1261.73 220.201 1261.23 220.201C1260.75 220.201 1260.44 219.993 1260.35 219.595L1259.33 219.693C1259.46 220.507 1260.15 220.989 1261.23 220.989C1262.34 220.989 1263.12 220.414 1263.13 219.574C1263.12 218.942 1262.72 218.555 1261.88 218.374L1261.12 218.212C1260.67 218.111 1260.49 217.955 1260.5 217.698C1260.49 217.398 1260.83 217.19 1261.26 217.19C1261.74 217.19 1262 217.453 1262.08 217.744L1263.03 217.64ZM1265.95 220.989C1266.99 220.989 1267.7 220.484 1267.88 219.713L1266.9 219.603C1266.76 219.979 1266.42 220.175 1265.97 220.175C1265.29 220.175 1264.84 219.73 1264.84 218.971H1267.92V218.651C1267.92 217.095 1266.99 216.411 1265.9 216.411C1264.63 216.411 1263.8 217.343 1263.8 218.711C1263.8 220.103 1264.62 220.989 1265.95 220.989ZM1264.84 218.267C1264.87 217.701 1265.29 217.225 1265.91 217.225C1266.51 217.225 1266.92 217.663 1266.92 218.267H1264.84ZM1270.45 220.98C1271.22 220.98 1271.56 220.527 1271.72 220.204H1271.79V220.902H1272.81V214.99H1271.77V217.202H1271.72C1271.56 216.881 1271.24 216.411 1270.46 216.411C1269.43 216.411 1268.63 217.213 1268.63 218.691C1268.63 220.152 1269.41 220.98 1270.45 220.98ZM1270.74 220.123C1270.05 220.123 1269.69 219.517 1269.69 218.685C1269.69 217.86 1270.05 217.268 1270.74 217.268C1271.42 217.268 1271.79 217.825 1271.79 218.685C1271.79 219.546 1271.41 220.123 1270.74 220.123Z" fill="#1FB162" fill-opacity="0.7"/>
<circle cx="906" cy="23" r="2" fill="white"/>
<circle cx="914" cy="23" r="2" fill="white"/>
<circle cx="922" cy="23" r="2" fill="white"/>
<path d="M934.669 230.727H933.582V236.068H933.515L929.815 230.727H928.799V238H929.896V232.666H929.964L933.661 238H934.669V230.727ZM938.482 238.11C940.02 238.11 941.025 236.984 941.025 235.298C941.025 233.6 940.02 232.474 938.482 232.474C936.944 232.474 935.939 233.6 935.939 235.298C935.939 236.984 936.944 238.11 938.482 238.11ZM938.486 237.219C937.481 237.219 937.012 236.342 937.012 235.294C937.012 234.25 937.481 233.362 938.486 233.362C939.483 233.362 939.952 234.25 939.952 235.294C939.952 236.342 939.483 237.219 938.486 237.219ZM944.942 238H946.039V235.443H947.53C949.217 235.443 950.052 234.424 950.052 233.082C950.052 231.743 949.224 230.727 947.534 230.727H944.942V238ZM946.039 234.513V231.668H947.417C948.503 231.668 948.947 232.258 948.947 233.082C948.947 233.906 948.503 234.513 947.431 234.513H946.039ZM951.338 238H955.94V237.055H952.435V234.829H955.66V233.888H952.435V231.672H955.898V230.727H951.338V238ZM957.363 238H958.461V235.443H959.952C961.639 235.443 962.474 234.424 962.474 233.082C962.474 231.743 961.646 230.727 959.956 230.727H957.363V238ZM958.461 234.513V231.668H959.839C960.925 231.668 961.369 232.258 961.369 233.082C961.369 233.906 960.925 234.513 959.853 234.513H958.461ZM966.445 230.386H965.496L963.153 239.094H964.101L966.445 230.386ZM971.398 232.638H972.457C972.425 231.473 971.395 230.628 969.918 230.628C968.458 230.628 967.339 231.462 967.339 232.716C967.339 233.728 968.064 234.321 969.232 234.637L970.092 234.871C970.869 235.077 971.469 235.333 971.469 235.979C971.469 236.69 970.791 237.158 969.857 237.158C969.012 237.158 968.309 236.782 968.245 235.99H967.144C967.215 237.308 968.234 238.121 969.864 238.121C971.572 238.121 972.556 237.222 972.556 235.99C972.556 234.68 971.388 234.172 970.464 233.945L969.754 233.76C969.186 233.614 968.43 233.348 968.433 232.652C968.433 232.034 968.998 231.576 969.893 231.576C970.727 231.576 971.32 231.967 971.398 232.638ZM975.369 238.121C976.271 238.121 976.779 237.663 976.982 237.254H977.024V238H978.061V234.378C978.061 232.79 976.811 232.474 975.945 232.474C974.958 232.474 974.048 232.872 973.693 233.866L974.691 234.094C974.847 233.707 975.245 233.334 975.959 233.334C976.644 233.334 976.996 233.692 976.996 234.31V234.335C976.996 234.722 976.598 234.715 975.618 234.829C974.585 234.95 973.526 235.219 973.526 236.459C973.526 237.531 974.333 238.121 975.369 238.121ZM975.6 237.268C975 237.268 974.567 236.999 974.567 236.473C974.567 235.905 975.071 235.702 975.686 235.621C976.03 235.575 976.847 235.482 976.999 235.33V236.033C976.999 236.679 976.485 237.268 975.6 237.268ZM980.537 234.761C980.537 233.891 981.07 233.394 981.809 233.394C982.529 233.394 982.966 233.866 982.966 234.658V238H984.028V234.531C984.028 233.181 983.286 232.474 982.171 232.474C981.35 232.474 980.814 232.854 980.562 233.433H980.495V232.545H979.475V238H980.537V234.761ZM987.75 238.11C989.039 238.11 989.873 237.336 989.99 236.274H988.957C988.822 236.864 988.364 237.212 987.757 237.212C986.858 237.212 986.279 236.462 986.279 235.273C986.279 234.104 986.869 233.369 987.757 233.369C988.431 233.369 988.843 233.795 988.957 234.307H989.99C989.877 233.206 988.978 232.474 987.739 232.474C986.201 232.474 985.207 233.632 985.207 235.298C985.207 236.942 986.166 238.11 987.75 238.11ZM993.672 232.545H992.553V231.239H991.492V232.545H990.693V233.398H991.492V236.619C991.488 237.609 992.244 238.089 993.083 238.071C993.42 238.067 993.647 238.004 993.771 237.957L993.58 237.08C993.509 237.094 993.377 237.126 993.207 237.126C992.862 237.126 992.553 237.013 992.553 236.398V233.398H993.672V232.545ZM994.847 238H995.908V232.545H994.847V238ZM995.383 231.704C995.749 231.704 996.054 231.42 996.054 231.072C996.054 230.724 995.749 230.436 995.383 230.436C995.013 230.436 994.712 230.724 994.712 231.072C994.712 231.42 995.013 231.704 995.383 231.704ZM999.634 238.11C1001.17 238.11 1002.18 236.984 1002.18 235.298C1002.18 233.6 1001.17 232.474 999.634 232.474C998.097 232.474 997.092 233.6 997.092 235.298C997.092 236.984 998.097 238.11 999.634 238.11ZM999.638 237.219C998.633 237.219 998.164 236.342 998.164 235.294C998.164 234.25 998.633 233.362 999.638 233.362C1000.64 233.362 1001.1 234.25 1001.1 235.294C1001.1 236.342 1000.64 237.219 999.638 237.219ZM1004.42 234.761C1004.42 233.891 1004.96 233.394 1005.7 233.394C1006.42 233.394 1006.85 233.866 1006.85 234.658V238H1007.91V234.531C1007.91 233.181 1007.17 232.474 1006.06 232.474C1005.24 232.474 1004.7 232.854 1004.45 233.433H1004.38V232.545H1003.36V238H1004.42V234.761ZM1013.43 233.877C1013.21 233.028 1012.54 232.474 1011.36 232.474C1010.13 232.474 1009.26 233.124 1009.26 234.09C1009.26 234.864 1009.73 235.379 1010.75 235.607L1011.67 235.809C1012.2 235.926 1012.44 236.161 1012.44 236.501C1012.44 236.924 1011.99 237.254 1011.3 237.254C1010.66 237.254 1010.25 236.981 1010.12 236.445L1009.1 236.601C1009.27 237.567 1010.08 238.11 1011.3 238.11C1012.62 238.11 1013.53 237.411 1013.53 236.423C1013.53 235.653 1013.04 235.177 1012.04 234.946L1011.17 234.747C1010.57 234.605 1010.32 234.403 1010.32 234.033C1010.32 233.614 1010.77 233.316 1011.37 233.316C1012.03 233.316 1012.34 233.682 1012.46 234.048L1013.43 233.877ZM1017.35 238H1018.41V234.637C1018.41 233.902 1018.92 233.391 1019.53 233.391C1020.12 233.391 1020.52 233.781 1020.52 234.374V238H1021.58V234.523C1021.58 233.866 1021.98 233.391 1022.68 233.391C1023.24 233.391 1023.7 233.703 1023.7 234.442V238H1024.76V234.342C1024.76 233.096 1024.07 232.474 1023.08 232.474C1022.29 232.474 1021.7 232.851 1021.44 233.433H1021.38C1021.15 232.837 1020.65 232.474 1019.92 232.474C1019.2 232.474 1018.66 232.833 1018.43 233.433H1018.37V232.545H1017.35V238ZM1027.77 238.121C1028.67 238.121 1029.18 237.663 1029.38 237.254H1029.43V238H1030.46V234.378C1030.46 232.79 1029.21 232.474 1028.35 232.474C1027.36 232.474 1026.45 232.872 1026.1 233.866L1027.09 234.094C1027.25 233.707 1027.65 233.334 1028.36 233.334C1029.05 233.334 1029.4 233.692 1029.4 234.31V234.335C1029.4 234.722 1029 234.715 1028.02 234.829C1026.99 234.95 1025.93 235.219 1025.93 236.459C1025.93 237.531 1026.73 238.121 1027.77 238.121ZM1028 237.268C1027.4 237.268 1026.97 236.999 1026.97 236.473C1026.97 235.905 1027.47 235.702 1028.09 235.621C1028.43 235.575 1029.25 235.482 1029.4 235.33V236.033C1029.4 236.679 1028.89 237.268 1028 237.268ZM1034.42 232.545H1033.31V231.239H1032.24V232.545H1031.44V233.398H1032.24V236.619C1032.24 237.609 1033 238.089 1033.83 238.071C1034.17 238.067 1034.4 238.004 1034.52 237.957L1034.33 237.08C1034.26 237.094 1034.13 237.126 1033.96 237.126C1033.61 237.126 1033.31 237.013 1033.31 236.398V233.398H1034.42V232.545ZM1037.84 238.11C1039.13 238.11 1039.96 237.336 1040.08 236.274H1039.04C1038.91 236.864 1038.45 237.212 1037.84 237.212C1036.95 237.212 1036.37 236.462 1036.37 235.273C1036.37 234.104 1036.96 233.369 1037.84 233.369C1038.52 233.369 1038.93 233.795 1039.04 234.307H1040.08C1039.96 233.206 1039.07 232.474 1037.83 232.474C1036.29 232.474 1035.29 233.632 1035.29 235.298C1035.29 236.942 1036.25 238.11 1037.84 238.11ZM1042.28 234.761C1042.28 233.891 1042.83 233.394 1043.58 233.394C1044.31 233.394 1044.75 233.859 1044.75 234.658V238H1045.81V234.531C1045.81 233.17 1045.07 232.474 1043.94 232.474C1043.1 232.474 1042.58 232.844 1042.33 233.433H1042.26V230.727H1041.21V238H1042.28V234.761ZM1049.58 238.11C1050.77 238.11 1051.61 237.524 1051.85 236.636L1050.85 236.455C1050.66 236.97 1050.19 237.233 1049.59 237.233C1048.68 237.233 1048.07 236.643 1048.04 235.592H1051.92V235.216C1051.92 233.245 1050.74 232.474 1049.51 232.474C1047.99 232.474 1046.98 233.632 1046.98 235.308C1046.98 237.002 1047.97 238.11 1049.58 238.11ZM1048.05 234.797C1048.09 234.023 1048.65 233.352 1049.51 233.352C1050.34 233.352 1050.88 233.962 1050.88 234.797H1048.05ZM1057.19 233.877C1056.97 233.028 1056.3 232.474 1055.12 232.474C1053.89 232.474 1053.02 233.124 1053.02 234.09C1053.02 234.864 1053.49 235.379 1054.51 235.607L1055.43 235.809C1055.96 235.926 1056.2 236.161 1056.2 236.501C1056.2 236.924 1055.75 237.254 1055.06 237.254C1054.42 237.254 1054.01 236.981 1053.88 236.445L1052.86 236.601C1053.03 237.567 1053.84 238.11 1055.06 238.11C1056.38 238.11 1057.29 237.411 1057.29 236.423C1057.29 235.653 1056.8 235.177 1055.8 234.946L1054.93 234.747C1054.33 234.605 1054.08 234.403 1054.08 234.033C1054.08 233.614 1054.53 233.316 1055.13 233.316C1055.79 233.316 1056.1 233.682 1056.22 234.048L1057.19 233.877ZM1062.17 234.761C1062.17 233.891 1062.72 233.394 1063.47 233.394C1064.21 233.394 1064.64 233.859 1064.64 234.658V238H1065.71V234.531C1065.71 233.17 1064.96 232.474 1063.84 232.474C1062.99 232.474 1062.48 232.844 1062.22 233.433H1062.15V230.727H1061.11V238H1062.17V234.761ZM1068.71 238.121C1069.61 238.121 1070.12 237.663 1070.32 237.254H1070.36V238H1071.4V234.378C1071.4 232.79 1070.15 232.474 1069.28 232.474C1068.3 232.474 1067.39 232.872 1067.03 233.866L1068.03 234.094C1068.19 233.707 1068.59 233.334 1069.3 233.334C1069.98 233.334 1070.34 233.692 1070.34 234.31V234.335C1070.34 234.722 1069.94 234.715 1068.96 234.829C1067.92 234.95 1066.87 235.219 1066.87 236.459C1066.87 237.531 1067.67 238.121 1068.71 238.121ZM1068.94 237.268C1068.34 237.268 1067.91 236.999 1067.91 236.473C1067.91 235.905 1068.41 235.702 1069.03 235.621C1069.37 235.575 1070.19 235.482 1070.34 235.33V236.033C1070.34 236.679 1069.82 237.268 1068.94 237.268ZM1077.29 232.545H1076.15L1074.77 236.743H1074.71L1073.33 232.545H1072.19L1074.17 238H1075.31L1077.29 232.545ZM1080.44 238.11C1081.63 238.11 1082.47 237.524 1082.71 236.636L1081.71 236.455C1081.52 236.97 1081.05 237.233 1080.45 237.233C1079.54 237.233 1078.93 236.643 1078.9 235.592H1082.78V235.216C1082.78 233.245 1081.6 232.474 1080.37 232.474C1078.85 232.474 1077.84 233.632 1077.84 235.308C1077.84 237.002 1078.83 238.11 1080.44 238.11ZM1078.91 234.797C1078.95 234.023 1079.51 233.352 1080.37 233.352C1081.2 233.352 1081.74 233.962 1081.74 234.797H1078.91ZM1086.69 238H1087.73V237.151H1087.82C1088.01 237.499 1088.4 238.107 1089.39 238.107C1090.71 238.107 1091.67 237.048 1091.67 235.283C1091.67 233.515 1090.7 232.474 1089.38 232.474C1088.37 232.474 1088 233.092 1087.82 233.43H1087.75V230.727H1086.69V238ZM1087.73 235.273C1087.73 234.133 1088.23 233.376 1089.15 233.376C1090.12 233.376 1090.6 234.19 1090.6 235.273C1090.6 236.366 1090.1 237.201 1089.15 237.201C1088.24 237.201 1087.73 236.42 1087.73 235.273ZM1095.22 238.11C1096.4 238.11 1097.25 237.524 1097.49 236.636L1096.48 236.455C1096.29 236.97 1095.83 237.233 1095.23 237.233C1094.32 237.233 1093.71 236.643 1093.68 235.592H1097.56V235.216C1097.56 233.245 1096.38 232.474 1095.14 232.474C1093.62 232.474 1092.62 233.632 1092.62 235.308C1092.62 237.002 1093.61 238.11 1095.22 238.11ZM1093.68 234.797C1093.72 234.023 1094.28 233.352 1095.15 233.352C1095.97 233.352 1096.51 233.962 1096.51 234.797H1093.68ZM1101.08 238.11C1102.27 238.11 1103.12 237.524 1103.36 236.636L1102.35 236.455C1102.16 236.97 1101.7 237.233 1101.09 237.233C1100.19 237.233 1099.57 236.643 1099.55 235.592H1103.42V235.216C1103.42 233.245 1102.25 232.474 1101.01 232.474C1099.49 232.474 1098.49 233.632 1098.49 235.308C1098.49 237.002 1099.48 238.11 1101.08 238.11ZM1099.55 234.797C1099.59 234.023 1100.15 233.352 1101.02 233.352C1101.84 233.352 1102.38 233.962 1102.38 234.797H1099.55ZM1105.66 234.761C1105.66 233.891 1106.2 233.394 1106.94 233.394C1107.66 233.394 1108.09 233.866 1108.09 234.658V238H1109.16V234.531C1109.16 233.181 1108.41 232.474 1107.3 232.474C1106.48 232.474 1105.94 232.854 1105.69 233.433H1105.62V232.545H1104.6V238H1105.66V234.761ZM1115.82 232.545H1114.65V232.055C1114.65 231.572 1114.84 231.31 1115.36 231.31C1115.58 231.31 1115.74 231.359 1115.84 231.391L1116.09 230.532C1115.94 230.475 1115.63 230.386 1115.2 230.386C1114.34 230.386 1113.58 230.891 1113.58 231.913V232.545H1112.74V233.398H1113.58V238H1114.65V233.398H1115.82V232.545ZM1119 238.11C1120.54 238.11 1121.54 236.984 1121.54 235.298C1121.54 233.6 1120.54 232.474 1119 232.474C1117.46 232.474 1116.46 233.6 1116.46 235.298C1116.46 236.984 1117.46 238.11 1119 238.11ZM1119 237.219C1118 237.219 1117.53 236.342 1117.53 235.294C1117.53 234.25 1118 233.362 1119 233.362C1120 233.362 1120.47 234.25 1120.47 235.294C1120.47 236.342 1120 237.219 1119 237.219ZM1126.18 235.738C1126.19 236.665 1125.5 237.105 1124.9 237.105C1124.24 237.105 1123.79 236.629 1123.79 235.887V232.545H1122.73V236.015C1122.73 237.368 1123.47 238.071 1124.52 238.071C1125.34 238.071 1125.9 237.638 1126.15 237.055H1126.2V238H1127.25V232.545H1126.18V235.738ZM1129.74 234.761C1129.74 233.891 1130.27 233.394 1131.01 233.394C1131.73 233.394 1132.17 233.866 1132.17 234.658V238H1133.23V234.531C1133.23 233.181 1132.49 232.474 1131.37 232.474C1130.55 232.474 1130.01 232.854 1129.76 233.433H1129.69V232.545H1128.67V238H1129.74V234.761ZM1136.69 238.107C1137.69 238.107 1138.08 237.499 1138.27 237.151H1138.36V238H1139.4V230.727H1138.33V233.43H1138.27C1138.08 233.092 1137.72 232.474 1136.7 232.474C1135.38 232.474 1134.41 233.515 1134.41 235.283C1134.41 237.048 1135.37 238.107 1136.69 238.107ZM1136.93 237.201C1135.98 237.201 1135.49 236.366 1135.49 235.273C1135.49 234.19 1135.97 233.376 1136.93 233.376C1137.85 233.376 1138.35 234.133 1138.35 235.273C1138.35 236.42 1137.84 237.201 1136.93 237.201ZM1141.61 238.067C1142 238.067 1142.32 237.751 1142.32 237.357C1142.32 236.97 1142 236.651 1141.61 236.651C1141.22 236.651 1140.9 236.97 1140.9 237.357C1140.9 237.751 1141.22 238.067 1141.61 238.067Z" fill="#494A53"/>
<defs>
<filter id="filter0_f_2290_6404" x="0" y="142" width="270" height="78" filterUnits="userSpaceOnUse" color-interpolation-filters="sRGB">
<feFlood flood-opacity="0" result="BackgroundImageFix"/>
<feBlend mode="normal" in="SourceGraphic" in2="BackgroundImageFix" result="shape"/>
<feGaussianBlur stdDeviation="5" result="effect1_foregroundBlur_2290_6404"/>
</filter>
<filter id="filter1_f_2290_6404" x="899" y="0" width="449" height="339" filterUnits="userSpaceOnUse" color-interpolation-filters="sRGB">
<feFlood flood-opacity="0" result="BackgroundImageFix"/>
<feBlend mode="normal" in="SourceGraphic" in2="BackgroundImageFix" result="shape"/>
<feGaussianBlur stdDeviation="7.5" result="effect1_foregroundBlur_2290_6404"/>
</filter>
</defs>
</svg>
